<?xml version="1.0" encoding="iso-8859-1"?>
<!-- Generator: Adobe Illustrator 17.0.0, SVG Export Plug-In . SVG Version: 6.00 Build 0)  -->
<!DOCTYPE svg PUBLIC "-//W3C//DTD SVG 1.1//EN" "http://www.w3.org/Graphics/SVG/1.1/DTD/svg11.dtd">
<svg version="1.1" xmlns="http://www.w3.org/2000/svg" xmlns:xlink="http://www.w3.org/1999/xlink" x="0px" y="0px" width="1840px"
	 height="2400px" viewBox="0 0 1840 2400" style="enable-background:new 0 0 1840 2400;" xml:space="preserve">
<g id="Layer_114">
	<rect style="fill:none;" width="1840" height="2400"/>
	<rect style="fill:none;" width="1840" height="2400"/>
	<rect style="fill:none;" width="1840" height="2400"/>
	<rect style="fill:none;" width="1840" height="2400"/>
	<rect style="fill:none;" width="1840" height="2400"/>
	<rect style="fill:none;" width="1840" height="2400"/>
	<rect style="fill:none;" width="1840" height="2400"/>
	<rect style="fill:none;" width="1840" height="2400"/>
	<rect style="fill:none;" width="1840" height="2400"/>
	<rect style="fill:none;" width="1840" height="2400"/>
	<rect style="fill:none;" width="1840" height="2400"/>
	<rect style="fill:none;" width="1840" height="2400"/>
	<rect style="fill:none;" width="1840" height="2400"/>
</g>
<g id="GS">
	<g id="CEMETRY">
		<polygon style="fill:#C96A2D;" points="789.748,1981.146 789.748,1981.178 788.816,1981.098 788.768,1981.291 788.736,1981.66 
			788.141,1981.644 788.125,1981.644 788.061,1982.303 788.028,1982.303 787.932,1983.911 788.044,1984.891 788.687,1984.859 
			788.703,1984.956 788.752,1985.406 788.993,1985.374 789.973,1985.325 790.086,1985.759 790.15,1985.888 790.488,1985.92 
			790.664,1985.952 790.729,1985.952 790.841,1985.968 790.745,1986.306 790.681,1986.595 790.632,1986.788 790.584,1987.029 
			790.584,1987.045 790.407,1987.865 790.391,1987.929 790.391,1987.945 790.359,1988.138 790.311,1988.363 790.231,1988.604 
			790.038,1989.199 789.989,1989.36 789.973,1989.376 789.973,1989.392 789.909,1989.665 790.568,1989.842 790.777,1989.906 
			790.761,1989.971 790.761,1989.987 790.729,1990.131 790.632,1990.501 790.552,1990.533 790.391,1990.614 789.973,1990.791 
			789.491,1990.887 789.266,1990.903 789.138,1990.919 788.961,1990.903 789.041,1991.369 789.138,1991.98 788.977,1992.077 
			788.768,1992.173 788.687,1992.205 788.398,1992.318 788.109,1992.398 787.739,1992.494 787.482,1992.559 787.209,1992.575 
			786.887,1992.591 786.55,1992.639 786.341,1992.623 785.987,1992.591 785.585,1992.494 785.296,1992.398 785.023,1992.286 
			784.798,1992.189 784.798,1992.173 784.701,1992.141 784.749,1992.044 784.781,1991.868 784.798,1991.755 784.781,1991.659 
			784.781,1991.546 784.749,1991.353 784.765,1991.369 784.765,1991.241 784.749,1991.032 784.749,1990.951 784.765,1990.887 
			784.99,1990.324 784.958,1989.778 784.942,1989.408 784.926,1989.231 784.878,1988.862 785.007,1988.781 785.424,1988.765 
			785.971,1988.749 786.421,1988.733 787.144,1988.588 787.225,1988.637 787.273,1988.765 788.109,1988.524 788.141,1988.524 
			788.028,1987.881 787.948,1987.335 787.884,1987.013 787.819,1986.37 787.771,1986 787.659,1986 786.871,1986.065 786.871,1986 
			786.887,1985.952 786.903,1985.84 786.903,1985.759 786.566,1985.727 786.357,1985.711 786.148,1985.502 786.1,1985.47 
			785.842,1985.277 785.858,1985.261 785.778,1984.618 785.762,1984.505 785.666,1983.846 785.569,1983.123 785.505,1982.753 
			785.489,1982.625 785.553,1982.609 785.987,1982.561 785.939,1981.676 785.746,1981.693 785.746,1981.5 785.826,1981.419 
			785.875,1981.387 785.907,1981.355 786.18,1981.114 786.453,1980.889 786.485,1980.873 786.694,1980.599 786.742,1980.551 
			786.887,1980.358 786.935,1980.391 786.984,1980.326 787.144,1981.13 787.836,1980.985 787.868,1980.487 787.9,1980.133 
			787.916,1979.651 787.61,1979.619 787.691,1979.587 787.803,1979.555 787.884,1979.522 787.932,1979.506 788.093,1979.458 
			788.237,1979.41 788.639,1979.33 788.912,1979.313 789.073,1979.346 789.282,1979.378 789.363,1979.394 789.507,1979.426 
			789.507,1979.378 789.62,1979.41 789.748,1979.522 789.829,1979.603 789.893,1979.683 789.941,1979.78 789.877,1980.214 
			789.829,1980.632 789.78,1981.017 		"/>
		<polygon style="fill:#C96A2D;" points="743.246,2055.176 742.396,2055.401 741.915,2055.513 741.418,2055.754 741.289,2055.513 
			741.145,2055.256 741.016,2055.048 740.631,2054.326 741.738,2053.668 741.899,2053.572 742.011,2053.508 742.492,2053.267 
			743.038,2054.278 		"/>
		<polygon style="fill:#C96A2D;" points="739.268,2058.385 739.011,2057.919 738.867,2057.695 738.434,2056.941 738.145,2056.395 
			737.616,2055.529 737.279,2054.936 736.22,2053.235 735.739,2052.417 735.001,2051.23 734.937,2051.102 734.793,2050.877 
			734.039,2049.722 733.83,2049.385 733.333,2048.615 733.638,2048.423 733.654,2048.455 733.91,2048.743 734.263,2049.177 
			734.44,2049.401 734.873,2049.914 735.194,2050.283 735.675,2050.909 735.996,2051.326 736.22,2051.631 736.349,2051.839 
			736.509,2052.112 737.295,2053.444 737.856,2054.406 738.322,2055.208 738.466,2055.433 738.562,2055.593 738.787,2055.946 
			739.14,2056.556 739.589,2057.294 740.006,2058.015 739.878,2058.08 739.557,2058.24 		"/>
		<polygon style="fill:#C96A2D;" points="731.664,2039.279 731.809,2039.487 732.049,2039.776 732.162,2039.92 732.354,2040.177 
			732.402,2040.241 732.467,2040.305 732.515,2040.354 732.675,2040.514 732.868,2040.722 732.884,2040.755 732.9,2040.739 
			732.964,2040.787 733.445,2040.37 733.477,2040.354 733.878,2040.113 734.006,2040.033 734.295,2039.872 734.391,2039.808 
			734.424,2039.792 734.776,2040.289 734.921,2040.241 735.177,2040.69 735.498,2041.252 735.482,2041.284 735.579,2041.412 
			735.819,2041.701 735.851,2041.733 735.915,2041.813 736.252,2042.23 736.573,2042.054 736.766,2041.942 737.086,2041.733 
			737.151,2041.797 737.231,2041.749 737.632,2041.492 738.177,2041.124 738.562,2040.867 738.947,2040.739 738.979,2040.803 
			739.188,2041.107 739.284,2041.268 739.3,2041.284 739.38,2041.38 739.428,2041.444 739.621,2041.717 739.621,2041.733 
			739.846,2042.07 740.086,2042.455 740.327,2042.776 740.423,2042.904 740.68,2043.257 740.696,2043.241 740.712,2043.273 
			740.92,2043.562 741.209,2043.963 741.369,2044.203 741.337,2044.203 740.744,2044.348 740.696,2044.364 740.423,2044.444 
			740.295,2044.492 739.99,2044.589 739.797,2044.669 739.797,2044.701 739.316,2044.893 738.979,2045.054 738.594,2045.294 
			738.338,2045.439 737.953,2045.679 735.466,2045.038 734.953,2046.834 736.701,2047.139 736.365,2047.62 736.573,2047.909 
			736.621,2047.989 736.637,2048.005 736.814,2048.39 736.846,2048.374 737.135,2048.984 737.135,2049 736.878,2049.177 
			736.974,2049.449 737.102,2049.818 737.118,2049.85 737.199,2050.171 737.247,2050.299 737.279,2050.364 737.311,2050.412 
			737.439,2050.7 737.536,2050.893 737.712,2051.23 737.937,2051.679 738.177,2052.176 738.338,2052.513 738.514,2052.802 
			738.819,2053.379 739.268,2054.214 739.493,2054.631 739.653,2054.871 739.749,2055.048 739.91,2055.24 740.054,2055.401 
			740.263,2055.689 740.583,2056.123 740.824,2055.962 741.498,2057.245 741.594,2057.454 741.353,2057.566 740.295,2058.08 
			739.637,2058.417 739.364,2058.561 739.268,2058.385 739.557,2058.24 739.878,2058.08 740.006,2058.015 739.589,2057.294 
			739.14,2056.556 738.787,2055.946 738.562,2055.593 738.466,2055.433 738.322,2055.208 737.856,2054.406 737.295,2053.444 
			736.509,2052.112 736.349,2051.839 736.22,2051.631 735.996,2051.326 735.675,2050.909 735.194,2050.283 734.873,2049.914 
			734.44,2049.401 734.263,2049.177 733.91,2048.743 733.654,2048.455 733.638,2048.423 733.333,2048.615 733.108,2048.278 
			733.044,2048.182 732.499,2047.348 732.065,2046.674 731.713,2046.193 731.279,2045.551 729.948,2043.642 729.355,2042.808 
			729.306,2042.728 728.665,2041.829 727.285,2039.904 726.852,2039.295 726.387,2038.653 725.825,2037.883 726.018,2037.739 
			726.868,2037.145 727.622,2036.568 729.098,2035.589 729.403,2036.006 729.643,2036.391 729.772,2036.6 729.804,2036.648 
			729.9,2036.792 729.916,2036.808 729.916,2036.824 729.98,2036.888 730.285,2037.322 730.991,2038.316 731.328,2038.846 
			731.632,2039.247 		"/>
		<polygon style="fill:#C96A2D;" points="719.682,2027.729 719.89,2028.001 718.575,2028.723 718.559,2028.723 718.591,2028.9 
			718.511,2028.98 718.495,2028.964 718.142,2028.515 717.949,2028.274 717.901,2028.194 717.885,2028.098 717.885,2027.969 
			717.901,2027.889 717.901,2027.857 717.917,2027.777 717.949,2027.713 718.078,2027.616 718.543,2027.408 718.815,2027.296 
			719.184,2027.151 719.617,2027.664 		"/>
		<polygon style="fill:#C96A2D;" points="719.146,2018.916 719.385,2019.187 719.512,2019.442 719.544,2019.553 719.719,2019.713 
			720.086,2019.968 720.165,2020.079 720.388,2020.238 720.611,2020.397 720.675,2020.445 720.946,2020.636 721.089,2020.732 
			721.376,2020.875 721.424,2020.939 721.742,2021.242 721.933,2021.417 722.093,2021.56 722.029,2021.608 722.045,2021.672 
			722.013,2021.704 721.71,2021.974 721.503,2022.15 721.392,2022.261 721.312,2022.341 720.818,2022.755 720.325,2023.169 
			719.958,2023.456 719.894,2023.488 719.592,2023.711 719.464,2023.806 719.433,2023.806 719.401,2023.822 719.353,2023.822 
			718.684,2024.396 718.126,2023.679 717.999,2023.488 717.872,2023.297 717.728,2023.121 717.521,2022.85 717.473,2022.819 
			717.25,2022.771 717.123,2022.739 716.948,2022.659 716.502,2022.803 716.183,2022.882 716.04,2022.962 715.801,2023.105 
			715.578,2023.137 715.403,2023.169 714.989,2022.962 714.415,2022.643 714.415,2022.612 714.113,2022.373 713.985,2022.261 
			713.364,2021.799 713.523,2021.656 713.699,2021.56 713.794,2021.465 714.097,2021.29 714.304,2021.146 714.559,2020.987 
			714.638,2020.923 714.909,2020.716 715.148,2020.493 715.275,2020.366 715.371,2020.302 715.435,2020.254 715.482,2020.206 
			715.53,2020.127 715.705,2019.904 715.928,2019.681 716.024,2019.617 716.072,2019.585 716.327,2019.346 716.55,2019.123 
			716.9,2018.9 717.298,2018.645 717.505,2018.502 717.649,2018.789 717.776,2019.171 717.824,2019.219 717.856,2019.219 
			718.19,2019.06 718.588,2018.932 718.875,2018.852 718.955,2018.868 719.066,2018.837 		"/>
		<polygon style="fill:#C96A2D;" points="715.546,2016.511 715.944,2016.989 716.135,2017.292 716.215,2017.419 716.486,2017.833 
			716.311,2017.976 716.167,2018.04 716.008,2018.12 715.801,2018.327 715.737,2018.422 715.594,2018.582 715.403,2018.805 
			715.148,2018.964 714.973,2019.091 714.877,2019.187 714.622,2019.362 714.352,2019.521 714.16,2019.681 713.89,2019.888 
			713.587,2020.127 713.491,2020.222 713.46,2020.254 713.3,2020.366 713.173,2020.477 713.141,2020.461 712.488,2021.003 
			713.077,2021.56 713.253,2021.704 713.364,2021.799 712.631,2022.612 711.962,2022.022 711.516,2021.592 711.341,2021.433 
			711.15,2021.274 710.752,2020.907 710.497,2020.668 709.764,2019.999 709.924,2019.792 709.908,2019.776 710.21,2019.458 
			710.226,2019.426 710.417,2019.251 710.401,2019.235 710.545,2019.06 710.529,2019.044 710.847,2018.773 711.405,2018.311 
			711.596,2018.152 711.628,2018.104 711.676,2018.072 711.946,2017.849 711.962,2017.849 712.265,2017.467 712.488,2017.196 
			712.727,2017.005 712.966,2016.814 713.109,2016.734 713.268,2016.67 713.555,2016.527 713.794,2016.479 714.336,2016.447 
			714.463,2016.479 714.511,2016.495 714.511,2016.511 714.638,2016.511 714.941,2016.527 715.275,2016.543 715.403,2016.543 
			715.53,2016.495 		"/>
		<polygon style="fill:#C96A2D;" points="579.576,2046.17 579.48,2046.186 579.257,2046.265 579.162,2046.265 578.827,2046.361 
			578.477,2046.441 578.381,2045.756 578.365,2045.596 578.206,2044.481 578.079,2043.94 577.951,2043.35 577.824,2042.554 
			577.792,2042.395 577.76,2042.299 577.728,2042.188 577.696,2042.044 577.649,2041.933 577.649,2041.646 577.633,2041.407 
			577.601,2041.009 577.553,2040.722 577.537,2040.595 577.521,2040.515 577.585,2040.42 577.649,2040.356 577.744,2040.308 
			577.887,2040.292 578.047,2040.26 578.158,2040.26 578.19,2040.26 578.413,2040.165 578.556,2040.117 578.604,2040.165 
			579.05,2040.085 579.098,2040.197 579.225,2040.595 579.512,2041.471 579.528,2041.503 579.735,2042.124 579.862,2042.458 
			580.054,2042.968 580.372,2043.701 580.42,2043.828 580.882,2044.959 581.025,2045.325 581.137,2045.771 581.153,2045.835 
			580.659,2045.931 580.324,2045.995 579.783,2046.122 		"/>
		<polygon style="fill:#C96A2D;" points="646.393,1990.627 646.17,1990.357 646.059,1990.325 645.884,1990.261 645.453,1990.134 
			645.167,1990.038 644.721,1989.863 644.546,1989.799 644.53,1989.799 644.386,1989.735 644.132,1989.624 643.924,1989.528 
			643.638,1989.385 643.351,1989.257 643.128,1989.289 643.064,1989.273 642.825,1989.273 642.602,1989.289 642.491,1989.353 
			642.379,1989.433 642.3,1989.465 642.22,1989.465 642.141,1989.465 641.933,1989.369 641.726,1989.321 641.567,1989.289 
			641.392,1989.273 641.169,1989.21 640.898,1989.226 640.85,1989.226 640.627,1989.146 640.611,1989.114 640.532,1988.955 
			640.42,1988.716 640.165,1988.302 640.102,1988.222 640.006,1988.079 639.767,1987.84 639.544,1987.665 639.465,1987.617 
			639.321,1987.617 638.907,1987.617 638.668,1987.41 638.636,1987.378 638.477,1987.362 638.35,1987.346 638.206,1987.362 
			638.095,1987.378 638.031,1987.378 637.967,1987.362 637.888,1987.314 637.792,1987.266 637.649,1987.266 637.506,1987.33 
			637.06,1987.569 636.422,1987.728 636.359,1987.808 636.231,1987.776 635.801,1987.681 635.706,1987.585 635.53,1987.426 
			635.307,1987.187 636.422,1984.797 636.725,1984.129 636.311,1983.922 635.945,1983.746 634.097,1982.647 634.782,1981.437 
			634.973,1980.624 635.069,1979.031 635.116,1978.06 635.132,1977.757 635.164,1977.279 635.451,1976.626 635.865,1975.718 
			636.343,1975.145 636.518,1974.922 636.645,1974.444 636.629,1974.125 636.391,1973.871 636.327,1973.648 637.951,1973.345 
			638.573,1972.947 638.7,1972.756 638.78,1972.453 638.796,1972.166 638.732,1971.991 638.493,1971.625 637.251,1970.319 
			637.569,1970.335 638.605,1970.637 638.732,1970.669 638.891,1970.717 639.624,1970.924 639.911,1970.207 641.551,1970.621 
			641.965,1968.917 642.682,1969.076 643.909,1969.331 644.291,1969.411 644.37,1968.949 644.498,1968.184 644.625,1967.372 
			644.689,1967.005 644.721,1966.974 644.785,1966.767 644.864,1966.496 645.039,1965.906 645.358,1964.903 645.549,1964.25 
			645.629,1963.995 645.772,1963.549 645.931,1963.055 645.979,1962.896 646.027,1962.641 646.091,1962.657 646.298,1962.673 
			646.473,1962.705 646.664,1962.737 646.871,1962.753 646.903,1962.769 646.951,1962.8 646.999,1962.816 647.062,1962.832 
			647.126,1962.832 647.206,1962.832 647.269,1962.832 647.333,1962.8 647.445,1962.737 647.54,1962.689 647.604,1962.673 
			647.667,1962.657 647.779,1962.641 647.811,1962.625 647.875,1962.609 647.922,1962.593 648.002,1962.577 648.114,1962.577 
			648.193,1962.593 648.305,1962.641 648.48,1962.689 648.591,1962.721 648.671,1962.721 648.767,1962.721 648.862,1962.705 
			649.005,1962.673 649.085,1962.657 649.244,1962.657 649.404,1962.673 649.515,1962.673 649.611,1962.689 649.659,1962.705 
			649.754,1962.689 649.881,1962.689 650.009,1962.689 650.152,1962.673 650.28,1962.641 650.359,1962.625 650.439,1962.609 
			650.503,1962.593 650.614,1962.546 650.678,1962.53 650.789,1962.498 650.917,1962.466 650.933,1962.482 650.981,1962.482 
			651.124,1962.386 651.235,1962.339 651.299,1962.339 651.442,1962.227 651.665,1962.004 651.761,1961.972 652.207,1961.526 
			652.255,1961.462 652.334,1961.415 652.526,1961.239 652.573,1961.176 654.023,1960.857 654.246,1961.829 654.755,1964.25 
			654.803,1964.409 654.883,1964.823 656.237,1971.083 656.396,1971.816 656.237,1972.787 656.205,1973.106 656.173,1973.345 
			656.062,1973.775 655.982,1974.157 655.95,1974.221 655.918,1974.349 655.87,1974.54 655.807,1974.747 655.631,1975.368 
			655.44,1976.005 655.138,1977.311 655.01,1977.885 654.883,1978.522 654.819,1978.792 654.644,1979.605 654.58,1979.907 
			654.469,1980.529 654.437,1980.64 654.421,1980.815 653.641,1983.109 653.306,1983.682 652.637,1984.431 652.287,1984.702 
			651.904,1984.782 651.634,1984.909 650.168,1986.072 649.961,1986.215 649.754,1986.374 649.579,1986.534 649.372,1986.725 
			649.165,1986.948 648.894,1987.298 648.591,1987.712 648.145,1988.302 647.699,1988.923 647.126,1989.735 646.728,1990.293 
			646.553,1990.516 646.441,1990.611 		"/>
		<polygon style="fill:#C96A2D;" points="579.432,2038.014 579.385,2037.696 579.098,2037.648 579.082,2037.377 579.002,2036.23 
			578.891,2034.606 580.229,2034.526 580.404,2034.765 580.531,2035.052 580.627,2035.322 580.659,2035.418 580.659,2035.514 
			580.659,2035.641 580.627,2035.752 580.579,2035.991 580.468,2036.39 580.356,2036.852 580.293,2037.106 580.229,2037.393 
			580.165,2037.536 580.054,2037.951 		"/>
		<polygon style="fill:#C96A2D;" points="635.755,1975.931 635.85,1975.724 636.328,1975.15 636.503,1974.911 636.631,1974.433 
			636.615,1974.115 636.376,1973.86 636.312,1973.637 637.937,1973.334 638.558,1972.952 638.685,1972.761 638.765,1972.442 
			638.781,1972.156 638.717,1971.98 638.478,1971.614 637.236,1970.324 637.555,1970.34 638.59,1970.626 638.717,1970.674 
			638.877,1970.722 639.609,1970.929 639.896,1970.196 641.536,1970.626 641.951,1968.922 642.667,1969.065 643.894,1969.336 
			644.276,1969.416 644.356,1968.938 644.483,1968.173 644.611,1967.361 644.674,1966.995 644.706,1966.979 644.77,1966.756 
			644.85,1966.485 645.025,1965.896 645.343,1964.908 645.534,1964.239 645.614,1963.984 645.757,1963.538 645.917,1963.045 
			645.964,1962.885 646.012,1962.646 646.076,1962.646 646.283,1962.678 646.458,1962.694 646.649,1962.726 646.857,1962.758 
			646.888,1962.774 646.936,1962.79 646.984,1962.822 647.048,1962.822 647.111,1962.837 647.191,1962.837 647.255,1962.822 
			647.318,1962.79 647.43,1962.742 647.525,1962.694 647.589,1962.662 647.653,1962.662 647.764,1962.63 647.796,1962.63 
			647.86,1962.599 647.908,1962.583 647.987,1962.567 648.099,1962.567 648.178,1962.599 648.29,1962.63 648.465,1962.678 
			648.577,1962.71 648.656,1962.726 648.752,1962.71 648.847,1962.71 648.991,1962.662 649.07,1962.646 649.23,1962.646 
			649.389,1962.662 649.5,1962.678 649.596,1962.694 649.644,1962.694 649.739,1962.694 649.867,1962.678 649.994,1962.678 
			650.138,1962.662 650.265,1962.63 650.345,1962.63 650.424,1962.615 650.488,1962.599 650.599,1962.551 650.663,1962.519 
			650.775,1962.487 650.902,1962.455 650.918,1962.487 650.966,1962.471 651.109,1962.375 651.221,1962.328 651.284,1962.328 
			651.428,1962.232 651.651,1962.009 651.746,1961.977 652.192,1961.515 652.24,1961.468 652.32,1961.404 652.511,1961.245 
			652.559,1961.165 654.008,1960.846 654.231,1961.834 654.741,1964.255 654.789,1964.398 654.868,1964.813 656.222,1971.072 
			656.381,1971.821 656.222,1972.777 656.19,1973.095 656.158,1973.35 656.047,1973.78 655.967,1974.147 655.935,1974.21 
			655.904,1974.338 655.856,1974.529 655.792,1974.736 655.617,1975.373 655.442,1975.931 		"/>
		<path style="fill:#C96A2D;" d="M830.317,1897.303l-0.32,0.352l-0.447,0.479l-0.016,0.016l-0.272,0.32l1.566,0.352l0.128,0.032
			l0.352,0.064l0.144,0.016l0.064,0.016l0.687,0.064l0.304,0.048h0.288l0.272,0.016l0.431,0.016h0.064h0.176l0.24-0.016l0.479-0.016
			l0.192-0.016l0.192-0.016l0.24-0.032l0.399-0.048l0.4-0.08l0.543-0.096l0.399-0.064l-0.032-0.128l0.655-0.144l0.463-0.128
			l0.08,0.336l0.08,0.304h-0.016l-0.288,0.112l-0.016,0.176l-0.08,2.125l-0.048,1.614l-0.048,1.278l-0.048,1.534v0.24l-0.016,0.16
			l-4.203,0.064l-0.847,0.016v0.048l-0.879,0.016h-0.224l-0.288,0.016l-1.63,0.112v-0.112h-0.32h-0.272l-0.16,0.016l-0.24,0.016
			l-0.479,0.032l-0.368,0.032l-0.655,0.032l-0.192,0.016l-0.16,0.016l-0.703,0.016h-0.192l-0.511,0.016l-0.208,0.016h-0.016
			l-1.087,0.032l-0.24,0.016l-0.575,0.08l-0.24,0.016l-0.08,0.016h-0.112h-0.128h-0.128h-0.048h-0.016l-0.304,0.016l-0.352,0.032
			l-0.304,0.032l-0.112,0.016l-0.447,0.032l-0.895,0.032l-0.575,0.032l-0.208,0.016l-0.384,0.016l-0.431,0.016h-0.144v-0.016
			l-0.128,0.016l0.032-0.192l0.032-0.24l0.128-1.135l0.064-0.495l0.671-2.493l0.16-0.591l0.128-0.479l0.08-0.32l0.112-0.464
			l0.08-0.32l0.176-0.623l0.032-0.112l0.208-0.719l0.176-0.559l0.112-0.08l0.016-0.288l0.032-0.304v-0.096l0.016-0.064l0.032-0.304
			l0.064-0.815l1.918,0.128l0.032-0.32l0.623,0.128l0.032-0.448l0.655,0.128l0.208,0.048l0.224,0.032l0.032,0.016l0.176,0.032
			l0.064,0.048l1.007,0.192l0.192,0.048l0.192,0.032l0.607,0.128l1.039,0.224l0.048,0.016l1.438,0.304l0.815,0.176l0.304,0.064
			L830.317,1897.303z M829.693,1898.742l-0.799-0.016l0.016,1.582h0.527v0.096h0.463l0.032-1.454h-0.224L829.693,1898.742z"/>
		<polygon style="fill:#C96A2D;" points="856.588,1894.619 856.54,1894.699 855.693,1894.475 854.67,1894.203 854.159,1894.059 
			853.488,1893.868 852.561,1893.596 851.73,1893.34 851.043,1893.133 850.931,1893.101 851.506,1891.838 851.89,1890.943 
			852.257,1890.16 852.337,1889.968 852.513,1889.569 852.864,1888.754 853.168,1888.083 853.615,1887.076 854.063,1886.005 
			854.478,1885.094 854.878,1885.286 855.198,1885.43 856.444,1886.005 856.732,1886.149 857.227,1886.389 857.515,1886.533 
			858.106,1886.804 858.921,1887.204 859.193,1887.332 859.608,1887.539 859.672,1887.555 859.704,1887.587 		"/>
		<polygon style="fill:#C96A2D;" points="946.783,1635.832 946.955,1636.443 946.908,1636.961 945.073,1636.993 944.979,1636.475 
			944.885,1635.926 944.869,1635.863 945.293,1635.816 946.312,1635.722 946.751,1635.69 946.767,1635.753 		"/>
		<polygon style="fill:#C96A2D;" points="905.902,1582.101 905.792,1582.305 905.557,1582.776 906.263,1583.074 906.341,1583.372 
			906.435,1584.501 906.467,1584.941 906.576,1586.117 906.796,1586.572 906.843,1587.623 906.702,1587.717 906.624,1587.764 
			906.42,1587.89 906.325,1588.627 906.294,1588.847 905.965,1588.659 903.361,1587.105 901.039,1585.709 900.992,1585.678 
			901.18,1585.427 901.494,1584.972 901.949,1584.297 902.184,1583.952 903.109,1582.587 903.972,1581.364 904.098,1581.191 
			904.176,1581.238 904.553,1581.489 904.867,1581.599 905.165,1581.725 905.384,1581.834 905.729,1582.023 		"/>
		<polygon style="fill:#C96A2D;" points="929.841,1648.099 930.641,1648.335 932.304,1648.225 932.319,1648.68 932.507,1648.664 
			933.292,1648.649 933.323,1648.884 933.794,1648.884 933.794,1650.139 933.794,1650.86 933.653,1651.096 933.637,1651.833 
			933.59,1652.884 933.527,1652.696 933.527,1652.68 933.511,1652.649 933.496,1652.618 933.449,1652.555 933.355,1652.445 
			933.339,1652.414 933.276,1652.351 933.245,1652.319 933.229,1652.304 933.213,1652.304 933.182,1652.272 933.151,1652.257 
			933.104,1652.241 933.025,1652.21 932.868,1652.163 932.821,1652.147 932.57,1652.1 932.523,1652.1 932.209,1652.1 
			932.194,1652.1 931.017,1652.178 931.001,1651.739 930.248,1651.959 930.374,1652.21 930.358,1652.21 930.233,1652.272 
			930.107,1652.351 930.029,1652.319 929.997,1652.319 929.95,1652.335 929.919,1652.335 929.888,1652.335 929.872,1652.335 
			929.841,1652.304 929.48,1652.288 929.464,1652.147 929.401,1651.049 929.448,1650.17 929.48,1649.715 929.809,1648.084 		"/>
		<polygon style="fill:#C96A2D;" points="939.237,1660.775 939.112,1661.136 937.37,1660.838 937.229,1661.826 937.12,1662.595 
			938.469,1662.893 937.935,1664.368 937.778,1664.854 937.402,1664.823 936.994,1664.948 936.931,1665.152 936.774,1665.199 
			936.649,1665.011 936.523,1665.042 936.288,1664.807 936.037,1664.729 936.006,1664.54 935.645,1664.195 935.41,1663.771 
			935.237,1663.615 935.112,1663.332 934.908,1663.144 934.876,1663.144 934.515,1663.081 934.531,1663.034 934.625,1663.003 
			934.61,1662.877 934.688,1662.705 934.688,1662.642 934.688,1662.516 934.688,1662.375 934.547,1661.983 934.515,1661.45 
			934.468,1660.916 934.453,1660.634 934.437,1660.587 934.437,1660.43 934.374,1660.054 934.359,1659.975 934.562,1659.944 
			936.727,1659.755 936.743,1659.771 936.759,1659.787 936.79,1659.818 937.025,1659.975 937.041,1659.975 937.088,1660.006 
			937.763,1660.242 938.312,1660.446 939.096,1660.728 		"/>
		<polygon style="fill:#C96A2D;" points="906.294,1588.847 906.294,1588.862 906.2,1589.521 906.153,1589.553 905.792,1589.663 
			905.274,1590.588 905.698,1590.823 905.604,1590.965 905.557,1591.043 905.494,1591.121 905.055,1590.87 904.584,1591.561 
			904.035,1592.188 904.318,1592.455 904.333,1592.471 904.412,1592.565 903.863,1592.863 901.384,1594.039 901.368,1594.039 
			901.274,1594.102 901.18,1594.149 901.07,1594.196 900.976,1594.228 900.866,1594.259 900.756,1594.275 900.647,1594.29 
			900.537,1594.29 900.427,1594.29 900.317,1594.29 900.223,1594.275 900.113,1594.243 900.003,1594.212 899.894,1594.181 
			899.878,1594.165 898.654,1593.851 898.654,1593.835 897.494,1593.584 897.462,1593.584 897.337,1593.569 897.305,1593.569 
			897.18,1593.569 897.164,1593.569 897.039,1593.569 897.023,1593.584 896.882,1593.584 896.866,1593.6 896.741,1593.616 
			896.646,1593.569 896.584,1593.553 896.443,1593.475 896.144,1593.302 896.003,1593.239 895.988,1593.239 895.815,1593.208 
			895.69,1593.208 895.768,1593.083 895.94,1592.831 896.333,1592.267 897.086,1591.2 897.917,1589.976 898.482,1589.098 
			899.878,1587.09 900.992,1585.678 901.039,1585.709 903.361,1587.105 905.965,1588.659 		"/>
		<polygon style="fill:#C96A2D;" points="940.649,1661.356 940.508,1661.607 940.304,1662.03 940.116,1662.375 940.069,1662.563 
			939.975,1662.862 939.959,1662.924 939.833,1663.395 939.865,1663.395 940.006,1663.442 939.755,1663.63 939.677,1663.819 
			939.567,1664.054 939.582,1664.273 939.473,1664.399 939.378,1664.791 939.08,1664.619 939.002,1664.556 938.735,1664.556 
			938.657,1664.587 937.778,1664.854 937.935,1664.368 938.469,1662.893 938.767,1662.077 939.112,1661.136 939.237,1660.775 
			939.896,1661.01 		"/>
		<polygon style="fill:#C96A2D;" points="942.296,1661.873 942.312,1662.062 942.202,1663.097 942.218,1663.066 942.202,1663.034 
			942.155,1662.532 942.155,1662.485 942.077,1662.187 942.061,1662.171 942.014,1661.999 941.998,1661.983 941.983,1661.952 
			941.983,1661.936 941.857,1661.732 941.841,1661.716 941.779,1661.638 941.622,1661.434 941.59,1661.403 941.386,1661.214 
			941.371,1661.199 941.12,1661.01 941.12,1660.995 941.041,1660.948 941.041,1660.932 940.994,1660.916 940.979,1660.901 
			940.947,1660.885 940.32,1660.603 940.116,1660.508 940.1,1660.493 938.986,1660.101 939.002,1660.038 939.143,1659.442 
			939.206,1659.175 939.52,1657.873 940.131,1655.363 940.288,1654.72 940.524,1654.735 941.151,1654.798 941.167,1654.798 
			941.716,1654.829 941.747,1654.829 942.092,1654.798 942.108,1654.798 942.375,1654.751 942.406,1654.751 942.704,1654.657 
			942.736,1654.657 943.096,1654.5 944.053,1654.108 944.257,1654.029 944.571,1653.92 944.571,1653.982 944.524,1654.563 
			944.351,1655.143 944.006,1655.959 943.19,1657.92 942.171,1658.312 941.7,1659.552 942.108,1660.289 		"/>
		<polygon style="fill:#C96A2D;" points="946.775,1635.827 946.948,1636.439 946.901,1636.957 945.066,1636.988 944.971,1636.47 
			944.877,1635.921 944.877,1635.859 945.285,1635.811 946.305,1635.717 946.744,1635.686 946.76,1635.749 		"/>
		<path style="fill:#C96A2D;" d="M941.928,1654.809l0.157-0.016h0.016l0.267-0.047h0.031l0.314-0.094h0.031l0.345-0.157l0.957-0.392
			l0.204-0.078l0.314-0.11l0.016,0.063l-0.063,0.58l-0.173,0.581l-0.345,0.816l-0.816,1.961l-1.02,0.392l-0.235,0.628V1654.809z
			 M941.928,1659.971l0.173,0.314l0.188,1.584l0.031,0.188l-0.11,1.035v-0.031v-0.031l-0.047-0.502l-0.016-0.047l-0.078-0.298
			v-0.016l-0.063-0.173v-0.016l-0.016-0.031l-0.016-0.016l-0.047-0.078V1659.971z"/>
		<polygon style="fill:#C96A2D;" points="929.835,1648.08 930.635,1648.315 932.298,1648.221 932.314,1648.66 932.502,1648.66 
			933.287,1648.645 933.318,1648.864 933.789,1648.88 933.789,1650.119 933.789,1650.857 933.647,1651.076 933.632,1651.829 
			933.585,1652.88 933.522,1652.692 933.522,1652.676 933.506,1652.629 933.491,1652.598 933.443,1652.551 933.349,1652.425 
			933.334,1652.394 933.271,1652.347 933.24,1652.316 933.224,1652.3 933.208,1652.284 933.177,1652.269 933.145,1652.253 
			933.098,1652.237 933.02,1652.206 932.863,1652.143 932.816,1652.127 932.565,1652.08 932.518,1652.08 932.204,1652.08 
			932.188,1652.08 931.012,1652.174 930.996,1651.735 930.243,1651.955 930.369,1652.206 930.353,1652.206 930.228,1652.269 
			930.102,1652.331 930.024,1652.316 929.992,1652.3 929.945,1652.316 929.914,1652.331 929.882,1652.331 929.867,1652.316 
			929.835,1652.3 929.475,1652.269 929.459,1652.143 929.396,1651.045 929.443,1650.166 929.475,1649.711 929.804,1648.08 		"/>
		<polygon style="fill:#C96A2D;" points="939.232,1660.771 939.107,1661.116 937.365,1660.834 937.224,1661.807 937.114,1662.591 
			938.463,1662.889 937.93,1664.364 937.773,1664.85 937.397,1664.819 936.989,1664.944 936.926,1665.148 936.769,1665.195 
			936.644,1665.007 936.518,1665.023 936.283,1664.787 936.032,1664.709 936,1664.536 935.64,1664.191 935.404,1663.768 
			935.232,1663.595 935.106,1663.328 934.902,1663.125 934.871,1663.125 934.51,1663.077 934.526,1663.015 934.62,1662.999 
			934.604,1662.874 934.683,1662.701 934.683,1662.638 934.683,1662.513 934.683,1662.371 934.542,1661.964 934.51,1661.446 
			934.463,1660.912 934.447,1660.63 934.432,1660.567 934.432,1660.411 934.369,1660.034 934.353,1659.956 934.557,1659.924 
			936.722,1659.752 936.738,1659.767 936.753,1659.783 936.785,1659.799 937.02,1659.956 937.036,1659.971 937.083,1659.987 
			937.757,1660.238 938.306,1660.442 939.091,1660.709 		"/>
		<polygon style="fill:#C96A2D;" points="940.644,1661.352 940.503,1661.603 940.299,1662.011 940.111,1662.356 940.063,1662.544 
			939.969,1662.842 939.954,1662.921 939.828,1663.375 939.859,1663.391 940.001,1663.422 939.75,1663.626 939.671,1663.799 
			939.561,1664.05 939.577,1664.27 939.467,1664.395 939.373,1664.772 939.075,1664.615 938.997,1664.552 938.73,1664.552 
			938.652,1664.568 937.773,1664.85 937.93,1664.364 938.463,1662.889 938.761,1662.058 939.107,1661.116 939.232,1660.771 
			939.891,1661.007 		"/>
		<polygon style="fill:#C96A2D;" points="942.291,1661.854 942.307,1662.058 942.197,1663.077 942.213,1663.062 942.197,1663.03 
			942.15,1662.528 942.15,1662.481 942.071,1662.183 942.056,1662.167 942.009,1661.979 941.993,1661.979 941.977,1661.932 
			941.977,1661.917 941.852,1661.728 941.836,1661.713 941.773,1661.634 941.617,1661.43 941.585,1661.399 941.381,1661.195 
			941.365,1661.179 941.114,1660.991 941.036,1660.928 940.989,1660.897 940.973,1660.881 940.942,1660.865 940.314,1660.583 
			940.111,1660.489 940.095,1660.489 938.981,1660.081 938.997,1660.018 939.138,1659.438 939.201,1659.171 939.514,1657.853 
			940.126,1655.343 940.283,1654.7 940.518,1654.732 941.146,1654.779 941.162,1654.779 941.711,1654.81 941.742,1654.81 
			942.087,1654.779 942.103,1654.779 942.37,1654.747 942.401,1654.732 942.699,1654.653 942.73,1654.637 943.091,1654.496 
			944.048,1654.104 944.252,1654.01 944.566,1653.916 944.566,1653.963 944.519,1654.559 944.346,1655.139 944.001,1655.955 
			943.185,1657.9 942.166,1658.293 941.695,1659.548 942.103,1660.269 		"/>
		<polygon style="fill:#C96A2D;" points="873.977,1743.972 873.961,1744.228 874.474,1744.26 874.49,1744.02 874.827,1744.052 
			874.891,1744.068 875.468,1744.116 875.613,1744.132 876.559,1744.228 878.355,1744.389 880.904,1744.677 881.209,1744.709 
			882.107,1744.805 882.283,1744.821 882.203,1745.896 882.203,1745.944 882.187,1746.056 882.091,1747.467 882.011,1747.467 
			881.979,1747.467 881.867,1748.349 881.818,1748.734 881.867,1748.734 881.947,1748.75 881.818,1749.296 881.802,1749.328 
			881.802,1749.36 881.225,1752.006 881.177,1752.262 881.129,1752.503 880.969,1753.08 880.744,1753.914 880.744,1755.085 
			880.792,1755.951 880.744,1756.143 880.487,1757.025 880.728,1757.121 881.049,1757.234 881.658,1757.715 881.61,1757.875 
			881.498,1758.292 881.385,1758.757 881.097,1759.831 881.097,1759.863 881.081,1759.944 881.017,1760.28 881.225,1760.296 
			881.161,1760.569 880.84,1761.82 880.824,1761.932 880.696,1762.365 880.664,1762.461 880.584,1762.558 880.487,1762.59 
			880.375,1762.606 880.183,1763.327 879.99,1764.129 879.686,1765.284 879.67,1765.38 879.622,1765.556 879.654,1765.588 
			879.734,1765.669 879.766,1765.781 879.782,1765.861 879.782,1765.877 879.766,1766.005 879.702,1766.118 879.605,1766.198 
			879.541,1766.246 879.461,1766.262 879.397,1766.518 879.333,1766.759 879.044,1767.785 878.194,1767.801 877.264,1767.898 
			877.168,1767.914 876.767,1767.962 875.805,1768.106 875.436,1768.138 874.618,1768.202 874.554,1768.202 874.362,1768.218 
			874.057,1768.25 874.458,1765.556 874.057,1765.38 873.143,1765.011 872.871,1764.899 872.646,1764.803 872.534,1764.755 
			872.566,1764.097 872.742,1762.878 872.854,1762.044 872.935,1761.002 872.919,1760.842 872.854,1760.104 872.534,1758.677 
			872.341,1758.148 872.438,1757.057 871.973,1752.07 871.956,1751.893 873.768,1751.669 873.817,1751.493 873.833,1751.268 
			873.64,1751.027 873.576,1750.675 873.528,1749.857 873.544,1749.664 873.592,1749.312 873.704,1748.478 873.432,1748.381 
			873.4,1748.109 873.416,1747.917 873.496,1747.355 873.576,1746.473 873.672,1744.757 873.785,1743.956 		"/>
		<polygon style="fill:#C96A2D;" points="871.379,1735.28 871.139,1734.975 871.01,1734.847 870.674,1734.494 870.497,1734.318 
			870.177,1734.029 870,1733.869 869.824,1733.74 869.647,1733.612 869.391,1733.436 869.07,1733.227 868.958,1733.163 
			868.653,1733.035 868.365,1732.891 867.723,1732.682 867.643,1730.966 868.493,1731.03 869.455,1731.111 870.16,1731.175 
			870.497,1731.175 871.203,1731.175 871.7,1731.014 871.956,1730.95 872.534,1730.822 872.566,1730.549 872.582,1730.437 
			873.496,1730.261 873.977,1730.068 874.105,1730.02 875.34,1729.555 875.981,1729.427 876.511,1729.363 877.521,1729.026 
			877.729,1728.978 878.467,1728.833 878.836,1728.753 878.948,1728.737 879.044,1728.705 879.718,1728.513 880.391,1728.304 
			880.471,1728.272 880.888,1728.16 880.969,1728.272 881.097,1728.481 879.926,1729.331 878.643,1730.229 878.082,1730.629 
			875.404,1732.506 875.099,1732.73 874.41,1733.211 874.25,1733.307 873.72,1733.628 873.496,1733.756 		"/>
		<polygon style="fill:#C96A2D;" points="861.229,1756.897 861.148,1757.939 861.148,1757.955 861.148,1758.051 861.132,1758.148 
			861.068,1758.228 861.02,1758.276 860.972,1758.276 860.924,1758.26 860.796,1758.276 860.555,1758.292 860.491,1758.292 
			860.299,1759.03 859.946,1758.933 859.994,1758.388 859.705,1758.356 859.016,1758.42 858.679,1758.516 858.615,1758.532 
			858.551,1758.532 858.39,1758.516 858.07,1758.468 857.621,1758.372 857.605,1758.276 857.54,1757.57 857.524,1757.234 
			857.508,1757.121 857.637,1757.153 857.653,1757.153 857.813,1757.185 857.829,1757.185 857.845,1757.185 857.989,1757.217 
			858.005,1757.217 858.15,1757.234 858.166,1757.234 858.182,1757.234 858.358,1757.234 858.454,1757.234 858.535,1757.234 
			858.551,1757.234 858.711,1757.217 858.727,1757.217 858.887,1757.201 858.903,1757.201 859.08,1757.169 859.288,1757.121 
			859.368,1757.105 859.769,1757.025 859.833,1757.634 860.892,1757.522 860.844,1756.881 861.197,1756.897 861.229,1756.897 		"/>
		<polygon style="fill:#C96A2D;" points="795.61,1675.685 795.081,1677.739 794.535,1679.151 795.257,1679.391 795.145,1679.664 
			794.439,1679.424 793.46,1679.375 792.818,1678.926 791.92,1678.3 790.877,1677.578 790.973,1677.514 791.037,1677.466 
			791.166,1677.37 791.262,1677.289 791.39,1677.161 791.406,1677.145 791.503,1677.049 791.599,1676.937 791.679,1676.856 
			791.775,1676.728 791.84,1676.599 791.92,1676.471 792.016,1676.279 792.096,1676.054 792.273,1675.541 792.465,1675.011 
			794.262,1675.396 		"/>
		<polygon style="fill:#C96A2D;" points="793.508,1637.753 793.091,1638.459 792.754,1638.925 792.594,1639.133 790.588,1641.861 
			789.834,1641.331 789.288,1642.07 788.598,1641.588 787.876,1641.123 787.812,1641.075 788.454,1640.176 788.582,1639.984 
			788.711,1639.823 788.582,1639.743 789.882,1637.753 		"/>
		<polygon style="fill:#C96A2D;" points="790.574,1641.848 789.836,1641.318 789.275,1642.056 788.585,1641.575 787.879,1641.125 
			787.815,1641.061 788.44,1640.163 788.585,1639.97 788.697,1639.81 788.585,1639.73 790.269,1637.146 790.943,1636.103 
			792.965,1633.023 793.093,1633.103 794.233,1633.809 794.233,1633.825 794.441,1634.74 794.457,1635.413 794.297,1636.103 
			794.184,1636.665 794.056,1636.857 793.623,1637.563 793.077,1638.462 792.74,1638.911 792.596,1639.12 		"/>
		<polygon style="fill:#C96A2D;" points="830.092,1584.58 829.835,1586.489 828.888,1586.329 828.583,1586.281 828.76,1584.516 		
			"/>
		<polygon style="fill:#C96A2D;" points="843.04,1556.404 844.243,1556.805 844.227,1556.853 843.906,1557.319 843.714,1557.559 
			843.505,1557.736 843.409,1557.8 843.313,1557.848 843.232,1557.88 843.104,1557.88 841.885,1557.832 841.804,1557.816 
			841.484,1557.8 841.131,1557.736 841.082,1557.72 841.227,1556.597 841.275,1556.292 		"/>
		<polygon style="fill:#C96A2D;" points="790.589,1641.863 789.835,1641.333 789.289,1642.071 788.599,1641.59 787.877,1641.141 
			787.813,1641.076 788.455,1640.178 788.583,1639.985 788.712,1639.825 788.583,1639.745 790.284,1637.161 790.958,1636.118 
			792.964,1633.037 793.092,1633.118 794.231,1633.824 794.247,1633.84 794.456,1634.754 794.456,1635.428 794.311,1636.118 
			794.183,1636.68 794.071,1636.872 793.621,1637.578 793.092,1638.477 792.755,1638.926 792.594,1639.135 		"/>
		<polygon style="fill:#C96A2D;" points="844.741,1555.201 844.323,1555.024 844.275,1555.169 844.452,1555.923 844.34,1556.404 
			844.243,1556.805 843.04,1556.404 843.168,1554.88 843.184,1554.671 841.403,1554.527 841.227,1553.724 840.842,1552.986 
			840.681,1552.682 841.227,1552.505 841.259,1552.377 841.403,1551.831 841.339,1551.414 841.291,1551.334 842.222,1550.644 
			842.879,1550.162 843.922,1549.408 844.564,1548.927 845.222,1548.815 845.046,1551.125 844.885,1553.452 		"/>
		<polygon style="fill:#C96A2D;" points="795.605,1675.7 795.091,1677.753 794.546,1679.165 795.252,1679.406 795.139,1679.679 
			794.449,1679.438 793.471,1679.39 792.829,1678.941 791.93,1678.315 790.887,1677.593 790.984,1677.529 791.048,1677.481 
			791.16,1677.384 791.273,1677.304 791.385,1677.176 791.401,1677.16 791.513,1677.063 791.609,1676.951 791.674,1676.871 
			791.77,1676.743 791.85,1676.614 791.93,1676.486 792.027,1676.293 792.107,1676.069 792.283,1675.555 792.476,1675.026 
			794.257,1675.411 		"/>
		<polygon style="fill:#C96A2D;" points="793.519,1637.768 793.086,1638.474 792.749,1638.939 792.604,1639.148 790.583,1641.876 
			789.845,1641.346 789.283,1642.084 788.593,1641.603 787.887,1641.137 787.823,1641.089 788.449,1640.191 788.593,1639.998 
			788.705,1639.838 788.593,1639.758 789.877,1637.768 		"/>
		<polygon style="fill:#C96A2D;" points="714.736,1795.661 714.366,1795.853 715.684,1798.489 716.005,1798.328 716.166,1798.633 
			715.845,1798.794 716.423,1799.951 716.712,1799.79 718.014,1802.49 718.512,1803.534 718.207,1803.679 717.467,1802.168 
			716.407,1802.682 717.146,1804.161 716.503,1804.45 716.214,1804.579 716.086,1804.37 713.563,1805.768 713.097,1806.025 
			712.551,1806.346 710.237,1807.664 710.06,1807.262 709.964,1806.973 709.932,1806.828 708.421,1807.359 707.489,1803.406 
			707.425,1803.116 707.409,1803.036 706.638,1799.919 706.541,1799.565 709,1798.28 709.289,1798.119 714.575,1795.339 		"/>
		<polygon style="fill:#C96A2D;" points="728.731,1805.27 728.522,1805.446 728.297,1805.655 727.96,1805.944 727.558,1806.25 
			727.237,1806.491 726.594,1806.989 725.791,1807.551 725.63,1807.632 725.293,1807.824 725.1,1807.937 725.052,1807.969 
			724.055,1808.515 723.927,1808.596 723.075,1809.062 722.834,1809.19 722.641,1809.303 721.934,1807.937 721.87,1807.824 
			721.195,1806.459 721.083,1806.25 721.324,1806.137 720.986,1805.43 720.954,1805.382 722.175,1804.771 722.127,1804.723 
			722.191,1804.691 723.332,1804.032 724.28,1803.47 724.505,1803.341 724.634,1803.261 725.341,1802.875 725.759,1802.634 
			726.69,1802.12 726.739,1802.088 728.474,1804.852 		"/>
		<polygon style="fill:#C96A2D;" points="732.379,1807.696 732.218,1808.13 731.977,1808.756 731.945,1808.837 731.639,1809.688 
			731.334,1810.524 731.238,1810.781 730.965,1811.52 730.483,1812.79 730.274,1813.352 730.113,1813.738 730.531,1813.947 
			730.707,1814.043 731.238,1814.3 731.672,1814.509 731.639,1814.573 731.88,1814.75 731.993,1814.83 732.973,1815.553 
			732.973,1815.569 732.845,1815.811 732.796,1815.907 731.945,1817.466 731.913,1817.546 731.173,1818.848 730.579,1819.972 
			730.274,1820.631 730.129,1820.953 730.017,1821.161 729.952,1821.322 729.599,1822.061 729.229,1822.816 728.233,1820.808 
			728.217,1820.776 728.667,1820.599 727.301,1817.755 726.851,1817.996 725.373,1815.007 724.136,1812.468 723.3,1810.781 
			723.22,1810.636 723.268,1810.62 723.268,1810.604 723.429,1810.524 724.055,1810.219 724.377,1810.058 724.843,1809.817 
			725.084,1809.704 726.289,1809.03 726.787,1808.724 726.867,1808.676 727.076,1808.531 727.124,1808.499 727.205,1808.451 
			727.51,1808.226 727.783,1808.049 727.944,1807.905 728.04,1807.824 728.329,1807.616 729.502,1806.684 729.824,1806.427 
			730.306,1806.057 730.37,1806.105 730.434,1806.041 		"/>
		<polygon style="fill:#C96A2D;" points="732.555,1823.025 732.138,1823.829 732.121,1823.861 731.511,1825.018 731.495,1825.066 
			731.318,1825.387 731.286,1825.436 731.222,1825.484 731.157,1825.532 731.045,1825.564 730.981,1825.596 730.9,1825.596 
			730.836,1825.596 730.724,1825.58 730.611,1825.5 730.531,1825.42 730.45,1825.227 730.354,1825.05 729.968,1824.279 
			729.872,1824.086 729.695,1823.748 729.615,1823.572 729.567,1823.491 730.017,1823.25 730.145,1823.202 729.824,1822.543 
			729.599,1822.061 729.952,1821.322 730.017,1821.161 730.836,1822.833 731.864,1822.27 732.298,1822.913 		"/>
		<polygon style="fill:#C96A2D;" points="706.961,1801.995 706.446,1799.954 706.366,1799.601 708.825,1798.315 709.13,1798.154 
			714.416,1795.359 714.577,1795.68 714.191,1795.889 715.525,1798.524 715.862,1798.363 716.007,1798.669 715.686,1798.829 
			716.264,1799.986 716.569,1799.826 717.598,1801.995 		"/>
		<polygon style="fill:#C96A2D;" points="737.506,1679.102 737.522,1679.167 737.602,1679.327 738.277,1681.191 738.518,1681.866 
			736.976,1682.252 735.481,1682.621 734.871,1682.766 734.774,1682.75 734.758,1682.75 734.614,1682.172 734.308,1680.902 
			734.18,1680.356 733.81,1678.942 733.762,1678.765 734.357,1678.652 735.256,1678.444 735.883,1678.299 736.606,1678.138 
			737.104,1678.058 737.12,1678.042 		"/>
		<polygon style="fill:#C96A2D;" points="781.514,1845.991 781.498,1846.886 781.578,1848.644 781.562,1849.235 781.546,1849.763 
			781.514,1851.185 781.451,1851.217 779.565,1852.112 778.814,1852.495 778.75,1852.527 778.143,1852.831 778.127,1852.511 
			778.127,1852.448 778.095,1850.786 778.063,1848.884 778.047,1846.854 778.047,1845.704 778.047,1845.576 778.047,1845.528 
			778.031,1845.16 778.015,1844.345 778.878,1844.25 778.91,1844.281 779.581,1843.802 779.693,1843.738 779.693,1843.722 
			779.821,1843.642 780.46,1843.355 781.371,1843.195 781.53,1843.163 781.53,1843.754 		"/>
	</g>
</g>
</svg>
