<?xml version="1.0" encoding="iso-8859-1"?>
<!-- Generator: Adobe Illustrator 17.0.0, SVG Export Plug-In . SVG Version: 6.00 Build 0)  -->
<!DOCTYPE svg PUBLIC "-//W3C//DTD SVG 1.1//EN" "http://www.w3.org/Graphics/SVG/1.1/DTD/svg11.dtd">
<svg version="1.1" xmlns="http://www.w3.org/2000/svg" xmlns:xlink="http://www.w3.org/1999/xlink" x="0px" y="0px" width="1840px"
	 height="2400px" viewBox="0 0 1840 2400" style="enable-background:new 0 0 1840 2400;" xml:space="preserve">
<g id="Layer_114">
	<rect style="fill:none;" width="1840" height="2400"/>
	<rect style="fill:none;" width="1840" height="2400"/>
	<rect style="fill:none;" width="1840" height="2400"/>
	<rect style="fill:none;" width="1840" height="2400"/>
	<rect style="fill:none;" width="1840" height="2400"/>
	<rect style="fill:none;" width="1840" height="2400"/>
	<rect style="fill:none;" width="1840" height="2400"/>
	<rect style="fill:none;" width="1840" height="2400"/>
	<rect style="fill:none;" width="1840" height="2400"/>
	<rect style="fill:none;" width="1840" height="2400"/>
	<rect style="fill:none;" width="1840" height="2400"/>
	<rect style="fill:none;" width="1840" height="2400"/>
	<rect style="fill:none;" width="1840" height="2400"/>
	<rect style="fill:none;" width="1840" height="2400"/>
	<rect style="fill:none;" width="1840" height="2400"/>
	<rect style="fill:none;" width="1840" height="2400"/>
	<rect style="fill:none;" width="1840" height="2400"/>
</g>
<g id="GS">
	<g id="COMMUNICATION">
		<polygon style="fill:#A42C22;" points="778.223,1996.529 777.966,1996.577 777.773,1996.609 777.532,1996.642 777.42,1996.658 
			777.404,1996.642 777.371,1996.417 777.243,1996.417 777.066,1996.417 776.487,1996.433 776.455,1995.597 777.42,1995.581 
			777.58,1995.629 777.757,1995.725 777.87,1995.838 778.014,1996.015 778.143,1996.272 778.223,1996.465 		"/>
		<polygon style="fill:#A42C22;" points="786.051,2021.621 785.633,2021.734 785.457,2021.766 785.248,2021.814 785.087,2021.862 
			785.055,2021.734 785.055,2021.718 785.039,2021.637 785.007,2021.509 784.99,2021.46 785.151,2021.412 785.36,2021.364 
			785.521,2021.316 785.955,2021.203 786.051,2021.621 		"/>
		<polygon style="fill:#A42C22;" points="801.547,1996.802 801.289,1996.867 801.096,1996.915 801.08,1996.915 801.096,1996.963 
			800.952,1996.995 800.855,1997.011 800.823,1997.011 800.421,1997.06 800.277,1996.401 800.245,1996.24 800.148,1995.886 
			801.112,1995.645 801.241,1995.613 801.321,1995.934 801.434,1996.336 801.482,1996.529 801.53,1996.738 		"/>
		<polygon style="fill:#A42C22;" points="811.56,1971.566 811.56,1971.614 811.528,1972.546 811.528,1972.723 811.287,1972.707 
			810.918,1972.707 810.532,1972.691 810.548,1972.514 810.58,1971.517 810.934,1971.533 811.335,1971.533 811.464,1971.55 		"/>
		<polygon style="fill:#A42C22;" points="778.738,2000.291 778.577,2000.323 778.175,2000.403 777.95,2000.419 777.934,2000.419 
			777.789,2000.435 777.741,2000.017 777.725,2000.017 777.709,2000.017 777.693,1999.824 777.693,1999.728 777.677,1999.728 
			777.548,1998.362 777.388,1996.658 777.42,1996.658 777.532,1996.642 777.773,1996.609 777.966,1996.577 778.223,1996.529 
			778.577,1999.053 778.593,1999.198 778.609,1999.358 778.641,1999.599 		"/>
		<polygon style="fill:#A42C22;" points="801.354,2030.559 802.093,2030.478 802.141,2030.703 802.157,2030.735 801.37,2030.832 		
			"/>
		<polygon style="fill:#A42C22;" points="766.538,2020.959 766.089,2021.456 766.089,2021.472 765.945,2021.745 765.624,2022.194 
			765.624,2022.29 765.383,2022.29 765.287,2022.403 765.062,2022.146 764.838,2021.873 765.287,2021.232 765.528,2020.943 
			765.56,2020.911 765.544,2020.879 765.528,2020.847 765.544,2020.831 765.624,2020.734 765.752,2020.59 765.832,2020.494 
			765.864,2020.462 765.929,2020.381 765.945,2020.381 766.458,2020.879 		"/>
		<polygon style="fill:#A42C22;" points="758.646,2056.508 758.71,2056.636 758.967,2057.278 759.031,2057.422 759.031,2057.438 
			758.967,2057.454 758.678,2057.55 758.517,2057.615 758.437,2057.646 758.197,2057.727 757.972,2057.807 757.924,2057.695 
			757.651,2057.165 757.587,2057.037 757.298,2056.491 757.33,2056.476 757.427,2056.427 758.213,2055.994 758.245,2055.978 
			758.325,2055.93 758.373,2056.01 758.405,2056.058 758.566,2056.379 758.63,2056.491 		"/>
		<polygon style="fill:#A42C22;" points="769.554,1971.262 769.538,1971.037 769.73,1971.037 769.73,1971.278 		"/>
		<polygon style="fill:#A42C22;" points="794.406,2131.238 795.228,2131.918 795.07,2132.108 795.022,2132.076 794.564,2131.949 
			794.2,2132.013 792.224,2133.293 792.161,2133.341 792.619,2129.752 792.651,2129.8 792.698,2129.863 792.872,2130.116 
			793.046,2130.321 793.22,2130.511 793.41,2130.701 793.647,2130.922 793.837,2131.08 793.916,2131.143 793.995,2131.064 
			794.295,2131.302 794.374,2131.222 		"/>
		<polygon style="fill:#A42C22;" points="784.399,2161.892 784.003,2162.24 784.083,2162.351 784.067,2162.367 782.976,2163.189 
			782.265,2163.774 781.553,2164.327 780.02,2165.529 780.02,2165.544 779.925,2165.402 779.814,2165.276 779.703,2165.133 
			779.593,2165.007 779.577,2164.991 779.261,2164.564 779.261,2164.548 780.494,2163.537 780.842,2163.252 781.569,2162.683 
			781.537,2162.635 781.632,2162.541 781.537,2162.43 781.537,2162.414 781.49,2162.367 781.822,2162.098 781.854,2162.066 
			782.486,2161.56 782.849,2161.292 782.865,2161.276 783.45,2160.833 783.466,2160.817 		"/>
		<polygon style="fill:#A42C22;" points="767.104,2119.286 767.641,2119.35 767.689,2119.35 767.736,2119.365 768.274,2119.429 
			768.464,2119.444 768.574,2119.46 769.317,2119.539 769.333,2119.539 769.617,2119.571 769.633,2119.713 769.649,2119.76 
			769.823,2120.219 769.807,2120.345 769.776,2120.52 769.744,2120.693 769.712,2120.899 769.697,2121.01 769.712,2121.041 
			769.697,2121.057 769.681,2121.073 769.681,2121.089 769.665,2121.152 769.665,2121.294 769.697,2121.389 769.744,2121.468 
			769.744,2121.5 769.697,2121.958 769.143,2121.879 767.104,2121.563 		"/>
		<polygon style="fill:#A42C22;" points="814.546,2110.433 814.356,2111.16 813.993,2111.081 813.455,2110.939 813.25,2110.876 
			813.455,2110.101 813.661,2109.279 813.661,2109.263 813.898,2109.326 814.451,2109.453 814.783,2109.532 		"/>
		<polygon style="fill:#A42C22;" points="803.385,2092.695 803.322,2092.948 803.259,2092.932 802.516,2092.743 802.342,2092.711 
			802.31,2092.695 801.646,2092.537 801.472,2092.49 801.377,2092.458 801.251,2092.426 801.124,2092.395 800.982,2092.363 
			800.95,2092.347 799.86,2092.063 799.812,2092.063 799.654,2092.015 798.69,2091.762 798.2,2091.62 798.089,2091.588 
			798.01,2091.573 797.267,2091.351 796.729,2091.162 795.987,2090.925 795.481,2090.766 795.291,2090.703 795.243,2090.687 
			794.453,2090.434 794.263,2088.49 794.216,2088.442 794.2,2088.363 794.2,2088.3 794.564,2088.269 795.323,2088.205 
			796.05,2088.142 797.931,2088 799.354,2087.857 799.717,2087.826 799.939,2087.81 800.002,2087.826 800.334,2087.873 
			801.488,2088.158 803.211,2088.585 803.417,2088.601 803.97,2088.727 804.302,2088.806 804.349,2088.822 804.254,2089.265 
			804.065,2089.976 803.938,2090.419 803.907,2090.593 803.828,2090.893 803.812,2091.004 803.591,2091.873 		"/>
		<polygon style="fill:#A42C22;" points="767.104,2113.184 767.104,2113.136 767.151,2112.884 767.151,2112.868 767.183,2112.868 
			767.199,2112.868 767.199,2112.884 767.468,2112.931 767.641,2112.947 767.815,2112.979 767.926,2112.994 768.337,2113.057 
			768.606,2113.089 768.795,2113.105 768.843,2113.105 768.859,2113.2 769.001,2114.117 769.017,2114.164 769.048,2114.433 
			769.096,2114.654 769.127,2114.907 769.175,2115.128 769.191,2115.366 769.222,2115.587 769.254,2115.84 769.286,2116.093 
			769.301,2116.267 769.317,2116.314 769.333,2116.567 769.365,2116.773 769.396,2116.994 769.428,2117.247 769.444,2117.484 
			769.491,2117.943 769.507,2118.037 769.507,2118.101 769.523,2118.29 769.538,2118.433 769.57,2118.781 769.586,2119.033 
			769.617,2119.35 769.602,2119.492 769.617,2119.571 769.333,2119.539 769.317,2119.539 768.574,2119.46 768.464,2119.444 
			768.274,2119.429 767.736,2119.365 767.689,2119.35 767.641,2119.35 767.104,2119.286 		"/>
		<polygon style="fill:#A42C22;" points="773.854,2102.971 772.59,2102.465 771.831,2102.149 771.847,2102.149 771.878,2102.054 
			772.226,2101.295 772.273,2101.185 772.4,2100.884 772.416,2100.853 772.495,2100.695 772.732,2100.11 772.906,2099.683 
			773.333,2099.857 773.475,2099.904 773.933,2100.11 774.645,2100.394 774.898,2100.505 774.819,2100.71 774.676,2101.042 
			774.645,2101.153 774.518,2101.422 774.281,2101.959 773.917,2102.861 773.886,2102.939 		"/>
		<polygon style="fill:#A42C22;" points="780.557,2100.426 780.494,2100.584 780.415,2100.758 780.352,2100.948 780.241,2101.311 
			780.13,2101.58 780.02,2101.849 779.862,2101.785 779.561,2101.659 779.34,2101.564 779.213,2101.532 778.897,2101.422 
			778.692,2101.327 778.376,2101.2 778.044,2101.074 778.028,2101.058 777.87,2100.995 777.822,2100.979 778.391,2099.556 
			779.261,2099.92 779.988,2100.205 780.399,2100.378 		"/>
		<polygon style="fill:#A42C22;" points="768.843,2113.105 768.795,2113.105 768.606,2113.089 768.337,2113.057 767.926,2112.994 
			767.815,2112.979 767.641,2112.947 767.468,2112.931 767.199,2112.884 767.199,2112.868 767.183,2112.868 767.151,2112.868 
			767.136,2112.235 767.136,2112.219 767.167,2111.54 767.167,2111.524 767.183,2111.508 767.641,2111.081 767.657,2111.065 
			767.673,2111.081 768.29,2111.145 768.321,2111.16 768.764,2111.65 		"/>
		<polygon style="fill:#A42C22;" points="718.278,2231.328 718.214,2231.486 718.009,2231.913 717.977,2231.977 717.93,2232.04 
			716.839,2231.376 716.997,2231.202 717.029,2231.154 717.313,2231.312 717.55,2230.949 717.582,2230.917 717.629,2230.917 
			717.645,2230.933 		"/>
		<polygon style="fill:#A42C22;" points="718.225,2231.318 718.162,2231.476 717.956,2231.918 717.924,2231.982 717.877,2232.045 
			716.786,2231.381 716.944,2231.191 716.976,2231.144 717.26,2231.318 717.498,2230.954 717.529,2230.923 717.577,2230.907 
			717.593,2230.923 		"/>
		<polygon style="fill:#A42C22;" points="760.086,2200.126 759.897,2200.3 759.454,2200.664 759.438,2200.664 758.569,2201.375 
			758.379,2201.154 758.332,2201.09 758.237,2200.98 758,2200.711 757.936,2200.632 757.652,2200.347 757.794,2200.221 
			757.952,2200.094 758.237,2199.873 758.6,2199.557 758.664,2199.51 758.727,2199.462 758.885,2199.32 758.964,2199.257 
			759.043,2199.193 759.091,2199.177 759.138,2199.177 759.169,2199.177 759.249,2199.177 759.28,2199.193 759.328,2199.225 
			759.454,2199.367 759.628,2199.589 759.707,2199.667 759.881,2199.873 759.976,2200 759.992,2200 759.992,2200.015 		"/>
		<polygon style="fill:#A42C22;" points="794.407,2131.15 795.214,2131.83 795.071,2132.02 795.008,2131.988 794.549,2131.862 
			794.202,2131.925 792.226,2133.205 792.147,2133.253 792.605,2129.664 792.652,2129.711 792.7,2129.775 792.874,2130.028 
			793.032,2130.233 793.222,2130.423 793.411,2130.613 793.648,2130.834 793.838,2130.992 793.917,2131.055 793.98,2130.976 
			794.297,2131.213 794.376,2131.134 		"/>
		<polygon style="fill:#A42C22;" points="749.305,2199.272 749.194,2199.43 748.657,2200.142 747.566,2199.209 747.613,2199.13 
			747.645,2199.114 747.74,2198.988 748.103,2198.545 748.198,2198.419 748.246,2198.371 748.277,2198.419 748.435,2198.529 
			748.625,2198.703 748.846,2198.893 749.005,2199.019 749.147,2199.146 		"/>
		<polygon style="fill:#A42C22;" points="745.068,2139.782 745.463,2140.019 745.795,2140.24 745.922,2140.32 746.349,2140.588 
			746.696,2140.825 746.76,2140.889 746.791,2140.936 746.823,2140.999 746.854,2141.062 746.87,2141.157 746.854,2141.3 
			746.823,2141.41 746.775,2141.521 746.665,2141.727 746.523,2141.916 746.222,2142.375 746.048,2142.628 746.001,2142.707 
			745.764,2143.039 745.527,2143.402 745.321,2143.703 745.21,2143.782 745.147,2143.845 745.036,2143.877 744.878,2143.908 
			744.705,2143.94 744.625,2143.956 744.278,2142.976 744.009,2142.296 743.851,2141.995 743.598,2141.6 743.566,2141.537 
			743.203,2140.984 742.966,2140.715 743.124,2140.478 743.377,2140.098 743.709,2139.624 743.93,2139.276 744.025,2139.118 
			744.135,2139.181 744.199,2139.229 744.499,2139.403 744.594,2139.482 745.005,2139.735 		"/>
		<polygon style="fill:#A42C22;" points="784.4,2161.804 783.989,2162.152 784.084,2162.263 784.068,2162.279 782.978,2163.101 
			782.266,2163.686 781.539,2164.239 780.021,2165.44 780.005,2165.456 779.911,2165.314 779.816,2165.188 779.689,2165.045 
			779.594,2164.919 779.579,2164.903 779.262,2164.476 779.262,2164.46 780.496,2163.448 780.843,2163.164 781.555,2162.595 
			781.523,2162.547 781.634,2162.453 781.539,2162.342 781.523,2162.326 781.492,2162.279 781.808,2162.01 781.839,2161.978 
			782.487,2161.472 782.835,2161.204 782.851,2161.188 783.436,2160.745 783.468,2160.729 		"/>
		<polygon style="fill:#A42C22;" points="769.619,2119.483 769.635,2119.625 769.651,2119.673 769.825,2120.131 769.809,2120.258 
			769.777,2120.431 769.73,2120.605 769.698,2120.811 769.698,2120.922 769.714,2120.953 769.698,2120.969 769.682,2120.985 
			769.667,2121.001 769.667,2121.064 769.667,2121.206 769.698,2121.301 769.746,2121.38 769.746,2121.412 769.682,2121.87 
			769.145,2121.791 766.141,2121.333 765.699,2121.269 765.667,2121.269 765.683,2121.095 765.714,2120.906 765.762,2120.669 
			765.936,2119.673 765.936,2119.609 765.936,2119.546 766.015,2119.277 766.078,2119.104 766.078,2119.088 766.11,2119.088 
			766.853,2119.167 766.916,2119.183 767.643,2119.262 767.675,2119.262 767.738,2119.277 768.275,2119.341 768.449,2119.356 
			768.56,2119.372 769.319,2119.451 769.335,2119.451 769.603,2119.483 		"/>
		<polygon style="fill:#A42C22;" points="799.324,2091.848 798.691,2091.674 798.201,2091.532 798.091,2091.5 798.012,2091.485 
			797.253,2091.263 796.731,2091.074 795.972,2090.836 795.482,2090.678 795.277,2090.615 795.245,2090.599 794.439,2090.346 
			794.265,2088.402 794.218,2088.354 794.202,2088.275 794.202,2088.212 794.565,2088.181 795.308,2088.117 796.051,2088.054 
			797.917,2087.912 799.324,2087.77 		"/>
		<polygon style="fill:#A42C22;" points="755.217,2087.248 754.917,2086.41 755.502,2086.157 755.565,2086.347 755.581,2086.347 
			755.66,2086.505 755.628,2086.521 755.723,2086.773 755.723,2086.853 755.707,2086.948 755.676,2086.995 755.644,2087.042 
			755.597,2087.074 755.549,2087.105 755.391,2087.185 		"/>
		<polygon style="fill:#A42C22;" points="768.829,2113.017 768.844,2113.112 769.003,2114.029 769.018,2114.076 769.05,2114.345 
			769.082,2114.566 769.129,2114.819 769.161,2115.041 769.192,2115.278 769.224,2115.499 769.255,2115.752 769.287,2116.005 
			769.303,2116.179 769.303,2116.226 769.335,2116.479 769.366,2116.685 769.398,2116.906 769.429,2117.159 769.445,2117.396 
			769.493,2117.854 769.508,2117.949 769.508,2118.013 769.524,2118.202 769.54,2118.345 769.572,2118.692 769.587,2118.945 
			769.619,2119.262 769.603,2119.404 769.619,2119.483 769.603,2119.483 769.335,2119.451 769.319,2119.451 768.56,2119.372 
			768.449,2119.356 768.275,2119.341 767.738,2119.277 767.675,2119.262 767.643,2119.262 766.916,2119.183 766.853,2119.167 
			766.11,2119.088 766.078,2119.088 766.236,2118.202 766.236,2118.171 766.268,2117.981 766.283,2117.918 766.584,2116.226 
			766.6,2116.131 766.615,2115.958 766.947,2114.029 766.916,2114.013 766.932,2113.981 766.979,2113.76 767.058,2113.333 
			767.074,2113.222 767.106,2113.096 767.106,2113.049 767.153,2112.796 767.153,2112.78 767.169,2112.78 767.2,2112.78 
			767.2,2112.796 767.469,2112.843 767.643,2112.859 767.817,2112.89 767.928,2112.906 768.339,2112.969 768.607,2113.001 
			768.797,2113.017 		"/>
		<polygon style="fill:#A42C22;" points="773.856,2102.883 772.591,2102.377 771.832,2102.061 771.88,2101.966 772.228,2101.208 
			772.275,2101.097 772.401,2100.796 772.417,2100.765 772.48,2100.607 772.718,2100.022 772.892,2099.595 773.334,2099.769 
			773.461,2099.816 773.919,2100.022 774.63,2100.306 774.899,2100.417 774.804,2100.623 774.678,2100.954 774.63,2101.065 
			774.52,2101.334 774.283,2101.871 773.903,2102.772 773.872,2102.852 		"/>
		<polygon style="fill:#A42C22;" points="780.543,2100.338 780.48,2100.496 780.417,2100.67 780.353,2100.86 780.227,2101.223 
			780.116,2101.492 780.021,2101.761 779.863,2101.698 779.563,2101.571 779.326,2101.476 779.215,2101.445 778.883,2101.334 
			778.678,2101.239 778.377,2101.113 778.045,2100.986 778.029,2100.97 777.855,2100.907 777.824,2100.891 778.377,2099.468 
			779.262,2099.832 779.99,2100.116 780.385,2100.291 		"/>
		<polygon style="fill:#A42C22;" points="753.621,2159.417 753.779,2159.417 753.763,2159.638 753.763,2159.86 753.716,2160.603 
			753.7,2161.852 753.684,2162.026 753.383,2161.852 753.02,2161.63 752.34,2161.204 751.439,2160.635 751.407,2160.635 
			751.186,2160.492 751.423,2160.129 751.455,2160.081 751.992,2159.306 752.767,2159.354 753.51,2159.401 		"/>
		<polygon style="fill:#A42C22;" points="768.829,2113.017 768.797,2113.017 768.607,2113.001 768.339,2112.969 767.928,2112.906 
			767.817,2112.89 767.643,2112.859 767.469,2112.843 767.2,2112.796 767.2,2112.78 767.169,2112.78 767.153,2112.78 
			767.121,2112.147 767.121,2112.132 767.169,2111.452 767.169,2111.436 767.185,2111.42 767.627,2110.993 767.643,2110.978 
			767.659,2110.993 768.291,2111.057 768.307,2111.073 768.75,2111.562 		"/>
		<polygon style="fill:#A42C22;" points="814.548,2110.415 814.358,2111.158 813.995,2111.063 813.457,2110.921 813.252,2110.873 
			813.457,2110.099 813.663,2109.261 813.663,2109.245 813.9,2109.308 814.453,2109.435 814.785,2109.514 		"/>
		<polygon style="fill:#A42C22;" points="803.387,2092.693 803.324,2092.93 803.26,2092.914 802.518,2092.74 802.344,2092.693 
			802.312,2092.677 801.648,2092.519 801.474,2092.471 801.379,2092.455 801.253,2092.424 801.126,2092.376 800.984,2092.345 
			800.952,2092.345 799.862,2092.06 799.814,2092.044 799.656,2092.013 798.692,2091.744 798.202,2091.602 798.091,2091.57 
			798.012,2091.554 797.269,2091.333 796.732,2091.159 795.988,2090.922 795.483,2090.748 795.293,2090.685 795.245,2090.685 
			794.455,2090.416 794.265,2088.471 794.218,2088.424 794.202,2088.345 794.202,2088.282 794.566,2088.25 795.325,2088.187 
			796.052,2088.139 797.933,2087.981 799.356,2087.839 799.719,2087.807 799.941,2087.792 800.004,2087.807 800.336,2087.871 
			801.49,2088.139 803.213,2088.566 803.419,2088.582 803.972,2088.708 804.304,2088.788 804.351,2088.803 804.256,2089.246 
			804.067,2089.973 803.94,2090.4 803.909,2090.574 803.83,2090.89 803.814,2091.001 803.593,2091.87 		"/>
		<polygon style="fill:#A42C22;" points="773.856,2102.969 772.592,2102.447 771.833,2102.146 771.849,2102.146 771.88,2102.052 
			772.228,2101.277 772.275,2101.166 772.402,2100.882 772.418,2100.85 772.497,2100.676 772.734,2100.091 772.908,2099.664 
			773.335,2099.838 773.477,2099.902 773.935,2100.091 774.647,2100.376 774.9,2100.487 774.821,2100.708 774.678,2101.04 
			774.647,2101.135 774.52,2101.403 774.283,2101.957 773.919,2102.842 773.888,2102.921 		"/>
		<polygon style="fill:#A42C22;" points="780.559,2100.407 780.559,2100.423 780.496,2100.565 780.417,2100.74 780.354,2100.945 
			780.243,2101.293 780.132,2101.562 780.022,2101.83 779.864,2101.767 779.563,2101.656 779.342,2101.562 779.215,2101.514 
			778.899,2101.403 778.694,2101.309 778.378,2101.182 778.046,2101.056 778.03,2101.056 777.872,2100.992 777.824,2100.977 
			778.393,2099.538 779.263,2099.902 779.99,2100.202 780.401,2100.36 		"/>
		<polygon style="fill:#A42C22;" points="768.845,2113.102 768.797,2113.102 768.608,2113.071 768.339,2113.039 767.928,2112.976 
			767.817,2112.96 767.643,2112.944 767.469,2112.913 767.201,2112.881 767.201,2112.865 767.201,2112.849 767.185,2112.849 
			767.153,2112.849 767.138,2112.217 767.169,2111.521 767.169,2111.506 767.185,2111.506 767.643,2111.063 767.659,2111.063 
			767.675,2111.063 768.292,2111.126 768.292,2111.142 768.323,2111.142 768.766,2111.632 		"/>
		<polygon style="fill:#A42C22;" points="799.318,2091.927 798.685,2091.753 798.195,2091.611 798.084,2091.579 798.005,2091.563 
			797.247,2091.342 796.725,2091.168 795.966,2090.931 795.476,2090.757 795.27,2090.694 795.239,2090.694 794.433,2090.425 
			794.259,2088.48 794.211,2088.433 794.195,2088.354 794.195,2088.291 794.559,2088.259 795.302,2088.196 796.045,2088.148 
			797.911,2087.99 799.318,2087.864 		"/>
		<polygon style="fill:#A42C22;" points="755.211,2087.326 754.911,2086.488 755.496,2086.251 755.559,2086.425 755.575,2086.425 
			755.654,2086.583 755.622,2086.615 755.717,2086.868 755.717,2086.947 755.701,2087.026 755.67,2087.089 755.638,2087.121 
			755.59,2087.152 755.543,2087.184 755.385,2087.263 		"/>
		<polygon style="fill:#A42C22;" points="773.85,2102.978 772.585,2102.456 771.826,2102.155 771.873,2102.061 772.221,2101.286 
			772.269,2101.175 772.395,2100.891 772.411,2100.859 772.474,2100.685 772.711,2100.1 772.885,2099.673 773.328,2099.847 
			773.454,2099.91 773.913,2100.1 774.624,2100.385 774.893,2100.495 774.798,2100.717 774.672,2101.049 774.624,2101.144 
			774.514,2101.412 774.276,2101.966 773.897,2102.851 773.865,2102.93 		"/>
		<polygon style="fill:#A42C22;" points="780.537,2100.416 780.537,2100.432 780.473,2100.574 780.41,2100.748 780.347,2100.954 
			780.221,2101.302 780.11,2101.57 780.015,2101.839 779.857,2101.776 779.557,2101.665 779.319,2101.57 779.209,2101.523 
			778.877,2101.412 778.671,2101.317 778.371,2101.191 778.039,2101.064 778.023,2101.064 777.849,2101.001 777.818,2100.985 
			778.371,2099.547 779.256,2099.91 779.983,2100.211 780.379,2100.369 		"/>
		<polygon style="fill:#A42C22;" points="768.822,2113.111 768.791,2113.111 768.601,2113.08 768.332,2113.048 767.921,2112.985 
			767.811,2112.969 767.637,2112.953 767.463,2112.921 767.194,2112.89 767.194,2112.874 767.194,2112.858 767.162,2112.858 
			767.147,2112.858 767.115,2112.226 767.162,2111.53 767.162,2111.514 767.178,2111.514 767.621,2111.072 767.637,2111.072 
			767.653,2111.072 768.285,2111.135 768.285,2111.151 768.301,2111.151 768.743,2111.641 		"/>
		<polygon style="fill:#A42C22;" points="737.049,2001.331 736.794,2002.653 736.73,2002.637 736.189,2002.494 735.52,2002.303 
			735.217,2002.239 735.217,2002.223 735.344,2001.618 735.376,2001.459 735.44,2001.22 735.488,2000.917 736.093,2001.092 
			736.762,2001.267 		"/>
		<polygon style="fill:#A42C22;" points="681.97,1975.83 681.875,1976.212 680.807,1976.053 680.712,1976.037 680.25,1975.973 
			680.138,1975.957 680.202,1975.24 680.25,1975.049 680.33,1974.795 680.584,1974.141 680.76,1973.759 681.03,1973.297 
			682.544,1973.966 682.591,1973.982 		"/>
		<polygon style="fill:#A42C22;" points="668.957,1962.609 668.83,1962.514 668.67,1962.37 669.037,1961.956 669.26,1961.685 
			669.371,1961.574 669.451,1961.494 669.69,1961.224 669.961,1961.431 		"/>
		<polygon style="fill:#A42C22;" points="664.195,1985.212 664.513,1984.75 664.72,1984.399 664.991,1984.575 664.45,1985.371 		"/>
		<polygon style="fill:#A42C22;" points="638.35,2002.382 638.047,2002.159 637.888,2002.048 637.649,2001.873 637.617,2001.857 
			637.298,2001.57 637.076,2001.459 636.98,2001.411 636.598,2001.172 636.55,2001.14 637.235,1999.898 637.792,2000.248 
			638.477,2000.646 638.891,2000.901 638.955,2000.965 639.003,2001.029 639.035,2001.108 639.066,2001.204 639.066,2001.331 
			639.035,2001.443 		"/>
		<polygon style="fill:#A42C22;" points="616.21,2019.999 616.321,2020.111 616.592,2020.35 617.006,2020.684 617.07,2020.732 
			617.166,2020.812 617.07,2020.923 617.07,2020.939 616.847,2021.258 616.56,2021.72 616.29,2021.99 616.13,2022.245 
			615.939,2022.5 615.573,2023.105 615.238,2023.583 615.095,2023.456 614.92,2023.328 614.904,2023.297 614.856,2023.281 
			614.792,2023.233 614.76,2023.169 614.745,2023.137 613.821,2022.739 613.12,2022.436 612.817,2022.357 612.801,2022.389 
			612.196,2022.118 611.416,2021.831 611.304,2021.767 610.858,2021.592 611.113,2021.305 611.416,2020.923 611.591,2020.748 
			611.639,2020.668 611.83,2020.429 612.005,2020.238 612.164,2020.047 612.292,2019.888 612.387,2019.792 612.499,2019.713 
			612.642,2019.617 612.833,2019.537 613.056,2019.505 613.152,2019.521 613.375,2019.521 613.773,2019.633 614.362,2019.792 
			614.745,2019.888 614.776,2019.936 614.76,2019.952 615.095,2020.031 615.175,2020.015 615.302,2020.031 615.493,2020.047 
			615.589,2020.031 615.748,2020.015 615.828,2019.983 615.907,2019.968 616.067,2019.968 		"/>
		<polygon style="fill:#A42C22;" points="681.976,1975.83 681.896,1976.212 680.813,1976.053 680.718,1976.037 680.272,1975.973 
			680.144,1975.957 680.224,1975.24 680.272,1975.049 680.352,1974.795 680.606,1974.141 680.782,1973.759 681.052,1973.297 
			682.549,1973.966 682.613,1973.982 		"/>
		<polygon style="fill:#A42C22;" points="668.963,1962.609 668.836,1962.514 668.692,1962.37 669.059,1961.956 669.282,1961.685 
			669.393,1961.574 669.457,1961.494 669.712,1961.224 669.982,1961.431 		"/>
		<polygon style="fill:#A42C22;" points="664.217,1985.212 664.519,1984.75 664.742,1984.399 665.013,1984.575 664.471,1985.371 		
			"/>
		<polygon style="fill:#A42C22;" points="726.607,1934.762 726.479,1935.383 726.32,1936.131 726.24,1936.562 725.364,1936.354 
			725.428,1936.147 725.619,1935.319 725.715,1934.905 725.747,1934.873 725.747,1934.857 725.89,1934.714 725.906,1934.714 
			725.922,1934.698 725.954,1934.666 726.336,1934.714 		"/>
		<polygon style="fill:#A42C22;" points="708.529,1911.872 709.086,1911.904 709.373,1911.904 709.341,1912.095 709.277,1912.78 
			708.99,1912.749 708.433,1912.701 707.828,1912.637 707.7,1911.841 		"/>
		<polygon style="fill:#A42C22;" points="660.586,1933.089 660.681,1932.866 660.904,1932.436 660.984,1932.261 661.971,1932.675 
			662.258,1932.786 662.656,1931.958 664.09,1932.356 663.915,1932.786 663.676,1933.44 663.5,1933.87 663.357,1934.252 
			663.309,1934.411 663.15,1934.762 662.449,1936.434 662.258,1936.323 662.131,1936.259 661.844,1936.1 661.685,1936.02 
			661.621,1935.988 661.223,1935.733 660.984,1935.606 661,1935.351 660.793,1934.762 660.729,1934.586 660.665,1934.443 
			660.586,1934.316 		"/>
		<polygon style="fill:#A42C22;" points="668.964,1962.604 668.836,1962.509 668.677,1962.366 669.043,1961.936 669.266,1961.681 
			669.378,1961.569 669.457,1961.49 669.696,1961.203 669.967,1961.41 		"/>
		<polygon style="fill:#A42C22;" points="664.075,1932.366 663.915,1932.796 663.66,1933.45 663.501,1933.88 663.358,1934.262 
			663.294,1934.421 663.151,1934.772 662.45,1936.444 662.243,1936.333 662.131,1936.269 661.845,1936.11 661.685,1936.03 
			661.622,1935.998 661.207,1935.743 660.984,1935.616 661,1935.361 660.793,1934.772 660.73,1934.596 660.65,1934.453 
			660.411,1934.007 660.284,1933.8 660.682,1932.876 660.905,1932.446 660.984,1932.271 661.972,1932.685 662.259,1932.796 
			662.657,1931.968 		"/>
		<polygon style="fill:#A42C22;" points="668.948,1962.615 668.821,1962.519 668.678,1962.375 669.044,1961.946 669.267,1961.691 
			669.378,1961.579 669.442,1961.5 669.697,1961.213 669.968,1961.42 		"/>
		<polygon style="fill:#A42C22;" points="851.89,1954.642 852.05,1954.099 852.082,1954.003 852.497,1954.099 852.242,1954.754 		
			"/>
		<polygon style="fill:#A42C22;" points="822.982,1914.371 822.95,1914.834 822.039,1914.834 822.007,1914.211 822.087,1914.227 
			822.886,1914.355 		"/>
		<polygon style="fill:#A42C22;" points="808.105,1918.67 808.089,1918.798 808.073,1918.877 807.929,1919.788 807.673,1921.115 
			807.593,1921.738 807.593,1921.77 807.561,1922.169 807.098,1921.994 806.842,1921.898 805.772,1921.658 806.762,1917.743 
			807.705,1918.43 807.785,1918.478 807.865,1918.526 807.897,1918.558 807.945,1918.59 		"/>
		<polygon style="fill:#A42C22;" points="752.798,1954.147 752.734,1954.37 752.35,1954.195 752.462,1953.939 752.494,1953.955 
			752.814,1954.099 		"/>
		<polygon style="fill:#A42C22;" points="808.105,1918.67 808.073,1918.798 808.057,1918.877 807.913,1919.788 807.657,1921.115 
			807.593,1921.738 807.593,1921.77 807.545,1922.169 807.098,1921.994 806.826,1921.898 805.756,1921.658 806.762,1917.743 
			807.705,1918.43 807.785,1918.478 807.865,1918.526 807.897,1918.558 807.929,1918.59 		"/>
		<polygon style="fill:#A42C22;" points="742.523,1901.604 740.238,1900.885 739.087,1900.517 739.167,1900.309 739.199,1900.166 
			739.423,1899.542 739.743,1898.615 741.021,1899.031 743.178,1899.75 742.603,1901.364 742.571,1901.476 		"/>
		<polygon style="fill:#A42C22;" points="744.633,1890.593 745.831,1890.977 746.215,1891.089 745.959,1891.936 745.879,1892.191 
			745.623,1892.111 745.527,1892.079 745.144,1891.968 744.952,1891.904 744.664,1891.808 744.185,1891.664 744.153,1891.648 
			743.322,1891.376 743.658,1890.274 744.489,1890.545 		"/>
		<polygon style="fill:#A42C22;" points="744.553,1895.835 743.162,1895.371 742.875,1895.26 743.162,1894.349 743.194,1894.269 
			743.402,1893.598 743.466,1893.422 743.482,1893.358 743.562,1893.15 743.833,1892.303 744.648,1892.559 745.575,1892.846 
			745.384,1893.374 745.112,1894.189 744.585,1895.739 		"/>
		<polygon style="fill:#A42C22;" points="808.105,1918.655 808.073,1918.783 808.057,1918.863 807.913,1919.79 807.658,1921.116 
			807.594,1921.723 807.594,1921.755 807.546,1922.171 807.098,1921.995 806.827,1921.883 805.756,1921.659 806.763,1917.728 
			807.706,1918.431 807.786,1918.479 807.865,1918.527 807.897,1918.543 807.929,1918.575 		"/>
		<polygon style="fill:#A42C22;" points="797.798,1835.732 798.07,1835.796 797.894,1837.218 797.606,1837.138 797.303,1837.058 
			797.303,1836.994 797.367,1836.419 797.383,1836.291 797.399,1836.099 797.446,1835.716 797.462,1835.668 		"/>
		<polygon style="fill:#A42C22;" points="797.797,1835.73 798.069,1835.794 797.893,1837.217 797.621,1837.137 797.302,1837.057 
			797.302,1836.993 797.382,1836.417 797.382,1836.29 797.414,1836.098 797.462,1835.714 797.462,1835.667 		"/>
		<polygon style="fill:#A42C22;" points="822.982,1914.355 822.95,1914.834 822.039,1914.834 822.007,1914.195 822.087,1914.211 
			822.886,1914.339 		"/>
		<polygon style="fill:#A42C22;" points="808.104,1918.653 808.088,1918.781 808.072,1918.861 807.929,1919.788 807.673,1921.115 
			807.593,1921.722 807.593,1921.754 807.561,1922.169 807.098,1921.993 806.842,1921.882 805.771,1921.658 806.762,1917.727 
			807.705,1918.43 807.785,1918.478 807.865,1918.526 807.897,1918.542 807.945,1918.574 		"/>
		<polygon style="fill:#A42C22;" points="836.469,1882.969 836.421,1882.793 836.165,1881.531 836.533,1881.435 836.709,1881.403 
			836.996,1882.665 837.044,1882.857 836.868,1882.889 836.836,1882.889 		"/>
		<polygon style="fill:#A42C22;" points="866.903,1661.889 866.809,1661.826 866.605,1661.685 866.135,1661.34 866.464,1660.901 
			867.233,1661.45 		"/>
		<polygon style="fill:#A42C22;" points="940.226,1542.693 938.939,1542.254 938.971,1542.035 938.986,1541.878 938.986,1541.815 
			938.971,1541.642 938.971,1541.47 938.924,1541.313 938.892,1541.234 938.892,1541.219 938.845,1541.093 938.798,1540.999 
			938.751,1540.905 938.594,1540.623 938.406,1540.309 938.359,1540.23 939.222,1539.728 939.645,1539.493 939.771,1539.697 
			940.335,1540.717 940.398,1540.936 940.445,1541.156 940.461,1541.47 940.445,1541.658 940.414,1541.862 		"/>
		<polygon style="fill:#A42C22;" points="956.038,1555.604 956.007,1555.651 955.568,1556.279 955.552,1556.295 955.442,1556.436 
			955.411,1556.483 954.721,1556.075 954.532,1555.95 953.921,1555.573 953.905,1555.557 952.681,1554.82 952.603,1554.961 
			952.54,1555.071 952.383,1555.322 951.411,1554.773 952.336,1553.173 953.45,1553.91 954.501,1554.6 954.721,1554.757 
			956.038,1555.604 		"/>
		<polygon style="fill:#A42C22;" points="940.351,1644.946 939.112,1644.883 939.143,1643.895 939.159,1643.597 939.206,1643.597 
			940.398,1643.628 		"/>
		<polygon style="fill:#A42C22;" points="886.12,1623.548 886.12,1623.564 886.042,1623.721 885.603,1624.662 885.54,1624.772 
			885.493,1624.834 885.446,1624.882 885.367,1624.929 885.305,1624.944 885.242,1624.976 885.21,1624.976 885.163,1624.976 
			885.085,1624.96 884.881,1624.897 884.693,1624.819 884.52,1624.756 884.065,1624.568 883.893,1624.505 883.752,1624.442 
			883.563,1624.364 883.516,1624.348 883.689,1623.956 884.034,1623.109 884.348,1622.921 884.52,1622.795 		"/>
		<polygon style="fill:#A42C22;" points="912.632,1609.288 912.851,1609.539 913.479,1610.245 913.636,1610.417 913.777,1610.574 
			913.965,1610.794 913.573,1611.139 913.4,1610.935 913.118,1611.202 913.275,1611.406 912.004,1612.52 911.816,1612.316 
			911.738,1612.316 911.706,1612.3 911.612,1612.284 911.534,1612.159 911.487,1612.033 911.471,1612.002 911.487,1611.845 
			912.522,1609.398 912.6,1609.241 		"/>
		<polygon style="fill:#A42C22;" points="956.031,1555.6 956,1555.647 955.56,1556.275 955.545,1556.29 955.435,1556.431 
			955.403,1556.478 954.713,1556.071 954.541,1555.945 953.913,1555.568 953.897,1555.553 952.674,1554.816 952.595,1554.957 
			952.533,1555.067 952.376,1555.318 951.403,1554.768 952.329,1553.168 953.458,1553.906 954.509,1554.596 954.713,1554.753 
			956.031,1555.6 		"/>
		<polygon style="fill:#A42C22;" points="910.32,1680.318 909.505,1681.056 909.395,1680.946 909.191,1680.742 909.74,1680.271 
			909.818,1680.224 910.132,1680.224 910.211,1680.24 		"/>
		<polygon style="fill:#A42C22;" points="866.898,1661.87 866.804,1661.807 866.6,1661.681 866.13,1661.336 866.459,1660.881 
			867.228,1661.43 		"/>
		<polygon style="fill:#A42C22;" points="881.817,1688.444 881.079,1689.135 880.06,1688.225 880.64,1687.692 880.891,1687.456 
			881.707,1688.335 		"/>
		<polygon style="fill:#A42C22;" points="940.346,1644.927 939.107,1644.88 939.138,1643.876 939.154,1643.578 939.201,1643.578 
			940.393,1643.625 		"/>
		<polygon style="fill:#A42C22;" points="850.803,1683.911 850.819,1683.926 851.399,1684.381 852.074,1684.915 851.933,1685.103 
			851.635,1685.495 851.399,1685.809 851.038,1686.311 850.85,1686.578 850.583,1686.954 850.034,1686.593 850.003,1686.578 
			849.674,1685.997 849.595,1685.919 849.501,1685.856 849.501,1685.84 849.501,1685.778 849.344,1685.699 849.25,1685.668 
			849.266,1685.636 848.842,1685.37 848.795,1685.338 849.266,1684.774 849.752,1684.162 849.752,1684.146 849.956,1683.911 
			850.27,1683.519 850.27,1683.503 		"/>
		<polygon style="fill:#A42C22;" points="825.132,1825.003 824.747,1824.843 824.49,1824.714 824.314,1824.57 824.298,1824.538 
			824.41,1824.297 824.474,1824.041 824.602,1824.041 824.731,1824.057 825.003,1823.977 825.116,1824.762 		"/>
		<polygon style="fill:#A42C22;" points="805.584,1795.304 805.392,1796.234 805.039,1796.186 804.83,1796.154 804.397,1796.074 
			804.253,1796.057 804.077,1796.009 803.965,1795.961 803.884,1795.913 803.788,1795.849 803.804,1795.705 803.836,1795.352 
			803.868,1795.256 803.884,1795.192 803.932,1795.143 803.981,1795.079 804.013,1795.079 804.029,1795.063 804.125,1795.031 
			804.494,1795.111 805.167,1795.224 805.312,1795.256 		"/>
		<polygon style="fill:#A42C22;" points="827.906,1843.701 827.81,1843.268 827.729,1842.867 827.954,1842.803 828.114,1843.653 		
			"/>
		<polygon style="fill:#A42C22;" points="805.589,1795.307 805.38,1796.253 805.043,1796.189 804.835,1796.157 804.402,1796.093 
			804.242,1796.061 804.065,1796.029 803.969,1795.964 803.889,1795.916 803.776,1795.868 803.793,1795.724 803.825,1795.371 
			803.857,1795.275 803.889,1795.195 803.921,1795.146 803.985,1795.098 804.017,1795.082 804.033,1795.066 804.129,1795.05 
			804.498,1795.115 805.156,1795.243 805.316,1795.259 		"/>
		<polygon style="fill:#A42C22;" points="804.161,1745.739 804.113,1748.529 804.145,1748.529 804.37,1748.545 804.37,1748.898 
			804.594,1748.898 804.626,1749.475 805.701,1749.347 805.637,1749.588 805.38,1750.614 805.38,1750.63 805.38,1750.678 
			805.348,1750.678 805.364,1750.71 805.38,1750.999 805.444,1751.143 805.492,1751.271 805.589,1751.592 805.621,1751.688 
			805.653,1751.865 805.669,1751.945 805.717,1752.25 805.733,1752.378 805.749,1752.426 805.829,1752.635 805.877,1752.715 
			806.102,1752.971 806.15,1753.052 806.166,1753.1 806.198,1753.26 806.39,1753.677 806.471,1753.805 806.503,1753.837 
			806.551,1753.869 806.583,1753.933 806.647,1754.062 806.647,1754.078 806.807,1754.415 806.839,1754.559 807,1755.088 
			806.775,1755.2 806.583,1755.313 806.422,1755.2 806.182,1755.024 805.973,1754.88 805.589,1754.607 805.14,1754.27 
			804.851,1754.046 804.402,1753.645 804.129,1753.404 803.921,1753.212 803.456,1752.779 803.424,1752.747 802.943,1752.282 
			802.718,1752.041 802.077,1751.288 801.291,1750.325 800.746,1749.588 800.489,1749.235 800.393,1749.091 800.601,1749.123 
			801.66,1749.299 801.499,1744.937 801.756,1745.049 802.237,1745.242 802.317,1745.29 802.414,1745.322 802.558,1745.386 
			802.766,1745.466 802.879,1745.515 803.007,1745.563 803.151,1745.627 803.311,1745.675 803.552,1745.723 803.68,1745.755 
			803.937,1745.755 804.145,1745.739 		"/>
		<polygon style="fill:#A42C22;" points="788.96,1793.254 787.164,1793.206 787.019,1793.206 786.314,1793.19 786.266,1793.19 
			786.169,1793.174 786.169,1793.703 786.169,1793.896 786.169,1794.409 785.672,1794.457 785.207,1794.489 784.245,1794.537 
			784.245,1794.457 784.261,1794.409 784.261,1794.233 784.261,1794.2 784.261,1794.136 784.261,1793.126 784.229,1792.019 
			785.416,1792.052 785.496,1792.036 785.544,1792.036 786.378,1792.003 786.394,1791.859 788.559,1791.811 788.911,1791.795 
			788.96,1793.222 		"/>
		<polygon style="fill:#A42C22;" points="805.585,1795.303 805.392,1796.25 805.04,1796.185 804.831,1796.153 804.398,1796.089 
			804.254,1796.057 804.077,1796.025 803.965,1795.961 803.885,1795.913 803.789,1795.865 803.805,1795.72 803.837,1795.368 
			803.869,1795.271 803.885,1795.191 803.933,1795.143 803.981,1795.095 804.013,1795.079 804.029,1795.063 804.126,1795.047 
			804.494,1795.111 805.168,1795.239 805.312,1795.255 		"/>
		<polygon style="fill:#A42C22;" points="843.798,1731.96 843.718,1731.848 843.445,1731.479 843.317,1731.287 843.621,1731.094 
			844.07,1731.768 		"/>
		<polygon style="fill:#A42C22;" points="843.509,1763.183 843.493,1763.199 843.172,1763.584 843.156,1763.616 843.14,1763.6 
			842.948,1763.504 842.675,1763.343 842.483,1763.231 842.034,1762.91 841.954,1762.846 842.339,1762.381 843.028,1762.862 		"/>
		<polygon style="fill:#A42C22;" points="804.158,1745.736 804.11,1748.526 804.158,1748.526 804.382,1748.542 804.366,1748.895 
			804.591,1748.895 804.623,1749.472 805.697,1749.344 805.649,1749.584 805.392,1750.611 805.392,1750.627 805.376,1750.675 
			805.344,1750.675 805.36,1750.707 805.392,1750.995 805.44,1751.14 805.489,1751.268 805.601,1751.589 805.617,1751.685 
			805.665,1751.861 805.681,1751.942 805.713,1752.246 805.729,1752.375 805.745,1752.423 805.841,1752.631 805.89,1752.711 
			806.114,1752.968 806.146,1753.048 806.162,1753.096 806.194,1753.256 806.387,1753.673 806.467,1753.802 806.499,1753.834 
			806.547,1753.866 806.595,1753.93 806.643,1754.058 806.659,1754.074 806.804,1754.411 806.852,1754.556 806.996,1755.085 
			806.771,1755.197 806.579,1755.309 806.419,1755.197 806.194,1755.021 805.986,1754.876 805.585,1754.604 805.136,1754.267 
			804.847,1754.042 804.414,1753.641 804.142,1753.401 803.917,1753.208 803.452,1752.775 803.42,1752.743 802.955,1752.278 
			802.73,1752.038 802.089,1751.284 801.287,1750.322 800.742,1749.584 800.502,1749.231 800.405,1749.087 800.598,1749.119 
			801.672,1749.296 801.512,1744.934 801.768,1745.046 802.249,1745.238 802.314,1745.286 802.41,1745.319 802.57,1745.383 
			802.779,1745.463 802.875,1745.511 803.003,1745.559 803.147,1745.623 803.308,1745.671 803.548,1745.719 803.693,1745.752 
			803.933,1745.752 804.142,1745.736 		"/>
		<polygon style="fill:#A42C22;" points="865.478,1709.269 865.622,1709.558 865.687,1709.702 865.687,1709.766 865.783,1710.007 
			866.103,1710.568 866.264,1710.873 866.424,1711.161 867.034,1712.172 865.911,1712.46 865.045,1712.476 864.612,1712.492 
			864.163,1712.444 863.746,1712.412 863.265,1712.38 863.217,1712.38 863.009,1712.38 862.495,1712.332 862.399,1712.3 
			862.271,1712.252 862.656,1711.386 863.522,1709.462 863.923,1708.531 864.067,1708.227 864.243,1708.275 864.452,1708.339 
			864.58,1708.387 864.74,1708.451 864.853,1708.548 865.045,1708.692 865.141,1708.788 865.254,1708.916 865.35,1709.045 
			865.43,1709.157 		"/>
		<polygon style="fill:#A42C22;" points="836.678,1700.706 837.223,1701.075 838.089,1701.636 838.763,1702.069 839.099,1702.293 
			839.003,1702.454 838.217,1701.957 837.432,1701.443 837.063,1702.005 836.919,1702.229 836.662,1702.63 835.908,1702.133 
			835.924,1701.973 835.924,1701.941 835.924,1701.876 835.908,1701.764 835.924,1701.764 835.924,1701.7 835.956,1701.476 
			836.053,1701.027 836.117,1700.77 836.165,1700.481 836.261,1700.546 836.325,1700.562 836.453,1700.61 836.582,1700.642 		"/>
		<polygon style="fill:#A42C22;" points="888.858,1718.346 888.794,1718.907 888.778,1718.891 888.666,1718.891 888.409,1718.859 
			888.457,1718.314 888.73,1718.33 888.826,1718.346 		"/>
		<polygon style="fill:#A42C22;" points="805.584,1795.304 805.376,1796.234 805.039,1796.186 804.83,1796.154 804.397,1796.074 
			804.237,1796.057 804.061,1796.009 803.965,1795.961 803.884,1795.913 803.772,1795.849 803.788,1795.705 803.82,1795.352 
			803.852,1795.256 803.884,1795.192 803.916,1795.143 803.981,1795.079 804.013,1795.079 804.029,1795.063 804.125,1795.031 
			804.494,1795.111 805.151,1795.224 805.312,1795.256 		"/>
		<polygon style="fill:#A42C22;" points="788.955,1793.235 787.159,1793.203 787.015,1793.203 786.309,1793.171 786.261,1793.171 
			786.165,1793.171 786.165,1793.684 786.165,1793.893 786.165,1794.406 785.668,1794.438 785.203,1794.47 784.241,1794.534 
			784.241,1794.454 784.257,1794.39 784.257,1794.213 784.257,1794.181 784.257,1794.117 784.257,1793.123 784.225,1792 
			785.411,1792.048 785.491,1792.032 785.54,1792.016 786.373,1791.984 786.389,1791.856 788.554,1791.808 788.907,1791.792 
			788.955,1793.203 		"/>
		<polygon style="fill:#A42C22;" points="793.733,1646.289 793.701,1646.354 793.444,1646.883 792.417,1646.338 792.77,1645.792 
			792.802,1645.744 		"/>
		<polygon style="fill:#A42C22;" points="790.588,1655.885 791.936,1656.366 793.861,1657.04 794.038,1657.104 795.081,1657.457 
			794.712,1658.548 794.246,1659.848 793.99,1660.618 793.925,1660.73 793.877,1660.827 793.813,1660.955 793.685,1661.116 
			793.54,1661.308 793.428,1661.42 793.284,1661.565 793.155,1661.677 793.043,1661.773 792.931,1661.87 792.658,1662.078 
			792.337,1662.319 791.535,1662.865 790.684,1663.426 789.048,1662.255 789.064,1662.207 788.406,1661.629 787.62,1660.939 
			788.278,1660.089 787.507,1659.479 786.705,1658.853 787.459,1657.955 789.593,1655.147 		"/>
		<polygon style="fill:#A42C22;" points="789.914,1696.319 789.93,1696.271 789.978,1696.143 790.01,1696.063 790.026,1695.999 
			790.187,1696.047 790.075,1696.384 		"/>
		<polygon style="fill:#A42C22;" points="803.424,1690.896 801.097,1689.629 801.803,1688.168 801.787,1688.088 801.787,1688.008 
			801.771,1687.944 801.739,1687.912 801.675,1687.88 801.723,1687.783 802.413,1686.195 802.782,1686.339 805.301,1687.318 
			805.349,1687.366 805.365,1687.43 805.381,1687.494 805.365,1687.559 804.306,1689.42 803.713,1690.479 803.617,1690.655 		"/>
		<polygon style="fill:#A42C22;" points="838.193,1658.484 838.017,1658.821 837.728,1658.693 837.873,1658.34 		"/>
		<polygon style="fill:#A42C22;" points="828.502,1647.734 828.422,1647.958 827.828,1647.621 827.748,1647.589 827.764,1647.541 
			827.844,1647.268 827.909,1647.316 		"/>
		<polygon style="fill:#A42C22;" points="807.307,1650.06 806.665,1651.376 805.911,1651.039 805.526,1651.857 805.189,1652.547 
			805.109,1652.692 803.584,1651.97 803.986,1651.055 804.339,1650.317 804.868,1649.162 804.9,1649.13 804.932,1649.098 
			804.98,1649.065 805.029,1649.033 805.109,1649.017 805.157,1649.001 805.221,1648.985 805.285,1649.001 805.349,1649.017 		"/>
		<polygon style="fill:#A42C22;" points="807.309,1650.063 806.667,1651.363 805.913,1651.042 805.512,1651.844 805.175,1652.55 
			805.111,1652.678 803.587,1651.956 803.988,1651.042 804.341,1650.304 804.87,1649.164 804.886,1649.132 804.935,1649.1 
			804.967,1649.068 805.031,1649.036 805.095,1649.004 805.143,1648.988 805.207,1648.988 805.288,1648.988 805.336,1649.004 		"/>
		<polygon style="fill:#A42C22;" points="793.719,1646.292 793.687,1646.34 793.446,1646.87 792.419,1646.324 792.772,1645.795 
			792.805,1645.747 		"/>
		<polygon style="fill:#A42C22;" points="790.574,1655.887 791.938,1656.353 793.863,1657.027 794.04,1657.091 795.083,1657.444 
			794.698,1658.535 794.249,1659.835 793.976,1660.605 793.928,1660.733 793.88,1660.829 793.815,1660.942 793.687,1661.118 
			793.527,1661.295 793.414,1661.423 793.27,1661.568 793.158,1661.664 793.045,1661.776 792.917,1661.856 792.66,1662.065 
			792.339,1662.306 791.537,1662.867 790.687,1663.429 789.05,1662.241 789.05,1662.193 788.408,1661.632 787.622,1660.942 
			788.264,1660.091 787.51,1659.482 786.707,1658.84 787.445,1657.941 789.58,1655.149 		"/>
		<polygon style="fill:#A42C22;" points="828.503,1647.735 828.423,1647.976 827.829,1647.639 827.749,1647.591 827.765,1647.543 
			827.845,1647.286 827.909,1647.334 		"/>
		<polygon style="fill:#A42C22;" points="825.439,1601.348 825.182,1602.792 823.69,1602.423 823.337,1602.326 823.272,1602.31 
			823.305,1602.118 823.465,1600.85 		"/>
		<polygon style="fill:#A42C22;" points="843.265,1543.584 843.473,1543.552 843.618,1543.552 843.602,1543.953 843.602,1544.258 
			843.216,1544.258 		"/>
		<polygon style="fill:#A42C22;" points="807.308,1650.078 806.666,1651.378 805.912,1651.057 805.527,1651.859 805.19,1652.565 
			805.11,1652.693 803.585,1651.971 803.986,1651.057 804.339,1650.318 804.869,1649.179 804.901,1649.147 804.933,1649.115 
			804.981,1649.083 805.029,1649.051 805.11,1649.019 805.158,1649.003 805.222,1649.003 805.286,1649.003 805.35,1649.019 		"/>
		<polygon style="fill:#A42C22;" points="859.085,1591.688 859.069,1592.571 858.86,1592.555 858.876,1591.672 858.973,1591.672 		
			"/>
		<polygon style="fill:#A42C22;" points="838.194,1658.486 838.018,1658.823 837.729,1658.71 837.873,1658.341 		"/>
		<polygon style="fill:#A42C22;" points="793.734,1646.307 793.702,1646.355 793.445,1646.885 792.418,1646.339 792.771,1645.81 
			792.803,1645.762 		"/>
		<polygon style="fill:#A42C22;" points="790.589,1655.902 791.937,1656.368 793.862,1657.042 794.039,1657.106 795.081,1657.459 
			794.712,1658.55 794.247,1659.85 793.99,1660.62 793.926,1660.748 793.878,1660.844 793.814,1660.957 793.686,1661.133 
			793.541,1661.31 793.429,1661.438 793.284,1661.583 793.156,1661.679 793.044,1661.791 792.931,1661.871 792.659,1662.08 
			792.338,1662.321 791.536,1662.882 790.685,1663.444 789.049,1662.256 789.065,1662.208 788.407,1661.647 787.621,1660.957 
			788.278,1660.106 787.508,1659.497 786.706,1658.855 787.46,1657.956 789.594,1655.164 		"/>
		<polygon style="fill:#A42C22;" points="787.63,1707.983 787.406,1708.272 787.085,1708.657 786.459,1709.443 786.283,1709.796 
			786.267,1709.828 786.234,1709.893 786.234,1709.909 785.304,1709.524 785.111,1709.443 785.143,1709.363 785.272,1709.138 
			785.336,1709.01 786.716,1707.293 787.614,1707.967 		"/>
		<polygon style="fill:#A42C22;" points="807.318,1650.075 806.676,1651.391 805.922,1651.054 805.521,1651.872 805.184,1652.562 
			805.119,1652.706 803.595,1651.984 803.996,1651.07 804.349,1650.332 804.879,1649.176 804.895,1649.144 804.943,1649.112 
			804.975,1649.08 805.039,1649.048 805.103,1649.032 805.151,1649.016 805.216,1649 805.296,1649.016 805.344,1649.032 		"/>
		<polygon style="fill:#A42C22;" points="789.909,1696.334 789.941,1696.286 789.989,1696.158 790.005,1696.077 790.037,1696.013 
			790.198,1696.061 790.085,1696.398 		"/>
		<polygon style="fill:#A42C22;" points="803.419,1690.911 801.108,1689.643 801.798,1688.183 801.798,1688.103 801.782,1688.022 
			801.766,1687.958 801.734,1687.926 801.686,1687.894 801.734,1687.798 802.408,1686.209 802.777,1686.354 805.312,1687.333 
			805.344,1687.381 805.376,1687.445 805.376,1687.509 805.376,1687.573 804.317,1689.435 803.723,1690.494 803.611,1690.67 		"/>
		<polygon style="fill:#A42C22;" points="793.727,1646.304 793.695,1646.368 793.455,1646.898 792.428,1646.352 792.781,1645.807 
			792.813,1645.759 		"/>
		<polygon style="fill:#A42C22;" points="790.583,1655.899 791.946,1656.381 793.872,1657.055 794.048,1657.119 795.091,1657.472 
			794.706,1658.563 794.257,1659.863 793.984,1660.633 793.936,1660.745 793.888,1660.841 793.824,1660.97 793.695,1661.13 
			793.535,1661.323 793.423,1661.435 793.278,1661.579 793.166,1661.692 793.054,1661.788 792.925,1661.884 792.668,1662.093 
			792.348,1662.334 791.545,1662.879 790.695,1663.441 789.058,1662.269 789.058,1662.221 788.417,1661.644 787.63,1660.954 
			788.272,1660.103 787.518,1659.494 786.716,1658.868 787.454,1657.969 789.588,1655.161 		"/>
		<polygon style="fill:#A42C22;" points="716.664,1791.515 716.664,1791.563 716.696,1791.868 716.712,1792.238 716.712,1792.254 
			716.632,1792.27 715.266,1792.704 715.025,1791.965 715.234,1791.901 715.7,1791.772 715.909,1791.724 716.616,1791.499 		"/>
		<polygon style="fill:#A42C22;" points="743.176,1869.56 743.16,1869.56 742.598,1869.672 742.309,1869.737 742.309,1869.721 
			742.309,1869.704 742.357,1869.319 742.373,1869.094 742.389,1868.885 742.501,1867.857 742.501,1867.841 743.353,1867.808 
			743.353,1867.841 743.353,1867.905 743.337,1868.033 743.321,1868.13 743.305,1868.291 743.224,1869.062 743.224,1869.158 
			743.192,1869.367 743.176,1869.56 		"/>
		<polygon style="fill:#A42C22;" points="695.085,1791.451 695.502,1790.535 695.936,1790.711 695.502,1791.643 		"/>
		<polygon style="fill:#A42C22;" points="695.342,1789.137 695.31,1789.201 695.245,1789.362 695.229,1789.41 695.133,1789.619 
			694.538,1790.92 694.458,1791.065 694.442,1791.129 694.008,1790.936 693.173,1790.551 693.269,1790.358 691.775,1789.571 
			692.289,1788.494 692.433,1788.205 692.53,1787.948 		"/>
		<polygon style="fill:#A42C22;" points="703.377,1765.23 703.217,1765.503 702.863,1766.098 702.719,1766.017 702.253,1765.76 
			702.237,1765.728 702.221,1765.712 702.204,1765.696 702.188,1765.68 702.156,1765.648 702.14,1765.616 702.14,1765.599 
			702.124,1765.567 702.108,1765.551 702.108,1765.535 702.092,1765.519 702.092,1765.503 702.076,1765.471 702.076,1765.455 
			702.076,1765.439 702.06,1765.423 702.06,1765.391 702.06,1765.375 702.06,1765.342 702.06,1765.326 702.06,1765.294 
			702.06,1765.262 702.06,1765.246 702.06,1765.214 702.06,1765.198 702.06,1765.182 702.076,1765.182 702.076,1765.166 
			702.076,1765.15 702.076,1765.133 702.092,1765.117 702.108,1765.069 702.349,1764.651 703.088,1765.085 703.297,1765.198 
			703.361,1765.23 		"/>
		<polygon style="fill:#A42C22;" points="762.54,1710.404 762.17,1711.352 761.994,1711.914 761.978,1711.995 761.656,1711.914 
			761.961,1710.966 762.186,1710.356 		"/>
		<polygon style="fill:#A42C22;" points="742.616,1683.152 742.664,1683.328 742.873,1684.132 742.905,1684.276 741.266,1684.742 
			741.234,1684.759 740.221,1685.016 740.173,1684.855 740.173,1684.839 739.675,1683.136 739.402,1682.204 740.88,1681.802 
			741.394,1681.673 741.86,1683.361 		"/>
		<polygon style="fill:#A42C22;" points="694.267,1739.665 693.367,1739.392 693.367,1739.376 693.849,1737.592 693.881,1737.479 
			693.945,1737.238 694.926,1737.512 694.267,1739.665 		"/>
		<polygon style="fill:#A42C22;" points="716.505,1791.534 716.505,1791.582 716.553,1791.888 716.569,1792.257 716.569,1792.273 
			716.473,1792.289 715.107,1792.723 714.866,1791.984 715.091,1791.92 715.541,1791.791 715.75,1791.743 716.473,1791.518 		"/>
		<polygon style="fill:#A42C22;" points="716.907,1736.274 716.666,1736.789 717.389,1737.126 717.357,1737.19 717.325,1737.271 
			717.292,1737.319 717.26,1737.367 716.071,1739.424 715.83,1739.825 713.42,1738.444 713.645,1738.042 713.886,1737.608 
			714.255,1736.981 714.4,1736.756 714.529,1736.612 714.673,1736.467 714.786,1736.387 714.946,1736.29 715.107,1736.242 
			715.22,1736.21 		"/>
		<polygon style="fill:#A42C22;" points="714.015,1681.754 713.966,1681.77 713.532,1682.091 713.484,1682.123 713.211,1681.834 
			713.822,1681.368 713.934,1681.593 		"/>
		<polygon style="fill:#A42C22;" points="734.662,1686.076 733.939,1686.285 733.65,1685.208 734.373,1685 		"/>
		<polygon style="fill:#A42C22;" points="725.937,1737.094 725.937,1737.142 725.921,1737.206 725.905,1737.271 725.905,1737.303 
			725.873,1737.351 725.664,1737.737 725.551,1737.929 725.198,1737.737 725.455,1737.142 725.359,1736.997 		"/>
		<polygon style="fill:#A42C22;" points="721.149,1728.465 721.213,1728.786 721.229,1728.851 721.39,1729.445 721.486,1729.927 
			721.518,1730.008 721.663,1730.682 721.807,1731.309 721.888,1731.695 721.904,1731.807 722.354,1733.816 722.354,1734.105 
			722.354,1734.202 722.354,1734.346 722.37,1735.214 722.37,1735.246 721.406,1735.214 720.988,1735.198 719.751,1735.133 
			719.542,1735.133 716.441,1735.053 716.039,1735.037 715.846,1735.021 715.782,1735.021 715.734,1735.005 715.669,1734.973 
			715.621,1734.909 715.573,1734.86 715.557,1734.812 715.541,1734.732 715.541,1734.7 715.541,1734.635 715.557,1734.587 
			715.573,1734.539 715.621,1734.491 715.653,1734.41 715.734,1734.266 716.891,1732.289 717.26,1731.566 717.357,1731.373 
			717.903,1730.441 718.433,1729.51 719.076,1728.401 719.301,1728.417 719.783,1728.433 720.795,1728.465 		"/>
		<polygon style="fill:#A42C22;" points="694.877,1791.47 695.295,1790.554 695.729,1790.731 695.295,1791.663 		"/>
		<polygon style="fill:#A42C22;" points="695.135,1789.156 695.102,1789.22 695.038,1789.365 695.022,1789.413 694.926,1789.638 
			694.331,1790.94 694.251,1791.084 694.235,1791.149 693.801,1790.94 692.965,1790.57 693.062,1790.377 691.567,1789.59 
			692.082,1788.513 692.21,1788.208 692.323,1787.951 		"/>
	</g>
</g>
</svg>
