<?xml version="1.0" encoding="iso-8859-1"?>
<!-- Generator: Adobe Illustrator 17.0.0, SVG Export Plug-In . SVG Version: 6.00 Build 0)  -->
<!DOCTYPE svg PUBLIC "-//W3C//DTD SVG 1.1//EN" "http://www.w3.org/Graphics/SVG/1.1/DTD/svg11.dtd">
<svg version="1.1" xmlns="http://www.w3.org/2000/svg" xmlns:xlink="http://www.w3.org/1999/xlink" x="0px" y="0px" width="1840px"
	 height="2400px" viewBox="0 0 1840 2400" style="enable-background:new 0 0 1840 2400;" xml:space="preserve">
<g id="Layer_114">
	<rect style="fill:none;" width="1840" height="2400"/>
	<rect style="fill:none;" width="1840" height="2400"/>
	<rect style="fill:none;" width="1840" height="2400"/>
	<rect style="fill:none;" width="1840" height="2400"/>
	<rect style="fill:none;" width="1840" height="2400"/>
	<rect style="fill:none;" width="1840" height="2400"/>
	<rect style="fill:none;" width="1840" height="2400"/>
	<rect style="fill:none;" width="1840" height="2400"/>
	<rect style="fill:none;" width="1840" height="2400"/>
	<rect style="fill:none;" width="1840" height="2400"/>
	<rect style="fill:none;" width="1840" height="2400"/>
	<rect style="fill:none;" width="1840" height="2400"/>
	<rect style="fill:none;" width="1840" height="2400"/>
	<rect style="fill:none;" width="1840" height="2400"/>
	<rect style="fill:none;" width="1840" height="2400"/>
	<rect style="fill:none;" width="1840" height="2400"/>
	<rect style="fill:none;" width="1840" height="2400"/>
	<rect style="fill:none;" width="1840" height="2400"/>
	<rect style="fill:none;" width="1840" height="2400"/>
	<rect style="fill:none;" width="1840" height="2400"/>
	<rect style="fill:none;" width="1840" height="2400"/>
	<rect style="fill:none;" width="1840" height="2400"/>
	<rect style="fill:none;" width="1840" height="2400"/>
	<rect style="fill:none;" width="1840" height="2400"/>
	<rect style="fill:none;" width="1840" height="2400"/>
	<rect style="fill:none;" width="1840" height="2400"/>
	<rect style="fill:none;" width="1840" height="2400"/>
	<rect style="fill:none;" width="1840" height="2400"/>
</g>
<g id="GS">
	<g id="FOREST_x5F_MANGROVES_x5F_HILLS">
		<polygon style="fill:#376631;" points="645.884,2010.092 645.708,2010.347 645.613,2010.49 645.517,2010.649 645.533,2010.745 
			645.406,2010.936 645.055,2011.286 644.864,2011.271 644.036,2011.334 643.909,2011.127 643.255,2011.366 642.73,2011.557 
			642.316,2011.717 641.997,2011.844 642.045,2011.94 642.029,2011.94 641.822,2012.051 641.201,2012.385 640.882,2012.529 
			640.197,2012.847 640.388,2013.214 640.643,2013.676 641.026,2014.408 641.073,2014.52 640.962,2014.568 640.866,2014.647 
			640.771,2014.727 640.691,2014.918 640.548,2014.966 640.468,2014.982 640.229,2014.966 639.974,2014.966 639.895,2014.982 
			639.704,2014.998 639.672,2014.998 639.512,2015.014 639.274,2015.03 639.082,2015.03 639.035,2015.03 639.003,2015.03 
			638.748,2014.982 638.525,2014.95 638.334,2014.807 638.27,2014.759 637.92,2014.536 637.936,2014.377 637.792,2014.313 
			637.76,2014.297 637.601,2014.154 637.521,2014.074 637.314,2013.835 637.235,2013.739 637.203,2013.708 637.203,2013.5 
			637.219,2013.262 637.219,2012.816 637.267,2012.322 637.091,2012.051 636.932,2011.796 636.645,2011.589 636.438,2011.478 
			635.992,2011.286 635.833,2011.191 635.833,2011.159 635.769,2011.127 636.343,2010.41 636.454,2010.219 636.534,2010.299 
			636.789,2010.426 636.932,2010.49 636.98,2010.426 637.076,2010.331 637.091,2010.299 637.139,2010.299 637.665,2010.426 
			638.334,2010.426 638.557,2010.426 638.875,2010.395 639.576,2010.395 639.64,2010.395 639.927,2010.379 640.022,2010.395 
			640.261,2010.458 640.739,2010.602 640.962,2010.617 641.344,2010.713 641.647,2010.793 641.949,2010.825 642.523,2010.872 
			642.555,2010.872 642.65,2010.856 643.128,2010.602 643.351,2010.395 643.431,2010.331 643.686,2010.172 643.877,2010.442 
			644.514,2009.964 644.769,2010.283 645.39,2009.741 644.832,2009.072 644.944,2008.977 645.087,2008.818 645.39,2008.515 
			645.74,2008.244 645.772,2008.228 646.569,2008.117 647.062,2008.037 646.346,2009.423 646.186,2009.662 		"/>
		<polygon style="fill:#376631;" points="674.427,1895.466 674.475,1895.785 674.602,1896.581 674.666,1897.043 674.698,1897.187 
			674.73,1897.441 674.857,1898.158 674.889,1898.604 675.016,1899.273 675.048,1899.353 675.096,1899.385 675.16,1899.401 
			675.383,1899.385 675.669,1899.417 675.845,1899.464 676.131,1899.56 676.354,1899.671 676.577,1899.767 676.657,1899.783 
			676.752,1899.815 677.724,1900.006 677.326,1900.133 677.246,1900.165 677.151,1900.197 676.991,1900.181 676.816,1900.245 
			676.784,1900.388 676.816,1900.866 676.8,1901.105 676.752,1901.28 676.832,1902.124 677.421,1902.284 677.326,1902.315 
			677.533,1902.984 677.549,1903.032 677.772,1903.653 677.899,1904.036 677.708,1904.179 677.644,1904.673 677.644,1904.975 
			677.644,1905.453 677.628,1905.629 677.66,1905.852 677.708,1905.995 677.756,1906.122 677.788,1906.616 677.947,1907.126 
			678.186,1907.683 678.632,1908.384 678.266,1908.766 678.011,1909.021 677.867,1908.83 677.692,1909.021 678.186,1911.108 
			678.568,1912.717 678.696,1912.669 678.807,1912.653 678.791,1912.701 678.903,1912.749 679.094,1912.924 679.173,1913.21 
			678.966,1914.214 679.094,1914.485 678.982,1914.533 679.588,1915.95 679.699,1916.205 679.747,1916.332 679.954,1916.906 
			680.049,1916.874 680.065,1916.938 680.145,1917.193 678.106,1917.639 677.119,1917.957 677.055,1917.814 677.023,1917.718 
			677.007,1917.575 677.007,1917.463 677.039,1917.272 677.039,1917.113 677.055,1916.954 677.023,1916.842 677.007,1916.747 
			677.007,1916.667 678.058,1916.587 677.931,1914.692 677.899,1914.214 677.66,1912.94 676.752,1913.179 676.689,1912.987 
			676.641,1912.812 676.625,1912.812 676.45,1912.287 676.434,1912.016 676.386,1911.872 676.338,1911.219 676.306,1910.726 
			676.338,1910.327 676.545,1909.77 676.593,1909.324 676.386,1909.069 676.338,1908.974 676.306,1908.878 676.322,1908.719 
			676.37,1908.543 676.227,1908.305 676.083,1908.05 675.972,1907.508 676.004,1907.301 676.02,1907.221 676.068,1907.19 
			676.179,1907.11 676.306,1906.998 676.402,1906.919 676.402,1906.855 676.498,1906.839 676.561,1906.457 676.577,1906.393 
			676.577,1905.645 676.577,1905.071 676.593,1904.402 676.004,1903.988 675.94,1903.781 675.733,1903.638 675.622,1903.383 
			675.606,1903.303 675.542,1902.618 675.446,1901.742 675.51,1901.758 675.478,1901.185 675.43,1901.2 675.064,1900.038 
			675.032,1900.038 674.984,1899.894 674.634,1899.926 674.523,1899.878 674.459,1899.799 674.395,1899.735 674.347,1899.64 
			674.236,1899.48 673.583,1897.282 673.487,1897.075 673.471,1896.995 673.455,1896.9 673.455,1896.74 673.471,1896.581 
			673.487,1896.517 673.551,1896.406 673.758,1896.072 673.79,1895.992 673.822,1895.896 673.822,1895.721 673.822,1895.578 
			673.79,1895.371 673.694,1895.084 673.646,1895.02 673.599,1894.957 673.519,1894.845 673.424,1894.718 674.029,1894.542 
			674.14,1894.718 674.363,1895.116 		"/>
		<polygon style="fill:#376631;" points="674.412,1895.476 674.475,1895.795 674.603,1896.591 674.667,1897.053 674.682,1897.196 
			674.714,1897.451 674.842,1898.168 674.874,1898.614 675.001,1899.283 675.049,1899.363 675.081,1899.395 675.16,1899.411 
			675.383,1899.395 675.67,1899.426 675.845,1899.474 676.132,1899.57 676.355,1899.681 676.578,1899.777 676.658,1899.793 
			676.753,1899.825 677.725,1900.016 677.311,1900.143 677.247,1900.175 677.151,1900.207 676.992,1900.191 676.817,1900.255 
			676.785,1900.398 676.817,1900.876 676.801,1901.115 676.753,1901.29 676.833,1902.134 677.422,1902.294 677.326,1902.325 
			677.534,1902.994 677.549,1903.042 677.757,1903.663 677.884,1904.046 677.693,1904.189 677.645,1904.683 677.645,1904.985 
			677.645,1905.463 677.613,1905.639 677.645,1905.861 677.709,1906.005 677.757,1906.132 677.788,1906.626 677.932,1907.136 
			678.171,1907.693 678.633,1908.394 678.266,1908.776 678.011,1909.031 677.868,1908.84 677.693,1909.031 678.187,1911.118 
			678.569,1912.727 678.696,1912.679 678.808,1912.663 678.792,1912.711 678.887,1912.759 679.079,1912.934 679.158,1913.22 
			678.951,1914.224 679.094,1914.495 678.983,1914.543 679.588,1915.96 679.7,1916.215 679.747,1916.342 679.955,1916.916 
			680.034,1916.884 680.066,1916.948 680.146,1917.203 678.091,1917.649 677.119,1917.967 677.056,1917.824 677.024,1917.728 
			677.008,1917.585 677.008,1917.473 677.04,1917.282 677.04,1917.123 677.04,1916.964 677.024,1916.852 677.008,1916.756 
			677.008,1916.677 678.043,1916.597 677.916,1914.702 677.884,1914.224 677.661,1912.95 676.737,1913.189 676.689,1912.997 
			676.642,1912.822 676.626,1912.822 676.451,1912.297 676.419,1912.026 676.387,1911.882 676.339,1911.229 676.307,1910.736 
			676.339,1910.337 676.546,1909.78 676.594,1909.334 676.387,1909.079 676.323,1908.984 676.307,1908.888 676.323,1908.729 
			676.371,1908.553 676.227,1908.314 676.084,1908.06 675.957,1907.518 676.005,1907.311 676.02,1907.231 676.068,1907.2 
			676.164,1907.12 676.307,1907.008 676.403,1906.929 676.387,1906.865 676.498,1906.849 676.562,1906.467 676.562,1906.403 
			676.578,1905.655 676.562,1905.081 676.594,1904.412 675.989,1903.998 675.925,1903.791 675.734,1903.648 675.606,1903.393 
			675.606,1903.313 675.543,1902.628 675.431,1901.752 675.511,1901.768 675.479,1901.194 675.431,1901.21 675.065,1900.048 
			675.033,1900.048 674.985,1899.904 674.635,1899.936 674.507,1899.888 674.444,1899.809 674.396,1899.745 674.332,1899.649 
			674.237,1899.49 673.583,1897.292 673.488,1897.085 673.472,1897.005 673.456,1896.91 673.44,1896.75 673.456,1896.591 
			673.488,1896.527 673.552,1896.416 673.759,1896.082 673.791,1896.002 673.806,1895.906 673.822,1895.731 673.822,1895.588 
			673.791,1895.381 673.679,1895.094 673.647,1895.03 673.599,1894.966 673.52,1894.855 673.408,1894.728 674.029,1894.552 
			674.141,1894.728 674.364,1895.126 		"/>
		<polygon style="fill:#376631;" points="993.034,1662.344 992.751,1662.249 992.5,1662.155 992.422,1662.312 990.743,1661.732 
			990.665,1662.093 990.461,1662.061 990.398,1662.171 989.3,1661.842 989.473,1661.041 989.677,1660.037 990.006,1658.045 
			990.524,1655.692 992.359,1655.896 992.783,1654.029 989.677,1653.652 987.967,1653.449 987.528,1652.884 986.696,1652.131 
			986.696,1651.205 986.257,1648.57 985.426,1648.146 985.724,1644.695 986.226,1644.522 986.618,1644.459 988.673,1645.04 
			989.143,1645.118 989.394,1645.15 989.928,1643.769 1000.548,1645.652 999.905,1649.119 999.387,1651.393 999.089,1652.335 
			998.634,1653.449 995.842,1657.747 		"/>
		<polygon style="fill:#376631;" points="946.239,1671.819 945.972,1674.329 945.8,1675.176 945.407,1676.415 944.482,1678.329 
			944.199,1678.125 943.745,1678.753 944.043,1679.02 944.121,1679.067 944.027,1679.255 943.603,1679.365 942.929,1679.459 
			942.976,1678.518 942.992,1678.235 943.682,1678.235 943.854,1675.741 943.87,1675.333 944.67,1674.266 945.062,1673.294 
			945.564,1670.423 946.364,1670.705 		"/>
		<polygon style="fill:#376631;" points="971.103,1679.427 972.766,1680.792 978.162,1685.169 987.465,1692.715 989.332,1694.221 
			987.073,1696.935 982.037,1700.841 974.758,1706.41 973.252,1707.383 967.636,1711.446 965.785,1712.199 963.824,1712.858 
			962.13,1713.235 960.436,1713.329 959.573,1713.266 959.275,1712.356 958.945,1711.917 958.365,1711.682 957.769,1711.415 
			957.063,1710.693 956.388,1709.94 955.494,1709.438 954.804,1708.983 954.098,1708.842 953.377,1708.591 952.639,1708.136 
			952.153,1707.477 951.839,1706.661 951.353,1705.312 950.867,1704.073 950.835,1703.838 950.804,1703.555 950.757,1703.336 
			950.71,1703.116 950.6,1702.786 950.521,1702.598 950.459,1702.441 951.933,1704.496 954.992,1708.575 955.526,1708.293 
			950.914,1702.379 948.733,1698.802 948.717,1698.268 948.874,1697.813 953.816,1691.005 955.541,1688.887 957.267,1687.46 
			957.659,1687.083 958.271,1686.66 959.087,1685.781 959.761,1684.746 960.263,1683.726 960.561,1682.91 960.969,1683.004 
			961.11,1682.675 960.702,1682.534 961.33,1680.745 961.926,1680.855 962.067,1680.337 961.487,1680.228 961.706,1679.459 
			961.848,1678.925 962.255,1677.467 963.699,1677.796 		"/>
		<polygon style="fill:#376631;" points="1004.987,1637.651 1004.987,1637.682 1004.909,1638.09 1004.862,1638.388 
			1004.862,1638.467 1004.862,1638.545 1004.846,1638.624 1004.831,1638.812 1004.831,1638.875 1004.815,1638.937 1004.815,1639 
			1004.721,1639.706 1004.689,1639.941 1003.984,1643.016 1003.936,1645.746 1003.936,1648.397 1004.485,1650.719 1006.07,1654.609 
			1007.639,1657.81 1008.815,1658.939 1008.925,1659.175 1009.019,1659.331 1008.533,1659.63 1007.544,1660.194 1007.309,1659.567 
			1003.529,1650.593 1003.638,1650.389 1003.67,1650.374 1003.811,1650.185 1003.874,1649.354 1003.717,1648.962 1003.513,1648.821 
			1003.152,1648.585 1002.227,1648.083 1002.211,1647.738 1003.246,1642.499 1004.062,1637.651 		"/>
		<polygon style="fill:#376631;" points="956.467,1710.646 957.047,1711.305 957.534,1711.932 957.91,1712.309 958.428,1713.141 
			957.753,1713.078 957.675,1712.874 957.581,1712.638 957.44,1712.482 957.267,1712.309 957.173,1712.215 957.063,1712.089 
			956.906,1711.964 956.702,1711.823 956.687,1711.807 956.216,1711.572 956.137,1711.525 955.981,1711.399 955.855,1711.274 
			955.808,1711.242 955.526,1710.897 955.369,1710.646 955.353,1710.615 955.306,1710.536 955.102,1710.317 954.883,1709.94 
			954.647,1709.548 954.553,1709.454 954.616,1709.469 955.086,1709.642 955.73,1709.972 		"/>
		<polygon style="fill:#376631;" points="960.153,1714.254 961.785,1714.254 962.365,1714.223 963.934,1713.956 964.436,1713.831 
			964.875,1713.674 965.565,1713.423 967.291,1712.591 969.723,1710.991 973.393,1708.418 978.57,1704.402 987.151,1697.735 
			988.688,1695.806 989.645,1694.598 989.692,1694.503 995.356,1698.629 999.058,1701.579 999.199,1701.641 999.356,1701.657 
			999.497,1701.626 999.826,1701.296 999.983,1701.312 1005.882,1704.151 1006.039,1704.23 1006.195,1704.183 1007.748,1700.496 
			1010.462,1701.845 1013.6,1703.006 1013.772,1702.865 1014.149,1702.536 1014.337,1702.426 1015.012,1702.002 1016.094,1697.908 
			1021.208,1699.272 1021.302,1699.257 1021.428,1699.257 1023.514,1692.244 1026.103,1681.891 1025.726,1681.388 
			1025.067,1680.526 1023.263,1678.627 1020.675,1675.913 1017.255,1673.043 1015.325,1672.211 1012.69,1671.678 1011.058,1671.646 
			1009.929,1671.693 1006.18,1670.658 1002.478,1669.576 1001.96,1669.403 1001.536,1669.34 1000.642,1669.45 999.073,1669.513 
			999.497,1668.211 1002.321,1668.446 1003.78,1668.854 1009.176,1670.015 1009.631,1669.905 1010.902,1665.999 1010.933,1665.434 
			1010.807,1665.01 1007.701,1660.571 1008.768,1659.928 1009.223,1659.645 1009.239,1659.677 1009.458,1659.99 1009.6,1660.179 
			1010.321,1661.732 1010.415,1661.889 1010.604,1662.124 1010.98,1662.406 1011.294,1662.673 1011.686,1663.002 1012.282,1663.849 
			1012.282,1663.897 1012.298,1664.116 1012.345,1664.336 1012.455,1664.524 1012.768,1664.634 1012.847,1664.634 
			1013.427,1665.434 1013.459,1665.779 1013.427,1666.093 1013.365,1666.344 1013.286,1666.72 1013.317,1666.893 1013.506,1666.924 
			1013.961,1666.548 1014.07,1666.469 1014.149,1666.438 1014.478,1666.94 1014.463,1667.097 1014.431,1667.222 1014.494,1667.411 
			1014.619,1667.536 1015.027,1667.724 1015.137,1667.881 1015.482,1668.321 1015.608,1668.493 1015.749,1668.681 
			1015.843,1668.807 1015.906,1668.87 1015.969,1668.948 1016.031,1669.026 1016.173,1669.246 1016.251,1669.372 1016.298,1669.45 
			1016.376,1669.544 1016.424,1669.607 1016.455,1669.748 1016.58,1669.921 1016.894,1670.297 1017.224,1670.768 1017.365,1670.94 
			1017.741,1671.458 1017.82,1671.599 1017.882,1671.725 1017.914,1672.039 1018.039,1672.101 1018.196,1672.101 1018.275,1672.148 
			1018.651,1672.541 1018.839,1672.682 1018.933,1672.792 1019.122,1673.027 1019.2,1673.152 1019.216,1673.278 1019.216,1673.45 
			1019.232,1673.529 1019.451,1673.701 1019.53,1673.858 1019.545,1673.921 1019.608,1674.078 1019.781,1674.203 1019.89,1674.235 
			1019.984,1674.298 1020.079,1674.345 1020.439,1674.69 1020.502,1674.753 1020.565,1674.894 1020.612,1675.098 1020.659,1675.145 
			1020.69,1675.208 1020.91,1675.349 1021.208,1675.396 1021.318,1675.427 1021.365,1675.474 1021.553,1676.039 1021.553,1676.259 
			1021.663,1676.463 1021.804,1676.557 1022.102,1676.808 1022.353,1676.917 1022.432,1676.98 1022.494,1677.074 1022.494,1677.168 
			1022.494,1677.419 1022.589,1677.529 1022.667,1677.608 1022.934,1677.639 1023.169,1677.718 1023.294,1677.812 
			1023.404,1677.937 1023.451,1678.016 1023.483,1678.125 1023.483,1678.235 1023.42,1678.439 1023.451,1678.627 1023.593,1678.706 
			1023.828,1678.753 1024.016,1678.831 1024.22,1678.973 1024.502,1679.239 1024.895,1679.788 1025.13,1680.024 1025.349,1680.212 
			1025.459,1680.275 1025.6,1680.322 1025.789,1680.384 1026.071,1680.447 1026.244,1680.541 1026.306,1680.604 1026.369,1680.682 
			1026.448,1680.902 1026.495,1681.028 1026.589,1681.153 1026.871,1681.294 1027.31,1681.42 1027.577,1681.483 1027.671,1681.561 
			1027.703,1681.592 1027.75,1681.702 1027.765,1681.796 1027.844,1681.906 1027.954,1682 1028.252,1682.063 1028.424,1682.188 
			1028.675,1682.298 1029.161,1682.408 1029.726,1682.487 1029.883,1682.534 1030.009,1682.565 1030.071,1682.612 
			1030.134,1682.691 1030.181,1682.722 1030.354,1682.895 1030.464,1682.989 1030.542,1683.067 1030.746,1683.271 1030.84,1683.365 
			1033.256,1685.373 1034.558,1686.691 1035.389,1687.758 1035.938,1688.62 1036.174,1689.17 1036.346,1689.546 1036.801,1690.864 
			1037.962,1695.194 1038.072,1696.511 1038.088,1696.747 1038.229,1698.708 1038.244,1699.037 1038.292,1699.633 1038.339,1700.59 
			1038.354,1700.669 1039.013,1709.705 1039.735,1713.768 1040.331,1717.109 1040.425,1717.486 1040.613,1718.161 
			1040.911,1719.259 1041.303,1720.702 1041.617,1721.926 1041.727,1722.286 1042.009,1723.322 1042.323,1724.498 1042.48,1725.047 
			1042.605,1725.549 1042.637,1726.02 1042.653,1726.302 1042.856,1728.985 1039.468,1726.208 1025.852,1714.709 1021.13,1710.317 
			1017.271,1709.564 1013.741,1709.564 1009.349,1709.783 1005.27,1711.07 1000.877,1712.999 995.418,1716.105 987.7,1720.498 
			984.171,1723.071 980.092,1725.11 974.946,1726.067 972.813,1727.244 971.417,1728.107 967.291,1729.362 965.832,1724.216 
			965.55,1723.73 964.969,1721.549 964.154,1719.337 963.275,1718.129 961.816,1716.074 960.655,1715.007 		"/>
		<polygon style="fill:#376631;" points="965.205,1724.279 965.048,1724.294 964.922,1724.31 964.797,1724.31 964.216,1724.608 
			964.075,1724.608 963.997,1724.608 963.824,1724.546 963.652,1724.467 963.495,1724.341 963.354,1724.169 963.259,1723.965 
			963.181,1723.777 963.15,1723.604 963.118,1723.369 963.103,1723.118 963.134,1722.836 963.165,1722.616 963.181,1722.49 
			963.197,1722.396 963.212,1722.255 963.228,1722.145 963.228,1721.926 963.212,1721.612 963.212,1721.11 963.212,1720.859 
			963.181,1720.498 963.165,1720.404 963.15,1720.121 963.134,1719.902 963.087,1719.525 962.961,1719.133 962.852,1718.929 
			962.663,1718.537 962.459,1718.208 962.177,1717.8 961.926,1717.407 961.785,1717.172 961.597,1716.953 961.424,1716.764 
			961.267,1716.592 961.126,1716.404 961.048,1716.294 960.859,1716.121 960.561,1715.823 960.514,1715.776 960.31,1715.572 
			961.095,1716.121 961.895,1717.031 962.946,1718.38 963.714,1719.572 964.216,1720.828 964.671,1722.741 		"/>
		<polygon style="fill:#376631;" points="941.925,1665.607 942.082,1664.477 942.082,1664.461 942.129,1663.802 942.207,1663.081 
			942.317,1662.061 942.286,1661.857 943.556,1663.159 944.011,1662.579 944.372,1661.889 944.325,1661.026 944.325,1660.524 
			944.749,1659.739 944.749,1658.233 946.709,1657.496 947.258,1657.041 947.353,1656.257 947.4,1655.676 947.525,1654.17 
			947.541,1654.045 947.619,1654.06 948.749,1654.107 948.702,1654.421 948.576,1655.143 948.576,1655.174 949.125,1655.3 
			949.58,1655.41 949.596,1656.304 949.486,1658.625 949.078,1659.943 947.949,1663.599 947.055,1666.642 946.741,1667.771 
			946.427,1670.062 946.364,1670.705 945.564,1670.423 942.333,1669.246 942.223,1669.199 942.207,1669.199 941.925,1669.089 		"/>
		<polygon style="fill:#376631;" points="941.925,1645.542 942.097,1645.369 941.925,1645.369 941.925,1644.522 942.38,1644.193 
			942.411,1643.863 942.49,1643.487 942.756,1642.561 942.882,1642.216 943.023,1641.887 943.29,1641.824 943.556,1641.745 
			943.823,1641.714 944.043,1641.698 944.043,1641.667 949.627,1641.777 949.565,1643.487 949.502,1644.083 949.345,1645.448 
			949.345,1645.464 949.235,1645.354 948.702,1645.385 947.478,1645.746 946.647,1646.326 945.658,1646.217 945.203,1646.232 
			945.235,1647.362 946.615,1647.346 946.333,1650.185 945.156,1650.06 944.89,1652.648 944.843,1653.103 944.701,1652.664 
			944.497,1652.068 944.168,1651.597 943.588,1651.409 942.803,1651.535 942.286,1651.99 942.019,1652.539 942.019,1653.276 
			942.082,1653.417 942.364,1654.107 942.395,1654.17 942.27,1654.202 942.019,1654.233 941.925,1654.249 941.925,1650.107 
			942.38,1650.091 942.411,1649.668 942.474,1648.993 942.521,1648.679 942.568,1648.491 942.678,1648.021 943.039,1647.205 
			943.462,1646.279 942.584,1645.965 941.925,1646.813 		"/>
		<polygon style="fill:#376631;" points="946.367,1533.323 945.599,1532.915 945.661,1532.758 944.736,1532.178 944.516,1532.068 
			944.893,1531.441 943.936,1530.97 943.81,1530.907 943.12,1532.115 942.995,1532.037 942.602,1532.57 942.053,1532.351 
			941.928,1532.194 941.928,1530.06 942.132,1529.809 942.649,1529.48 942.602,1529.558 942.806,1529.448 943.167,1529.135 
			943.591,1528.444 943.999,1527.55 944.25,1526.546 944.438,1525.777 944.485,1525.621 944.705,1525.479 946.54,1525.934 
			945.944,1528.021 947.685,1528.334 947.528,1529.37 947.324,1530.703 947.293,1530.923 947.262,1531.158 947.136,1531.739 
			947.12,1531.786 945.144,1531.284 944.924,1531.88 946.963,1532.476 946.587,1533.323 		"/>
		<polygon style="fill:#376631;" points="1012.567,1533.323 1012.16,1532.178 1017.132,1530.75 1017.368,1529.652 
			1015.674,1527.252 1014.026,1524.899 1013.917,1524.883 1012.693,1524.648 1009.963,1525.981 1009.665,1525.166 
			1009.901,1524.883 1010.042,1524.664 1010.136,1524.522 1010.732,1524.82 1011.422,1524.507 1012.081,1523.989 1012.301,1523.738 
			1012.411,1523.722 1012.724,1523.707 1012.803,1523.707 1013.164,1523.707 1013.43,1523.707 1013.587,1523.738 1013.807,1523.769 
			1013.948,1523.801 1013.995,1523.801 1014.168,1523.848 1014.215,1523.864 1014.356,1523.911 1014.403,1523.926 1014.638,1524.02 
			1014.873,1524.162 1015.391,1524.852 1015.987,1525.323 1018.231,1528.758 1018.309,1529.762 1017.932,1531.849 
			1017.619,1533.135 1017.572,1533.323 		"/>
		<path style="fill:#376631;" d="M956.627,1533.323l-0.11-0.157l-0.11-0.298l-0.173-0.376l-0.063-0.345l-1.506,0.533l-0.016,0.125
			l0.345-5.099l0.047-0.565l0.675-0.643l-0.267-0.267l-0.016-0.016l-0.094-0.125l1.177-0.941l0.753-0.518l0.016-0.016l0.753-0.533
			l0.91-0.565l0.706-0.408l0.016-0.016l0.235,0.471l0.753,1.38l0.251,0.016l0.11,0.016l0.251,0.016l0.878,0.941l0.157,0.173
			l0.69,0.69l0.769,0.816l0.22,0.235H964l-1.318,4.675l-0.031,0.125l-0.282-0.047l-0.204,0.69l-4.33-0.816l-0.847,0.847H956.627z
			 M955.372,1529.244l0.675,0.094l0.125-0.58l-0.69-0.094L955.372,1529.244z"/>
		<polygon style="fill:#376631;" points="946.377,1533.313 945.608,1532.905 945.655,1532.748 944.73,1532.167 944.51,1532.058 
			944.902,1531.43 943.945,1530.96 943.82,1530.897 943.13,1532.105 942.988,1532.026 942.612,1532.56 942.063,1532.34 
			941.608,1531.775 941.498,1531.618 941.451,1531.336 941.435,1531.211 941.373,1530.787 942.126,1529.799 942.659,1529.469 
			942.612,1529.548 942.816,1529.438 943.177,1529.124 943.6,1528.434 944.008,1527.54 944.243,1526.536 944.447,1525.767 
			944.494,1525.61 944.714,1525.469 946.534,1525.924 945.953,1528.01 947.679,1528.324 947.522,1529.359 947.334,1530.693 
			947.302,1530.912 947.255,1531.148 947.13,1531.728 947.13,1531.775 945.153,1531.273 944.934,1531.87 946.973,1532.466 
			946.596,1533.313 		"/>
		<path style="fill:#376631;" d="M956.636,1533.313l-0.11-0.157l-0.11-0.298l-0.188-0.376l-0.047-0.345l-1.506,0.533l-0.031,0.125
			l0.361-5.099l0.031-0.565l0.69-0.643l-0.267-0.267l-0.016-0.016l-0.094-0.125l1.177-0.941l0.753-0.518l0.016-0.016l0.753-0.533
			l0.91-0.565l0.706-0.408l0.016-0.016l0.235,0.471l0.753,1.38l0.235,0.016l0.11,0.016l0.251,0.016l0.878,0.941l0.173,0.173
			l0.69,0.69l0.769,0.816l0.22,0.235l-1.302,4.675l-0.031,0.125l-0.298-0.047l-0.188,0.69l-4.33-0.816l-0.863,0.847H956.636z
			 M955.366,1529.234l0.69,0.094l0.11-0.58l-0.675-0.094L955.366,1529.234z"/>
		<polygon style="fill:#376631;" points="946.971,1532.481 946.548,1533.422 945.606,1532.92 945.653,1532.747 944.728,1532.183 
			944.508,1532.073 944.9,1531.43 943.943,1530.959 943.818,1530.896 943.128,1532.104 942.987,1532.041 942.61,1532.559 
			942.061,1532.355 941.606,1531.79 941.496,1531.634 941.449,1531.351 941.434,1531.226 941.371,1530.802 942.124,1529.798 
			942.657,1529.484 942.61,1529.547 942.814,1529.453 943.175,1529.139 943.598,1528.433 944.006,1527.539 944.242,1526.551 
			944.445,1525.766 944.492,1525.609 944.712,1525.468 946.532,1525.939 945.951,1528.025 947.677,1528.339 947.52,1529.375 
			947.332,1530.708 947.3,1530.912 947.253,1531.163 947.128,1531.743 947.128,1531.79 945.151,1531.288 944.932,1531.869 		"/>
		<polygon style="fill:#376631;" points="961.043,1573.865 963.788,1575.512 964.196,1576.673 964.619,1576.548 965.231,1578.022 
			965.482,1578.728 964.949,1579.513 964.227,1579.544 962.925,1579.481 961.513,1578.916 962.266,1577.395 960.384,1576.783 
			959.348,1576.955 957.858,1576.987 957.544,1576.987 957.293,1576.94 957.607,1576.438 957.764,1576.187 958.14,1576.406 
			958.297,1576.14 958.501,1575.842 958.125,1575.638 959.756,1573.096 		"/>
		<polygon style="fill:#376631;" points="941.92,1665.732 942.077,1664.477 942.077,1664.462 942.139,1663.819 942.202,1663.097 
			942.312,1662.062 942.296,1661.873 943.551,1663.16 944.022,1662.595 944.383,1661.905 944.336,1661.026 944.336,1660.524 
			944.743,1659.755 944.743,1658.234 946.72,1657.496 947.269,1657.041 947.363,1656.257 947.41,1655.692 947.536,1654.186 
			947.552,1654.061 947.614,1654.061 947.63,1654.061 948.744,1654.124 948.712,1654.437 948.587,1655.159 948.571,1655.19 
			949.136,1655.316 949.591,1655.41 949.607,1656.32 949.481,1658.626 949.073,1659.959 947.944,1663.599 947.332,1665.732 		"/>
		<polygon style="fill:#376631;" points="960.697,1586.509 960.305,1587.137 959.929,1586.603 959.521,1587.027 959.599,1587.152 
			959.897,1587.592 959.96,1587.702 959.866,1587.843 959.207,1588.925 960.384,1589.663 956.901,1593.773 956.995,1593.867 
			958.689,1595.075 958.768,1595.106 958.846,1595.106 958.925,1595.059 958.94,1595.043 960.917,1592.769 961.435,1592.439 
			962.141,1592.377 962.219,1592.345 962.627,1592.408 962.658,1592.816 962.674,1593.098 962.611,1593.412 962.486,1593.694 
			962.078,1594.118 961.89,1594.29 961.435,1594.683 961.231,1594.839 959.097,1596.393 959.05,1596.424 958.501,1596.769 
			958.376,1596.832 957.968,1597.036 957.434,1597.208 957.105,1597.302 956.634,1597.318 956.336,1597.318 956.038,1597.287 
			955.536,1597.177 955.144,1597.099 954.768,1596.973 952.587,1596.063 952.618,1596 953.654,1594.039 954.203,1594.306 
			954.501,1593.788 953.795,1593.459 953.842,1593.381 955.474,1590.369 956.744,1590.996 959.207,1586.525 959.568,1585.85 
			960.274,1586.258 		"/>
		<polygon style="fill:#376631;" points="964.023,1588.47 964.917,1588.988 965.529,1589.725 966.439,1591.043 966.533,1591.357 
			966.439,1591.78 966.109,1592.408 965.953,1592.91 965.749,1593.537 965.498,1594.322 965.419,1594.887 965.341,1595.2 
			965.247,1595.593 965.058,1595.624 964.745,1596.063 964.415,1596.565 964.18,1596.455 963.505,1597.601 963.725,1597.742 
			963.38,1598.181 962.768,1597.804 958.391,1598.793 958.203,1598.808 958.031,1599.248 957.968,1599.42 954.313,1597.93 
			954.046,1597.899 954.015,1596.926 952.917,1596.518 952.477,1596.361 952.524,1596.236 954.705,1597.146 955.081,1597.271 
			955.097,1597.287 955.505,1597.35 956.007,1597.475 956.321,1597.506 956.336,1597.506 956.634,1597.506 957.121,1597.491 
			957.121,1597.475 957.136,1597.475 957.482,1597.397 957.497,1597.397 958.031,1597.208 958.046,1597.208 958.47,1597.004 
			958.486,1596.989 959.191,1596.534 961.341,1594.996 961.356,1594.996 962.203,1594.259 962.643,1593.82 962.643,1593.804 
			962.658,1593.788 962.784,1593.475 962.784,1593.459 962.862,1593.13 962.862,1593.114 962.847,1592.8 962.831,1592.643 
			962.894,1592.722 962.737,1590.353 960.98,1588.941 960.384,1589.663 959.207,1588.925 959.866,1587.843 959.96,1587.702 
			960.18,1587.356 960.337,1587.215 960.352,1587.2 960.305,1587.137 960.697,1586.509 961.027,1586.713 961.796,1587.152 
			962.784,1587.733 		"/>
		<path style="fill:#376631;" d="M963.992,1527.853l-1.302,4.659l-0.031,0.141l-0.298-0.063l-0.188,0.706l-4.33-0.831l-1.051,1.051
			l-0.267-0.345l-0.11-0.298l-0.188-0.377l-0.047-0.345l-1.506,0.533l-0.031,0.125l0.361-5.114l0.031-0.549l0.69-0.643l-0.267-0.267
			l-0.016-0.016l-0.094-0.125l1.177-0.957l0.753-0.502l0.016-0.016l0.753-0.533l0.91-0.58l0.706-0.408l0.016-0.016l0.235,0.486
			l0.753,1.365l0.235,0.031h0.11l0.251,0.031l0.878,0.941l0.173,0.173l0.69,0.69l0.769,0.816L963.992,1527.853L963.992,1527.853z
			 M955.364,1529.249l0.69,0.094l0.11-0.596l-0.675-0.078L955.364,1529.249z"/>
		<path style="fill:#376631;" d="M949.497,1644.083l-0.141,1.365v0.031l-0.11-0.125l-0.533,0.031l-1.224,0.361l-0.016,0.016
			l-0.816,0.565l-0.988-0.094l-0.455,0.016l0.031,1.13l1.38-0.016l-0.282,2.824l-1.177-0.11l-0.267,2.588l-0.047,0.455l-0.157-0.439
			l-0.204-0.596l-0.314-0.486l-0.596-0.173l-0.769,0.11l-0.533,0.455l-0.251,0.549v0.737l0.047,0.141l0.298,0.69l0.031,0.063
			l-0.141,0.031l-0.235,0.047l-0.298,0.016l-0.533-0.031l-1.145-0.094v-0.016v-0.377v-0.141l0.173-2.777l0.031-0.565l0.094-1.475
			l0.047-0.988l0.031-0.188l0.063-0.69l1.286-1.224l0.329-0.314h-0.502l-0.596-0.22l1.365-0.957l0.031-0.345l0.078-0.361
			l0.282-0.926l0.125-0.345l0.125-0.329l0.267-0.078l0.282-0.063l0.267-0.047h0.22v-0.031l5.585,0.094l-0.063,1.71L949.497,1644.083
			z M941.12,1648.209l-0.063,1.93h0.047l1.271-0.031l0.031-0.439l0.063-0.675l0.063-0.298l0.047-0.188l0.11-0.486l0.361-0.8
			l0.408-0.941l-0.878-0.298l-1.177,1.522l-0.11,0.22l-0.157,0.329L941.12,1648.209z"/>
		<polygon style="fill:#376631;" points="993.037,1662.339 992.755,1662.245 992.504,1662.167 992.425,1662.308 990.747,1661.743 
			990.668,1662.104 990.464,1662.057 990.402,1662.167 989.304,1661.837 989.476,1661.037 989.68,1660.049 990.009,1658.041 
			990.527,1655.703 992.363,1655.892 992.786,1654.025 989.68,1653.648 987.97,1653.444 987.531,1652.88 986.699,1652.142 
			986.699,1651.201 986.26,1648.566 985.429,1648.158 985.727,1644.706 986.229,1644.518 986.621,1644.471 988.676,1645.052 
			989.147,1645.114 989.398,1645.146 989.931,1643.765 999.657,1645.491 1000.551,1645.648 1000.253,1647.311 999.908,1649.115 
			999.39,1651.389 999.092,1652.331 998.637,1653.444 995.845,1657.743 		"/>
		<polygon style="fill:#376631;" points="1021.243,1551.537 1021.462,1552.807 1022.153,1559.349 1022.309,1561.153 
			1022.953,1564.667 1023.69,1570.566 1025.18,1577.061 1025.18,1577.108 1025.055,1578.692 1025.023,1578.943 1025.008,1579.163 
			1024.992,1579.383 1024.961,1579.587 1024.945,1579.759 1024.914,1579.947 1024.882,1580.355 1024.866,1580.418 
			1024.866,1580.434 1024.788,1580.936 1024.741,1581.234 1024.678,1581.579 1024.631,1581.861 1024.615,1582.049 
			1024.615,1582.065 1024.615,1582.128 1024.615,1582.206 1024.615,1582.269 1024.615,1582.285 1024.615,1582.332 
			1024.317,1583.807 1024.286,1583.948 1024.286,1583.963 1024.176,1584.34 1024.129,1584.497 1024.114,1584.575 1024.082,1584.669 
			1024.066,1584.763 1024.004,1585.109 1023.972,1585.218 1023.941,1585.438 1023.863,1585.83 1023.815,1586.003 1023.784,1586.16 
			1023.674,1586.552 1023.549,1587.038 1023.486,1587.258 1023.408,1587.54 1023.392,1587.587 1023.392,1587.619 1023.376,1587.713 
			1023.361,1587.713 1023.313,1587.807 1023.251,1587.917 1023.204,1588.121 1023.172,1588.34 1023.141,1588.481 1023.094,1588.764 
			1023.078,1588.936 1023.062,1588.952 1023.062,1588.968 1023.047,1588.983 1022.953,1588.968 1022.89,1589.187 1022.859,1589.313 
			1022.827,1589.407 1022.67,1590.113 1022.623,1590.238 1022.529,1590.615 1022.419,1591.023 1022.404,1591.07 1022.388,1591.164 
			1022.372,1591.18 1022.357,1591.258 1022.357,1591.305 1022.074,1592.027 1021.933,1592.356 1021.164,1594.145 1019.282,1597.988 
			1018.607,1599.369 1018.529,1599.51 1018.513,1599.51 1018.435,1599.635 1018.356,1599.761 1018.043,1600.263 1018.011,1600.373 
			1017.792,1600.734 1017.697,1600.828 1017.682,1600.859 1017.666,1600.922 1017.588,1601.047 1013.321,1599.212 1014.403,1596.89 
			1016.584,1592.246 1017.368,1590.113 1017.87,1588.717 1018.372,1587.226 1018.858,1585.532 1019.345,1583.257 1019.533,1581.5 
			1019.58,1580.496 1019.58,1579.806 1019.549,1578.802 1019.329,1576.747 1019.141,1575.508 1018.105,1568.48 1017.603,1565.201 
			1017.541,1564.84 1016.944,1559.694 1016.537,1556.541 1016.395,1555.114 1015.972,1551.019 1017.07,1551.176 1019.345,1551.458 
					"/>
		<polygon style="fill:#376631;" points="941.928,1530.06 942.132,1529.794 942.65,1529.48 942.603,1529.543 942.807,1529.448 
			943.167,1529.135 943.591,1528.429 943.999,1527.535 944.25,1526.546 944.438,1525.762 944.485,1525.605 944.705,1525.464 
			946.54,1525.934 945.944,1528.021 947.685,1528.335 947.528,1529.37 947.324,1530.703 947.293,1530.907 947.262,1531.158 
			947.136,1531.739 947.121,1531.786 945.144,1531.284 944.924,1531.864 946.964,1532.476 946.556,1533.417 945.599,1532.915 
			945.662,1532.743 944.736,1532.178 944.516,1532.068 944.893,1531.425 943.936,1530.954 943.811,1530.892 943.12,1532.1 
			942.995,1532.037 942.603,1532.555 942.054,1532.351 941.928,1532.194 		"/>
		<path style="fill:#376631;" d="M964,1527.848l-1.318,4.659l-0.031,0.141l-0.282-0.063l-0.204,0.706l-4.33-0.831l-1.051,1.051
			l-0.267-0.345l-0.11-0.298l-0.173-0.377l-0.063-0.345l-1.506,0.533l-0.016,0.125l0.345-5.114l0.047-0.549l0.674-0.643
			l-0.267-0.267l-0.016-0.016l-0.094-0.125l1.177-0.957l0.753-0.502l0.016-0.016l0.753-0.533l0.91-0.58l0.706-0.408l0.016-0.016
			l0.235,0.486l0.753,1.365l0.251,0.031h0.11l0.251,0.031l0.878,0.941l0.157,0.173l0.69,0.69l0.769,0.816l0.22,0.235H964z
			 M955.372,1529.245l0.674,0.094l0.126-0.596l-0.69-0.078L955.372,1529.245z"/>
		<polygon style="fill:#376631;" points="1011.548,1614.335 1011.454,1614.492 1011.203,1615.245 1011.015,1615.809 
			1010.858,1616.249 1010.811,1616.39 1010.466,1617.441 1010.277,1618.021 1010.199,1618.288 1010.058,1618.696 1010.011,1618.853 
			1009.901,1619.151 1009.524,1620.343 1009.415,1620.641 1009.242,1621.128 1009.069,1621.614 1008.85,1622.085 1008.771,1622.304 
			1008.677,1622.696 1008.505,1623.308 1008.316,1624.03 1008.081,1624.893 1007.987,1625.238 1007.516,1627.058 1007.438,1627.434 
			1007.25,1628.234 1007.171,1628.564 1007.171,1628.595 1006.967,1629.395 1006.685,1630.603 1006.45,1631.654 1006.387,1631.968 
			1006.261,1632.391 1006.042,1633.192 1005.603,1635.231 1005.383,1636 1005.132,1637.066 1004.991,1637.694 1004.912,1638.086 
			1004.865,1638.4 1004.865,1638.478 1004.865,1638.541 1004.865,1638.557 1004.85,1638.635 1004.834,1638.808 1004.834,1638.87 
			1004.818,1638.949 1004.818,1639.012 1004.724,1639.718 1004.693,1639.953 1003.987,1643.012 1003.94,1645.757 1003.94,1648.393 
			1004.489,1650.715 1006.073,1654.621 1007.642,1657.821 1008.818,1658.951 1008.928,1659.17 1009.022,1659.343 1008.536,1659.625 
			1007.548,1660.206 1007.312,1659.563 1003.532,1650.605 1003.642,1650.401 1003.673,1650.37 1003.814,1650.197 1003.877,1649.366 
			1003.72,1648.973 1003.516,1648.817 1003.155,1648.581 1002.23,1648.095 1002.214,1647.734 1003.25,1642.51 1004.332,1636.062 
			1004.708,1634.101 1008.113,1616.453 1008.693,1614.037 1010.497,1614.225 		"/>
		<polygon style="fill:#376631;" points="1010.921,1665.728 1010.936,1665.446 1010.811,1665.022 1007.705,1660.582 
			1008.771,1659.923 1009.226,1659.657 1009.242,1659.672 1009.462,1660.002 1009.603,1660.175 1010.324,1661.728 1010.419,1661.9 
			1010.607,1662.135 1010.983,1662.402 1011.297,1662.669 1011.689,1663.014 1012.285,1663.861 1012.285,1663.908 
			1012.301,1664.128 1012.348,1664.332 1012.458,1664.536 1012.772,1664.63 1012.85,1664.646 1013.43,1665.43 1013.462,1665.728 		
			"/>
		<polygon style="fill:#376631;" points="961.035,1573.86 963.78,1575.508 964.188,1576.669 964.612,1576.543 965.239,1578.018 
			965.475,1578.724 964.957,1579.508 964.235,1579.539 962.918,1579.477 961.506,1578.912 962.259,1577.39 960.376,1576.778 
			959.357,1576.951 957.866,1576.982 957.537,1576.982 957.286,1576.935 957.615,1576.433 957.772,1576.182 958.133,1576.402 
			958.306,1576.135 958.494,1575.837 958.117,1575.633 959.749,1573.092 		"/>
		<polygon style="fill:#376631;" points="941.928,1665.618 942.085,1664.473 942.085,1664.457 942.132,1663.814 942.21,1663.092 
			942.32,1662.057 942.289,1661.869 943.56,1663.155 944.015,1662.59 944.375,1661.9 944.328,1661.022 944.328,1660.52 
			944.752,1659.751 944.752,1658.229 946.713,1657.492 947.262,1657.037 947.356,1656.253 947.403,1655.688 947.528,1654.182 
			947.544,1654.056 947.623,1654.056 948.752,1654.119 948.705,1654.433 948.579,1655.154 948.579,1655.186 949.129,1655.311 
			949.583,1655.405 949.599,1656.315 949.489,1658.621 949.081,1659.955 947.952,1663.594 947.324,1665.728 941.928,1665.728 		"/>
		<polygon style="fill:#376631;" points="1020.945,1549.748 1021.149,1550.988 1016.427,1550.454 1015.925,1550.501 
			1015.925,1550.454 1015.925,1550.439 1015.893,1550.031 1015.58,1545.481 1015.391,1542.516 1018.968,1542.14 1019.282,1543.112 
			1020.066,1546.03 		"/>
		<polygon style="fill:#376631;" points="1014.638,1524.005 1014.874,1524.146 1015.391,1524.852 1015.987,1525.323 
			1018.231,1528.758 1018.309,1529.746 1017.933,1531.833 1017.619,1533.119 1016.992,1535.833 1017.603,1539.034 
			1018.309,1540.477 1015.25,1541.481 1015.078,1540.634 1013.807,1536.79 1012.16,1532.178 1017.133,1530.75 1017.368,1529.652 
			1015.674,1527.236 1014.027,1524.899 1013.917,1524.883 1012.693,1524.648 1009.964,1525.981 1009.666,1525.15 1009.901,1524.868 
			1010.042,1524.664 1010.136,1524.522 1010.732,1524.821 1011.423,1524.507 1012.081,1523.973 1012.301,1523.738 
			1012.411,1523.722 1012.725,1523.707 1012.803,1523.707 1013.164,1523.691 1013.43,1523.707 1013.587,1523.722 1013.807,1523.754 
			1013.948,1523.785 1013.995,1523.801 1014.168,1523.848 1014.215,1523.864 1014.356,1523.911 1014.403,1523.911 		"/>
		<polygon style="fill:#376631;" points="960.69,1586.505 960.298,1587.132 959.937,1586.599 959.513,1587.022 959.608,1587.148 
			959.89,1587.587 959.968,1587.697 959.874,1587.838 959.215,1588.921 960.376,1589.658 956.894,1593.768 956.988,1593.862 
			958.698,1595.07 958.76,1595.102 958.855,1595.102 958.917,1595.055 958.933,1595.039 960.925,1592.764 961.443,1592.435 
			962.149,1592.372 962.227,1592.341 962.62,1592.403 962.667,1592.811 962.682,1593.094 962.604,1593.407 962.494,1593.69 
			962.07,1594.113 961.882,1594.286 961.427,1594.678 961.223,1594.835 959.09,1596.388 959.043,1596.419 958.494,1596.765 
			958.384,1596.827 957.96,1597.031 957.427,1597.204 957.098,1597.298 956.627,1597.314 956.329,1597.314 956.031,1597.282 
			955.529,1597.172 955.137,1597.094 954.776,1596.969 952.595,1596.059 952.611,1595.996 953.646,1594.035 954.211,1594.302 
			954.494,1593.784 953.788,1593.454 953.835,1593.376 955.482,1590.364 956.737,1590.991 959.2,1586.521 959.576,1585.846 
			960.282,1586.254 		"/>
		<polygon style="fill:#376631;" points="964.031,1588.466 964.91,1588.983 965.537,1589.721 966.432,1591.039 966.541,1591.352 
			966.432,1591.776 966.102,1592.403 965.945,1592.905 965.757,1593.533 965.49,1594.317 965.412,1594.882 965.333,1595.196 
			965.239,1595.588 965.051,1595.619 964.753,1596.059 964.408,1596.561 964.173,1596.451 963.514,1597.596 963.718,1597.737 
			963.373,1598.176 962.761,1597.8 958.4,1598.788 958.211,1598.804 958.023,1599.243 957.96,1599.416 954.321,1597.925 
			954.039,1597.894 954.007,1596.922 952.925,1596.514 952.47,1596.357 952.517,1596.231 954.698,1597.141 954.713,1597.141 
			955.09,1597.267 955.09,1597.282 955.498,1597.345 956,1597.471 956.313,1597.502 956.329,1597.502 956.627,1597.502 
			956.643,1597.502 957.113,1597.486 957.129,1597.471 957.49,1597.392 958.023,1597.204 958.039,1597.204 958.462,1597 
			958.478,1596.984 959.184,1596.529 959.2,1596.529 961.349,1594.992 962.196,1594.255 962.212,1594.255 962.635,1593.815 
			962.651,1593.8 962.651,1593.784 962.776,1593.47 962.776,1593.454 962.855,1593.125 962.855,1593.109 962.855,1592.796 
			962.839,1592.639 962.886,1592.717 962.745,1590.348 960.988,1588.936 960.376,1589.658 959.215,1588.921 959.874,1587.838 
			959.968,1587.697 960.172,1587.352 960.329,1587.211 960.345,1587.195 960.298,1587.132 960.69,1586.505 961.035,1586.709 
			961.804,1587.148 962.776,1587.728 		"/>
		<polygon style="fill:#376631;" points="941.928,1645.538 942.101,1645.381 941.928,1645.381 941.928,1644.518 942.383,1644.204 
			942.414,1643.859 942.493,1643.498 942.76,1642.573 942.885,1642.228 943.026,1641.898 943.293,1641.82 943.56,1641.757 
			943.826,1641.71 944.046,1641.71 944.046,1641.679 949.63,1641.773 949.568,1643.483 949.505,1644.079 949.348,1645.444 
			949.348,1645.475 949.238,1645.35 948.705,1645.381 947.481,1645.742 947.481,1645.757 946.65,1646.322 945.662,1646.228 
			945.207,1646.244 945.238,1647.373 946.619,1647.358 946.336,1650.181 945.16,1650.072 944.893,1652.66 944.846,1653.115 
			944.705,1652.676 944.501,1652.08 944.171,1651.593 943.591,1651.421 942.807,1651.531 942.289,1651.985 942.022,1652.535 
			942.022,1653.272 942.085,1653.413 942.367,1654.103 942.399,1654.166 942.273,1654.198 942.022,1654.245 941.928,1654.245 
			941.928,1650.103 942.383,1650.103 942.414,1649.664 942.477,1648.989 942.524,1648.691 942.571,1648.503 942.681,1648.016 
			943.042,1647.216 943.465,1646.275 942.587,1645.977 941.928,1646.824 		"/>
		<polygon style="fill:#376631;" points="946.244,1671.816 945.978,1674.326 945.789,1675.173 945.413,1676.412 944.487,1678.326 
			944.205,1678.122 943.75,1678.75 944.048,1679.016 944.126,1679.063 944.032,1679.251 943.593,1679.361 942.934,1679.455 
			942.981,1678.514 942.997,1678.232 943.672,1678.232 943.844,1675.737 943.875,1675.33 944.676,1674.263 945.068,1673.29 
			945.554,1670.419 946.37,1670.702 		"/>
		<polygon style="fill:#376631;" points="973.901,1706.956 973.242,1707.38 967.626,1711.443 965.79,1712.196 963.83,1712.855 
			962.135,1713.231 960.441,1713.325 959.578,1713.263 959.28,1712.353 958.935,1711.913 958.355,1711.678 957.759,1711.411 
			957.053,1710.69 956.394,1709.937 955.484,1709.435 954.809,1708.98 954.088,1708.839 953.366,1708.588 952.645,1708.133 
			952.158,1707.474 951.845,1706.658 951.358,1705.309 950.872,1704.069 950.841,1703.834 950.794,1703.552 950.762,1703.332 
			950.715,1703.113 950.605,1702.783 950.527,1702.595 950.464,1702.438 951.939,1704.493 954.998,1708.572 955.531,1708.29 
			950.919,1702.375 948.739,1698.798 948.707,1698.265 948.88,1697.81 953.805,1691.002 955.547,1688.884 957.272,1687.456 
			957.664,1687.08 958.276,1686.656 959.092,1685.778 959.751,1684.742 960.269,1683.722 960.567,1682.907 960.959,1683.001 
			961.116,1682.671 960.692,1682.53 961.335,1680.742 961.931,1680.852 962.073,1680.334 961.492,1680.224 961.696,1679.455 
			961.853,1678.922 962.245,1677.463 963.704,1677.792 971.108,1679.424 972.771,1680.789 973.901,1681.714 		"/>
		<polygon style="fill:#376631;" points="956.457,1710.643 957.053,1711.302 957.523,1711.929 957.9,1712.306 958.417,1713.137 
			957.743,1713.074 957.68,1712.87 957.57,1712.635 957.429,1712.478 957.272,1712.306 957.178,1712.211 957.068,1712.086 
			956.912,1711.96 956.708,1711.819 956.676,1711.804 956.221,1711.568 956.143,1711.521 955.97,1711.396 955.845,1711.27 
			955.813,1711.239 955.515,1710.894 955.359,1710.643 955.359,1710.611 955.296,1710.533 955.092,1710.313 954.888,1709.937 
			954.637,1709.545 954.558,1709.45 954.621,1709.466 955.092,1709.639 955.719,1709.968 		"/>
		<polygon style="fill:#376631;" points="973.901,1726.644 972.803,1727.24 971.422,1728.103 967.281,1729.358 965.822,1724.213 
			965.555,1723.726 964.975,1721.546 964.159,1719.334 963.281,1718.126 961.806,1716.071 960.661,1715.004 960.159,1714.251 
			961.79,1714.251 962.371,1714.219 963.939,1713.953 964.426,1713.827 964.865,1713.67 965.571,1713.419 967.281,1712.588 
			969.728,1710.988 973.399,1708.415 973.901,1708.023 		"/>
		<polygon style="fill:#376631;" points="965.21,1724.275 965.038,1724.291 964.912,1724.307 964.802,1724.307 964.206,1724.605 
			964.081,1724.605 964.002,1724.605 963.814,1724.542 963.641,1724.464 963.484,1724.338 963.359,1724.166 963.265,1723.962 
			963.186,1723.773 963.155,1723.601 963.124,1723.365 963.092,1723.114 963.124,1722.832 963.171,1722.612 963.186,1722.487 
			963.202,1722.393 963.218,1722.252 963.218,1722.142 963.218,1721.922 963.218,1721.608 963.218,1721.106 963.202,1720.855 
			963.186,1720.495 963.171,1720.401 963.155,1720.118 963.139,1719.898 963.077,1719.522 962.967,1719.13 962.841,1718.926 
			962.653,1718.534 962.449,1718.204 962.167,1717.796 961.931,1717.404 961.775,1717.169 961.602,1716.949 961.414,1716.761 
			961.273,1716.588 961.131,1716.4 961.053,1716.29 960.865,1716.118 960.567,1715.82 960.52,1715.773 960.316,1715.569 
			961.084,1716.118 961.884,1717.028 962.935,1718.377 963.72,1719.569 964.222,1720.824 964.661,1722.738 		"/>
		<polygon style="fill:#376631;" points="948.739,1654.104 948.707,1654.418 948.582,1655.139 948.566,1655.171 949.131,1655.296 
			949.586,1655.406 949.601,1656.3 949.476,1658.622 949.068,1659.94 947.938,1663.595 947.06,1666.639 946.746,1667.768 
			946.432,1670.058 946.37,1670.702 945.554,1670.419 942.338,1669.243 942.213,1669.196 941.491,1668.929 941.444,1668.913 
			941.507,1668.709 941.522,1668.678 941.899,1665.839 942.071,1664.474 942.071,1664.458 942.134,1663.799 942.197,1663.077 
			942.307,1662.058 942.291,1661.854 943.546,1663.156 944.017,1662.575 944.378,1661.885 944.33,1661.022 944.33,1660.52 
			944.738,1659.736 944.738,1658.23 946.715,1657.493 947.264,1657.038 947.358,1656.253 947.405,1655.673 947.531,1654.167 
			947.546,1654.041 947.609,1654.057 947.625,1654.057 		"/>
		<path style="fill:#376631;" d="M949.492,1644.079l-0.141,1.365v0.016l-0.11-0.11l-0.533,0.031l-1.224,0.361h-0.016l-0.816,0.58
			l-0.988-0.11l-0.455,0.016l0.031,1.13l1.38-0.016l-0.282,2.839l-1.177-0.125l-0.267,2.589l-0.047,0.455l-0.157-0.439l-0.204-0.596
			l-0.314-0.471l-0.596-0.188l-0.769,0.125l-0.533,0.455l-0.251,0.549v0.737l0.047,0.141l0.298,0.69l0.031,0.063l-0.141,0.031
			l-0.235,0.031l-0.298,0.031l-0.533-0.031l-1.145-0.11v-0.016v-0.361v-0.157l0.172-2.761l0.031-0.565l0.094-1.49l0.047-0.988
			l0.031-0.173l0.063-0.69l1.286-1.239l0.329-0.314h-0.502l-0.596-0.204l1.365-0.973l0.031-0.329l0.078-0.376l0.282-0.926
			l0.125-0.345l0.126-0.329l0.267-0.063l0.282-0.078l0.267-0.031l0.22-0.016v-0.031l5.585,0.11l-0.063,1.71L949.492,1644.079z
			 M941.114,1648.205l-0.063,1.93h0.047l1.271-0.047l0.031-0.423l0.063-0.675l0.063-0.314l0.047-0.188l0.11-0.471l0.361-0.816
			l0.408-0.926l-0.878-0.314l-1.177,1.537l-0.11,0.204l-0.157,0.345L941.114,1648.205z"/>
		<polygon style="fill:#376631;" points="915.91,1807.123 916.294,1807.235 916.471,1807.235 916.727,1807.155 917.481,1808.951 
			902.215,1813.954 902.103,1813.665 902.039,1813.489 901.83,1812.96 901.574,1812.286 901.301,1811.581 900.964,1810.715 
			900.948,1810.667 900.788,1810.218 900.74,1810.105 900.66,1809.897 901.83,1810.33 902.6,1810.394 903.017,1810.426 
			903.594,1810.298 904.091,1810.057 904.38,1809.849 904.957,1809.335 905.326,1809.143 905.823,1808.902 908.854,1807.732 
			911.436,1806.834 912.077,1806.481 913.2,1805.519 913.424,1805.391 913.536,1805.31 913.793,1805.31 914.194,1805.583 
			914.563,1806.032 		"/>
		<polygon style="fill:#376631;" points="923.366,1794.021 925.916,1800.965 915.733,1804.797 916.519,1806.657 916.262,1806.657 
			916.054,1806.641 915.861,1806.497 914.755,1805.246 914.049,1804.701 913.889,1804.653 913.6,1804.621 913.408,1804.605 
			913.103,1804.781 912.173,1805.679 911.468,1806.305 910.987,1806.625 910.602,1806.85 910.041,1807.09 909.511,1807.187 
			908.726,1807.427 907.523,1807.924 906.24,1808.261 905.583,1808.534 903.61,1809.672 903.161,1809.768 902.792,1809.768 
			902.504,1809.785 901.862,1809.752 900.435,1809.335 900.243,1808.87 900.195,1808.758 900.307,1808.71 900.419,1808.63 
			900.563,1808.486 900.644,1808.325 900.692,1808.213 900.708,1808.117 900.724,1808.036 900.724,1807.988 900.724,1807.892 
			900.692,1807.78 900.66,1807.636 900.612,1807.491 900.483,1807.123 900.467,1807.106 900.243,1806.497 899.922,1805.679 
			899.746,1805.214 899.714,1805.086 899.665,1805.006 899.649,1805.326 900.114,1806.77 899.938,1807.123 899.345,1806.08 
			897.645,1801.686 898.559,1801.43 898.88,1802.392 912.366,1796.956 912.799,1797.95 921.875,1794.358 923.27,1793.764 		"/>
		<polygon style="fill:#376631;" points="920.24,1767.032 920.08,1769.004 920.031,1769.694 919.165,1769.485 918.155,1769.389 
			918.235,1768.731 918.492,1766.743 920.208,1767.032 		"/>
		<polygon style="fill:#376631;" points="923.479,1759.703 922.95,1763.488 921.875,1763.279 922.02,1762.91 919.615,1761.836 
			919.759,1761.419 920.545,1760.104 920.769,1759.639 920.929,1759.27 		"/>
		<path style="fill:#376631;" d="M898.095,1801.574l0.465-0.128l0.048,0.128H898.095z M900.933,1801.574l11.433-4.618l0.433,0.994
			l9.076-3.592l1.395-0.593l0.096,0.256l2.55,6.944l-1.604,0.609H900.933z"/>
		<polygon style="fill:#376631;" points="954.396,1739.626 933.325,1750.482 928.659,1752.775 926.077,1754.924 930.166,1755.021 
			930.15,1755.277 925.804,1755.149 925.419,1755.149 925.371,1755.518 924.986,1758.115 923.142,1757.586 923.223,1755.133 
			923.11,1754.7 923.11,1754.684 923.014,1751.348 924.586,1743.859 925.003,1742.448 927.696,1743.49 929.027,1743.49 
			932.219,1742.4 942.562,1737.653 965.829,1726.348 967.545,1731.415 		"/>
		<polygon style="fill:#376631;" points="942.109,1737.855 942.558,1737.646 965.826,1726.341 967.542,1731.408 954.409,1739.619 
			942.109,1745.953 		"/>
		<polygon style="fill:#376631;" points="848.939,1531.057 847.463,1526.981 847.944,1527.479 848.137,1527.591 849.693,1528.586 
			851.025,1529.276 852.373,1529.789 853.191,1530.014 853.737,1530.014 854.635,1529.821 855.133,1529.645 855.277,1529.613 
			855.951,1529.5 856.127,1529.5 856.336,1529.548 856.432,1529.613 856.528,1529.629 856.753,1529.741 856.833,1529.757 
			856.946,1529.757 856.978,1529.725 857.01,1529.484 857.042,1529.436 857.106,1529.388 857.234,1529.34 857.86,1529.276 
			858.213,1529.276 858.422,1529.26 858.999,1529.115 859.16,1529.083 859.978,1529.003 860.861,1528.907 860.877,1528.907 
			860.989,1529.019 861.085,1529.083 861.23,1529.564 861.262,1529.661 861.262,1529.693 857.989,1530.511 855.678,1531.057 		"/>
		<polygon style="fill:#376631;" points="819.818,1516.84 819.577,1516.856 819.288,1516.744 819.015,1516.006 818.871,1515.557 
			818.726,1515.252 818.614,1515.123 818.438,1515.011 817.972,1514.851 816.721,1514.305 816.769,1514.273 816.961,1514.129 
			817.17,1513.952 817.475,1513.727 817.684,1513.567 818.101,1513.246 818.47,1512.973 818.646,1512.845 818.791,1512.717 
			819.4,1512.267 819.753,1516.279 		"/>
		<polygon style="fill:#376631;" points="824.647,1514.658 823.941,1515.091 823.46,1515.075 823.01,1514.626 822.481,1513.551 
			822.449,1511.979 823.01,1510.374 823.604,1509.219 823.62,1509.203 823.973,1508.946 824.519,1508.561 824.952,1508.272 
			825.273,1508.047 825.754,1507.694 826.027,1507.502 826.316,1507.293 826.476,1507.229 827.583,1506.988 828.081,1507.245 
			828.321,1508.208 828.081,1509.62 827.551,1510.919 827.118,1512.299 826.187,1513.407 		"/>
		<polygon style="fill:#376631;" points="820.267,1516.808 819.914,1511.898 820.315,1511.593 820.844,1511.224 820.909,1511.176 
			820.748,1512.059 820.716,1513.631 820.876,1515.412 820.892,1516.182 820.828,1516.584 820.62,1516.744 820.443,1516.76 		"/>
		<polygon style="fill:#376631;" points="874.804,1525.296 874.178,1525.296 874.017,1525.232 873.969,1524.959 874.034,1524.703 
			874.226,1524.414 874.242,1524.061 874.354,1523.082 874.804,1521.638 874.932,1521.413 875.028,1521.381 875.092,1521.381 
			875.205,1521.493 875.301,1521.638 875.365,1521.991 875.686,1522.777 876.007,1523.226 876.248,1523.644 876.569,1524.093 
			876.665,1524.382 876.633,1524.622 876.135,1524.911 875.51,1525.152 		"/>
		<polygon style="fill:#376631;" points="833.889,1512.492 834.483,1514.064 834.739,1513.679 834.483,1514.064 834.723,1514.754 
			834.226,1515.075 834.21,1515.075 829.477,1518.092 829.043,1516.856 829.99,1516.311 832.509,1512.524 833.023,1510.903 
			833.071,1510.855 833.119,1510.791 833.151,1510.518 833.151,1510.502 833.231,1510.262 833.536,1511.064 		"/>
		<polygon style="fill:#376631;" points="845.457,1531.057 843.757,1526.981 843.5,1526.355 843.355,1526.002 840.564,1519.279 
			840.483,1519.087 837.724,1512.155 837.595,1512.203 834.146,1503.972 837.098,1503.298 837.082,1503.282 837.579,1503.057 
			838.205,1502.784 838.317,1502.736 838.317,1502.752 842.714,1514.947 843.179,1516.295 848.41,1531.057 		"/>
		<polygon style="fill:#376631;" points="860.812,1501.677 862.898,1504.405 863.973,1505.32 866.573,1508.561 874.21,1519.472 
			874.547,1520.162 874.563,1520.675 874.483,1521.317 873.44,1524.478 872.573,1525.312 869.477,1526.099 864.037,1527.35 
			861.727,1527.575 858.117,1527.751 855.806,1528.682 854.282,1529.163 853.207,1529.099 851.266,1528.553 848.907,1527.029 
			848.362,1526.371 847.479,1522.809 845.634,1517.964 842.393,1509.652 840.628,1505.175 840.499,1504.229 840.66,1503.266 
			841.061,1502.56 841.173,1502.431 844.254,1502.239 852.164,1501.741 852.501,1501.966 853.801,1502.335 856.528,1502.399 
			859.08,1502.094 		"/>
		<polygon style="fill:#376631;" points="862.369,1529.42 862.273,1529.436 862.256,1529.404 862.24,1529.356 862.224,1529.244 
			862.208,1529.147 862.192,1529.019 862.353,1528.634 862.882,1528.393 872.525,1526.339 876.103,1525.585 876.938,1525.264 
			877.114,1525.2 877.21,1525.072 877.483,1524.751 877.531,1524.221 877.226,1523.387 873.969,1517.883 862.032,1501.34 
			861.887,1501.1 862.481,1501.068 862.625,1501.308 862.786,1501.533 865.241,1505.047 868.097,1509.219 870.167,1512.059 
			872.076,1514.803 875.574,1519.68 876.697,1521.189 877.563,1522.472 877.932,1523.114 878.093,1523.403 878.141,1523.66 
			878.189,1524.35 878.157,1524.478 878.077,1524.783 877.708,1525.36 877.371,1525.697 877.339,1525.778 876.28,1526.115 
			874.354,1526.468 873.408,1526.628 870.873,1527.19 867.872,1527.864 864.326,1528.746 862.321,1529.26 862.369,1529.42 		"/>
		<polygon style="fill:#376631;" points="881.398,1500.378 882.249,1501.774 882.232,1501.87 882.232,1501.966 882.232,1502.014 
			882.281,1502.094 882.313,1502.143 882.441,1502.207 882.473,1502.223 882.473,1502.239 882.682,1502.736 882.73,1502.993 
			882.81,1503.218 882.906,1503.33 882.938,1503.346 883.869,1505.576 884.976,1507.309 888.667,1512.235 889.421,1513.84 
			888.522,1515.557 886.629,1517.033 881.382,1521.526 880.708,1521.766 880.596,1521.734 879.874,1520.691 877.772,1518.653 
			876.617,1516.471 875.686,1515.428 874.723,1513.326 873.087,1511.369 872.654,1511.722 873.36,1512.508 874.9,1515.252 
			876.055,1516.648 876.376,1517.578 878.334,1519.905 879.553,1521.622 879.938,1522.167 880.869,1522.488 881.671,1522.344 
			887.078,1517.482 889.421,1515.605 890.014,1514.546 890.913,1514.851 892.068,1514.995 892.983,1514.53 893.528,1513.856 
			894.266,1513.503 895.068,1513.134 895.293,1512.989 895.309,1513.342 894.796,1513.439 894.94,1515.428 894.956,1515.829 
			894.94,1516.038 894.699,1516.038 894.683,1516.038 894.362,1516.038 894.346,1516.038 894.026,1516.038 893.993,1516.038 
			893.673,1516.054 893.656,1516.054 893.336,1516.086 893.32,1516.086 892.999,1516.118 892.983,1516.134 892.678,1516.166 
			892.646,1516.182 892.341,1516.231 892.004,1516.295 891.988,1516.295 891.651,1516.375 891.635,1516.375 891.298,1516.455 
			891.282,1516.455 890.961,1516.535 890.945,1516.552 890.608,1516.648 890.592,1516.648 890.271,1516.76 890.255,1516.76 
			889.934,1516.872 889.918,1516.872 889.597,1517.001 889.597,1517.017 889.276,1517.145 889.26,1517.145 888.955,1517.29 
			888.939,1517.29 888.634,1517.45 888.618,1517.45 888.314,1517.61 888.297,1517.61 887.993,1517.787 887.977,1517.787 
			887.688,1517.964 887.672,1517.964 887.383,1518.156 887.367,1518.156 887.094,1518.349 887.078,1518.349 886.789,1518.557 
			886.516,1518.766 886.5,1518.782 886.228,1518.99 886.196,1519.006 884.607,1520.467 884.591,1520.483 882.618,1522.472 
			882.184,1522.681 881.992,1522.761 881.767,1522.793 881.382,1522.777 881.27,1522.777 880.339,1522.745 879.746,1522.36 
			878.831,1521.413 869.348,1507.999 865.289,1502.239 864.471,1500.955 864.455,1500.939 867.599,1500.731 867.616,1500.763 
			868.883,1500.875 870.873,1501.035 873.729,1500.554 874.707,1500.313 874.772,1500.249 881.141,1499.832 881.157,1499.912 
			881.222,1500.073 881.238,1500.233 881.27,1500.265 		"/>
		<polygon style="fill:#376631;" points="902.754,1499.688 901.262,1501.597 899.673,1504.229 899.545,1504.598 899.625,1504.951 
			900.925,1505.705 901.823,1506.683 902.032,1507.454 901.888,1508.24 901.262,1509.138 900.267,1509.909 898.614,1510.454 
			896.095,1511.401 893.785,1512.701 891.827,1513.134 890.8,1513.005 888.57,1510.31 885.794,1506.17 884.463,1504.164 
			883.981,1503.346 882.955,1499.8 882.922,1499.72 883.773,1499.672 892.533,1499.094 905.065,1498.26 904.583,1498.468 
			903.893,1498.837 903.508,1499.046 		"/>
		<polygon style="fill:#376631;" points="816.92,1514.366 816.728,1514.286 816.776,1514.238 816.92,1514.125 		"/>
		<polygon style="fill:#376631;" points="852.378,1529.785 853.196,1530.009 853.742,1530.009 854.64,1529.801 855.138,1529.624 
			855.282,1529.592 855.956,1529.496 856.133,1529.496 856.341,1529.544 856.438,1529.592 856.534,1529.608 856.758,1529.736 
			856.839,1529.752 856.951,1529.752 856.983,1529.704 857.015,1529.464 857.047,1529.416 857.111,1529.367 857.24,1529.335 
			857.865,1529.255 858.219,1529.271 858.427,1529.239 859.005,1529.111 859.165,1529.079 859.983,1528.982 860.866,1528.886 
			860.882,1528.886 860.994,1528.998 861.091,1529.079 861.235,1529.56 861.267,1529.64 861.267,1529.672 857.994,1530.507 
			857.641,1530.587 854.721,1531.277 854.031,1531.437 851.464,1532.24 849.602,1532.881 849.586,1532.849 849.57,1532.769 
			849.426,1532.384 847.468,1526.961 847.95,1527.474 848.142,1527.586 849.699,1528.581 851.03,1529.271 		"/>
		<polygon style="fill:#376631;" points="819.823,1516.82 819.582,1516.852 819.293,1516.74 819.021,1516.001 818.876,1515.552 
			818.732,1515.247 818.619,1515.119 818.443,1514.991 817.978,1514.846 816.726,1514.301 816.774,1514.253 816.967,1514.108 
			817.175,1513.948 817.48,1513.723 817.689,1513.562 818.106,1513.242 818.475,1512.969 818.652,1512.824 818.796,1512.712 
			819.406,1512.247 819.759,1516.258 		"/>
		<polygon style="fill:#376631;" points="824.652,1514.638 823.946,1515.087 823.465,1515.071 823.016,1514.622 822.486,1513.53 
			822.454,1511.958 823.016,1510.353 823.609,1509.214 823.625,1509.182 823.978,1508.925 824.524,1508.556 824.957,1508.251 
			825.278,1508.027 825.759,1507.69 826.032,1507.497 826.321,1507.289 826.482,1507.208 827.589,1506.984 828.086,1507.241 
			828.327,1508.203 828.086,1509.599 827.556,1510.915 827.123,1512.279 826.193,1513.386 		"/>
		<polygon style="fill:#376631;" points="820.272,1516.788 819.919,1511.878 820.32,1511.589 820.85,1511.204 820.914,1511.156 
			820.753,1512.054 820.721,1513.627 820.882,1515.392 820.898,1516.178 820.834,1516.563 820.625,1516.74 820.449,1516.756 		"/>
		<polygon style="fill:#376631;" points="874.809,1525.276 874.183,1525.292 874.023,1525.228 873.975,1524.955 874.039,1524.698 
			874.231,1524.409 874.247,1524.04 874.36,1523.078 874.809,1521.617 874.937,1521.409 875.034,1521.377 875.098,1521.377 
			875.21,1521.473 875.306,1521.617 875.371,1521.986 875.691,1522.773 876.012,1523.222 876.253,1523.623 876.574,1524.088 
			876.67,1524.361 876.638,1524.618 876.141,1524.907 875.515,1525.131 		"/>
		<polygon style="fill:#376631;" points="833.894,1512.471 834.488,1514.06 834.745,1513.675 834.488,1514.06 834.729,1514.75 
			834.231,1515.055 834.215,1515.071 829.482,1518.071 829.482,1518.087 829.049,1516.852 829.995,1516.29 832.514,1512.52 
			833.028,1510.883 833.076,1510.835 833.124,1510.771 833.156,1510.514 833.156,1510.482 833.236,1510.241 833.541,1511.059 		"/>
		<polygon style="fill:#376631;" points="838.323,1502.732 842.719,1514.943 843.184,1516.29 848.944,1532.544 849.089,1532.946 
			849.105,1533.01 849.137,1533.042 848.415,1533.282 846.602,1533.892 846.602,1533.876 846.57,1533.748 846.57,1533.684 
			846.361,1533.202 845.591,1531.357 845.575,1531.325 843.762,1526.961 843.505,1526.335 843.361,1525.982 840.569,1519.275 
			840.489,1519.082 837.729,1512.151 837.601,1512.199 834.151,1503.967 837.103,1503.293 837.087,1503.277 837.585,1503.053 
			838.21,1502.764 838.323,1502.732 		"/>
		<polygon style="fill:#376631;" points="861.315,1502.331 862.904,1504.401 863.979,1505.315 866.578,1508.54 874.215,1519.467 
			874.552,1520.157 874.568,1520.671 874.488,1521.312 873.445,1524.474 872.579,1525.292 869.482,1526.078 864.043,1527.346 
			861.732,1527.57 858.122,1527.747 855.812,1528.677 854.287,1529.159 853.212,1529.095 851.271,1528.533 848.912,1527.009 
			848.367,1526.351 847.484,1522.789 845.639,1517.959 842.398,1509.647 840.633,1505.171 840.505,1504.224 840.665,1503.245 
			841.066,1502.555 841.179,1502.427 842.687,1502.331 854.255,1502.331 856.534,1502.395 856.999,1502.331 		"/>
		<polygon style="fill:#376631;" points="863.353,1502.331 865.246,1505.042 868.102,1509.198 870.172,1512.054 872.081,1514.782 
			875.579,1519.676 876.702,1521.168 877.569,1522.452 877.938,1523.11 878.098,1523.398 878.146,1523.655 878.194,1524.329 
			878.162,1524.458 878.082,1524.778 877.713,1525.356 877.376,1525.693 877.344,1525.757 876.285,1526.11 874.36,1526.447 
			873.413,1526.624 870.878,1527.185 867.878,1527.859 864.332,1528.726 862.326,1529.239 862.374,1529.4 862.278,1529.432 
			862.262,1529.4 862.246,1529.351 862.23,1529.239 862.214,1529.143 862.198,1528.998 862.358,1528.613 862.888,1528.389 
			872.531,1526.335 876.109,1525.581 876.943,1525.244 877.119,1525.179 877.216,1525.067 877.489,1524.73 877.537,1524.201 
			877.232,1523.366 873.975,1517.879 862.759,1502.331 		"/>
		<polygon style="fill:#376631;" points="882.527,1502.331 882.687,1502.716 882.735,1502.989 882.815,1503.197 882.912,1503.309 
			882.944,1503.342 883.874,1505.556 884.982,1507.305 888.672,1512.215 889.426,1513.819 888.527,1515.536 886.634,1517.028 
			881.387,1521.521 880.714,1521.762 880.601,1521.73 879.879,1520.671 877.777,1518.633 876.622,1516.451 875.691,1515.408 
			874.729,1513.322 873.092,1511.364 872.659,1511.717 873.365,1512.504 874.905,1515.231 876.06,1516.627 876.381,1517.558 
			878.339,1519.884 879.558,1521.601 879.943,1522.163 880.874,1522.484 881.676,1522.339 887.083,1517.462 889.426,1515.584 
			890.02,1514.541 890.918,1514.83 892.073,1514.975 892.988,1514.509 893.534,1513.851 894.272,1513.498 895.074,1513.113 
			895.298,1512.969 895.315,1513.322 894.801,1513.418 894.945,1515.424 894.961,1515.809 894.945,1516.034 894.705,1516.018 
			894.689,1516.018 894.368,1516.018 894.352,1516.018 894.031,1516.034 893.999,1516.034 893.678,1516.05 893.662,1516.05 
			893.341,1516.082 893.325,1516.082 893.004,1516.114 892.988,1516.114 892.683,1516.162 892.651,1516.162 892.346,1516.226 
			892.009,1516.29 891.993,1516.29 891.656,1516.354 891.64,1516.354 891.303,1516.435 891.287,1516.435 890.966,1516.531 
			890.95,1516.531 890.613,1516.627 890.597,1516.643 890.276,1516.74 890.26,1516.756 889.939,1516.868 889.923,1516.868 
			889.602,1516.996 889.282,1517.125 889.266,1517.141 888.961,1517.269 888.945,1517.285 888.64,1517.43 888.624,1517.446 
			888.319,1517.59 888.303,1517.606 887.998,1517.766 887.982,1517.782 887.693,1517.943 887.677,1517.959 887.388,1518.135 
			887.372,1518.152 887.099,1518.328 887.083,1518.344 886.795,1518.537 886.795,1518.553 886.522,1518.761 886.506,1518.761 
			886.233,1518.97 886.201,1519.002 884.629,1520.446 884.612,1520.446 884.596,1520.478 882.623,1522.452 882.19,1522.676 
			881.997,1522.741 881.773,1522.773 881.548,1522.773 881.387,1522.773 881.275,1522.773 880.345,1522.741 879.751,1522.339 
			878.836,1521.393 869.354,1507.979 865.359,1502.331 		"/>
		<polygon style="fill:#376631;" points="900.818,1502.331 899.679,1504.208 899.55,1504.577 899.631,1504.93 900.93,1505.7 
			901.829,1506.663 902.037,1507.449 901.893,1508.235 901.267,1509.118 900.272,1509.904 898.62,1510.434 896.101,1511.396 
			893.79,1512.696 891.833,1513.129 890.806,1513.001 888.576,1510.305 885.8,1506.166 884.468,1504.16 883.987,1503.325 
			883.698,1502.331 		"/>
		<polygon style="fill:#376631;" points="690.473,1773.068 689.911,1774.884 689.879,1776.298 690.57,1776.941 691.148,1777.069 
			691.742,1776.876 691.984,1776.603 693.269,1773.068 693.896,1773.068 693.896,1773.341 694.008,1773.904 694.281,1773.888 
			694.811,1773.872 694.844,1774.595 692.289,1776.651 692.755,1777.278 692.867,1777.68 692.466,1778.29 692.433,1779.945 
			692.626,1780.652 693.365,1780.942 693.478,1781.054 693.446,1781.102 693.558,1781.167 694.153,1781.456 694.04,1781.713 
			694.008,1781.793 693.88,1782.067 694.169,1782.259 694.04,1782.484 693.012,1781.729 692.707,1782.083 692.53,1781.825 
			691.63,1780.492 690.345,1781.359 690.087,1781.022 690.055,1780.974 690.071,1780.974 689.734,1780.444 689.509,1780.09 
			689.332,1779.833 689.316,1779.833 689.22,1779.865 688.143,1778.194 688.24,1777.214 687.533,1777.23 687.517,1776.973 
			687.276,1775.398 686.777,1774.225 686.681,1773.968 689.011,1773.068 		"/>
	</g>
</g>
</svg>
