<?xml version="1.0" encoding="iso-8859-1"?>
<!-- Generator: Adobe Illustrator 17.0.0, SVG Export Plug-In . SVG Version: 6.00 Build 0)  -->
<!DOCTYPE svg PUBLIC "-//W3C//DTD SVG 1.1//EN" "http://www.w3.org/Graphics/SVG/1.1/DTD/svg11.dtd">
<svg version="1.1" xmlns="http://www.w3.org/2000/svg" xmlns:xlink="http://www.w3.org/1999/xlink" x="0px" y="0px" width="1840px"
	 height="2400px" viewBox="0 0 1840 2400" style="enable-background:new 0 0 1840 2400;" xml:space="preserve">
<g id="Layer_114">
	<rect style="fill:none;" width="1840" height="2400"/>
	<rect style="fill:none;" width="1840" height="2400"/>
	<rect style="fill:none;" width="1840" height="2400"/>
	<rect style="fill:none;" width="1840" height="2400"/>
	<rect style="fill:none;" width="1840" height="2400"/>
	<rect style="fill:none;" width="1840" height="2400"/>
	<rect style="fill:none;" width="1840" height="2400"/>
	<rect style="fill:none;" width="1840" height="2400"/>
	<rect style="fill:none;" width="1840" height="2400"/>
	<rect style="fill:none;" width="1840" height="2400"/>
	<rect style="fill:none;" width="1840" height="2400"/>
	<rect style="fill:none;" width="1840" height="2400"/>
	<rect style="fill:none;" width="1840" height="2400"/>
	<rect style="fill:none;" width="1840" height="2400"/>
	<rect style="fill:none;" width="1840" height="2400"/>
	<rect style="fill:none;" width="1840" height="2400"/>
</g>
<g id="GS">
	<g id="MUNICIPAL_x5F_OFFICES">
		<polygon style="fill:#D7876E;" points="812.509,1974.716 812.461,1975.198 812.461,1975.214 812.445,1975.231 812.428,1975.584 
			812.428,1975.793 812.252,1975.777 811.705,1975.761 811.721,1975.44 811.753,1974.764 811.769,1974.668 811.866,1974.684 
			812.396,1974.716 812.445,1974.716 		"/>
		<polygon style="fill:#D7876E;" points="783.994,1972.835 783.174,1972.916 782.049,1973.044 781.92,1972.482 781.101,1972.675 
			780.94,1972.08 780.779,1971.533 780.731,1971.373 780.618,1970.923 780.667,1970.891 780.683,1970.842 780.699,1970.826 
			780.715,1970.81 780.699,1970.762 780.618,1970.44 780.57,1970.408 780.361,1970.006 780.425,1969.347 780.442,1968.704 
			780.538,1968.688 781.133,1968.608 781.342,1968.592 781.84,1968.528 782.322,1968.495 782.74,1968.479 783.206,1968.463 
			783.463,1968.463 783.463,1968.946 783.447,1969.765 783.431,1970.36 783.447,1970.633 783.431,1970.939 783.479,1971.501 
			783.576,1971.823 783.721,1972.257 783.881,1972.578 		"/>
		<polygon style="fill:#D7876E;" points="785.296,1968.431 785.28,1968.913 785.875,1968.946 785.875,1968.463 786.035,1968.463 
			786.051,1969.058 786.067,1969.363 786.1,1969.958 786.035,1969.958 786.019,1969.958 786.035,1970.939 783.801,1970.842 
			783.817,1970.328 783.833,1969.556 783.849,1969.347 783.849,1968.753 783.865,1968.528 783.865,1968.383 784.54,1968.415 
			785.232,1968.431 		"/>
		<polygon style="fill:#D7876E;" points="790.247,1969.219 789.555,1969.604 789.491,1969.621 789.475,1969.604 789.411,1969.621 
			789.411,1969.589 789.25,1969.267 789.234,1969.219 789.073,1968.833 789.041,1968.769 789.009,1968.656 789.057,1968.624 
			789.668,1968.367 789.684,1968.383 789.716,1968.447 789.829,1968.592 789.829,1968.608 789.845,1968.624 790.005,1968.881 
			790.038,1968.913 790.086,1968.881 790.118,1968.946 790.15,1968.994 790.182,1969.042 790.263,1969.154 790.231,1969.187 		"/>
		<polygon style="fill:#D7876E;" points="805.308,2017.747 805.26,2017.747 804.793,2017.747 804.584,2017.779 804.568,2017.779 
			804.279,2017.812 804.167,2017.828 804.15,2017.828 804.15,2017.796 804.134,2017.458 804.134,2017.313 804.118,2017.024 
			804.118,2016.895 804.456,2016.895 804.89,2016.895 805.308,2016.879 805.308,2017.281 		"/>
		<polygon style="fill:#D7876E;" points="762.287,1983.389 762.287,1983.373 762.255,1982.747 762.255,1982.571 762.239,1982.507 
			762.239,1982.475 762.223,1982.17 762.223,1982.122 762.287,1982.122 762.656,1982.09 762.913,1982.09 762.993,1982.09 
			763.041,1982.074 763.089,1983.389 		"/>
		<polygon style="fill:#D7876E;" points="735.498,2035.75 735.145,2035.99 735.017,2036.07 735.017,2036.054 734.568,2035.477 
			734.279,2034.963 734.247,2034.931 734.44,2034.803 734.616,2034.675 734.728,2034.594 		"/>
		<polygon style="fill:#D7876E;" points="740.856,2052.144 740.599,2052.257 740.519,2052.048 740.487,2052.064 739.14,2052.722 
			738.883,2052.224 738.546,2051.663 738.386,2051.374 738.546,2051.278 739.172,2050.909 739.396,2050.797 739.846,2050.54 
			739.926,2050.508 739.99,2050.508 740.022,2050.54 740.134,2050.765 		"/>
		<polygon style="fill:#D7876E;" points="726.788,2029.878 725.938,2030.247 725.264,2030.392 725.184,2029.974 725.152,2029.862 
			725.954,2029.317 726.098,2029.253 726.194,2029.237 726.291,2029.237 726.451,2029.237 726.611,2029.269 726.66,2029.269 
			726.676,2029.429 726.772,2029.83 		"/>
		<polygon style="fill:#D7876E;" points="801.755,2034.432 801.595,2034.416 801.595,2034.32 801.611,2033.741 801.755,2033.725 
			801.755,2033.95 801.755,2034.111 		"/>
		<polygon style="fill:#D7876E;" points="796.483,2021.814 796.403,2021.798 796.162,2021.75 795.985,2021.718 796.065,2021.46 
			796.114,2021.428 796.29,2021.171 796.58,2021.203 796.58,2021.268 796.58,2021.38 		"/>
		<polygon style="fill:#D7876E;" points="789.089,2018.262 789.105,2018.503 788.896,2018.503 788.896,2018.262 		"/>
		<polygon style="fill:#D7876E;" points="790.873,1976.211 790.664,1977.561 790.52,1977.545 790.713,1976.195 		"/>
		<polygon style="fill:#D7876E;" points="793.719,1993.764 792.481,1993.877 792.465,1993.62 793.702,1993.523 		"/>
		<polygon style="fill:#D7876E;" points="802.736,1972.385 802.495,1973.27 802.141,1973.189 802.382,1972.305 		"/>
		<polygon style="fill:#D7876E;" points="788.288,2108.583 788.319,2108.615 788.288,2108.789 788.288,2108.868 788.13,2108.852 
			788.019,2108.836 788.051,2108.552 788.098,2108.568 788.161,2108.568 		"/>
		<polygon style="fill:#D7876E;" points="777.917,2151.664 777.901,2151.648 777.411,2151.269 777.253,2151.126 777.395,2150.921 
			778.075,2151.458 		"/>
		<polygon style="fill:#D7876E;" points="788.714,2106.971 788.714,2107.018 788.714,2107.034 788.651,2107.587 788.572,2107.587 
			788.272,2107.556 788.288,2107.24 788.303,2107.113 788.303,2106.987 788.303,2106.971 788.303,2106.955 788.635,2106.971 		"/>
		<polygon style="fill:#D7876E;" points="788.273,2108.495 788.305,2108.527 788.289,2108.701 788.289,2108.78 788.131,2108.764 
			788.021,2108.749 788.052,2108.464 788.1,2108.48 788.163,2108.48 		"/>
		<polygon style="fill:#D7876E;" points="765.888,2086.062 765.888,2086.11 765.351,2086.22 765.319,2086.062 		"/>
		<polygon style="fill:#D7876E;" points="777.919,2151.576 777.903,2151.56 777.413,2151.18 777.255,2151.038 777.397,2150.833 
			778.077,2151.37 		"/>
		<polygon style="fill:#D7876E;" points="788.716,2106.883 788.716,2106.93 788.7,2106.946 788.637,2107.5 788.574,2107.5 
			788.258,2107.468 788.289,2107.152 788.289,2107.025 788.305,2106.899 788.305,2106.883 788.305,2106.867 788.637,2106.883 		"/>
		<polygon style="fill:#D7876E;" points="766.758,2104.559 766.758,2105.049 766.758,2105.27 766.426,2105.27 766.426,2105.065 
			766.426,2104.891 766.426,2104.67 766.426,2104.559 766.695,2104.559 		"/>
		<polygon style="fill:#D7876E;" points="761.746,2148.224 761.746,2147.497 762.094,2147.481 762.094,2148.193 		"/>
		<polygon style="fill:#D7876E;" points="788.29,2108.581 788.321,2108.597 788.29,2108.786 788.29,2108.85 788.132,2108.834 
			788.021,2108.834 788.052,2108.533 788.1,2108.549 788.163,2108.565 		"/>
		<polygon style="fill:#D7876E;" points="788.716,2106.968 788.716,2107.016 788.716,2107.031 788.653,2107.569 788.574,2107.569 
			788.274,2107.553 788.29,2107.237 788.305,2107.111 788.305,2106.968 788.305,2106.937 788.637,2106.968 		"/>
		<polygon style="fill:#D7876E;" points="788.267,2108.59 788.299,2108.605 788.283,2108.795 788.283,2108.858 788.125,2108.843 
			788.014,2108.843 788.046,2108.542 788.093,2108.558 788.157,2108.574 		"/>
		<polygon style="fill:#D7876E;" points="765.344,2086.299 765.202,2085.508 764.949,2084.164 764.918,2083.943 764.87,2083.69 
			765.424,2083.611 765.882,2086.204 		"/>
		<polygon style="fill:#D7876E;" points="788.71,2106.977 788.71,2107.025 788.694,2107.041 788.631,2107.578 788.568,2107.578 
			788.251,2107.562 788.283,2107.246 788.283,2107.119 788.299,2106.977 788.299,2106.946 788.631,2106.977 		"/>
		<polygon style="fill:#D7876E;" points="766.751,2104.653 766.751,2105.127 766.751,2105.349 766.419,2105.365 766.419,2105.349 
			766.419,2105.143 766.419,2104.969 766.419,2104.748 766.419,2104.637 766.688,2104.653 		"/>
		<polygon style="fill:#D7876E;" points="762.657,2077.129 762.499,2077.161 762.23,2077.208 762.183,2076.924 762.104,2076.497 
			762.072,2076.307 762.056,2076.181 762.325,2076.117 762.499,2076.102 		"/>
		<polygon style="fill:#D7876E;" points="709.908,1975.639 709.748,1976.132 709.478,1976.037 709.525,1975.846 709.637,1975.543 		
			"/>
		<polygon style="fill:#D7876E;" points="660.579,1996.473 660.866,1996.489 661.089,1996.505 661.152,1996.521 661.168,1996.569 
			661.152,1996.632 660.579,1996.871 		"/>
		<polygon style="fill:#D7876E;" points="722.443,2011.541 722.236,2011.748 721.822,2011.318 722.029,2011.095 722.22,2011.302 		
			"/>
		<polygon style="fill:#D7876E;" points="739.709,1987.697 739.263,1988.477 739.056,1988.461 739.199,1988.206 739.518,1987.633 
			739.613,1987.665 		"/>
		<polygon style="fill:#D7876E;" points="742.687,1991.981 742.592,1992.141 742.417,1992.427 742.321,1992.364 742.576,1991.917 		
			"/>
		<polygon style="fill:#D7876E;" points="688.102,1980.895 688.071,1981.15 688.055,1981.325 688.039,1981.373 687.625,1980.656 
			687.72,1980.592 687.864,1980.497 		"/>
		<polygon style="fill:#D7876E;" points="660.505,1996.919 660.378,1996.457 660.872,1996.489 661.111,1996.505 661.174,1996.521 
			661.19,1996.569 661.174,1996.632 		"/>
		<polygon style="fill:#D7876E;" points="633.97,1997.015 633.906,1996.983 633.794,1996.903 633.508,1996.712 633.428,1996.648 
			633.762,1996.266 633.906,1996.123 634.4,1996.489 634.288,1996.632 		"/>
		<polygon style="fill:#D7876E;" points="688.124,1980.895 688.092,1981.15 688.061,1981.325 688.061,1981.373 687.631,1980.656 
			687.742,1980.592 687.869,1980.497 		"/>
		<polygon style="fill:#D7876E;" points="709.389,1917.527 709.245,1917.4 709.436,1917.049 709.58,1917.129 		"/>
		<polygon style="fill:#D7876E;" points="698.844,1910.535 698.956,1910.582 699.067,1910.63 699.227,1910.646 699.943,1910.758 
			700.119,1911.713 699.927,1911.681 699.72,1911.649 699.274,1911.586 699.115,1911.554 698.701,1911.49 698.574,1911.458 
			698.478,1911.443 698.462,1911.443 698.414,1911.443 698.367,1911.426 698.287,1911.411 698.43,1910.503 698.462,1910.312 
			698.526,1910.375 698.637,1910.391 698.828,1910.535 		"/>
		<polygon style="fill:#D7876E;" points="728.391,1944.781 728.279,1945.258 727.578,1945.099 727.674,1944.605 727.769,1944.621 
			727.785,1944.621 728.215,1944.733 728.375,1944.781 		"/>
		<polygon style="fill:#D7876E;" points="678.536,1884.938 678.106,1885.017 677.995,1885.033 677.947,1884.778 678.489,1884.667 		
			"/>
		<polygon style="fill:#D7876E;" points="678.537,1884.948 678.091,1885.027 677.995,1885.043 677.948,1884.788 678.473,1884.677 		
			"/>
		<polygon style="fill:#D7876E;" points="817.421,1931.79 816.926,1931.758 816.942,1931.582 816.974,1931.039 817.453,1931.039 		
			"/>
		<polygon style="fill:#D7876E;" points="806.011,1916.273 805.947,1916.241 805.516,1915.937 805.468,1915.841 805.452,1915.809 
			805.452,1915.761 805.452,1915.713 805.452,1915.681 805.468,1915.601 805.484,1915.538 805.516,1915.506 805.532,1915.474 
			805.979,1915.218 		"/>
		<polygon style="fill:#D7876E;" points="796.423,1923.176 796.264,1923.672 796.168,1923.863 796.072,1924.023 796.04,1924.071 
			795.752,1924.439 795.72,1924.487 795.656,1924.519 795.56,1924.551 795.513,1924.551 795.449,1924.567 795.353,1924.567 
			795.273,1924.567 795.241,1924.567 795.161,1924.567 795.081,1924.551 795.017,1924.551 795.001,1924.551 794.937,1924.535 
			794.889,1924.519 794.857,1924.487 794.793,1924.423 794.777,1924.407 794.698,1924.327 794.57,1924.167 794.761,1923 
			794.809,1923 796.296,1923.16 		"/>
		<polygon style="fill:#D7876E;" points="749.81,1962.872 750.273,1963.112 750.321,1963.128 750.241,1963.287 749.65,1964.406 
			749.49,1964.31 749.378,1964.246 749.011,1964.055 749.394,1963.383 749.602,1962.968 749.698,1962.808 		"/>
		<polygon style="fill:#D7876E;" points="769.513,1948.889 769.129,1949.608 768.698,1949.193 768.139,1948.649 767.851,1948.378 
			767.787,1948.33 767.388,1947.882 767.452,1947.818 767.531,1947.754 768.219,1948.122 768.986,1948.569 		"/>
		<polygon style="fill:#D7876E;" points="756.122,1943.807 755.978,1944.558 755.882,1944.542 755.546,1944.462 755.69,1943.743 		
			"/>
		<polygon style="fill:#D7876E;" points="817.229,1931.774 816.91,1931.758 816.926,1931.582 816.974,1931.039 817.229,1931.039 		
			"/>
		<polygon style="fill:#D7876E;" points="806.011,1916.273 805.947,1916.241 805.5,1915.937 805.468,1915.841 805.452,1915.809 
			805.436,1915.761 805.436,1915.713 805.452,1915.681 805.452,1915.601 805.484,1915.538 805.5,1915.506 805.532,1915.474 
			805.979,1915.218 		"/>
		<polygon style="fill:#D7876E;" points="796.407,1923.176 796.264,1923.672 796.168,1923.863 796.056,1924.023 796.024,1924.071 
			795.752,1924.439 795.704,1924.487 795.656,1924.519 795.56,1924.551 795.497,1924.551 795.449,1924.567 795.353,1924.567 
			795.273,1924.567 795.241,1924.567 795.145,1924.567 795.081,1924.551 795.017,1924.551 794.985,1924.551 794.937,1924.535 
			794.889,1924.519 794.841,1924.487 794.777,1924.423 794.777,1924.407 794.682,1924.327 794.554,1924.167 794.761,1923 
			794.809,1923 796.296,1923.16 		"/>
		<polygon style="fill:#D7876E;" points="778.191,1904.177 777.967,1903.841 778.207,1903.697 778.238,1903.633 778.238,1903.601 
			778.271,1903.601 778.318,1903.617 778.766,1903.729 778.526,1903.921 778.414,1904.001 		"/>
		<polygon style="fill:#D7876E;" points="766.381,1895.18 766.174,1895.18 765.838,1895.164 765.886,1894.54 766.046,1894.54 
			766.094,1894.54 766.269,1894.524 766.333,1894.524 766.701,1894.524 766.717,1894.62 766.717,1894.764 766.653,1895.18 		"/>
		<polygon style="fill:#D7876E;" points="760.325,1882.97 759.957,1882.97 759.909,1882.683 760.261,1882.619 		"/>
		<polygon style="fill:#D7876E;" points="761.827,1876.674 761.827,1876.786 761.827,1876.802 761.827,1876.818 761.859,1876.946 
			761.939,1877.281 762.354,1878.512 762.051,1878.592 761.971,1878.608 761.475,1878.576 761.3,1878.576 760.9,1878.544 
			760.676,1878.544 760.596,1878.544 759.957,1878.416 760.357,1878.112 760.724,1877.825 760.964,1876.514 761.795,1876.674 		"/>
		<polygon style="fill:#D7876E;" points="738.001,1883.258 738.416,1883.45 738.017,1883.897 737.633,1884.345 737.298,1884.105 
			737.266,1884.057 737.937,1883.242 		"/>
		<polygon style="fill:#D7876E;" points="817.23,1931.775 816.91,1931.759 816.926,1931.567 816.974,1931.04 817.23,1931.024 		"/>
		<polygon style="fill:#D7876E;" points="806.012,1916.274 805.948,1916.226 805.5,1915.922 805.468,1915.843 805.452,1915.811 
			805.437,1915.747 805.437,1915.699 805.452,1915.667 805.452,1915.587 805.484,1915.523 805.5,1915.491 805.532,1915.459 
			805.98,1915.203 		"/>
		<polygon style="fill:#D7876E;" points="796.408,1923.161 796.264,1923.657 796.168,1923.849 796.056,1924.009 796.024,1924.057 
			795.753,1924.44 795.705,1924.472 795.657,1924.504 795.561,1924.536 795.497,1924.536 795.449,1924.552 795.353,1924.552 
			795.273,1924.552 795.241,1924.552 795.145,1924.552 795.081,1924.552 795.018,1924.536 794.986,1924.536 794.938,1924.52 
			794.89,1924.504 794.842,1924.472 794.778,1924.408 794.682,1924.312 794.554,1924.168 794.762,1922.986 794.81,1923.002 
			796.296,1923.146 		"/>
		<polygon style="fill:#D7876E;" points="817.421,1931.774 816.925,1931.758 816.941,1931.566 816.973,1931.038 817.453,1931.022 		
			"/>
		<polygon style="fill:#D7876E;" points="806.011,1916.272 805.947,1916.224 805.516,1915.921 805.468,1915.841 805.452,1915.809 
			805.452,1915.745 805.452,1915.697 805.452,1915.665 805.468,1915.585 805.484,1915.521 805.516,1915.489 805.532,1915.457 
			805.979,1915.202 		"/>
		<polygon style="fill:#D7876E;" points="824.164,1888.962 824.148,1889.026 824.1,1889.185 824.052,1889.313 824.021,1889.457 
			823.957,1889.585 823.813,1889.888 823.733,1890.032 823.413,1889.745 823.733,1888.898 		"/>
		<polygon style="fill:#D7876E;" points="796.423,1923.16 796.263,1923.655 796.167,1923.847 796.071,1924.007 796.039,1924.055 
			795.752,1924.438 795.72,1924.47 795.656,1924.502 795.56,1924.534 795.512,1924.534 795.448,1924.55 795.352,1924.55 
			795.272,1924.55 795.24,1924.55 795.161,1924.55 795.081,1924.55 795.017,1924.534 795.001,1924.534 794.937,1924.518 
			794.889,1924.502 794.857,1924.47 794.793,1924.406 794.777,1924.406 794.697,1924.311 794.569,1924.167 794.761,1922.984 
			794.809,1923 796.295,1923.144 		"/>
		<polygon style="fill:#D7876E;" points="951.654,1513.525 951.513,1513.792 949.85,1513.039 950.085,1512.71 950.572,1512.945 
			951.544,1513.494 		"/>
		<polygon style="fill:#D7876E;" points="950.226,1519.895 949.866,1520.648 949.834,1520.742 949.254,1520.491 949.269,1520.349 
			949.285,1520.146 949.364,1519.847 949.458,1519.628 		"/>
		<polygon style="fill:#D7876E;" points="951.663,1513.515 951.522,1513.781 949.859,1513.028 950.095,1512.699 950.565,1512.934 
			951.554,1513.483 		"/>
		<polygon style="fill:#D7876E;" points="950.236,1519.884 949.875,1520.637 949.828,1520.731 949.263,1520.48 949.279,1520.339 
			949.279,1520.135 949.373,1519.837 949.467,1519.617 		"/>
		<polygon style="fill:#D7876E;" points="912.036,1597.35 911.863,1597.836 911.314,1597.616 911.471,1597.177 		"/>
		<polygon style="fill:#D7876E;" points="883.893,1614.983 883.438,1615.359 882.999,1615.751 882.967,1615.767 882.183,1614.857 
			881.963,1614.575 881.838,1614.449 881.853,1614.434 881.979,1614.245 882.308,1613.759 882.544,1613.398 882.653,1613.524 
			882.653,1613.539 882.81,1613.712 883.469,1614.481 883.877,1614.951 		"/>
		<polygon style="fill:#D7876E;" points="943.112,1581.27 943.41,1581.505 943.52,1581.583 943.771,1581.803 943.881,1581.897 
			944.995,1582.807 943.975,1583.999 943.724,1583.78 943.52,1583.591 943.912,1583.215 943.332,1582.729 942.955,1583.089 
			942.579,1582.76 942.5,1582.682 942.453,1582.65 942.155,1582.368 941.873,1582.117 942.736,1580.956 942.955,1581.128 		"/>
		<polygon style="fill:#D7876E;" points="949.701,1546.098 949.685,1546.208 949.685,1546.223 948.744,1546.427 948.665,1546.443 
			948.022,1547.353 947.771,1547.117 947.489,1546.96 947.348,1546.913 947.661,1546.004 947.677,1545.894 947.708,1545.784 
			947.771,1545.8 		"/>
		<polygon style="fill:#D7876E;" points="931.362,1632.882 931.378,1632.976 931.645,1633.557 931.049,1633.792 930.86,1632.976 
			929.982,1633.039 929.982,1633.008 929.935,1632.773 929.417,1632.835 929.307,1631.47 929.464,1631.455 931.158,1631.282 		"/>
		<polygon style="fill:#D7876E;" points="951.662,1513.514 951.52,1513.797 949.858,1513.044 950.093,1512.698 950.563,1512.949 
			951.552,1513.483 		"/>
		<polygon style="fill:#D7876E;" points="959.913,1568.562 959.819,1568.672 959.395,1569.206 959.286,1569.112 959.254,1569.096 
			959.191,1569.174 958.47,1568.641 959.066,1567.904 		"/>
		<polygon style="fill:#D7876E;" points="950.234,1519.883 949.873,1520.652 949.826,1520.746 949.261,1520.495 949.277,1520.338 
			949.277,1520.15 949.371,1519.852 949.465,1519.617 		"/>
		<polygon style="fill:#D7876E;" points="912.804,1599.169 912.773,1599.154 911.894,1598.84 912.02,1598.526 912.051,1598.416 
			912.224,1598.479 912.255,1598.495 912.443,1598.526 912.459,1598.526 912.6,1598.557 912.616,1598.557 912.663,1598.557 
			912.757,1598.557 912.836,1598.542 912.867,1598.542 912.898,1598.542 912.961,1598.51 912.993,1598.495 913.008,1598.495 
			913.071,1598.448 913.087,1598.432 913.149,1598.369 913.055,1598.589 913.024,1598.683 912.945,1598.84 		"/>
		<polygon style="fill:#D7876E;" points="941.928,1582.034 942.728,1580.951 942.948,1581.124 943.105,1581.265 943.403,1581.5 
			943.513,1581.579 943.779,1581.798 943.889,1581.893 944.987,1582.802 943.967,1583.995 943.732,1583.775 943.528,1583.587 
			943.92,1583.21 943.324,1582.724 942.948,1583.085 942.571,1582.755 942.493,1582.677 942.446,1582.646 942.148,1582.363 
			941.928,1582.159 		"/>
		<polygon style="fill:#D7876E;" points="949.693,1546.093 949.678,1546.203 949.678,1546.219 948.736,1546.423 948.658,1546.438 
			948.03,1547.348 947.779,1547.113 947.481,1546.956 947.34,1546.909 947.654,1545.999 947.685,1545.889 947.717,1545.779 
			947.779,1545.795 		"/>
		<polygon style="fill:#D7876E;" points="951.654,1513.51 951.513,1513.792 949.85,1513.039 950.085,1512.694 950.572,1512.945 
			951.544,1513.478 		"/>
		<polygon style="fill:#D7876E;" points="959.921,1568.558 959.812,1568.668 959.388,1569.201 959.278,1569.107 959.247,1569.091 
			959.184,1569.17 958.478,1568.636 959.074,1567.899 		"/>
		<polygon style="fill:#D7876E;" points="950.227,1519.879 949.866,1520.648 949.834,1520.742 949.254,1520.491 949.27,1520.334 
			949.285,1520.146 949.364,1519.848 949.458,1519.612 		"/>
		<polygon style="fill:#D7876E;" points="896.061,1705.026 895.543,1706.219 894.978,1705.936 895.48,1704.76 		"/>
		<polygon style="fill:#D7876E;" points="916.972,1678.624 917.474,1677.949 917.615,1678.059 917.772,1678.185 917.286,1678.859 
			917.082,1678.718 		"/>
		<polygon style="fill:#D7876E;" points="921.631,1672.663 921.286,1673.478 920.36,1675.157 920.015,1675.816 919.952,1675.91 
			919.513,1675.643 919.325,1675.518 919.372,1675.455 920.721,1673.541 920.988,1673.196 921.286,1672.584 921.411,1672.616 		"/>
		<polygon style="fill:#D7876E;" points="877.344,1775.259 877.793,1775.307 877.793,1775.387 877.793,1775.579 877.745,1776.573 
			876.173,1776.509 876.125,1776.509 876.173,1776.157 876.189,1776.028 876.221,1775.371 876.237,1775.114 		"/>
		<polygon style="fill:#D7876E;" points="801.339,1759.065 801.179,1759.739 800.617,1761.984 800.601,1762.016 799.671,1761.775 
			800.265,1759.482 800.553,1759.562 800.762,1758.889 		"/>
		<polygon style="fill:#D7876E;" points="809.116,1743.141 808.956,1743.462 808.443,1743.221 808.571,1742.885 808.699,1742.949 		
			"/>
		<polygon style="fill:#D7876E;" points="815.306,1749.812 815.37,1749.556 815.547,1749.604 815.483,1749.844 		"/>
		<polygon style="fill:#D7876E;" points="805.396,1731.98 805.027,1732.894 804.707,1732.686 804.626,1732.637 804.755,1732.413 
			803.969,1731.852 803.809,1732.076 803.664,1731.996 803.584,1731.932 803.568,1731.916 803.087,1731.627 803.151,1731.515 
			803.183,1731.467 803.295,1731.322 804.113,1730.072 804.209,1729.943 804.482,1729.494 806.262,1730.745 		"/>
		<polygon style="fill:#D7876E;" points="816.846,1757.943 816.781,1758.135 816.653,1758.103 816.461,1758.039 816.525,1757.846 		
			"/>
		<polygon style="fill:#D7876E;" points="801.351,1759.062 801.175,1759.735 800.614,1761.98 800.598,1762.012 799.668,1761.772 
			800.261,1759.479 800.566,1759.559 800.758,1758.885 		"/>
		<polygon style="fill:#D7876E;" points="881.225,1760.296 881.017,1760.28 881.081,1759.944 881.097,1759.863 881.097,1759.831 
			881.674,1759.88 881.626,1760.344 881.305,1760.312 		"/>
		<polygon style="fill:#D7876E;" points="860.667,1711.723 861.18,1711.979 861.116,1712.108 861.084,1712.188 859.673,1711.578 
			859.641,1711.562 859.064,1712.861 858.438,1712.589 858.182,1712.492 857.524,1712.204 857.107,1712.027 855.648,1711.354 
			855.985,1710.616 856.129,1710.312 856.225,1710.103 856.37,1709.782 858.503,1710.809 858.743,1710.745 859.192,1710.985 		"/>
		<polygon style="fill:#D7876E;" points="882.845,1744.068 881.225,1743.923 881.257,1743.683 881.257,1743.522 882.877,1743.683 
			882.861,1743.811 		"/>
		<polygon style="fill:#D7876E;" points="877.344,1775.258 877.793,1775.306 877.793,1775.386 877.793,1775.595 877.745,1776.573 
			876.174,1776.525 876.126,1776.509 876.174,1776.156 876.19,1776.044 876.222,1775.37 876.238,1775.114 		"/>
		<polygon style="fill:#D7876E;" points="809.113,1743.138 808.968,1743.458 808.439,1743.218 808.567,1742.881 808.696,1742.945 		
			"/>
		<polygon style="fill:#D7876E;" points="829.686,1742.897 829.173,1742.865 828.083,1742.817 828.115,1742.544 829.654,1742.641 		
			"/>
		<polygon style="fill:#D7876E;" points="843.525,1732.859 843.557,1732.891 843.557,1733.035 843.525,1733.099 843.477,1733.131 
			843.349,1733.179 843.205,1733.211 843.172,1732.923 843.237,1732.602 843.317,1732.49 843.429,1732.65 		"/>
		<polygon style="fill:#D7876E;" points="815.302,1749.809 815.367,1749.552 815.543,1749.6 815.479,1749.841 		"/>
		<polygon style="fill:#D7876E;" points="895.898,1714.08 895.753,1714.673 895.304,1714.577 895.449,1713.968 		"/>
		<polygon style="fill:#D7876E;" points="805.392,1731.976 805.024,1732.891 804.703,1732.682 804.623,1732.634 804.767,1732.409 
			803.965,1731.848 803.805,1732.073 803.677,1731.992 803.596,1731.928 803.564,1731.912 803.083,1731.624 803.163,1731.511 
			803.195,1731.463 803.292,1731.319 804.11,1730.068 804.206,1729.94 804.478,1729.491 806.258,1730.742 		"/>
		<polygon style="fill:#D7876E;" points="816.842,1757.939 816.778,1758.131 816.665,1758.099 816.457,1758.035 816.521,1757.843 		
			"/>
		<polygon style="fill:#D7876E;" points="787.736,1827.136 787.143,1827.841 786.999,1827.697 787.608,1827.023 		"/>
		<polygon style="fill:#D7876E;" points="793.155,1712.285 793.171,1712.269 793.733,1711.659 793.877,1711.819 793.284,1712.429 		
			"/>
		<polygon style="fill:#D7876E;" points="805.478,1678.83 805.59,1678.878 805.558,1678.99 804.884,1678.782 804.932,1678.653 		"/>
		<polygon style="fill:#D7876E;" points="816.92,1532.931 816.872,1532.834 816.92,1532.818 		"/>
		<polygon style="fill:#D7876E;" points="852.635,1620.714 852.169,1620.57 852.266,1620.233 852.763,1620.233 		"/>
		<polygon style="fill:#D7876E;" points="839.959,1622.784 839.333,1622.608 839.366,1622.448 839.991,1622.592 		"/>
		<polygon style="fill:#D7876E;" points="845.559,1572.514 843.89,1572.546 843.858,1571.198 845.415,1571.118 845.431,1571.198 
			845.495,1571.407 845.575,1571.695 845.575,1571.712 845.575,1571.856 845.591,1571.936 845.591,1572.032 845.591,1572.225 
			845.575,1572.466 		"/>
		<polygon style="fill:#D7876E;" points="843.345,1558.667 842.703,1559.132 843.008,1559.613 843.521,1560.448 842.286,1560.624 
			840.89,1560.833 840.505,1559.645 840.344,1559.196 841.147,1558.923 840.954,1558.313 841.147,1558.313 842.077,1558.474 
			843.072,1558.618 843.184,1558.651 		"/>
		<polygon style="fill:#D7876E;" points="817.448,1533.138 817.448,1533.186 817.416,1533.234 817.368,1533.282 817.336,1533.282 
			817.304,1533.282 817.143,1533.443 816.935,1532.962 816.887,1532.849 817.256,1532.705 817.32,1532.833 		"/>
		<polygon style="fill:#D7876E;" points="793.15,1712.299 793.182,1712.283 793.743,1711.674 793.888,1711.834 793.294,1712.444 		
			"/>
		<polygon style="fill:#D7876E;" points="805.488,1678.844 805.601,1678.893 805.553,1679.005 804.895,1678.796 804.943,1678.668 		
			"/>
		<polygon style="fill:#D7876E;" points="745.747,1858.408 745.763,1858.457 745.586,1858.537 745.265,1857.862 745.442,1857.782 		
			"/>
		<polygon style="fill:#D7876E;" points="762.169,1779.737 761.703,1779.704 761.703,1779.592 762.169,1779.624 		"/>
		<polygon style="fill:#D7876E;" points="777.355,1715.53 777.049,1715.337 777.114,1715.257 777.323,1714.967 777.612,1715.208 		
			"/>
		<polygon style="fill:#D7876E;" points="762.122,1779.724 761.656,1779.692 761.656,1779.595 762.122,1779.611 		"/>
		<polygon style="fill:#D7876E;" points="726.194,1694.062 725.439,1694.384 725.375,1694.271 726.13,1693.934 		"/>
		<polygon style="fill:#D7876E;" points="710.945,1682.67 711.09,1683.136 710.962,1683.039 710.64,1683.2 710.656,1682.798 
			710.624,1682.605 710.817,1682.637 710.929,1682.67 		"/>
		<polygon style="fill:#D7876E;" points="786.865,2109.485 786.849,2109.564 786.659,2110.338 786.659,2110.37 786.612,2110.354 
			786.011,2110.228 786.011,2110.149 786.185,2109.421 786.233,2109.406 786.312,2109.39 		"/>
		<polygon style="fill:#D7876E;" points="796.793,2117.01 796.682,2116.994 796.461,2116.947 796.255,2116.978 795.528,2117.01 
			795.528,2116.709 795.512,2116.362 795.496,2116.298 797.125,2115.65 797.062,2115.966 796.903,2116.551 796.809,2116.978 		"/>
		<polygon style="fill:#D7876E;" points="798.121,2101.959 798.121,2102.054 798.121,2102.26 798.136,2102.386 798.136,2102.718 
			798.136,2102.829 798.152,2102.845 798.168,2102.845 798.184,2102.845 798.168,2102.987 797.868,2102.987 797.836,2102.987 
			797.773,2103.003 797.662,2103.003 797.662,2102.861 797.71,2102.845 797.694,2102.718 797.694,2102.671 797.662,2101.975 
			797.662,2101.959 798.105,2101.959 		"/>
		<polygon style="fill:#D7876E;" points="759.217,2202.134 758.395,2202.829 758.316,2202.735 758.237,2202.64 757.889,2202.197 
			757.778,2202.071 757.794,2202.055 758.189,2201.707 758.569,2201.375 		"/>
		<polygon style="fill:#D7876E;" points="748.799,2202.387 748.546,2202.719 747.85,2202.118 747.107,2202.055 747.06,2202.055 
			747.218,2201.881 747.692,2201.391 748.151,2201.77 748.372,2201.976 748.562,2202.166 748.752,2202.355 		"/>
		<polygon style="fill:#D7876E;" points="786.866,2109.397 786.851,2109.476 786.661,2110.25 786.661,2110.282 786.614,2110.266 
			785.997,2110.14 786.013,2110.061 786.187,2109.333 786.234,2109.318 786.297,2109.302 		"/>
		<polygon style="fill:#D7876E;" points="796.794,2116.922 796.684,2116.906 796.462,2116.859 796.257,2116.89 795.53,2116.922 
			795.53,2116.621 795.514,2116.274 795.482,2116.21 797.126,2115.562 797.063,2115.878 796.905,2116.463 796.794,2116.89 		"/>
		<polygon style="fill:#D7876E;" points="798.122,2101.871 798.122,2101.966 798.122,2102.172 798.122,2102.298 798.138,2102.63 
			798.138,2102.741 798.138,2102.757 798.154,2102.757 798.17,2102.757 798.17,2102.899 797.869,2102.899 797.822,2102.899 
			797.775,2102.915 797.664,2102.915 797.664,2102.772 797.695,2102.757 797.695,2102.63 797.695,2102.583 797.664,2101.887 
			797.664,2101.871 798.107,2101.871 		"/>
		<polygon style="fill:#D7876E;" points="787.562,2080.393 787.626,2080.915 787.657,2081.515 787.721,2082.243 787.23,2082.527 
			787.341,2082.717 786.835,2083.065 786.819,2083.033 786.804,2083.001 786.693,2082.796 786.203,2083.065 785.697,2082.685 
			785.191,2082.337 784.638,2081.911 784.353,2081.721 784.005,2081.452 783.974,2081.515 783.99,2081.515 783.99,2081.531 
			783.958,2081.563 783.958,2081.594 783.926,2081.594 783.926,2081.563 783.626,2081.357 783.484,2081.262 783.689,2081.01 
			783.484,2080.883 783.468,2080.899 783.436,2080.899 783.405,2080.867 783.405,2080.836 783.421,2080.82 783.452,2080.804 
			783.468,2080.804 783.642,2080.551 783.974,2080.108 784.195,2079.792 784.243,2079.729 784.59,2079.255 784.764,2079.002 
			784.859,2078.875 785.001,2078.875 785.128,2078.875 785.159,2078.859 785.428,2078.844 785.586,2078.844 785.65,2078.844 
			785.918,2078.812 786.013,2078.812 786.519,2078.765 786.661,2078.749 786.914,2078.733 786.977,2078.717 787.009,2078.717 
			787.167,2078.686 787.404,2078.67 787.452,2079.144 787.515,2079.871 		"/>
		<polygon style="fill:#D7876E;" points="804.399,2038.324 804.383,2038.451 804.383,2038.467 804.383,2038.53 804.383,2038.609 
			804.367,2038.783 804.351,2038.846 804.32,2039.083 804.272,2039.368 804.209,2039.874 804.162,2040.174 804.13,2040.285 
			804.083,2040.569 804.051,2040.68 804.019,2040.759 803.94,2041.091 803.83,2041.486 803.814,2041.534 803.798,2041.597 
			802.217,2041.202 802.201,2041.186 802.201,2041.17 802.233,2041.012 802.328,2040.633 802.344,2040.569 802.359,2040.474 
			802.359,2040.427 802.375,2040.38 802.407,2040.079 802.438,2039.89 802.47,2039.716 802.533,2039.399 802.676,2038.577 
			802.66,2038.498 803.845,2038.261 803.924,2038.261 804.399,2038.324 		"/>
		<polygon style="fill:#D7876E;" points="786.867,2109.482 786.851,2109.561 786.661,2110.336 786.661,2110.352 786.614,2110.352 
			786.013,2110.209 786.013,2110.13 786.187,2109.419 786.234,2109.403 786.314,2109.371 		"/>
		<polygon style="fill:#D7876E;" points="798.123,2101.957 798.123,2102.052 798.123,2102.241 798.138,2102.368 798.138,2102.716 
			798.138,2102.811 798.154,2102.826 798.17,2102.826 798.186,2102.826 798.17,2102.969 797.87,2102.984 797.838,2102.984 
			797.775,2102.984 797.664,2102.984 797.664,2102.842 797.712,2102.842 797.696,2102.716 797.696,2102.652 797.664,2101.957 
			798.107,2101.941 		"/>
		<polygon style="fill:#D7876E;" points="784.322,2076.441 784.337,2076.599 784.369,2076.883 784.401,2077.136 784.417,2077.247 
			784.448,2077.531 784.48,2077.769 784.511,2078.021 784.543,2078.306 784.559,2078.354 784.29,2078.733 784.274,2078.717 
			784.179,2078.844 784.1,2078.938 783.958,2079.16 783.895,2079.239 783.863,2079.286 783.8,2079.381 783.737,2079.476 
			783.721,2079.476 783.563,2079.697 783.5,2079.776 783.452,2079.855 783.057,2080.393 783.041,2080.425 783.01,2080.472 
			781.318,2079.223 781.176,2079.112 780.749,2078.796 780.591,2078.67 780.512,2078.606 780.575,2078.527 780.607,2078.48 
			780.78,2078.259 780.875,2078.116 781.065,2077.864 781.191,2077.705 781.35,2077.484 781.476,2077.31 781.603,2077.136 
			781.682,2077.026 781.792,2076.883 781.808,2076.836 781.855,2076.788 781.887,2076.741 781.903,2076.709 782.061,2076.504 
			782.187,2076.33 782.219,2076.298 782.314,2076.172 782.504,2075.919 782.598,2075.792 782.93,2075.334 		"/>
		<polygon style="fill:#D7876E;" points="787.556,2080.402 787.603,2080.924 787.651,2081.524 787.714,2082.251 787.224,2082.536 
			787.334,2082.726 786.829,2083.073 786.813,2083.042 786.797,2083.01 786.671,2082.805 786.196,2083.073 785.69,2082.694 
			785.185,2082.346 784.631,2081.919 784.347,2081.73 783.999,2081.461 783.967,2081.524 783.983,2081.524 783.983,2081.54 
			783.951,2081.572 783.951,2081.603 783.92,2081.603 783.92,2081.572 783.604,2081.366 783.477,2081.271 783.667,2081.018 
			783.477,2080.892 783.445,2080.908 783.43,2080.908 783.398,2080.876 783.398,2080.844 783.414,2080.829 783.445,2080.813 
			783.461,2080.813 783.635,2080.56 783.967,2080.117 784.173,2079.801 784.236,2079.738 784.584,2079.263 784.758,2079.01 
			784.837,2078.884 784.995,2078.884 785.121,2078.884 785.137,2078.868 785.406,2078.853 785.58,2078.853 785.643,2078.853 
			785.912,2078.821 786.007,2078.821 786.497,2078.773 786.655,2078.758 786.908,2078.742 786.971,2078.726 787.002,2078.726 
			787.161,2078.694 787.398,2078.678 787.445,2079.153 787.508,2079.88 		"/>
		<polygon style="fill:#D7876E;" points="786.86,2109.491 786.844,2109.57 786.655,2110.344 786.655,2110.36 786.607,2110.36 
			785.991,2110.218 786.007,2110.139 786.18,2109.427 786.228,2109.412 786.291,2109.38 		"/>
		<polygon style="fill:#D7876E;" points="798.116,2101.966 798.116,2102.061 798.116,2102.25 798.116,2102.377 798.132,2102.724 
			798.132,2102.819 798.132,2102.835 798.148,2102.835 798.163,2102.835 798.163,2102.978 797.863,2102.993 797.816,2102.993 
			797.768,2102.993 797.658,2102.993 797.658,2102.851 797.689,2102.851 797.689,2102.724 797.689,2102.661 797.658,2101.966 
			798.1,2101.95 		"/>
		<polygon style="fill:#D7876E;" points="784.299,2076.449 784.331,2076.608 784.362,2076.892 784.394,2077.145 784.41,2077.256 
			784.441,2077.54 784.473,2077.777 784.505,2078.03 784.521,2078.315 784.536,2078.362 784.283,2078.742 784.252,2078.726 
			784.173,2078.853 784.094,2078.947 783.936,2079.169 783.888,2079.248 783.857,2079.295 783.777,2079.39 783.714,2079.485 
			783.54,2079.706 783.493,2079.785 783.43,2079.864 783.05,2080.402 783.019,2080.433 782.987,2080.481 781.311,2079.232 
			781.169,2079.121 780.742,2078.805 780.584,2078.678 780.489,2078.615 780.568,2078.536 780.6,2078.489 780.758,2078.268 
			780.869,2078.125 781.058,2077.872 781.169,2077.714 781.327,2077.493 781.469,2077.319 781.596,2077.145 781.675,2077.034 
			781.786,2076.892 781.801,2076.845 781.833,2076.797 781.88,2076.75 781.896,2076.718 782.039,2076.513 782.181,2076.339 
			782.197,2076.307 782.307,2076.181 782.497,2075.928 782.592,2075.801 782.908,2075.343 		"/>
		<polygon style="fill:#D7876E;" points="723.972,2016.909 723.685,2016.591 723.765,2016.543 724.195,2016.192 724.227,2016.177 
			724.275,2016.129 724.514,2015.922 724.593,2015.985 724.816,2016.161 724.864,2016.208 724.673,2016.352 724.529,2016.463 
			724.482,2016.511 724.322,2016.638 724.052,2016.861 		"/>
		<polygon style="fill:#D7876E;" points="703.234,1974.333 703.568,1974.444 703.68,1974.476 703.728,1974.524 703.775,1974.524 
			703.823,1974.54 704.094,1974.635 704.206,1974.667 704.604,1974.81 704.795,1974.874 705.018,1974.938 705.4,1975.081 
			705.782,1975.161 705.559,1976.371 705.432,1976.355 704.651,1976.324 704.636,1976.531 704.206,1976.515 703.043,1976.451 
			702.724,1976.435 702.772,1976.117 702.852,1975.559 703.027,1974.269 		"/>
		<polygon style="fill:#D7876E;" points="680.123,1963.836 680.983,1963.947 681.094,1963.979 681.922,1964.107 682.066,1964.138 
			682.544,1964.218 682.607,1965.253 682.958,1965.253 683.117,1966.862 682.321,1966.464 681.827,1966.655 681.206,1966.894 
			680.298,1967.244 679.931,1968.391 679.868,1968.375 679.724,1968.296 679.645,1968.264 679.549,1968.216 679.342,1968.073 
			679.183,1967.977 679.008,1967.866 678.96,1967.834 678.689,1967.674 678.402,1967.499 678.1,1967.308 677.797,1967.133 
			677.909,1966.798 677.972,1966.591 678.259,1965.747 678.37,1965.365 678.466,1965.046 678.53,1964.823 678.578,1964.664 
			678.641,1964.489 678.721,1964.234 678.832,1963.899 678.896,1963.645 		"/>
		<polygon style="fill:#D7876E;" points="635.307,1987.187 635.53,1987.426 635.706,1987.585 635.801,1987.681 636.231,1987.776 
			636.359,1987.808 636.422,1987.999 636.534,1988.174 636.566,1988.286 636.661,1988.318 636.805,1988.477 636.9,1988.541 
			637.028,1988.907 637.076,1989.082 637.139,1989.21 637.203,1989.417 637.155,1989.831 637.06,1990.293 636.932,1990.818 
			636.884,1991.169 636.821,1991.87 636.789,1992.252 636.725,1992.443 636.661,1992.571 636.502,1992.81 636.168,1993.303 
			635.976,1993.574 635.833,1993.255 635.61,1992.73 635.53,1992.491 635.451,1992.188 635.371,1991.902 635.292,1991.599 
			635.212,1991.169 635.18,1990.962 635.228,1990.325 635.26,1989.911 635.307,1989.401 634.702,1989.178 634.559,1989.13 
			633.985,1988.923 633.683,1988.764 633.301,1988.461 632.95,1988.047 632.663,1987.681 632.552,1987.569 632.361,1987.426 
			632.154,1987.266 631.517,1987.235 631.214,1987.235 631.007,1987.266 630.816,1987.298 630.625,1987.282 630.402,1987.266 
			630.593,1987.187 630.704,1987.091 631.612,1985.18 631.819,1984.989 632.042,1985.196 632.711,1985.626 632.775,1985.912 
			632.982,1986.088 633.332,1986.151 633.38,1986.534 633.412,1986.725 633.587,1986.836 633.683,1986.884 633.842,1986.98 
			633.858,1987.027 634.033,1987.123 634.256,1987.235 634.368,1987.298 634.607,1987.489 634.686,1987.505 634.782,1987.537 
			634.941,1987.25 635.021,1987.075 635.084,1987.012 635.18,1987.012 		"/>
		<polygon style="fill:#D7876E;" points="680.144,1963.836 680.989,1963.947 681.116,1963.979 681.944,1964.107 682.088,1964.138 
			682.565,1964.218 682.629,1965.253 682.98,1965.253 683.123,1966.862 682.343,1966.464 681.849,1966.655 681.228,1966.894 
			680.304,1967.244 679.937,1968.391 679.89,1968.375 679.73,1968.296 679.667,1968.264 679.555,1968.216 679.364,1968.073 
			679.205,1967.977 679.029,1967.866 678.966,1967.834 678.711,1967.674 678.408,1967.499 678.106,1967.308 677.819,1967.133 
			677.93,1966.798 677.994,1966.591 678.281,1965.747 678.392,1965.365 678.488,1965.046 678.552,1964.823 678.599,1964.664 
			678.663,1964.489 678.743,1964.234 678.838,1963.899 678.918,1963.645 		"/>
		<polygon style="fill:#D7876E;" points="638.35,2002.382 637.872,2003.083 637.713,2003.227 637.394,2003.689 636.677,2003.259 
			637.617,2001.857 637.649,2001.873 637.888,2002.048 638.047,2002.159 		"/>
		<polygon style="fill:#D7876E;" points="720.618,1944.605 720.124,1944.908 719.949,1944.956 719.79,1944.988 719.471,1944.972 
			719.582,1944.797 719.614,1944.749 719.885,1944.239 720.06,1943.92 720.14,1944.016 		"/>
		<polygon style="fill:#D7876E;" points="680.129,1963.815 680.989,1963.942 681.101,1963.958 681.929,1964.102 682.072,1964.134 
			682.55,1964.213 682.614,1965.249 682.964,1965.233 683.124,1966.841 682.327,1966.459 681.833,1966.634 681.212,1966.873 
			680.304,1967.224 679.938,1968.386 679.874,1968.355 679.731,1968.291 679.651,1968.243 679.556,1968.195 679.349,1968.068 
			679.189,1967.956 679.014,1967.845 678.966,1967.813 678.696,1967.654 678.409,1967.479 678.106,1967.303 677.804,1967.128 
			677.915,1966.794 677.979,1966.587 678.266,1965.726 678.377,1965.344 678.473,1965.026 678.536,1964.803 678.584,1964.659 
			678.648,1964.484 678.727,1964.213 678.839,1963.879 678.903,1963.64 		"/>
		<polygon style="fill:#D7876E;" points="680.13,1963.825 680.974,1963.952 681.101,1963.968 681.93,1964.112 682.073,1964.144 
			682.551,1964.223 682.615,1965.259 682.965,1965.243 683.108,1966.851 682.328,1966.469 681.834,1966.644 681.213,1966.883 
			680.289,1967.234 679.923,1968.396 679.875,1968.365 679.716,1968.301 679.652,1968.253 679.54,1968.205 679.349,1968.078 
			679.19,1967.966 679.015,1967.855 678.951,1967.823 678.696,1967.664 678.394,1967.489 678.091,1967.313 677.804,1967.138 
			677.916,1966.804 677.979,1966.597 678.266,1965.736 678.378,1965.354 678.473,1965.036 678.537,1964.813 678.585,1964.669 
			678.648,1964.494 678.728,1964.223 678.824,1963.889 678.903,1963.65 		"/>
		<polygon style="fill:#D7876E;" points="772.661,1913.172 773.061,1913.141 773.348,1913.141 773.348,1913.109 774.099,1913.141 
			775.585,1913.188 775.537,1914.083 775.474,1915.234 775.346,1915.218 775.282,1915.218 775.234,1915.218 775.186,1915.234 
			775.138,1915.266 775.09,1915.314 775.042,1915.378 774.946,1915.49 774.882,1915.569 774.834,1915.522 774.563,1915.538 
			774.403,1916.161 773.987,1916.768 773.971,1916.752 773.572,1916.592 773.556,1916.576 773.38,1916.512 773.316,1916.48 
			771.558,1915.777 771.415,1915.713 770.887,1915.506 770.648,1915.426 770.616,1915.41 770.616,1914.691 770.6,1914.675 
			770.632,1914.275 770.632,1914.163 770.648,1913.748 771.463,1913.78 771.51,1913.077 		"/>
		<polygon style="fill:#D7876E;" points="809.112,1852.16 809.064,1852.495 809.016,1852.799 808.936,1852.799 808.441,1852.815 
			808.473,1852.112 809,1852.144 		"/>
		<polygon style="fill:#D7876E;" points="746.406,1906.158 746.055,1906.254 746.007,1906.254 745.975,1906.254 745.943,1906.206 
			745.943,1906.174 745.959,1906.094 745.991,1905.998 746.007,1905.966 746.31,1905.871 		"/>
		<polygon style="fill:#D7876E;" points="776.992,1866.67 777.248,1866.686 777.264,1866.958 777.088,1866.958 776.992,1866.974 
			777.056,1868.828 777.152,1868.828 777.296,1868.828 777.36,1869.563 777.184,1869.579 777.088,1869.579 777.168,1872.279 
			777.28,1872.295 777.424,1872.295 777.44,1873.51 777.264,1873.478 777.2,1873.462 777.216,1873.973 777.264,1875.539 
			777.264,1875.555 775.889,1875.172 775.873,1875.156 775.857,1875.156 775.666,1874.693 775.394,1874.213 775.33,1874.085 
			775.442,1873.606 775.538,1873.094 775.49,1873.078 775.474,1873.062 775.426,1873.047 775.346,1873.031 775.154,1872.967 
			774.995,1872.919 775.202,1870.825 774.467,1870.729 774.611,1869.499 773.636,1869.307 773.684,1868.972 773.876,1867.677 
			774.02,1866.686 774.02,1866.638 774.036,1866.574 774.068,1866.383 		"/>
		<polygon style="fill:#D7876E;" points="747.749,1872.455 747.605,1872.615 746.087,1874.421 746.039,1874.469 745.751,1874.836 
			745.527,1874.645 745.831,1874.293 745.847,1874.261 745.927,1873.75 746.151,1872.247 746.582,1872.359 746.662,1872.056 
			746.854,1872.12 746.95,1872.152 746.95,1872.184 747.333,1872.311 747.397,1872.327 747.669,1872.423 		"/>
		<polygon style="fill:#D7876E;" points="748.931,1903.905 748.883,1904.081 748.5,1903.937 748.548,1903.777 		"/>
		<polygon style="fill:#D7876E;" points="772.661,1913.158 773.061,1913.126 773.349,1913.142 773.349,1913.11 774.1,1913.126 
			775.586,1913.174 775.538,1914.069 775.474,1915.235 775.346,1915.219 775.282,1915.219 775.234,1915.219 775.186,1915.235 
			775.138,1915.251 775.09,1915.315 775.042,1915.363 774.947,1915.491 774.883,1915.555 774.835,1915.507 774.563,1915.539 
			774.403,1916.162 773.988,1916.753 773.972,1916.753 773.572,1916.578 773.556,1916.578 773.381,1916.498 773.317,1916.466 
			771.559,1915.763 771.415,1915.699 770.888,1915.507 770.648,1915.411 770.616,1915.395 770.616,1914.692 770.6,1914.66 
			770.632,1914.26 770.632,1914.148 770.648,1913.733 771.463,1913.765 771.511,1913.062 		"/>
		<polygon style="fill:#D7876E;" points="809.127,1852.158 809.063,1852.494 809.031,1852.798 808.951,1852.798 808.44,1852.814 
			808.472,1852.11 809.015,1852.142 		"/>
		<polygon style="fill:#D7876E;" points="894.56,1615.72 893.211,1615.814 891.972,1615.908 891.972,1615.406 891.956,1615.077 
			891.956,1614.967 892.364,1614.951 892.348,1614.606 892.536,1614.59 893.54,1614.528 893.509,1613.994 894.262,1613.979 
			894.309,1614.261 894.529,1615.516 894.529,1615.532 		"/>
		<polygon style="fill:#D7876E;" points="912.585,1601.162 912.491,1601.13 912.067,1600.942 912.193,1600.66 912.208,1600.613 
			912.71,1600.817 		"/>
		<polygon style="fill:#D7876E;" points="950.203,1577.442 951.207,1578.069 951.113,1578.195 950.861,1578.556 950.171,1578.085 
			949.858,1577.865 949.607,1577.724 949.654,1577.567 949.669,1577.363 949.622,1577.128 		"/>
		<polygon style="fill:#D7876E;" points="954.046,1597.899 952.885,1597.804 952.728,1597.365 952.917,1596.518 954.015,1596.926 		
			"/>
		<polygon style="fill:#D7876E;" points="906.514,1582.634 905.792,1582.305 905.902,1582.101 906.529,1582.399 906.624,1582.431 		
			"/>
		<polygon style="fill:#D7876E;" points="912.71,1613.414 911.236,1614.732 910.781,1614.167 911.424,1613.586 911.69,1613.79 
			912.004,1613.492 911.753,1613.288 912.224,1612.865 912.694,1613.398 		"/>
		<polygon style="fill:#D7876E;" points="912.004,1612.52 911.675,1612.818 911.643,1612.849 911.424,1612.614 911.706,1612.3 
			911.738,1612.316 911.816,1612.316 		"/>
		<polygon style="fill:#D7876E;" points="909.432,1620.505 909.432,1620.489 909.432,1620.473 909.447,1620.473 909.494,1620.332 
			909.526,1620.175 909.541,1620.018 909.526,1619.877 909.479,1619.72 909.416,1619.595 909.322,1619.469 909.212,1619.359 
			909.086,1619.265 908.945,1619.203 908.788,1619.171 908.647,1619.156 908.553,1619.156 908.459,1619.171 909.416,1620.505 		"/>
		<polygon style="fill:#D7876E;" points="950.046,1561.378 949.763,1561.691 949.638,1561.848 949.575,1561.911 947.771,1560.468 
			947.661,1560.374 947.74,1560.295 948.053,1559.934 948.195,1559.777 948.304,1559.871 948.304,1559.887 		"/>
		<polygon style="fill:#D7876E;" points="950.211,1577.437 951.215,1578.065 951.121,1578.19 950.854,1578.551 950.164,1578.08 
			949.85,1577.861 949.615,1577.72 949.646,1577.563 949.662,1577.359 949.615,1577.124 		"/>
		<polygon style="fill:#D7876E;" points="954.039,1597.894 952.893,1597.8 952.721,1597.361 952.925,1596.514 954.007,1596.922 		
			"/>
		<polygon style="fill:#D7876E;" points="950.038,1561.373 949.756,1561.687 949.63,1561.844 949.568,1561.906 947.779,1560.463 
			947.67,1560.369 947.732,1560.291 948.046,1559.93 948.187,1559.773 948.297,1559.867 948.313,1559.883 		"/>
		<polygon style="fill:#D7876E;" points="816.958,1739.934 816.749,1739.95 816.445,1739.838 814.953,1738.763 815.274,1738.394 
			815.707,1737.865 816.236,1737.224 816.958,1736.326 		"/>
		<polygon style="fill:#D7876E;" points="810.383,1770.563 810.319,1770.884 809.694,1770.723 809.758,1770.403 		"/>
		<polygon style="fill:#D7876E;" points="823.096,1728.93 822.775,1729.683 822.342,1729.507 822.486,1729.186 822.663,1728.769 		
			"/>
		<polygon style="fill:#D7876E;" points="818.975,1737.124 819.167,1737.252 819.44,1737.429 819.52,1737.477 819.552,1737.509 
			818.991,1738.247 818.061,1739.369 817.804,1739.69 817.66,1739.85 817.644,1739.85 817.483,1739.882 817.098,1739.93 
			816.762,1739.946 816.441,1739.834 814.95,1738.76 815.27,1738.391 815.703,1737.862 816.233,1737.22 817.131,1736.098 
			817.147,1736.098 817.243,1735.969 817.419,1736.082 817.435,1736.114 818.189,1736.595 818.959,1737.076 		"/>
		<polygon style="fill:#D7876E;" points="879.686,1765.284 880.055,1765.348 880.664,1765.364 880.648,1766.727 879.349,1766.759 
			879.333,1766.759 879.397,1766.518 879.461,1766.262 879.541,1766.246 879.605,1766.198 879.702,1766.118 879.766,1766.005 
			879.782,1765.877 879.782,1765.861 879.766,1765.781 879.734,1765.669 879.654,1765.588 879.622,1765.556 879.67,1765.38 
			879.686,1765.284 		"/>
		<polygon style="fill:#D7876E;" points="810.396,1770.56 810.315,1770.88 809.706,1770.72 809.77,1770.399 		"/>
		<polygon style="fill:#D7876E;" points="840.071,1648.777 839.124,1650.863 838.899,1650.75 837.969,1650.285 837.343,1649.98 
			837.295,1649.948 837.086,1649.852 836.653,1649.627 835.049,1648.825 835.578,1647.461 835.642,1647.493 835.723,1647.268 
			835.658,1647.252 835.835,1646.771 837.921,1647.75 838.097,1647.846 		"/>
		<polygon style="fill:#D7876E;" points="831.664,1634.097 830.878,1634.401 830.798,1634.193 831.584,1633.888 831.648,1634.064 		
			"/>
		<polygon style="fill:#D7876E;" points="837.713,1625.929 837.296,1627.534 837.232,1627.807 835.547,1627.357 834.215,1626.988 
			834.167,1626.716 834.279,1626.748 834.745,1625.143 		"/>
		<polygon style="fill:#D7876E;" points="840.072,1648.778 839.125,1650.864 838.9,1650.752 837.97,1650.302 837.344,1649.982 
			837.296,1649.95 837.087,1649.853 836.654,1649.629 835.049,1648.842 835.579,1647.479 835.643,1647.495 835.723,1647.286 
			835.659,1647.254 835.836,1646.789 837.922,1647.767 838.098,1647.848 		"/>
		<polygon style="fill:#D7876E;" points="818.972,1531.678 819.245,1530.812 819.614,1530.94 819.341,1531.79 		"/>
		<polygon style="fill:#D7876E;" points="686.633,1868.998 686.183,1868.596 686.295,1868.467 686.344,1868.403 686.44,1868.467 
			686.826,1868.756 		"/>
		<polygon style="fill:#D7876E;" points="777.192,1805.318 776.373,1805.398 776.148,1805.43 776.148,1805.254 776.132,1804.948 
			776.1,1804.145 776.469,1804.129 776.983,1804.097 777.144,1804.08 		"/>
		<polygon style="fill:#D7876E;" points="725.742,1818.253 725.55,1818.333 725.035,1817.305 725.244,1817.208 		"/>
		<polygon style="fill:#D7876E;" points="781.354,1829.597 781.354,1829.63 781.354,1830.24 781.354,1830.353 781.354,1830.401 
			781.193,1830.401 781.145,1830.401 780.968,1830.401 780.759,1830.401 780.615,1830.417 780.47,1830.433 780.374,1830.449 
			780.229,1830.481 780.085,1830.513 779.956,1830.545 779.731,1830.626 779.619,1830.658 779.506,1830.706 779.41,1830.754 
			779.313,1830.786 779.265,1830.819 779.201,1830.835 779.137,1830.883 778.976,1830.979 778.751,1831.14 778.478,1831.397 
			778.301,1831.558 777.996,1831.927 777.803,1832.265 777.674,1832.538 777.594,1832.715 777.498,1833.02 777.498,1831.895 
			777.224,1831.895 777.032,1831.927 777.016,1831.606 777.016,1831.381 776.999,1831.172 776.967,1830.16 776.967,1830.144 
			776.967,1829.806 777.176,1829.79 777.706,1829.758 778.092,1829.742 779.313,1829.678 779.683,1829.71 780.117,1829.662 
			780.583,1829.646 780.599,1829.646 781.354,1829.597 		"/>
		<polygon style="fill:#D7876E;" points="712.631,1791.258 710.205,1792.559 709.996,1792.672 712.599,1791.226 		"/>
		<polygon style="fill:#D7876E;" points="710.976,1787.819 711.153,1788.205 711.86,1789.683 711.972,1789.924 712.245,1790.486 
			712.374,1790.727 712.438,1790.888 708.598,1793.009 708.566,1792.961 708.485,1792.784 708.003,1791.708 706.573,1788.494 
			706.525,1788.398 706.605,1788.221 706.686,1788.173 706.702,1788.189 706.718,1788.189 706.734,1788.173 706.75,1788.173 
			706.766,1788.173 706.782,1788.156 706.782,1788.14 706.798,1788.14 708.485,1787.466 709.498,1787.064 710.43,1786.694 
			710.446,1786.743 		"/>
		<polygon style="fill:#D7876E;" points="712.456,1791.277 710.046,1792.579 709.821,1792.691 712.44,1791.245 		"/>
		<polygon style="fill:#D7876E;" points="710.801,1787.838 710.978,1788.208 711.701,1789.686 711.813,1789.927 712.086,1790.506 
			712.199,1790.747 712.279,1790.907 708.423,1793.029 708.391,1792.98 708.31,1792.804 707.828,1791.727 706.398,1788.513 
			706.35,1788.401 706.43,1788.224 706.511,1788.192 706.527,1788.192 706.543,1788.192 706.559,1788.192 706.575,1788.192 
			706.591,1788.176 706.607,1788.16 706.607,1788.144 708.31,1787.485 709.323,1787.083 710.255,1786.698 710.287,1786.746 		"/>
		<polygon style="fill:#D7876E;" points="709.949,1750.093 709.821,1750.334 709.805,1750.366 709.692,1750.559 709.628,1750.608 
			709.548,1750.672 709.451,1750.688 709.323,1750.656 709.049,1750.527 709.033,1750.575 708.68,1750.383 708.535,1750.286 
			707.812,1749.884 707.427,1749.659 707.346,1749.579 707.282,1749.451 707.298,1749.354 707.314,1749.258 707.394,1749.113 
			707.411,1749.081 707.587,1748.776 709.162,1749.659 		"/>
		<polygon style="fill:#D7876E;" points="778.737,1731.052 778.672,1731.197 777.997,1732.53 777.435,1732.322 777.162,1732.177 
			777.483,1731.502 777.531,1731.39 777.483,1731.261 777.387,1731.213 777.66,1730.715 777.756,1730.522 		"/>
		<polygon style="fill:#D7876E;" points="779.797,1729.718 779.781,1729.75 779.556,1730.2 779.395,1730.12 778.978,1729.895 
			778.447,1729.622 778.319,1729.558 778.544,1729.092 		"/>
		<polygon style="fill:#D7876E;" points="771.827,1724.368 772.181,1724.416 772.181,1724.657 772.213,1725.766 772.518,1725.766 
			772.518,1725.798 772.534,1726.585 772.534,1726.714 772.534,1727.099 772.534,1727.292 772.197,1727.292 771.201,1727.276 
			771.185,1724.657 771.185,1724.448 771.185,1724.287 		"/>
		<polygon style="fill:#D7876E;" points="711.187,1682.123 711.154,1682.075 711.026,1681.963 710.929,1681.898 710.721,1681.882 
			710.544,1681.882 710.367,1681.818 710.158,1681.754 709.933,1681.689 709.853,1681.625 709.499,1681.529 709.419,1681.497 
			709.901,1680.532 711.347,1680.966 711.829,1681.175 712.102,1681.448 711.669,1682.284 		"/>
		<polygon style="fill:#D7876E;" points="691.069,1763.43 691.053,1764.314 690.266,1764.298 689.72,1764.298 689.736,1763.318 
			690.266,1763.318 690.266,1763.302 690.796,1763.286 690.876,1763.318 		"/>
		<polygon style="fill:#D7876E;" points="735.16,1738.138 735.08,1738.315 734.871,1738.765 734.63,1739.183 734.485,1739.359 
			734.389,1739.488 734.308,1739.6 734.196,1739.777 734.1,1740.099 734.019,1740.404 733.232,1743.184 732.396,1742.943 
			732.541,1742.461 732.846,1741.416 733.328,1739.809 733.441,1739.472 733.441,1739.456 733.505,1739.263 733.569,1739.038 
			733.907,1738.01 734.292,1738.026 734.726,1737.978 		"/>
	</g>
</g>
</svg>
