<?xml version="1.0" encoding="iso-8859-1"?>
<!-- Generator: Adobe Illustrator 17.0.0, SVG Export Plug-In . SVG Version: 6.00 Build 0)  -->
<!DOCTYPE svg PUBLIC "-//W3C//DTD SVG 1.1//EN" "http://www.w3.org/Graphics/SVG/1.1/DTD/svg11.dtd">
<svg version="1.1" xmlns="http://www.w3.org/2000/svg" xmlns:xlink="http://www.w3.org/1999/xlink" x="0px" y="0px" width="1840px"
	 height="2400px" viewBox="0 0 1840 2400" style="enable-background:new 0 0 1840 2400;" xml:space="preserve">
<g id="Layer_114">
	<rect style="fill:none;" width="1840" height="2400"/>
	<rect style="fill:none;" width="1840" height="2400"/>
	<rect style="fill:none;" width="1840" height="2400"/>
	<rect style="fill:none;" width="1840" height="2400"/>
	<rect style="fill:none;" width="1840" height="2400"/>
	<rect style="fill:none;" width="1840" height="2400"/>
	<rect style="fill:none;" width="1840" height="2400"/>
	<rect style="fill:none;" width="1840" height="2400"/>
	<rect style="fill:none;" width="1840" height="2400"/>
	<rect style="fill:none;" width="1840" height="2400"/>
	<rect style="fill:none;" width="1840" height="2400"/>
	<rect style="fill:none;" width="1840" height="2400"/>
	<rect style="fill:none;" width="1840" height="2400"/>
	<rect style="fill:none;" width="1840" height="2400"/>
	<rect style="fill:none;" width="1840" height="2400"/>
	<rect style="fill:none;" width="1840" height="2400"/>
	<rect style="fill:none;" width="1840" height="2400"/>
	<rect style="fill:none;" width="1840" height="2400"/>
	<rect style="fill:none;" width="1840" height="2400"/>
	<rect style="fill:none;" width="1840" height="2400"/>
	<rect style="fill:none;" width="1840" height="2400"/>
</g>
<g id="GS">
	<g id="MUNICIPAL_x5F_MARKET_1_">
		<polygon style="fill:#3F5EAB;" points="805.26,2015.047 805.292,2015.497 805.308,2015.979 805.308,2016.67 805.308,2016.783 
			805.308,2016.879 804.89,2016.895 804.456,2016.895 804.118,2016.895 804.102,2016.317 804.102,2016.059 804.102,2016.011 
			804.086,2015.802 804.086,2015.786 804.086,2015.593 804.038,2014.983 804.199,2014.983 804.488,2015.015 805.243,2015.047 		"/>
		<polygon style="fill:#3F5EAB;" points="808.249,1981.901 807.847,1981.789 807.719,1981.757 806.963,1981.548 806.867,1981.516 
			806.658,1981.451 806.513,1981.419 806.304,1981.355 806.16,1981.323 806.224,1981.082 806.819,1979.137 806.931,1979.169 
			807.124,1979.217 807.606,1979.362 808.506,1979.603 808.908,1979.715 808.651,1980.551 808.619,1980.68 808.539,1980.985 
			808.49,1981.114 		"/>
		<polygon style="fill:#3F5EAB;" points="798.358,2111.935 795.892,2112.662 795.923,2112.378 795.923,2112.362 796.018,2111.572 
			796.081,2111.018 796.224,2110.907 796.698,2110.939 796.872,2110.955 797.362,2110.828 797.567,2110.749 797.631,2110.734 
			797.71,2110.718 797.82,2110.67 797.868,2110.655 798.089,2110.607 798.136,2110.591 798.279,2110.686 798.295,2110.749 
			798.31,2110.987 798.358,2111.603 798.358,2111.65 798.358,2111.729 		"/>
		<polygon style="fill:#3F5EAB;" points="798.359,2111.847 795.877,2112.574 795.909,2112.29 795.925,2112.274 796.004,2111.483 
			796.067,2110.93 796.225,2110.819 796.684,2110.851 796.873,2110.867 797.363,2110.74 797.569,2110.661 797.616,2110.646 
			797.711,2110.63 797.822,2110.582 797.854,2110.566 798.075,2110.519 798.138,2110.503 798.28,2110.598 798.28,2110.661 
			798.296,2110.898 798.344,2111.515 798.344,2111.562 798.359,2111.642 		"/>
		<polygon style="fill:#3F5EAB;" points="797.585,2048.948 797.585,2050.213 797.38,2050.798 797.19,2051.083 796.984,2051.256 
			796.7,2051.399 791.609,2050.893 791.862,2048.395 792.179,2048.411 792.273,2048.411 792.273,2048.474 793.981,2048.648 
			794.17,2048.664 794.787,2048.727 795.672,2048.806 796.732,2048.917 797.38,2049.011 797.38,2048.932 		"/>
		<polygon style="fill:#3F5EAB;" points="798.36,2111.917 795.894,2112.66 795.925,2112.359 795.925,2112.344 796.02,2111.553 
			796.083,2111.015 796.226,2110.905 796.7,2110.937 796.874,2110.952 797.364,2110.81 797.569,2110.747 797.633,2110.731 
			797.712,2110.699 797.822,2110.668 797.87,2110.652 798.091,2110.589 798.138,2110.573 798.281,2110.668 798.297,2110.731 
			798.312,2110.968 798.36,2111.6 798.36,2111.632 798.36,2111.727 		"/>
		<polygon style="fill:#3F5EAB;" points="790.282,2047.636 790.171,2048.079 790.171,2048.094 790.424,2048.158 790.582,2048.189 
			790.345,2048.996 790.266,2048.964 790.123,2049.549 790.092,2049.628 789.934,2050.26 789.791,2050.94 789.791,2050.972 
			789.697,2051.304 789.112,2051.304 788.4,2051.304 787.389,2051.304 784.938,2051.272 784.907,2051.146 784.875,2050.956 
			784.828,2050.624 784.701,2049.96 784.622,2049.596 784.59,2049.454 784.59,2049.423 784.496,2048.901 784.211,2047.589 
			784.116,2047.146 784.1,2047.146 784.021,2046.846 783.942,2046.482 783.926,2046.292 783.942,2046.213 783.974,2046.166 
			784.258,2045.929 784.622,2045.644 784.575,2045.581 785.681,2044.68 787.373,2043.336 788.464,2042.435 788.479,2042.451 
			788.558,2042.546 788.764,2042.372 788.875,2042.292 789.048,2042.15 789.333,2041.929 789.586,2041.723 789.649,2041.692 
			789.807,2041.629 789.95,2041.613 789.997,2041.613 790.25,2041.66 790.455,2041.723 790.645,2041.866 790.772,2041.992 
			790.835,2042.087 790.961,2042.277 791.072,2042.482 791.167,2042.783 791.23,2043.051 791.23,2043.399 791.214,2043.62 
			791.198,2043.81 791.167,2043.984 791.135,2044.142 791.135,2044.174 791.072,2044.427 790.993,2044.696 790.914,2045.028 
			790.851,2045.281 790.661,2046.055 790.534,2046.593 790.471,2046.83 790.44,2046.925 790.392,2047.162 		"/>
		<polygon style="fill:#3F5EAB;" points="797.563,2048.957 797.579,2050.222 797.373,2050.807 797.183,2051.091 796.962,2051.265 
			796.693,2051.407 791.587,2050.902 791.856,2048.404 792.172,2048.42 792.267,2048.42 792.267,2048.483 793.974,2048.657 
			794.164,2048.673 794.78,2048.736 795.65,2048.815 796.709,2048.926 797.357,2049.02 797.373,2048.941 		"/>
		<polygon style="fill:#3F5EAB;" points="798.353,2111.926 795.871,2112.668 795.903,2112.368 795.919,2112.352 795.998,2111.562 
			796.061,2111.024 796.219,2110.914 796.677,2110.945 796.867,2110.961 797.357,2110.819 797.563,2110.756 797.61,2110.74 
			797.705,2110.708 797.816,2110.677 797.847,2110.661 798.069,2110.597 798.132,2110.582 798.274,2110.677 798.274,2110.74 
			798.29,2110.977 798.337,2111.609 798.337,2111.641 798.353,2111.736 		"/>
		<polygon style="fill:#3F5EAB;" points="790.259,2047.645 790.164,2048.088 790.164,2048.104 790.417,2048.167 790.559,2048.198 
			790.338,2049.005 790.259,2048.973 790.101,2049.558 790.085,2049.637 789.927,2050.269 789.785,2050.949 789.785,2050.981 
			789.69,2051.313 789.105,2051.313 788.394,2051.313 787.366,2051.313 784.916,2051.281 784.9,2051.155 784.868,2050.965 
			784.821,2050.633 784.694,2049.969 784.615,2049.605 784.584,2049.463 784.584,2049.431 784.489,2048.91 784.188,2047.598 
			784.109,2047.155 784.078,2047.155 783.999,2046.854 783.936,2046.491 783.904,2046.301 783.92,2046.222 783.967,2046.175 
			784.252,2045.938 784.615,2045.653 784.568,2045.59 785.674,2044.689 787.366,2043.345 788.441,2042.444 788.473,2042.459 
			788.552,2042.554 788.757,2042.38 788.868,2042.301 789.042,2042.159 789.311,2041.938 789.579,2041.732 789.627,2041.701 
			789.785,2041.637 789.943,2041.622 789.99,2041.622 790.243,2041.669 790.433,2041.732 790.638,2041.875 790.765,2042.001 
			790.828,2042.096 790.955,2042.286 791.049,2042.491 791.16,2042.792 791.208,2043.06 791.208,2043.408 791.192,2043.629 
			791.192,2043.819 791.16,2043.993 791.113,2044.151 791.113,2044.183 791.065,2044.436 790.986,2044.704 790.907,2045.036 
			790.844,2045.289 790.654,2046.064 790.512,2046.602 790.465,2046.839 790.433,2046.934 790.37,2047.171 		"/>
		<polygon style="fill:#3F5EAB;" points="695.318,1955.84 695.286,1955.951 695.222,1956.126 695.174,1956.27 695.111,1956.413 
			695.063,1956.556 694.681,1956.445 692.849,1956.031 693.056,1955.25 693.183,1955.282 693.884,1955.441 694.697,1955.664 		"/>
		<polygon style="fill:#3F5EAB;" points="710.274,1969.666 710.242,1969.777 710.067,1970.542 710.035,1970.669 709.908,1971.163 
			709.892,1971.29 709.844,1971.45 709.764,1971.704 709.701,1971.832 709.589,1972.055 709.541,1972.166 709.462,1972.357 
			709.318,1972.644 709.223,1972.835 709.127,1973.042 709.048,1973.218 708.856,1973.616 708.633,1974.078 708.363,1974.651 
			708.028,1975.336 707.837,1975.766 707.821,1975.75 707.55,1975.687 706.897,1975.479 706.627,1975.4 706.308,1975.272 
			706.005,1975.129 705.878,1975.081 706.085,1974.54 706.467,1973.68 706.993,1972.437 707.503,1971.242 707.71,1970.685 
			707.837,1970.382 708.06,1969.857 708.076,1969.793 708.156,1969.586 		"/>
		<polygon style="fill:#3F5EAB;" points="693.062,1956.079 692.855,1956.031 693.062,1955.314 		"/>
		<polygon style="fill:#3F5EAB;" points="593.879,2048.766 593.831,2048.957 593.752,2049.754 593.624,2050.072 593.56,2050.2 
			593.322,2050.486 593.274,2050.534 593.099,2050.295 593.067,2050.263 593.369,2049.77 593.481,2048.686 		"/>
		<polygon style="fill:#3F5EAB;" points="695.324,1955.819 695.292,1955.93 695.229,1956.122 695.181,1956.249 695.117,1956.408 
			695.07,1956.552 694.687,1956.44 692.856,1956.01 693.063,1955.23 693.19,1955.261 693.891,1955.437 694.703,1955.66 		"/>
		<polygon style="fill:#3F5EAB;" points="710.281,1969.661 710.249,1969.756 710.074,1970.537 710.042,1970.664 709.914,1971.158 
			709.898,1971.27 709.851,1971.429 709.771,1971.7 709.707,1971.827 709.596,1972.034 709.548,1972.146 709.468,1972.337 
			709.325,1972.639 709.229,1972.831 709.134,1973.022 709.054,1973.197 708.863,1973.595 708.64,1974.073 708.369,1974.63 
			708.035,1975.331 707.844,1975.745 707.828,1975.729 707.557,1975.666 706.904,1975.459 706.633,1975.395 706.315,1975.252 
			706.012,1975.124 705.885,1975.061 706.092,1974.519 706.474,1973.659 706.999,1972.416 707.509,1971.222 707.716,1970.68 
			707.844,1970.362 708.067,1969.836 708.083,1969.772 708.162,1969.565 		"/>
		<polygon style="fill:#3F5EAB;" points="697.124,1913.051 696.71,1913.099 696.216,1913.195 695.818,1913.258 695.691,1912.303 
			695.643,1911.841 695.945,1911.809 695.882,1911.299 695.977,1911.299 696.344,1911.267 696.71,1911.235 696.774,1911.235 
			696.965,1911.203 696.965,1911.267 		"/>
		<polygon style="fill:#3F5EAB;" points="693.047,1956.068 692.84,1956.02 693.047,1955.303 		"/>
		<polygon style="fill:#3F5EAB;" points="850.851,1942.513 850.915,1942.561 850.979,1942.641 851.011,1942.704 851.059,1942.816 
			851.059,1942.912 851.075,1943.008 851.059,1943.104 851.043,1943.168 851.043,1943.232 849.413,1942.848 848.918,1942.736 
			849.014,1942.321 849.046,1942.129 850.084,1942.353 850.468,1942.449 850.484,1942.417 850.596,1942.449 850.612,1942.465 
			850.819,1942.497 		"/>
		<polygon style="fill:#3F5EAB;" points="747.253,1949.384 747.157,1949.608 746.901,1950.279 746.805,1950.231 745.895,1949.768 
			745.783,1949.704 745.671,1949.656 745.99,1948.841 746.086,1948.889 746.294,1948.969 746.965,1949.256 		"/>
		<polygon style="fill:#3F5EAB;" points="784.774,1908.458 784.726,1908.634 784.614,1908.954 784.518,1909.193 784.374,1909.577 
			784.055,1910.232 783.975,1910.376 783.799,1910.615 783.655,1910.775 783.128,1911.367 782.76,1911.766 782.728,1911.782 
			782.617,1911.926 782.409,1912.15 782.409,1912.022 782.377,1910.951 782.361,1910.647 782.281,1910.232 782.137,1909.385 
			782.105,1908.985 782.073,1908.666 782.073,1908.458 		"/>
		<polygon style="fill:#3F5EAB;" points="776.097,1889.762 773.524,1889.746 773.588,1888.628 774.403,1888.628 775.714,1888.644 
			775.985,1888.612 776.097,1888.596 776.129,1888.612 776.113,1889.363 776.113,1889.411 		"/>
		<polygon style="fill:#3F5EAB;" points="785.493,1905.375 785.653,1905.439 785.605,1905.615 785.509,1905.998 785.477,1906.174 
			785.414,1906.398 785.046,1907.597 784.886,1908.092 784.726,1908.619 784.615,1908.955 784.519,1909.179 784.375,1909.562 
			784.055,1910.217 783.975,1910.377 783.8,1910.601 783.656,1910.761 783.128,1911.352 782.761,1911.751 782.729,1911.783 
			782.617,1911.911 782.409,1912.151 782.409,1912.007 782.377,1910.936 782.361,1910.633 782.281,1910.217 782.138,1909.37 
			782.106,1908.971 782.074,1908.651 782.058,1908.236 782.026,1907.724 782.01,1907.597 782.01,1907.421 782.042,1906.829 
			782.042,1906.67 782.042,1905.934 782.042,1905.775 782.026,1905.487 782.026,1905.343 782.01,1904.784 781.994,1904.448 
			782.058,1904.336 782.058,1904.224 782.058,1904.017 782.106,1904.065 782.361,1904.161 783.112,1904.464 783.272,1904.512 
			783.943,1904.768 784.535,1905.008 784.854,1905.135 785.334,1905.311 785.461,1905.359 		"/>
		<polygon style="fill:#3F5EAB;" points="773.588,1888.628 773.524,1889.746 773.524,1889.81 773.476,1890.657 771.878,1890.401 
			771.878,1890.242 771.91,1889.762 771.926,1889.395 771.926,1889.235 771.926,1889.219 771.942,1889.011 771.974,1888.42 
			771.974,1888.404 773.381,1888.516 773.54,1888.628 		"/>
		<polygon style="fill:#3F5EAB;" points="826.354,1889.585 826.29,1889.585 826.306,1889.505 826.401,1889.121 826.401,1889.073 
			827.025,1889.201 826.961,1889.569 826.929,1889.697 		"/>
		<polygon style="fill:#3F5EAB;" points="915.063,1606.652 917.071,1608.111 916.334,1608.739 916.303,1608.755 915.251,1609.68 
			914.875,1609.147 914.546,1608.676 914.357,1608.441 913.542,1607.5 913.322,1607.421 913.997,1605.884 		"/>
		<polygon style="fill:#3F5EAB;" points="949.042,1535.069 949.01,1535.399 948.367,1535.289 947.379,1535.132 947.552,1534.771 
			948.038,1534.865 949.057,1535.006 		"/>
		<polygon style="fill:#3F5EAB;" points="947.755,1579.575 947.63,1579.732 947.238,1580.203 944.995,1582.807 943.881,1581.897 
			943.771,1581.803 943.52,1581.583 943.41,1581.505 944.163,1580.517 946.014,1578.32 946.124,1578.195 947.285,1579.167 
			947.708,1579.528 		"/>
		<polygon style="fill:#3F5EAB;" points="877.069,1625.164 876.457,1626.278 875.453,1628.051 873.994,1627.282 873.916,1627.235 
			875.782,1624.442 875.861,1624.489 876.363,1624.772 876.535,1624.882 		"/>
		<polygon style="fill:#3F5EAB;" points="976.487,1544.979 975.985,1544.917 976.048,1544.618 976.55,1544.681 		"/>
		<polygon style="fill:#3F5EAB;" points="977.146,1545.434 976.142,1545.309 976.158,1545.152 977.162,1545.293 		"/>
		<polygon style="fill:#3F5EAB;" points="949.05,1535.065 949.003,1535.394 948.36,1535.284 947.372,1535.127 947.544,1534.767 
			948.03,1534.861 949.05,1535.002 		"/>
		<polygon style="fill:#3F5EAB;" points="947.748,1579.571 947.623,1579.728 947.23,1580.198 944.987,1582.802 943.889,1581.893 
			943.779,1581.798 943.513,1581.579 943.403,1581.5 944.156,1580.512 946.022,1578.316 946.132,1578.19 947.277,1579.163 
			947.701,1579.524 		"/>
		<polygon style="fill:#3F5EAB;" points="799.314,1816.167 799.715,1815.205 799.795,1815.012 800.052,1815.093 800.196,1815.141 
			800.212,1815.157 800.228,1815.157 800.902,1815.253 800.934,1815.253 801.463,1815.221 801.479,1815.221 802.521,1815.028 
			803.788,1814.884 804.205,1814.9 804.558,1815.093 804.654,1815.157 804.718,1815.205 804.798,1815.365 804.895,1816.776 
			803.243,1816.792 802.425,1816.712 802.361,1816.696 799.988,1816.295 799.779,1816.247 		"/>
		<polygon style="fill:#3F5EAB;" points="867.209,1774.393 866.504,1775.836 866.456,1775.804 866.247,1775.708 864.643,1774.906 
			864.563,1774.858 864.82,1774.409 865.349,1773.479 		"/>
		<polygon style="fill:#3F5EAB;" points="810.143,1740.319 810.431,1740.383 809.774,1741.746 809.71,1741.874 807.385,1740.88 
			807.288,1740.848 807.272,1740.832 807.818,1739.774 807.85,1739.774 808.202,1739.854 810.014,1740.287 		"/>
		<polygon style="fill:#3F5EAB;" points="816.958,1732.156 816.797,1732.06 816.797,1731.98 816.781,1731.916 816.958,1731.707 		
			"/>
		<polygon style="fill:#3F5EAB;" points="849.507,1737.236 849.33,1737.461 849.17,1737.669 849.154,1737.701 848.993,1737.878 
			848.625,1738.134 847.839,1737.028 847.983,1736.851 848.625,1736.034 849.747,1736.9 		"/>
		<polygon style="fill:#3F5EAB;" points="841.793,1766.358 841.649,1766.39 841.505,1766.406 840.976,1766.486 840.943,1766.294 
			840.879,1765.925 840.767,1765.348 840.783,1765.348 840.719,1764.867 841.264,1764.69 841.28,1764.69 841.376,1764.658 
			841.441,1764.642 841.553,1765.203 841.553,1765.219 		"/>
		<polygon style="fill:#3F5EAB;" points="810.139,1740.315 810.428,1740.379 809.786,1741.742 809.722,1741.871 807.381,1740.877 
			807.301,1740.844 807.285,1740.828 807.814,1739.77 807.846,1739.77 808.199,1739.85 810.011,1740.283 		"/>
		<polygon style="fill:#3F5EAB;" points="867.21,1774.392 866.504,1775.836 866.456,1775.819 866.248,1775.707 864.644,1774.921 
			864.564,1774.873 864.821,1774.424 865.35,1773.478 		"/>
		<polygon style="fill:#3F5EAB;" points="819.119,1732.393 819.055,1732.49 818.606,1733.227 818.413,1733.099 816.794,1732.057 
			816.794,1731.976 816.794,1731.912 816.97,1731.688 817.227,1731.111 817.227,1730.95 		"/>
		<polygon style="fill:#3F5EAB;" points="799.314,1816.167 799.715,1815.205 799.795,1815.012 800.052,1815.093 800.18,1815.141 
			800.212,1815.157 800.902,1815.253 800.918,1815.253 800.934,1815.253 801.463,1815.221 801.479,1815.221 802.521,1815.028 
			803.788,1814.884 804.189,1814.9 804.558,1815.093 804.654,1815.157 804.718,1815.205 804.798,1815.365 804.895,1816.776 
			803.243,1816.792 802.425,1816.712 802.361,1816.696 799.988,1816.295 799.779,1816.247 		"/>
		<polygon style="fill:#3F5EAB;" points="806.745,1710.247 805.494,1709.172 804.932,1708.675 804.788,1708.546 803.392,1707.359 
			802.766,1706.829 801.707,1705.915 802.686,1704.856 807.676,1709.14 807.211,1709.685 		"/>
		<polygon style="fill:#3F5EAB;" points="829.112,1666.507 828.31,1667.774 827.508,1669.058 827.459,1669.042 825.935,1668.031 
			825.903,1668.015 826.481,1667.117 826.994,1666.314 827.09,1666.17 827.556,1665.448 827.604,1665.48 829.016,1666.443 		"/>
		<polygon style="fill:#3F5EAB;" points="839.124,1650.863 839.846,1651.215 839.638,1651.713 839.413,1652.242 838.803,1653.574 
			838.53,1654.168 838.418,1654.409 837.905,1655.516 837.568,1656.222 837.52,1656.302 835.321,1655.339 834.984,1655.179 
			835.129,1654.521 834.599,1654.312 834.214,1654.168 832.834,1653.606 832.802,1653.333 832.786,1653.285 832.77,1653.077 
			832.979,1653.141 833.54,1653.398 833.685,1652.997 833.845,1652.563 834.198,1651.601 837.792,1653.141 838.899,1650.75 		"/>
		<polygon style="fill:#3F5EAB;" points="826.899,1666.476 826.995,1666.316 827.091,1666.188 827.556,1665.449 827.605,1665.482 
			829.017,1666.46 829.049,1666.476 		"/>
		<polygon style="fill:#3F5EAB;" points="839.125,1650.864 839.847,1651.233 839.638,1651.715 839.414,1652.26 838.804,1653.576 
			838.531,1654.186 838.419,1654.41 837.906,1655.517 837.569,1656.223 837.52,1656.32 835.322,1655.357 834.985,1655.196 
			835.13,1654.539 834.6,1654.33 834.215,1654.169 832.835,1653.624 832.803,1653.351 832.787,1653.287 832.771,1653.078 
			832.98,1653.159 833.541,1653.399 833.686,1652.998 833.846,1652.565 834.199,1651.618 837.793,1653.143 838.9,1650.752 		"/>
		<polygon style="fill:#3F5EAB;" points="832.338,1608.071 833.429,1608.327 833.381,1608.552 833.349,1608.68 833.044,1609.707 
			832.739,1610.638 831.889,1610.478 830.958,1610.285 830.364,1610.157 830.14,1610.109 830.204,1609.82 830.252,1609.611 
			830.653,1609.675 830.749,1609.226 830.83,1608.905 830.412,1608.809 830.637,1607.702 830.926,1607.766 831.696,1607.926 		"/>
		<polygon style="fill:#3F5EAB;" points="838.884,1597.93 838.868,1597.978 838.628,1598.909 837.376,1598.572 837.601,1597.593 		
			"/>
		<polygon style="fill:#3F5EAB;" points="806.756,1710.262 805.504,1709.187 804.943,1708.689 804.782,1708.561 803.403,1707.373 
			802.777,1706.844 801.718,1705.929 802.697,1704.87 807.687,1709.154 807.221,1709.7 		"/>
		<polygon style="fill:#3F5EAB;" points="783.683,1673.004 783.603,1673.084 783.475,1673.213 783.443,1673.229 783.346,1673.309 
			783.025,1673.549 782.64,1673.79 782.544,1673.726 781.982,1673.325 781.26,1672.811 781.662,1672.523 782.384,1672.009 
			782.592,1671.993 782.801,1671.977 		"/>
		<polygon style="fill:#3F5EAB;" points="706.88,1771.079 706.27,1770.806 705.916,1770.661 705.868,1770.629 706.173,1770.468 
			705,1769.97 704.824,1769.729 704.422,1768.878 704.518,1768.733 704.583,1768.652 704.888,1768.154 704.92,1768.106 
			704.984,1768.01 706.238,1768.733 706.221,1768.781 707.314,1769.408 707.459,1769.52 707.491,1769.584 707.523,1769.697 
			707.523,1769.793 707.411,1770.131 706.993,1771.143 		"/>
		<polygon style="fill:#3F5EAB;" points="772.615,1730.602 772.116,1730.602 771.956,1730.602 771.827,1730.618 771.699,1730.634 
			771.024,1730.666 770.574,1730.682 770.397,1730.699 770.108,1730.715 770.044,1730.666 770.221,1730.361 770.301,1730.2 
			770.478,1729.911 770.494,1729.879 770.879,1729.156 771.217,1728.561 771.217,1728.417 771.602,1728.417 772.55,1728.401 
			772.55,1728.61 772.534,1728.61 772.55,1728.642 772.583,1729.542 772.583,1729.686 772.599,1729.799 772.615,1730.538 		"/>
		<polygon style="fill:#3F5EAB;" points="733.778,1698.015 733.762,1698.031 733.617,1698.079 733.585,1698.095 733.842,1698.674 
			733.859,1698.658 734.003,1698.61 734.019,1698.594 734.164,1698.915 734.196,1699.011 734.212,1699.14 734.196,1699.236 
			734.164,1699.301 734.148,1699.365 734.035,1699.429 732.669,1700.104 730.806,1701.036 730.789,1701.036 730.757,1701.02 
			730.725,1701.02 730.709,1701.02 730.677,1700.988 730.661,1700.988 730.645,1700.972 730.629,1700.94 730.613,1700.923 
			730.597,1700.891 730.452,1700.522 729.825,1699.06 729.89,1699.027 733.409,1697.517 733.521,1697.469 733.553,1697.453 		"/>
		<polygon style="fill:#3F5EAB;" points="772.197,1727.292 772.245,1728.224 771.602,1728.24 771.12,1728.24 770.767,1728.256 
			770.751,1727.405 770.638,1724.464 770.638,1724.448 771.185,1724.448 771.185,1724.657 771.201,1727.276 		"/>
		<polygon style="fill:#3F5EAB;" points="765.864,1992.068 765.656,1991.667 765.656,1991.41 765.672,1991.41 765.656,1990.752 
			765.239,1990.768 765.223,1990.752 765.11,1990.768 764.886,1990.784 764.87,1990.768 764.501,1990.8 764.421,1990.8 
			764.196,1990.8 764.068,1990.8 764.068,1990.833 764.036,1990.833 763.827,1990.833 763.811,1990.817 763.667,1990.833 
			763.667,1991.169 763.667,1991.185 763.651,1991.201 763.651,1991.218 763.635,1991.234 763.619,1991.234 763.603,1991.234 
			763.33,1991.234 762.736,1991.266 762.111,1991.298 761.95,1991.314 761.902,1991.314 761.886,1991.314 761.87,1991.298 
			761.854,1991.282 761.854,1991.266 761.838,1991.234 761.822,1990.415 761.822,1990.303 761.742,1990.303 761.726,1990.159 
			761.726,1990.078 761.806,1990.078 761.79,1989.918 761.806,1989.838 761.79,1989.228 763.073,1989.196 763.763,1989.164 
			763.811,1989.148 763.827,1989.164 764.036,1989.164 764.052,1989.164 764.052,1989.148 764.1,1989.148 764.116,1989.164 
			764.34,1989.148 764.34,1989.132 764.373,1989.132 764.373,1989.148 764.437,1989.148 764.645,1989.132 764.645,1989.116 
			764.693,1989.116 764.709,1989.132 764.742,1989.132 764.758,1989.116 764.854,1989.116 764.854,1989.132 764.918,1989.132 
			764.918,1989.116 764.966,1989.116 764.982,1989.132 765.207,1989.116 765.223,1989.1 765.255,1989.1 765.255,1989.116 
			765.495,1989.1 765.495,1989.084 765.528,1989.084 765.56,1989.1 766.747,1989.084 766.731,1989.774 766.731,1990.159 
			766.715,1990.496 766.699,1991.426 766.699,1991.603 766.281,1991.795 766.297,1991.859 		"/>
		<polygon style="fill:#3F5EAB;" points="752.342,2060.791 751.251,2061.16 751.267,2061.208 751.283,2061.256 751.331,2061.368 
			750.914,2061.48 750.866,2061.336 750.754,2061.384 750.721,2061.304 750.625,2061.112 750.609,2061.063 750.513,2060.839 
			750.369,2060.422 750.256,2060.181 750.224,2060.117 750.16,2059.989 750.128,2059.908 749.807,2058.962 749.775,2058.85 
			749.775,2058.818 750.304,2058.593 750.593,2058.497 750.802,2058.417 750.994,2058.368 751.283,2058.288 751.427,2058.256 
			751.475,2058.24 751.507,2058.24 751.54,2058.24 751.556,2058.256 751.572,2058.256 751.588,2058.272 751.604,2058.272 
			751.604,2058.288 751.812,2058.962 751.941,2059.395 751.989,2059.588 752.037,2059.716 752.117,2060.021 752.229,2060.438 
			752.277,2060.614 752.326,2060.775 		"/>
		<polygon style="fill:#3F5EAB;" points="748.492,2043.048 748.524,2043.145 748.668,2043.433 748.684,2043.45 748.716,2043.45 
			748.797,2043.61 748.909,2043.77 748.925,2043.802 748.957,2043.899 748.989,2044.027 749.021,2044.091 749.069,2044.171 
			749.085,2044.203 749.053,2044.236 749.133,2044.332 749.23,2044.428 749.326,2044.556 749.342,2044.573 749.47,2044.717 
			749.422,2044.733 749.262,2044.829 749.133,2044.909 748.909,2045.022 748.861,2045.054 748.716,2045.134 748.668,2045.166 
			748.588,2045.198 748.54,2045.134 748.492,2045.038 748.139,2044.412 748.075,2044.3 747.802,2043.818 747.674,2043.61 
			747.625,2043.53 747.577,2043.466 747.561,2043.433 747.834,2043.289 748.107,2043.129 748.299,2043.016 748.395,2042.952 
			748.428,2042.936 		"/>
		<polygon style="fill:#3F5EAB;" points="764.34,2015.585 764.437,2015.697 764.838,2016.179 764.902,2016.259 764.838,2016.307 
			764.357,2016.724 763.827,2017.157 763.827,2017.173 763.683,2017.157 763.603,2017.045 763.426,2016.836 763.282,2016.66 
			763.218,2016.563 763.185,2016.547 763.041,2016.371 763.025,2016.339 762.977,2016.275 762.64,2015.874 762.576,2015.777 
			762.576,2015.681 762.56,2015.665 762.817,2015.457 762.945,2015.36 762.961,2015.344 763.49,2014.911 763.587,2015.024 
			763.651,2015.088 763.747,2015.2 763.988,2015.473 764.164,2015.665 764.18,2015.649 764.196,2015.633 764.308,2015.537 		"/>
	</g>
</g>
</svg>
