<?xml version="1.0" encoding="iso-8859-1"?>
<!-- Generator: Adobe Illustrator 17.0.0, SVG Export Plug-In . SVG Version: 6.00 Build 0)  -->
<!DOCTYPE svg PUBLIC "-//W3C//DTD SVG 1.1//EN" "http://www.w3.org/Graphics/SVG/1.1/DTD/svg11.dtd">
<svg version="1.1" xmlns="http://www.w3.org/2000/svg" xmlns:xlink="http://www.w3.org/1999/xlink" x="0px" y="0px" width="1840px"
	 height="2400px" viewBox="0 0 1840 2400" style="enable-background:new 0 0 1840 2400;" xml:space="preserve">
<g id="Layer_114">
	<rect style="fill:none;" width="1840" height="2400"/>
	<rect style="fill:none;" width="1840" height="2400"/>
	<rect style="fill:none;" width="1840" height="2400"/>
	<rect style="fill:none;" width="1840" height="2400"/>
	<rect style="fill:none;" width="1840" height="2400"/>
	<rect style="fill:none;" width="1840" height="2400"/>
	<rect style="fill:none;" width="1840" height="2400"/>
	<rect style="fill:none;" width="1840" height="2400"/>
	<rect style="fill:none;" width="1840" height="2400"/>
	<rect style="fill:none;" width="1840" height="2400"/>
	<rect style="fill:none;" width="1840" height="2400"/>
	<rect style="fill:none;" width="1840" height="2400"/>
	<rect style="fill:none;" width="1840" height="2400"/>
	<rect style="fill:none;" width="1840" height="2400"/>
	<rect style="fill:none;" width="1840" height="2400"/>
	<rect style="fill:none;" width="1840" height="2400"/>
	<rect style="fill:none;" width="1840" height="2400"/>
	<rect style="fill:none;" width="1840" height="2400"/>
	<rect style="fill:none;" width="1840" height="2400"/>
	<rect style="fill:none;" width="1840" height="2400"/>
	<rect style="fill:none;" width="1840" height="2400"/>
	<rect style="fill:none;" width="1840" height="2400"/>
</g>
<g id="GS">
	<g id="MUNICIPAL_x5F_CHOWKIES_1_">
		<polygon style="fill:#D7876E;" points="753.063,1970.78 753.224,1970.78 753.465,1970.796 753.625,1970.796 753.769,1970.812 
			753.785,1970.812 753.817,1970.812 753.817,1971.181 753.801,1971.229 753.801,1971.342 753.785,1971.775 753.785,1971.903 
			753.849,1971.919 753.849,1971.951 753.833,1972.256 753.833,1972.433 753.817,1972.481 753.817,1972.609 753.817,1972.882 
			753.817,1972.93 753.801,1973.219 753.801,1973.363 753.785,1973.507 753.785,1973.636 753.785,1973.732 753.785,1973.796 
			753.785,1973.86 753.769,1973.924 753.705,1973.924 753.416,1973.941 752.807,1973.989 752.823,1973.684 752.598,1973.684 
			752.646,1972.593 752.678,1971.614 752.711,1970.941 752.711,1970.877 752.727,1970.844 752.743,1970.828 752.759,1970.812 
			752.791,1970.796 752.807,1970.78 752.839,1970.78 752.919,1970.764 		"/>
		<polygon style="fill:#D7876E;" points="765.159,1992.308 764.629,1992.517 764.533,1992.276 764.517,1992.26 765.03,1992.052 
			765.046,1992.052 765.143,1992.276 		"/>
		<polygon style="fill:#D7876E;" points="745.861,2026.381 746.07,2026.686 745.877,2026.766 745.861,2026.75 745.813,2026.75 
			745.588,2026.413 745.524,2026.349 745.46,2026.237 745.428,2026.205 745.668,2026.092 		"/>
		<polygon style="fill:#D7876E;" points="725.713,2025.723 725.649,2025.771 725.424,2025.884 725.376,2025.9 725.312,2025.9 
			725.264,2025.852 724.959,2025.258 725.344,2025.05 725.376,2025.098 725.408,2025.162 		"/>
		<polygon style="fill:#D7876E;" points="769.089,2017.157 768.062,2017.189 767.837,2017.189 767.757,2017.189 767.677,2017.205 
			767.645,2017.205 767.388,2017.205 767.388,2017.189 767.372,2016.788 769.089,2016.74 		"/>
		<polygon style="fill:#D7876E;" points="762.608,1994.297 762.303,1994.442 762.127,1994.153 762.448,1994.009 		"/>
	</g>
</g>
</svg>
