<?xml version="1.0" encoding="iso-8859-1"?>
<!-- Generator: Adobe Illustrator 17.0.0, SVG Export Plug-In . SVG Version: 6.00 Build 0)  -->
<!DOCTYPE svg PUBLIC "-//W3C//DTD SVG 1.1//EN" "http://www.w3.org/Graphics/SVG/1.1/DTD/svg11.dtd">
<svg version="1.1" xmlns="http://www.w3.org/2000/svg" xmlns:xlink="http://www.w3.org/1999/xlink" x="0px" y="0px" width="1840px"
	 height="2400px" viewBox="0 0 1840 2400" style="enable-background:new 0 0 1840 2400;" xml:space="preserve">
<g id="Layer_114">
	<rect style="fill:none;" width="1840" height="2400"/>
	<rect style="fill:none;" width="1840" height="2400"/>
	<rect style="fill:none;" width="1840" height="2400"/>
	<rect style="fill:none;" width="1840" height="2400"/>
	<rect style="fill:none;" width="1840" height="2400"/>
	<rect style="fill:none;" width="1840" height="2400"/>
	<rect style="fill:none;" width="1840" height="2400"/>
	<rect style="fill:none;" width="1840" height="2400"/>
	<rect style="fill:none;" width="1840" height="2400"/>
	<rect style="fill:none;" width="1840" height="2400"/>
	<rect style="fill:none;" width="1840" height="2400"/>
</g>
<g id="GS">
	<g id="Primary_x5F_Activity">
		<polygon style="fill:#D3D3A1;" points="750.096,2008.479 749.486,2007.548 749.438,2007.468 749.262,2007.227 749.278,2007.211 
			749.085,2006.938 749.165,2006.89 749.31,2006.794 749.486,2006.682 749.583,2006.618 750.016,2006.345 750.802,2005.816 
			750.882,2005.751 751.54,2005.286 751.796,2005.094 751.828,2005.078 751.86,2005.126 751.909,2005.238 751.973,2005.334 
			752.823,2006.65 752.903,2006.778 750.256,2008.366 750.224,2008.398 		"/>
		<polygon style="fill:#D3D3A1;" points="671.617,1949.994 671.808,1950.233 672.031,1950.408 671.904,1950.552 671.028,1951.651 
			670.024,1950.934 669.642,1950.376 669.164,1949.596 670.263,1948.433 		"/>
		<polygon style="fill:#D3D3A1;" points="580.993,2051.824 581.057,2052.557 581.009,2052.557 580.977,2052.557 580.675,2052.573 
			580.452,2052.589 580.261,2052.605 580.101,2052.621 580.101,2052.589 579.576,2052.637 579.289,2052.668 579.48,2052.493 
			579.56,2052.207 579.655,2051.984 579.576,2051.936 579.544,2051.426 579.56,2051.362 579.576,2051.155 579.544,2051.124 
			579.401,2051.139 579.401,2051.107 579.401,2051.076 579.401,2050.98 579.385,2050.773 579.464,2050.757 579.464,2050.646 
			579.464,2050.566 580.627,2050.853 580.866,2050.885 580.882,2051.028 580.898,2051.219 580.898,2051.41 580.977,2051.41 
			580.977,2051.458 580.977,2051.665 580.993,2051.713 		"/>
		<polygon style="fill:#D3D3A1;" points="581.328,2046.52 581.28,2046.552 581.185,2046.568 581.025,2046.647 580.786,2046.743 
			580.739,2046.807 580.707,2046.886 580.675,2047.014 580.659,2047.173 580.643,2047.332 580.643,2047.412 580.627,2047.444 
			580.579,2047.476 580.5,2047.46 580.452,2047.412 580.34,2047.332 579.862,2047.46 579.831,2047.269 579.831,2047.253 
			579.783,2047.03 579.767,2046.982 579.751,2046.95 579.687,2046.695 579.655,2046.552 579.703,2046.488 579.799,2046.361 
			579.878,2046.297 579.974,2046.233 580.101,2046.202 580.213,2046.17 580.324,2046.138 580.531,2046.138 580.914,2046.122 
			581.009,2046.138 581.057,2046.17 		"/>
		<polygon style="fill:#D3D3A1;" points="671.623,1949.994 671.814,1950.233 672.053,1950.408 671.926,1950.552 671.05,1951.651 
			670.046,1950.934 669.664,1950.376 669.186,1949.596 670.285,1948.433 		"/>
		<polygon style="fill:#D3D3A1;" points="671.624,1949.989 671.815,1950.228 672.038,1950.387 671.91,1950.547 671.034,1951.63 
			670.031,1950.929 669.649,1950.371 669.171,1949.575 670.27,1948.428 		"/>
		<polygon style="fill:#D3D3A1;" points="678.951,1899.926 677.883,1899.99 677.724,1900.006 676.752,1899.815 676.657,1899.783 
			676.577,1899.767 676.354,1899.671 676.131,1899.56 675.845,1899.464 675.669,1899.417 675.383,1899.385 675.16,1899.401 
			675.096,1899.385 675.048,1899.353 675.016,1899.273 674.889,1898.604 675.207,1898.54 675.829,1898.413 676.625,1898.254 
			677.724,1898.015 677.963,1897.967 678.122,1897.935 		"/>
		<polygon style="fill:#D3D3A1;" points="671.608,1949.999 671.8,1950.238 672.038,1950.397 671.911,1950.557 671.035,1951.64 
			670.031,1950.939 669.649,1950.381 669.171,1949.585 670.27,1948.438 		"/>
		<polygon style="fill:#D3D3A1;" points="678.951,1899.936 677.884,1900 677.725,1900.016 676.753,1899.825 676.658,1899.793 
			676.578,1899.777 676.355,1899.681 676.132,1899.57 675.845,1899.474 675.67,1899.426 675.383,1899.395 675.16,1899.411 
			675.081,1899.395 675.049,1899.363 675.001,1899.283 674.874,1898.614 675.208,1898.55 675.829,1898.423 676.626,1898.264 
			677.725,1898.025 677.964,1897.977 678.123,1897.945 		"/>
		<polygon style="fill:#D3D3A1;" points="775.505,1952.996 775.474,1953.028 775.474,1953.06 775.314,1953.332 774.579,1952.884 
			774.499,1952.836 774.627,1952.596 774.643,1952.564 774.706,1952.469 		"/>
		<polygon style="fill:#D3D3A1;" points="752.286,1942.209 752.191,1942.161 752.382,1941.698 752.414,1941.714 752.494,1941.746 		
			"/>
		<polygon style="fill:#D3D3A1;" points="831.068,1908.298 831.052,1908.122 831.052,1907.963 831.068,1906.508 831.068,1906.348 
			831.355,1906.332 831.579,1906.332 832.458,1906.316 832.458,1906.269 833.305,1906.253 833.289,1907.419 833.273,1908.282 
			832.857,1908.282 832.042,1908.298 831.579,1908.298 831.563,1908.298 831.483,1908.298 		"/>
		<polygon style="fill:#D3D3A1;" points="1006.18,1670.658 1009.929,1671.693 1011.058,1671.646 1012.69,1671.678 
			1015.325,1672.211 1017.255,1673.043 1020.675,1675.913 1023.263,1678.627 1025.067,1680.526 1025.726,1681.388 
			1026.103,1681.891 1023.514,1692.244 1021.428,1699.257 1021.302,1699.257 1021.208,1699.272 1016.094,1697.908 
			1015.012,1702.002 1014.337,1702.426 1014.149,1702.536 1013.772,1702.865 1013.6,1703.006 1010.462,1701.845 1007.748,1700.496 
			1006.195,1704.183 1006.039,1704.23 1005.882,1704.151 999.983,1701.312 999.826,1701.296 999.497,1701.626 999.356,1701.657 
			999.199,1701.641 999.058,1701.579 995.356,1698.629 989.692,1694.503 991.512,1691.209 996.971,1679.71 997.615,1676.745 
			998.964,1669.858 999.073,1669.513 1000.642,1669.45 1001.536,1669.34 1001.96,1669.403 1002.478,1669.576 		"/>
		<polygon style="fill:#D3D3A1;" points="1009.631,1669.905 1009.176,1670.015 1003.78,1668.854 1002.321,1668.446 
			999.497,1668.211 999.591,1667.928 1000.14,1666.736 1001.332,1665.01 1002.274,1664.069 1004.282,1662.626 1007.701,1660.571 
			1010.807,1665.01 1010.933,1665.434 1010.902,1665.999 		"/>
		<polygon style="fill:#D3D3A1;" points="1000.849,1665.728 1001.336,1665.022 1002.277,1664.065 1004.285,1662.637 
			1007.705,1660.582 1010.811,1665.022 1010.936,1665.446 1010.921,1665.728 		"/>
		<polygon style="fill:#D3D3A1;" points="848.945,1791.423 848.031,1793.251 847.325,1792.818 846.796,1792.481 846.651,1792.385 
			846.523,1792.257 847.133,1791.07 		"/>
		<polygon style="fill:#D3D3A1;" points="848.945,1791.439 848.031,1793.267 847.326,1792.834 846.797,1792.497 846.652,1792.385 
			846.524,1792.273 847.133,1791.07 		"/>
		<polygon style="fill:#D3D3A1;" points="864.099,1734.943 864.195,1733.339 864.243,1732.377 864.259,1732.185 864.596,1732.265 
			865.029,1732.377 866.601,1732.81 867.466,1733.067 868.076,1733.211 868.076,1733.404 867.932,1733.933 867.964,1734.366 
			867.819,1734.462 867.739,1734.558 866.552,1734.558 		"/>
		<polygon style="fill:#D3D3A1;" points="747.563,1859.115 747.145,1859.324 745.876,1856.818 746.245,1856.625 746.968,1857.991 		
			"/>
		<polygon style="fill:#D3D3A1;" points="743.851,1854.873 743.899,1854.954 744.189,1855.58 744.301,1855.821 744.397,1856.014 
			744.446,1856.111 744.478,1856.207 744.767,1856.801 744.847,1856.978 744.912,1857.107 745.04,1857.38 745.169,1857.669 
			745.265,1857.862 745.586,1858.537 745.747,1858.89 745.844,1859.083 746.149,1859.549 746.181,1859.614 746.711,1860.722 
			746.872,1861.124 747.033,1861.429 747.033,1861.542 747,1861.622 746.92,1861.702 746.856,1861.734 745.442,1861.943 
			743.98,1862.136 743.931,1862.168 743.706,1862.217 743.674,1862.217 743.642,1862.217 742.726,1862.538 742.485,1862.618 
			742.26,1862.715 742.035,1862.795 741.907,1862.843 741.489,1863.004 741.312,1862.988 741.2,1862.94 741.055,1862.875 
			741.055,1862.859 739.979,1862.136 741.569,1859.678 742.052,1857.974 742.501,1856.978 742.566,1856.866 743.337,1855.114 
			743.449,1854.841 743.465,1854.841 743.546,1854.793 743.626,1854.777 743.755,1854.809 743.819,1854.841 		"/>
		<polygon style="fill:#D3D3A1;" points="685.91,1773.068 677.329,1773.068 677.313,1776.089 677.362,1776.716 677.394,1777.407 
			677.458,1777.728 677.506,1778.017 677.651,1778.724 678.085,1780.074 678.213,1780.46 678.904,1781.874 679.756,1782.982 
			680.286,1783.802 680.366,1783.497 680.479,1783.336 680.559,1783.224 680.8,1782.999 681.877,1782.356 681.893,1782.388 
			682.214,1782.163 682.503,1782.002 682.552,1781.97 682.76,1781.842 682.793,1781.906 682.857,1782.002 683.596,1781.986 
			683.901,1781.97 684.415,1781.954 684.528,1781.954 685.042,1781.954 685.122,1781.842 685.235,1781.713 685.251,1781.681 
			685.331,1781.552 685.765,1780.829 686.215,1779.881 686.504,1779.255 686.601,1779.03 686.697,1778.708 686.81,1778.323 
			686.89,1777.873 686.922,1777.198 686.906,1776.603 686.874,1776.427 686.745,1775.655 686.697,1775.366 686.472,1774.659 
			686.103,1773.711 686.103,1773.695 686.087,1773.679 686.087,1773.663 686.087,1773.647 686.07,1773.63 686.07,1773.615 
			686.07,1773.598 686.054,1773.582 686.054,1773.566 686.054,1773.55 686.038,1773.534 686.038,1773.518 686.038,1773.502 
			686.038,1773.486 686.022,1773.47 686.022,1773.454 686.022,1773.438 686.006,1773.422 686.006,1773.406 686.006,1773.39 
			686.006,1773.373 685.99,1773.357 685.99,1773.341 685.99,1773.325 685.974,1773.309 685.974,1773.293 685.974,1773.277 
			685.974,1773.261 685.958,1773.245 685.958,1773.229 685.958,1773.213 685.958,1773.197 685.942,1773.181 685.942,1773.165 
			685.942,1773.148 685.942,1773.132 685.926,1773.116 685.926,1773.1 685.926,1773.084 		"/>
		<polygon style="fill:#D3D3A1;" points="705.531,1661.346 705.611,1662.181 705.595,1662.374 705.595,1662.503 704.1,1662.406 
			703.506,1661.86 703.859,1660.623 703.361,1659.996 702.879,1659.16 702.188,1659.273 702.14,1658.228 702.14,1657.987 
			703.12,1658.341 703.506,1658.469 703.956,1658.887 704.341,1659.305 704.775,1659.948 		"/>
		<polygon style="fill:#D3D3A1;" points="700.646,1647.687 700.196,1646.177 698.396,1640.103 697.223,1636.6 697.255,1635.7 
			697.368,1635.266 697.48,1634.993 698.075,1634.431 699.087,1635.652 699.521,1636.295 699.891,1637.146 700.389,1638.014 
			700.742,1638.448 701.192,1638.962 701.803,1639.38 702.767,1640.007 703.217,1640.44 703.747,1641.051 704.084,1641.405 
			704.309,1641.662 704.502,1641.967 703.185,1642.401 704.149,1645.374 705.45,1644.956 705.852,1646.129 704.807,1646.257 
			703.683,1646.579 703.635,1646.322 702.044,1646.755 702.237,1647.398 		"/>
		<polygon style="fill:#D3D3A1;" points="682.36,1767.206 685.751,1767.255 685.767,1767.255 685.767,1767.271 685.478,1769.424 
			685.462,1769.633 685.429,1769.97 685.413,1770.211 685.397,1770.533 685.413,1770.87 685.413,1771.095 685.429,1771.288 
			685.445,1771.625 685.462,1771.802 685.478,1771.947 685.51,1772.156 685.542,1772.38 685.606,1772.67 685.654,1772.895 
			685.719,1773.184 685.783,1773.393 685.863,1773.682 686.233,1774.63 686.458,1775.337 686.458,1775.353 686.506,1775.642 
			686.635,1776.398 686.683,1776.59 686.699,1777.185 686.667,1777.86 686.586,1778.31 686.458,1778.695 686.377,1779.017 
			686.281,1779.242 685.992,1779.868 685.526,1780.816 685.092,1781.556 685.028,1781.668 684.996,1781.7 684.899,1781.845 
			684.819,1781.941 684.305,1781.957 684.176,1781.957 683.678,1781.973 683.357,1781.973 682.618,1781.989 682.553,1781.909 
			682.521,1781.845 682.328,1781.957 682.264,1781.989 681.991,1782.166 681.653,1782.375 681.637,1782.343 680.561,1783.002 
			680.32,1783.211 680.24,1783.339 680.127,1783.5 680.047,1783.789 679.516,1782.986 678.665,1781.861 677.974,1780.447 
			677.829,1780.061 677.395,1778.711 677.267,1778.004 677.203,1777.715 677.138,1777.378 677.106,1776.703 677.074,1776.076 
			677.122,1767.978 677.122,1767.704 677.138,1767.704 677.62,1767.721 677.685,1767.721 678.456,1767.737 678.633,1767.753 
			679.131,1767.769 679.131,1767.656 679.307,1767.656 679.661,1767.656 681.428,1767.688 681.621,1767.688 681.75,1767.688 
			681.75,1767.624 681.75,1767.19 		"/>
		<polygon style="fill:#D3D3A1;" points="705.514,1661.395 705.595,1662.214 705.579,1662.407 705.579,1662.552 704.084,1662.439 
			703.474,1661.893 703.827,1660.656 703.329,1660.029 702.847,1659.177 702.156,1659.306 702.108,1658.245 702.108,1658.004 
			703.104,1658.358 703.474,1658.486 703.94,1658.92 704.325,1659.338 704.743,1659.981 		"/>
		<polygon style="fill:#D3D3A1;" points="700.132,1637.613 700.357,1637.983 700.71,1638.433 701.16,1638.947 701.771,1639.365 
			702.735,1639.991 703.185,1640.409 703.715,1641.036 704.052,1641.389 704.293,1641.646 704.486,1641.952 703.169,1642.386 
			704.117,1645.374 705.418,1644.941 705.836,1646.114 704.791,1646.242 703.667,1646.58 703.618,1646.323 702.012,1646.756 
			702.204,1647.399 700.614,1647.688 700.164,1646.178 698.348,1640.088 697.529,1637.613 		"/>
	</g>
</g>
</svg>
