<?xml version="1.0" encoding="iso-8859-1"?>
<!-- Generator: Adobe Illustrator 17.0.0, SVG Export Plug-In . SVG Version: 6.00 Build 0)  -->
<!DOCTYPE svg PUBLIC "-//W3C//DTD SVG 1.1//EN" "http://www.w3.org/Graphics/SVG/1.1/DTD/svg11.dtd">
<svg version="1.1" xmlns="http://www.w3.org/2000/svg" xmlns:xlink="http://www.w3.org/1999/xlink" x="0px" y="0px" width="1840px"
	 height="2400px" viewBox="0 0 1840 2400" style="enable-background:new 0 0 1840 2400;" xml:space="preserve">
<g id="Layer_114">
	<rect style="fill:none;" width="1840" height="2400"/>
	<rect style="fill:none;" width="1840" height="2400"/>
	<rect style="fill:none;" width="1840" height="2400"/>
	<rect style="fill:none;" width="1840" height="2400"/>
	<rect style="fill:none;" width="1840" height="2400"/>
	<rect style="fill:none;" width="1840" height="2400"/>
	<rect style="fill:none;" width="1840" height="2400"/>
	<rect style="fill:none;" width="1840" height="2400"/>
	<rect style="fill:none;" width="1840" height="2400"/>
	<rect style="fill:none;" width="1840" height="2400"/>
	<rect style="fill:none;" width="1840" height="2400"/>
	<rect style="fill:none;" width="1840" height="2400"/>
	<rect style="fill:none;" width="1840" height="2400"/>
	<rect style="fill:none;" width="1840" height="2400"/>
	<rect style="fill:none;" width="1840" height="2400"/>
	<rect style="fill:none;" width="1840" height="2400"/>
	<rect style="fill:none;" width="1840" height="2400"/>
	<rect style="fill:none;" width="1840" height="2400"/>
	<rect style="fill:none;" width="1840" height="2400"/>
	<rect style="fill:none;" width="1840" height="2400"/>
	<rect style="fill:none;" width="1840" height="2400"/>
	<rect style="fill:none;" width="1840" height="2400"/>
	<rect style="fill:none;" width="1840" height="2400"/>
	<rect style="fill:none;" width="1840" height="2400"/>
	<rect style="fill:none;" width="1840" height="2400"/>
	<rect style="fill:none;" width="1840" height="2400"/>
	<rect style="fill:none;" width="1840" height="2400"/>
</g>
<g id="GS">
	<g id="SWIMMING_x5F_POOL">
		<polygon style="fill:#66C8C8;" points="635.134,1915.753 635.611,1915.801 636.806,1915.769 636.806,1918.923 636.519,1919.098 
			636.153,1919.225 635.659,1919.194 635.102,1919.066 634.799,1918.907 632.951,1916.995 633.111,1916.677 633.334,1916.358 
			633.589,1916.088 633.843,1915.896 634.194,1915.689 634.433,1915.594 634.783,1915.689 		"/>
		<polygon style="fill:#66C8C8;" points="743.913,1904.608 743.913,1904.64 743.818,1904.864 743.354,1906.206 743.242,1906.158 
			741.74,1905.631 741.948,1905.056 742.267,1904.145 742.283,1904.065 		"/>
		<polygon style="fill:#66C8C8;" points="805.448,1623.299 804.838,1624.502 804.1,1625.946 803.795,1626.524 803.779,1626.556 
			800.907,1625.048 800.667,1625.513 800.458,1625.401 800.394,1625.369 798.164,1624.181 798.501,1623.475 800.153,1620.042 
			800.217,1620.074 801.357,1620.667 		"/>
		<polygon style="fill:#66C8C8;" points="805.446,1623.314 804.837,1624.517 804.115,1625.961 803.81,1626.539 803.794,1626.571 
			800.906,1625.063 800.681,1625.528 800.457,1625.416 800.392,1625.384 798.162,1624.196 798.499,1623.49 800.168,1620.057 
			800.232,1620.089 801.371,1620.682 		"/>
		<polygon style="fill:#66C8C8;" points="710.11,1716.96 707.973,1715.755 708.15,1715.466 709.001,1714.019 709.596,1713.007 
			709.853,1713.216 710.222,1713.537 710.447,1713.843 710.576,1714.116 710.721,1714.517 710.769,1714.919 710.785,1715.241 
			710.769,1715.562 710.721,1715.787 710.672,1715.964 710.512,1716.285 710.239,1716.735 		"/>
	</g>
</g>
</svg>
