<?xml version="1.0" encoding="iso-8859-1"?>
<!-- Generator: Adobe Illustrator 17.0.0, SVG Export Plug-In . SVG Version: 6.00 Build 0)  -->
<!DOCTYPE svg PUBLIC "-//W3C//DTD SVG 1.1//EN" "http://www.w3.org/Graphics/SVG/1.1/DTD/svg11.dtd">
<svg version="1.1" xmlns="http://www.w3.org/2000/svg" xmlns:xlink="http://www.w3.org/1999/xlink" x="0px" y="0px" width="1840px"
	 height="2400px" viewBox="0 0 1840 2400" style="enable-background:new 0 0 1840 2400;" xml:space="preserve">
<g id="Layer_114">
	<rect style="fill:none;" width="1840" height="2400"/>
	<rect style="fill:none;" width="1840" height="2400"/>
	<rect style="fill:none;" width="1840" height="2400"/>
	<rect style="fill:none;" width="1840" height="2400"/>
	<rect style="fill:none;" width="1840" height="2400"/>
	<rect style="fill:none;" width="1840" height="2400"/>
	<rect style="fill:none;" width="1840" height="2400"/>
	<rect style="fill:none;" width="1840" height="2400"/>
	<rect style="fill:none;" width="1840" height="2400"/>
	<rect style="fill:none;" width="1840" height="2400"/>
</g>
<g id="GS">
	<g id="Urban_x5F_Village">
		<polygon style="fill:#FAF399;" points="767.104,2211.217 767.246,2211.328 767.42,2211.47 769.286,2213.02 769.349,2213.115 
			769.349,2213.13 769.365,2213.13 769.396,2213.162 769.396,2213.178 769.412,2213.209 769.412,2213.241 769.412,2213.304 
			769.38,2213.336 769.286,2213.431 769.112,2213.636 768.29,2214.585 767.562,2215.454 767.104,2215.992 		"/>
		<polygon style="fill:#FAF399;" points="654.284,2219.503 654.632,2219.708 651.928,2223.028 650.806,2224.42 649.446,2226.19 
			648.34,2227.471 646.711,2229.51 644.577,2233.067 642.854,2236.008 641.637,2238.284 640.957,2239.755 640.672,2240.45 
			640.672,2240.466 640.657,2240.466 640.657,2240.482 640.641,2240.482 640.625,2240.482 640.609,2240.482 640.593,2240.482 
			639.344,2239.771 639.218,2239.612 639.186,2239.486 639.724,2238.474 640.024,2238.3 643.012,2233.304 646.237,2227.724 
			647.549,2226.728 647.897,2225.89 648.419,2225.431 650.316,2223.139 651.011,2222.317 653.398,2219.645 653.493,2219.503 		"/>
		<polygon style="fill:#FAF399;" points="653.383,2219.503 653.335,2219.582 650.932,2222.27 650.253,2223.076 648.355,2225.368 
			647.818,2225.843 647.486,2226.665 646.174,2227.661 642.933,2233.257 639.961,2238.237 639.661,2238.411 639.044,2239.549 
			639.281,2239.834 640.593,2240.577 640.609,2240.593 640.625,2240.608 640.625,2240.624 640.625,2240.64 640.625,2240.656 
			640.625,2240.672 639.74,2240.529 639.692,2240.75 637.4,2240.513 637.621,2240.055 637.669,2239.944 637.985,2239.249 
			638.08,2239.043 639.218,2236.545 642.285,2231.818 645.731,2226.712 646.743,2225.115 647.391,2224.072 648.893,2221.969 
			650.553,2219.629 650.648,2219.503 		"/>
		<polygon style="fill:#FAF399;" points="761.404,2219.503 762.906,2221.005 763.143,2221.179 762.384,2222.19 760.598,2223.74 
			760.518,2223.835 760.487,2223.882 760.44,2223.929 760.392,2223.993 760.376,2224.009 760.329,2224.056 760.234,2224.151 
			760.139,2224.23 759.712,2224.53 759.665,2224.562 759.649,2224.578 759.554,2224.641 759.428,2224.736 759.112,2224.973 
			758.448,2225.447 758.179,2225.178 756.93,2223.835 756.819,2223.708 756.645,2223.519 754.827,2221.527 754.29,2220.942 
			754.132,2220.768 753.974,2220.594 753.911,2220.531 753.531,2220.12 753.373,2219.961 753.262,2219.851 752.946,2219.503 		"/>
		<polygon style="fill:#FAF399;" points="640.588,2240.487 640.572,2240.487 640.556,2240.471 640.541,2240.471 639.292,2239.776 
			639.165,2239.618 639.134,2239.475 639.671,2238.479 639.972,2238.29 642.959,2233.294 646.184,2227.729 647.497,2226.717 
			647.844,2225.895 648.366,2225.421 650.263,2223.129 650.959,2222.322 653.346,2219.635 653.662,2219.16 654.579,2219.714 
			651.875,2223.018 650.753,2224.409 649.394,2226.196 648.287,2227.476 646.659,2229.515 644.524,2233.073 642.801,2235.997 
			641.584,2238.29 640.904,2239.744 640.62,2240.456 640.604,2240.471 640.588,2240.471 		"/>
		<polygon style="fill:#FAF399;" points="657.077,2217.311 656.65,2216.963 654.579,2218.67 654.247,2219.002 653.946,2218.828 
			654.073,2218.623 655.164,2217.706 657.314,2215.682 657.456,2215.809 657.488,2215.841 657.709,2216.03 657.709,2216.062 
			657.725,2216.236 657.756,2216.346 		"/>
		<polygon style="fill:#FAF399;" points="639.64,2240.74 637.347,2240.519 637.569,2240.044 637.616,2239.95 637.932,2239.238 
			638.027,2239.049 639.165,2236.551 642.232,2231.824 645.678,2226.701 646.69,2225.105 647.338,2224.077 648.84,2221.959 
			650.5,2219.635 652.555,2216.995 654.168,2214.971 655.116,2213.785 656.096,2214.639 657.156,2215.556 656.144,2216.599 
			656.096,2216.615 655.053,2217.611 654.8,2217.817 653.994,2218.481 653.283,2219.587 650.88,2222.259 650.2,2223.081 
			648.303,2225.374 647.765,2225.832 647.433,2226.67 646.121,2227.666 642.88,2233.247 639.908,2238.226 639.608,2238.416 
			638.991,2239.554 639.229,2239.839 640.541,2240.582 640.556,2240.582 640.556,2240.598 640.572,2240.614 640.572,2240.629 
			640.572,2240.645 640.572,2240.677 639.687,2240.519 		"/>
		<path style="fill:#FAF399;" d="M761.952,2208.22l0.016,0.016l0.095,0.111l0.016,0.016l0.395-0.332l0.411,0.822l0.711,1.186
			l0.617,1.265l0.364,0.095l0.142,0.047h0.047l0.142,0.016l0.095,0.016h0.142h0.095h0.032l0.126-0.016l0.111-0.016l0.174-0.032
			l0.047-0.016l0.269-0.111l0.047-0.016l0.237-0.095l0.19-0.079l0.158-0.063l0.111-0.031h0.095l0.079,0.016l0.095,0.032l0.079,0.063
			l0.142,0.126l0.174,0.142h0.016l1.85,1.549l0.079,0.095v0.016h0.016l0.016,0.031l0.016,0.016v0.032l0.016,0.031l-0.016,0.063
			l-0.032,0.032l-0.095,0.095l-0.174,0.206l-0.806,0.948l-0.727,0.87l-0.727,0.838l-0.237,0.285l-1.85,2.466l-5.723-6.339
			l-0.68-0.759l-2.324,1.865l0.016,0.016l0.474,0.458l0.3,0.364l0.126-0.079v0.047l0.047,0.079l1.138,1.312l0.696,0.775l0.838,0.933
			l0.142,0.206l0.885,0.996l2.166,2.166l0.237,0.174l-0.759,1.012l-1.786,1.549l-0.079,0.095l-0.032,0.047l-0.047,0.063
			l-0.047,0.047l-0.016,0.032l-0.047,0.031v0.016l-0.095,0.079l-0.095,0.079l-0.427,0.3l-0.047,0.047h-0.016l-0.095,0.079
			l-0.126,0.095l-0.316,0.221l-0.664,0.49l-0.269-0.269l-1.249-1.344l-0.111-0.142l-0.174-0.19l-1.818-1.992l-0.538-0.585
			l-0.158-0.174l-0.158-0.158l-0.063-0.079l-0.379-0.395l-0.158-0.174l-0.111-0.095l-0.316-0.364l-0.822-0.87l-0.047-0.047
			l-0.443-0.474l-0.111-0.111l-0.095-0.126l-1.186-1.36l-0.269-0.348l-0.696-0.806l-0.727-0.854l-0.19-0.221l-0.079-0.095
			l-0.126-0.158l-0.221-0.348l-0.016-0.016l-0.047-0.079l-0.047-0.079l-0.063-0.111v-0.016l-0.126-0.174l-0.095-0.174l-0.032-0.047
			l-0.142-0.174l-0.111-0.142l-0.19-0.316l-0.032-0.032l-0.095-0.142l-0.095-0.158l-0.253-0.395l-0.126-0.19l-0.079-0.126
			l0.047-0.032l0.047-0.047l-0.032-0.031l-0.332-0.411v-0.016l-0.047-0.031l-0.19-0.142l-0.269-0.253l-0.032-0.032l-0.079-0.063
			l-0.206-0.126l-0.285-0.158l-0.111-0.063l-0.126-0.032l-0.111-0.016l-0.285-0.079l0.016-0.111l-0.126-0.158v-0.016l0.095-0.079
			l0.19-0.174l0.253-0.284l0.253-0.269l0.648-0.648l0.237,0.348l0.047,0.079l0.174,0.269l0.253,0.269l0.126,0.158l0.095,0.095
			l0.158,0.19l0.126-0.079l0.032,0.032l0.016-0.016l0.142,0.174l0.032,0.048l0.111,0.142l0.079-0.047l0.458-0.19l0.047-0.032
			l0.237-0.111l0.727-0.348l0.079-0.032l0.047-0.031l0.3-0.142l0.111-0.063l0.237-0.111l0.506-0.521l0.49-0.49l0.032,0.063
			l0.063,0.111l0.379,0.633l0.221,0.379l0.19,0.3l0.142,0.237l0.158,0.237l0.221,0.506l0.506,0.948l0.063-0.031l0.237,0.411
			l0.063-0.063l0.474,0.522l0.522-0.474l0.537-0.474l0.221-0.19l0.443-0.395l0.19-0.285l0.237-0.364l0.158-0.253l0.079,0.047
			l0.158,0.111l0.142,0.111l0.016-0.032l0.174-0.348l0.016-0.016l0.016-0.016h0.016v0.016h0.016l0.079-0.095l0.142-0.158
			l0.016-0.016l0.032-0.063l0.142-0.221l0.032-0.048l0.174-0.269l0.095-0.126l0.126-0.174l0.174-0.221l0.063-0.079l0.142-0.206
			l0.285-0.395l0.174-0.19l-0.364-0.395l-0.174,0.206l-0.174-0.206l-0.221-0.237l-0.221-0.269l0.474-0.68l0.427-0.569l0.237-0.348
			l0.206-0.285l0.206-0.253l0.174-0.237l0.522,0.585l0.016,0.016l0.016,0.016v0.016l-0.032,0.063l-0.285,0.237l-0.49,0.427h-0.016
			l0.269,0.3l0.016,0.016l0.158,0.174l0.253,0.285l0.079,0.047l0.696,0.822l0.111,0.111l0.016,0.016l0.158,0.206l0.458,0.522
			l0.443,0.49l0.111,0.126l0.221,0.253l0.537-0.49l0.032-0.031L761.952,2208.22z M759.581,2208.837l-0.664-0.743l-0.253,0.237
			l0.664,0.727L759.581,2208.837z"/>
		<polygon style="fill:#FAF399;" points="937.214,1665.732 936.696,1665.34 936.555,1665.23 936.774,1665.215 936.79,1665.215 
			936.774,1665.199 936.931,1665.152 936.994,1664.948 937.402,1664.823 937.778,1664.854 938.657,1664.587 938.735,1664.556 
			939.002,1664.556 939.08,1664.619 939.378,1664.791 939.41,1664.807 939.598,1664.948 939.567,1665.042 939.363,1665.576 
			939.269,1665.732 		"/>
		<path style="fill:#FAF399;" d="M945.998,1561.174l-0.471,0.533l-0.596-0.486l-0.22,0.235l-0.643-0.722l-0.22,0.235l-0.894-0.58
			l-0.125-0.11l-2.071-1.757l1.082-1.553l0.063-0.078l0.486,0.471l0.392-0.565l-0.471-0.518l0.753-1.067l0.173,0.172l3.122,3.232
			l0.408,0.392l-1.475,1.584L945.998,1561.174z M946.014,1558.93v-0.016l-0.314-0.314l-0.314,0.298l0.314,0.329L946.014,1558.93z"/>
		<path style="fill:#FAF399;" d="M941.928,1556.918l0.455,0.439l0.392-0.565l-0.455-0.518l0.737-1.067l0.172,0.172l3.122,3.232
			l0.408,0.392l-1.459,1.584l0.69,0.58l-0.471,0.533l-0.596-0.486l-0.22,0.235l-0.627-0.722l-0.235,0.235l-0.878-0.58l-0.141-0.11
			l-0.894-0.769V1556.918z M946.022,1558.926l-0.016-0.016l-0.314-0.314l-0.314,0.298l0.314,0.329L946.022,1558.926z"/>
		<polygon style="fill:#FAF399;" points="939.373,1664.772 939.405,1664.803 939.593,1664.929 939.561,1665.038 939.358,1665.556 
			938.636,1666.748 938.416,1667.109 937.883,1666.78 936.942,1668.035 937.412,1668.411 937.867,1667.909 938.761,1668.443 
			939.609,1667.094 939.859,1667.188 941.099,1667.643 940.973,1668.584 940.895,1668.835 940.879,1668.882 940.032,1668.474 
			939.577,1669.149 939.091,1669.87 938.557,1669.541 938.181,1669.321 937.852,1669.713 938.103,1670.357 938.322,1670.953 
			938.51,1671.47 938.793,1671.596 938.856,1671.627 938.087,1672.788 937.585,1672.804 937.538,1672.804 937.428,1672.804 
			937.287,1672.804 937.255,1672.819 937.13,1672.819 936.957,1672.804 937.02,1672.71 937.02,1672.694 937.255,1672.067 
			937.255,1672.051 937.334,1671.737 937.334,1671.721 937.334,1671.455 937.334,1671.439 937.318,1671.439 937.146,1670.529 
			937.146,1670.513 936.895,1669.854 937.004,1669.807 936.926,1669.619 936.816,1669.682 936.769,1669.698 936.612,1669.525 
			936.597,1669.525 936.581,1669.509 936.11,1669.29 935.216,1668.96 934.353,1668.646 934.275,1668.599 934.306,1668.521 
			934.761,1667.768 934.4,1666.827 936.283,1665.995 936.769,1666.45 937.444,1665.901 936.691,1665.321 936.55,1665.211 
			936.769,1665.195 936.785,1665.195 936.769,1665.195 936.926,1665.148 936.989,1664.944 937.397,1664.819 937.773,1664.85 
			938.652,1664.568 938.73,1664.552 938.997,1664.552 939.075,1664.615 		"/>
		<polygon style="fill:#FAF399;" points="838.763,1768.042 838.747,1768.09 838.682,1768.379 838.666,1768.379 838.618,1768.539 
			837.624,1768.25 837.416,1768.796 837.303,1768.94 837.191,1768.86 836.566,1768.411 836.389,1768.298 836.117,1768.122 
			835.924,1767.994 835.956,1767.962 836.021,1767.865 836.133,1767.705 836.245,1767.529 836.277,1767.433 836.293,1767.336 
			836.309,1767.336 837.913,1767.817 		"/>
		<polygon style="fill:#FAF399;" points="842.515,1768.234 842.499,1768.25 842.21,1768.266 842.162,1768.282 842.178,1768.379 
			842.194,1769.277 842.034,1769.277 841.553,1769.309 841.505,1770.399 841.328,1770.383 841.104,1770.351 841.136,1769.469 
			840.527,1769.469 840.527,1768.715 840.543,1768.427 840.639,1768.363 840.735,1768.314 841.088,1768.314 841.072,1768.186 
			841.04,1767.865 840.992,1767.384 840.992,1767.256 841.04,1767.24 841.2,1767.192 841.296,1767.176 841.312,1767.224 
			841.633,1767.16 841.922,1767.112 841.97,1767.096 841.97,1767.112 841.97,1767.128 842.002,1767.224 842.098,1767.433 
			842.098,1767.448 842.258,1767.721 842.258,1767.753 842.291,1767.801 842.371,1767.93 		"/>
		<polygon style="fill:#FAF399;" points="907.732,1770.415 907.395,1770.527 907.235,1770.159 906.305,1770.511 905.776,1770.72 
			905.102,1770.993 905.311,1771.506 904.669,1771.81 904.044,1770.399 903.579,1770.447 902.745,1770.495 902.553,1770.495 
			902.536,1770.255 902.44,1770.255 902.2,1768.331 902.12,1767.817 902.12,1767.769 902.039,1767.817 901.398,1768.202 
			900.997,1768.427 900.773,1768.555 900.773,1768.443 900.516,1768.106 900.452,1767.994 899.393,1768.651 898.768,1767.705 
			900.997,1766.358 902.601,1765.636 904.172,1765.284 906.193,1764.835 906.353,1764.786 906.722,1764.69 		"/>
		<polygon style="fill:#FAF399;" points="840.767,1765.348 840.879,1765.925 840.943,1766.294 840.976,1766.486 840.976,1766.502 
			840.992,1766.583 840.511,1766.663 840.495,1766.663 840.11,1766.791 838.923,1767.24 838.666,1767.272 838.346,1767.256 
			837.56,1767.032 837.111,1766.903 836.566,1766.727 836.55,1766.727 836.502,1766.711 836.518,1766.663 836.55,1766.567 
			836.582,1766.47 836.694,1766.118 836.886,1765.749 837.143,1765.236 837.271,1764.979 837.496,1764.546 837.736,1764.45 
			837.881,1764.386 838.153,1764.273 838.811,1764.145 839.228,1764.081 839.564,1764.065 839.677,1764.097 839.661,1764.273 
			839.661,1764.37 839.645,1764.546 839.645,1764.562 839.629,1764.931 839.661,1765.123 839.693,1765.332 839.997,1765.316 
			840.013,1765.524 840.527,1765.412 840.671,1765.364 		"/>
		<polygon style="fill:#FAF399;" points="816.92,1546.682 816.663,1546.73 816.583,1546.73 815.925,1546.826 814.898,1546.986 
			812.957,1546.81 812.957,1546.874 812.845,1547.436 812.813,1547.58 811.481,1548.158 811.433,1548.062 811.256,1547.644 
			811.304,1547.564 811.465,1547.388 811.497,1547.339 811.545,1547.275 811.529,1547.275 811.449,1547.195 811.625,1546.97 
			811.722,1546.826 811.786,1546.73 811.978,1546.361 812.203,1545.863 812.299,1545.703 812.684,1545.334 812.797,1545.221 
			812.989,1545.029 813.214,1544.756 813.679,1544.259 813.936,1543.986 814.417,1543.505 814.658,1543.184 815.123,1542.638 
			815.444,1542.381 815.877,1541.836 815.669,1541.643 815.604,1541.563 815.54,1541.627 815.444,1541.708 814.177,1542.397 
			812.652,1543.023 812.139,1543.264 812.219,1542.638 812.219,1541.852 812.219,1541.114 812.139,1540.344 811.738,1539.605 
			811.32,1538.867 811.064,1538.097 810.486,1536.878 809.957,1536.059 809.555,1535.402 808.962,1534.327 808.368,1533.284 
			807.742,1532.513 806.667,1530.812 806.571,1530.604 811.625,1528.646 812.893,1528.133 812.973,1528.406 813.037,1528.374 
			813.246,1528.951 812.957,1529.064 813.214,1529.561 813.487,1529.449 813.647,1529.77 813.888,1530.267 814.064,1530.588 
			814.353,1531.182 814.578,1531.615 815.171,1532.85 815.46,1533.428 815.653,1533.845 816.022,1534.599 816.519,1535.594 
			816.663,1535.819 816.92,1536.348 		"/>
		<polygon style="fill:#FAF399;" points="813.244,1528.966 812.956,1529.079 813.228,1529.576 813.501,1529.464 813.646,1529.785 
			813.886,1530.282 814.063,1530.603 814.352,1531.197 814.576,1531.63 815.17,1532.865 815.459,1533.443 815.651,1533.86 
			816.036,1534.614 816.518,1535.609 816.662,1535.834 817.159,1536.861 817.705,1538 818.25,1539.187 818.411,1539.476 
			818.25,1539.604 818.122,1539.733 818.042,1539.861 818.074,1540.134 818.026,1540.23 818.106,1540.423 818.202,1540.583 
			818.299,1540.551 818.652,1540.391 818.796,1540.31 818.828,1540.31 819.197,1541.081 819.422,1541.578 819.582,1541.915 
			819.646,1542.075 820.015,1543.006 820.384,1543.856 820.384,1543.889 820.304,1543.921 818.748,1544.771 818.972,1545.285 
			818.299,1545.525 818.411,1546.408 818.411,1546.472 817.753,1546.568 817.4,1546.616 816.662,1546.745 816.598,1546.745 
			815.924,1546.841 814.913,1547.001 812.972,1546.825 812.956,1546.889 812.843,1547.451 812.827,1547.595 811.495,1548.173 
			811.447,1548.076 811.255,1547.659 811.319,1547.579 811.463,1547.403 811.512,1547.354 811.56,1547.29 811.544,1547.29 
			811.447,1547.21 811.64,1546.985 811.736,1546.841 811.784,1546.745 811.977,1546.376 812.217,1545.878 812.298,1545.718 
			812.683,1545.349 812.795,1545.236 812.988,1545.044 813.212,1544.771 813.678,1544.274 813.934,1544.001 814.416,1543.52 
			814.672,1543.199 815.122,1542.653 815.443,1542.396 815.876,1541.851 815.683,1541.658 815.603,1541.578 815.555,1541.642 
			815.459,1541.722 814.175,1542.412 812.651,1543.038 812.153,1543.279 812.217,1542.653 812.217,1541.867 812.217,1541.129 
			812.137,1540.359 811.736,1539.62 811.335,1538.882 811.078,1538.112 810.485,1536.893 809.971,1536.074 809.554,1535.417 
			808.96,1534.341 808.383,1533.299 807.757,1532.528 806.666,1530.828 806.586,1530.619 811.624,1528.661 812.891,1528.148 
			812.972,1528.421 813.036,1528.389 		"/>
		<polygon style="fill:#FAF399;" points="806.805,1531.057 806.661,1530.848 806.58,1530.623 811.618,1528.666 812.886,1528.152 
			812.966,1528.425 813.03,1528.393 813.239,1528.987 812.95,1529.083 813.223,1529.596 813.496,1529.468 813.64,1529.805 
			813.881,1530.302 814.057,1530.623 814.282,1531.057 		"/>
		<polygon style="fill:#FAF399;" points="705.675,1666.52 705.788,1665.042 705.804,1664.881 705.804,1663.965 705.836,1661.121 
			705.531,1661.346 704.775,1659.948 704.341,1659.305 703.956,1658.887 703.506,1658.469 703.12,1658.341 702.14,1657.987 
			700.341,1658.55 700.292,1658.003 700.405,1653.585 700.646,1647.687 702.237,1647.398 702.044,1646.755 703.635,1646.322 
			703.683,1646.579 704.807,1646.257 705.852,1646.129 705.45,1644.956 704.149,1645.374 703.185,1642.401 704.502,1641.967 
			704.309,1641.662 704.084,1641.405 703.747,1641.051 703.217,1640.44 702.767,1640.007 701.803,1639.38 701.192,1638.962 
			700.742,1638.448 700.389,1638.014 699.891,1637.146 699.521,1636.295 699.087,1635.652 698.075,1634.431 698.718,1634.27 
			699.168,1634.592 699.505,1635.106 699.794,1635.813 700.308,1637.098 700.694,1637.58 701.915,1638.239 704.181,1639.91 
			704.872,1640.746 705.643,1641.581 706.029,1642.176 706.479,1642.77 707.041,1643.606 707.427,1644.522 707.668,1645.213 
			707.909,1645.872 708.503,1646.996 709.13,1647.993 709.58,1648.732 710.319,1649.712 711.733,1651.206 712.858,1652.813 
			712.938,1652.701 713.179,1653.263 713.307,1653.536 713.452,1654.259 713.677,1656.67 713.645,1658.036 713.918,1660.269 
			714.497,1664.527 714.513,1665.829 714.641,1666.359 714.721,1666.52 		"/>
		<polygon style="fill:#FAF399;" points="700.758,1637.613 701.883,1638.224 704.149,1639.895 704.856,1640.731 705.627,1641.582 
			706.013,1642.177 706.463,1642.771 707.025,1643.607 707.394,1644.507 707.652,1645.214 707.893,1645.873 708.487,1646.997 
			709.114,1648.01 709.564,1648.733 710.303,1649.713 711.733,1651.223 712.858,1652.83 712.938,1652.718 713.179,1653.28 
			713.307,1653.553 713.436,1654.276 713.677,1656.687 713.629,1658.069 713.918,1660.302 714.497,1664.576 714.513,1665.878 
			714.641,1666.408 714.818,1666.794 716.184,1668.802 717.694,1670.843 717.566,1670.795 717.389,1670.682 717.196,1670.554 
			716.971,1670.409 716.875,1670.313 716.73,1670.2 716.569,1670.088 716.328,1669.879 716.312,1669.863 715.461,1670.345 
			715.75,1670.94 715.605,1671.004 716.087,1672.273 713.693,1672.852 713.324,1672.932 712.841,1672.98 712.777,1672.675 
			712.649,1672.161 712.488,1671.807 712.327,1671.63 711.893,1671.325 711.556,1671.132 711.46,1671.084 711.315,1669.236 
			711.187,1669.252 711.283,1670.763 709.499,1670.522 709.499,1670.65 711.331,1670.907 711.347,1671.132 711.363,1671.132 
			711.508,1671.229 711.845,1671.422 712.263,1671.695 712.408,1671.855 712.552,1672.193 712.681,1672.691 712.745,1672.996 
			709.773,1673.35 708.648,1673.495 708.101,1673.639 707.764,1673.977 706.816,1675.664 706.543,1673.96 705.772,1669.043 
			705.563,1667.501 705.772,1665.091 705.772,1664.93 705.788,1663.998 705.82,1661.154 705.514,1661.395 704.743,1659.981 
			704.325,1659.338 703.94,1658.92 703.474,1658.486 703.104,1658.358 702.108,1658.004 700.308,1658.567 700.244,1658.036 
			700.357,1653.602 700.614,1647.688 702.204,1647.399 702.012,1646.756 703.618,1646.323 703.667,1646.58 704.791,1646.242 
			705.836,1646.114 705.418,1644.941 704.117,1645.374 703.169,1642.386 704.486,1641.952 704.293,1641.646 704.052,1641.389 
			703.715,1641.036 703.185,1640.409 702.735,1639.991 701.771,1639.365 701.16,1638.947 700.71,1638.433 700.357,1637.983 
			700.132,1637.613 		"/>
	</g>
</g>
</svg>
