<?xml version="1.0" encoding="utf-8"?>
<!-- Generator: Adobe Illustrator 17.0.0, SVG Export Plug-In . SVG Version: 6.00 Build 0)  -->
<!DOCTYPE svg PUBLIC "-//W3C//DTD SVG 1.1//EN" "http://www.w3.org/Graphics/SVG/1.1/DTD/svg11.dtd">
<svg version="1.1" id="Layer_2" xmlns="http://www.w3.org/2000/svg" xmlns:xlink="http://www.w3.org/1999/xlink" x="0px" y="0px"
	 width="1840px" height="2400px" viewBox="0 0 1840 2400" enable-background="new 0 0 1840 2400" xml:space="preserve">
<polygon fill="#C8692C" points="946.812,1642.891 946.985,1643.503 946.937,1644.02 945.102,1644.052 945.008,1643.534 
	944.914,1642.985 944.898,1642.922 945.322,1642.875 946.341,1642.781 946.781,1642.75 946.796,1642.812 "/>
<polygon fill="#C8692C" points="905.933,1589.163 905.823,1589.367 905.588,1589.838 906.294,1590.136 906.372,1590.434 
	906.466,1591.563 906.498,1592.002 906.608,1593.179 906.827,1593.634 906.874,1594.685 906.733,1594.779 906.655,1594.826 
	906.451,1594.952 906.357,1595.689 906.325,1595.908 905.996,1595.72 903.392,1594.167 901.07,1592.771 901.023,1592.74 
	901.211,1592.489 901.525,1592.034 901.98,1591.359 902.215,1591.014 903.141,1589.649 904.004,1588.426 904.129,1588.253 
	904.208,1588.3 904.584,1588.551 904.898,1588.661 905.196,1588.787 905.415,1588.896 905.761,1589.085 "/>
<polygon fill="#C8692C" points="929.871,1655.158 930.671,1655.393 932.333,1655.284 932.349,1655.739 932.537,1655.723 
	933.322,1655.707 933.353,1655.942 933.824,1655.942 933.824,1657.197 933.824,1657.919 933.682,1658.154 933.667,1658.892 
	933.62,1659.943 933.557,1659.754 933.557,1659.739 933.541,1659.707 933.526,1659.676 933.478,1659.613 933.384,1659.503 
	933.369,1659.472 933.306,1659.409 933.275,1659.378 933.259,1659.362 933.243,1659.362 933.212,1659.331 933.18,1659.315 
	933.133,1659.299 933.055,1659.268 932.898,1659.221 932.851,1659.205 932.6,1659.158 932.553,1659.158 932.239,1659.158 
	932.224,1659.158 931.047,1659.237 931.031,1658.797 930.278,1659.017 930.404,1659.268 930.388,1659.268 930.263,1659.331 
	930.137,1659.409 930.059,1659.378 930.027,1659.378 929.98,1659.394 929.949,1659.394 929.918,1659.394 929.902,1659.394 
	929.871,1659.362 929.51,1659.346 929.494,1659.205 929.431,1658.107 929.478,1657.229 929.51,1656.774 929.839,1655.142 "/>
<polygon fill="#C8692C" points="939.267,1667.833 939.141,1668.194 937.4,1667.896 937.259,1668.884 937.149,1669.653 
	938.498,1669.951 937.965,1671.425 937.808,1671.912 937.431,1671.88 937.024,1672.006 936.961,1672.21 936.804,1672.257 
	936.678,1672.069 936.553,1672.1 936.318,1671.865 936.067,1671.786 936.035,1671.598 935.675,1671.253 935.439,1670.829 
	935.267,1670.672 935.141,1670.39 934.937,1670.202 934.906,1670.202 934.545,1670.139 934.561,1670.092 934.655,1670.061 
	934.639,1669.935 934.718,1669.763 934.718,1669.7 934.718,1669.574 934.718,1669.433 934.577,1669.041 934.545,1668.508 
	934.498,1667.974 934.482,1667.692 934.467,1667.645 934.467,1667.488 934.404,1667.112 934.388,1667.033 934.592,1667.002 
	936.757,1666.813 936.773,1666.829 936.788,1666.845 936.82,1666.876 937.055,1667.033 937.071,1667.033 937.118,1667.064 
	937.792,1667.3 938.341,1667.504 939.126,1667.786 "/>
<polygon fill="#C8692C" points="906.325,1595.908 906.325,1595.924 906.231,1596.583 906.184,1596.614 905.823,1596.724 
	905.306,1597.65 905.729,1597.885 905.635,1598.026 905.588,1598.105 905.525,1598.183 905.086,1597.932 904.615,1598.622 
	904.066,1599.25 904.349,1599.516 904.365,1599.532 904.443,1599.626 903.894,1599.924 901.415,1601.101 901.4,1601.101 
	901.306,1601.164 901.211,1601.211 901.102,1601.258 901.008,1601.289 900.898,1601.32 900.788,1601.336 900.678,1601.352 
	900.568,1601.352 900.459,1601.352 900.349,1601.352 900.255,1601.336 900.145,1601.305 900.035,1601.273 899.925,1601.242 
	899.909,1601.226 898.686,1600.913 898.686,1600.897 897.525,1600.646 897.494,1600.646 897.368,1600.63 897.337,1600.63 
	897.211,1600.63 897.196,1600.63 897.07,1600.63 897.055,1600.646 896.913,1600.646 896.898,1600.662 896.772,1600.677 
	896.678,1600.63 896.615,1600.615 896.474,1600.536 896.176,1600.364 896.035,1600.301 896.019,1600.301 895.847,1600.269 
	895.721,1600.269 895.8,1600.144 895.972,1599.893 896.364,1599.328 897.117,1598.261 897.949,1597.038 898.513,1596.159 
	899.909,1594.151 901.023,1592.74 901.07,1592.771 903.392,1594.167 905.996,1595.72 "/>
<polygon fill="#C8692C" points="940.679,1668.414 940.537,1668.665 940.333,1669.088 940.145,1669.433 940.098,1669.621 
	940.004,1669.92 939.988,1669.982 939.863,1670.453 939.894,1670.453 940.035,1670.5 939.784,1670.688 939.706,1670.876 
	939.596,1671.112 939.612,1671.331 939.502,1671.457 939.408,1671.849 939.11,1671.677 939.031,1671.614 938.765,1671.614 
	938.686,1671.645 937.808,1671.912 937.965,1671.425 938.498,1669.951 938.796,1669.135 939.141,1668.194 939.267,1667.833 
	939.926,1668.068 "/>
<polygon fill="#C8692C" points="942.326,1668.931 942.341,1669.12 942.232,1670.155 942.247,1670.123 942.232,1670.092 
	942.184,1669.59 942.184,1669.543 942.106,1669.245 942.09,1669.229 942.043,1669.057 942.028,1669.041 942.012,1669.01 
	942.012,1668.994 941.886,1668.79 941.871,1668.774 941.808,1668.696 941.651,1668.492 941.62,1668.461 941.416,1668.272 
	941.4,1668.257 941.149,1668.068 941.149,1668.053 941.071,1668.006 941.071,1667.99 941.024,1667.974 941.008,1667.959 
	940.977,1667.943 940.349,1667.661 940.145,1667.566 940.13,1667.551 939.016,1667.159 939.031,1667.096 939.173,1666.5 
	939.235,1666.233 939.549,1664.931 940.161,1662.421 940.318,1661.778 940.553,1661.794 941.181,1661.856 941.196,1661.856 
	941.745,1661.888 941.777,1661.888 942.122,1661.856 942.137,1661.856 942.404,1661.809 942.435,1661.809 942.734,1661.715 
	942.765,1661.715 943.126,1661.558 944.083,1661.166 944.286,1661.088 944.6,1660.978 944.6,1661.041 944.553,1661.621 
	944.381,1662.202 944.035,1663.017 943.22,1664.978 942.2,1665.37 941.73,1666.61 942.137,1667.347 "/>
<polygon fill="#C8692C" points="946.805,1642.886 946.977,1643.498 946.93,1644.016 945.095,1644.047 945.001,1643.53 
	944.906,1642.98 944.906,1642.918 945.314,1642.871 946.334,1642.776 946.773,1642.745 946.789,1642.808 "/>
<path fill="#C8692C" d="M941.957,1661.868l0.157-0.016h0.016l0.267-0.047h0.031l0.314-0.094h0.031l0.345-0.157l0.957-0.392
	l0.204-0.078l0.314-0.11l0.016,0.063l-0.063,0.58l-0.173,0.58l-0.345,0.816l-0.816,1.961l-1.02,0.392l-0.235,0.627V1661.868z
	 M941.957,1667.029l0.173,0.314l0.188,1.584l0.031,0.188l-0.11,1.035v-0.031v-0.031l-0.047-0.502l-0.016-0.047l-0.078-0.298v-0.016
	l-0.063-0.173v-0.016l-0.016-0.031l-0.016-0.016l-0.047-0.078V1667.029z"/>
<polygon fill="#C8692C" points="929.865,1655.139 930.665,1655.374 932.328,1655.28 932.344,1655.719 932.532,1655.719 
	933.316,1655.703 933.348,1655.923 933.818,1655.939 933.818,1657.178 933.818,1657.915 933.677,1658.135 933.661,1658.888 
	933.614,1659.939 933.552,1659.75 933.552,1659.735 933.536,1659.688 933.52,1659.656 933.473,1659.609 933.379,1659.484 
	933.363,1659.453 933.301,1659.405 933.269,1659.374 933.254,1659.358 933.238,1659.343 933.207,1659.327 933.175,1659.311 
	933.128,1659.296 933.05,1659.264 932.893,1659.202 932.846,1659.186 932.595,1659.139 932.548,1659.139 932.234,1659.139 
	932.218,1659.139 931.042,1659.233 931.026,1658.794 930.273,1659.013 930.399,1659.264 930.383,1659.264 930.258,1659.327 
	930.132,1659.39 930.054,1659.374 930.022,1659.358 929.975,1659.374 929.944,1659.39 929.912,1659.39 929.897,1659.374 
	929.865,1659.358 929.505,1659.327 929.489,1659.202 929.426,1658.103 929.473,1657.225 929.505,1656.77 929.834,1655.139 "/>
<polygon fill="#C8692C" points="939.262,1667.829 939.136,1668.174 937.395,1667.892 937.254,1668.865 937.144,1669.649 
	938.493,1669.947 937.96,1671.422 937.803,1671.908 937.426,1671.877 937.018,1672.002 936.956,1672.206 936.799,1672.253 
	936.673,1672.065 936.548,1672.08 936.312,1671.845 936.062,1671.767 936.03,1671.594 935.669,1671.249 935.434,1670.826 
	935.261,1670.653 935.136,1670.386 934.932,1670.182 934.901,1670.182 934.54,1670.135 934.556,1670.073 934.65,1670.057 
	934.634,1669.931 934.712,1669.759 934.712,1669.696 934.712,1669.571 934.712,1669.429 934.571,1669.021 934.54,1668.504 
	934.493,1667.97 934.477,1667.688 934.461,1667.625 934.461,1667.469 934.399,1667.092 934.383,1667.014 934.587,1666.982 
	936.752,1666.81 936.767,1666.825 936.783,1666.841 936.814,1666.857 937.05,1667.014 937.065,1667.029 937.112,1667.045 
	937.787,1667.296 938.336,1667.5 939.12,1667.767 "/>
<polygon fill="#C8692C" points="940.673,1668.41 940.532,1668.661 940.328,1669.069 940.14,1669.414 940.093,1669.602 
	939.999,1669.9 939.983,1669.978 939.858,1670.433 939.889,1670.449 940.03,1670.48 939.779,1670.684 939.701,1670.857 
	939.591,1671.108 939.607,1671.328 939.497,1671.453 939.403,1671.829 939.105,1671.673 939.026,1671.61 938.76,1671.61 
	938.681,1671.625 937.803,1671.908 937.96,1671.422 938.493,1669.947 938.791,1669.116 939.136,1668.174 939.262,1667.829 
	939.92,1668.065 "/>
<polygon fill="#C8692C" points="942.32,1668.912 942.336,1669.116 942.226,1670.135 942.242,1670.12 942.226,1670.088 
	942.179,1669.586 942.179,1669.539 942.101,1669.241 942.085,1669.225 942.038,1669.037 942.022,1669.037 942.007,1668.99 
	942.007,1668.974 941.881,1668.786 941.865,1668.771 941.803,1668.692 941.646,1668.488 941.615,1668.457 941.411,1668.253 
	941.395,1668.237 941.144,1668.049 941.065,1667.986 941.018,1667.955 941.003,1667.939 940.971,1667.923 940.344,1667.641 
	940.14,1667.547 940.124,1667.547 939.011,1667.139 939.026,1667.076 939.167,1666.496 939.23,1666.229 939.544,1664.911 
	940.156,1662.402 940.313,1661.758 940.548,1661.79 941.175,1661.837 941.191,1661.837 941.74,1661.868 941.771,1661.868 
	942.116,1661.837 942.132,1661.837 942.399,1661.805 942.43,1661.79 942.728,1661.711 942.76,1661.696 943.12,1661.554 
	944.077,1661.162 944.281,1661.068 944.595,1660.974 944.595,1661.021 944.548,1661.617 944.375,1662.198 944.03,1663.013 
	943.215,1664.959 942.195,1665.351 941.724,1666.606 942.132,1667.327 "/>
<polygon fill="#C8692C" points="873.99,1751.225 873.974,1751.481 874.487,1751.514 874.503,1751.273 874.839,1751.305 
	874.904,1751.321 875.481,1751.369 875.625,1751.385 876.571,1751.481 878.367,1751.642 880.917,1751.93 881.221,1751.963 
	882.119,1752.059 882.296,1752.075 882.216,1753.149 882.216,1753.197 882.199,1753.309 882.103,1754.721 882.023,1754.721 
	881.991,1754.721 881.879,1755.603 881.831,1755.987 881.879,1755.987 881.959,1756.003 881.831,1756.549 881.815,1756.581 
	881.815,1756.613 881.237,1759.259 881.189,1759.515 881.141,1759.756 880.981,1760.333 880.756,1761.167 880.756,1762.337 
	880.804,1763.203 880.756,1763.396 880.5,1764.278 880.74,1764.374 881.061,1764.486 881.67,1764.967 881.622,1765.128 
	881.51,1765.544 881.398,1766.01 881.109,1767.084 881.109,1767.116 881.093,1767.196 881.029,1767.533 881.237,1767.549 
	881.173,1767.822 880.853,1769.072 880.837,1769.184 880.708,1769.617 880.676,1769.714 880.596,1769.81 880.5,1769.842 
	880.388,1769.858 880.195,1770.58 880.003,1771.381 879.698,1772.536 879.682,1772.632 879.634,1772.808 879.666,1772.841 
	879.746,1772.921 879.778,1773.033 879.794,1773.113 879.794,1773.129 879.778,1773.257 879.714,1773.37 879.618,1773.45 
	879.554,1773.498 879.474,1773.514 879.409,1773.771 879.345,1774.011 879.057,1775.037 878.207,1775.053 877.277,1775.15 
	877.181,1775.166 876.78,1775.214 875.818,1775.358 875.449,1775.39 874.631,1775.454 874.567,1775.454 874.374,1775.47 
	874.07,1775.503 874.471,1772.808 874.07,1772.632 873.156,1772.263 872.883,1772.151 872.659,1772.055 872.547,1772.007 
	872.579,1771.349 872.755,1770.131 872.867,1769.297 872.947,1768.255 872.931,1768.094 872.867,1767.357 872.547,1765.929 
	872.354,1765.4 872.45,1764.31 871.985,1759.323 871.969,1759.146 873.781,1758.922 873.829,1758.745 873.845,1758.521 
	873.653,1758.281 873.589,1757.928 873.541,1757.11 873.557,1756.917 873.605,1756.565 873.717,1755.731 873.444,1755.635 
	873.412,1755.362 873.428,1755.17 873.509,1754.608 873.589,1753.726 873.685,1752.011 873.797,1751.209 "/>
<polygon fill="#C8692C" points="871.392,1742.534 871.151,1742.229 871.023,1742.101 870.686,1741.748 870.51,1741.572 
	870.189,1741.283 870.013,1741.123 869.837,1740.994 869.66,1740.866 869.404,1740.69 869.083,1740.481 868.971,1740.417 
	868.666,1740.289 868.377,1740.144 867.736,1739.936 867.656,1738.22 868.506,1738.284 869.468,1738.365 870.173,1738.429 
	870.51,1738.429 871.216,1738.429 871.713,1738.268 871.969,1738.204 872.547,1738.076 872.579,1737.803 872.595,1737.691 
	873.509,1737.515 873.99,1737.322 874.118,1737.274 875.353,1736.809 875.994,1736.681 876.523,1736.617 877.533,1736.28 
	877.742,1736.232 878.479,1736.088 878.848,1736.007 878.96,1735.991 879.057,1735.959 879.73,1735.767 880.404,1735.558 
	880.484,1735.526 880.901,1735.414 880.981,1735.526 881.109,1735.735 879.939,1736.585 878.656,1737.483 878.095,1737.883 
	875.417,1739.76 875.112,1739.984 874.423,1740.465 874.262,1740.561 873.733,1740.882 873.509,1741.01 "/>
<polygon fill="#C8692C" points="861.242,1764.149 861.162,1765.192 861.162,1765.208 861.162,1765.304 861.146,1765.4 
	861.082,1765.48 861.034,1765.528 860.985,1765.528 860.937,1765.512 860.809,1765.528 860.568,1765.544 860.504,1765.544 
	860.312,1766.282 859.959,1766.186 860.007,1765.641 859.719,1765.609 859.029,1765.673 858.692,1765.769 858.628,1765.785 
	858.564,1765.785 858.404,1765.769 858.083,1765.721 857.634,1765.625 857.618,1765.528 857.554,1764.823 857.538,1764.486 
	857.522,1764.374 857.65,1764.406 857.666,1764.406 857.827,1764.438 857.843,1764.438 857.859,1764.438 858.003,1764.47 
	858.019,1764.47 858.163,1764.486 858.179,1764.486 858.195,1764.486 858.372,1764.486 858.468,1764.486 858.548,1764.486 
	858.564,1764.486 858.724,1764.47 858.74,1764.47 858.901,1764.454 858.917,1764.454 859.093,1764.422 859.302,1764.374 
	859.382,1764.358 859.783,1764.278 859.847,1764.887 860.905,1764.775 860.857,1764.133 861.21,1764.149 861.242,1764.149 "/>
<polygon fill="#C8692C" points="795.647,1682.742 795.117,1684.796 794.572,1686.208 795.294,1686.448 795.182,1686.721 
	794.476,1686.481 793.497,1686.432 792.855,1685.983 791.957,1685.357 790.914,1684.635 791.01,1684.571 791.074,1684.523 
	791.203,1684.427 791.299,1684.347 791.427,1684.218 791.443,1684.202 791.54,1684.106 791.636,1683.994 791.716,1683.913 
	791.812,1683.785 791.877,1683.657 791.957,1683.528 792.053,1683.336 792.133,1683.111 792.31,1682.598 792.502,1682.068 
	794.299,1682.453 "/>
<polygon fill="#C8692C" points="793.545,1644.812 793.128,1645.518 792.791,1645.984 792.631,1646.192 790.625,1648.92 
	789.871,1648.39 789.325,1649.128 788.636,1648.647 787.914,1648.182 787.849,1648.134 788.491,1647.235 788.62,1647.043 
	788.748,1646.882 788.62,1646.802 789.919,1644.812 "/>
<polygon fill="#C8692C" points="790.611,1648.906 789.873,1648.377 789.312,1649.115 788.622,1648.634 787.916,1648.184 
	787.852,1648.12 788.477,1647.222 788.622,1647.029 788.734,1646.869 788.622,1646.789 790.307,1644.205 790.98,1643.163 
	793.002,1640.082 793.13,1640.162 794.269,1640.868 794.269,1640.884 794.478,1641.799 794.494,1642.473 794.334,1643.163 
	794.221,1643.724 794.093,1643.917 793.66,1644.623 793.114,1645.521 792.777,1645.97 792.633,1646.179 "/>
<polygon fill="#C8692C" points="830.127,1591.642 829.87,1593.551 828.923,1593.391 828.619,1593.343 828.795,1591.578 "/>
<polygon fill="#C8692C" points="843.074,1563.467 844.278,1563.869 844.262,1563.917 843.941,1564.382 843.748,1564.623 
	843.54,1564.799 843.443,1564.863 843.347,1564.911 843.267,1564.943 843.138,1564.943 841.919,1564.895 841.839,1564.879 
	841.518,1564.863 841.165,1564.799 841.117,1564.783 841.261,1563.66 841.309,1563.355 "/>
<polygon fill="#C8692C" points="790.626,1648.921 789.872,1648.392 789.326,1649.13 788.636,1648.649 787.914,1648.199 
	787.85,1648.135 788.492,1647.237 788.62,1647.044 788.749,1646.884 788.62,1646.804 790.321,1644.22 790.995,1643.177 
	793,1640.097 793.129,1640.177 794.268,1640.883 794.284,1640.899 794.493,1641.814 794.493,1642.488 794.348,1643.177 
	794.22,1643.739 794.107,1643.932 793.658,1644.638 793.129,1645.536 792.792,1645.985 792.631,1646.194 "/>
<polygon fill="#C8692C" points="844.775,1562.264 844.358,1562.088 844.31,1562.232 844.486,1562.986 844.374,1563.467 
	844.278,1563.869 843.074,1563.467 843.203,1561.943 843.219,1561.734 841.438,1561.59 841.261,1560.788 840.876,1560.05 
	840.716,1559.745 841.261,1559.568 841.293,1559.44 841.438,1558.895 841.374,1558.477 841.326,1558.397 842.256,1557.707 
	842.914,1557.226 843.957,1556.472 844.599,1555.99 845.256,1555.878 845.08,1558.189 844.919,1560.515 "/>
<polygon fill="#C8692C" points="795.641,1682.757 795.128,1684.811 794.583,1686.222 795.289,1686.463 795.176,1686.736 
	794.486,1686.495 793.508,1686.447 792.866,1685.998 791.967,1685.372 790.924,1684.65 791.021,1684.586 791.085,1684.538 
	791.197,1684.442 791.31,1684.361 791.422,1684.233 791.438,1684.217 791.55,1684.121 791.646,1684.008 791.711,1683.928 
	791.807,1683.8 791.887,1683.671 791.967,1683.543 792.064,1683.35 792.144,1683.126 792.32,1682.612 792.513,1682.083 
	794.294,1682.468 "/>
<polygon fill="#C8692C" points="793.556,1644.827 793.122,1645.533 792.786,1645.998 792.641,1646.207 790.62,1648.935 
	789.882,1648.405 789.32,1649.143 788.63,1648.662 787.924,1648.197 787.86,1648.148 788.486,1647.25 788.63,1647.057 
	788.743,1646.897 788.63,1646.817 789.914,1644.827 "/>
<polygon fill="#C8692C" points="714.777,1802.712 714.407,1802.905 715.725,1805.54 716.046,1805.379 716.207,1805.684 
	715.885,1805.845 716.464,1807.002 716.753,1806.841 718.054,1809.541 718.553,1810.585 718.247,1810.729 717.508,1809.219 
	716.448,1809.733 717.187,1811.212 716.544,1811.501 716.255,1811.629 716.126,1811.42 713.604,1812.818 713.138,1813.075 
	712.592,1813.397 710.278,1814.714 710.101,1814.313 710.005,1814.023 709.973,1813.879 708.462,1814.409 707.53,1810.456 
	707.466,1810.167 707.45,1810.087 706.679,1806.97 706.582,1806.616 709.041,1805.331 709.33,1805.17 714.616,1802.39 "/>
<polygon fill="#C8692C" points="728.771,1812.32 728.562,1812.497 728.338,1812.706 728,1812.995 727.598,1813.3 727.277,1813.541 
	726.634,1814.04 725.831,1814.602 725.67,1814.682 725.333,1814.875 725.14,1814.988 725.092,1815.02 724.096,1815.566 
	723.967,1815.646 723.116,1816.112 722.875,1816.241 722.682,1816.353 721.975,1814.988 721.911,1814.875 721.236,1813.509 
	721.123,1813.3 721.364,1813.188 721.027,1812.481 720.995,1812.433 722.216,1811.822 722.168,1811.774 722.232,1811.742 
	723.373,1811.083 724.321,1810.521 724.546,1810.392 724.674,1810.312 725.381,1809.926 725.799,1809.685 726.731,1809.171 
	726.779,1809.139 728.514,1811.902 "/>
<polygon fill="#C8692C" points="732.419,1814.746 732.258,1815.18 732.017,1815.807 731.985,1815.887 731.679,1816.739 
	731.374,1817.574 731.278,1817.831 731.005,1818.571 730.523,1819.84 730.314,1820.402 730.153,1820.788 730.571,1820.997 
	730.748,1821.093 731.278,1821.35 731.712,1821.559 731.679,1821.623 731.92,1821.8 732.033,1821.88 733.013,1822.604 
	733.013,1822.62 732.885,1822.861 732.836,1822.957 731.985,1824.516 731.953,1824.596 731.214,1825.897 730.619,1827.022 
	730.314,1827.681 730.169,1828.002 730.057,1828.211 729.992,1828.372 729.639,1829.111 729.269,1829.866 728.273,1827.858 
	728.257,1827.826 728.707,1827.649 727.341,1824.805 726.891,1825.046 725.413,1822.057 724.176,1819.519 723.341,1817.831 
	723.26,1817.687 723.308,1817.671 723.308,1817.655 723.469,1817.574 724.096,1817.269 724.417,1817.108 724.883,1816.867 
	725.124,1816.755 726.329,1816.08 726.827,1815.775 726.907,1815.727 727.116,1815.582 727.165,1815.55 727.245,1815.502 
	727.55,1815.277 727.823,1815.1 727.984,1814.955 728.08,1814.875 728.37,1814.666 729.543,1813.734 729.864,1813.477 
	730.346,1813.108 730.41,1813.156 730.474,1813.091 "/>
<polygon fill="#C8692C" points="732.595,1830.075 732.178,1830.879 732.161,1830.911 731.551,1832.068 731.535,1832.116 
	731.358,1832.437 731.326,1832.485 731.262,1832.533 731.197,1832.582 731.085,1832.614 731.021,1832.646 730.94,1832.646 
	730.876,1832.646 730.764,1832.63 730.651,1832.55 730.571,1832.469 730.49,1832.276 730.394,1832.1 730.008,1831.328 
	729.912,1831.136 729.735,1830.798 729.655,1830.621 729.607,1830.541 730.057,1830.3 730.185,1830.252 729.864,1829.593 
	729.639,1829.111 729.992,1828.372 730.057,1828.211 730.876,1829.882 731.904,1829.32 732.338,1829.963 "/>
<polygon fill="#C8692C" points="707.002,1809.046 706.488,1807.005 706.407,1806.652 708.866,1805.366 709.171,1805.205 
	714.457,1802.41 714.618,1802.731 714.232,1802.94 715.566,1805.575 715.903,1805.414 716.048,1805.72 715.726,1805.88 
	716.305,1807.037 716.61,1806.877 717.638,1809.046 "/>
<polygon fill="#C8692C" points="737.546,1686.159 737.562,1686.224 737.642,1686.384 738.317,1688.248 738.558,1688.923 
	737.016,1689.309 735.521,1689.678 734.911,1689.823 734.814,1689.807 734.798,1689.807 734.654,1689.228 734.348,1687.959 
	734.22,1687.413 733.85,1685.999 733.802,1685.822 734.397,1685.71 735.296,1685.501 735.923,1685.356 736.646,1685.195 
	737.144,1685.115 737.16,1685.099 "/>
<path fill="#C8692C" d="M830.325,1903.712l-0.32,0.352l-0.447,0.479l-0.016,0.016l-0.272,0.32l1.566,0.352l0.128,0.032l0.352,0.064
	l0.144,0.016l0.064,0.016l0.687,0.064l0.304,0.048h0.288l0.272,0.016l0.431,0.016h0.064h0.176l0.24-0.016l0.479-0.016l0.192-0.016
	l0.192-0.016l0.24-0.032l0.399-0.048l0.4-0.08l0.543-0.096l0.399-0.064l-0.032-0.128l0.655-0.144l0.463-0.128l0.08,0.335l0.08,0.304
	h-0.016l-0.288,0.112l-0.016,0.176l-0.08,2.125l-0.048,1.614l-0.048,1.278l-0.048,1.534v0.24l-0.016,0.16l-4.203,0.064l-0.847,0.016
	v0.048l-0.879,0.016h-0.224l-0.288,0.016l-1.63,0.112v-0.112h-0.32h-0.272l-0.16,0.016l-0.24,0.016l-0.479,0.032l-0.368,0.032
	l-0.655,0.032l-0.192,0.016l-0.16,0.016l-0.703,0.016h-0.192l-0.511,0.016l-0.208,0.016h-0.016l-1.087,0.032l-0.24,0.016
	l-0.575,0.08l-0.24,0.016l-0.08,0.016h-0.112h-0.128h-0.128h-0.048h-0.016l-0.304,0.016l-0.352,0.032l-0.304,0.032l-0.112,0.016
	l-0.447,0.032l-0.895,0.032l-0.575,0.032l-0.208,0.016l-0.383,0.016l-0.431,0.016h-0.144v-0.016l-0.128,0.016l0.032-0.192
	l0.032-0.24l0.128-1.135l0.064-0.495l0.671-2.493l0.16-0.591l0.128-0.479l0.08-0.32l0.112-0.464l0.08-0.32l0.176-0.623l0.032-0.112
	l0.208-0.719l0.176-0.559l0.112-0.08l0.016-0.288l0.032-0.304v-0.096l0.016-0.064l0.032-0.304l0.064-0.815l1.918,0.128l0.032-0.32
	l0.623,0.128l0.032-0.447l0.655,0.128l0.208,0.048l0.224,0.032l0.032,0.016l0.176,0.032l0.064,0.048l1.007,0.192l0.192,0.048
	l0.192,0.032l0.607,0.128l1.039,0.224l0.048,0.016l1.438,0.304l0.815,0.176l0.304,0.064L830.325,1903.712z M829.702,1905.15
	l-0.799-0.016l0.016,1.582h0.527v0.096h0.463l0.032-1.454h-0.224L829.702,1905.15z"/>
<polygon fill="#C8692C" points="856.595,1901.027 856.547,1901.107 855.7,1900.883 854.678,1900.612 854.166,1900.468 
	853.495,1900.276 852.568,1900.005 851.738,1899.749 851.05,1899.541 850.939,1899.509 851.514,1898.247 851.897,1897.352 
	852.265,1896.569 852.345,1896.377 852.521,1895.978 852.872,1895.163 853.176,1894.491 853.623,1893.485 854.071,1892.414 
	854.486,1891.503 854.885,1891.695 855.205,1891.839 856.451,1892.414 856.739,1892.558 857.234,1892.798 857.522,1892.942 
	858.113,1893.213 858.928,1893.613 859.2,1893.74 859.615,1893.948 859.679,1893.964 859.711,1893.996 "/>
<polygon fill="#C8692C" points="781.526,1852.402 781.51,1853.297 781.59,1855.055 781.574,1855.646 781.558,1856.174 
	781.526,1857.596 781.462,1857.628 779.576,1858.523 778.825,1858.906 778.761,1858.938 778.154,1859.242 778.138,1858.922 
	778.138,1858.858 778.106,1857.196 778.074,1855.295 778.058,1853.265 778.058,1852.115 778.058,1851.987 778.058,1851.939 
	778.042,1851.571 778.026,1850.756 778.889,1850.661 778.921,1850.693 779.592,1850.213 779.704,1850.149 779.704,1850.133 
	779.832,1850.053 780.471,1849.766 781.382,1849.606 781.542,1849.574 781.542,1850.165 "/>
<polygon fill="#C8692C" points="720.438,2025.272 720.679,2025.545 720.807,2025.802 720.84,2025.915 721.016,2026.076 
	721.386,2026.333 721.466,2026.445 721.691,2026.606 721.916,2026.767 721.981,2026.815 722.254,2027.008 722.398,2027.104 
	722.688,2027.249 722.736,2027.313 723.057,2027.619 723.25,2027.795 723.411,2027.94 723.347,2027.988 723.363,2028.052 
	723.331,2028.085 723.025,2028.358 722.816,2028.535 722.704,2028.647 722.623,2028.727 722.125,2029.145 721.627,2029.563 
	721.257,2029.853 721.193,2029.885 720.888,2030.11 720.759,2030.206 720.727,2030.206 720.695,2030.222 720.647,2030.222 
	719.972,2030.801 719.409,2030.078 719.281,2029.885 719.152,2029.692 719.007,2029.515 718.798,2029.242 718.75,2029.21 
	718.525,2029.161 718.397,2029.129 718.22,2029.049 717.77,2029.193 717.448,2029.274 717.304,2029.354 717.063,2029.499 
	716.838,2029.531 716.661,2029.563 716.243,2029.354 715.665,2029.033 715.665,2029.001 715.359,2028.76 715.231,2028.647 
	714.604,2028.181 714.765,2028.036 714.941,2027.94 715.038,2027.844 715.343,2027.667 715.552,2027.522 715.809,2027.361 
	715.89,2027.297 716.163,2027.088 716.404,2026.863 716.532,2026.734 716.629,2026.67 716.693,2026.622 716.741,2026.574 
	716.79,2026.493 716.966,2026.268 717.191,2026.043 717.288,2025.979 717.336,2025.947 717.593,2025.706 717.818,2025.481 
	718.172,2025.256 718.573,2024.999 718.782,2024.854 718.927,2025.143 719.056,2025.529 719.104,2025.577 719.136,2025.577 
	719.473,2025.417 719.875,2025.288 720.165,2025.208 720.245,2025.224 720.357,2025.192 "/>
<polygon fill="#C8692C" points="716.806,2022.845 717.207,2023.327 717.4,2023.633 717.481,2023.761 717.754,2024.179 
	717.577,2024.324 717.432,2024.388 717.272,2024.468 717.063,2024.677 716.998,2024.774 716.854,2024.934 716.661,2025.159 
	716.404,2025.32 716.227,2025.449 716.131,2025.545 715.873,2025.722 715.6,2025.883 715.407,2026.043 715.134,2026.252 
	714.829,2026.493 714.732,2026.59 714.7,2026.622 714.539,2026.734 714.411,2026.847 714.379,2026.831 713.72,2027.377 
	714.315,2027.94 714.491,2028.085 714.604,2028.181 713.865,2029.001 713.19,2028.406 712.74,2027.972 712.563,2027.811 
	712.37,2027.651 711.968,2027.281 711.711,2027.04 710.972,2026.365 711.132,2026.156 711.116,2026.14 711.422,2025.818 
	711.438,2025.786 711.631,2025.609 711.615,2025.593 711.759,2025.417 711.743,2025.401 712.065,2025.127 712.627,2024.661 
	712.82,2024.5 712.852,2024.452 712.9,2024.42 713.173,2024.195 713.19,2024.195 713.495,2023.809 713.72,2023.536 
	713.961,2023.343 714.202,2023.15 714.347,2023.07 714.507,2023.006 714.797,2022.861 715.038,2022.813 715.584,2022.781 
	715.713,2022.813 715.761,2022.829 715.761,2022.845 715.89,2022.845 716.195,2022.861 716.532,2022.877 716.661,2022.877 
	716.79,2022.829 "/>
<polygon fill="#C8692C" points="579.609,2052.771 579.513,2052.787 579.288,2052.868 579.191,2052.868 578.854,2052.964 
	578.5,2053.044 578.404,2052.353 578.388,2052.193 578.227,2051.068 578.099,2050.521 577.97,2049.927 577.841,2049.123 
	577.809,2048.962 577.777,2048.866 577.745,2048.753 577.713,2048.609 577.665,2048.496 577.665,2048.207 577.649,2047.966 
	577.616,2047.564 577.568,2047.275 577.552,2047.146 577.536,2047.066 577.6,2046.969 577.665,2046.905 577.761,2046.857 
	577.906,2046.841 578.066,2046.808 578.179,2046.808 578.211,2046.808 578.436,2046.712 578.581,2046.664 578.629,2046.712 
	579.079,2046.632 579.127,2046.744 579.256,2047.146 579.545,2048.03 579.561,2048.062 579.77,2048.689 579.899,2049.026 
	580.091,2049.541 580.413,2050.28 580.461,2050.409 580.927,2051.55 581.072,2051.919 581.184,2052.369 581.2,2052.434 
	580.702,2052.53 580.365,2052.594 579.818,2052.723 "/>
<polygon fill="#C8692C" points="647.029,1996.728 646.804,1996.455 646.692,1996.423 646.515,1996.358 646.081,1996.23 
	645.792,1996.133 645.342,1995.957 645.165,1995.892 645.149,1995.892 645.004,1995.828 644.747,1995.715 644.538,1995.619 
	644.249,1995.474 643.96,1995.346 643.734,1995.378 643.67,1995.362 643.429,1995.362 643.204,1995.378 643.092,1995.442 
	642.979,1995.523 642.899,1995.555 642.818,1995.555 642.738,1995.555 642.529,1995.458 642.32,1995.41 642.159,1995.378 
	641.983,1995.362 641.758,1995.298 641.484,1995.314 641.436,1995.314 641.211,1995.233 641.195,1995.201 641.115,1995.04 
	641.002,1994.799 640.745,1994.381 640.681,1994.301 640.584,1994.156 640.343,1993.915 640.118,1993.739 640.038,1993.69 
	639.893,1993.69 639.476,1993.69 639.234,1993.481 639.202,1993.449 639.042,1993.433 638.913,1993.417 638.768,1993.433 
	638.656,1993.449 638.592,1993.449 638.527,1993.433 638.447,1993.385 638.351,1993.337 638.206,1993.337 638.061,1993.401 
	637.611,1993.642 636.968,1993.803 636.904,1993.883 636.776,1993.851 636.342,1993.755 636.245,1993.658 636.068,1993.498 
	635.843,1993.256 636.968,1990.846 637.274,1990.171 636.856,1989.962 636.486,1989.785 634.622,1988.676 635.313,1987.454 
	635.506,1986.635 635.602,1985.028 635.651,1984.047 635.667,1983.742 635.699,1983.26 635.988,1982.601 636.406,1981.685 
	636.888,1981.106 637.065,1980.881 637.193,1980.399 637.177,1980.077 636.936,1979.82 636.872,1979.595 638.511,1979.29 
	639.138,1978.888 639.267,1978.695 639.347,1978.39 639.363,1978.101 639.299,1977.924 639.058,1977.554 637.804,1976.236 
	638.126,1976.252 639.17,1976.558 639.299,1976.59 639.46,1976.638 640.199,1976.847 640.488,1976.124 642.143,1976.542 
	642.561,1974.822 643.284,1974.983 644.522,1975.24 644.908,1975.32 644.988,1974.854 645.117,1974.083 645.245,1973.263 
	645.31,1972.893 645.342,1972.861 645.406,1972.652 645.486,1972.379 645.663,1971.784 645.984,1970.772 646.177,1970.113 
	646.258,1969.856 646.402,1969.406 646.563,1968.907 646.611,1968.747 646.66,1968.489 646.724,1968.505 646.933,1968.522 
	647.11,1968.554 647.302,1968.586 647.511,1968.602 647.543,1968.618 647.592,1968.65 647.64,1968.666 647.704,1968.682 
	647.768,1968.682 647.849,1968.682 647.913,1968.682 647.977,1968.65 648.09,1968.586 648.186,1968.538 648.251,1968.522 
	648.315,1968.505 648.427,1968.489 648.46,1968.473 648.524,1968.457 648.572,1968.441 648.652,1968.425 648.765,1968.425 
	648.845,1968.441 648.958,1968.489 649.135,1968.538 649.247,1968.57 649.327,1968.57 649.424,1968.57 649.52,1968.554 
	649.665,1968.522 649.745,1968.505 649.906,1968.505 650.067,1968.522 650.179,1968.522 650.276,1968.538 650.324,1968.554 
	650.42,1968.538 650.549,1968.538 650.677,1968.538 650.822,1968.522 650.951,1968.489 651.031,1968.473 651.111,1968.457 
	651.176,1968.441 651.288,1968.393 651.352,1968.377 651.465,1968.345 651.593,1968.313 651.61,1968.329 651.658,1968.329 
	651.802,1968.232 651.915,1968.184 651.979,1968.184 652.124,1968.072 652.349,1967.847 652.445,1967.814 652.895,1967.364 
	652.943,1967.3 653.024,1967.252 653.217,1967.075 653.265,1967.011 654.727,1966.689 654.952,1967.67 655.467,1970.113 
	655.515,1970.273 655.595,1970.691 656.961,1977.008 657.122,1977.747 656.961,1978.727 656.929,1979.049 656.897,1979.29 
	656.785,1979.724 656.704,1980.109 656.672,1980.174 656.64,1980.302 656.592,1980.495 656.527,1980.704 656.351,1981.331 
	656.158,1981.974 655.852,1983.292 655.724,1983.87 655.595,1984.513 655.531,1984.786 655.354,1985.606 655.29,1985.911 
	655.177,1986.538 655.145,1986.651 655.129,1986.828 654.342,1989.142 654.004,1989.721 653.329,1990.476 652.976,1990.749 
	652.59,1990.83 652.317,1990.958 650.838,1992.131 650.629,1992.276 650.42,1992.437 650.243,1992.598 650.035,1992.79 
	649.826,1993.015 649.552,1993.369 649.247,1993.787 648.797,1994.381 648.347,1995.008 647.768,1995.828 647.367,1996.391 
	647.19,1996.615 647.077,1996.712 "/>
<polygon fill="#C8692C" points="579.465,2044.542 579.416,2044.221 579.127,2044.173 579.111,2043.899 579.031,2042.742 
	578.918,2041.103 580.268,2041.022 580.445,2041.264 580.574,2041.553 580.67,2041.826 580.702,2041.923 580.702,2042.019 
	580.702,2042.148 580.67,2042.26 580.622,2042.501 580.509,2042.903 580.397,2043.369 580.332,2043.626 580.268,2043.916 
	580.204,2044.06 580.091,2044.478 "/>
<polygon fill="#C8692C" points="636.295,1981.899 636.391,1981.69 636.873,1981.111 637.05,1980.87 637.179,1980.388 
	637.163,1980.067 636.922,1979.809 636.857,1979.584 638.497,1979.279 639.123,1978.893 639.252,1978.7 639.332,1978.379 
	639.348,1978.09 639.284,1977.913 639.043,1977.543 637.789,1976.241 638.111,1976.257 639.155,1976.547 639.284,1976.595 
	639.445,1976.643 640.184,1976.852 640.473,1976.113 642.129,1976.547 642.547,1974.827 643.27,1974.972 644.507,1975.245 
	644.893,1975.325 644.973,1974.843 645.102,1974.072 645.23,1973.252 645.295,1972.882 645.327,1972.866 645.391,1972.641 
	645.472,1972.368 645.648,1971.773 645.97,1970.777 646.163,1970.102 646.243,1969.845 646.388,1969.395 646.548,1968.896 
	646.596,1968.736 646.645,1968.495 646.709,1968.495 646.918,1968.527 647.095,1968.543 647.288,1968.575 647.497,1968.607 
	647.529,1968.623 647.577,1968.639 647.625,1968.672 647.689,1968.672 647.754,1968.688 647.834,1968.688 647.898,1968.672 
	647.963,1968.639 648.075,1968.591 648.172,1968.543 648.236,1968.511 648.3,1968.511 648.413,1968.479 648.445,1968.479 
	648.509,1968.446 648.557,1968.43 648.638,1968.414 648.75,1968.414 648.83,1968.446 648.943,1968.479 649.12,1968.527 
	649.232,1968.559 649.313,1968.575 649.409,1968.559 649.505,1968.559 649.65,1968.511 649.731,1968.495 649.891,1968.495 
	650.052,1968.511 650.164,1968.527 650.261,1968.543 650.309,1968.543 650.405,1968.543 650.534,1968.527 650.663,1968.527 
	650.807,1968.511 650.936,1968.479 651.016,1968.479 651.097,1968.463 651.161,1968.446 651.273,1968.398 651.338,1968.366 
	651.45,1968.334 651.579,1968.302 651.595,1968.334 651.643,1968.318 651.788,1968.221 651.9,1968.173 651.964,1968.173 
	652.109,1968.077 652.334,1967.852 652.431,1967.82 652.88,1967.354 652.929,1967.305 653.009,1967.241 653.202,1967.08 
	653.25,1967 654.713,1966.678 654.938,1967.675 655.452,1970.118 655.5,1970.263 655.581,1970.681 656.947,1976.997 
	657.107,1977.752 656.947,1978.717 656.914,1979.038 656.882,1979.295 656.77,1979.729 656.689,1980.099 656.657,1980.163 
	656.625,1980.292 656.577,1980.484 656.513,1980.693 656.336,1981.336 656.159,1981.899 "/>
<polygon fill="#C8692C" points="743.373,2062.081 742.521,2062.306 742.038,2062.419 741.54,2062.66 741.411,2062.419 
	741.266,2062.161 741.137,2061.952 740.751,2061.228 741.861,2060.569 742.022,2060.472 742.135,2060.408 742.617,2060.166 
	743.164,2061.18 "/>
<polygon fill="#C8692C" points="739.384,2065.298 739.126,2064.832 738.982,2064.606 738.547,2063.85 738.258,2063.303 
	737.727,2062.435 737.389,2061.839 736.327,2060.134 735.845,2059.314 735.105,2058.123 735.04,2057.994 734.895,2057.769 
	734.139,2056.611 733.93,2056.273 733.431,2055.501 733.737,2055.308 733.753,2055.34 734.011,2055.629 734.365,2056.064 
	734.542,2056.289 734.976,2056.804 735.298,2057.174 735.78,2057.801 736.102,2058.22 736.327,2058.525 736.456,2058.734 
	736.617,2059.008 737.405,2060.343 737.968,2061.309 738.435,2062.113 738.579,2062.338 738.676,2062.499 738.901,2062.853 
	739.255,2063.464 739.706,2064.204 740.124,2064.928 739.995,2064.993 739.673,2065.154 "/>
<polygon fill="#C8692C" points="731.758,2046.138 731.903,2046.347 732.144,2046.636 732.257,2046.781 732.45,2047.039 
	732.498,2047.103 732.563,2047.167 732.611,2047.215 732.772,2047.376 732.965,2047.586 732.981,2047.618 732.997,2047.602 
	733.061,2047.65 733.544,2047.232 733.576,2047.215 733.978,2046.974 734.107,2046.894 734.397,2046.733 734.493,2046.668 
	734.525,2046.652 734.879,2047.151 735.024,2047.103 735.281,2047.553 735.603,2048.116 735.587,2048.149 735.684,2048.277 
	735.925,2048.567 735.957,2048.599 736.022,2048.679 736.359,2049.098 736.681,2048.921 736.874,2048.808 737.196,2048.599 
	737.26,2048.663 737.341,2048.615 737.743,2048.358 738.29,2047.988 738.676,2047.73 739.062,2047.602 739.094,2047.666 
	739.303,2047.972 739.4,2048.133 739.416,2048.149 739.496,2048.245 739.545,2048.31 739.738,2048.583 739.738,2048.599 
	739.963,2048.937 740.204,2049.323 740.446,2049.645 740.542,2049.773 740.799,2050.127 740.816,2050.111 740.832,2050.144 
	741.041,2050.433 741.33,2050.835 741.491,2051.077 741.459,2051.077 740.864,2051.221 740.816,2051.238 740.542,2051.318 
	740.413,2051.366 740.108,2051.463 739.915,2051.543 739.915,2051.575 739.432,2051.768 739.094,2051.929 738.708,2052.171 
	738.451,2052.315 738.065,2052.557 735.571,2051.913 735.056,2053.715 736.81,2054.021 736.472,2054.503 736.681,2054.793 
	736.729,2054.873 736.745,2054.889 736.922,2055.276 736.955,2055.26 737.244,2055.871 737.244,2055.887 736.987,2056.064 
	737.083,2056.337 737.212,2056.707 737.228,2056.74 737.309,2057.061 737.357,2057.19 737.389,2057.254 737.421,2057.303 
	737.55,2057.592 737.646,2057.785 737.823,2058.123 738.049,2058.573 738.29,2059.072 738.451,2059.41 738.628,2059.7 
	738.933,2060.279 739.384,2061.115 739.609,2061.534 739.77,2061.775 739.866,2061.952 740.027,2062.145 740.172,2062.306 
	740.381,2062.595 740.703,2063.03 740.944,2062.869 741.62,2064.156 741.716,2064.365 741.475,2064.478 740.413,2064.993 
	739.754,2065.331 739.48,2065.475 739.384,2065.298 739.673,2065.154 739.995,2064.993 740.124,2064.928 739.706,2064.204 
	739.255,2063.464 738.901,2062.853 738.676,2062.499 738.579,2062.338 738.435,2062.113 737.968,2061.309 737.405,2060.343 
	736.617,2059.008 736.456,2058.734 736.327,2058.525 736.102,2058.22 735.78,2057.801 735.298,2057.174 734.976,2056.804 
	734.542,2056.289 734.365,2056.064 734.011,2055.629 733.753,2055.34 733.737,2055.308 733.431,2055.501 733.206,2055.163 
	733.142,2055.066 732.595,2054.23 732.161,2053.554 731.807,2053.072 731.372,2052.428 730.037,2050.513 729.442,2049.677 
	729.393,2049.596 728.75,2048.696 727.367,2046.765 726.932,2046.154 726.466,2045.51 725.903,2044.738 726.096,2044.593 
	726.948,2043.998 727.704,2043.419 729.184,2042.437 729.49,2042.856 729.731,2043.242 729.86,2043.451 729.892,2043.499 
	729.989,2043.644 730.005,2043.66 730.005,2043.676 730.069,2043.74 730.375,2044.175 731.083,2045.172 731.421,2045.703 
	731.726,2046.105 "/>
<polygon fill="#C8692C" points="719.741,2034.554 719.95,2034.828 718.631,2035.552 718.615,2035.552 718.647,2035.729 
	718.567,2035.809 718.551,2035.793 718.197,2035.343 718.004,2035.101 717.955,2035.021 717.939,2034.924 717.939,2034.796 
	717.955,2034.715 717.955,2034.683 717.971,2034.603 718.004,2034.538 718.132,2034.442 718.599,2034.233 718.872,2034.12 
	719.242,2033.975 719.677,2034.49 "/>
<polygon fill="#C8692C" points="789.689,1986.989 789.689,1987.021 788.756,1986.941 788.708,1987.134 788.676,1987.504 
	788.081,1987.488 788.065,1987.488 788,1988.147 787.968,1988.147 787.872,1989.756 787.984,1990.737 788.628,1990.705 
	788.644,1990.802 788.692,1991.252 788.933,1991.22 789.915,1991.172 790.027,1991.606 790.092,1991.735 790.429,1991.767 
	790.606,1991.799 790.671,1991.799 790.783,1991.815 790.687,1992.153 790.622,1992.442 790.574,1992.635 790.526,1992.877 
	790.526,1992.893 790.349,1993.713 790.333,1993.777 790.333,1993.794 790.301,1993.987 790.252,1994.212 790.172,1994.453 
	789.979,1995.048 789.931,1995.209 789.915,1995.225 789.915,1995.241 789.85,1995.515 790.51,1995.692 790.719,1995.756 
	790.703,1995.82 790.703,1995.836 790.671,1995.981 790.574,1996.351 790.494,1996.383 790.333,1996.464 789.915,1996.641 
	789.432,1996.737 789.207,1996.753 789.078,1996.769 788.901,1996.753 788.982,1997.22 789.078,1997.831 788.917,1997.928 
	788.708,1998.024 788.628,1998.056 788.338,1998.169 788.049,1998.249 787.679,1998.346 787.421,1998.41 787.148,1998.426 
	786.826,1998.442 786.488,1998.491 786.279,1998.474 785.925,1998.442 785.523,1998.346 785.234,1998.249 784.96,1998.137 
	784.735,1998.04 784.735,1998.024 784.639,1997.992 784.687,1997.895 784.719,1997.719 784.735,1997.606 784.719,1997.509 
	784.719,1997.397 784.687,1997.204 784.703,1997.22 784.703,1997.091 784.687,1996.882 784.687,1996.802 784.703,1996.737 
	784.928,1996.174 784.896,1995.627 784.88,1995.257 784.864,1995.08 784.816,1994.71 784.944,1994.63 785.362,1994.614 
	785.909,1994.598 786.36,1994.582 787.084,1994.437 787.164,1994.485 787.212,1994.614 788.049,1994.373 788.081,1994.373 
	787.968,1993.729 787.888,1993.182 787.824,1992.861 787.759,1992.217 787.711,1991.847 787.598,1991.847 786.81,1991.911 
	786.81,1991.847 786.826,1991.799 786.842,1991.686 786.842,1991.606 786.505,1991.574 786.295,1991.558 786.086,1991.349 
	786.038,1991.316 785.781,1991.123 785.797,1991.107 785.716,1990.464 785.7,1990.351 785.604,1989.692 785.507,1988.968 
	785.443,1988.598 785.427,1988.469 785.491,1988.453 785.925,1988.405 785.877,1987.52 785.684,1987.536 785.684,1987.343 
	785.765,1987.263 785.813,1987.231 785.845,1987.198 786.119,1986.957 786.392,1986.732 786.424,1986.716 786.633,1986.442 
	786.682,1986.394 786.826,1986.201 786.875,1986.233 786.923,1986.169 787.084,1986.973 787.775,1986.828 787.807,1986.33 
	787.84,1985.976 787.856,1985.493 787.55,1985.461 787.631,1985.429 787.743,1985.397 787.824,1985.365 787.872,1985.349 
	788.033,1985.3 788.177,1985.252 788.58,1985.172 788.853,1985.156 789.014,1985.188 789.223,1985.22 789.303,1985.236 
	789.448,1985.268 789.448,1985.22 789.561,1985.252 789.689,1985.365 789.77,1985.445 789.834,1985.525 789.882,1985.622 
	789.818,1986.056 789.77,1986.474 789.722,1986.861 "/>
<polygon fill="#C8692C" points="1443.12,888.102 1443.505,888.23 1444.339,888.471 1444.403,888.487 1444.788,888.599 
	1444.965,889.77 1444.708,889.931 1444.676,889.963 1442.847,890.99 1442.815,890.284 1442.783,889.899 1441.932,889.899 
	1441.724,887.685 "/>
<polygon fill="#C8692C" points="1480.166,869.859 1479.203,874.544 1478.288,873.999 1477.631,873.598 1477.55,873.485 
	1477.454,873.293 1477.406,873.068 1477.374,872.843 1477.839,869.426 "/>
<polygon fill="#C8692C" points="1424.172,931.662 1424.172,931.855 1424.091,937.583 1418.155,933.893 1419.84,931.277 
	1420,931.037 "/>
<polygon fill="#C8692C" points="1432.579,931.743 1428.006,938.433 1427.445,939.267 1427.252,939.54 1424.091,937.583 
	1424.172,931.855 1424.172,931.662 1428.664,932.096 1431.568,932.128 1432.29,931.887 "/>
<polygon fill="#C8692C" points="1443.104,888.102 1443.489,888.23 1444.323,888.471 1444.387,888.487 1444.772,888.599 
	1444.965,889.77 1444.692,889.931 1444.66,889.963 1442.831,890.99 1442.799,890.284 1442.783,889.899 1441.917,889.899 
	1441.724,887.685 "/>
<path fill="#C8692C" d="M1271.512,917.078l0.417,1.107l0.016,0.529l0.048,1.604l-0.016,0.176l-0.16,1.46l-0.08,0.658v0.016
	l-2.599-0.931l0.048-1.669l-0.016-0.449l-0.048-1.284v-0.578l0.401-0.69l0.626-0.481l0.096-0.048l0.69,0.866L1271.512,917.078z
	 M1270.967,919.902v-0.289v-0.481h-0.674v0.465v0.305H1270.967z"/>
<polygon fill="#C8692C" points="1424.156,931.662 1424.156,931.855 1424.091,937.583 1418.139,933.893 1419.84,931.277 
	1419.984,931.037 "/>
<polygon fill="#C8692C" points="1397.073,847.076 1397.057,847.718 1397.057,847.734 1397.009,848.713 1396.977,848.857 
	1396.704,850.445 1396.271,852.226 1395.758,853.831 1395.629,853.975 1395.357,854.104 1395.228,854.12 1395.068,854.12 
	1394.699,853.751 1394.442,853.478 1394.282,853.301 1394.025,853.045 1393.592,852.595 1394.041,852.21 1393.544,851.649 
	1393.88,851.392 1394.41,851.007 1394.939,851.44 1395.196,851.119 1395.838,849.37 1395.549,849.274 1395.613,849.066 
	1395.196,848.857 1395.485,848.328 1395.774,848.424 1396.399,847.012 "/>
<polygon fill="#C8692C" points="1432.563,931.743 1428.006,938.433 1427.429,939.267 1427.236,939.54 1424.091,937.583 
	1424.156,931.855 1424.156,931.662 1424.172,931.662 1428.664,932.096 1431.552,932.128 1432.274,931.887 "/>
<polygon fill="#C8692C" points="1411.609,832.492 1411.417,833.101 1411.401,833.134 1411.385,833.214 1411.112,833.117 
	1410.839,833.021 1409.219,832.492 "/>
<path fill="#C8692C" d="M1271.512,917.078l0.417,1.107l0.016,0.529l0.048,1.604l-0.032,0.176l-0.144,1.46l-0.08,0.658l-0.016,0.016
	l-2.583-0.931l0.048-1.669l-0.016-0.449l-0.064-1.284v-0.578l0.417-0.69l0.61-0.481l0.112-0.048l0.69,0.866L1271.512,917.078z
	 M1270.967,919.902v-0.289v-0.481h-0.69v0.465v0.305H1270.967z"/>
<polygon fill="#C8692C" points="1271.625,996.626 1271.817,996.386 1272.122,996.626 "/>
<polygon fill="#C8692C" points="1397.073,847.06 1397.057,847.702 1397.057,847.718 1397.009,848.697 1396.977,848.841 
	1396.704,850.429 1396.271,852.226 1395.758,853.815 1395.629,853.975 1395.357,854.088 1395.228,854.12 1395.068,854.104 
	1394.699,853.751 1394.442,853.478 1394.282,853.301 1394.025,853.029 1393.592,852.579 1394.041,852.21 1393.544,851.633 
	1393.88,851.376 1394.41,850.991 1394.939,851.44 1395.196,851.119 1395.838,849.354 1395.549,849.258 1395.613,849.066 
	1395.196,848.841 1395.485,848.312 1395.774,848.424 1396.399,846.996 "/>
<polygon fill="#C8692C" points="1411.176,831.657 1411.256,831.69 1411.513,831.834 1411.673,831.93 1411.786,831.978 
	1411.417,833.085 1411.401,833.133 1411.385,833.198 1411.112,833.101 1410.839,833.021 1406.523,831.593 1406.459,831.577 
	1407.165,829.844 1407.39,829.395 1407.406,829.347 1407.406,829.363 1408.545,830.005 1409.01,830.454 "/>
<polygon fill="#C8692C" points="1311.861,1143.254 1311.829,1143.334 1310.706,1145.997 1309.872,1148.179 1307.915,1147.296 
	1307.723,1147.216 1307.37,1147.072 1307.129,1146.959 1307.001,1146.911 1307.225,1146.302 1307.37,1145.933 1308.525,1142.885 
	1309.985,1143.205 1310.642,1143.189 "/>
<polygon fill="#C8692C" points="1157.857,1181.579 1159.125,1181.547 1159.51,1181.547 1159.59,1181.531 1159.622,1182.51 
	1157.841,1182.606 "/>
<polygon fill="#C8692C" points="1360.582,982.524 1359.908,982.492 1359.844,983.037 1358.753,982.893 1358.817,982.636 
	1359.459,980.759 1359.523,980.792 1360.871,981.177 "/>
<polygon fill="#C8692C" points="1273.2,1000.652 1271.805,1000.556 1271.452,1000.476 1271.291,1000.379 1271.147,1000.219 
	1270.858,999.978 1269.398,999.834 1269.43,999.77 1269.527,999.369 1269.543,999.272 1269.719,998.823 1269.783,998.839 
	1270.056,998.518 1270.361,998.165 1270.842,997.556 1271.805,996.305 1272.639,996.946 1273.136,997.331 1273.617,997.716 
	1273.81,997.861 1273.97,997.989 1273.874,998.262 1273.858,998.294 1273.473,999.433 1273.425,999.609 "/>
<polygon fill="#C8692C" points="1360.582,982.54 1359.908,982.508 1359.844,983.037 1358.753,982.909 1358.817,982.636 
	1359.459,980.775 1359.523,980.791 1360.871,981.176 "/>
<polygon fill="#C8692C" points="1318.375,938.343 1317.252,938.616 1316.049,938.856 1316.017,938.856 1316.113,935.776 
	1318.503,936.081 "/>
<polygon fill="#C8692C" points="1271.628,996.545 1271.805,996.305 1272.109,996.545 "/>
<polygon fill="#C8692C" points="1271.612,996.545 1271.805,996.305 1272.109,996.545 "/>
<polygon fill="#C8692C" points="1273.184,1000.652 1271.805,1000.556 1271.452,1000.476 1271.275,1000.379 1271.147,1000.219 
	1270.858,999.978 1269.398,999.834 1269.414,999.77 1269.527,999.369 1269.543,999.272 1269.719,998.823 1269.783,998.839 
	1270.056,998.518 1270.361,998.165 1270.826,997.556 1271.805,996.305 1272.639,996.946 1273.136,997.331 1273.617,997.716 
	1273.81,997.861 1273.954,997.989 1273.858,998.262 1273.858,998.294 1273.457,999.433 1273.425,999.609 "/>
<polygon fill="#C8692C" points="1125.737,1394.204 1126.297,1395.196 1126.313,1395.212 1126.281,1395.228 1125.065,1395.82 
	1125.049,1395.804 1124.857,1395.388 1124.761,1395.212 1124.649,1394.972 1124.457,1394.588 1124.889,1394.348 1125.593,1393.948 
	1125.625,1393.995 "/>
<polygon fill="#C8692C" points="1179.924,1435.937 1178.195,1434.144 1190.633,1433.056 1188.648,1436.353 1188.12,1436.673 
	1187.752,1436.817 1187.031,1436.881 1186.263,1436.817 1185.735,1436.801 1185.126,1436.801 1184.294,1436.833 1183.365,1436.833 
	1182.389,1436.689 "/>
<polygon fill="#C8692C" points="1125.753,1394.204 1126.313,1395.196 1126.329,1395.212 1126.297,1395.228 1125.065,1395.82 
	1125.065,1395.804 1124.857,1395.388 1124.777,1395.212 1124.649,1394.972 1124.473,1394.588 1124.889,1394.348 1125.609,1393.948 
	1125.641,1393.995 "/>
<polygon fill="#C8692C" points="1125.803,1394.204 1126.363,1395.212 1126.379,1395.212 1126.347,1395.228 1125.114,1395.837 
	1125.114,1395.804 1124.906,1395.404 1124.826,1395.212 1124.698,1394.972 1124.522,1394.604 1124.938,1394.348 1125.659,1393.964 
	1125.691,1394.012 "/>
<polygon fill="#C8692C" points="1124.778,1339.664 1123.353,1342.321 1122.793,1342.433 1122.777,1342.417 1122.553,1342.097 
	1121.913,1342.657 1121.512,1343.138 1121.368,1340.784 1121.368,1340.768 1121.721,1340.64 1121.753,1340.64 1121.945,1340.56 
	1121.993,1340.56 1122.137,1340.512 1123.081,1340.176 1124.73,1339.616 "/>
<polygon fill="#C8692C" points="1263.516,1202.746 1263.34,1204.235 1263.212,1204.299 1263.084,1204.363 1263.116,1204.235 
	1263.116,1204.139 1263.196,1203.675 1263.212,1203.515 1263.196,1203.531 1263.084,1203.579 1262.603,1203.771 1262.475,1203.082 
	1262.587,1202.506 "/>
<polygon fill="#C8692C" points="1207.152,1178.686 1206.528,1180.047 1206.288,1180.543 1206.224,1180.687 1204.527,1180.303 
	1205.343,1178.126 "/>
<polygon fill="#C8692C" points="1150.276,1247.505 1150.965,1247.537 1151.045,1247.969 1151.125,1248.385 1151.285,1249.298 
	1151.125,1250.21 1150.821,1250.979 1150.516,1251.651 1149.812,1251.443 1148.74,1251.123 1148.243,1251.011 1148.243,1250.995 
	1149.588,1247.825 1149.636,1247.425 "/>
<polygon fill="#C8692C" points="1263.516,1202.746 1263.34,1204.235 1263.212,1204.299 1263.084,1204.363 1263.1,1204.235 
	1263.116,1204.139 1263.18,1203.675 1263.212,1203.515 1263.196,1203.531 1263.084,1203.579 1262.587,1203.771 1262.459,1203.082 
	1262.587,1202.506 "/>
<polygon fill="#C8692C" points="1214.853,1271.453 1214.981,1271.293 1215.605,1270.285 1215.781,1268.7 1216.005,1268.316 
	1216.037,1268.3 1218.551,1268.956 1218.711,1269.084 1218.727,1269.116 1218.727,1269.132 1218.743,1269.148 1219.079,1270.429 
	1219.335,1270.781 1219.271,1271.117 1218.871,1271.757 1217.046,1271.613 1214.869,1271.453 "/>
<polygon fill="#C8692C" points="1125.739,1394.188 1126.299,1395.196 1126.315,1395.196 1126.283,1395.212 1125.066,1395.82 
	1125.05,1395.788 1124.858,1395.388 1124.762,1395.196 1124.65,1394.956 1124.458,1394.588 1124.89,1394.332 1125.594,1393.948 
	1125.626,1393.995 "/>
<polygon fill="#C8692C" points="1150.278,1247.505 1150.966,1247.537 1151.047,1247.969 1151.126,1248.37 1151.287,1249.282 
	1151.126,1250.21 1150.822,1250.979 1150.518,1251.651 1149.814,1251.427 1148.741,1251.107 1148.245,1251.011 1148.245,1250.979 
	1149.59,1247.809 1149.638,1247.409 "/>
<polygon fill="#C8692C" points="1149.958,1370.448 1149.782,1371.296 1149.718,1371.6 1149.702,1371.68 1149.638,1371.728 
	1149.574,1371.744 1149.51,1371.744 1149.43,1371.712 1149.334,1371.664 1147.893,1371.104 1148.293,1369.855 "/>
<polygon fill="#C8692C" points="1124.714,1339.648 1123.305,1342.305 1122.729,1342.417 1122.713,1342.401 1122.505,1342.081 
	1121.849,1342.641 1121.448,1343.122 1121.304,1340.769 1121.304,1340.752 1121.656,1340.624 1121.689,1340.624 1121.897,1340.544 
	1121.929,1340.544 1122.073,1340.496 1123.017,1340.16 1124.666,1339.6 "/>
<polygon fill="#C8692C" points="1049.336,1701.896 1049.432,1702.089 1049.48,1702.169 1049.496,1702.185 1049.255,1702.361 
	1049.143,1702.458 1048.63,1702.891 1048.293,1702.554 1048.132,1702.345 1048.261,1702.121 1049.031,1701.142 1049.079,1701.318 
	1049.127,1701.479 1049.207,1701.703 1049.255,1701.784 "/>
<polygon fill="#C8692C" points="1080.67,1572.513 1080.285,1572.625 1080.028,1572.144 1079.788,1571.999 1079.29,1571.983 
	1079.066,1572.577 1078.552,1572.673 1077.943,1573.058 1077.557,1572.336 1077.622,1572.128 1077.622,1572.112 1077.718,1571.855 
	1077.734,1571.807 1080.622,1571.63 1080.638,1571.951 "/>
<polygon fill="#C8692C" points="1087.585,1519.534 1087.505,1519.726 1087.312,1520.24 1087.152,1520.833 1087.152,1520.849 
	1086.975,1521.379 1086.927,1521.684 1086.927,1521.876 1086.911,1522.277 1086.927,1522.614 1085.66,1522.47 1085.692,1521.876 
	1085.403,1521.844 1085.339,1522.438 1082.9,1522.165 1082.852,1522.149 1082.852,1522.133 1083.365,1520.528 1083.558,1519.919 
	1083.686,1519.501 1083.702,1519.501 1083.895,1519.485 1085.082,1519.501 "/>
<polygon fill="#C8692C" points="1080.253,1633.434 1079.563,1633.466 1079.531,1633.145 1079.146,1633.177 1077.253,1633.177 
	1077.269,1633.017 1077.269,1632.888 1076.964,1632.022 1076.868,1631.589 1076.932,1631.107 1077.253,1630.787 1077.702,1630.546 
	1077.862,1630.161 1077.943,1629.567 1078.841,1629.631 1078.969,1629.567 "/>
<path fill="#C8692C" d="M1105.218,1490.974l0.112,0.048l-0.016,0.016l-0.096,0.289l-0.128,0.353l-0.096,0.289l-0.08,0.192
	l-0.144,0.385l-0.032,0.112l-0.578,1.524l-0.016,0.016l-0.497-0.177l-1.669-0.578l-0.144-0.064l0.353-1.332l0.064-0.209l0.209-0.161
	l0.112-0.096l1.412-0.465l0.305-0.096l-0.096-0.16l0.064,0.016l0.818,0.273l0.064,0.016L1105.218,1490.974z M1103.196,1493.509
	v-0.786h-0.225v0.096h-0.562v0.69H1103.196z"/>
<polygon fill="#C8692C" points="1141.799,1492.322 1141.799,1492.418 1141.831,1492.771 1141.895,1493.445 1141.927,1493.798 
	1141.349,1493.622 1141.349,1493.654 1141.333,1494.392 1140.884,1495.338 1140.868,1495.338 1139.921,1495.386 1139.52,1495.419 
	1139.52,1495.322 1139.584,1492.611 1139.584,1492.37 1139.6,1492.29 1139.649,1492.29 1140.13,1492.322 1141.365,1492.306 
	1141.622,1492.306 "/>
<path fill="#C8692C" d="M1105.234,1490.99l0.112,0.048l-0.016,0.016l-0.096,0.289l-0.128,0.353l-0.112,0.289l-0.064,0.192
	l-0.144,0.385l-0.048,0.112l-0.578,1.524v0.016l-0.497-0.177l-1.669-0.578l-0.144-0.064l0.353-1.332l0.048-0.208l0.209-0.161
	l0.112-0.096l1.428-0.465l0.289-0.096l-0.096-0.161l0.064,0.016l0.818,0.273l0.08,0.016L1105.234,1490.99z M1103.212,1493.525
	v-0.786h-0.225v0.096h-0.562v0.69H1103.212z"/>
<polygon fill="#C8692C" points="1091.532,1462.8 1091.564,1462.848 1091.564,1462.864 1090.986,1466.121 1090.73,1466.025 
	1090.104,1465.784 1089.767,1465.656 1089.222,1465.448 1088.949,1465.335 1088.034,1464.966 1087.954,1464.934 1087.681,1464.822 
	1087.585,1464.774 1087.569,1464.774 1087.553,1464.774 1087.681,1462.768 1088.002,1462.624 1089.703,1462.206 1090.265,1462.383 
	1091.516,1462.8 "/>
<polygon fill="#C8692C" points="1087.585,1519.55 1087.505,1519.742 1087.312,1520.24 1087.152,1520.849 1086.975,1521.379 
	1086.927,1521.684 1086.927,1521.892 1086.911,1522.277 1086.927,1522.614 1085.66,1522.486 1085.692,1521.876 1085.403,1521.86 
	1085.339,1522.438 1082.9,1522.165 1082.852,1522.165 1082.852,1522.149 1083.365,1520.528 1083.558,1519.919 1083.686,1519.518 
	1083.702,1519.502 1083.895,1519.502 1085.082,1519.518 "/>
<polygon fill="#C8692C" points="1370.577,1566.174 1370.202,1566.5 1367.235,1569.043 1367.203,1569.092 1365.996,1568.358 
	1364.594,1567.511 1363.959,1566.81 1362.752,1565.685 1362.606,1565.505 1362.394,1562.962 1365.328,1562.75 1368.311,1562.538 
	1370.056,1565.326 "/>
<polygon fill="#C8692C" points="1375.5,1573.754 1374.147,1573.673 1373.642,1573.575 1372.941,1573.281 1372.175,1572.841 
	1371.278,1572.206 1370.74,1571.912 1370.349,1571.374 1369.403,1570.282 1369.045,1570.445 1368.572,1570.021 1367.545,1569.255 
	1367.235,1569.043 1370.202,1566.5 1370.577,1566.174 1370.789,1566.484 1372.321,1568.88 1372.338,1568.913 "/>
<polygon fill="#C8692C" points="1353.966,1603.652 1352.857,1603.261 1353.085,1601.745 1353.151,1601.745 1353.672,1601.778 
	1353.998,1601.729 1354.112,1601.663 1354.357,1601.68 "/>
<polygon fill="#C8692C" points="1218.434,1507.584 1217.391,1510.633 1217.162,1511.252 1216.934,1511.937 1216.82,1511.888 
	1216.787,1511.872 1216.624,1511.806 1216.412,1511.692 1214.016,1510.568 1214.44,1510.095 1214.799,1509.671 1214.896,1509.492 
	1215.059,1509.117 1215.19,1508.611 1215.141,1508.236 1215.043,1507.845 1214.619,1507.063 1214.619,1506.883 1214.619,1506.574 
	1214.782,1506.329 1214.913,1506.133 1215.206,1505.4 1216.266,1506.133 1216.934,1506.59 1217.537,1506.981 1217.733,1507.111 
	1217.782,1507.144 1217.912,1507.226 "/>
<polygon fill="#C8692C" points="1245.609,1484.093 1247.027,1481.55 1248.331,1479.496 1248.706,1479.708 1249.065,1479.251 
	1249.163,1479.3 1250.874,1480.132 1247.924,1485.413 "/>
<polygon fill="#C8692C" points="1241.354,1477.833 1241.452,1477.996 1241.908,1478.583 1242.593,1478.99 1245.022,1480.392 
	1243.604,1482.952 1239.806,1480.8 1240.376,1479.74 1239.854,1479.463 1240.572,1477.98 1240.833,1477.654 1240.947,1477.539 
	1241.24,1477.686 "/>
<polygon fill="#C8692C" points="1247.027,1481.55 1245.609,1484.093 1243.995,1483.18 1243.604,1482.952 1245.022,1480.392 
	1245.462,1480.653 "/>
<polygon fill="#C8692C" points="1217.097,1511.448 1216.934,1511.937 1216.82,1511.872 1216.788,1511.872 1216.625,1511.79 
	1216.413,1511.692 1215.907,1511.448 "/>
<polygon fill="#C8692C" points="1018.628,1350.908 1018.692,1351.646 1018.692,1352.159 1018.692,1352.672 1018.708,1352.816 
	1018.708,1352.977 1018.756,1352.977 1018.997,1352.961 1019.221,1352.993 1019.847,1353.057 1020.103,1353.089 1020.472,1353.137 
	1020.536,1353.153 1020.681,1353.169 1020.809,1353.185 1020.857,1353.185 1020.969,1353.618 1021.034,1353.907 1020.921,1354.131 
	1020.921,1354.484 1020.921,1354.677 1020.665,1355.446 1020.376,1355.943 1020.087,1356.409 1019.975,1357.002 1019.895,1357.323 
	1019.703,1357.483 1019.622,1357.579 1019.382,1357.852 1019.125,1358.108 1019.093,1358.156 1018.965,1358.301 1018.853,1358.461 
	1018.821,1358.493 1018.805,1358.509 1018.789,1358.445 1018.564,1357.708 1018.372,1357.114 1018.259,1356.745 1018.163,1356.425 
	1018.099,1356.264 1017.923,1355.671 1017.698,1355.029 1017.393,1354.244 1017.265,1353.923 1017.137,1353.634 1017.073,1353.474 
	1017.008,1353.314 1016.928,1353.137 1016.912,1353.089 1016.864,1352.961 1016.784,1352.784 1016.672,1352.512 1016.576,1352.303 
	1016.511,1352.175 1016.511,1352.159 1016.479,1352.111 1016.399,1351.934 1016.239,1351.646 1016.223,1351.614 1016.207,1351.598 
	1015.966,1351.197 1015.758,1350.86 1017.137,1350.716 1017.506,1350.7 1018.612,1350.684 "/>
<polygon fill="#C8692C" points="1060.338,1344.333 1060.322,1344.397 1060.177,1344.943 1058.397,1346.226 1057.964,1346.338 
	1056.842,1346.129 1056.553,1346.129 1056.553,1345.151 1055.062,1345.119 1055.27,1344.638 1055.607,1343.868 1055.222,1343.804 
	1054.725,1343.531 1055.399,1343.291 1055.655,1343.211 1057.66,1342.585 1057.644,1342.393 1058.526,1342.617 1058.557,1342.505 
	1059.456,1342.65 1059.151,1344.013 "/>
<polygon fill="#C8692C" points="1053.619,1332.659 1053.699,1333.461 1053.57,1333.477 1053.554,1333.477 1053.282,1333.461 
	1053.25,1332.643 "/>
<polygon fill="#C8692C" points="1073.455,1313.64 1073.631,1313.495 1073.76,1313.335 1073.872,1313.127 1073.92,1312.902 
	1073.76,1311.972 1073.744,1311.78 1073.728,1311.667 1074.786,1311.603 1074.77,1311.058 1075.235,1310.994 1075.7,1310.833 
	1075.941,1310.753 1075.989,1310.721 1076.213,1310.577 1076.245,1310.561 1076.598,1310.497 1077.304,1310.721 1077.015,1315.885 
	1076.903,1316.19 1076.47,1316.43 1076.149,1316.478 1076.133,1316.478 1075.86,1316.542 1074.786,1316.542 1074.69,1315.949 
	1074.369,1314.746 "/>
<polygon fill="#C8692C" points="1031.008,1315.195 1031.393,1315.34 1031.505,1315.58 1031.553,1315.677 1032.114,1316.013 
	1032.772,1315.917 1032.451,1317.585 1032.403,1317.906 1032.387,1317.922 1032.339,1318.515 1032.323,1318.852 1032.323,1318.9 
	1032.098,1318.884 1032.082,1318.868 1032.05,1318.868 1031.649,1318.739 1031.617,1318.723 1030.896,1318.499 1030.864,1318.483 
	1030.703,1318.435 1030.687,1318.419 1030.078,1318.29 1030.046,1318.29 1029.982,1318.274 1029.966,1318.082 1029.966,1318.002 
	1029.966,1317.489 1030.078,1316.558 1030.078,1316.526 1030.254,1315.612 1030.735,1315.596 1030.815,1315.452 1030.944,1315.179 
	"/>
<polygon fill="#C8692C" points="1097.204,1189.134 1097.284,1189.343 1097.268,1189.551 1097.252,1189.615 1094.51,1191.315 
	1093.885,1191.7 1093.853,1191.684 1093.243,1191.347 1092.891,1191.139 1092.746,1190.898 1092.169,1190.032 1091.592,1189.439 
	1091.672,1189.391 1093.388,1188.477 1093.243,1188.236 1093.179,1188.172 1094.157,1187.835 1094.205,1187.835 1094.719,1187.755 
	1095.296,1187.659 1095.873,1187.563 1096.306,1187.483 1096.579,1187.435 1096.867,1188.22 "/>
<polygon fill="#C8692C" points="1006.169,1479.711 1005.896,1480.673 1005.319,1481.491 1005.319,1481.507 1004.934,1482.084 
	1004.469,1482.533 1004.357,1482.614 1003.346,1483.287 1003.042,1483.512 1002.994,1483.544 1002.994,1483.56 1002.977,1483.56 
	1002.961,1483.576 1002.961,1483.592 1002.945,1483.592 1002.801,1483.832 1002.785,1483.848 1002.785,1483.864 1002.689,1484.105 
	1002.625,1484.297 1002.464,1484.714 1002.448,1484.73 1002.448,1484.746 1002.432,1484.794 1002.4,1484.778 1002.304,1484.746 
	1001.294,1484.057 1000.909,1483.64 1001.069,1483.431 1001.534,1482.886 1002.336,1481.924 1003.17,1479.871 1003.33,1479.503 
	1003.667,1479.535 1004.196,1479.567 1005.8,1479.679 1005.944,1479.679 "/>
<path fill="#C8692C" d="M1013.962,1454.791v0.032l-0.048,1.748l-0.032,1.171l-1.668,0.577l-0.144,0.048l-0.128,0.048l-0.16,0.048
	l-0.032,0.016h-0.208l-0.321-0.016l-0.673-0.032l-0.305-0.048l-0.273-0.032l0.16-1.155l0.048-0.545l0.032-0.16l0.032-0.369
	l0.016-0.112l0.016-0.241l0.016-0.096l0.016-0.144l0.016-0.208l0.016-0.048v-0.08l0.112-0.738l0.016-1.074l0.176-1.572v-0.08v-0.016
	l0.016-0.08l0.016-0.112v-0.241l2.838-0.337l-0.112,0.385l-0.032,0.112l-0.401,1.588l-0.401,1.636l0.016,0.128H1013.962z
	 M1011.669,1454.566l-0.257-0.016l-0.048,0.657l0.241,0.016L1011.669,1454.566z"/>
<polygon fill="#C8692C" points="968.617,761.853 968.585,761.853 968.232,761.853 968.12,761.966 967.783,763.121 966.099,763.185 
	965.987,763.297 965.746,763.457 964.415,763.955 964.72,763.987 964.655,763.987 964.238,764.003 964.078,764.019 962.667,764.115 
	962.667,764.067 962.602,762.736 962.458,762.736 962.233,759.255 962.362,759.255 962.298,758.1 962.346,758.1 962.394,758.084 
	963.869,757.907 964.415,758.437 964.784,758.725 964.944,758.87 965.056,758.902 965.201,758.934 965.522,758.966 965.634,758.95 
	965.794,758.87 966.019,758.806 966.227,758.758 966.388,758.742 966.805,758.661 967.334,758.501 967.751,758.453 967.783,758.453 
	967.88,758.485 967.912,758.485 968.12,758.677 968.2,758.838 968.377,759.383 968.393,759.511 968.425,760.522 968.425,760.779 
	968.441,761.308 968.505,761.645 "/>
<polygon fill="#C8692C" points="962.667,764.115 962.634,764.115 962.33,764.163 961.239,764.163 961.095,764.179 960.726,764.227 
	960.212,764.276 960.196,764.083 960.18,763.474 960.357,761.019 960.389,760.666 960.421,760.474 960.437,760.233 960.517,759.094 
	960.501,758.132 961.688,758.1 962.298,758.1 962.362,759.255 962.233,759.255 962.458,762.736 962.602,762.736 962.667,764.067 "/>
<polygon fill="#C8692C" points="968.649,761.837 968.633,761.837 968.281,761.837 968.152,761.95 967.831,763.105 966.147,763.169 
	966.035,763.281 965.778,763.441 964.447,763.939 964.752,763.971 964.704,763.971 964.287,763.987 964.126,764.003 
	962.715,764.099 962.699,764.051 962.65,762.72 962.506,762.72 962.282,759.239 962.41,759.239 962.346,758.084 962.378,758.084 
	962.426,758.068 963.918,757.891 964.463,758.421 964.832,758.709 964.976,758.854 965.089,758.886 965.249,758.918 965.554,758.95 
	965.682,758.934 965.842,758.854 966.067,758.79 966.276,758.742 966.42,758.725 966.853,758.645 967.382,758.485 967.799,758.437 
	967.831,758.437 967.928,758.469 967.944,758.469 968.168,758.661 968.248,758.822 968.409,759.367 968.441,759.495 
	968.457,760.506 968.473,760.763 968.489,761.292 968.553,761.629 "/>
<polygon fill="#C8692C" points="962.715,764.099 962.683,764.099 962.362,764.147 961.287,764.147 961.127,764.163 960.774,764.211 
	960.26,764.26 960.244,764.067 960.228,763.457 960.405,761.003 960.437,760.65 960.453,760.458 960.485,760.217 960.565,759.078 
	960.533,758.116 961.736,758.084 962.346,758.084 962.41,759.239 962.282,759.239 962.506,762.72 962.65,762.72 962.699,764.051 "/>
<polygon fill="#C8692C" points="818.546,692.991 818.354,693.232 817.825,694.018 816.477,696.343 816.477,696.359 816.397,696.488 
	815.515,695.557 815.419,695.445 813.863,693.825 813.991,693.665 815.755,691.884 816.285,692.349 816.654,691.932 816.83,691.724 
	"/>
<polygon fill="#C8692C" points="888.176,665.401 887.984,665.722 887.246,666.749 885.722,668.208 885.129,668.673 884.888,668.754 
	884.744,668.722 883.99,668.673 884.166,668.513 884.631,667.663 885.321,666.556 885.883,665.465 887.23,664.471 887.679,664.647 
	"/>
<polygon fill="#C8692C" points="817.023,695.397 816.477,696.344 816.477,696.36 816.397,696.488 815.515,695.557 815.419,695.445 
	813.863,693.825 813.991,693.665 815.755,691.884 816.285,692.349 816.638,691.932 816.83,691.724 817.023,691.868 "/>
<polygon fill="#C8692C" points="911.922,412.6 910.287,409.425 909.806,407.645 909.549,406.202 909.565,405.914 913.638,406.731 
	916.027,406.747 915.738,412.295 913.301,412.632 "/>
<polygon fill="#C8692C" points="900.666,490.544 900.41,490.849 900.298,493.302 899.416,493.206 899.127,493.174 899.32,490.368 
	900.426,490.496 "/>
<polygon fill="#C8692C" points="899.127,493.174 899.416,493.206 899.271,495.74 897.909,495.387 897.973,494.152 898.037,493.03 
	"/>
<polygon fill="#C8692C" points="860.75,593.358 860.91,592.733 860.91,592.716 861.006,592.733 861.087,592.524 861.103,592.508 
	861.6,592.54 861.809,591.61 862.097,590.374 862.161,590.15 862.434,590.246 862.98,590.471 863.397,590.599 863.445,590.615 
	864.086,590.647 864.247,590.775 864.311,590.856 864.343,592.444 864.359,592.861 862.771,592.877 862.547,592.893 
	862.322,592.925 862.097,592.973 861.905,593.053 861.504,593.166 861.247,593.246 861.006,593.31 "/>
<polygon fill="#C8692C" points="861.744,595.941 861.793,596.342 861.76,596.326 861.006,596.278 859.932,596.198 859.001,596.15 
	858.007,596.085 857.782,595.46 857.638,595.075 857.638,595.01 857.574,594.995 856.932,594.802 856.932,593.839 856.964,593.839 
	857.317,593.855 859.226,593.984 859.338,593.984 860.028,593.936 860.525,593.855 860.814,593.823 861.103,593.775 
	861.375,593.711 861.648,593.631 861.728,595.732 "/>
<polygon fill="#C8692C" points="730.829,584.631 730.829,584.647 730.829,584.679 730.861,584.711 730.877,584.744 731.422,585.241 
	731.695,585.514 732.417,586.171 732.513,586.252 732.593,586.332 732.706,586.396 732.722,586.412 732.272,589.701 
	727.701,587.567 727.588,587.535 730.588,584.567 730.668,584.487 730.748,584.535 730.813,584.599 "/>
<polygon fill="#C8692C" points="938.022,527.521 937.782,528.163 937.766,528.163 936.819,528.002 936.579,527.97 934.204,527.585 
	933.996,527.553 933.852,527.537 932.263,527.152 932.295,526.623 932.52,526.655 932.841,526.671 932.969,525.355 933.418,525.371 
	934.172,525.468 935.183,525.708 936.434,526.206 "/>
<polygon fill="#C8692C" points="862.049,590.519 862.097,590.374 862.161,590.134 862.434,590.246 862.98,590.471 863.14,590.519 
	"/>
<polygon fill="#C8692C" points="850.483,523.864 850.531,524.2 850.724,524.89 851.093,525.58 849.473,525.163 849.713,524.265 
	849.938,523.414 "/>
<polygon fill="#C8692C" points="880.674,552.338 879.968,553.012 879.631,552.515 876.856,553.429 876.166,553.558 874.514,554.151 
	873.407,554.648 873.31,554.953 873.246,555.435 873.182,555.868 872.861,556.06 872.284,556.06 871.289,556.06 870.76,556.124 
	870.343,556.429 870.327,556.429 870.166,555.964 870.134,555.467 870.118,555.082 870.311,554.023 870.455,553.718 
	870.503,553.542 873.487,553.638 873.326,551.456 874.738,551.312 875.989,550.943 876.374,550.59 876.599,549.531 877.064,549.563 
	878.107,549.531 878.909,549.114 880.898,548.055 881.476,548.087 881.716,548.119 881.283,549.98 880.305,551.841 "/>
<polygon fill="#C8692C" points="730.829,584.615 730.829,584.631 730.829,584.663 730.861,584.695 730.877,584.727 731.422,585.241 
	731.695,585.497 732.417,586.171 732.513,586.251 732.593,586.316 732.706,586.396 732.722,586.412 732.272,589.685 
	727.701,587.567 727.588,587.519 730.588,584.567 730.668,584.471 730.748,584.535 730.813,584.599 "/>
<polygon fill="#C8692C" points="816.959,985.01 813.462,984.689 812.596,984.609 812.323,984.593 809.34,984.416 809.276,984.416 
	808.779,984.4 808.747,984.384 808.426,982.78 808.41,982.588 810.735,981.449 811.281,980.583 811.762,979.797 812.323,978.867 
	812.837,978.626 814.2,978.626 815.226,978.915 816.959,980.15 "/>
<polygon fill="#C8692C" points="822.685,985.667 821.418,985.507 821.321,985.491 820.84,985.411 820.824,985.411 818.531,985.154 
	818.146,985.122 813.478,984.689 812.596,984.609 812.323,984.593 809.34,984.416 809.276,984.416 808.779,984.4 808.763,984.384 
	808.442,982.78 808.41,982.588 810.735,981.449 811.281,980.583 811.778,979.797 812.323,978.867 812.837,978.626 814.2,978.626 
	815.242,978.915 817.745,980.695 818.178,981.016 821.241,983.31 822.364,984.962 822.62,985.539 "/>
<polygon fill="#C8692C" points="920.732,924.027 921.069,921.075 921.406,918.718 923.683,918.942 923.026,924.235 "/>
<polygon fill="#C8692C" points="879.415,895.572 880.249,895.636 880.217,895.845 880.265,895.989 880.426,896.005 880.346,896.47 
	880.297,896.695 880.233,896.679 879.993,896.663 879.88,896.663 879.463,896.663 879.399,896.663 878.661,896.679 878.613,896.679 
	878.469,896.679 878.405,896.695 878.357,896.695 878.244,896.085 878.228,895.957 878.774,895.957 878.822,895.54 "/>
<polygon fill="#C8692C" points="816.959,985.026 813.462,984.705 812.596,984.625 812.323,984.609 809.34,984.432 809.276,984.432 
	808.779,984.4 808.747,984.4 808.426,982.796 808.41,982.588 810.735,981.449 811.281,980.583 811.762,979.813 812.323,978.867 
	812.837,978.642 814.2,978.642 815.226,978.915 816.959,980.15 "/>
<polygon fill="#C8692C" points="822.685,985.683 821.418,985.523 821.321,985.507 820.84,985.427 820.824,985.427 818.531,985.17 
	818.146,985.138 813.478,984.705 812.596,984.625 812.323,984.609 809.34,984.432 809.276,984.432 808.779,984.4 808.763,984.4 
	808.442,982.796 808.41,982.588 810.735,981.449 811.281,980.583 811.778,979.813 812.323,978.867 812.837,978.642 814.2,978.642 
	815.242,978.915 817.745,980.711 818.178,981.016 821.241,983.326 822.364,984.978 822.62,985.555 "/>
<polygon fill="#C8692C" points="614.813,878.633 614.797,878.826 609.777,876.645 610.98,874.014 611.365,872.811 615.021,873.79 
	614.941,875.474 614.941,875.538 614.909,876.324 614.893,877.013 614.861,877.27 614.861,877.286 614.861,877.366 614.861,877.463 
	614.829,878.184 614.813,878.537 "/>
<polygon fill="#C8692C" points="861.455,814.739 861.551,815.076 861.728,815.701 861.327,815.781 860.701,815.91 859.178,816.247 
	859.129,815.862 859.113,815.797 858.568,815.942 858.472,815.605 858.44,815.413 858.215,814.562 858.199,814.434 858.119,814.113 
	858.664,813.953 858.873,813.889 859.322,813.809 859.53,813.761 859.562,813.745 859.739,813.712 859.851,813.696 860.156,813.632 
	860.813,813.472 861.102,813.408 861.246,813.969 "/>
<polygon fill="#C8692C" points="818.618,752.928 818.715,753.89 818.298,753.89 816.63,753.954 816.485,753.954 816.437,753.569 
	816.373,753.04 816.341,752.783 817.592,752.88 818.266,752.912 818.602,752.928 "/>
<polygon fill="#C8692C" points="862.866,821.988 862.834,822.405 862.802,823.143 862.754,823.72 862.77,824.779 860.829,824.185 
	861.054,821.555 861.07,821.347 861.07,821.283 861.086,821.106 861.086,821.074 861.118,820.898 861.343,820.898 861.84,820.882 
	862.578,820.801 862.594,821.026 862.914,820.946 "/>
<polygon fill="#C8692C" points="816.918,753.938 816.646,753.954 816.485,753.954 816.453,753.569 816.389,753.04 816.357,752.783 
	816.918,752.832 "/>
<polygon fill="#C8692C" points="773.168,748.485 772.253,753.232 769.671,752.671 770.329,749.528 770.65,749.592 770.954,748.084 
	771.66,748.213 "/>
<polygon fill="#C8692C" points="674.536,747.956 674.392,747.94 673.734,747.86 673.51,747.828 672.868,747.763 672.932,747.138 
	672.98,746.272 674.745,746.144 674.777,746.144 674.6,747.33 674.552,747.443 674.52,747.571 674.52,747.715 674.52,747.844 "/>
<polygon fill="#C8692C" points="768.805,747.699 767.955,751.805 767.474,751.709 767.121,753.489 762.583,752.415 762.968,750.65 
	763.802,746.833 767.907,747.539 "/>
<polygon fill="#C8692C" points="770.954,748.084 770.65,749.592 770.329,749.528 769.671,752.671 769.399,754.034 767.121,753.489 
	767.474,751.709 767.955,751.805 768.805,747.699 "/>
<polygon fill="#C8692C" points="818.909,1250.084 818.813,1250.084 818.668,1250.1 817.563,1250.164 815.561,1250.292 
	818.716,1247.201 818.797,1247.249 818.861,1250.084 "/>
<polygon fill="#C8692C" points="819.838,1250.453 819.725,1252.519 819.725,1252.679 819.709,1252.887 819.693,1253.127 
	816.474,1253.272 811.493,1253.528 811.301,1253.512 811.189,1253.464 811.109,1253.336 810.884,1250.837 811.012,1250.837 
	813.367,1250.917 814.264,1250.901 814.248,1250.741 815.033,1250.661 815.033,1250.677 815.049,1250.677 815.049,1250.693 
	815.065,1250.709 815.081,1250.709 815.081,1250.725 815.097,1250.725 815.113,1250.741 815.129,1250.741 815.161,1250.741 
	815.161,1250.757 815.177,1250.757 815.193,1250.757 815.209,1250.757 815.673,1250.725 816.122,1250.693 "/>
<polygon fill="#C8692C" points="838.065,1257.34 837.872,1257.372 835.614,1257.692 835.502,1256.683 837.648,1256.395 
	837.744,1256.507 837.905,1256.795 838.033,1257.196 "/>
<polygon fill="#C8692C" points="802.931,1105.412 802.595,1105.444 801.377,1105.236 799.776,1104.948 799.231,1104.852 
	797.822,1104.627 797.79,1103.25 797.918,1101.728 797.966,1101.504 800.496,1101.136 800.849,1101.088 "/>
<polygon fill="#C8692C" points="665.876,1055.598 666.34,1056.063 666.5,1056.239 667.109,1056.896 668.695,1058.113 
	669.848,1058.818 672.411,1060.436 671.401,1061.989 671.257,1061.877 668.807,1060.067 664.53,1056.592 664.658,1056.479 
	664.771,1056.383 665.123,1056.095 665.267,1055.967 665.683,1055.63 665.732,1055.598 665.812,1055.518 "/>
<polygon fill="#C8692C" points="769.664,1108.776 769.408,1109.977 769.328,1110.313 768.799,1112.652 768.207,1115.215 
	768.015,1115.167 766.781,1114.814 766.893,1114.286 767.23,1112.844 767.358,1112.3 767.358,1112.284 767.63,1111.066 
	767.934,1109.689 768.127,1108.776 768.175,1108.487 769.472,1108.76 "/>
<polygon fill="#C8692C" points="772.131,1103.138 772.195,1103.154 771.907,1104.531 771.218,1108.023 771.138,1108.327 
	771.122,1108.407 769.792,1108.103 769.616,1108.055 768.847,1107.879 769.024,1107.19 769.328,1105.861 769.68,1104.227 
	769.824,1103.586 770.049,1102.561 "/>
<polygon fill="#C8692C" points="669.239,1057.585 669.431,1057.505 673.067,1055.711 672.971,1055.342 673.099,1055.278 
	673.66,1055.022 674.108,1054.83 675.806,1054.285 676.255,1054.269 676.447,1054.285 676.831,1054.317 677.184,1054.237 
	678.849,1053.58 679.009,1053.516 679.682,1055.118 679.906,1055.582 680.339,1056.479 680.627,1057.072 680.643,1057.104 
	680.643,1057.136 680.659,1057.152 680.643,1057.216 680.611,1057.36 674.493,1060.5 674.14,1060.532 673.868,1060.5 
	673.131,1060.003 671.145,1058.722 669.431,1057.697 "/>
<polygon fill="#C8692C" points="676.607,1022.427 676.591,1023.051 676.575,1023.9 676.126,1023.852 676.142,1024.253 
	675.005,1024.156 674.445,1024.141 674.413,1022.058 674.413,1021.754 673.356,1021.786 673.372,1020.312 675.982,1020.424 
	676.014,1022.17 676.11,1022.555 "/>
<polygon fill="#C8692C" points="860.367,1105.013 860.287,1105.253 860.127,1106.615 859.871,1106.567 859.486,1106.503 
	859.614,1105.589 858.942,1105.542 858.974,1104.933 859.166,1104.933 860.063,1104.997 860.111,1104.997 860.159,1104.997 "/>
<polygon fill="#C8692C" points="826.652,1109.946 826.3,1110.203 825.803,1110.651 825.435,1111.164 825.114,1111.115 
	824.666,1111.051 824.394,1111.019 824.009,1110.971 823.801,1110.939 823.801,1110.907 823.849,1110.571 823.849,1110.539 
	823.897,1110.122 823.913,1109.93 823.929,1109.866 823.961,1109.674 823.993,1109.578 824.265,1109.53 824.618,1109.418 
	825.275,1109.386 825.435,1109.402 825.595,1109.418 825.755,1109.45 826.492,1109.77 "/>
<polygon fill="#C8692C" points="802.931,1105.461 802.579,1105.493 801.378,1105.285 799.76,1104.997 799.215,1104.901 
	797.806,1104.677 797.774,1103.299 797.902,1101.777 797.95,1101.553 800.481,1101.185 800.833,1101.137 "/>
<polygon fill="#C8692C" points="850.1,1055.407 845.632,1056.432 845.472,1055.696 850.165,1054.462 "/>
<polygon fill="#C8692C" points="816.608,1250.19 815.599,1250.254 816.608,1249.261 "/>
<polygon fill="#C8692C" points="816.608,1253.217 816.512,1253.217 811.515,1253.489 811.339,1253.473 811.227,1253.425 
	811.147,1253.281 810.922,1250.798 811.051,1250.782 813.389,1250.878 814.302,1250.862 814.286,1250.702 815.055,1250.622 
	815.071,1250.622 815.071,1250.638 815.087,1250.654 815.103,1250.654 815.103,1250.67 815.119,1250.67 815.135,1250.686 
	815.151,1250.686 815.167,1250.702 815.183,1250.702 815.199,1250.702 815.215,1250.702 815.231,1250.702 815.247,1250.702 
	815.711,1250.67 816.16,1250.654 816.608,1250.622 "/>
<polygon fill="#C8692C" points="738.447,1170.696 737.742,1168.485 737.742,1168.469 738.126,1168.245 738.286,1168.197 
	738.447,1168.421 739.92,1170.776 739.856,1170.76 "/>
<polygon fill="#C8692C" points="801.793,1103.055 802.93,1105.425 802.594,1105.458 801.376,1105.233 799.775,1104.945 
	799.23,1104.865 797.821,1104.641 797.789,1103.247 797.805,1103.055 "/>
<polygon fill="#C8692C" points="816.016,1187.082 813.837,1187.21 813.789,1187.114 813.87,1186.024 813.87,1185.88 
	815.519,1185.336 815.952,1186.825 "/>
<polygon fill="#C8692C" points="769.663,1108.773 769.407,1109.99 769.327,1110.327 768.798,1112.665 768.206,1115.212 
	768.014,1115.18 766.78,1114.812 766.892,1114.283 767.229,1112.841 767.357,1112.313 767.357,1112.281 767.629,1111.08 
	767.933,1109.702 768.126,1108.789 768.174,1108.485 769.471,1108.757 "/>
<polygon fill="#C8692C" points="771.826,1103.055 772.13,1103.135 772.194,1103.151 771.906,1104.544 771.217,1108.02 
	771.137,1108.341 771.121,1108.405 769.791,1108.1 769.615,1108.052 768.846,1107.892 769.023,1107.187 769.327,1105.874 
	769.679,1104.224 769.823,1103.599 769.952,1103.055 "/>
<polygon fill="#C8692C" points="758.964,1213.158 757.443,1213.174 757.346,1213.174 757.378,1212.373 757.427,1211.828 
	757.523,1211.588 757.571,1211.588 758.804,1211.524 758.82,1211.636 758.852,1211.988 758.852,1212.004 758.916,1212.677 "/>
<polygon fill="#C8692C" points="818.906,1250.103 818.81,1250.119 818.666,1250.119 817.561,1250.199 815.558,1250.327 
	818.714,1247.22 818.794,1247.268 818.858,1250.103 "/>
<polygon fill="#C8692C" points="860.341,1105.034 860.261,1105.291 860.101,1106.652 859.845,1106.588 859.46,1106.524 
	859.589,1105.627 858.916,1105.579 858.948,1104.97 859.14,1104.97 860.037,1105.018 860.085,1105.018 860.133,1105.034 "/>
<polygon fill="#C8692C" points="819.691,1253.146 816.471,1253.29 811.49,1253.562 811.298,1253.547 811.186,1253.499 
	811.106,1253.354 810.882,1250.872 811.01,1250.856 813.364,1250.952 814.261,1250.936 814.245,1250.776 815.03,1250.695 
	815.046,1250.711 815.046,1250.728 815.062,1250.728 815.078,1250.744 815.094,1250.76 815.11,1250.76 815.126,1250.76 
	815.126,1250.776 815.158,1250.776 815.174,1250.776 815.19,1250.776 815.206,1250.776 815.671,1250.744 816.119,1250.728 
	819.835,1250.487 819.723,1252.537 819.723,1252.698 819.707,1252.922 "/>
<polygon fill="#C8692C" points="826.626,1109.968 826.274,1110.24 825.777,1110.672 825.409,1111.185 825.088,1111.153 
	824.64,1111.089 824.368,1111.057 823.983,1110.993 823.775,1110.977 823.775,1110.945 823.823,1110.592 823.823,1110.56 
	823.871,1110.144 823.887,1109.952 823.903,1109.904 823.935,1109.695 823.967,1109.599 824.24,1109.567 824.592,1109.455 
	825.249,1109.423 825.409,1109.439 825.569,1109.455 825.729,1109.487 826.466,1109.792 "/>
<polygon fill="#C8692C" points="801.752,1103.128 802.905,1105.499 802.553,1105.531 801.352,1105.307 799.734,1105.018 
	799.189,1104.938 797.78,1104.714 797.748,1103.32 797.764,1103.128 "/>
<polygon fill="#C8692C" points="815.991,1187.155 813.797,1187.283 813.749,1187.187 813.829,1186.098 813.829,1185.954 
	815.494,1185.409 815.911,1186.899 "/>
<polygon fill="#C8692C" points="838.062,1257.359 837.87,1257.391 835.611,1257.711 835.499,1256.702 837.646,1256.43 
	837.742,1256.526 837.902,1256.814 838.03,1257.214 "/>
<polygon fill="#C8692C" points="816.603,1250.177 815.594,1250.241 816.603,1249.248 "/>
<polygon fill="#C8692C" points="761.377,1350.894 761.425,1351.07 760.897,1352.095 760.817,1352.223 760.336,1352.303 
	760,1352.608 759.343,1353.2 759.039,1353.408 757.966,1354.129 757.549,1354.289 757.341,1354.37 758.222,1351.807 
	758.414,1351.871 758.767,1351.999 759.007,1352.079 759.135,1351.743 759.84,1349.853 759.92,1349.869 760,1349.885 
	760.56,1350.317 "/>
<polygon fill="#C8692C" points="816.603,1253.204 816.507,1253.22 811.51,1253.477 811.333,1253.461 811.221,1253.413 
	811.141,1253.284 810.917,1250.786 811.045,1250.786 813.384,1250.866 814.297,1250.85 814.281,1250.69 815.049,1250.61 
	815.065,1250.626 815.081,1250.642 815.097,1250.658 815.113,1250.674 815.129,1250.674 815.145,1250.69 815.161,1250.69 
	815.177,1250.69 815.193,1250.706 815.21,1250.706 815.226,1250.706 815.242,1250.706 815.706,1250.674 816.155,1250.642 
	816.603,1250.61 "/>
<polygon fill="#C8692C" points="608.854,1031.981 608.966,1033.503 608.982,1033.679 607.892,1033.855 607.108,1034.111 
	602.223,1033.967 602.223,1033.951 602.014,1033.182 602.895,1032.942 608.165,1031.5 607.973,1030.347 608.709,1030.315 
	608.709,1030.395 608.741,1030.555 "/>
<polygon fill="#C8692C" points="582.938,1018.254 583.067,1018.302 582.954,1020.657 582.794,1020.561 582.65,1020.529 
	582.426,1020.481 581.849,1020.497 581.225,1020.545 580.696,1020.465 579.815,1020.368 579.607,1020.352 579.687,1019.904 
	579.831,1019.199 581.689,1019.391 581.865,1018.03 582.506,1018.094 582.634,1018.142 "/>
<polygon fill="#C8692C" points="956.418,1259.911 956.193,1260.376 955.728,1260.585 954.861,1260.617 954.138,1260.408 
	954.588,1259.413 "/>
<polygon fill="#C8692C" points="908.306,1042.264 907.663,1042.2 907.631,1042.505 907.615,1042.601 906.845,1042.553 
	906.652,1042.553 906.652,1042.425 904.132,1042.2 904.132,1042.393 903.089,1042.377 903.105,1041.478 903.105,1041.413 
	908.643,1039.808 "/>
<polygon fill="#C8692C" points="951.774,1086.424 953.844,1086.584 953.186,1088.976 949.863,1088.832 950.056,1088.013 
	950.682,1088.077 950.746,1087.483 950.2,1087.435 950.473,1086.344 950.521,1086.167 950.762,1086.183 951.469,1086.408 "/>
<polygon fill="#C8692C" points="951.827,1086.531 953.882,1086.692 953.224,1089.084 949.901,1088.939 950.109,1088.121 
	950.719,1088.185 950.8,1087.591 950.254,1087.543 950.511,1086.451 950.559,1086.275 950.8,1086.291 951.522,1086.515 "/>
<polygon fill="#C8692C" points="900.311,1205.288 900.343,1205.593 900.407,1206.042 900.407,1206.059 899.893,1205.93 
	899.749,1205.898 899.668,1205.882 899.588,1205.288 899.588,1205.256 899.556,1205.063 900.262,1204.999 "/>
<polygon fill="#C8692C" points="901.274,1201.548 901.659,1203.908 901.787,1204.694 901.081,1204.791 901.161,1205.176 
	901.852,1205.112 902.012,1206.026 901.498,1206.042 901.498,1206.283 901.498,1206.299 901.514,1206.348 901.226,1206.267 
	900.696,1206.139 900.696,1206.107 900.632,1205.561 900.599,1205.256 900.311,1205.288 900.262,1204.999 899.556,1205.063 
	899.364,1203.554 899.091,1201.5 900.551,1201.371 900.583,1201.612 900.728,1201.596 "/>
<polygon fill="#C8692C" points="956.427,1259.801 956.203,1260.283 955.737,1260.476 954.87,1260.508 954.148,1260.315 
	954.597,1259.32 "/>
<polygon fill="#C8692C" points="929.637,1169.668 929.027,1170.198 927.871,1171.209 927.261,1171.755 926.106,1170.439 
	926.667,1169.957 926.443,1169.732 926.7,1169.556 927.695,1168.93 928.626,1168.272 "/>
<polygon fill="#C8692C" points="1036.564,1171.815 1037.254,1171.927 1037.126,1174.544 1037.094,1174.977 1036.949,1176.262 
	1035.071,1176.342 1035.103,1175.427 1033.338,1175.459 1032.31,1175.491 1031.845,1173.774 1034.509,1173.661 1034.461,1171.59 
	1035.264,1171.462 1035.585,1171.398 1035.617,1171.398 1035.617,1171.414 1035.601,1171.703 "/>
<polygon fill="#C8692C" points="1050.657,1197.948 1050.481,1197.948 1049.502,1198.093 1048.49,1198.205 1048.49,1198.173 
	1048.185,1197.274 1048.105,1197.033 1047.896,1196.375 1047.945,1195.974 1048.956,1195.797 1050.304,1195.508 1050.625,1197.772 
	"/>
<polygon fill="#C8692C" points="1003.385,1157.143 1003.546,1157.48 1003.674,1157.721 1003.738,1157.882 1003.979,1158.363 
	1004.461,1159.294 1003.995,1160.033 1003.883,1160.193 1003.867,1160.225 1003.835,1160.274 1003.61,1160.755 1003.401,1161.172 
	1003.337,1161.156 1002.647,1160.964 1002.085,1160.787 1002.615,1159.214 1003.176,1157.513 1003.337,1157.015 1003.337,1157.079 
	"/>
<polygon fill="#C8692C" points="1003.241,1185.01 1003.818,1185.235 1003.225,1187.097 1002.069,1186.776 1001.908,1186.663 
	1002.021,1186.535 1002.406,1186.134 1002.743,1185.716 1003.048,1185.331 1003.225,1185.01 "/>
<polygon fill="#C8692C" points="956.45,1259.91 956.225,1260.391 955.76,1260.584 954.893,1260.616 954.171,1260.423 
	954.62,1259.428 "/>
<polygon fill="#C8692C" points="956.485,1259.877 956.26,1260.343 955.794,1260.551 954.928,1260.583 954.205,1260.375 
	954.655,1259.379 "/>
<polygon fill="#C8692C" points="764.485,1508.861 764.453,1508.893 764.213,1509.149 764.149,1509.213 763.989,1509.389 
	763.861,1509.517 763.685,1509.725 763.493,1509.917 763.413,1509.965 763.877,1508.877 763.941,1508.861 "/>
<polygon fill="#C8692C" points="734.6,1515.088 734.504,1515.376 733.847,1517.489 733.383,1517.441 733.335,1517.441 
	733.399,1517.329 733.879,1515.696 734.071,1515.408 734.071,1515.392 734.087,1515.36 734.215,1515.056 734.36,1515.072 "/>
<polygon fill="#C8692C" points="750.191,1534.586 750.735,1534.618 751.583,1534.634 751.599,1534.842 751.615,1535.146 
	751.503,1536.314 751.455,1536.811 750.831,1536.731 750.591,1536.699 750.383,1536.667 749.935,1536.603 749.134,1536.554 
	748.414,1536.426 747.293,1536.298 747.229,1536.042 747.149,1535.562 747.245,1535.418 747.309,1535.242 747.39,1535.114 
	747.694,1534.409 749.823,1534.602 750.063,1534.682 "/>
<polygon fill="#C8692C" points="747.982,1533.065 747.406,1534.505 746.893,1535.53 746.861,1535.546 746.285,1535.642 
	746.525,1534.377 746.797,1532.793 "/>
<polygon fill="#C8692C" points="753.328,1539.772 752.576,1537.931 752.992,1537.867 753.792,1537.851 754.737,1537.915 
	755.025,1538.059 755.233,1538.427 755.457,1538.844 "/>
<polygon fill="#C8692C" points="752.736,1531.592 752.944,1532.104 752.992,1532.152 753.024,1532.184 753.104,1532.232 
	753.2,1532.296 753.376,1532.328 753.52,1532.36 754.353,1532.536 754.449,1532.552 754.529,1532.905 754.593,1533.145 
	753.312,1533.065 753.168,1533.033 753.104,1533.001 753.072,1532.985 752.944,1532.825 752.928,1532.809 752.88,1532.761 
	752.848,1532.729 752.832,1532.729 752.816,1532.713 752.8,1532.713 752.704,1532.681 752.688,1532.681 752.672,1532.665 
	752.384,1532.665 752.368,1532.665 752.064,1532.697 752.048,1532.697 752.032,1532.697 752.016,1532.697 751.92,1532.104 
	752.272,1531.768 752.4,1531.576 752.512,1531.576 752.656,1531.56 "/>
<polygon fill="#C8692C" points="796.357,1328.968 796.244,1330.616 794.804,1330.456 794.66,1331.849 793.251,1332.233 
	793.235,1332.361 793.235,1332.409 793.219,1332.537 790.754,1332.201 790.77,1332.041 790.77,1332.025 790.802,1331.689 
	790.914,1330.76 791.218,1328.295 793.123,1328.551 793.475,1328.599 796.34,1328.951 796.357,1328.951 "/>
<polygon fill="#C8692C" points="796.949,1323.493 796.837,1325.286 796.805,1325.67 796.757,1326.23 796.741,1326.278 
	796.709,1326.326 796.677,1326.374 796.645,1326.406 796.597,1326.438 796.549,1326.47 796.501,1326.486 796.469,1326.486 
	796.453,1326.502 796.388,1326.502 796.34,1326.486 795.572,1326.39 795.38,1326.358 795.3,1326.342 794.74,1326.278 
	791.874,1325.878 791.938,1325.814 792.563,1325.222 792.595,1325.206 794.211,1323.525 795.508,1323.525 795.684,1323.525 
	796.773,1323.493 "/>
<polygon fill="#C8692C" points="796.357,1328.969 796.244,1330.618 794.804,1330.458 794.66,1331.85 793.235,1332.234 
	793.235,1332.362 793.235,1332.41 793.219,1332.538 790.738,1332.202 790.754,1332.042 790.754,1332.026 790.802,1331.69 
	790.914,1330.762 791.202,1328.296 793.123,1328.552 793.475,1328.601 796.34,1328.953 "/>
<polygon fill="#C8692C" points="733.912,1394.073 733.384,1394.121 732.951,1394.153 732.983,1393.577 732.983,1393.56 
	733.079,1392.024 733.496,1392.008 733.704,1393.064 733.816,1393.56 733.88,1393.945 "/>
<polygon fill="#C8692C" points="734.152,1395.257 734.248,1395.737 734.392,1396.474 734.52,1397.146 734.776,1398.475 
	734.872,1399.019 735,1399.724 734.264,1399.852 734.12,1399.163 733.72,1397.386 733.384,1395.85 733.128,1395.914 
	733.015,1395.433 732.903,1394.857 732.951,1394.153 733.384,1394.121 733.912,1394.073 "/>
<polygon fill="#C8692C" points="796.949,1323.494 796.821,1325.287 796.805,1325.671 796.757,1326.231 796.741,1326.279 
	796.709,1326.327 796.677,1326.375 796.645,1326.407 796.597,1326.439 796.549,1326.471 796.501,1326.487 796.469,1326.487 
	796.437,1326.504 796.389,1326.504 796.34,1326.487 795.556,1326.391 795.38,1326.359 795.284,1326.343 794.74,1326.279 
	791.874,1325.879 791.922,1325.815 792.563,1325.223 792.595,1325.207 794.195,1323.526 795.492,1323.526 795.684,1323.526 
	796.773,1323.494 "/>
<polygon fill="#C8692C" points="750.202,1534.618 750.746,1534.666 751.594,1534.666 751.61,1534.89 751.626,1535.178 
	751.514,1536.362 751.466,1536.843 750.842,1536.763 750.602,1536.731 750.394,1536.714 749.945,1536.651 749.145,1536.603 
	748.425,1536.458 747.304,1536.33 747.24,1536.09 747.16,1535.594 747.256,1535.466 747.32,1535.274 747.4,1535.146 
	747.704,1534.458 749.833,1534.65 750.073,1534.73 "/>
<polygon fill="#C8692C" points="747.992,1533.097 747.416,1534.537 746.904,1535.578 746.872,1535.578 746.296,1535.674 
	746.536,1534.425 746.808,1532.825 "/>
<polygon fill="#C8692C" points="734.61,1515.12 734.514,1515.424 733.858,1517.537 733.394,1517.473 733.346,1517.473 
	733.41,1517.361 733.89,1515.728 734.082,1515.44 734.098,1515.408 734.226,1515.088 734.37,1515.104 "/>
<polygon fill="#C8692C" points="764.56,1506.828 764.88,1506.844 764.896,1506.844 764.912,1506.844 765.072,1507.276 
	764.816,1508.477 764.8,1508.477 764.464,1508.925 764.224,1509.197 764.16,1509.261 764,1509.421 763.872,1509.565 
	763.696,1509.773 763.504,1509.965 763.424,1510.013 763.888,1508.909 764.144,1508.861 763.888,1507.484 763.6,1507.532 
	763.504,1507.004 763.792,1506.956 764.544,1506.828 "/>
<polygon fill="#C8692C" points="742.534,1491.012 742.534,1490.98 742.534,1490.964 742.582,1490.66 742.614,1490.308 
	742.646,1490.164 742.71,1489.844 742.758,1489.539 742.726,1489.475 742.63,1489.315 742.55,1489.075 742.646,1488.963 
	743.094,1488.403 743.767,1487.907 744.823,1487.971 746.744,1488.115 747.048,1488.131 747.064,1487.939 747.096,1487.346 
	747.112,1487.042 746.856,1487.026 746.312,1487.01 746.36,1486.818 746.376,1486.322 746.552,1486.258 747.144,1486.338 
	748.137,1486.498 748.329,1486.61 748.745,1487.042 748.841,1487.33 748.793,1488.179 748.793,1488.259 748.761,1488.787 
	748.153,1488.803 747.656,1488.803 747.096,1488.915 746.312,1489.251 746.056,1489.379 745.896,1489.475 745.768,1489.555 
	745.623,1489.667 745.543,1489.747 745.271,1490.18 745.159,1490.356 745.079,1490.436 744.215,1491.012 "/>
<polygon fill="#C8692C" points="816.456,1458.644 816.36,1458.66 816.296,1458.692 816.248,1458.724 816.2,1458.804 
	816.168,1458.868 816.136,1458.916 816.12,1458.996 816.168,1459.365 816.168,1459.397 816.216,1459.861 816.072,1459.861 
	815.768,1459.861 815.752,1459.861 815.688,1460.613 815.96,1461.029 815.784,1461.157 815.623,1461.093 815.431,1460.917 
	815.207,1460.549 814.631,1460.645 814.599,1460.821 814.231,1460.709 814.247,1460.517 813.927,1459.845 812.774,1459.845 
	813.078,1457.716 813.078,1457.7 813.094,1457.604 813.174,1457.059 813.238,1456.563 813.254,1456.435 813.334,1455.923 
	813.382,1455.667 813.382,1455.299 813.382,1455.154 813.414,1454.514 813.414,1454.482 813.414,1454.386 813.414,1454.274 
	813.414,1454.162 813.43,1454.082 813.51,1454.002 813.575,1453.954 813.639,1453.906 813.783,1453.89 814.375,1453.842 
	814.599,1453.81 814.823,1453.794 814.919,1453.794 814.935,1454.066 814.727,1454.37 814.679,1454.45 814.663,1454.53 
	814.647,1454.578 814.663,1454.706 814.679,1454.818 814.663,1454.898 814.647,1455.01 814.615,1455.347 814.743,1455.363 
	814.983,1455.843 814.999,1455.859 815.015,1455.875 815.047,1455.955 815.095,1456.019 815.127,1456.035 815.191,1456.051 
	815.207,1456.051 815.335,1456.067 815.479,1456.051 815.64,1455.939 815.816,1455.763 815.992,1455.587 816.168,1455.619 
	816.232,1455.619 816.28,1456.163 816.312,1456.643 816.312,1456.659 816.344,1457.172 816.344,1457.188 "/>
<polygon fill="#C8692C" points="733.938,1394.084 733.41,1394.132 732.978,1394.165 733.01,1393.588 733.01,1393.556 
	733.106,1392.02 733.522,1392.003 733.73,1393.06 733.842,1393.572 733.906,1393.956 "/>
<polygon fill="#C8692C" points="734.178,1395.253 734.274,1395.733 734.418,1396.47 734.546,1397.142 734.802,1398.487 
	734.898,1399.031 735.027,1399.719 734.29,1399.863 734.146,1399.175 733.746,1397.382 733.41,1395.861 733.154,1395.909 
	733.042,1395.445 732.93,1394.853 732.978,1394.165 733.41,1394.132 733.938,1394.084 "/>
<polygon fill="#C8692C" points="771.619,1487.811 771.667,1487.955 771.715,1488.339 771.859,1489.427 770.899,1489.491 
	770.659,1487.698 771.587,1487.506 "/>
<polygon fill="#C8692C" points="752.747,1531.624 752.955,1532.152 753.003,1532.184 753.035,1532.232 753.115,1532.28 
	753.211,1532.328 753.387,1532.36 753.531,1532.392 754.363,1532.568 754.459,1532.584 754.539,1532.937 754.604,1533.193 
	753.323,1533.097 753.179,1533.065 753.115,1533.033 753.083,1533.033 752.955,1532.857 752.939,1532.857 752.891,1532.809 
	752.859,1532.777 752.843,1532.777 752.843,1532.761 752.827,1532.761 752.811,1532.745 752.715,1532.713 752.699,1532.713 
	752.683,1532.713 752.394,1532.713 752.379,1532.713 752.074,1532.729 752.058,1532.729 752.042,1532.745 752.026,1532.745 
	751.93,1532.136 752.282,1531.816 752.411,1531.608 752.523,1531.608 752.667,1531.592 "/>
<polygon fill="#C8692C" points="816.448,1458.623 816.368,1458.639 816.304,1458.671 816.256,1458.703 816.192,1458.783 
	816.16,1458.847 816.144,1458.895 816.128,1458.975 816.16,1459.343 816.16,1459.375 816.208,1459.839 816.064,1459.839 
	815.76,1459.839 815.68,1460.592 815.952,1461.008 815.776,1461.136 815.616,1461.072 815.424,1460.896 815.216,1460.528 
	814.64,1460.624 814.591,1460.8 814.223,1460.688 814.239,1460.496 813.935,1459.823 812.767,1459.823 813.071,1457.694 
	813.071,1457.678 813.087,1457.582 813.167,1457.038 813.247,1456.542 813.263,1456.414 813.327,1455.901 813.375,1455.645 
	813.375,1455.277 813.391,1455.133 813.407,1454.493 813.407,1454.461 813.407,1454.365 813.407,1454.253 813.407,1454.141 
	813.439,1454.061 813.503,1453.981 813.567,1453.932 813.631,1453.885 813.775,1453.869 814.383,1453.821 814.591,1453.788 
	814.816,1453.772 814.912,1453.772 814.944,1454.045 814.72,1454.349 814.672,1454.429 814.656,1454.509 814.656,1454.557 
	814.672,1454.685 814.672,1454.797 814.672,1454.877 814.656,1454.989 814.608,1455.325 814.752,1455.341 814.992,1455.822 
	814.992,1455.838 815.008,1455.854 815.056,1455.934 815.088,1455.998 815.136,1456.014 815.2,1456.03 815.344,1456.046 
	815.488,1456.03 815.632,1455.917 815.808,1455.741 815.984,1455.565 816.176,1455.597 816.24,1455.597 816.272,1456.142 
	816.304,1456.622 816.304,1456.638 816.336,1457.15 816.336,1457.166 "/>
<polygon fill="#C8692C" points="819.25,1454.909 819.282,1454.925 820.274,1454.909 822.195,1454.877 822.467,1454.877 
	822.467,1456.398 822.403,1461.472 819.362,1461.44 819.25,1458.367 819.25,1456.27 "/>
<polygon fill="#C8692C" points="822.467,1454.877 822.195,1454.877 820.274,1454.909 819.282,1454.925 819.25,1454.909 
	819.266,1453.052 822.483,1453.004 "/>
<polygon fill="#C8692C" points="836.569,1390.617 836.92,1390.617 837.543,1390.633 838.597,1390.633 838.949,1390.633 
	839.141,1390.697 839.156,1390.697 839.172,1390.697 839.268,1390.729 839.3,1390.745 839.348,1390.777 839.364,1390.793 
	839.396,1390.809 839.428,1390.841 839.46,1390.873 839.476,1390.889 839.492,1390.921 839.524,1390.984 839.572,1391.096 
	839.668,1392.118 839.684,1393.205 839.684,1393.572 839.684,1393.859 839.684,1394.003 839.668,1394.099 839.141,1394.099 
	836.888,1394.051 836.825,1394.051 836.825,1394.003 836.809,1393.891 836.809,1393.716 836.809,1393.7 836.825,1393.476 
	836.825,1393.3 836.825,1392.965 836.825,1392.63 836.825,1392.374 836.825,1392.358 837.016,1392.358 837,1391.352 
	835.754,1391.304 835.754,1390.984 835.754,1390.585 "/>
<polygon fill="#C8692C" points="836.57,1390.574 836.922,1390.59 837.545,1390.59 838.599,1390.606 838.95,1390.606 
	839.142,1390.654 839.158,1390.654 839.174,1390.654 839.27,1390.702 839.302,1390.718 839.35,1390.75 839.366,1390.766 
	839.398,1390.781 839.43,1390.813 839.461,1390.845 839.477,1390.861 839.493,1390.877 839.525,1390.941 839.573,1391.053 
	839.669,1392.075 839.685,1393.177 839.685,1393.545 839.685,1393.832 839.685,1393.96 839.669,1394.056 839.669,1394.072 
	839.142,1394.056 836.89,1394.024 836.826,1394.008 836.826,1393.96 836.81,1393.864 836.81,1393.673 836.81,1393.657 
	836.826,1393.449 836.826,1393.257 836.826,1392.938 836.826,1392.602 836.826,1392.347 836.826,1392.331 837.018,1392.331 
	837.002,1391.309 835.756,1391.277 835.756,1390.957 835.756,1390.558 "/>
</svg>
