<?xml version="1.0" encoding="utf-8"?>
<!-- Generator: Adobe Illustrator 17.0.0, SVG Export Plug-In . SVG Version: 6.00 Build 0)  -->
<!DOCTYPE svg PUBLIC "-//W3C//DTD SVG 1.1//EN" "http://www.w3.org/Graphics/SVG/1.1/DTD/svg11.dtd">
<svg version="1.1" id="Layer_3" xmlns="http://www.w3.org/2000/svg" xmlns:xlink="http://www.w3.org/1999/xlink" x="0px" y="0px"
	 width="1840px" height="2400px" viewBox="0 0 1840 2400" enable-background="new 0 0 1840 2400" xml:space="preserve">
<polygon fill="#EE3B24" points="1007.835,761.34 1007.787,761.613 1007.707,762.238 1007.691,762.639 1007.771,763.441 
	1007.787,763.746 1007.835,763.939 1007.787,764.308 1007.611,764.259 1007.162,764.115 1006.777,764.067 1004.868,763.634 
	1004.451,763.522 1005.012,760.859 1005.718,761.035 1007.178,760.474 1007.162,759.929 1007.146,759.704 1007.611,759.704 
	1007.611,759.912 1007.707,761.099 1007.787,761.276 "/>
<polygon fill="#EE3B24" points="992.233,832.761 993.661,832.922 993.5,834.59 992.698,834.542 992.153,834.461 991.399,834.349 
	991.704,832.713 "/>
<polygon fill="#EE3B24" points="936.101,849.409 935.716,850.58 935.636,850.836 935.54,851.157 935.332,851.783 935.187,851.719 
	934.369,851.414 934.129,851.318 933.15,850.885 933.68,849.938 934.834,849.072 "/>
<polygon fill="#EE3B24" points="882.937,847.741 882.84,847.709 882.696,847.645 882.696,847.613 882.68,847.244 882.167,847.051 
	882.183,846.891 882.295,845.752 882.295,845.592 882.295,845.399 882.632,845.399 883.45,845.399 884.444,845.383 884.444,845.528 
	884.492,847.5 884.332,847.517 883.963,847.581 883.338,847.693 883.161,847.709 "/>
<polygon fill="#EE3B24" points="893.938,841.935 891.02,841.214 890.474,841.069 890.955,840.011 891.421,840.123 893.425,840.636 
	893.794,840.813 893.874,841.005 893.922,841.214 893.987,841.406 893.987,841.63 893.987,841.791 "/>
<polygon fill="#EE3B24" points="992.233,832.745 993.661,832.906 993.5,834.574 992.698,834.526 992.153,834.461 991.399,834.349 
	991.704,832.697 "/>
<polygon fill="#EE3B24" points="952.123,803.444 952.107,803.492 952.059,803.62 951.915,804.085 952.556,804.245 952.716,803.764 
	952.733,803.716 952.765,803.588 953.566,803.764 954.208,803.909 954.176,804.037 954.16,804.085 953.583,806.395 953.566,806.427 
	953.021,806.427 952.492,806.443 952.011,806.443 951.305,806.459 951.289,806.459 951.273,806.459 951.065,806.475 
	951.065,806.395 951.241,804.967 951.241,804.855 951,804.855 951,804.069 949.381,803.893 949.477,803.235 949.493,803.059 
	950.07,803.139 951.097,803.267 951.69,803.347 951.77,803.363 "/>
<polygon fill="#EE3B24" points="959.709,794.751 959.677,794.959 959.613,795.312 959.5,795.681 959.404,795.986 959.372,796.114 
	959.292,796.114 959.099,796.114 959.003,796.13 958.298,796.13 957.496,796.146 957.351,796.162 957.351,796.018 957.335,795.408 
	957.383,794.783 957.399,794.623 959.083,794.719 959.516,794.735 "/>
<polygon fill="#EE3B24" points="955.058,793.917 955.122,794.623 953.871,794.639 953.855,793.901 "/>
<polygon fill="#EE3B24" points="956.63,792.073 956.63,792.024 956.646,791.864 956.678,791.431 956.742,790.324 958.314,790.501 
	958.233,792.153 958.217,792.217 958.217,792.265 957.736,792.217 "/>
<polygon fill="#EE3B24" points="1003.861,786.138 1003.668,786.668 1003.636,786.668 1002.145,786.587 1002.353,784.903 
	1002.385,784.647 1002.385,784.631 1002.385,784.118 1002.401,783.444 1002.401,783.284 1002.417,783.251 1002.449,783.251 
	1002.465,783.251 1002.465,783.235 1002.481,783.235 1002.529,783.203 1002.562,783.171 1002.578,783.171 1002.642,783.155 
	1002.69,783.155 1004.005,783.219 1004.438,783.251 1004.502,783.284 1004.518,783.3 1004.518,783.332 1004.518,783.749 
	1004.454,784.278 1004.39,784.807 1004.374,784.839 1004.374,784.855 1004.342,784.968 "/>
<polygon fill="#EE3B24" points="946.542,782.802 946.526,782.818 946.109,782.562 945.788,782.353 945.788,782.337 947.633,780.541 
	947.969,780.814 948.017,780.862 947.777,781.167 947.328,782 947.216,782.209 947.087,782.353 946.847,782.594 "/>
<polygon fill="#EE3B24" points="962.788,775.345 962.708,775.345 962.596,774.928 962.451,774.302 962.532,774.286 962.756,774.238 
	964.232,773.901 964.424,774.382 964.424,774.783 963.013,775.264 "/>
<polygon fill="#EE3B24" points="977.158,772.666 977.222,772.426 977.254,772.297 977.286,771.945 977.318,771.736 977.848,771.367 
	977.928,771.319 978.345,771.319 979.05,771.319 979.082,772.602 "/>
<polygon fill="#EE3B24" points="914.123,784.106 914.155,784.138 914.556,784.86 914.411,785.453 914.395,785.533 911.829,785.501 
	911.749,786.063 911.733,786.143 911.573,786.736 911.332,786.544 911.332,786.255 911.316,786.111 911.284,785.309 
	911.284,785.293 911.364,784.186 911.364,783.946 912.679,784.01 "/>
<polygon fill="#EE3B24" points="946.519,782.839 946.503,782.855 946.086,782.598 945.749,782.39 945.749,782.374 947.609,780.578 
	947.946,780.85 947.994,780.898 947.754,781.203 947.305,782.037 947.176,782.246 947.048,782.39 946.823,782.63 "/>
<polygon fill="#EE3B24" points="915.037,778.525 915.406,779.263 915.486,779.407 915.406,779.407 914.732,779.407 914.764,779.679 
	914.315,779.487 914.283,779.423 914.283,778.878 914.427,778.284 914.636,778.252 914.652,778.493 "/>
<polygon fill="#EE3B24" points="883.106,778.749 882.737,778.813 882.208,778.894 882.079,778.252 882.657,778.14 883.01,778.076 
	"/>
<polygon fill="#EE3B24" points="883.218,777.113 883.218,777.242 883.266,777.675 883.202,777.739 882.721,777.835 881.903,777.995 
	881.053,778.156 881.069,778.076 881.117,777.611 881.149,777.45 881.149,777.402 881.165,777.306 881.165,777.242 881.181,777.161 
	881.197,777.001 881.213,776.873 881.229,776.728 881.406,776.696 881.694,776.648 883.154,776.424 883.17,776.584 "/>
<polygon fill="#EE3B24" points="962.765,775.381 962.685,775.381 962.572,774.964 962.412,774.339 962.508,774.323 962.733,774.275 
	964.208,773.938 964.385,774.419 964.401,774.82 962.989,775.301 "/>
<polygon fill="#EE3B24" points="923.296,768.693 923.906,768.725 923.809,768.918 923.44,769.607 922.847,769.575 922.478,769.559 
	922.526,768.87 922.526,768.661 "/>
<polygon fill="#EE3B24" points="910.787,765.438 910.787,765.806 910.787,766.336 910.787,767.41 910.771,768.613 910.771,768.934 
	910.771,769.271 910.771,769.672 910.258,769.672 908.445,769.656 908.558,768.741 908.798,766.528 908.926,765.325 
	908.926,765.197 "/>
<polygon fill="#EE3B24" points="936.078,849.43 935.693,850.616 935.613,850.857 935.517,851.194 935.308,851.803 935.164,851.755 
	934.346,851.434 934.106,851.354 933.127,850.921 933.656,849.975 934.811,849.109 "/>
<polygon fill="#EE3B24" points="882.913,847.762 882.817,847.73 882.673,847.681 882.673,847.649 882.657,847.264 882.143,847.072 
	882.16,846.928 882.272,845.789 882.272,845.628 882.272,845.42 882.609,845.42 883.427,845.42 884.421,845.404 884.421,845.548 
	884.469,847.521 884.309,847.553 883.94,847.617 883.314,847.714 883.138,847.73 "/>
<polygon fill="#EE3B24" points="893.915,841.972 890.996,841.25 890.451,841.09 890.932,840.047 891.397,840.143 893.402,840.673 
	893.771,840.849 893.851,841.026 893.899,841.234 893.963,841.426 893.963,841.651 893.963,841.811 "/>
<polygon fill="#EE3B24" points="877.092,831.964 875.825,831.996 875.841,831.002 876.562,830.938 877.044,830.889 "/>
<polygon fill="#EE3B24" points="877.044,829.671 875.841,829.719 875.841,828.291 877.011,828.275 877.044,829.542 "/>
<polygon fill="#EE3B24" points="890.114,828.853 890.162,828.5 891.814,827.008 892.247,826.591 892.215,827.377 892.135,828.227 
	892.055,829.029 891.75,828.997 891.205,828.933 890.162,828.853 "/>
<polygon fill="#EE3B24" points="884.629,817.465 884.565,817.866 884.501,818.283 884.373,819.166 884.276,819.775 884.18,820.288 
	884.18,820.32 884.164,820.336 884.132,820.545 884.004,820.513 882.272,820.16 882.16,820.128 881.63,820.016 881.454,819.983 
	881.39,819.983 881.261,819.951 881.293,819.791 881.31,819.759 881.342,819.631 881.39,819.438 881.438,819.246 881.775,817.931 
	881.855,817.498 881.871,817.369 881.903,817.129 881.935,816.984 883.33,817.241 883.362,817.257 883.988,817.369 "/>
<polygon fill="#EE3B24" points="912.166,813.648 912.102,813.536 911.492,812.59 911.941,812.349 912.535,813.36 912.423,813.44 "/>
<polygon fill="#EE3B24" points="891.413,812.285 891.894,812.349 891.926,812.365 891.975,812.365 891.894,812.734 891.814,813.328 
	891.606,814.755 891.076,814.691 891.06,814.931 891.06,814.947 891.06,814.996 889.681,814.803 889.232,814.739 888.398,814.659 
	888.302,814.627 888.302,814.562 888.35,814.049 888.398,813.648 888.494,812.75 888.494,812.718 888.494,812.67 888.494,812.654 
	888.559,812.157 888.575,811.916 888.992,811.964 889.537,812.029 889.729,812.061 889.938,812.093 889.986,812.109 
	890.114,812.109 890.162,812.125 890.339,812.141 890.483,812.173 890.595,812.189 890.659,812.205 891.317,812.285 "/>
<polygon fill="#EE3B24" points="932.405,810.745 932.117,810.729 930.321,810.649 930.529,807.105 930.561,806.72 932.245,806.72 
	932.47,806.832 932.662,807.073 "/>
<polygon fill="#EE3B24" points="901.742,808.019 901.501,807.971 901.325,807.939 900.891,807.875 900.667,807.955 900.555,808.003 
	900.491,808.035 900.491,808.003 900.218,806.992 900.234,806.944 900.491,806.335 900.33,805.838 900.25,805.693 900.009,805.325 
	900.266,804.539 900.266,804.507 900.442,804.298 900.491,804.186 900.731,804.186 903.008,804.25 903.201,804.25 903.073,804.924 
	903.041,805.116 902.672,807.153 902.335,807.746 "/>
<polygon fill="#EE3B24" points="952.1,803.48 952.084,803.528 952.036,803.657 951.875,804.122 952.517,804.282 952.677,803.801 
	952.693,803.753 952.741,803.624 953.543,803.801 954.169,803.945 954.153,804.074 954.137,804.122 953.543,806.431 
	953.543,806.463 952.998,806.463 952.469,806.479 951.987,806.479 951.266,806.495 951.25,806.495 951.041,806.511 951.041,806.431 
	951.202,805.004 951.218,804.891 950.977,804.891 950.961,804.106 949.341,803.929 949.438,803.272 949.47,803.095 950.047,803.175 
	951.073,803.304 951.651,803.384 951.747,803.4 952.084,803.48 "/>
<polygon fill="#EE3B24" points="932.582,802.598 932.967,802.63 932.951,802.855 932.839,804.378 932.823,804.635 932.823,804.683 
	932.662,804.635 932.582,804.603 932.341,804.539 932.261,804.523 931.876,804.426 931.876,804.346 931.892,802.823 
	931.908,802.566 "/>
<polygon fill="#EE3B24" points="934.442,801.539 934.667,801.539 934.971,801.652 935.244,801.668 935.244,802.486 935.148,802.502 
	934.442,802.518 934.458,801.7 "/>
<polygon fill="#EE3B24" points="908.83,799.422 908.654,799.679 908.157,800.385 907.483,799.92 907.595,799.727 907.804,799.358 
	907.836,799.31 907.948,799.134 908.125,798.877 908.157,798.893 908.333,799.022 908.349,799.054 "/>
<polygon fill="#EE3B24" points="933.207,798.316 934.073,798.444 935.132,798.588 935.148,798.588 934.939,800.273 934.891,800.256 
	934.715,800.224 932.983,799.823 932.903,799.807 931.989,799.583 932.053,798.107 932.101,798.123 932.245,798.155 
	932.245,798.204 932.405,798.236 932.422,798.188 932.598,798.22 932.71,798.252 932.839,798.268 "/>
<polygon fill="#EE3B24" points="938.933,804.908 938.933,804.956 938.901,804.94 938.243,804.539 937.906,804.314 937.489,803.865 
	937.377,803.512 937.345,803.207 937.185,802.245 937.169,802.117 937.137,801.86 937.121,801.78 937.056,801.299 937.04,801.171 
	937.024,801.106 936.976,800.192 936.976,800.16 936.944,799.615 936.96,799.583 936.944,799.326 936.912,798.444 936.88,797.45 
	936.944,797.434 937.425,797.386 937.81,797.338 937.778,797.482 937.762,797.53 937.682,797.819 937.666,797.851 938.917,798.38 
	938.965,798.396 939.414,798.588 939.494,798.621 939.35,799.952 939.286,800.754 939.286,800.818 939.27,800.962 939.27,801.171 
	939.173,802.325 939.109,803.304 939.093,803.48 938.949,804.731 "/>
<polygon fill="#EE3B24" points="959.686,794.787 959.653,794.996 959.589,795.349 959.477,795.718 959.365,796.022 959.333,796.151 
	959.253,796.151 959.076,796.151 958.964,796.167 958.274,796.167 957.472,796.183 957.312,796.199 957.312,796.054 
	957.312,795.445 957.36,794.82 957.36,794.659 959.06,794.755 959.493,794.771 "/>
<polygon fill="#EE3B24" points="955.035,793.953 955.099,794.659 953.832,794.675 953.832,793.937 "/>
<polygon fill="#EE3B24" points="880.716,793.119 880.7,793.713 880.684,794.162 880.684,794.499 880.684,794.579 880.668,794.9 
	880.668,794.916 880.524,794.9 880.075,794.82 879.594,794.755 879.481,794.755 879.064,794.755 878.792,794.755 878.455,794.723 
	878.262,794.707 878.246,794.707 877.99,794.563 877.749,793.633 878.23,793.424 878.776,793.312 880.155,793.472 880.203,793.168 
	880.219,793.039 880.556,793.087 880.636,793.103 "/>
<polygon fill="#EE3B24" points="936.848,793.36 936.848,793.472 936.848,793.649 936.8,793.633 936.078,793.536 935.934,793.52 
	935.741,793.52 935.228,793.793 935.228,793.697 935.276,793.424 935.372,792.638 935.389,792.574 935.693,792.542 935.709,792.542 
	936.014,792.494 936.335,792.446 936.639,792.382 936.848,792.334 936.864,792.462 936.848,792.959 "/>
<polygon fill="#EE3B24" points="907.226,791.532 909.696,791.981 909.632,792.943 909.568,793.681 909.552,793.937 907.194,793.44 
	907.146,793.424 906.489,793.296 906.858,791.451 "/>
<polygon fill="#EE3B24" points="936.591,792.109 936.399,792.141 936.383,792.029 936.351,791.836 936.335,791.74 936.303,791.644 
	936.527,791.58 937.65,791.291 937.682,791.451 937.714,791.532 937.73,791.708 937.746,791.788 937.489,791.869 937.185,791.949 
	936.88,792.029 936.848,792.045 "/>
<polygon fill="#EE3B24" points="930.016,791.58 929.92,791.869 929.583,792.943 929.166,792.831 929.31,792.318 928.508,792.109 
	928.556,791.468 928.653,791.147 928.701,791.083 928.717,791.099 928.99,791.179 929.246,791.259 929.519,791.355 929.759,791.451 
	"/>
<polygon fill="#EE3B24" points="956.59,792.109 956.606,792.061 956.622,791.901 956.638,791.468 956.719,790.361 958.29,790.537 
	958.194,792.189 958.194,792.253 958.194,792.302 957.697,792.253 "/>
<polygon fill="#EE3B24" points="885.64,787.618 885.592,787.987 885.576,788.196 885.56,788.324 885.479,789.238 885.399,789.222 
	884.068,789.142 884.228,787.522 "/>
<polygon fill="#EE3B24" points="883.972,786.833 883.972,786.865 883.731,789.126 883.715,789.126 883.699,789.11 882.256,788.982 
	882.288,788.725 882.464,787.682 882.544,787.185 882.56,787.009 882.609,786.688 883.876,786.833 "/>
<polygon fill="#EE3B24" points="885.752,785.982 885.736,786.303 885.672,787.009 885.64,787.009 885.527,786.993 884.565,786.897 
	884.26,786.865 884.389,786.287 884.806,785.181 884.822,785.181 884.838,785.164 885.126,785.437 885.143,785.854 885.351,786.015 
	885.415,786.063 "/>
<polygon fill="#EE3B24" points="895.567,784.892 895.567,785.1 895.487,785.1 895.407,785.918 895.391,785.966 893.514,785.982 
	893.53,785.934 893.883,784.507 893.995,784.539 894.877,784.715 895.439,784.764 895.519,784.764 895.567,784.764 "/>
<polygon fill="#EE3B24" points="892.343,855.056 891.926,855.232 891.316,855.489 890.915,855.665 890.883,855.681 888.862,854.254 
	889.135,853.885 888.991,853.741 891.076,852.955 891.509,852.794 "/>
<polygon fill="#EE3B24" points="892.343,855.04 891.926,855.216 891.316,855.489 890.915,855.649 890.883,855.665 888.862,854.254 
	888.862,854.238 889.135,853.869 888.991,853.725 891.076,852.939 891.509,852.778 "/>
<polygon fill="#EE3B24" points="806.214,1746.097 805.637,1747.348 805.124,1748.454 804.739,1748.262 803.248,1747.524 
	803.183,1747.492 803.504,1746.658 804.001,1745.504 804.146,1745.584 804.21,1745.584 804.242,1745.568 804.274,1745.552 
	804.338,1745.504 804.402,1745.408 804.498,1745.263 804.594,1745.071 804.675,1745.087 804.707,1745.103 804.771,1745.119 
	804.915,1745.167 805.011,1745.215 805.957,1745.905 806.07,1745.985 "/>
<polygon fill="#EE3B24" points="823.608,1745.292 823.528,1745.292 823.432,1745.324 823.352,1745.388 823.319,1745.484 
	823.207,1746.11 823.223,1746.19 823.287,1746.286 823.384,1746.334 823.496,1746.35 823.4,1747.088 823.336,1747.473 
	822.646,1747.457 822.566,1747.457 821.54,1747.425 821.684,1747.248 822.005,1746.847 822.261,1746.542 822.582,1746.142 
	822.694,1745.997 822.758,1745.901 822.871,1745.869 822.999,1745.789 823.079,1745.677 823.095,1745.596 823.127,1745.404 
	823.143,1745.388 823.159,1745.228 823.255,1745.244 823.384,1745.26 823.4,1745.26 "/>
<polygon fill="#EE3B24" points="839.771,1745.372 840.862,1745.212 841.022,1745.196 841.214,1746.302 841.311,1746.831 
	841.327,1746.847 841.038,1746.911 840.942,1746.927 840.733,1746.975 840.14,1747.12 839.996,1747.152 839.916,1747.168 
	839.9,1746.992 839.867,1746.526 839.883,1746.526 "/>
<polygon fill="#EE3B24" points="806.226,1746.094 805.649,1747.344 805.136,1748.451 804.751,1748.258 804.735,1748.258 
	803.244,1747.521 803.18,1747.489 803.5,1746.655 803.997,1745.5 804.158,1745.58 804.206,1745.58 804.238,1745.564 
	804.27,1745.548 804.334,1745.5 804.398,1745.404 804.495,1745.26 804.591,1745.067 804.671,1745.083 804.703,1745.099 
	804.767,1745.115 804.911,1745.163 805.008,1745.212 805.954,1745.901 806.066,1745.981 "/>
<polygon fill="#EE3B24" points="844.021,1744.65 844.87,1744.49 845.287,1745.099 845.351,1745.196 845.255,1745.212 
	844.197,1745.484 844.069,1744.827 844.036,1744.65 "/>
<polygon fill="#EE3B24" points="852.038,1740.834 851.91,1741.443 851.605,1741.347 851.509,1741.315 851.429,1741.347 
	851.076,1741.235 850.755,1742.261 849.649,1741.507 849.248,1741.251 849.456,1740.866 849.633,1740.481 849.633,1740.465 
	849.745,1740.241 849.889,1739.888 849.969,1739.647 850.018,1739.551 850.05,1739.487 850.066,1739.439 850.114,1739.407 
	850.162,1739.391 850.899,1739.599 851.942,1739.872 852.07,1739.904 852.214,1739.952 852.23,1739.952 "/>
<polygon fill="#EE3B24" points="895.877,1736.985 895.893,1736.873 895.957,1736.408 896.054,1735.59 896.214,1734.548 
	896.214,1734.532 896.262,1734.532 897.016,1734.644 896.759,1737.13 895.973,1737.002 "/>
<polygon fill="#EE3B24" points="891.468,1733.907 891.468,1733.923 891.5,1734.067 891.548,1734.468 891.484,1735.173 
	891.468,1735.222 891.452,1735.286 891.42,1735.366 891.404,1735.43 891.387,1735.494 891.371,1735.574 891.339,1735.639 
	891.323,1735.719 891.307,1735.783 891.291,1735.863 891.275,1735.927 891.259,1735.991 891.243,1736.071 891.227,1736.136 
	891.211,1736.216 891.195,1736.28 891.179,1736.36 891.163,1736.424 891.147,1736.504 891.131,1736.569 891.115,1736.649 
	891.099,1736.713 891.099,1736.793 891.083,1736.857 891.067,1736.937 891.051,1737.002 891.035,1737.082 891.035,1737.13 
	890.955,1737.13 890.506,1737.114 889.96,1737.066 889.992,1736.039 890.008,1735.093 890.024,1733.778 891.035,1733.859 "/>
<polygon fill="#EE3B24" points="832.395,1732.544 832.491,1732.624 832.572,1732.704 833.021,1733.089 833.646,1733.634 
	833.71,1733.698 834.271,1734.372 834.897,1735.109 834.897,1735.125 835.522,1735.847 835.57,1735.895 836.051,1736.488 
	836.083,1736.52 836.115,1736.649 836.163,1736.857 836.212,1736.985 835.827,1737.322 835.795,1737.274 834.063,1735.254 
	833.806,1735.254 833.726,1735.189 833.678,1735.061 833.758,1734.853 833.005,1734.099 832.54,1733.169 831.978,1733.057 
	831.882,1733.682 830.679,1733.377 830.455,1734.292 831.706,1734.548 831.626,1735.077 832.475,1735.27 832.411,1735.59 
	832.267,1735.558 832.042,1736.825 831.706,1738.765 834.303,1739.246 835.618,1739.519 836.693,1739.728 836.661,1739.824 
	836.596,1740.08 836.596,1740.112 836.58,1740.161 836.532,1740.321 836.228,1741.331 835.714,1741.267 835.297,1741.219 
	833.886,1741.042 831.112,1740.658 830.599,1740.593 829.974,1740.497 829.798,1740.481 829.108,1740.385 828.948,1740.353 
	828.691,1740.321 828.803,1739.888 825.26,1739.214 825.308,1739.102 825.372,1738.91 825.596,1738.332 825.612,1738.3 
	826.687,1738.493 826.526,1739.134 826.478,1739.343 828.691,1739.728 828.835,1739.76 828.9,1739.423 829.028,1738.461 
	828.515,1738.413 828.819,1737.466 829.381,1735.751 829.429,1735.639 829.894,1734.227 829.91,1734.211 829.83,1734.003 
	829.733,1733.746 828.306,1733.153 827.761,1732.912 827.521,1732.816 827.569,1732.656 827.665,1732.399 828.723,1732.864 
	829.99,1733.426 830.086,1733.105 830.407,1732.848 831.016,1732.479 831.369,1732.319 831.866,1732.079 832.026,1732.223 
	832.187,1732.367 832.363,1732.528 "/>
<polygon fill="#EE3B24" points="854.058,1738.236 854.01,1738.621 853.93,1739.038 853.834,1739.487 853.802,1739.551 
	853.77,1739.599 853.722,1739.647 853.657,1739.679 853.577,1739.695 852.599,1739.423 852.856,1738.012 "/>
<polygon fill="#EE3B24" points="799.051,2015.123 799.164,2015.156 799.132,2015.284 799.067,2015.493 798.987,2015.751 
	798.922,2015.96 798.89,2016.056 798.81,2016.04 798.794,2016.04 798.697,2016.024 798.665,2016.008 798.472,2015.976 
	798.247,2015.928 798.118,2015.879 798.118,2015.895 797.78,2015.799 797.796,2015.751 797.459,2015.654 797.426,2015.638 
	797.394,2015.638 797.362,2015.622 797.282,2015.59 797.201,2015.574 797.121,2015.542 797.137,2015.365 797.153,2015.316 
	797.298,2014.737 797.33,2014.641 797.346,2014.641 797.346,2014.625 797.796,2014.737 798.44,2014.914 798.44,2014.979 
	798.488,2014.995 "/>
<polygon fill="#EE3B24" points="779.797,2015.316 779.363,2015.429 779.025,2015.526 779.009,2015.542 778.88,2015.139 
	778.719,2014.593 778.575,2014.126 778.591,2014.126 778.575,2014.078 778.575,2014.046 778.575,2014.03 778.591,2014.013 
	778.607,2013.981 778.623,2013.965 778.671,2013.965 778.671,2013.949 779.282,2013.82 779.298,2013.836 779.331,2013.82 
	779.363,2013.82 779.379,2013.836 779.411,2013.853 779.427,2013.869 779.443,2013.917 779.459,2013.949 779.556,2014.303 
	779.701,2014.914 779.717,2014.963 "/>
<polygon fill="#EE3B24" points="799.598,2011.665 799.566,2011.987 799.566,2012.019 799.55,2012.019 798.987,2011.987 
	798.987,2011.971 798.906,2011.745 798.906,2011.713 799.405,2011.649 799.421,2011.665 "/>
<polygon fill="#EE3B24" points="792.971,2010.941 792.617,2011.005 791.62,2011.166 791.443,2011.198 791.378,2011.182 
	791.346,2011.166 791.298,2011.102 791.282,2010.828 791.604,2010.796 791.732,2010.78 792.585,2010.684 792.681,2010.668 
	792.939,2010.635 792.939,2010.651 792.955,2010.732 792.955,2010.764 792.971,2010.909 "/>
<polygon fill="#EE3B24" points="779.379,2010.973 779.17,2010.989 779.041,2011.005 778.816,2011.021 778.205,2011.07 
	778.188,2011.07 777.69,2011.102 777.465,2011.118 777.336,2011.134 777.175,2011.15 777.03,2011.15 776.853,2011.182 
	776.805,2010.587 776.821,2010.587 776.805,2010.442 776.773,2010.442 776.773,2010.281 776.853,2010.281 777.545,2010.233 
	777.947,2010.201 778.06,2010.185 778.301,2010.169 778.768,2010.153 779.121,2010.121 779.282,2010.104 779.314,2010.378 "/>
<polygon fill="#EE3B24" points="781.888,2010.394 781.454,2010.474 781.325,2010.507 781.309,2010.507 780.987,2010.571 
	780.923,2010.587 780.891,2010.587 780.633,2010.651 780.601,2010.651 780.537,2010.442 780.521,2010.426 780.505,2010.378 
	780.505,2010.314 780.489,2010.072 780.617,2010.056 781.792,2009.911 781.84,2010.089 781.856,2010.185 "/>
<polygon fill="#EE3B24" points="795.48,2010.555 795.432,2010.571 794.193,2010.748 794.145,2010.732 794.097,2010.7 
	794.081,2010.668 794.081,2010.346 794.081,2010.185 794.081,2009.911 794.081,2009.847 794.869,2009.815 795.368,2009.783 
	795.432,2009.783 795.464,2010.314 "/>
<polygon fill="#EE3B24" points="798.456,2003.863 798.617,2004.024 798.794,2003.976 798.81,2004.024 798.858,2004.249 
	798.906,2004.378 798.955,2004.635 798.971,2004.668 798.826,2004.7 798.504,2004.764 798.504,2004.78 798.601,2005.166 
	798.617,2005.214 798.649,2005.359 798.681,2005.504 798.649,2005.52 798.408,2005.584 797.105,2005.938 797.153,2006.164 
	797.153,2006.212 796.976,2006.212 796.847,2006.244 796.574,2006.26 796.574,2006.228 796.558,2006.228 796.542,2006.228 
	796.51,2005.311 796.494,2005.311 796.397,2005.311 796.333,2005.327 796.22,2004.764 796.204,2004.7 796.188,2004.651 
	796.429,2004.603 796.59,2004.555 796.574,2004.507 796.574,2004.491 796.429,2004.507 796.413,2004.217 796.365,2003.879 
	796.365,2003.815 796.365,2003.799 796.365,2003.767 796.381,2003.767 796.654,2003.751 796.654,2003.767 796.735,2003.783 
	797.04,2003.767 797.057,2003.815 797.378,2003.751 797.909,2003.638 797.973,2003.96 798.359,2003.879 "/>
<polygon fill="#EE3B24" points="790.252,2002.85 790.204,2002.866 790.172,2002.673 790.703,2002.512 790.735,2002.705 
	790.51,2002.769 "/>
<polygon fill="#EE3B24" points="789.995,2002.158 789.899,2001.869 789.931,2001.853 790.301,2001.756 790.542,2001.676 
	790.558,2001.676 790.574,2001.676 790.59,2001.66 790.687,2001.627 790.848,2001.595 790.944,2001.563 790.992,2001.547 
	791.008,2001.547 791.073,2001.531 791.089,2001.515 791.121,2001.515 791.185,2001.692 791.218,2001.804 791.201,2001.82 
	791.185,2001.82 791.073,2001.853 790.687,2001.949 790.638,2001.981 790.526,2001.997 "/>
<polygon fill="#EE3B24" points="797.185,2001.788 797.185,2001.901 797.217,2001.901 797.217,2002.142 797.233,2002.287 
	797.25,2002.432 797.137,2002.448 795.947,2002.319 795.834,2002.319 795.818,2002.126 795.689,2001.273 795.705,2001.241 
	795.609,2001.048 795.834,2001 796.091,2001 796.22,2001.129 796.542,2001.756 796.815,2001.772 796.847,2001.788 796.96,2001.788 
	797.089,2001.788 "/>
<polygon fill="#EE3B24" points="786.392,1999.649 786.392,2000.035 786.875,2000.051 786.875,2000.099 786.891,2000.099 
	786.907,2000.131 786.907,2000.244 786.923,2000.566 786.923,2000.582 786.81,2000.582 786.601,2000.582 786.295,2000.582 
	786.135,2000.582 785.99,2000.582 785.716,2000.598 785.716,2000.55 785.716,2000.405 785.716,2000.131 785.7,1999.568 
	785.716,1999.568 786.119,1999.633 "/>
<polygon fill="#EE3B24" points="792.408,1999.472 792.424,1999.729 792.44,2000.003 792.826,1999.97 792.826,1999.987 
	792.826,2000.035 792.826,2000.083 792.842,2000.389 792.842,2000.469 792.488,2000.485 792.44,2000.485 792.44,2000.533 
	791.797,2000.63 791.588,2000.662 791.588,2000.533 791.588,2000.405 791.588,1999.568 791.588,1999.44 791.588,1999.311 
	791.588,1999.263 791.588,1999.182 791.571,1998.635 791.571,1998.378 792.151,1998.185 792.36,1997.992 792.376,1998.024 
	792.392,1998.716 792.408,1999.054 "/>
<polygon fill="#EE3B24" points="802.3,1997.702 802.3,1997.863 802.284,1997.879 802.284,1998.04 802.284,1998.507 
	802.268,1998.764 802.268,1998.941 802.252,1999.07 802.043,1999.086 801.818,1999.086 801.576,1999.086 801.046,1999.086 
	800.804,1999.102 800.643,1998.362 800.418,1998.41 800.386,1998.265 800.225,1998.314 799.952,1998.41 799.807,1998.458 
	799.26,1998.603 799.115,1998.024 799.035,1997.751 799.582,1997.59 799.743,1997.542 800,1997.445 800.145,1997.413 
	800.209,1997.654 800.306,1998.008 800.483,1997.944 800.418,1997.686 800.257,1997.091 800.241,1997.027 800.113,1996.528 
	800.611,1996.528 801.223,1996.512 801.416,1996.512 801.673,1996.496 802.22,1996.48 802.236,1996.609 802.268,1996.995 
	802.284,1997.542 "/>
<polygon fill="#EE3B24" points="790.574,1996.351 790.204,1996.818 790.156,1996.914 790.14,1996.962 790.011,1997.107 
	789.931,1997.204 789.77,1997.365 789.609,1997.493 789.352,1997.67 789.143,1997.799 789.078,1997.831 788.982,1997.22 
	788.901,1996.753 789.078,1996.769 789.207,1996.753 789.432,1996.737 789.915,1996.641 790.333,1996.464 790.494,1996.383 "/>
<polygon fill="#EE3B24" points="783.271,1995.129 783.271,1995.338 783.271,1995.354 783.271,1995.434 783.271,1995.74 
	783.111,1995.901 783.336,1996.062 782.869,1996.721 781.808,1995.917 782.145,1995.45 782.226,1995.354 782.322,1995.209 
	782.355,1995.161 782.371,1995.145 782.499,1994.984 782.499,1994.968 782.596,1994.887 782.773,1995.032 782.918,1995.161 "/>
<polygon fill="#EE3B24" points="784.816,1994.71 784.864,1995.08 784.88,1995.257 784.896,1995.627 784.928,1996.174 
	784.703,1996.737 784.623,1996.689 784.317,1996.496 784.22,1996.432 783.947,1996.223 784.14,1995.949 784.156,1995.064 
	784.156,1994.694 784.156,1994.63 784.735,1994.614 784.783,1994.614 784.783,1994.662 784.799,1994.678 "/>
<polygon fill="#EE3B24" points="727.242,2143.994 727.291,2143.914 727.948,2142.775 728.189,2142.39 728.253,2142.438 
	728.349,2142.486 729.824,2143.385 728.83,2145.02 728.686,2144.876 728.317,2144.603 727.419,2144.106 "/>
<polygon fill="#EE3B24" points="1161.291,1352.294 1160.587,1354.487 1161.435,1354.76 1161.339,1355.096 1160.683,1357.161 
	1158.762,1356.505 1156.489,1355.72 1157.129,1353.703 1157.241,1353.351 1158.122,1353.639 1158.874,1351.478 "/>
<polygon fill="#EE3B24" points="1201.903,1352.374 1203.023,1353.543 1202.559,1354.071 1202.271,1353.815 1201.374,1352.967 
	1199.373,1351.078 1199.341,1351.062 1199.325,1351.046 1199.309,1351.014 1199.309,1350.998 1199.902,1350.357 "/>
<polygon fill="#EE3B24" points="1144.483,1352.342 1144.067,1352.246 1143.731,1352.166 1143.635,1352.15 1143.011,1351.99 
	1143.011,1351.974 1141.586,1351.654 1141.106,1351.542 1141.106,1351.526 1140.369,1351.334 1139.729,1351.19 1139.953,1350.213 
	1137.648,1349.685 1137.408,1350.614 1136.64,1350.437 1136.976,1348.917 1137.328,1349.013 1137.584,1349.077 1138.192,1349.221 
	1139.009,1349.429 1139.761,1349.605 1140.513,1349.797 1141.218,1349.973 1141.746,1350.117 1142.37,1350.277 1143.011,1350.437 
	1143.507,1350.565 1143.907,1350.661 1143.971,1350.677 1144.275,1350.758 1144.771,1350.87 1144.724,1351.174 "/>
<polygon fill="#EE3B24" points="1166.574,1350.245 1164.685,1349.717 1164.781,1349.173 1164.877,1348.661 1164.941,1348.372 
	1164.957,1348.324 1165.229,1348.42 1166.91,1349.013 1166.942,1349.061 1166.942,1349.109 1166.942,1349.173 "/>
<polygon fill="#EE3B24" points="1186.167,1347.7 1185.383,1348.516 1184.983,1348.356 1185.271,1347.524 "/>
<polygon fill="#EE3B24" points="1165.917,1342.625 1165.822,1343.714 1165.773,1344.354 1166.99,1344.498 1168.111,1344.626 
	1167.31,1348.212 1167.262,1348.356 1167.246,1348.404 1167.198,1348.452 1167.166,1348.468 1167.102,1348.484 1167.038,1348.484 
	1166.974,1348.484 1165.966,1348.148 1163.885,1347.412 1164.013,1346.307 1162.716,1343.746 1165.982,1342.033 "/>
<polygon fill="#EE3B24" points="1159.819,1323.047 1159.819,1323.192 1159.787,1324.232 1159.594,1326.105 1158.522,1325.929 
	1158.682,1324.776 1158.858,1323.016 "/>
<polygon fill="#EE3B24" points="828.235,656.354 827.641,657.22 826.887,656.675 824.642,655.071 824.545,655.023 824.369,654.975 
	824.241,654.959 824.16,654.959 824,654.975 823.952,654.975 824.882,653.772 824.882,653.788 "/>
<polygon fill="#EE3B24" points="891.912,442.489 890.597,443.13 890.324,442.489 891.575,441.863 "/>
<polygon fill="#EE3B24" points="906.952,431.697 907,432.258 905.573,432.387 905.669,432.034 905.813,431.729 906.102,431.649 
	906.407,431.633 "/>
<polygon fill="#EE3B24" points="906.952,431.713 907,432.275 905.573,432.403 905.669,432.05 905.813,431.745 906.102,431.665 
	906.407,431.633 "/>
<polygon fill="#EE3B24" points="877.85,507.445 877.112,507.349 877.096,507.349 876.231,507.365 876.166,507.22 876.038,506.964 
	875.926,506.771 878.219,505.457 878.331,505.633 879.085,506.803 877.994,507.365 "/>
<polygon fill="#EE3B24" points="909.293,499.668 909.309,499.668 909.421,499.684 909.565,499.7 909.63,499.7 909.822,499.7 
	910.078,499.7 910.271,499.684 910.88,499.636 911.169,499.62 912.099,499.54 912.211,499.524 913.013,499.395 913.045,499.395 
	913.269,499.363 912.868,502.683 913.077,502.731 914.969,503.067 915.225,503.115 915.209,503.18 915.097,503.693 915.017,504.334 
	915.001,504.879 911.938,504.398 912.147,503.115 910.159,502.779 907.914,503.051 904.306,503.484 904.274,503.484 
	904.162,503.003 904.146,502.987 904.146,502.955 904.066,502.554 904.05,502.458 903.777,500.855 903.713,500.229 903.697,500.101 
	903.665,499.524 903.633,499.011 903.649,498.802 903.937,498.786 904.867,498.706 905.99,498.61 906.503,498.626 906.599,498.626 
	906.695,498.786 906.984,499.107 907.096,499.171 907.449,499.363 907.497,499.395 907.545,499.427 908.01,499.604 908.267,499.716 
	908.507,499.7 "/>
<polygon fill="#EE3B24" points="899.785,496.285 899.704,496.814 900.378,496.91 900.891,496.99 900.971,496.541 901.26,496.621 
	901.5,496.734 901.629,496.894 901.725,497.054 901.869,497.455 902.109,498.273 902.366,499.347 902.607,500.245 902.639,500.374 
	902.831,501.159 902.991,501.753 903.056,502.025 903.328,503.596 903.505,504.174 903.681,504.719 904.338,506.579 
	904.354,506.595 904.37,506.627 904.755,507.397 904.627,507.477 903.889,507.765 904.819,509.898 904.627,509.914 904.563,511.085 
	903.328,510.956 903.456,509.754 901.196,509 900.282,508.439 899.336,507.862 898.887,507.397 898.261,506.787 898.197,506.723 
	899.416,506.194 899.849,505.489 900.458,504.991 901.148,504.19 901.099,503.965 900.201,504.013 900.666,501.688 899.865,499.941 
	899.801,499.796 895.824,499.171 895.712,497.054 895.6,495.258 895.664,495.258 895.984,495.355 896.498,495.467 897.925,495.788 
	899.175,496.124 "/>
<polygon fill="#EE3B24" points="867.54,495.547 865.872,494.906 865.937,494.745 866.145,494.184 866.289,493.799 868.117,492.773 
	868.085,494.104 867.572,495.467 "/>
<polygon fill="#EE3B24" points="869.785,465.386 869.641,466.364 870.298,466.444 871.148,466.524 871.003,467.487 870.907,468.112 
	870.859,468.449 870.089,468.673 869.496,468.609 869.32,468.096 868.246,467.919 868.278,467.727 868.582,465.787 867.957,465.675 
	867.813,465.643 867.877,465.161 868.037,465.178 869.256,465.274 "/>
<polygon fill="#EE3B24" points="868.037,460.976 867.219,461.073 867.107,460.88 867.171,460.816 867.396,460.656 868.037,460.624 
	868.069,460.976 "/>
<polygon fill="#EE3B24" points="891.912,442.489 890.597,443.146 890.324,442.505 891.575,441.863 "/>
<polygon fill="#EE3B24" points="855.729,657.126 852.986,657.158 852.922,657.158 852.841,654.495 852.905,654.495 854.83,654.511 
	855.584,654.495 "/>
<polygon fill="#EE3B24" points="890.892,652.425 889.705,654.655 889.625,654.8 889.127,654.527 889.047,654.655 888.967,654.816 
	888.406,655.794 888.197,655.409 888.165,655.361 888.085,655.201 887.94,654.848 887.764,654.495 887.764,654.479 887.684,654.254 
	887.668,654.126 887.411,652.955 887.299,652.361 887.251,652.024 887.219,651.688 887.202,651.688 887.202,651.591 
	887.427,651.319 888.005,651.335 888.502,651.399 888.726,651.463 888.951,651.543 889.192,651.639 889.416,651.736 
	889.657,651.832 889.881,651.928 890.844,652.393 "/>
<polygon fill="#EE3B24" points="870.76,649.474 872.011,649.506 872.011,651.768 870.648,651.752 870.696,649.474 "/>
<polygon fill="#EE3B24" points="858.408,648.992 858.376,649.65 858.215,649.714 857.413,650.035 856.755,650.115 856.21,650.18 
	856.226,650.067 856.258,648.976 "/>
<polygon fill="#EE3B24" points="890.315,645.944 892.576,646.217 893.346,646.362 893.218,647.196 893.074,647.244 893.01,647.276 
	892.881,647.34 892.673,647.452 892.592,647.5 892.432,647.821 892.416,647.853 891.951,647.757 891.79,647.725 891.598,648.383 
	891.518,648.656 891.421,648.992 891.213,649.329 891.068,649.442 889.641,649.377 889.496,649.377 889.641,647.549 
	889.673,647.003 889.769,645.88 "/>
<polygon fill="#EE3B24" points="869.108,642.672 869.108,642.961 869.091,645.19 868.931,645.142 867.664,644.549 866.894,644.388 
	866.557,644.372 866.124,644.099 865.979,643.971 865.963,642.592 "/>
<polygon fill="#EE3B24" points="875.685,637.923 874.241,637.955 874.129,636.175 875.043,636.143 875.011,635.324 875.54,635.308 
	"/>
<polygon fill="#EE3B24" points="869.172,627.528 867.407,627.608 867.247,625.619 867.199,625.057 867.824,624.993 868.289,624.945 
	868.931,624.913 "/>
<polygon fill="#EE3B24" points="855.215,615.336 855.167,613.844 855.584,613.86 855.536,612.208 856.162,612.176 856.178,613.25 
	856.194,613.956 856.21,615.159 856.05,615.24 "/>
<polygon fill="#EE3B24" points="890.651,605.358 890.555,607.074 890.539,607.331 890.234,607.315 890.218,607.411 889.897,607.363 
	888.823,607.187 888.71,607.17 888.71,607.138 888.63,606.753 888.374,605.294 888.823,605.261 889.352,605.245 "/>
<polygon fill="#EE3B24" points="760.934,1227.317 760.726,1228.662 760.71,1228.758 759.605,1228.614 759.573,1228.214 
	759.653,1227.717 759.845,1227.413 760.101,1227.333 760.518,1227.285 760.726,1227.269 "/>
<polygon fill="#EE3B24" points="789.396,1224.322 788.611,1224.29 788.563,1225.299 789.348,1225.315 789.348,1225.619 
	789.284,1227.589 789.22,1227.701 789.14,1227.781 789.011,1227.861 788.883,1227.878 788.115,1227.813 788.002,1227.797 
	787.042,1227.749 786.032,1227.205 784.975,1226.516 784.863,1226.372 784.447,1226.052 784.11,1225.635 783.662,1224.914 
	783.518,1224.37 783.358,1223.377 783.406,1222.464 783.422,1221.999 783.486,1221.919 783.566,1221.823 783.678,1221.759 
	784.719,1221.743 784.863,1221.711 788.371,1221.839 789.156,1221.839 789.268,1221.903 789.348,1221.951 789.396,1222.111 
	789.38,1222.736 789.38,1223.633 789.412,1223.857 "/>
<polygon fill="#EE3B24" points="759.909,1221.663 757.875,1221.951 757.875,1221.935 757.859,1221.919 757.795,1221.278 
	757.683,1220.061 759.701,1219.741 "/>
<polygon fill="#EE3B24" points="757.571,1218.636 757.571,1218.604 757.491,1217.755 757.491,1217.691 757.474,1217.514 
	758.115,1217.498 758.195,1218.62 "/>
<polygon fill="#EE3B24" points="755.344,1189.212 755.312,1189.196 755.168,1189.148 755.008,1189.116 754.752,1189.084 
	754.479,1189.052 754.223,1189.036 753.951,1189.02 753.679,1189.004 753.39,1189.004 753.342,1189.036 753.358,1188.315 
	754.175,1188.315 755.312,1188.299 "/>
<polygon fill="#EE3B24" points="790.485,1192.752 790.357,1192.768 790.181,1192.656 788.835,1191.855 788.595,1191.71 
	788.547,1191.582 788.547,1191.566 788.563,1191.374 788.595,1191.166 788.595,1191.15 788.595,1190.814 788.547,1190.621 
	788.403,1190.317 788.259,1190.125 788.323,1189.756 788.819,1188.923 789.188,1188.347 789.268,1188.267 789.332,1188.251 
	789.38,1188.251 789.476,1188.251 789.588,1188.299 790.165,1188.875 790.341,1189.084 790.469,1189.228 790.613,1189.532 
	790.693,1189.708 790.837,1190.141 790.934,1190.605 790.982,1190.91 790.982,1191.102 790.885,1191.823 790.757,1192.479 
	790.661,1192.672 "/>
<polygon fill="#EE3B24" points="779.834,1190.397 778.505,1192.543 777.544,1191.999 775.686,1190.942 775.702,1189.436 
	775.702,1189.292 775.702,1188.843 775.718,1188.235 777.239,1188.923 778.857,1189.853 "/>
<polygon fill="#EE3B24" points="787.698,1189.58 787.586,1189.628 787.426,1189.628 787.234,1189.612 786.929,1189.676 
	786.657,1189.804 786.353,1190.045 786.225,1190.157 786.064,1190.317 785.936,1190.269 784.287,1189.324 784.239,1189.196 
	784.255,1189.132 784.527,1188.619 784.735,1188.395 785.103,1188.043 785.376,1187.834 785.728,1187.706 786.016,1187.626 
	786.673,1187.498 787.314,1187.45 787.81,1187.482 788.147,1187.546 788.307,1187.594 788.595,1187.754 788.627,1187.963 
	788.611,1188.123 788.163,1188.875 787.778,1189.484 "/>
<polygon fill="#EE3B24" points="772.002,1188.555 772.034,1188.491 772.979,1186.713 773.443,1186.985 774.5,1187.562 
	774.58,1187.61 774.516,1189.164 774.5,1189.212 774.308,1189.42 774.116,1189.452 773.7,1189.42 772.803,1188.972 "/>
<polygon fill="#EE3B24" points="768.606,1189.901 766.092,1187.562 765.547,1187.065 765.227,1186.665 765.803,1186.649 
	765.979,1186.585 766.124,1186.489 766.268,1186.313 766.508,1185.912 766.892,1186.168 767.501,1186.585 768.398,1187.178 
	768.414,1187.178 769.952,1188.026 769.839,1188.379 769.759,1188.555 769.055,1189.372 "/>
<polygon fill="#EE3B24" points="765.771,1186.361 765.643,1185.832 765.515,1185.592 765.467,1185.528 765.467,1185.512 
	764.634,1184.311 765.002,1184.102 765.05,1184.198 765.05,1184.214 765.066,1184.23 765.675,1185.079 765.691,1185.095 
	765.707,1185.111 765.739,1185.143 765.787,1185.192 766.3,1185.72 766.3,1185.736 766.027,1186.152 765.979,1186.233 
	765.915,1186.281 765.851,1186.329 "/>
<polygon fill="#EE3B24" points="788.595,1187.017 788.499,1187.065 788.211,1187.114 787.394,1187.017 786.785,1187.033 
	786.513,1187.082 786.369,1187.098 785.968,1187.178 785.856,1187.082 785.92,1186.024 786.096,1184.022 786.144,1183.51 
	786.161,1183.43 786.209,1183.333 786.305,1183.269 787.394,1183.205 787.586,1183.189 789.3,1183.398 789.316,1183.398 
	789.732,1183.51 789.812,1183.59 789.86,1183.67 789.876,1183.83 788.659,1186.953 "/>
<polygon fill="#EE3B24" points="754.431,1184.695 754.367,1182.901 754.576,1182.885 756.081,1182.741 756.257,1184.134 
	756.257,1184.23 756.241,1184.279 756.209,1184.327 "/>
<polygon fill="#EE3B24" points="783.925,1221.832 784.678,1221.816 784.822,1221.784 788.33,1221.912 789.115,1221.912 
	789.227,1221.976 789.307,1222.025 789.371,1222.185 789.355,1222.809 789.339,1223.706 789.371,1223.931 789.355,1224.395 
	788.586,1224.363 788.522,1225.372 789.323,1225.388 789.307,1225.693 789.243,1227.663 789.195,1227.775 789.099,1227.855 
	788.971,1227.935 788.859,1227.951 788.074,1227.887 787.962,1227.871 787.001,1227.823 785.992,1227.278 784.934,1226.589 
	784.822,1226.445 784.422,1226.125 784.07,1225.708 783.925,1225.468 "/>
<polygon fill="#EE3B24" points="790.46,1192.825 790.316,1192.841 790.156,1192.729 788.794,1191.928 788.554,1191.784 
	788.506,1191.656 788.506,1191.64 788.522,1191.448 788.554,1191.239 788.57,1191.223 788.554,1190.887 788.506,1190.695 
	788.362,1190.39 788.218,1190.198 788.298,1189.83 788.778,1188.997 789.147,1188.42 789.227,1188.34 789.291,1188.324 
	789.339,1188.324 789.435,1188.324 789.547,1188.372 790.124,1188.949 790.316,1189.157 790.428,1189.301 790.588,1189.606 
	790.668,1189.782 790.813,1190.214 790.909,1190.679 790.941,1190.983 790.957,1191.175 790.845,1191.896 790.732,1192.553 
	790.636,1192.745 "/>
<polygon fill="#EE3B24" points="788.57,1187.091 788.458,1187.139 788.186,1187.187 787.369,1187.091 786.76,1187.107 
	786.472,1187.155 786.328,1187.171 785.927,1187.251 785.815,1187.155 785.895,1186.098 786.056,1184.096 786.104,1183.583 
	786.12,1183.503 786.168,1183.407 786.264,1183.343 787.369,1183.279 787.545,1183.263 789.259,1183.471 789.291,1183.471 
	789.707,1183.583 789.772,1183.663 789.82,1183.743 789.836,1183.903 788.618,1187.027 "/>
<polygon fill="#EE3B24" points="865.784,1474.991 865.8,1474.783 866.072,1470.295 866.167,1470.311 866.295,1470.295 
	867.285,1470.311 867.477,1470.327 867.908,1470.327 867.908,1470.343 867.924,1470.343 867.94,1470.359 867.956,1470.359 
	867.972,1470.375 867.972,1470.391 867.988,1470.407 867.988,1470.423 868.004,1470.423 868.004,1470.439 867.988,1470.79 
	867.988,1471.141 867.988,1471.205 867.956,1472.675 867.94,1472.978 867.94,1473.218 867.94,1473.234 867.94,1473.25 
	867.94,1473.266 867.924,1473.282 867.924,1473.298 867.892,1473.314 867.014,1474.017 865.96,1474.863 "/>
<polygon fill="#EE3B24" points="842.816,1470.79 842.496,1470.822 842.48,1470.822 842.448,1470.806 842.416,1470.806 
	842.4,1470.79 842.368,1470.774 842.353,1470.758 842.321,1470.742 842.305,1470.71 842.289,1470.694 842.273,1470.662 
	842.257,1470.646 841.985,1469.257 841.953,1469.097 841.937,1469.065 841.778,1468.282 841.634,1467.531 841.57,1467.212 
	841.506,1466.941 845.212,1466.653 849.109,1466.349 849.093,1467.004 849.077,1467.468 849.029,1469.209 849.013,1470.071 
	849.013,1470.103 848.997,1470.135 848.981,1470.151 848.981,1470.167 848.965,1470.183 848.949,1470.199 848.933,1470.215 
	848.917,1470.231 848.901,1470.231 848.885,1470.247 848.869,1470.247 847.687,1470.359 847.128,1470.407 845.755,1470.534 
	845.563,1470.55 843.63,1470.726 843.279,1470.758 "/>
<polygon fill="#EE3B24" points="837.561,1458.858 837.241,1459.242 836.89,1459.689 836.842,1459.657 836.762,1459.593 
	836.491,1459.369 837.161,1458.555 837.497,1458.81 "/>
<polygon fill="#EE3B24" points="860.465,1457.421 860.481,1457.836 860.481,1458.107 860.529,1459.481 860.529,1459.497 
	860.545,1459.513 860.561,1459.529 860.577,1459.545 860.593,1459.561 860.609,1459.577 860.625,1459.593 860.641,1459.609 
	860.657,1459.625 860.673,1459.641 860.689,1459.657 860.705,1459.657 860.721,1459.673 860.737,1459.689 860.753,1459.689 
	860.769,1459.705 860.785,1459.721 860.801,1459.721 860.817,1459.737 860.833,1459.737 860.849,1459.737 861.088,1459.737 
	861.36,1459.737 861.599,1459.737 865.257,1459.737 865.864,1459.737 865.912,1459.737 865.992,1459.705 866.119,1459.641 
	866.199,1459.577 866.295,1459.513 866.519,1459.29 866.551,1459.242 866.567,1459.21 866.647,1459.114 866.678,1459.082 
	866.774,1458.97 866.79,1458.954 866.886,1458.858 866.918,1458.826 867.014,1458.746 867.046,1458.73 867.158,1458.635 
	867.19,1458.619 867.301,1458.539 867.333,1458.523 867.445,1458.459 867.477,1458.443 867.605,1458.379 867.637,1458.379 
	867.765,1458.315 867.797,1458.315 867.813,1458.299 867.924,1458.267 867.956,1458.267 868.1,1458.235 868.132,1458.219 
	868.26,1458.203 868.292,1458.187 868.388,1458.187 868.419,1458.155 868.483,1458.076 868.515,1457.996 868.563,1457.9 
	868.643,1457.612 868.675,1456.047 868.659,1455.935 868.643,1455.903 868.627,1455.871 868.611,1455.855 868.579,1455.823 
	868.563,1455.807 868.515,1455.775 867.557,1455.791 867.174,1455.791 865.8,1455.791 865.816,1457.612 865.64,1457.708 
	864.618,1458.219 863.644,1458.283 863.596,1455.791 863.532,1455.791 862.19,1455.791 862.174,1457.405 861.184,1457.421 
	860.881,1457.421 "/>
</svg>
