<?xml version="1.0" encoding="utf-8"?>
<!-- Generator: Adobe Illustrator 17.0.0, SVG Export Plug-In . SVG Version: 6.00 Build 0)  -->
<!DOCTYPE svg PUBLIC "-//W3C//DTD SVG 1.1//EN" "http://www.w3.org/Graphics/SVG/1.1/DTD/svg11.dtd">
<svg version="1.1" id="Layer_3" xmlns="http://www.w3.org/2000/svg" xmlns:xlink="http://www.w3.org/1999/xlink" x="0px" y="0px"
	 width="1840px" height="2400px" viewBox="0 0 1840 2400" enable-background="new 0 0 1840 2400" xml:space="preserve">
<circle opacity="0.7" fill="#EC1C24" cx="856.693" cy="1607.298" r="21.882"/>
<circle opacity="0.7" fill="#EC1C24" cx="703.698" cy="1917.375" r="8.807"/>
<circle opacity="0.7" fill="#EC1C24" cx="699.33" cy="1771.407" r="7.463"/>
<circle opacity="0.7" fill="#EC1C24" cx="794.557" cy="2102.497" r="9.294"/>
<circle opacity="0.7" fill="#EC1C24" cx="1116.385" cy="1453.005" r="22.775"/>
<circle opacity="0.7" fill="#EC1C24" cx="814.354" cy="1305.287" r="16.787"/>
<circle opacity="0.7" fill="#EC1C24" cx="884.598" cy="1113.889" r="12.745"/>
<circle opacity="0.7" fill="#EC1C24" cx="916.01" cy="1062.441" r="13.114"/>
<circle opacity="0.7" fill="#EC1C24" cx="1242.079" cy="1040.132" r="14.39"/>
<circle opacity="0.7" fill="#EC1C24" cx="1288.007" cy="920.8" r="17.133"/>
<circle opacity="0.7" fill="#EC1C24" cx="1044.338" cy="935.101" r="21.308"/>
<circle opacity="0.7" fill="#EC1C24" cx="734.348" cy="804.882" r="29.646"/>
<circle opacity="0.7" fill="#EC1C24" cx="919.61" cy="669.593" r="22.493"/>
<circle opacity="0.7" fill="#EC1C24" cx="790.532" cy="687.593" r="20.924"/>
<circle opacity="0.7" fill="#EC1C24" cx="775.602" cy="568.478" r="27.478"/>
<circle opacity="0.7" fill="#EC1C24" cx="962.815" cy="464.118" r="23.971"/>
<circle opacity="0.7" fill="#EC1C24" cx="879.229" cy="449.688" r="14.431"/>
<circle opacity="0.7" fill="#EC1C24" cx="916.946" cy="532.078" r="15.061"/>
<circle opacity="0.7" fill="#EC1C24" cx="979.339" cy="1410.083" r="22.468"/>
<circle opacity="0.7" fill="#EC1C24" cx="669.559" cy="1985.189" r="13.127"/>
<circle opacity="0.7" fill="#EC1C24" cx="779.315" cy="1458.88" r="19.109"/>
<circle opacity="0.7" fill="#EC1C24" cx="1217.432" cy="1547.043" r="21.983"/>
<circle opacity="0.7" fill="#EC1C24" cx="1426.437" cy="920.819" r="27.181"/>
<circle opacity="0.7" fill="#EC1C24" cx="763.282" cy="1122.142" r="21.006"/>
<circle opacity="0.7" fill="#EC1C24" cx="618.453" cy="990.518" r="22.95"/>
<circle opacity="0.7" fill="#EC1C24" cx="1121.369" cy="1276.691" r="27.004"/>
</svg>
