<?xml version="1.0" encoding="utf-8"?>
<!-- Generator: Adobe Illustrator 17.0.0, SVG Export Plug-In . SVG Version: 6.00 Build 0)  -->
<!DOCTYPE svg PUBLIC "-//W3C//DTD SVG 1.1//EN" "http://www.w3.org/Graphics/SVG/1.1/DTD/svg11.dtd">
<svg version="1.1" id="Layer_2" xmlns="http://www.w3.org/2000/svg" xmlns:xlink="http://www.w3.org/1999/xlink" x="0px" y="0px"
	 width="1840px" height="2400px" viewBox="0 0 1840 2400" enable-background="new 0 0 1840 2400" xml:space="preserve">
<polygon fill="#D6866E" points="894.592,1622.78 893.243,1622.874 892.004,1622.968 892.004,1622.466 891.988,1622.137 
	891.988,1622.027 892.396,1622.012 892.38,1621.666 892.568,1621.651 893.572,1621.588 893.541,1621.055 894.294,1621.039 
	894.341,1621.321 894.56,1622.576 894.56,1622.592 "/>
<polygon fill="#D6866E" points="912.616,1608.223 912.521,1608.191 912.098,1608.003 912.223,1607.721 912.239,1607.674 
	912.741,1607.878 "/>
<polygon fill="#D6866E" points="950.232,1584.504 951.236,1585.131 951.141,1585.257 950.89,1585.618 950.2,1585.147 
	949.886,1584.928 949.635,1584.786 949.683,1584.63 949.698,1584.426 949.651,1584.19 "/>
<polygon fill="#D6866E" points="954.075,1604.96 952.914,1604.866 952.757,1604.427 952.945,1603.579 954.043,1603.987 "/>
<polygon fill="#D6866E" points="906.545,1589.696 905.823,1589.367 905.933,1589.163 906.561,1589.461 906.655,1589.492 "/>
<polygon fill="#D6866E" points="912.741,1620.474 911.266,1621.792 910.812,1621.227 911.455,1620.647 911.721,1620.851 
	912.035,1620.553 911.784,1620.349 912.255,1619.925 912.725,1620.458 "/>
<polygon fill="#D6866E" points="912.035,1619.58 911.706,1619.878 911.674,1619.91 911.455,1619.674 911.737,1619.36 
	911.768,1619.376 911.847,1619.376 "/>
<polygon fill="#D6866E" points="909.463,1627.565 909.463,1627.549 909.463,1627.533 909.478,1627.533 909.525,1627.392 
	909.557,1627.235 909.572,1627.078 909.557,1626.937 909.51,1626.78 909.447,1626.655 909.353,1626.529 909.243,1626.42 
	909.117,1626.325 908.976,1626.263 908.819,1626.231 908.678,1626.216 908.584,1626.216 908.49,1626.231 909.447,1627.565 "/>
<polygon fill="#D6866E" points="950.075,1568.441 949.792,1568.754 949.667,1568.911 949.604,1568.974 947.8,1567.531 
	947.69,1567.437 947.769,1567.358 948.083,1566.997 948.224,1566.84 948.333,1566.935 948.333,1566.95 "/>
<polygon fill="#D6866E" points="950.24,1584.5 951.244,1585.127 951.15,1585.252 950.883,1585.613 950.193,1585.143 
	949.879,1584.923 949.644,1584.782 949.675,1584.625 949.691,1584.421 949.644,1584.186 "/>
<polygon fill="#D6866E" points="954.067,1604.955 952.922,1604.861 952.75,1604.422 952.954,1603.575 954.036,1603.983 "/>
<polygon fill="#D6866E" points="950.067,1568.436 949.785,1568.75 949.659,1568.907 949.597,1568.969 947.808,1567.526 
	947.699,1567.432 947.761,1567.354 948.075,1566.993 948.216,1566.836 948.326,1566.93 948.342,1566.946 "/>
<polygon fill="#D6866E" points="816.973,1747.187 816.765,1747.203 816.46,1747.091 814.969,1746.017 815.29,1745.648 
	815.723,1745.119 816.252,1744.477 816.973,1743.579 "/>
<polygon fill="#D6866E" points="810.399,1777.815 810.335,1778.136 809.71,1777.975 809.774,1777.655 "/>
<polygon fill="#D6866E" points="823.111,1736.184 822.79,1736.937 822.357,1736.761 822.502,1736.44 822.678,1736.023 "/>
<polygon fill="#D6866E" points="818.99,1744.378 819.182,1744.506 819.455,1744.682 819.535,1744.731 819.567,1744.763 
	819.006,1745.5 818.076,1746.623 817.82,1746.943 817.675,1747.104 817.659,1747.104 817.499,1747.136 817.114,1747.184 
	816.777,1747.2 816.457,1747.088 814.965,1746.013 815.286,1745.645 815.719,1745.115 816.248,1744.474 817.146,1743.352 
	817.162,1743.352 817.258,1743.223 817.435,1743.335 817.451,1743.368 818.204,1743.849 818.974,1744.33 "/>
<polygon fill="#D6866E" points="879.698,1772.536 880.067,1772.6 880.676,1772.616 880.66,1773.979 879.361,1774.011 
	879.345,1774.011 879.409,1773.771 879.474,1773.514 879.554,1773.498 879.618,1773.45 879.714,1773.37 879.778,1773.257 
	879.794,1773.129 879.794,1773.113 879.778,1773.033 879.746,1772.921 879.666,1772.841 879.634,1772.808 879.682,1772.632 
	879.698,1772.536 "/>
<polygon fill="#D6866E" points="810.411,1777.812 810.331,1778.132 809.722,1777.972 809.786,1777.651 "/>
<polygon fill="#D6866E" points="840.105,1655.835 839.159,1657.921 838.934,1657.809 838.003,1657.343 837.378,1657.038 
	837.33,1657.006 837.121,1656.91 836.688,1656.686 835.083,1655.883 835.613,1654.52 835.677,1654.552 835.757,1654.327 
	835.693,1654.311 835.87,1653.83 837.955,1654.808 838.132,1654.905 "/>
<polygon fill="#D6866E" points="831.699,1641.156 830.913,1641.461 830.833,1641.252 831.619,1640.947 831.683,1641.124 "/>
<polygon fill="#D6866E" points="837.748,1632.989 837.331,1634.594 837.266,1634.866 835.582,1634.417 834.25,1634.048 
	834.202,1633.775 834.314,1633.807 834.779,1632.203 "/>
<polygon fill="#D6866E" points="840.106,1655.837 839.159,1657.923 838.935,1657.81 838.004,1657.361 837.379,1657.04 
	837.331,1657.008 837.122,1656.912 836.689,1656.687 835.084,1655.901 835.614,1654.537 835.678,1654.553 835.758,1654.345 
	835.694,1654.312 835.87,1653.847 837.956,1654.826 838.133,1654.906 "/>
<polygon fill="#D6866E" points="819.008,1538.742 819.281,1537.876 819.65,1538.004 819.377,1538.855 "/>
<polygon fill="#D6866E" points="686.675,1876.045 686.225,1875.643 686.338,1875.515 686.386,1875.45 686.482,1875.515 
	686.868,1875.804 "/>
<polygon fill="#D6866E" points="777.23,1812.368 776.411,1812.449 776.186,1812.481 776.186,1812.304 776.17,1811.999 
	776.137,1811.195 776.507,1811.179 777.021,1811.147 777.182,1811.131 "/>
<polygon fill="#D6866E" points="725.783,1825.303 725.59,1825.383 725.076,1824.355 725.285,1824.259 "/>
<polygon fill="#D6866E" points="781.391,1836.647 781.391,1836.679 781.391,1837.29 781.391,1837.402 781.391,1837.45 
	781.231,1837.45 781.183,1837.45 781.006,1837.45 780.797,1837.45 780.652,1837.466 780.508,1837.482 780.411,1837.498 
	780.267,1837.531 780.122,1837.563 779.994,1837.595 779.769,1837.675 779.656,1837.707 779.544,1837.755 779.447,1837.804 
	779.351,1837.836 779.303,1837.868 779.238,1837.884 779.174,1837.932 779.013,1838.029 778.789,1838.189 778.515,1838.446 
	778.339,1838.607 778.033,1838.977 777.841,1839.314 777.712,1839.587 777.632,1839.764 777.535,1840.069 777.535,1838.944 
	777.262,1838.944 777.069,1838.977 777.053,1838.655 777.053,1838.43 777.037,1838.221 777.005,1837.209 777.005,1837.193 
	777.005,1836.856 777.214,1836.84 777.744,1836.807 778.13,1836.791 779.351,1836.727 779.721,1836.759 780.154,1836.711 
	780.62,1836.695 780.636,1836.695 781.391,1836.647 "/>
<polygon fill="#D6866E" points="712.672,1798.309 710.246,1799.611 710.037,1799.723 712.64,1798.277 "/>
<polygon fill="#D6866E" points="711.017,1794.871 711.194,1795.256 711.901,1796.734 712.013,1796.975 712.286,1797.538 
	712.415,1797.779 712.479,1797.94 708.639,1800.061 708.607,1800.012 708.527,1799.836 708.045,1798.759 706.615,1795.546 
	706.566,1795.449 706.647,1795.272 706.727,1795.224 706.743,1795.24 706.759,1795.24 706.775,1795.224 706.791,1795.224 
	706.807,1795.224 706.823,1795.208 706.823,1795.192 706.84,1795.192 708.527,1794.517 709.539,1794.115 710.471,1793.746 
	710.487,1793.794 "/>
<polygon fill="#D6866E" points="712.497,1798.328 710.087,1799.63 709.862,1799.742 712.481,1798.296 "/>
<polygon fill="#D6866E" points="710.842,1794.89 711.019,1795.26 711.742,1796.738 711.854,1796.979 712.127,1797.557 
	712.24,1797.798 712.32,1797.959 708.464,1800.08 708.432,1800.032 708.352,1799.855 707.87,1798.778 706.44,1795.565 
	706.391,1795.452 706.472,1795.276 706.552,1795.243 706.568,1795.243 706.584,1795.243 706.6,1795.243 706.616,1795.243 
	706.632,1795.227 706.648,1795.211 706.648,1795.195 708.352,1794.536 709.364,1794.135 710.296,1793.749 710.328,1793.797 "/>
<polygon fill="#D6866E" points="709.99,1757.147 709.862,1757.388 709.846,1757.42 709.733,1757.613 709.669,1757.661 
	709.589,1757.725 709.492,1757.741 709.364,1757.709 709.091,1757.581 709.075,1757.629 708.721,1757.436 708.576,1757.34 
	707.853,1756.938 707.468,1756.713 707.388,1756.633 707.323,1756.504 707.339,1756.408 707.355,1756.311 707.436,1756.167 
	707.452,1756.135 707.629,1755.829 709.203,1756.713 "/>
<polygon fill="#D6866E" points="778.774,1738.106 778.71,1738.251 778.035,1739.585 777.473,1739.376 777.2,1739.231 
	777.521,1738.556 777.569,1738.444 777.521,1738.315 777.424,1738.267 777.698,1737.769 777.794,1737.576 "/>
<polygon fill="#D6866E" points="779.835,1736.773 779.819,1736.805 779.594,1737.255 779.433,1737.175 779.015,1736.95 
	778.485,1736.677 778.356,1736.612 778.581,1736.146 "/>
<polygon fill="#D6866E" points="771.865,1731.422 772.219,1731.471 772.219,1731.712 772.251,1732.82 772.556,1732.82 
	772.556,1732.852 772.572,1733.64 772.572,1733.768 772.572,1734.154 772.572,1734.347 772.235,1734.347 771.239,1734.331 
	771.223,1731.712 771.223,1731.503 771.223,1731.342 "/>
<polygon fill="#D6866E" points="711.228,1689.18 711.195,1689.132 711.067,1689.02 710.971,1688.955 710.762,1688.939 
	710.585,1688.939 710.408,1688.875 710.199,1688.811 709.974,1688.746 709.894,1688.682 709.541,1688.586 709.46,1688.554 
	709.942,1687.589 711.388,1688.023 711.87,1688.232 712.143,1688.505 711.71,1689.341 "/>
<polygon fill="#D6866E" points="691.111,1770.483 691.095,1771.367 690.308,1771.351 689.762,1771.351 689.778,1770.371 
	690.308,1770.371 690.308,1770.354 690.838,1770.339 690.919,1770.371 "/>
<polygon fill="#D6866E" points="735.2,1745.192 735.12,1745.369 734.911,1745.819 734.67,1746.237 734.525,1746.414 
	734.429,1746.542 734.348,1746.655 734.236,1746.831 734.139,1747.153 734.059,1747.458 733.272,1750.238 732.436,1749.997 
	732.581,1749.515 732.886,1748.47 733.368,1746.864 733.481,1746.526 733.481,1746.51 733.545,1746.317 733.609,1746.092 
	733.947,1745.064 734.332,1745.08 734.766,1745.032 "/>
<polygon fill="#D6866E" points="772.673,1919.58 773.072,1919.548 773.36,1919.548 773.36,1919.516 774.111,1919.548 
	775.597,1919.596 775.549,1920.491 775.485,1921.641 775.357,1921.625 775.293,1921.625 775.245,1921.625 775.198,1921.641 
	775.15,1921.673 775.102,1921.721 775.054,1921.785 774.958,1921.897 774.894,1921.977 774.846,1921.929 774.574,1921.945 
	774.415,1922.568 773.999,1923.175 773.983,1923.159 773.584,1923 773.568,1922.984 773.392,1922.92 773.328,1922.888 
	771.57,1922.185 771.426,1922.121 770.899,1921.913 770.659,1921.833 770.627,1921.817 770.627,1921.098 770.611,1921.082 
	770.643,1920.683 770.643,1920.571 770.659,1920.155 771.474,1920.187 771.522,1919.484 "/>
<polygon fill="#D6866E" points="809.122,1858.571 809.074,1858.906 809.026,1859.21 808.946,1859.21 808.451,1859.226 
	808.483,1858.523 809.01,1858.555 "/>
<polygon fill="#D6866E" points="746.419,1912.566 746.068,1912.662 746.02,1912.662 745.988,1912.662 745.956,1912.614 
	745.956,1912.582 745.972,1912.502 746.004,1912.406 746.02,1912.374 746.323,1912.279 "/>
<polygon fill="#D6866E" points="777.004,1873.08 777.259,1873.096 777.275,1873.368 777.099,1873.368 777.004,1873.384 
	777.068,1875.238 777.163,1875.238 777.307,1875.238 777.371,1875.973 777.195,1875.989 777.099,1875.989 777.179,1878.689 
	777.291,1878.705 777.435,1878.705 777.451,1879.92 777.275,1879.888 777.211,1879.872 777.227,1880.383 777.275,1881.949 
	777.275,1881.965 775.901,1881.581 775.885,1881.565 775.869,1881.565 775.677,1881.102 775.406,1880.623 775.342,1880.495 
	775.454,1880.015 775.549,1879.504 775.502,1879.488 775.486,1879.472 775.438,1879.456 775.358,1879.44 775.166,1879.376 
	775.006,1879.328 775.214,1877.235 774.479,1877.139 774.623,1875.909 773.648,1875.717 773.696,1875.381 773.888,1874.087 
	774.031,1873.096 774.031,1873.048 774.047,1872.984 774.079,1872.793 "/>
<polygon fill="#D6866E" points="747.762,1878.865 747.618,1879.025 746.1,1880.83 746.052,1880.878 745.764,1881.246 
	745.54,1881.054 745.844,1880.703 745.86,1880.671 745.94,1880.159 746.164,1878.657 746.595,1878.769 746.675,1878.465 
	746.867,1878.529 746.963,1878.561 746.963,1878.593 747.346,1878.721 747.41,1878.737 747.682,1878.833 "/>
<polygon fill="#D6866E" points="748.944,1910.313 748.896,1910.489 748.513,1910.345 748.561,1910.185 "/>
<polygon fill="#D6866E" points="772.673,1919.565 773.073,1919.533 773.36,1919.549 773.36,1919.517 774.111,1919.533 
	775.597,1919.581 775.549,1920.476 775.486,1921.643 775.358,1921.627 775.294,1921.627 775.246,1921.627 775.198,1921.643 
	775.15,1921.659 775.102,1921.723 775.054,1921.771 774.958,1921.898 774.894,1921.962 774.846,1921.914 774.575,1921.946 
	774.415,1922.569 773.999,1923.161 773.984,1923.161 773.584,1922.985 773.568,1922.985 773.392,1922.905 773.328,1922.873 
	771.571,1922.17 771.427,1922.106 770.9,1921.914 770.66,1921.818 770.628,1921.802 770.628,1921.099 770.612,1921.067 
	770.644,1920.668 770.644,1920.556 770.66,1920.141 771.475,1920.173 771.523,1919.469 "/>
<polygon fill="#D6866E" points="809.137,1858.569 809.073,1858.905 809.041,1859.208 808.961,1859.208 808.45,1859.224 
	808.482,1858.521 809.025,1858.553 "/>
<polygon fill="#D6866E" points="725.307,2023.247 725.018,2022.925 725.098,2022.877 725.532,2022.524 725.565,2022.508 
	725.613,2022.459 725.854,2022.25 725.934,2022.315 726.159,2022.491 726.207,2022.54 726.015,2022.684 725.87,2022.797 
	725.822,2022.845 725.661,2022.974 725.388,2023.199 "/>
<polygon fill="#D6866E" points="704.382,1980.286 704.72,1980.399 704.832,1980.431 704.881,1980.479 704.929,1980.479 
	704.977,1980.495 705.25,1980.592 705.363,1980.624 705.764,1980.768 705.957,1980.833 706.182,1980.897 706.568,1981.042 
	706.954,1981.122 706.729,1982.344 706.6,1982.328 705.813,1982.295 705.797,1982.504 705.363,1982.488 704.19,1982.424 
	703.868,1982.408 703.916,1982.086 703.997,1981.524 704.173,1980.222 "/>
<polygon fill="#D6866E" points="681.063,1969.695 681.93,1969.807 682.043,1969.839 682.879,1969.968 683.023,1970 
	683.505,1970.081 683.57,1971.125 683.923,1971.125 684.084,1972.749 683.28,1972.347 682.782,1972.54 682.155,1972.781 
	681.239,1973.134 680.87,1974.292 680.805,1974.275 680.661,1974.195 680.58,1974.163 680.484,1974.115 680.275,1973.97 
	680.114,1973.874 679.938,1973.761 679.889,1973.729 679.616,1973.568 679.327,1973.391 679.021,1973.199 678.716,1973.022 
	678.829,1972.684 678.893,1972.475 679.182,1971.624 679.295,1971.238 679.391,1970.916 679.455,1970.691 679.504,1970.531 
	679.568,1970.354 679.648,1970.097 679.761,1969.759 679.825,1969.502 "/>
<polygon fill="#D6866E" points="635.843,1993.256 636.068,1993.498 636.245,1993.658 636.342,1993.755 636.776,1993.851 
	636.904,1993.883 636.968,1994.076 637.081,1994.253 637.113,1994.365 637.21,1994.398 637.354,1994.558 637.451,1994.623 
	637.579,1994.992 637.627,1995.169 637.692,1995.298 637.756,1995.507 637.708,1995.924 637.611,1996.391 637.483,1996.921 
	637.434,1997.274 637.37,1997.982 637.338,1998.367 637.274,1998.56 637.21,1998.689 637.049,1998.93 636.711,1999.428 
	636.518,1999.701 636.374,1999.38 636.149,1998.849 636.068,1998.608 635.988,1998.303 635.908,1998.014 635.827,1997.708 
	635.747,1997.274 635.715,1997.066 635.763,1996.423 635.795,1996.005 635.843,1995.49 635.233,1995.266 635.088,1995.217 
	634.51,1995.008 634.204,1994.848 633.818,1994.542 633.465,1994.124 633.176,1993.755 633.063,1993.642 632.87,1993.498 
	632.661,1993.337 632.018,1993.305 631.713,1993.305 631.504,1993.337 631.311,1993.369 631.118,1993.353 630.893,1993.337 
	631.086,1993.256 631.199,1993.16 632.115,1991.231 632.324,1991.038 632.549,1991.247 633.224,1991.681 633.288,1991.971 
	633.497,1992.147 633.851,1992.212 633.899,1992.598 633.931,1992.79 634.108,1992.903 634.204,1992.951 634.365,1993.047 
	634.381,1993.096 634.558,1993.192 634.783,1993.305 634.895,1993.369 635.136,1993.562 635.217,1993.578 635.313,1993.61 
	635.474,1993.321 635.554,1993.144 635.618,1993.08 635.715,1993.08 "/>
<polygon fill="#D6866E" points="681.085,1969.695 681.936,1969.807 682.065,1969.839 682.901,1969.968 683.045,1970 
	683.528,1970.081 683.592,1971.125 683.945,1971.125 684.09,1972.749 683.303,1972.347 682.804,1972.54 682.178,1972.781 
	681.245,1973.134 680.876,1974.292 680.828,1974.275 680.667,1974.195 680.603,1974.163 680.49,1974.115 680.297,1973.97 
	680.136,1973.874 679.96,1973.761 679.895,1973.729 679.638,1973.568 679.333,1973.391 679.028,1973.199 678.738,1973.022 
	678.851,1972.684 678.915,1972.475 679.204,1971.624 679.317,1971.238 679.413,1970.916 679.478,1970.691 679.526,1970.531 
	679.59,1970.354 679.67,1970.097 679.767,1969.759 679.847,1969.502 "/>
<polygon fill="#D6866E" points="638.913,2008.589 638.431,2009.296 638.27,2009.441 637.949,2009.907 637.226,2009.473 
	638.174,2008.059 638.206,2008.075 638.447,2008.252 638.608,2008.364 "/>
<polygon fill="#D6866E" points="721.923,1950.291 721.425,1950.596 721.248,1950.645 721.087,1950.677 720.766,1950.661 
	720.878,1950.484 720.91,1950.436 721.184,1949.921 721.36,1949.6 721.441,1949.696 "/>
<polygon fill="#D6866E" points="681.069,1969.674 681.937,1969.802 682.05,1969.819 682.885,1969.963 683.03,1969.995 
	683.512,1970.076 683.576,1971.12 683.93,1971.104 684.091,1972.728 683.287,1972.342 682.789,1972.519 682.162,1972.76 
	681.246,1973.113 680.876,1974.287 680.812,1974.255 680.667,1974.19 680.587,1974.142 680.491,1974.094 680.282,1973.965 
	680.121,1973.853 679.944,1973.74 679.896,1973.708 679.623,1973.547 679.333,1973.37 679.028,1973.194 678.723,1973.017 
	678.835,1972.679 678.9,1972.47 679.189,1971.603 679.301,1971.217 679.398,1970.895 679.462,1970.67 679.51,1970.526 
	679.575,1970.349 679.655,1970.076 679.767,1969.738 679.832,1969.497 "/>
<polygon fill="#D6866E" points="681.07,1969.684 681.922,1969.812 682.05,1969.829 682.886,1969.973 683.031,1970.005 
	683.513,1970.086 683.577,1971.13 683.931,1971.114 684.075,1972.738 683.288,1972.352 682.79,1972.529 682.163,1972.77 
	681.231,1973.123 680.861,1974.297 680.813,1974.265 680.652,1974.2 680.588,1974.152 680.475,1974.104 680.282,1973.975 
	680.122,1973.863 679.945,1973.75 679.881,1973.718 679.623,1973.557 679.318,1973.381 679.013,1973.204 678.723,1973.027 
	678.836,1972.689 678.9,1972.481 679.19,1971.613 679.302,1971.227 679.398,1970.906 679.463,1970.681 679.511,1970.536 
	679.575,1970.359 679.656,1970.086 679.752,1969.748 679.832,1969.507 "/>
<polygon fill="#D6866E" points="762.469,1990.087 762.469,1990.071 762.437,1989.444 762.437,1989.267 762.421,1989.202 
	762.421,1989.17 762.405,1988.865 762.405,1988.816 762.469,1988.816 762.839,1988.784 763.097,1988.784 763.177,1988.784 
	763.225,1988.768 763.274,1990.087 "/>
<polygon fill="#D6866E" points="735.603,2042.598 735.249,2042.84 735.121,2042.92 735.121,2042.904 734.67,2042.325 
	734.381,2041.81 734.348,2041.778 734.542,2041.649 734.718,2041.52 734.831,2041.44 "/>
<polygon fill="#D6866E" points="740.976,2059.04 740.719,2059.153 740.639,2058.944 740.606,2058.96 739.255,2059.619 
	738.998,2059.121 738.66,2058.557 738.499,2058.268 738.66,2058.171 739.287,2057.801 739.513,2057.689 739.963,2057.431 
	740.043,2057.399 740.108,2057.399 740.14,2057.431 740.253,2057.656 "/>
<polygon fill="#D6866E" points="726.868,2036.71 726.015,2037.08 725.339,2037.225 725.259,2036.807 725.227,2036.694 
	726.031,2036.147 726.176,2036.083 726.273,2036.067 726.369,2036.067 726.53,2036.067 726.691,2036.099 726.739,2036.099 
	726.755,2036.26 726.852,2036.662 "/>
<polygon fill="#D6866E" points="812.466,1980.555 812.418,1981.037 812.418,1981.054 812.402,1981.07 812.386,1981.424 
	812.386,1981.633 812.209,1981.617 811.662,1981.6 811.678,1981.279 811.71,1980.603 811.726,1980.507 811.823,1980.523 
	812.354,1980.555 812.402,1980.555 "/>
<polygon fill="#D6866E" points="783.931,1978.673 783.111,1978.753 781.985,1978.882 781.856,1978.319 781.036,1978.512 
	780.875,1977.917 780.714,1977.37 780.666,1977.209 780.553,1976.759 780.601,1976.727 780.617,1976.678 780.633,1976.662 
	780.65,1976.646 780.633,1976.598 780.553,1976.276 780.505,1976.244 780.296,1975.842 780.36,1975.182 780.376,1974.539 
	780.473,1974.523 781.068,1974.442 781.277,1974.426 781.776,1974.362 782.258,1974.33 782.676,1974.314 783.143,1974.298 
	783.4,1974.298 783.4,1974.78 783.384,1975.6 783.368,1976.196 783.384,1976.469 783.368,1976.775 783.416,1977.338 
	783.513,1977.66 783.657,1978.094 783.818,1978.416 "/>
<polygon fill="#D6866E" points="785.234,1974.265 785.218,1974.748 785.813,1974.78 785.813,1974.298 785.974,1974.298 
	785.99,1974.893 786.006,1975.198 786.038,1975.794 785.974,1975.794 785.958,1975.794 785.974,1976.775 783.738,1976.678 
	783.754,1976.164 783.77,1975.391 783.786,1975.182 783.786,1974.587 783.802,1974.362 783.802,1974.217 784.478,1974.249 
	785.169,1974.265 "/>
<polygon fill="#D6866E" points="790.188,1975.054 789.496,1975.44 789.432,1975.456 789.416,1975.44 789.352,1975.456 
	789.352,1975.424 789.191,1975.102 789.175,1975.054 789.014,1974.667 788.982,1974.603 788.95,1974.491 788.998,1974.458 
	789.609,1974.201 789.625,1974.217 789.657,1974.281 789.77,1974.426 789.77,1974.442 789.786,1974.458 789.947,1974.716 
	789.979,1974.748 790.027,1974.716 790.059,1974.78 790.092,1974.828 790.124,1974.877 790.204,1974.989 790.172,1975.021 "/>
<polygon fill="#D6866E" points="805.26,2023.617 805.212,2023.617 804.745,2023.617 804.536,2023.649 804.52,2023.649 
	804.231,2023.681 804.118,2023.697 804.102,2023.697 804.102,2023.665 804.086,2023.327 804.086,2023.182 804.07,2022.893 
	804.07,2022.764 804.407,2022.764 804.842,2022.764 805.26,2022.748 805.26,2023.15 "/>
<polygon fill="#D6866E" points="787.203,2116.964 787.187,2117.044 786.994,2117.83 786.994,2117.862 786.946,2117.846 
	786.337,2117.718 786.337,2117.637 786.513,2116.9 786.561,2116.884 786.641,2116.868 "/>
<polygon fill="#D6866E" points="797.274,2124.598 797.162,2124.582 796.937,2124.533 796.729,2124.566 795.991,2124.598 
	795.991,2124.293 795.975,2123.94 795.959,2123.876 797.611,2123.219 797.546,2123.539 797.386,2124.133 797.29,2124.566 "/>
<polygon fill="#D6866E" points="798.621,2109.33 798.621,2109.426 798.621,2109.635 798.637,2109.763 798.637,2110.1 
	798.637,2110.212 798.653,2110.228 798.669,2110.228 798.685,2110.228 798.669,2110.373 798.364,2110.373 798.332,2110.373 
	798.268,2110.389 798.156,2110.389 798.156,2110.244 798.204,2110.228 798.188,2110.1 798.188,2110.052 798.156,2109.346 
	798.156,2109.33 798.605,2109.33 "/>
<polygon fill="#D6866E" points="759.156,2210.95 758.322,2211.656 758.242,2211.559 758.162,2211.463 757.809,2211.014 
	757.696,2210.886 757.713,2210.87 758.113,2210.517 758.498,2210.18 "/>
<polygon fill="#D6866E" points="748.588,2211.207 748.331,2211.543 747.625,2210.934 746.872,2210.87 746.823,2210.87 
	746.984,2210.693 747.465,2210.196 747.93,2210.581 748.155,2210.79 748.347,2210.982 748.539,2211.175 "/>
<polygon fill="#D6866E" points="787.204,2116.875 787.188,2116.955 786.996,2117.741 786.996,2117.773 786.948,2117.757 
	786.322,2117.628 786.338,2117.548 786.515,2116.811 786.563,2116.794 786.627,2116.778 "/>
<polygon fill="#D6866E" points="797.275,2124.509 797.163,2124.492 796.939,2124.444 796.73,2124.476 795.992,2124.509 
	795.992,2124.204 795.977,2123.851 795.944,2123.787 797.612,2123.129 797.548,2123.45 797.388,2124.043 797.275,2124.476 "/>
<polygon fill="#D6866E" points="798.623,2109.241 798.623,2109.337 798.623,2109.545 798.623,2109.674 798.639,2110.01 
	798.639,2110.123 798.639,2110.139 798.655,2110.139 798.671,2110.139 798.671,2110.283 798.366,2110.283 798.318,2110.283 
	798.27,2110.299 798.157,2110.299 798.157,2110.155 798.19,2110.139 798.19,2110.01 798.19,2109.962 798.157,2109.257 
	798.157,2109.241 798.607,2109.241 "/>
<polygon fill="#D6866E" points="787.91,2087.452 787.974,2087.982 788.007,2088.591 788.071,2089.329 787.574,2089.617 
	787.686,2089.81 787.173,2090.163 787.157,2090.131 787.141,2090.099 787.028,2089.89 786.531,2090.163 786.018,2089.778 
	785.505,2089.425 784.943,2088.992 784.655,2088.8 784.302,2088.527 784.27,2088.591 784.286,2088.591 784.286,2088.607 
	784.254,2088.639 784.254,2088.671 784.222,2088.671 784.222,2088.639 783.917,2088.431 783.773,2088.334 783.981,2088.078 
	783.773,2087.95 783.757,2087.966 783.725,2087.966 783.693,2087.934 783.693,2087.901 783.709,2087.885 783.741,2087.869 
	783.757,2087.869 783.933,2087.613 784.27,2087.164 784.494,2086.843 784.543,2086.779 784.895,2086.298 785.072,2086.041 
	785.168,2085.913 785.312,2085.913 785.441,2085.913 785.473,2085.897 785.745,2085.881 785.906,2085.881 785.97,2085.881 
	786.242,2085.849 786.339,2085.849 786.852,2085.801 786.996,2085.784 787.253,2085.769 787.317,2085.752 787.349,2085.752 
	787.509,2085.72 787.75,2085.704 787.798,2086.186 787.862,2086.923 "/>
<polygon fill="#D6866E" points="804.99,2044.777 804.974,2044.905 804.974,2044.921 804.974,2044.985 804.974,2045.066 
	804.958,2045.242 804.941,2045.306 804.909,2045.547 804.861,2045.835 804.797,2046.349 804.749,2046.653 804.717,2046.766 
	804.669,2047.054 804.637,2047.167 804.605,2047.247 804.524,2047.583 804.412,2047.984 804.396,2048.032 804.38,2048.097 
	802.776,2047.696 802.76,2047.68 802.76,2047.664 802.793,2047.503 802.889,2047.118 802.905,2047.054 802.921,2046.958 
	802.921,2046.91 802.937,2046.862 802.969,2046.557 803.001,2046.365 803.033,2046.188 803.097,2045.867 803.242,2045.034 
	803.226,2044.953 804.428,2044.713 804.508,2044.713 804.99,2044.777 "/>
<polygon fill="#D6866E" points="787.205,2116.961 787.189,2117.042 786.996,2117.827 786.996,2117.843 786.948,2117.843 
	786.339,2117.699 786.339,2117.619 786.515,2116.897 786.563,2116.881 786.643,2116.849 "/>
<polygon fill="#D6866E" points="798.623,2109.327 798.623,2109.424 798.623,2109.616 798.639,2109.744 798.639,2110.097 
	798.639,2110.193 798.655,2110.209 798.671,2110.209 798.687,2110.209 798.671,2110.354 798.366,2110.37 798.334,2110.37 
	798.27,2110.37 798.158,2110.37 798.158,2110.226 798.206,2110.226 798.19,2110.097 798.19,2110.033 798.158,2109.327 
	798.607,2109.311 "/>
<polygon fill="#D6866E" points="784.623,2083.443 784.639,2083.604 784.671,2083.892 784.703,2084.149 784.719,2084.261 
	784.751,2084.55 784.783,2084.79 784.815,2085.047 784.847,2085.335 784.863,2085.384 784.591,2085.769 784.575,2085.752 
	784.478,2085.881 784.398,2085.977 784.254,2086.201 784.19,2086.282 784.158,2086.33 784.094,2086.426 784.029,2086.522 
	784.013,2086.522 783.853,2086.747 783.789,2086.827 783.741,2086.907 783.34,2087.452 783.324,2087.485 783.292,2087.533 
	781.576,2086.266 781.431,2086.153 780.998,2085.833 780.838,2085.704 780.758,2085.64 780.822,2085.56 780.854,2085.512 
	781.031,2085.287 781.127,2085.143 781.319,2084.886 781.447,2084.726 781.608,2084.501 781.736,2084.325 781.864,2084.149 
	781.945,2084.036 782.057,2083.892 782.073,2083.844 782.121,2083.796 782.153,2083.748 782.169,2083.716 782.329,2083.507 
	782.458,2083.331 782.49,2083.299 782.586,2083.17 782.779,2082.914 782.875,2082.786 783.211,2082.321 "/>
<polygon fill="#D6866E" points="787.904,2087.461 787.952,2087.991 788,2088.6 788.064,2089.338 787.567,2089.626 787.679,2089.819 
	787.166,2090.172 787.15,2090.14 787.134,2090.108 787.006,2089.899 786.524,2090.172 786.011,2089.787 785.498,2089.434 
	784.937,2089.001 784.648,2088.809 784.295,2088.536 784.263,2088.6 784.279,2088.6 784.279,2088.616 784.247,2088.648 
	784.247,2088.68 784.215,2088.68 784.215,2088.648 783.894,2088.44 783.766,2088.344 783.958,2088.087 783.766,2087.958 
	783.734,2087.975 783.718,2087.975 783.686,2087.943 783.686,2087.91 783.702,2087.895 783.734,2087.878 783.75,2087.878 
	783.926,2087.622 784.263,2087.173 784.472,2086.852 784.536,2086.788 784.889,2086.307 785.065,2086.05 785.145,2085.922 
	785.306,2085.922 785.434,2085.922 785.45,2085.906 785.723,2085.89 785.899,2085.89 785.963,2085.89 786.236,2085.858 
	786.332,2085.858 786.829,2085.81 786.99,2085.793 787.246,2085.778 787.31,2085.761 787.342,2085.761 787.503,2085.729 
	787.743,2085.713 787.791,2086.195 787.855,2086.932 "/>
<polygon fill="#D6866E" points="787.198,2116.97 787.182,2117.05 786.99,2117.836 786.99,2117.852 786.941,2117.852 
	786.316,2117.708 786.332,2117.628 786.508,2116.906 786.556,2116.89 786.621,2116.858 "/>
<polygon fill="#D6866E" points="798.616,2109.336 798.616,2109.433 798.616,2109.625 798.616,2109.753 798.632,2110.106 
	798.632,2110.202 798.632,2110.219 798.648,2110.219 798.664,2110.219 798.664,2110.363 798.36,2110.379 798.311,2110.379 
	798.263,2110.379 798.151,2110.379 798.151,2110.235 798.183,2110.235 798.183,2110.106 798.183,2110.042 798.151,2109.336 
	798.6,2109.32 "/>
<polygon fill="#D6866E" points="784.6,2083.452 784.632,2083.613 784.664,2083.901 784.696,2084.158 784.712,2084.27 
	784.744,2084.559 784.776,2084.799 784.808,2085.056 784.825,2085.344 784.841,2085.393 784.584,2085.778 784.552,2085.761 
	784.472,2085.89 784.391,2085.986 784.231,2086.21 784.183,2086.291 784.151,2086.339 784.071,2086.435 784.007,2086.531 
	783.83,2086.756 783.782,2086.836 783.718,2086.916 783.333,2087.461 783.301,2087.493 783.269,2087.542 781.569,2086.275 
	781.425,2086.162 780.992,2085.842 780.831,2085.713 780.735,2085.649 780.815,2085.569 780.847,2085.521 781.008,2085.296 
	781.12,2085.152 781.312,2084.896 781.425,2084.735 781.585,2084.51 781.729,2084.334 781.858,2084.158 781.938,2084.045 
	782.05,2083.901 782.066,2083.853 782.098,2083.805 782.146,2083.757 782.162,2083.725 782.307,2083.516 782.451,2083.34 
	782.467,2083.308 782.579,2083.179 782.772,2082.923 782.868,2082.794 783.189,2082.33 "/>
<polygon fill="#D6866E" points="1338.673,842.311 1338.384,843.402 1337.838,844.172 1337.181,843.948 1338.384,842.134 "/>
<polygon fill="#D6866E" points="1382.874,904.13 1382.778,904.034 1383.067,903.745 1382.922,903.585 1382.986,903.488 
	1383.243,903.745 "/>
<polygon fill="#D6866E" points="1257.923,909.393 1259.335,908.462 1259.351,908.446 1263.089,913.179 1262.993,913.243 
	1262.72,913.468 1262.896,913.853 1263.185,913.677 1263.378,913.564 1263.618,913.869 1263.506,913.917 1258.837,915.474 
	1258.709,915.217 1258.597,914.96 1257.923,913.5 "/>
<polygon fill="#D6866E" points="1312.922,861.468 1312.392,861.163 1312.697,860.794 1313.163,861.163 "/>
<polygon fill="#D6866E" points="1363.958,880.93 1363.926,882.566 1363.83,882.631 1363.653,882.486 1362.033,881.251 
	1361.905,881.09 1362.899,880.994 1363.621,880.914 "/>
<polygon fill="#D6866E" points="1384.013,863.923 1383.821,863.923 1383.548,863.923 1382.377,863.939 1382.297,863.939 
	1381.928,863.939 1380.708,863.987 1380.596,863.987 1380.532,863.987 1378.847,864.035 1378.863,863.538 1378.799,862.094 
	1380.195,862.062 1381.992,862.046 1383.243,861.997 1384.062,861.997 "/>
<polygon fill="#D6866E" points="1257.923,916.5 1262.014,914.944 1264.389,914.03 1267.87,918.073 1267.902,918.41 
	1267.918,918.634 1267.886,918.859 1267.822,919.1 1264.292,922.597 1263.249,922.02 1259.848,920.945 1258.083,921.169 
	1257.923,921.169 "/>
<polygon fill="#D6866E" points="1289.337,908.125 1289.177,908.302 1288.904,908.061 1289.048,907.885 "/>
<polygon fill="#D6866E" points="1263.073,913.179 1262.993,913.243 1262.72,913.468 1262.896,913.853 1263.185,913.677 
	1263.378,913.564 1263.618,913.869 1263.506,913.917 1258.837,915.474 1258.709,915.217 1258.597,914.96 1256.463,910.355 
	1259.335,908.462 1259.351,908.446 "/>
<polygon fill="#D6866E" points="1267.87,918.073 1267.902,918.41 1267.918,918.634 1267.886,918.859 1267.822,919.1 
	1264.292,922.597 1263.25,922.02 1259.832,920.945 1258.083,921.169 1257.714,921.185 1257.056,922.148 1256.832,922.742 
	1256.607,923.335 1256.543,923.512 1256.334,922.918 1255.115,919.533 1254.778,917.993 1254.842,917.672 1262.014,914.944 
	1264.389,914.03 "/>
<polygon fill="#D6866E" points="1289.321,908.125 1289.161,908.302 1288.904,908.061 1289.032,907.885 "/>
<polygon fill="#D6866E" points="1338.673,842.295 1338.384,843.386 1337.838,844.156 1337.181,843.947 1338.384,842.118 "/>
<polygon fill="#D6866E" points="1312.457,861.195 1312.392,861.163 1312.697,860.778 1313.163,861.147 1313.13,861.195 "/>
<polygon fill="#D6866E" points="1310.209,1187.627 1308.958,1187.819 1308.83,1187.001 1309.295,1186.969 1309.664,1186.921 
	1310.113,1186.841 "/>
<polygon fill="#D6866E" points="1322.658,1145.676 1322.193,1146.446 1321.31,1145.917 1321.118,1145.788 1321.615,1144.986 "/>
<polygon fill="#D6866E" points="1317.46,1142.195 1318.005,1142.596 1319.193,1143.382 1318.663,1144.216 1317.219,1143.286 
	1316.562,1142.804 1316.241,1142.532 1316.626,1142.371 1317.059,1141.89 "/>
<polygon fill="#D6866E" points="1324.166,1181.338 1324.342,1181.547 1324.599,1181.836 1324.583,1181.996 1324.567,1182.798 
	1324.551,1183.376 1324.278,1183.6 1324.198,1183.392 1323.813,1182.445 1323.396,1181.435 1323.54,1181.386 1323.716,1181.322 
	1323.781,1181.306 1324.005,1181.322 1324.101,1181.322 "/>
<polygon fill="#D6866E" points="1323.46,1178.868 1323.091,1179.205 1323.059,1179.189 1322.513,1178.739 1322.979,1178.386 "/>
<polygon fill="#D6866E" points="1282.81,1180.023 1282.248,1179.975 1282.376,1178.884 1282.826,1178.932 "/>
<polygon fill="#D6866E" points="1287.365,1149.141 1287.622,1145.933 1287.943,1145.949 1287.702,1149.173 "/>
<polygon fill="#D6866E" points="1302.381,1185.269 1302.317,1185.413 1302.108,1185.942 1301.466,1185.702 1301.001,1185.493 
	1301.113,1185.237 1301.242,1184.948 1301.306,1184.771 1301.787,1184.996 "/>
<polygon fill="#D6866E" points="1278.462,1146.767 1278.494,1146.446 1278.51,1146.237 1278.51,1146.141 1279.136,1146.237 
	1279.088,1146.847 "/>
<polygon fill="#D6866E" points="1310.498,1179.189 1309.519,1179.365 1309.407,1178.435 1310.338,1178.258 "/>
<polygon fill="#D6866E" points="1331.272,1161.494 1330.887,1161.397 1330.695,1160.98 1331.08,1160.9 1331.16,1161.093 
	1331.208,1161.205 1331.24,1161.333 "/>
<polygon fill="#D6866E" points="1247.164,1147.377 1246.971,1147.377 1245.512,1147.457 1245.479,1146.767 1245.399,1145.083 
	1245.383,1144.858 1246.891,1144.778 1247.052,1144.778 "/>
<polygon fill="#D6866E" points="1282.81,1180.023 1282.248,1179.975 1282.376,1178.884 1282.81,1178.932 "/>
<polygon fill="#D6866E" points="1257.415,1165.89 1255.666,1165.938 1255.602,1164.382 1257.367,1164.349 "/>
<polygon fill="#D6866E" points="1287.366,1149.141 1287.606,1145.933 1287.943,1145.949 1287.702,1149.173 "/>
<polygon fill="#D6866E" points="1278.462,1146.767 1278.478,1146.446 1278.494,1146.238 1278.51,1146.141 1279.136,1146.238 
	1279.072,1146.847 "/>
<polygon fill="#D6866E" points="1305.477,992.021 1305.333,992.39 1305.092,992.31 1305.028,992.294 1305.012,992.294 
	1304.996,992.278 1304.739,992.214 1304.98,991.652 1305.525,991.877 "/>
<polygon fill="#D6866E" points="1344.058,969.273 1344.123,968.567 1344.171,968.583 1344.652,968.631 1344.588,969.353 
	1344.075,969.289 "/>
<polygon fill="#D6866E" points="1322.947,1033.539 1322.321,1033.122 1322.514,1032.849 1323.124,1033.282 "/>
<polygon fill="#D6866E" points="1279.778,1052.582 1279.745,1052.646 1279.569,1053.031 1278.911,1054.507 1277.644,1054.33 
	1277.628,1054.426 1277.612,1054.523 1277.419,1055.245 1278.077,1055.389 1278.478,1055.517 1278.205,1056.079 1277.548,1055.838 
	1277.339,1055.854 1276.97,1055.87 1276.97,1055.854 1277.018,1055.245 1276.601,1055.148 1276.698,1054.41 1276.73,1054.202 
	1277.002,1052.662 1277.099,1052.116 "/>
<polygon fill="#D6866E" points="1273.2,909.194 1273.297,909.194 1273.633,909.194 1274.564,909.322 1275.302,909.29 
	1275.719,909.178 1275.799,909.146 1275.879,909.098 1275.895,909.082 1275.719,909.627 1275.542,910.14 1275.494,910.301 
	1275.35,910.782 1275.302,910.766 1275.19,910.67 1272.992,909.98 "/>
<polygon fill="#D6866E" points="1305.477,992.037 1305.333,992.39 1305.092,992.326 1305.028,992.31 1305.012,992.294 
	1304.996,992.294 1304.739,992.214 1304.98,991.668 1305.525,991.893 "/>
<polygon fill="#D6866E" points="1344.058,969.273 1344.123,968.583 1344.171,968.583 1344.652,968.631 1344.588,969.353 
	1344.075,969.305 "/>
<polygon fill="#D6866E" points="1273.2,909.194 1273.281,909.194 1273.617,909.194 1274.564,909.322 1275.302,909.29 
	1275.719,909.178 1275.799,909.146 1275.879,909.098 1275.879,909.082 1275.703,909.627 1275.542,910.14 1275.494,910.301 
	1275.334,910.782 1275.302,910.766 1275.173,910.67 1272.992,909.98 "/>
<polygon fill="#D6866E" points="1279.762,1052.582 1279.745,1052.646 1279.569,1053.031 1278.895,1054.507 1277.628,1054.33 
	1277.628,1054.426 1277.612,1054.523 1277.419,1055.245 1278.061,1055.389 1278.478,1055.517 1278.189,1056.079 1277.548,1055.838 
	1277.339,1055.854 1276.954,1055.87 1276.954,1055.854 1277.002,1055.245 1276.601,1055.148 1276.698,1054.41 1276.73,1054.202 
	1277.002,1052.662 1277.099,1052.116 "/>
<polygon fill="#D6866E" points="1215.38,1253.54 1215.332,1253.668 1214.548,1253.316 1214.644,1253.156 "/>
<polygon fill="#D6866E" points="1215.381,1253.54 1215.333,1253.668 1214.549,1253.316 1214.645,1253.156 "/>
<polygon fill="#D6866E" points="1215.301,1269.868 1215.269,1270.061 1214.981,1270.589 1214.885,1270.781 1212.42,1269.1 
	1212.404,1268.236 1212.58,1268.044 1213.316,1268.54 1214.533,1269.34 "/>
<polygon fill="#D6866E" points="1196.092,1337.983 1195.532,1338.495 1195.371,1338.639 1194.939,1338.623 1194.347,1338.639 
	1194.059,1338.719 1193.547,1338.928 1193.323,1338.719 1193.979,1337.759 1193.643,1337.503 1194.379,1336.686 1195.5,1337.535 "/>
<polygon fill="#D6866E" points="1193.915,1325.913 1193.483,1325.801 1192.17,1325.433 1192.362,1324.744 1194.091,1325.273 "/>
<polygon fill="#D6866E" points="1137.744,1337.423 1137.744,1337.583 1137.696,1338.031 1137.664,1338.543 1137.616,1339.008 
	1137.6,1339.168 1137.6,1339.6 1137.584,1340.112 1137.568,1340.32 1136.976,1340.368 1137.248,1336.126 1137.824,1336.142 
	1137.808,1336.302 "/>
<polygon fill="#D6866E" points="1156.249,1341.505 1154.568,1342.401 1153.768,1342.818 1153.271,1341.809 1152.775,1340.849 
	1152.903,1340.801 1153.127,1340.688 1153.4,1340.56 1153.56,1340.48 1153.672,1340.432 1154.312,1340.096 1154.824,1339.824 
	1154.984,1339.744 1155.208,1339.616 1155.609,1340.352 "/>
<polygon fill="#D6866E" points="1138.561,1324.104 1138.545,1324.504 1138.432,1326.473 1138.417,1326.505 1138.417,1326.729 
	1138.4,1326.841 1138.384,1327.21 1138.336,1327.85 1138.336,1327.914 1138.32,1328.01 1138.288,1328.538 1138.24,1329.419 
	1138.192,1330.123 1138.192,1330.203 1138.112,1331.084 1138.08,1331.356 1138.016,1331.708 1138,1331.996 1137.472,1331.932 
	1135.455,1331.692 1135.615,1330.075 1135.647,1328.314 1135.695,1328.01 1135.791,1327.322 1136.127,1326.153 1136.319,1325.097 
	1136.319,1325.065 1138,1325.241 1138.064,1324.072 "/>
<polygon fill="#D6866E" points="1118.246,1458.645 1118.679,1458.661 1118.679,1458.805 1118.663,1459.495 1118.615,1460.393 
	1118.615,1461.003 1118.615,1461.516 1118.599,1461.581 1117.604,1461.533 1117.54,1461.661 1117.459,1461.629 1116.898,1461.404 
	1116.031,1461.019 1115.967,1460.987 1115.293,1460.73 1115.245,1460.698 1115.037,1460.65 1115.005,1458.805 1114.989,1458.805 
	1115.005,1458.789 1114.957,1458.452 1114.957,1458.436 1114.94,1458.388 1116.031,1458.468 1118.165,1458.645 "/>
<polygon fill="#D6866E" points="1128.45,1451.248 1128.385,1451.376 1128.385,1451.392 1128.289,1451.553 1128.257,1451.633 
	1127.92,1451.473 1127.856,1451.441 1128.065,1451.055 1128.129,1451.088 "/>
<polygon fill="#D6866E" points="1118.262,1458.661 1118.695,1458.677 1118.679,1458.821 1118.663,1459.511 1118.631,1460.41 
	1118.631,1461.019 1118.615,1461.533 1118.615,1461.597 1117.604,1461.549 1117.556,1461.677 1117.459,1461.645 1116.914,1461.42 
	1116.031,1461.035 1115.967,1461.003 1115.293,1460.746 1115.261,1460.714 1115.053,1460.666 1115.021,1458.821 1114.989,1458.821 
	1115.021,1458.805 1114.973,1458.468 1114.957,1458.452 1114.957,1458.404 1116.031,1458.484 1118.165,1458.661 "/>
<polygon fill="#D6866E" points="1128.466,1451.264 1128.402,1451.392 1128.386,1451.408 1128.305,1451.569 1128.273,1451.649 
	1127.936,1451.489 1127.872,1451.457 1128.065,1451.072 1128.145,1451.104 "/>
<polygon fill="#D6866E" points="1275.017,1473.366 1274.74,1472.665 1278.734,1470.937 1278.131,1471.703 1276.338,1472.698 "/>
<polygon fill="#D6866E" points="1220.798,1451.847 1219.624,1454.195 1219.119,1453.901 1220.031,1452.19 1220.341,1451.619 "/>
<polygon fill="#D6866E" points="1182.44,1470.089 1182.456,1470.497 1181.396,1470.481 1180.956,1470.464 1180.924,1469.878 "/>
<polygon fill="#D6866E" points="1229.601,1460.243 1229.046,1461.335 1228.541,1461.123 1229.112,1460.015 1229.209,1460.064 
	1229.226,1460.064 1229.242,1460.08 1229.356,1460.129 1229.519,1460.21 "/>
<polygon fill="#D6866E" points="1240.311,1518.132 1240.148,1518.018 1239.969,1517.92 1240.083,1517.675 1240.441,1517.903 "/>
<polygon fill="#D6866E" points="1233.236,1488.217 1233.073,1488.527 1232.6,1489.473 1232.339,1489.701 1231.867,1489.766 
	1227.53,1487.549 1227.367,1487.467 1228.15,1486.017 1228.362,1485.642 "/>
<polygon fill="#D6866E" points="1239.039,1476.855 1238.697,1477.507 1237.67,1477.002 1237.996,1476.317 "/>
<polygon fill="#D6866E" points="1275.034,1473.366 1274.756,1472.665 1278.75,1470.937 1278.147,1471.703 1276.354,1472.698 "/>
<polygon fill="#D6866E" points="1240.311,1518.115 1240.148,1518.018 1239.968,1517.903 1240.083,1517.675 1240.441,1517.903 "/>
<polygon fill="#D6866E" points="1027.32,1369.526 1027.4,1371.386 1027.592,1371.386 1027.608,1371.932 1027.592,1371.932 
	1026.518,1371.98 1026.518,1371.964 1026.518,1371.05 1025.924,1371.05 1025.908,1369.863 1025.86,1369.863 1025.876,1369.302 
	1026.181,1369.27 1026.181,1369.157 1027.304,1369.173 "/>
<polygon fill="#D6866E" points="1105.254,1144.441 1105.463,1144.81 1105.527,1145.147 1105.543,1145.227 1105.463,1145.243 
	1105.254,1145.291 1104.966,1145.355 1104.853,1145.387 1104.821,1145.371 1104.805,1145.355 1104.773,1145.355 1104.757,1145.339 
	1104.42,1144.121 1103.603,1143.479 1102.817,1143.255 1101.037,1143.928 1100.796,1143.191 1101.486,1142.838 1103.186,1142.709 
	1104.468,1142.613 1104.581,1142.597 1104.773,1142.581 1104.805,1143.575 1105.078,1144.105 1105.19,1144.329 "/>
<polygon fill="#D6866E" points="1044.382,1443.213 1044.125,1443.309 1043.836,1442.603 1044.077,1442.507 "/>
<polygon fill="#D6866E" points="1018.436,1409.136 1018.532,1409.152 1018.66,1409.184 1018.853,1409.232 1018.805,1409.36 
	1018.692,1409.617 1018.42,1410.322 1017.65,1412.199 1017.618,1412.231 1017.538,1412.247 1017.474,1412.263 1017.442,1412.247 
	1017.201,1412.167 1016.816,1412.054 1015.726,1411.718 1015.694,1409.344 1015.694,1409.136 1015.694,1408.574 1015.485,1408.574 
	1015.309,1408.574 1015.229,1408.574 1015.213,1408.206 1015.197,1408.173 1015.581,1408.173 1015.614,1408.206 1015.678,1408.254 
	1015.886,1408.398 1016.367,1408.382 1017.041,1408.366 1017.009,1408.542 1016.977,1408.911 1017.65,1408.975 1018.115,1409.039 
	1018.308,1409.104 1018.42,1409.12 "/>
<polygon fill="#D6866E" points="989.684,1476.905 989.588,1477.322 989.411,1477.322 989.219,1477.835 989.187,1477.915 
	989.139,1477.899 988.369,1477.674 988.481,1477.177 988.449,1477.145 988.626,1476.84 988.802,1476.167 988.882,1476.183 
	988.994,1476.199 989.187,1476.231 989.331,1476.263 989.475,1476.279 989.572,1476.295 989.764,1476.327 989.764,1476.408 
	989.812,1476.408 989.764,1476.6 "/>
<polygon fill="#D6866E" points="1039.202,1429.341 1039.058,1429.389 1038.368,1429.582 1037.791,1429.005 1037.518,1428.828 
	1037.326,1428.716 1037.438,1428.7 1037.55,1428.716 1037.759,1428.62 1038.208,1428.588 1038.897,1428.62 1039.154,1429.213 "/>
<polygon fill="#D6866E" points="1033.557,1467.299 1033.093,1467.62 1032.932,1467.363 1033.141,1467.203 1033.413,1467.01 "/>
<polygon fill="#D6866E" points="1105.254,1144.442 1105.447,1144.81 1105.511,1145.147 1105.543,1145.227 1105.447,1145.243 
	1105.254,1145.292 1104.95,1145.356 1104.838,1145.388 1104.822,1145.372 1104.789,1145.356 1104.773,1145.356 1104.741,1145.34 
	1104.421,1144.121 1103.587,1143.479 1102.817,1143.255 1101.021,1143.928 1100.797,1143.191 1101.47,1142.838 1103.17,1142.71 
	1104.453,1142.614 1104.565,1142.597 1104.757,1142.581 1104.805,1143.576 1105.078,1144.105 1105.19,1144.329 "/>
<polygon fill="#D6866E" points="859.545,709.256 859.449,709.256 859.449,709.272 859.096,709.272 859.096,708.647 858.374,708.631 
	858.406,709.272 856.513,709.272 856.481,706.914 857.027,706.914 857.043,706.626 857.428,706.658 859.352,706.706 
	859.497,706.706 "/>
<polygon fill="#D6866E" points="770.298,713.764 769.624,713.732 769.303,713.667 769.351,712.448 769.367,712.448 770.33,712.496 
	"/>
<polygon fill="#D6866E" points="859.497,709.256 859.4,709.256 859.4,709.288 859.048,709.288 859.048,708.663 858.326,708.647 
	858.358,709.288 856.465,709.288 856.433,706.914 856.978,706.914 856.994,706.642 857.379,706.658 859.304,706.722 
	859.449,706.722 "/>
<polygon fill="#D6866E" points="770.298,713.748 769.624,713.732 769.303,713.667 769.351,712.448 769.367,712.448 770.33,712.496 
	"/>
<polygon fill="#D6866E" points="960.313,458.283 958.678,459.87 958.405,460.143 958.309,460.223 958.149,459.982 957.571,459.116 
	957.379,458.876 957.459,458.828 959.111,457.112 "/>
<polygon fill="#D6866E" points="1000.911,434.616 1000.815,434.616 1000.382,434.728 1000.222,434.84 999.998,434.984 
	999.933,434.503 1000.11,434.439 1000.783,434.199 "/>
<polygon fill="#D6866E" points="914.055,434.471 913.381,434.599 913.317,434.295 914.007,434.167 914.023,434.343 "/>
<polygon fill="#D6866E" points="1000.911,434.616 1000.815,434.599 1000.382,434.728 1000.222,434.824 999.998,434.984 
	999.933,434.487 1000.11,434.423 1000.783,434.183 "/>
<polygon fill="#D6866E" points="997.769,411.109 997.416,411.975 996.518,411.189 996.919,410.58 "/>
<polygon fill="#D6866E" points="941.313,478.198 940.206,477.989 939.725,477.973 939.79,476.145 940.19,476.145 940.367,476.145 
	940.383,475.792 940.399,475.376 940.655,475.327 941.024,475.263 941.826,475.103 941.73,475.6 "/>
<polygon fill="#D6866E" points="910.864,476.787 910.864,477.268 910.431,477.252 910.479,476.803 "/>
<polygon fill="#D6866E" points="960.329,458.283 958.694,459.87 958.405,460.143 958.325,460.223 958.149,459.982 957.571,459.116 
	957.395,458.876 957.459,458.828 959.111,457.112 "/>
<polygon fill="#D6866E" points="914.055,434.471 913.381,434.6 913.317,434.311 914.007,434.183 914.023,434.359 "/>
<polygon fill="#D6866E" points="957,651.623 956.599,651.671 955.363,651.8 955.043,651.816 955.026,651.559 954.834,648.896 
	955.107,648.88 956.23,648.8 956.502,648.784 956.759,648.768 "/>
<polygon fill="#D6866E" points="942.145,624.031 942.69,624.031 942.498,625.779 942.145,625.731 "/>
<polygon fill="#D6866E" points="928.991,661.024 929.183,659.388 929.135,658.89 929.135,658.762 930.884,658.586 932.167,658.04 
	935.055,656.035 935.632,655.746 935.825,660.479 935.279,660.623 934.573,660.751 929.568,660.992 "/>
<polygon fill="#D6866E" points="848.879,654.014 848.831,654.126 848.029,656.26 846.12,655.586 846.97,653.388 848.237,653.837 "/>
<polygon fill="#D6866E" points="956.984,651.623 956.599,651.671 955.347,651.8 955.043,651.816 955.026,651.559 954.818,648.896 
	955.107,648.88 956.23,648.8 956.502,648.784 956.759,648.768 "/>
<polygon fill="#D6866E" points="942.674,624.031 942.482,625.779 940.685,625.587 940.749,624.721 940.814,624.015 "/>
<polygon fill="#D6866E" points="906.132,620.213 906.18,620.213 906.308,620.197 906.645,620.181 906.645,620.566 906.1,620.55 "/>
<polygon fill="#D6866E" points="915.452,570.995 915.147,571.685 914.537,571.413 914.73,570.787 "/>
<polygon fill="#D6866E" points="810.732,596.486 810.058,598.508 810.026,598.588 809.737,598.508 808.181,598.123 807.716,598.01 
	807.604,597.978 807.877,596.422 807.909,596.262 807.957,595.973 808.037,595.989 "/>
<polygon fill="#D6866E" points="879.711,577.781 879.695,578.214 878.765,578.263 878.813,577.781 "/>
<polygon fill="#D6866E" points="810.732,596.486 810.042,598.508 810.026,598.588 809.737,598.508 808.181,598.123 807.716,598.01 
	807.604,597.978 807.877,596.422 807.909,596.262 807.957,595.973 808.021,595.989 "/>
<polygon fill="#D6866E" points="879.711,577.781 879.695,578.214 878.765,578.246 878.813,577.765 "/>
<polygon fill="#D6866E" points="915.452,570.979 915.147,571.669 914.537,571.413 914.73,570.787 "/>
<polygon fill="#D6866E" points="770.018,553.429 769.826,554.568 769.698,555.643 769.698,555.675 769.682,555.707 769.665,555.723 
	769.649,555.739 769.617,555.755 768.013,555.467 768.414,553.173 "/>
<polygon fill="#D6866E" points="816.959,930.763 816.526,930.731 816.558,930.058 816.959,930.09 "/>
<polygon fill="#D6866E" points="819.942,930.298 819.99,930.86 820.006,931.02 819.653,930.988 816.526,930.731 816.558,930.058 "/>
<polygon fill="#D6866E" points="862.911,925.198 859.543,925.037 859.543,924.941 859.992,924.877 859.976,924.107 859.976,924.075 
	860.698,923.882 860.682,923.61 860.665,923.321 860.794,923.241 861.179,923.08 862.141,922.583 862.574,922.359 862.59,922.423 
	862.719,922.711 862.895,923.722 "/>
<polygon fill="#D6866E" points="922.994,907.458 922.946,907.827 922.753,907.81 922.769,907.442 "/>
<polygon fill="#D6866E" points="862.029,856.339 862.093,856.483 861.917,856.596 861.772,856.644 861.259,856.644 860.89,856.724 
	860.874,856.243 "/>
<polygon fill="#D6866E" points="862.029,856.339 862.093,856.467 861.917,856.596 861.772,856.628 861.259,856.628 860.89,856.724 
	860.874,856.227 "/>
<rect x="961.649" y="852.649" fill="#D6866E" width="1.684" height="0.273"/>
<polygon fill="#D6866E" points="960.463,854.22 958.506,854.253 958.474,851.783 960.334,851.767 "/>
<rect x="961.649" y="852.649" fill="#D6866E" width="1.684" height="0.273"/>
<polygon fill="#D6866E" points="960.447,854.22 958.506,854.253 958.474,851.783 960.334,851.767 "/>
<rect x="961.649" y="852.649" fill="#D6866E" width="1.684" height="0.257"/>
<polygon fill="#D6866E" points="960.463,854.22 958.506,854.237 958.474,851.767 960.334,851.767 "/>
<rect x="961.626" y="852.685" fill="#D6866E" width="1.684" height="0.257"/>
<polygon fill="#D6866E" points="960.423,854.257 958.483,854.273 958.451,851.803 960.311,851.803 "/>
<polygon fill="#D6866E" points="885.672,787.009 885.64,787.458 885.64,787.618 884.228,787.522 884.276,786.881 884.26,786.881 
	884.26,786.865 884.565,786.897 885.527,786.993 885.64,787.009 "/>
<polygon fill="#D6866E" points="842.931,791.083 842.707,791.323 842.611,791.949 842.514,792.141 842.627,792.702 842.723,793.232 
	842.402,793.376 841.247,793.921 841.103,793.921 840.943,793.841 840.863,793.761 840.798,793.665 840.782,790.986 
	840.798,790.024 840.927,788.324 841.023,787.41 841.071,786.913 841.119,786.688 841.199,786.736 841.36,786.849 841.408,786.881 
	841.793,786.833 842.595,786.736 842.675,786.736 842.883,786.72 843.445,786.239 843.413,786.528 843.38,786.8 843.364,786.849 
	843.22,786.945 843.204,786.961 843.124,787.121 843.028,787.346 843.012,787.394 842.98,787.474 843.028,787.747 843.012,788.116 
	842.996,788.42 842.45,789.96 842.787,790.65 "/>
<polygon fill="#D6866E" points="853.292,801.844 852.362,801.86 851.64,801.892 851.64,801.876 851.624,801.555 853.26,801.491 
	853.292,801.812 "/>
<polygon fill="#D6866E" points="850.71,799.615 850.726,799.102 850.726,799.086 850.726,799.07 850.71,799.054 850.549,798.204 
	850.549,798.188 850.549,798.171 850.437,797.819 850.485,797.803 851.014,797.722 851.319,799.535 850.822,799.631 "/>
<polygon fill="#D6866E" points="878.439,820.577 878.278,821.347 876.963,821.122 877.108,820.416 "/>
<polygon fill="#D6866E" points="840.397,786.929 840.397,786.961 840.397,787.025 840.333,787.907 840.253,788.949 840.157,790.12 
	839.98,790.168 838.874,789.944 837.976,789.719 837.783,789.607 837.687,789.591 837.623,789.575 837.687,789.286 838.232,786.833 
	838.264,786.736 "/>
<polygon fill="#D6866E" points="744.637,772.366 744.685,772.398 744.765,772.462 745.246,772.719 746.032,773.152 741.926,772.943 
	741.974,772.238 "/>
<polygon fill="#D6866E" points="809.065,1076.725 808.745,1079.384 806.102,1079.096 806.214,1078.151 806.375,1076.725 
	806.391,1076.597 806.407,1076.565 806.407,1076.549 807.352,1076.613 808.265,1076.677 "/>
<polygon fill="#D6866E" points="690.173,1056.207 689.805,1056.287 688.748,1056.559 688.523,1055.582 688.603,1055.566 
	689.677,1055.518 689.901,1055.518 "/>
<polygon fill="#D6866E" points="795.675,1055.07 794.602,1055.262 794.362,1055.31 793.177,1055.518 792.632,1052.507 
	793.833,1052.299 795.227,1052.059 795.467,1053.228 795.627,1054.605 795.675,1055.054 "/>
<polygon fill="#D6866E" points="781.949,1082.075 778.922,1080.874 778.057,1080.425 777.721,1080.233 777.689,1080.217 
	777.208,1079.961 776.888,1079.785 776.632,1079.656 776.712,1074.755 776.808,1071.888 776.824,1071.776 778.361,1071.6 
	780.636,1071.68 781.885,1071.824 783.375,1071.648 784.576,1071.584 784.512,1071.696 784.352,1071.968 782.718,1076.133 
	782.157,1077.206 781.917,1078.215 782.157,1080.105 782.061,1081.434 781.965,1081.915 "/>
<polygon fill="#D6866E" points="819.284,1101.009 819.989,1101.986 820.293,1102.386 820.149,1102.738 818.163,1102.242 
	818.163,1102.226 818.163,1102.178 818.179,1101.97 818.195,1101.713 818.211,1101.521 818.227,1101.329 818.243,1101.153 
	818.243,1100.96 818.243,1100.912 "/>
<polygon fill="#D6866E" points="809.05,1076.774 808.729,1079.433 806.086,1079.145 806.199,1078.2 806.375,1076.774 
	806.391,1076.646 806.391,1076.614 806.391,1076.598 807.352,1076.662 808.249,1076.726 "/>
<polygon fill="#D6866E" points="855.514,1064.713 855.594,1064.553 855.69,1064.585 855.61,1064.777 "/>
<polygon fill="#D6866E" points="867.975,1054.462 867.911,1054.414 868.071,1054.35 868.199,1054.318 868.872,1054.094 
	868.888,1054.719 868.247,1054.639 "/>
<polygon fill="#D6866E" points="795.66,1055.119 794.602,1055.311 794.362,1055.359 793.161,1055.568 792.632,1052.556 
	793.834,1052.348 795.211,1052.108 795.467,1053.277 795.612,1054.655 795.66,1055.103 "/>
<polygon fill="#D6866E" points="791.606,1199.062 791.27,1199.735 790.149,1199.11 790.469,1198.486 791.478,1198.998 "/>
<polygon fill="#D6866E" points="791.254,1196.948 791.142,1197.156 790.982,1197.493 790.885,1197.653 790.469,1198.486 
	790.149,1199.11 785.376,1196.42 785.68,1195.907 785.103,1195.555 784.783,1196.083 778.505,1192.543 779.834,1190.397 
	784.639,1193.136 791.174,1196.9 "/>
<polygon fill="#D6866E" points="825.569,1192.248 825.297,1192.264 824.992,1192.264 824.688,1192.264 824.672,1191.72 
	825.569,1191.688 825.569,1192.184 "/>
<polygon fill="#D6866E" points="824.224,1192.264 822.718,1192.328 821.357,1192.697 821.373,1192.12 820.476,1192.104 
	820.267,1192.12 820.187,1191.848 821.869,1191.784 824.111,1190.999 "/>
<polygon fill="#D6866E" points="830.134,1189.958 830.182,1189.974 830.262,1190.326 830.534,1190.551 831.687,1190.663 
	831.976,1190.711 831.928,1190.903 831.88,1191.079 831.864,1191.191 831.815,1191.399 831.735,1191.704 831.639,1192.104 
	827.507,1191.159 827.107,1190.727 827.107,1190.454 827.107,1190.022 827.187,1190.022 827.235,1190.454 827.459,1190.406 
	827.747,1190.39 827.971,1190.438 828.292,1190.39 828.372,1189.99 828.42,1189.766 "/>
<polygon fill="#D6866E" points="854.912,1168.863 855.056,1168.911 855.056,1168.927 854.992,1169.135 854.848,1169.6 
	854.143,1169.408 853.951,1169.344 853.903,1169.328 853.935,1169.103 853.951,1168.975 853.983,1168.783 853.983,1168.751 
	854.896,1168.863 "/>
<polygon fill="#D6866E" points="849.786,1149.883 849.194,1152.109 848.889,1152.029 848.569,1151.949 848.553,1152.013 
	848.473,1151.981 848.073,1151.885 847.992,1151.853 847.928,1151.837 847.832,1151.821 847.496,1151.725 847.512,1151.645 
	847.512,1151.597 847.944,1150.011 848.024,1149.723 848.056,1149.578 848.073,1149.514 849.482,1149.819 "/>
<polygon fill="#D6866E" points="855.2,1148.473 855.008,1148.393 854.639,1148.281 854.767,1147.913 855.328,1148.089 "/>
<polygon fill="#D6866E" points="791.565,1199.136 791.229,1199.809 790.124,1199.184 790.428,1198.559 791.437,1199.072 "/>
<polygon fill="#D6866E" points="783.925,1192.825 784.598,1193.209 791.133,1196.974 791.213,1197.021 791.117,1197.23 
	790.941,1197.566 790.861,1197.726 790.428,1198.559 790.124,1199.184 785.335,1196.493 785.639,1195.98 785.063,1195.628 
	784.758,1196.157 783.925,1195.692 "/>
<polygon fill="#D6866E" points="754.234,1338.993 754.218,1340.05 753.113,1340.002 753.081,1338.288 753.689,1338.304 
	753.673,1338.977 "/>
<polygon fill="#D6866E" points="1033.948,1126.63 1033.498,1128.315 1032.021,1127.898 1032.069,1127.561 1032.182,1126.566 "/>
<polygon fill="#D6866E" points="900.808,1160.872 900.68,1161.562 900.23,1161.482 899.973,1161.433 900.118,1160.711 "/>
<polygon fill="#D6866E" points="865.43,1266.72 865.366,1266.72 865.302,1266.688 865.254,1266.672 865.206,1266.64 
	865.189,1266.495 865.238,1265.323 865.238,1265.307 865.238,1265.227 865.254,1265.179 865.286,1265.115 865.334,1265.083 
	865.43,1265.035 865.494,1265.018 865.575,1265.051 865.591,1265.051 865.735,1265.099 866.939,1265.5 866.987,1265.516 
	867.003,1265.548 867.019,1265.58 867.035,1265.628 867.003,1265.661 866.971,1265.709 866.763,1265.885 865.494,1266.688 "/>
<polygon fill="#D6866E" points="855.558,1250.507 855.623,1250.507 855.478,1251.181 855.334,1251.165 854.258,1251.037 
	854.178,1251.037 854.258,1250.411 855.125,1250.475 855.43,1250.507 855.494,1250.507 "/>
<path fill="#D6866E" d="M946.379,1166.843l0.77,0.128l0.353-0.032l0.177,0.144h0.016l0.016,0.048l0.08,0.08l0.257-0.225l0.016,0.032
	l0.128,0.658l0.369,0.048l0.016,0.032l0.016,0.289l-0.08,0.353l-1.22-0.417l-1.011-0.353l-0.032-0.786H946.379z M946.138,1164.724
	l-2.006,0.385l0.096-0.016l0.867-0.177l1.043-0.209V1164.724z"/>
<path fill="#D6866E" d="M989.195,1167.24l-0.064,0.209l-0.128-0.08L989.195,1167.24z M990.399,1166.068l-0.77,0.289l0.064-0.161
	L990.399,1166.068z"/>
<polygon fill="#D6866E" points="1019.164,1142.279 1019.132,1143.114 1019.019,1143.114 1017.896,1143.098 1017.944,1142.263 
	1019.052,1142.279 "/>
<polygon fill="#D6866E" points="1033.915,1126.66 1033.466,1128.33 1031.989,1127.928 1032.037,1127.591 1032.15,1126.58 "/>
<path fill="#D6866E" d="M946.402,1166.951l0.771,0.128l0.353-0.032l0.193,0.145l0.032,0.048l0.064,0.08l0.257-0.225l0.032,0.032
	l0.128,0.658l0.369,0.048v0.032l0.032,0.289l-0.096,0.353l-1.204-0.417l-1.011-0.353l-0.032-0.787H946.402z M946.161,1164.832
	l-2.006,0.385l0.112-0.016l0.867-0.177l1.027-0.209V1164.832z"/>
<polygon fill="#D6866E" points="865.488,1266.779 865.423,1266.779 865.359,1266.763 865.311,1266.747 865.311,1266.731 
	865.263,1266.699 865.247,1266.555 865.295,1265.399 865.295,1265.367 865.295,1265.287 865.311,1265.238 865.343,1265.19 
	865.391,1265.142 865.488,1265.11 865.552,1265.094 865.632,1265.11 865.648,1265.126 865.793,1265.174 866.996,1265.559 
	867.045,1265.592 867.061,1265.624 867.077,1265.656 867.093,1265.688 867.061,1265.736 867.029,1265.784 866.82,1265.961 
	865.552,1266.747 "/>
<polygon fill="#D6866E" points="855.616,1250.583 855.68,1250.583 855.536,1251.257 855.391,1251.241 854.316,1251.112 
	854.235,1251.096 854.316,1250.486 855.182,1250.551 855.487,1250.567 855.552,1250.567 "/>
<polygon fill="#D6866E" points="749.054,1541.885 748.734,1542.013 748.942,1542.445 747.021,1543.246 746.013,1541.213 
	748.334,1540.268 748.958,1541.693 "/>
<polygon fill="#D6866E" points="824.721,1344.287 824.737,1343.343 824.962,1343.343 824.994,1343.343 825.522,1343.295 
	826.082,1343.262 826.05,1343.391 826.05,1343.406 825.922,1343.967 825.778,1344.527 825.714,1344.831 825.682,1344.815 
	825.426,1344.751 825.41,1344.735 825.09,1344.463 824.978,1344.351 "/>
<polygon fill="#D6866E" points="823.905,1394.328 824.337,1394.376 824.449,1394.376 824.369,1394.824 824.193,1396.104 
	821.68,1396.2 821.664,1397.193 820.592,1397.113 820.528,1397.097 819.551,1397.033 819.551,1396.953 819.615,1396.425 
	820.271,1396.473 820.335,1395.576 819.711,1395.528 819.791,1394.76 819.791,1394.728 819.823,1394.456 819.855,1393.895 
	820.752,1393.975 822.336,1394.151 823.025,1394.232 "/>
<polygon fill="#D6866E" points="779.469,1387.509 779.069,1387.526 779.069,1387.494 779.069,1387.381 779.037,1386.501 
	779.421,1386.501 "/>
<polygon fill="#D6866E" points="779.495,1387.521 779.095,1387.521 779.095,1387.505 779.095,1387.377 779.063,1386.497 
	779.447,1386.497 "/>
<polygon fill="#D6866E" points="791.757,1479.07 791.725,1479.086 790.796,1479.166 790.764,1479.166 790.7,1479.166 
	790.076,1479.23 789.644,1479.198 789.628,1479.198 789.628,1479.182 789.612,1479.054 789.58,1478.654 789.564,1478.334 
	789.532,1477.95 789.451,1477.021 789.435,1476.861 789.435,1476.797 789.468,1476.797 789.804,1476.781 789.996,1476.781 
	790.124,1476.765 791.5,1476.701 791.596,1476.685 "/>
<polygon fill="#D6866E" points="806.964,1438.602 806.163,1438.714 806.163,1438.618 806.163,1438.554 806.131,1438.17 
	806.099,1437.802 806.083,1437.482 806.067,1437.162 806.067,1437.146 806.275,1437.146 806.819,1437.098 806.948,1438.522 "/>
<polygon fill="#D6866E" points="801.921,1479.55 801.905,1479.566 801.617,1480.015 801.297,1480.495 801.217,1480.607 
	800.913,1481.087 800.865,1481.183 800.368,1481.92 799.52,1481.391 799.296,1481.247 798.848,1481.263 798.832,1480.495 
	798.816,1480.319 799.344,1480.207 799.968,1480.063 800.721,1479.871 800.945,1479.823 801.025,1479.791 801.201,1479.678 
	801.297,1479.615 801.617,1479.374 801.665,1479.39 801.873,1479.518 801.889,1479.534 "/>
<polygon fill="#D6866E" points="769.33,1417.184 769.314,1416.704 769.314,1416.688 769.81,1416.72 769.779,1417.232 "/>
<polygon fill="#D6866E" points="801.914,1479.529 801.898,1479.545 801.626,1479.993 801.305,1480.474 801.225,1480.586 
	800.905,1481.066 800.857,1481.162 800.361,1481.898 799.513,1481.37 799.305,1481.226 798.84,1481.242 798.824,1480.474 
	798.824,1480.297 799.336,1480.185 799.961,1480.041 800.729,1479.849 800.937,1479.801 801.017,1479.769 801.193,1479.657 
	801.289,1479.593 801.626,1479.353 801.658,1479.369 801.866,1479.497 801.898,1479.513 "/>
<polygon fill="#D6866E" points="822.419,1408.662 822.403,1408.726 822.387,1408.838 822.339,1409.11 822.323,1409.223 
	821.507,1409.078 821.571,1408.598 821.571,1408.566 821.763,1408.598 822.275,1408.646 "/>
<polygon fill="#D6866E" points="791.765,1479.049 791.717,1479.065 790.789,1479.145 790.773,1479.145 790.693,1479.145 
	790.068,1479.209 789.636,1479.177 789.62,1479.177 789.62,1479.161 789.62,1479.033 789.588,1478.633 789.556,1478.312 
	789.524,1477.928 789.46,1477 789.444,1476.84 789.444,1476.776 789.46,1476.776 789.796,1476.76 789.988,1476.76 790.116,1476.744 
	791.509,1476.68 791.589,1476.664 "/>
<polygon fill="#D6866E" points="806.956,1438.581 806.172,1438.693 806.156,1438.597 806.156,1438.533 806.124,1438.149 
	806.108,1437.781 806.092,1437.46 806.06,1437.14 806.06,1437.124 806.268,1437.124 806.812,1437.076 806.94,1438.501 "/>
<polygon fill="#D6866E" points="823.924,1394.303 824.356,1394.351 824.468,1394.367 824.388,1394.816 824.212,1396.096 
	821.699,1396.192 821.683,1397.169 820.61,1397.089 820.546,1397.089 819.57,1397.009 819.57,1396.945 819.634,1396.416 
	820.29,1396.464 820.354,1395.568 819.73,1395.52 819.81,1394.751 819.81,1394.719 819.842,1394.431 819.874,1393.871 
	820.77,1393.951 822.355,1394.127 823.043,1394.207 "/>
</svg>
