<?xml version="1.0" encoding="utf-8"?>
<!-- Generator: Adobe Illustrator 17.0.0, SVG Export Plug-In . SVG Version: 6.00 Build 0)  -->
<!DOCTYPE svg PUBLIC "-//W3C//DTD SVG 1.1//EN" "http://www.w3.org/Graphics/SVG/1.1/DTD/svg11.dtd">
<svg version="1.1" id="Layer_2" xmlns="http://www.w3.org/2000/svg" xmlns:xlink="http://www.w3.org/1999/xlink" x="0px" y="0px"
	 width="1840px" height="2400px" viewBox="0 0 1840 2400" enable-background="new 0 0 1840 2400" xml:space="preserve">
<polygon fill="#D6866E" points="951.683,1520.591 951.542,1520.857 949.879,1520.104 950.114,1519.775 950.6,1520.01 
	951.573,1520.559 "/>
<polygon fill="#D6866E" points="950.255,1526.96 949.895,1527.713 949.863,1527.807 949.283,1527.556 949.298,1527.415 
	949.314,1527.211 949.393,1526.913 949.487,1526.693 "/>
<polygon fill="#D6866E" points="951.692,1520.58 951.551,1520.847 949.888,1520.094 950.124,1519.765 950.594,1520 
	951.583,1520.549 "/>
<polygon fill="#D6866E" points="950.265,1526.949 949.904,1527.702 949.857,1527.796 949.292,1527.545 949.308,1527.404 
	949.308,1527.2 949.402,1526.902 949.496,1526.682 "/>
<polygon fill="#D6866E" points="912.066,1604.411 911.894,1604.897 911.345,1604.677 911.502,1604.238 "/>
<polygon fill="#D6866E" points="883.925,1622.043 883.47,1622.419 883.031,1622.812 883,1622.827 882.215,1621.917 
	881.996,1621.635 881.87,1621.51 881.886,1621.494 882.011,1621.306 882.341,1620.819 882.576,1620.458 882.686,1620.584 
	882.686,1620.6 882.843,1620.772 883.501,1621.541 883.909,1622.012 "/>
<polygon fill="#D6866E" points="943.141,1588.332 943.439,1588.567 943.549,1588.645 943.8,1588.865 943.91,1588.959 
	945.024,1589.869 944.004,1591.061 943.753,1590.842 943.549,1590.653 943.941,1590.277 943.361,1589.791 942.984,1590.151 
	942.608,1589.822 942.53,1589.743 942.482,1589.712 942.184,1589.43 941.902,1589.179 942.765,1588.018 942.984,1588.19 "/>
<polygon fill="#D6866E" points="949.73,1553.161 949.714,1553.271 949.714,1553.287 948.773,1553.491 948.694,1553.507 
	948.051,1554.416 947.8,1554.181 947.518,1554.024 947.377,1553.977 947.69,1553.067 947.706,1552.958 947.737,1552.848 
	947.8,1552.863 "/>
<polygon fill="#D6866E" points="931.392,1639.942 931.408,1640.036 931.674,1640.616 931.078,1640.852 930.89,1640.036 
	930.012,1640.099 930.012,1640.067 929.965,1639.832 929.447,1639.895 929.337,1638.53 929.494,1638.514 931.188,1638.342 "/>
<polygon fill="#D6866E" points="951.69,1520.58 951.549,1520.862 949.886,1520.109 950.122,1519.764 950.592,1520.015 
	951.581,1520.548 "/>
<polygon fill="#D6866E" points="959.941,1575.625 959.847,1575.735 959.424,1576.268 959.314,1576.174 959.283,1576.159 
	959.22,1576.237 958.498,1575.704 959.094,1574.966 "/>
<polygon fill="#D6866E" points="950.263,1526.949 949.902,1527.717 949.855,1527.811 949.29,1527.56 949.306,1527.403 
	949.306,1527.215 949.4,1526.917 949.494,1526.682 "/>
<polygon fill="#D6866E" points="912.835,1606.23 912.804,1606.215 911.925,1605.901 912.051,1605.587 912.082,1605.477 
	912.255,1605.54 912.286,1605.556 912.474,1605.587 912.49,1605.587 912.631,1605.619 912.647,1605.619 912.694,1605.619 
	912.788,1605.619 912.867,1605.603 912.898,1605.603 912.929,1605.603 912.992,1605.572 913.023,1605.556 913.039,1605.556 
	913.102,1605.509 913.117,1605.493 913.18,1605.43 913.086,1605.65 913.055,1605.744 912.976,1605.901 "/>
<polygon fill="#D6866E" points="941.957,1589.096 942.757,1588.013 942.977,1588.186 943.134,1588.327 943.432,1588.562 
	943.542,1588.641 943.808,1588.86 943.918,1588.955 945.016,1589.864 943.997,1591.057 943.761,1590.837 943.557,1590.649 
	943.95,1590.272 943.354,1589.786 942.977,1590.147 942.601,1589.817 942.522,1589.739 942.475,1589.708 942.177,1589.425 
	941.957,1589.221 "/>
<polygon fill="#D6866E" points="949.722,1553.157 949.707,1553.267 949.707,1553.282 948.765,1553.486 948.687,1553.502 
	948.059,1554.412 947.808,1554.177 947.51,1554.02 947.369,1553.973 947.683,1553.063 947.714,1552.953 947.746,1552.843 
	947.808,1552.859 "/>
<polygon fill="#D6866E" points="951.683,1520.575 951.542,1520.857 949.879,1520.104 950.114,1519.759 950.601,1520.01 
	951.573,1520.544 "/>
<polygon fill="#D6866E" points="959.95,1575.621 959.84,1575.73 959.416,1576.264 959.307,1576.17 959.275,1576.154 
	959.213,1576.232 958.507,1575.699 959.103,1574.962 "/>
<polygon fill="#D6866E" points="950.256,1526.944 949.895,1527.713 949.863,1527.807 949.283,1527.556 949.299,1527.399 
	949.314,1527.211 949.393,1526.913 949.487,1526.677 "/>
<polygon fill="#D6866E" points="896.092,1712.082 895.575,1713.274 895.01,1712.992 895.512,1711.816 "/>
<polygon fill="#D6866E" points="917.003,1685.681 917.505,1685.006 917.646,1685.116 917.802,1685.242 917.316,1685.916 
	917.112,1685.775 "/>
<polygon fill="#D6866E" points="921.661,1679.72 921.316,1680.536 920.391,1682.214 920.046,1682.873 919.983,1682.967 
	919.544,1682.701 919.355,1682.575 919.403,1682.512 920.752,1680.599 921.018,1680.253 921.316,1679.642 921.442,1679.673 "/>
<polygon fill="#D6866E" points="877.356,1782.51 877.805,1782.558 877.805,1782.639 877.805,1782.831 877.757,1783.825 
	876.186,1783.761 876.138,1783.761 876.186,1783.408 876.202,1783.28 876.234,1782.623 876.25,1782.366 "/>
<polygon fill="#D6866E" points="801.355,1766.318 801.195,1766.991 800.634,1769.236 800.618,1769.268 799.688,1769.028 
	800.281,1766.735 800.57,1766.815 800.778,1766.141 "/>
<polygon fill="#D6866E" points="809.132,1750.395 808.972,1750.715 808.459,1750.475 808.587,1750.138 808.715,1750.202 "/>
<polygon fill="#D6866E" points="815.322,1757.065 815.386,1756.809 815.562,1756.857 815.498,1757.097 "/>
<polygon fill="#D6866E" points="805.412,1739.234 805.043,1740.148 804.723,1739.939 804.643,1739.891 804.771,1739.667 
	803.985,1739.106 803.825,1739.33 803.681,1739.25 803.6,1739.186 803.584,1739.17 803.103,1738.881 803.167,1738.769 
	803.199,1738.721 803.312,1738.576 804.129,1737.326 804.226,1737.197 804.498,1736.748 806.278,1737.999 "/>
<polygon fill="#D6866E" points="816.861,1765.195 816.797,1765.388 816.669,1765.356 816.476,1765.291 816.54,1765.099 "/>
<polygon fill="#D6866E" points="801.368,1766.314 801.191,1766.988 800.63,1769.233 800.614,1769.265 799.684,1769.024 
	800.277,1766.731 800.582,1766.811 800.774,1766.138 "/>
<polygon fill="#D6866E" points="881.237,1767.549 881.029,1767.533 881.093,1767.196 881.109,1767.116 881.109,1767.084 
	881.686,1767.132 881.638,1767.597 881.318,1767.565 "/>
<polygon fill="#D6866E" points="860.681,1718.978 861.194,1719.234 861.13,1719.363 861.098,1719.443 859.687,1718.833 
	859.654,1718.817 859.077,1720.116 858.452,1719.844 858.195,1719.747 857.538,1719.459 857.121,1719.282 855.662,1718.609 
	855.999,1717.871 856.143,1717.567 856.239,1717.358 856.383,1717.037 858.516,1718.064 858.757,1718 859.206,1718.24 "/>
<polygon fill="#D6866E" points="882.857,1751.321 881.237,1751.177 881.269,1750.936 881.269,1750.776 882.889,1750.936 
	882.873,1751.065 "/>
<polygon fill="#D6866E" points="877.357,1782.51 877.806,1782.558 877.806,1782.638 877.806,1782.847 877.758,1783.825 
	876.186,1783.777 876.138,1783.761 876.186,1783.408 876.202,1783.296 876.234,1782.622 876.251,1782.366 "/>
<polygon fill="#D6866E" points="809.129,1750.391 808.984,1750.712 808.455,1750.471 808.583,1750.135 808.712,1750.199 "/>
<polygon fill="#D6866E" points="829.701,1750.151 829.188,1750.118 828.098,1750.07 828.13,1749.798 829.669,1749.894 "/>
<polygon fill="#D6866E" points="843.539,1740.112 843.571,1740.144 843.571,1740.289 843.539,1740.353 843.491,1740.385 
	843.363,1740.433 843.219,1740.465 843.187,1740.177 843.251,1739.856 843.331,1739.744 843.443,1739.904 "/>
<polygon fill="#D6866E" points="815.318,1757.062 815.382,1756.805 815.559,1756.853 815.494,1757.094 "/>
<polygon fill="#D6866E" points="895.909,1721.335 895.765,1721.928 895.316,1721.832 895.46,1721.223 "/>
<polygon fill="#D6866E" points="805.409,1739.23 805.04,1740.144 804.719,1739.936 804.639,1739.888 804.783,1739.663 
	803.981,1739.102 803.821,1739.327 803.693,1739.246 803.613,1739.182 803.581,1739.166 803.099,1738.878 803.18,1738.765 
	803.212,1738.717 803.308,1738.573 804.126,1737.322 804.222,1737.194 804.495,1736.745 806.274,1737.996 "/>
<polygon fill="#D6866E" points="816.857,1765.192 816.793,1765.384 816.681,1765.352 816.473,1765.288 816.537,1765.095 "/>
<polygon fill="#D6866E" points="787.753,1834.385 787.16,1835.09 787.016,1834.946 787.625,1834.273 "/>
<polygon fill="#D6866E" points="793.192,1719.34 793.208,1719.324 793.77,1718.714 793.914,1718.875 793.32,1719.484 "/>
<polygon fill="#D6866E" points="805.514,1685.887 805.626,1685.935 805.594,1686.047 804.92,1685.839 804.969,1685.71 "/>
<polygon fill="#D6866E" points="816.956,1539.995 816.908,1539.899 816.956,1539.883 "/>
<polygon fill="#D6866E" points="852.669,1627.775 852.203,1627.63 852.3,1627.293 852.797,1627.293 "/>
<polygon fill="#D6866E" points="839.994,1629.844 839.368,1629.668 839.4,1629.507 840.026,1629.652 "/>
<polygon fill="#D6866E" points="845.593,1579.576 843.925,1579.608 843.893,1578.261 845.449,1578.18 845.465,1578.261 
	845.529,1578.469 845.609,1578.758 845.609,1578.774 845.609,1578.918 845.625,1578.999 845.625,1579.095 845.625,1579.287 
	845.609,1579.528 "/>
<polygon fill="#D6866E" points="843.379,1565.73 842.737,1566.195 843.042,1566.676 843.556,1567.511 842.32,1567.687 
	840.924,1567.896 840.539,1566.708 840.379,1566.259 841.181,1565.986 840.989,1565.377 841.181,1565.377 842.112,1565.537 
	843.106,1565.682 843.219,1565.714 "/>
<polygon fill="#D6866E" points="817.484,1540.203 817.484,1540.251 817.452,1540.299 817.404,1540.347 817.372,1540.347 
	817.339,1540.347 817.179,1540.507 816.97,1540.026 816.922,1539.914 817.291,1539.769 817.355,1539.898 "/>
<polygon fill="#D6866E" points="793.187,1719.355 793.219,1719.339 793.78,1718.729 793.925,1718.889 793.331,1719.499 "/>
<polygon fill="#D6866E" points="805.525,1685.901 805.637,1685.95 805.589,1686.062 804.931,1685.853 804.979,1685.725 "/>
<polygon fill="#D6866E" points="745.786,1865.456 745.803,1865.505 745.626,1865.585 745.305,1864.91 745.481,1864.83 "/>
<polygon fill="#D6866E" points="762.207,1786.789 761.741,1786.756 761.741,1786.644 762.207,1786.676 "/>
<polygon fill="#D6866E" points="777.392,1722.585 777.087,1722.392 777.151,1722.312 777.36,1722.023 777.649,1722.264 "/>
<polygon fill="#D6866E" points="762.161,1786.776 761.695,1786.744 761.695,1786.647 762.161,1786.663 "/>
<polygon fill="#D6866E" points="726.234,1701.119 725.479,1701.44 725.415,1701.327 726.17,1700.99 "/>
<polygon fill="#D6866E" points="710.987,1689.727 711.131,1690.193 711.003,1690.096 710.681,1690.257 710.697,1689.855 
	710.665,1689.662 710.858,1689.694 710.971,1689.727 "/>
<polygon fill="#D6866E" points="817.431,1938.196 816.935,1938.164 816.951,1937.989 816.983,1937.445 817.463,1937.445 "/>
<polygon fill="#D6866E" points="806.021,1922.68 805.958,1922.648 805.526,1922.344 805.478,1922.249 805.462,1922.217 
	805.462,1922.169 805.462,1922.121 805.462,1922.089 805.478,1922.009 805.494,1921.945 805.526,1921.913 805.542,1921.881 
	805.99,1921.625 "/>
<polygon fill="#D6866E" points="796.434,1929.583 796.274,1930.079 796.178,1930.271 796.082,1930.43 796.05,1930.478 
	795.763,1930.846 795.731,1930.894 795.667,1930.926 795.571,1930.958 795.523,1930.958 795.459,1930.974 795.363,1930.974 
	795.283,1930.974 795.251,1930.974 795.172,1930.974 795.092,1930.958 795.028,1930.958 795.012,1930.958 794.948,1930.942 
	794.9,1930.926 794.868,1930.894 794.804,1930.83 794.788,1930.814 794.708,1930.734 794.58,1930.574 794.772,1929.408 
	794.82,1929.408 796.306,1929.567 "/>
<polygon fill="#D6866E" points="749.822,1969.277 750.286,1969.517 750.334,1969.533 750.254,1969.693 749.663,1970.811 
	749.503,1970.715 749.391,1970.651 749.024,1970.459 749.407,1969.788 749.615,1969.373 749.711,1969.213 "/>
<polygon fill="#D6866E" points="769.525,1955.295 769.141,1956.014 768.71,1955.598 768.151,1955.055 767.863,1954.783 
	767.799,1954.735 767.4,1954.288 767.464,1954.224 767.543,1954.16 768.231,1954.528 768.998,1954.975 "/>
<polygon fill="#D6866E" points="756.134,1950.213 755.99,1950.964 755.895,1950.948 755.559,1950.868 755.703,1950.149 "/>
<polygon fill="#D6866E" points="817.239,1938.18 816.919,1938.164 816.935,1937.989 816.983,1937.445 817.239,1937.445 "/>
<polygon fill="#D6866E" points="806.021,1922.68 805.958,1922.648 805.51,1922.344 805.478,1922.249 805.462,1922.217 
	805.446,1922.169 805.446,1922.121 805.462,1922.089 805.462,1922.009 805.494,1921.945 805.51,1921.913 805.542,1921.881 
	805.989,1921.625 "/>
<polygon fill="#D6866E" points="796.418,1929.583 796.274,1930.079 796.178,1930.271 796.066,1930.43 796.034,1930.478 
	795.763,1930.846 795.715,1930.894 795.667,1930.926 795.571,1930.958 795.507,1930.958 795.459,1930.974 795.363,1930.974 
	795.283,1930.974 795.251,1930.974 795.156,1930.974 795.092,1930.958 795.028,1930.958 794.996,1930.958 794.948,1930.942 
	794.9,1930.926 794.852,1930.894 794.788,1930.83 794.788,1930.814 794.692,1930.734 794.564,1930.574 794.772,1929.408 
	794.82,1929.408 796.306,1929.567 "/>
<polygon fill="#D6866E" points="778.202,1910.585 777.978,1910.249 778.218,1910.105 778.25,1910.041 778.25,1910.009 
	778.282,1910.009 778.33,1910.025 778.777,1910.137 778.538,1910.329 778.426,1910.409 "/>
<polygon fill="#D6866E" points="766.393,1901.588 766.186,1901.588 765.85,1901.572 765.898,1900.949 766.058,1900.949 
	766.106,1900.949 766.281,1900.933 766.345,1900.933 766.713,1900.933 766.729,1901.029 766.729,1901.173 766.665,1901.588 "/>
<polygon fill="#D6866E" points="760.337,1889.38 759.97,1889.38 759.922,1889.092 760.273,1889.028 "/>
<polygon fill="#D6866E" points="761.839,1883.083 761.839,1883.195 761.839,1883.211 761.839,1883.227 761.871,1883.355 
	761.951,1883.691 762.367,1884.921 762.063,1885.001 761.983,1885.017 761.488,1884.985 761.312,1884.985 760.913,1884.953 
	760.689,1884.953 760.609,1884.953 759.97,1884.825 760.369,1884.522 760.737,1884.234 760.976,1882.924 761.807,1883.083 "/>
<polygon fill="#D6866E" points="738.014,1889.667 738.43,1889.859 738.03,1890.306 737.647,1890.754 737.311,1890.514 
	737.279,1890.466 737.95,1889.651 "/>
<polygon fill="#D6866E" points="817.239,1938.182 816.92,1938.166 816.936,1937.974 816.984,1937.447 817.239,1937.431 "/>
<polygon fill="#D6866E" points="806.022,1922.681 805.958,1922.633 805.51,1922.33 805.479,1922.25 805.463,1922.218 
	805.447,1922.154 805.447,1922.106 805.463,1922.074 805.463,1921.994 805.495,1921.93 805.51,1921.898 805.542,1921.866 
	805.99,1921.611 "/>
<polygon fill="#D6866E" points="796.418,1929.569 796.275,1930.064 796.179,1930.256 796.067,1930.416 796.035,1930.464 
	795.763,1930.847 795.715,1930.879 795.667,1930.911 795.571,1930.943 795.508,1930.943 795.46,1930.959 795.364,1930.959 
	795.284,1930.959 795.252,1930.959 795.156,1930.959 795.092,1930.959 795.028,1930.943 794.996,1930.943 794.948,1930.927 
	794.9,1930.911 794.852,1930.879 794.788,1930.815 794.693,1930.719 794.565,1930.575 794.772,1929.393 794.82,1929.409 
	796.307,1929.553 "/>
<polygon fill="#D6866E" points="817.43,1938.18 816.935,1938.164 816.951,1937.972 816.983,1937.445 817.462,1937.429 "/>
<polygon fill="#D6866E" points="806.021,1922.68 805.957,1922.632 805.526,1922.328 805.478,1922.248 805.462,1922.216 
	805.462,1922.152 805.462,1922.105 805.462,1922.073 805.478,1921.993 805.494,1921.929 805.526,1921.897 805.542,1921.865 
	805.989,1921.609 "/>
<polygon fill="#D6866E" points="824.173,1895.37 824.157,1895.434 824.109,1895.594 824.062,1895.722 824.03,1895.866 
	823.966,1895.994 823.822,1896.297 823.742,1896.441 823.422,1896.153 823.742,1895.307 "/>
<polygon fill="#D6866E" points="796.433,1929.567 796.274,1930.062 796.178,1930.254 796.082,1930.414 796.05,1930.462 
	795.762,1930.845 795.73,1930.877 795.667,1930.909 795.571,1930.941 795.523,1930.941 795.459,1930.957 795.363,1930.957 
	795.283,1930.957 795.251,1930.957 795.171,1930.957 795.091,1930.957 795.027,1930.941 795.011,1930.941 794.947,1930.925 
	794.9,1930.909 794.868,1930.877 794.804,1930.813 794.788,1930.813 794.708,1930.718 794.58,1930.574 794.772,1929.391 
	794.82,1929.407 796.306,1929.551 "/>
<polygon fill="#D6866E" points="711.116,1981.604 710.956,1982.102 710.682,1982.006 710.731,1981.813 710.843,1981.508 "/>
<polygon fill="#D6866E" points="661.343,2002.626 661.632,2002.643 661.857,2002.659 661.921,2002.675 661.938,2002.723 
	661.921,2002.787 661.343,2003.028 "/>
<polygon fill="#D6866E" points="723.765,2017.831 723.556,2018.04 723.138,2017.606 723.347,2017.381 723.54,2017.589 "/>
<polygon fill="#D6866E" points="741.186,1993.771 740.736,1994.558 740.527,1994.542 740.672,1994.285 740.993,1993.706 
	741.09,1993.739 "/>
<polygon fill="#D6866E" points="744.191,1998.094 744.095,1998.255 743.918,1998.544 743.822,1998.48 744.079,1998.03 "/>
<polygon fill="#D6866E" points="689.114,1986.908 689.082,1987.165 689.066,1987.342 689.05,1987.39 688.632,1986.667 
	688.729,1986.603 688.873,1986.506 "/>
<polygon fill="#D6866E" points="661.268,2003.076 661.14,2002.61 661.638,2002.643 661.879,2002.659 661.944,2002.675 
	661.96,2002.723 661.944,2002.787 "/>
<polygon fill="#D6866E" points="634.493,2003.173 634.429,2003.141 634.317,2003.06 634.027,2002.868 633.947,2002.803 
	634.284,2002.417 634.429,2002.273 634.927,2002.643 634.815,2002.787 "/>
<polygon fill="#D6866E" points="689.137,1986.908 689.104,1987.165 689.072,1987.342 689.072,1987.39 688.638,1986.667 
	688.751,1986.603 688.879,1986.506 "/>
<polygon fill="#D6866E" points="710.593,1922.969 710.448,1922.84 710.641,1922.486 710.785,1922.567 "/>
<polygon fill="#D6866E" points="699.953,1915.913 700.066,1915.961 700.178,1916.009 700.339,1916.026 701.062,1916.138 
	701.239,1917.102 701.046,1917.07 700.837,1917.038 700.387,1916.974 700.226,1916.942 699.809,1916.877 699.68,1916.845 
	699.584,1916.829 699.568,1916.829 699.519,1916.829 699.471,1916.813 699.391,1916.797 699.535,1915.881 699.568,1915.688 
	699.632,1915.752 699.744,1915.768 699.937,1915.913 "/>
<polygon fill="#D6866E" points="729.766,1950.468 729.653,1950.95 728.946,1950.789 729.043,1950.291 729.139,1950.307 
	729.155,1950.307 729.589,1950.42 729.75,1950.468 "/>
<polygon fill="#D6866E" points="679.462,1890.085 679.028,1890.166 678.916,1890.182 678.867,1889.925 679.414,1889.812 "/>
<polygon fill="#D6866E" points="679.463,1890.095 679.013,1890.176 678.916,1890.192 678.868,1889.935 679.398,1889.822 "/>
<polygon fill="#D6866E" points="753.219,1977.442 753.38,1977.442 753.621,1977.458 753.782,1977.458 753.927,1977.474 
	753.943,1977.474 753.975,1977.474 753.975,1977.844 753.959,1977.892 753.959,1978.005 753.943,1978.439 753.943,1978.568 
	754.007,1978.584 754.007,1978.616 753.991,1978.922 753.991,1979.099 753.975,1979.147 753.975,1979.276 753.975,1979.55 
	753.975,1979.598 753.959,1979.887 753.959,1980.032 753.943,1980.177 753.943,1980.306 753.943,1980.402 753.943,1980.467 
	753.943,1980.531 753.927,1980.595 753.862,1980.595 753.573,1980.611 752.962,1980.66 752.978,1980.354 752.752,1980.354 
	752.801,1979.26 752.833,1978.279 752.865,1977.603 752.865,1977.539 752.881,1977.506 752.897,1977.49 752.913,1977.474 
	752.945,1977.458 752.962,1977.442 752.994,1977.442 753.074,1977.426 "/>
<polygon fill="#D6866E" points="765.349,1999.032 764.818,1999.241 764.721,1999 764.705,1998.984 765.22,1998.775 
	765.236,1998.775 765.333,1999 "/>
<polygon fill="#D6866E" points="745.996,2033.203 746.205,2033.509 746.012,2033.589 745.996,2033.573 745.947,2033.573 
	745.722,2033.235 745.658,2033.171 745.594,2033.058 745.561,2033.026 745.803,2032.913 "/>
<polygon fill="#D6866E" points="725.79,2032.543 725.726,2032.592 725.5,2032.704 725.452,2032.72 725.388,2032.72 
	725.339,2032.672 725.034,2032.077 725.42,2031.868 725.452,2031.916 725.484,2031.98 "/>
<polygon fill="#D6866E" points="769.29,2023.952 768.261,2023.984 768.036,2023.984 767.955,2023.984 767.875,2024.001 
	767.842,2024.001 767.585,2024.001 767.585,2023.984 767.569,2023.582 769.29,2023.534 "/>
<polygon fill="#D6866E" points="762.791,2001.027 762.485,2001.172 762.308,2000.882 762.63,2000.737 "/>
<polygon fill="#D6866E" points="801.705,2040.314 801.544,2040.298 801.544,2040.201 801.56,2039.622 801.705,2039.606 
	801.705,2039.831 801.705,2039.992 "/>
<polygon fill="#D6866E" points="796.429,2027.686 796.349,2027.67 796.107,2027.622 795.931,2027.59 796.011,2027.333 
	796.059,2027.3 796.236,2027.043 796.526,2027.075 796.526,2027.139 796.526,2027.252 "/>
<polygon fill="#D6866E" points="789.03,2024.131 789.046,2024.373 788.837,2024.373 788.837,2024.131 "/>
<polygon fill="#D6866E" points="790.815,1982.051 790.606,1983.402 790.462,1983.386 790.655,1982.035 "/>
<polygon fill="#D6866E" points="793.662,1999.617 792.424,1999.729 792.408,1999.472 793.646,1999.375 "/>
<polygon fill="#D6866E" points="802.686,1978.223 802.445,1979.107 802.091,1979.027 802.332,1978.142 "/>
<polygon fill="#D6866E" points="788.646,2116.05 788.678,2116.082 788.646,2116.258 788.646,2116.338 788.486,2116.323 
	788.373,2116.306 788.405,2116.018 788.454,2116.034 788.518,2116.034 "/>
<polygon fill="#D6866E" points="778.126,2159.752 778.11,2159.736 777.613,2159.351 777.452,2159.206 777.597,2158.998 
	778.286,2159.543 "/>
<polygon fill="#D6866E" points="789.079,2114.414 789.079,2114.462 789.079,2114.478 789.015,2115.039 788.935,2115.039 
	788.63,2115.007 788.646,2114.687 788.662,2114.558 788.662,2114.43 788.662,2114.414 788.662,2114.398 788.999,2114.414 "/>
<polygon fill="#D6866E" points="788.632,2115.96 788.664,2115.993 788.648,2116.169 788.648,2116.249 788.487,2116.233 
	788.375,2116.217 788.407,2115.928 788.455,2115.944 788.519,2115.944 "/>
<polygon fill="#D6866E" points="765.923,2093.203 765.923,2093.251 765.378,2093.364 765.346,2093.203 "/>
<polygon fill="#D6866E" points="778.127,2159.662 778.111,2159.646 777.614,2159.261 777.454,2159.117 777.598,2158.909 
	778.288,2159.454 "/>
<polygon fill="#D6866E" points="789.081,2114.325 789.081,2114.373 789.065,2114.389 789,2114.95 788.936,2114.95 788.616,2114.918 
	788.648,2114.597 788.648,2114.469 788.664,2114.341 788.664,2114.325 788.664,2114.309 789,2114.325 "/>
<polygon fill="#D6866E" points="766.805,2111.967 766.805,2112.464 766.805,2112.689 766.469,2112.689 766.469,2112.48 
	766.469,2112.304 766.469,2112.079 766.469,2111.967 766.741,2111.967 "/>
<polygon fill="#D6866E" points="761.722,2156.262 761.722,2155.525 762.075,2155.509 762.075,2156.23 "/>
<polygon fill="#D6866E" points="788.648,2116.047 788.68,2116.063 788.648,2116.256 788.648,2116.32 788.488,2116.304 
	788.375,2116.304 788.407,2115.999 788.456,2116.015 788.52,2116.031 "/>
<polygon fill="#D6866E" points="789.081,2114.411 789.081,2114.459 789.081,2114.475 789.017,2115.021 788.937,2115.021 
	788.632,2115.005 788.648,2114.684 788.664,2114.556 788.664,2114.411 788.664,2114.379 789.001,2114.411 "/>
<polygon fill="#D6866E" points="788.625,2116.056 788.657,2116.072 788.641,2116.265 788.641,2116.329 788.481,2116.313 
	788.369,2116.313 788.401,2116.008 788.449,2116.024 788.513,2116.04 "/>
<polygon fill="#D6866E" points="765.372,2093.443 765.227,2092.642 764.971,2091.278 764.939,2091.054 764.891,2090.797 
	765.452,2090.717 765.917,2093.347 "/>
<polygon fill="#D6866E" points="789.074,2114.42 789.074,2114.469 789.058,2114.484 788.994,2115.03 788.93,2115.03 
	788.609,2115.014 788.641,2114.693 788.641,2114.565 788.657,2114.42 788.657,2114.388 788.994,2114.42 "/>
<polygon fill="#D6866E" points="766.799,2112.063 766.799,2112.544 766.799,2112.768 766.462,2112.784 766.462,2112.768 
	766.462,2112.56 766.462,2112.384 766.462,2112.159 766.462,2112.047 766.735,2112.063 "/>
<polygon fill="#D6866E" points="762.646,2084.142 762.485,2084.174 762.213,2084.222 762.164,2083.933 762.084,2083.5 
	762.052,2083.308 762.036,2083.179 762.309,2083.115 762.485,2083.099 "/>
<polygon fill="#D6866E" points="1422.92,875.667 1422.728,875.94 1422.599,876.71 1422.214,876.405 1422.054,876.277 
	1421.781,876.052 1422.423,875.266 "/>
<polygon fill="#D6866E" points="1438.371,881.86 1438.339,882.149 1438.307,882.31 1438.13,882.823 1437.809,882.695 
	1438.05,881.812 "/>
<polygon fill="#D6866E" points="1387.334,886.353 1387.126,886.16 1387.527,885.743 1387.719,885.968 "/>
<polygon fill="#D6866E" points="1372.75,915.955 1372.686,915.987 1372.622,915.826 1372.702,915.794 "/>
<polygon fill="#D6866E" points="1422.92,875.667 1422.728,875.94 1422.583,876.71 1422.214,876.405 1422.054,876.277 
	1421.781,876.052 1422.423,875.266 "/>
<polygon fill="#D6866E" points="1378.847,864.035 1378.27,864.051 1377.644,864.051 1377.146,864.067 1377.146,863.955 
	1377.13,863.522 1377.082,862.126 1378.446,862.11 1378.799,862.094 1378.863,863.538 "/>
<polygon fill="#D6866E" points="1438.355,881.86 1438.323,882.149 1438.291,882.31 1438.13,882.823 1437.793,882.695 
	1438.05,881.812 "/>
<polygon fill="#D6866E" points="1343.871,864.436 1343.646,864.42 1343.646,863.393 1343.855,863.393 "/>
<polygon fill="#D6866E" points="1372.301,818.292 1372.269,818.325 1372.077,818.421 1371.74,817.923 1371.996,817.779 "/>
<polygon fill="#D6866E" points="1360.412,804.125 1360.38,804.173 1360.332,804.237 1360.14,804.077 1360.188,804.029 
	1360.236,803.965 1360.412,804.109 "/>
<polygon fill="#D6866E" points="1394.394,818.084 1394.426,819.014 1394.057,819.111 1393.993,818.084 "/>
<polygon fill="#D6866E" points="1252.714,1166.259 1252.714,1166.403 1252.394,1166.387 1252.394,1166.259 "/>
<polygon fill="#D6866E" points="1315.728,1025.069 1315.343,1025.871 1315.006,1025.71 1315.022,1025.646 1315.327,1024.924 "/>
<polygon fill="#D6866E" points="1274.275,1009.315 1274.083,1009.604 1273.73,1009.363 1273.938,1009.106 1274.131,1009.219 "/>
<polygon fill="#D6866E" points="1363.903,1008.77 1364.368,1008.898 1364.272,1009.058 1364.224,1009.155 1364.191,1009.299 
	1364.175,1009.508 1364.175,1009.62 1362.587,1009.171 1362.796,1008.449 1363.582,1008.673 "/>
<polygon fill="#D6866E" points="1275.607,1061.277 1275.591,1061.309 1275.478,1061.501 1275.334,1061.726 1274.901,1062.48 
	1274.452,1062.223 1274.837,1061.485 1275.077,1061.036 "/>
<polygon fill="#D6866E" points="1280.692,921.146 1281.237,921.162 1281.478,921.097 1281.655,921.033 1281.671,921.418 
	1280.692,921.418 "/>
<polygon fill="#D6866E" points="1280.692,921.146 1281.237,921.162 1281.478,921.097 1281.655,921.033 1281.671,921.418 
	1280.692,921.418 "/>
<polygon fill="#D6866E" points="1274.275,1009.315 1274.083,1009.604 1273.714,1009.363 1273.938,1009.106 1274.115,1009.219 "/>
<polygon fill="#D6866E" points="1275.607,1061.277 1275.575,1061.309 1275.462,1061.501 1275.334,1061.726 1274.901,1062.48 
	1274.452,1062.223 1274.837,1061.485 1275.077,1061.036 "/>
<polygon fill="#D6866E" points="1171.673,1519.903 1171.593,1520.159 1170.887,1520.079 1170.887,1519.823 1170.887,1519.662 
	1171.24,1519.662 1171.224,1519.887 "/>
<polygon fill="#D6866E" points="1135.686,1411.137 1135.638,1411.104 1135.477,1411.04 1135.397,1411.008 1135.445,1410.896 
	1135.75,1411.008 "/>
<polygon fill="#D6866E" points="1141.622,1452.516 1141.526,1452.772 1141.446,1452.933 1141.43,1452.997 1141.413,1453.029 
	1141.349,1453.013 1141.093,1452.885 1141.301,1452.355 1141.606,1452.499 "/>
<polygon fill="#D6866E" points="1171.673,1519.887 1171.593,1520.127 1170.887,1520.063 1170.887,1519.806 1170.887,1519.63 
	1171.24,1519.646 1171.224,1519.854 "/>
<polygon fill="#D6866E" points="1060.807,1487.108 1060.358,1487.445 1059.893,1486.803 1060.31,1486.37 "/>
<polygon fill="#D6866E" points="1091.083,1425.352 1090.81,1425.657 1090.794,1425.673 1090.569,1425.496 1090.826,1425.16 "/>
<polygon fill="#D6866E" points="1272.115,1550.149 1272.033,1550.654 1271.821,1550.605 1271.919,1550.116 "/>
<polygon fill="#D6866E" points="1370.92,1607.842 1370.594,1608.217 1370.219,1607.989 1370.577,1607.565 "/>
<polygon fill="#D6866E" points="1105.4,1596.284 1105.383,1596.202 1105.351,1596.055 1105.318,1595.925 1105.432,1595.925 
	1105.921,1595.925 1105.921,1596.284 1105.448,1596.267 "/>
<polygon fill="#D6866E" points="1275.017,1473.366 1274.235,1473.757 1273.941,1473.008 1274.74,1472.665 "/>
<polygon fill="#D6866E" points="1219.624,1454.195 1219.445,1454.554 1218.89,1454.293 1219.119,1453.901 "/>
<polygon fill="#D6866E" points="1202.898,1501.096 1202.801,1501.634 1202.556,1502.221 1202.344,1502.123 1201.806,1501.862 
	1200.046,1501.145 1200.404,1500.982 1200.421,1500.982 1200.616,1501.031 1201.007,1501.129 1201.953,1501.39 1202.067,1501.422 
	1202.442,1500.917 "/>
<polygon fill="#D6866E" points="1190.672,1480.604 1190.362,1481.224 1190.232,1481.175 1189.922,1481.012 1189.824,1481.207 
	1189.71,1481.387 1189.661,1481.468 1189.205,1481.256 1188.08,1480.686 1187.819,1480.555 1187.607,1480.392 1187.297,1480.18 
	1187.672,1479.642 1187.689,1479.626 1188.015,1479.153 1188.227,1479.219 1190.542,1480.523 "/>
<polygon fill="#D6866E" points="1238.306,1502.873 1238.078,1503.297 1237.947,1503.476 1237.898,1503.558 1237.393,1503.346 
	1237.833,1502.596 "/>
<polygon fill="#D6866E" points="1240.572,1477.98 1239.854,1479.463 1239.316,1479.121 1240.115,1477.621 "/>
<polygon fill="#D6866E" points="1219.575,1500.835 1219.999,1500.216 1220.211,1500.33 1219.803,1500.966 "/>
<polygon fill="#D6866E" points="1275.034,1473.366 1274.251,1473.757 1273.958,1473.008 1274.756,1472.665 "/>
<polygon fill="#D6866E" points="1272.115,1550.149 1272.033,1550.654 1271.805,1550.605 1271.919,1550.116 "/>
<polygon fill="#D6866E" points="1105.4,1596.284 1105.383,1596.202 1105.351,1596.055 1105.318,1595.925 1105.432,1595.925 
	1105.921,1595.925 1105.921,1596.284 1105.448,1596.267 "/>
<polygon fill="#D6866E" points="1056.553,1332.29 1056.441,1332.771 1056.248,1332.755 1056.104,1332.739 1056.168,1332.242 
	1056.312,1332.274 "/>
<polygon fill="#D6866E" points="1066.046,1222.297 1067.153,1223.66 1066.159,1223.837 1065.774,1223.308 1065.116,1222.458 
	1065.1,1222.442 1065.1,1222.41 1064.956,1222.281 1065.1,1221.287 1065.1,1221.271 1065.1,1221.255 1065.116,1221.159 
	1065.229,1221.271 "/>
<polygon fill="#D6866E" points="990.245,1457.774 989.459,1458.639 989.01,1458.335 989.668,1457.405 "/>
<polygon fill="#D6866E" points="985.787,1463.691 985.563,1463.963 985.467,1463.883 985.707,1463.595 "/>
<polygon fill="#D6866E" points="1010.466,723.901 1010.498,723.548 1010.546,723.26 1011.765,723.404 1011.685,724.046 "/>
<polygon fill="#D6866E" points="975.755,740.888 975.739,741.402 975.755,742.204 975.835,743.904 975.162,743.856 974.729,743.824 
	974.841,741.466 974.873,740.856 "/>
<polygon fill="#D6866E" points="944.124,726.612 943.996,727.061 943.595,726.997 943.707,726.548 "/>
<polygon fill="#D6866E" points="974.953,743.824 974.777,743.808 974.889,741.45 974.905,740.84 974.953,740.84 "/>
<polygon fill="#D6866E" points="944.172,726.596 944.028,727.045 943.643,726.981 943.755,726.532 "/>
<polygon fill="#D6866E" points="869.554,697.113 869.714,697.434 868.928,697.98 868.287,698.429 868.158,698.605 866.843,698.268 
	867.068,698.124 868.607,697.113 "/>
<polygon fill="#D6866E" points="905.436,712.176 907.633,712.368 907.649,712.176 907.793,712.176 908.74,712.224 909.445,712.256 
	909.686,712.256 909.574,712.689 909.542,712.769 909.462,713.026 908.98,714.469 907.408,714.149 905.131,713.619 904.666,713.507 
	905.083,712.144 "/>
<polygon fill="#D6866E" points="1010.466,723.901 1010.498,723.548 1010.546,723.244 1011.765,723.404 1011.685,724.046 "/>
<polygon fill="#D6866E" points="868.88,697.98 868.239,698.429 868.11,698.605 866.795,698.284 867.019,698.124 869.281,696.664 
	869.666,697.434 "/>
<polygon fill="#D6866E" points="905.387,712.176 907.585,712.368 907.601,712.176 907.745,712.192 908.692,712.224 909.397,712.272 
	909.638,712.272 909.526,712.689 909.494,712.769 909.413,713.042 908.932,714.485 907.36,714.165 905.083,713.619 904.617,713.523 
	905.034,712.16 "/>
<polygon fill="#D6866E" points="869.024,696.071 868.992,696.103 867.693,696.937 867.533,696.664 868.672,695.814 "/>
<polygon fill="#D6866E" points="918.352,442.088 918.192,442.104 918.192,441.911 918.192,441.655 918.384,441.623 "/>
<polygon fill="#D6866E" points="918.352,442.104 918.192,442.104 918.192,441.927 918.192,441.671 918.384,441.639 "/>
<polygon fill="#D6866E" points="804.588,627.56 804.524,628.298 804.476,628.298 803.048,628.266 802.856,628.266 802.904,627.737 
	802.952,627.64 802.984,627.576 803.048,627.528 803.337,627.544 804.524,627.56 "/>
<rect x="913.27" y="619.186" fill="#D6866E" width="0.545" height="0.449"/>
<polygon fill="#D6866E" points="837.201,571.814 836.559,571.701 836.623,571.316 836.96,571.396 837.12,571.509 837.185,571.685 
	"/>
<polygon fill="#D6866E" points="887.122,600.898 886.208,600.577 886.192,600.353 886.449,599.663 886.93,599.839 887.427,600.032 
	887.427,600.048 "/>
<polygon fill="#D6866E" points="785.146,582.658 784.809,582.915 784.472,582.482 784.488,582.369 784.761,582.177 "/>
<polygon fill="#D6866E" points="765.495,574.38 765.334,574.348 765.254,574.332 765.382,573.707 765.639,573.771 "/>
<polygon fill="#D6866E" points="804.588,627.56 804.524,628.298 804.476,628.298 803.032,628.266 802.856,628.266 802.888,627.737 
	802.952,627.64 802.984,627.576 803.032,627.528 803.337,627.544 804.508,627.56 "/>
<polygon fill="#D6866E" points="928.269,557.344 927.387,557.376 927.323,557.376 926.729,557.408 926.649,556.975 926.649,556.942 
	927.274,556.862 927.868,556.862 928.189,556.862 928.205,557.023 "/>
<polygon fill="#D6866E" points="837.201,571.798 836.559,571.701 836.623,571.316 836.96,571.38 837.12,571.493 837.185,571.669 "/>
<polygon fill="#D6866E" points="903.677,558.659 902.089,558.723 901.881,558.723 901.736,558.707 901.608,558.659 901.496,558.579 
	901.415,558.482 901.351,558.354 901.335,558.21 901.335,557.953 901.351,556.814 903.581,556.686 903.677,556.67 "/>
<polygon fill="#D6866E" points="839.27,544.558 838.58,544.542 838.596,543.643 839.302,543.643 "/>
<polygon fill="#D6866E" points="785.146,582.642 784.809,582.899 784.472,582.482 784.488,582.353 784.761,582.177 "/>
<polygon fill="#D6866E" points="765.495,574.38 765.334,574.348 765.254,574.332 765.382,573.707 765.639,573.755 "/>
<polygon fill="#D6866E" points="846.214,946.691 843.231,946.627 843.231,945.151 843.231,944.638 843.231,943.756 843.247,943.756 
	844.53,943.804 844.771,943.804 845.605,943.836 846.15,943.836 846.198,943.884 846.23,943.916 846.23,943.996 846.23,945.295 
	846.23,945.793 846.23,945.873 846.23,945.921 "/>
<polygon fill="#D6866E" points="825.86,944.445 825.909,943.05 826.422,943.034 826.454,943.13 826.55,943.274 826.678,943.419 
	826.807,943.515 826.951,943.595 827.047,943.627 827.031,944.493 826.197,944.461 825.973,944.445 "/>
<polygon fill="#D6866E" points="895.775,905.549 895.294,905.581 895.278,904.731 895.727,904.763 "/>
<polygon fill="#D6866E" points="855.838,915.044 855.854,915.141 855.87,915.301 855.373,915.317 855.357,915.173 855.357,914.9 "/>
<polygon fill="#D6866E" points="889.055,874.945 889.071,874.865 889.199,874.464 889.295,874.143 889.504,874.255 889.712,874.352 
	889.584,874.913 889.568,874.945 889.552,874.945 889.52,875.025 "/>
<polygon fill="#D6866E" points="873.465,891.514 873.481,892.156 873.497,892.444 873.513,892.797 873.529,892.797 873.529,892.829 
	872.984,892.845 872.775,892.894 872.759,892.332 872.759,892.316 872.743,892.14 872.695,891.867 872.695,891.851 872.695,891.835 
	872.695,891.819 872.615,891.659 872.406,891.161 872.406,891.145 872.406,891.129 872.39,891.129 871.925,890.552 871.909,890.536 
	871.909,890.52 871.893,890.52 871.973,890.423 872.085,890.391 873.288,890.022 873.288,890.119 873.272,890.279 873.304,890.808 
	873.352,891.274 "/>
<polygon fill="#D6866E" points="884.243,924.7 882.944,924.636 882.816,925.647 881.516,925.486 881.581,923.289 881.581,923.257 
	882.575,923.273 884.131,923.16 884.147,923.369 884.195,924.043 884.195,924.139 "/>
<polygon fill="#D6866E" points="842.474,835.488 842.425,835.135 842.361,834.622 842.329,834.397 842.714,834.349 842.858,835.44 
	"/>
<polygon fill="#D6866E" points="806.366,780.594 806.237,780.064 806.157,779.744 806.446,779.663 806.478,779.776 806.558,780.128 
	806.638,780.513 "/>
<polygon fill="#D6866E" points="860.781,810.858 860.509,810.377 860.685,810.28 860.958,810.745 "/>
<polygon fill="#D6866E" points="842.45,835.524 842.402,835.172 842.338,834.642 842.306,834.418 842.691,834.386 842.835,835.46 
	"/>
<polygon fill="#D6866E" points="934.667,801.539 934.442,801.539 933.464,801.555 933.384,801.555 933.384,801.187 933.48,801.187 
	934.474,801.219 934.49,801.219 934.506,801.219 934.522,801.219 934.667,801.171 934.667,801.267 "/>
<polygon fill="#D6866E" points="886.907,796.664 886.538,796.744 884.918,797.097 884.758,797.129 884.645,796.07 885.993,796.423 
	886.458,796.552 886.522,796.568 "/>
<polygon fill="#D6866E" points="840.654,785.758 840.59,786.015 840.462,786.528 839.05,786.415 839.098,785.614 "/>
<polygon fill="#D6866E" points="806.382,780.594 806.237,780.064 806.157,779.744 806.446,779.663 806.478,779.776 806.558,780.128 
	806.654,780.513 "/>
<polygon fill="#D6866E" points="745.07,750.426 744.893,750.426 743.787,750.394 742.969,750.362 742.151,750.346 742.151,749.175 
	743.803,748.966 745.102,748.806 746.08,748.678 746.192,748.678 746.144,749.528 745.086,749.56 745.07,750.217 "/>
<polygon fill="#D6866E" points="625.027,731.124 624.995,731.445 624.434,731.204 624.354,731.204 624.354,731.188 624.37,730.996 
	624.386,730.835 625.059,730.947 "/>
<polygon fill="#D6866E" points="623.616,730.851 623.584,731.364 623.279,731.348 623.311,730.787 623.616,730.803 "/>
<polygon fill="#D6866E" points="809.651,1241.163 807.425,1240.522 807.553,1239.785 807.665,1239.433 807.793,1239.481 
	809.891,1240.185 809.699,1240.938 "/>
<polygon fill="#D6866E" points="783.214,1095.738 783.166,1095.738 779.274,1094.985 779.498,1093.88 779.563,1093.575 
	779.819,1093.656 780.155,1091.926 783.743,1092.775 783.743,1092.791 783.503,1094.296 "/>
<polygon fill="#D6866E" points="748.971,1062.069 749.547,1062.806 748.65,1062.822 748.554,1062.822 748.458,1062.806 
	748.442,1062.806 748.426,1062.79 748.394,1062.742 748.01,1062.294 748.026,1062.278 748.41,1061.989 "/>
<polygon fill="#D6866E" points="837.127,1119.108 836.662,1119.108 836.662,1119.717 835.75,1120.133 835.621,1120.197 
	835.509,1119.685 835.541,1119.396 835.605,1119.028 835.75,1118.563 835.878,1118.531 837.447,1118.243 837.431,1118.307 
	837.255,1118.756 "/>
<polygon fill="#D6866E" points="809.673,1241.124 807.447,1240.483 807.591,1239.73 807.687,1239.378 807.831,1239.426 
	809.929,1240.131 809.737,1240.884 "/>
<polygon fill="#D6866E" points="760.998,1233.083 759.941,1233.115 759.925,1233.019 759.861,1232.058 760.342,1232.042 
	760.342,1231.802 760.918,1231.754 760.982,1232.987 "/>
<polygon fill="#D6866E" points="809.648,1241.197 807.422,1240.557 807.55,1239.804 807.662,1239.451 807.79,1239.499 
	809.889,1240.204 809.696,1240.957 "/>
<polygon fill="#D6866E" points="836.925,1231.459 836.3,1231.491 836.3,1231.459 836.3,1230.802 837.021,1230.706 837.021,1230.754 
	836.989,1230.866 836.957,1231.074 836.925,1231.427 "/>
<polygon fill="#D6866E" points="845.622,1221.096 845.526,1221.079 845.478,1221.079 845.462,1221.079 845.446,1221.079 
	845.462,1220.855 845.654,1220.871 "/>
<polygon fill="#D6866E" points="822.43,1180.572 822.51,1180.332 822.958,1180.476 822.862,1180.684 "/>
<polygon fill="#D6866E" points="855.264,1168.078 855.36,1167.422 855.648,1167.438 855.584,1168.126 "/>
<polygon fill="#D6866E" points="837.101,1119.13 836.637,1119.13 836.637,1119.738 835.724,1120.171 835.595,1120.235 
	835.483,1119.722 835.515,1119.434 835.579,1119.049 835.724,1118.601 835.852,1118.553 837.421,1118.281 837.405,1118.329 
	837.229,1118.793 "/>
<polygon fill="#D6866E" points="843.556,1154.047 842.707,1153.903 843.219,1152.926 843.235,1152.894 844.068,1152.974 
	844.052,1152.99 843.556,1153.999 "/>
<polygon fill="#D6866E" points="809.668,1241.111 807.441,1240.471 807.586,1239.734 807.682,1239.381 807.826,1239.43 
	809.924,1240.134 809.732,1240.887 "/>
<polygon fill="#D6866E" points="877.454,1085.413 877.406,1085.846 876.86,1085.653 876.828,1085.332 "/>
<polygon fill="#D6866E" points="852.781,1266.656 852.685,1267.137 852.541,1267.121 851.899,1267.041 851.85,1267.025 
	851.979,1266.608 852.637,1266.64 "/>
<polygon fill="#D6866E" points="860.406,1170.069 860.342,1170.615 859.074,1170.375 859.122,1169.989 859.122,1169.957 "/>
<polygon fill="#D6866E" points="859.026,1171.803 858.929,1172.301 858.48,1172.253 858.544,1171.739 "/>
<polygon fill="#D6866E" points="852.839,1266.715 852.743,1267.213 852.598,1267.181 851.956,1267.1 851.908,1267.1 
	852.036,1266.667 852.694,1266.715 "/>
<polygon fill="#D6866E" points="820.143,1359.863 820.223,1359.895 820.479,1359.959 820.64,1360.007 820.496,1360.391 
	819.855,1360.135 819.903,1359.863 "/>
<polygon fill="#D6866E" points="815.8,1490.388 815.8,1490.532 815.832,1490.548 815.848,1490.852 815.816,1491.62 
	815.816,1491.716 815.752,1491.716 815.111,1491.828 814.951,1491.012 814.039,1491.156 813.975,1491.172 813.959,1490.948 
	813.879,1490.596 813.751,1490.084 813.735,1490.052 814.151,1489.331 814.503,1489.363 814.871,1489.107 815.447,1488.707 
	815.447,1489.539 815.447,1489.603 815.463,1489.619 815.447,1489.844 815.431,1490.068 815.415,1490.308 815.447,1490.324 "/>
<polygon fill="#D6866E" points="796.287,1478.158 796.239,1478.174 793.533,1478.35 793.533,1477.934 793.533,1476.749 
	793.533,1476.493 793.87,1476.477 794.046,1476.461 794.558,1476.429 795.118,1476.381 796.159,1476.301 796.159,1476.317 
	796.191,1476.541 796.223,1476.733 796.271,1477.069 796.287,1477.181 796.319,1477.758 796.287,1478.062 796.287,1478.094 
	796.287,1478.142 "/>
<polygon fill="#D6866E" points="774.501,1456.931 774.517,1456.307 774.693,1456.307 774.677,1456.915 "/>
<polygon fill="#D6866E" points="815.792,1490.366 815.792,1490.51 815.824,1490.526 815.84,1490.831 815.808,1491.599 
	815.808,1491.695 815.744,1491.695 815.104,1491.807 814.96,1490.991 814.047,1491.135 813.983,1491.151 813.951,1490.927 
	813.871,1490.575 813.743,1490.062 813.743,1490.03 814.143,1489.31 814.495,1489.342 814.88,1489.086 815.44,1488.686 
	815.456,1489.518 815.456,1489.582 815.456,1489.598 815.44,1489.822 815.424,1490.046 815.408,1490.286 815.456,1490.302 "/>
<polygon fill="#D6866E" points="796.295,1478.136 796.231,1478.152 793.542,1478.328 793.526,1477.912 793.526,1476.728 
	793.526,1476.472 793.862,1476.456 794.038,1476.44 794.566,1476.408 795.127,1476.36 796.167,1476.28 796.167,1476.296 
	796.199,1476.52 796.215,1476.712 796.263,1477.048 796.295,1477.16 796.327,1477.736 796.279,1478.04 796.279,1478.073 
	796.295,1478.12 "/>
</svg>
