<?xml version="1.0" encoding="utf-8"?>
<!-- Generator: Adobe Illustrator 17.0.0, SVG Export Plug-In . SVG Version: 6.00 Build 0)  -->
<!DOCTYPE svg PUBLIC "-//W3C//DTD SVG 1.1//EN" "http://www.w3.org/Graphics/SVG/1.1/DTD/svg11.dtd">
<svg version="1.1" id="Layer_2" xmlns="http://www.w3.org/2000/svg" xmlns:xlink="http://www.w3.org/1999/xlink" x="0px" y="0px"
	 width="1840px" height="2400px" viewBox="0 0 1840 2400" enable-background="new 0 0 1840 2400" xml:space="preserve">
<polygon fill="#3E5DAA" points="915.094,1613.713 917.102,1615.172 916.365,1615.8 916.333,1615.815 915.282,1616.741 
	914.906,1616.207 914.576,1615.737 914.388,1615.501 913.572,1614.56 913.353,1614.482 914.027,1612.944 "/>
<polygon fill="#3E5DAA" points="949.071,1542.134 949.039,1542.463 948.396,1542.353 947.408,1542.196 947.581,1541.835 
	948.067,1541.93 949.086,1542.071 "/>
<polygon fill="#3E5DAA" points="947.784,1586.637 947.659,1586.794 947.267,1587.265 945.024,1589.869 943.91,1588.959 
	943.8,1588.865 943.549,1588.645 943.439,1588.567 944.192,1587.579 946.043,1585.382 946.153,1585.257 947.314,1586.23 
	947.737,1586.59 "/>
<polygon fill="#3E5DAA" points="877.101,1632.224 876.49,1633.338 875.486,1635.11 874.027,1634.342 873.948,1634.294 
	875.815,1631.502 875.894,1631.549 876.396,1631.832 876.568,1631.941 "/>
<polygon fill="#3E5DAA" points="976.515,1552.043 976.013,1551.98 976.075,1551.682 976.577,1551.745 "/>
<polygon fill="#3E5DAA" points="977.174,1552.498 976.17,1552.373 976.185,1552.216 977.189,1552.357 "/>
<polygon fill="#3E5DAA" points="949.079,1542.129 949.032,1542.458 948.389,1542.349 947.401,1542.192 947.573,1541.831 
	948.059,1541.925 949.079,1542.066 "/>
<polygon fill="#3E5DAA" points="947.777,1586.633 947.652,1586.79 947.26,1587.26 945.016,1589.864 943.918,1588.955 
	943.808,1588.86 943.542,1588.641 943.432,1588.562 944.185,1587.574 946.052,1585.378 946.161,1585.252 947.307,1586.225 
	947.73,1586.586 "/>
<polygon fill="#3E5DAA" points="799.331,1823.417 799.732,1822.454 799.812,1822.262 800.068,1822.342 800.213,1822.39 
	800.229,1822.406 800.245,1822.406 800.918,1822.503 800.95,1822.503 801.479,1822.47 801.495,1822.47 802.538,1822.278 
	803.804,1822.134 804.221,1822.15 804.574,1822.342 804.67,1822.406 804.734,1822.454 804.815,1822.615 804.911,1824.026 
	803.259,1824.042 802.441,1823.962 802.377,1823.946 800.004,1823.545 799.796,1823.497 "/>
<polygon fill="#3E5DAA" points="867.222,1781.644 866.517,1783.088 866.469,1783.056 866.26,1782.959 864.657,1782.157 
	864.576,1782.109 864.833,1781.66 865.362,1780.73 "/>
<polygon fill="#3E5DAA" points="810.159,1747.572 810.447,1747.636 809.79,1748.999 809.726,1749.128 807.401,1748.134 
	807.304,1748.101 807.288,1748.085 807.833,1747.027 807.866,1747.027 808.218,1747.107 810.03,1747.54 "/>
<polygon fill="#3E5DAA" points="816.973,1739.41 816.813,1739.314 816.813,1739.234 816.797,1739.17 816.973,1738.961 "/>
<polygon fill="#3E5DAA" points="849.52,1744.49 849.344,1744.715 849.184,1744.923 849.168,1744.955 849.007,1745.131 
	848.639,1745.388 847.853,1744.282 847.997,1744.105 848.639,1743.287 849.761,1744.153 "/>
<polygon fill="#3E5DAA" points="841.808,1773.61 841.663,1773.642 841.519,1773.658 840.99,1773.739 840.958,1773.546 
	840.894,1773.177 840.781,1772.6 840.797,1772.6 840.733,1772.119 841.279,1771.943 841.295,1771.943 841.391,1771.911 
	841.455,1771.895 841.567,1772.456 841.567,1772.472 "/>
<polygon fill="#3E5DAA" points="810.155,1747.569 810.443,1747.633 809.802,1748.996 809.738,1749.124 807.397,1748.13 
	807.317,1748.098 807.301,1748.082 807.83,1747.024 807.862,1747.024 808.215,1747.104 810.027,1747.537 "/>
<polygon fill="#3E5DAA" points="867.223,1781.644 866.517,1783.087 866.469,1783.071 866.261,1782.959 864.657,1782.173 
	864.577,1782.125 864.834,1781.676 865.363,1780.73 "/>
<polygon fill="#3E5DAA" points="819.134,1739.647 819.07,1739.744 818.621,1740.481 818.429,1740.353 816.809,1739.311 
	816.809,1739.23 816.809,1739.166 816.986,1738.942 817.242,1738.365 817.242,1738.204 "/>
<polygon fill="#3E5DAA" points="799.331,1823.417 799.732,1822.454 799.812,1822.262 800.068,1822.342 800.197,1822.39 
	800.229,1822.406 800.918,1822.503 800.934,1822.503 800.95,1822.503 801.479,1822.47 801.495,1822.47 802.538,1822.278 
	803.804,1822.134 804.205,1822.15 804.574,1822.342 804.67,1822.406 804.734,1822.454 804.815,1822.615 804.911,1824.026 
	803.259,1824.042 802.441,1823.962 802.377,1823.946 800.004,1823.545 799.796,1823.497 "/>
<polygon fill="#3E5DAA" points="806.781,1717.302 805.53,1716.227 804.969,1715.73 804.824,1715.602 803.428,1714.414 
	802.803,1713.885 801.744,1712.97 802.722,1711.911 807.712,1716.195 807.247,1716.741 "/>
<polygon fill="#3E5DAA" points="829.147,1673.565 828.345,1674.832 827.543,1676.116 827.495,1676.1 825.97,1675.089 
	825.938,1675.073 826.516,1674.174 827.029,1673.372 827.126,1673.228 827.591,1672.506 827.639,1672.538 829.051,1673.5 "/>
<polygon fill="#3E5DAA" points="839.159,1657.921 839.881,1658.274 839.672,1658.771 839.447,1659.301 838.838,1660.633 
	838.565,1661.226 838.453,1661.467 837.939,1662.574 837.602,1663.28 837.554,1663.36 835.356,1662.397 835.019,1662.237 
	835.164,1661.579 834.634,1661.371 834.249,1661.226 832.869,1660.665 832.837,1660.392 832.821,1660.344 832.805,1660.135 
	833.014,1660.199 833.575,1660.456 833.72,1660.055 833.88,1659.622 834.233,1658.659 837.827,1660.199 838.934,1657.809 "/>
<polygon fill="#3E5DAA" points="826.934,1673.534 827.03,1673.374 827.126,1673.245 827.592,1672.507 827.64,1672.539 
	829.052,1673.518 829.084,1673.534 "/>
<polygon fill="#3E5DAA" points="839.159,1657.923 839.882,1658.292 839.673,1658.773 839.448,1659.318 838.839,1660.634 
	838.566,1661.244 838.454,1661.469 837.94,1662.576 837.603,1663.281 837.555,1663.378 835.357,1662.415 835.02,1662.255 
	835.164,1661.597 834.635,1661.388 834.25,1661.228 832.87,1660.682 832.838,1660.409 832.822,1660.345 832.806,1660.137 
	833.015,1660.217 833.576,1660.458 833.721,1660.057 833.881,1659.623 834.234,1658.677 837.828,1660.201 838.935,1657.81 "/>
<polygon fill="#3E5DAA" points="832.373,1615.131 833.464,1615.388 833.416,1615.613 833.384,1615.741 833.079,1616.768 
	832.774,1617.698 831.924,1617.538 830.993,1617.345 830.399,1617.217 830.175,1617.169 830.239,1616.88 830.287,1616.672 
	830.688,1616.736 830.784,1616.286 830.865,1615.966 830.448,1615.869 830.672,1614.762 830.961,1614.827 831.731,1614.987 "/>
<polygon fill="#3E5DAA" points="838.919,1604.991 838.903,1605.039 838.662,1605.97 837.411,1605.633 837.635,1604.654 "/>
<polygon fill="#3E5DAA" points="806.792,1717.317 805.541,1716.242 804.979,1715.745 804.819,1715.616 803.439,1714.429 
	802.813,1713.9 801.754,1712.985 802.733,1711.926 807.723,1716.21 807.258,1716.755 "/>
<polygon fill="#3E5DAA" points="783.721,1680.061 783.64,1680.141 783.512,1680.27 783.48,1680.286 783.384,1680.366 
	783.063,1680.607 782.678,1680.847 782.582,1680.783 782.02,1680.382 781.298,1679.869 781.699,1679.58 782.421,1679.067 
	782.63,1679.05 782.838,1679.034 "/>
<polygon fill="#3E5DAA" points="706.922,1778.131 706.311,1777.858 705.958,1777.714 705.909,1777.681 706.215,1777.521 
	705.042,1777.023 704.865,1776.782 704.463,1775.93 704.56,1775.785 704.624,1775.705 704.929,1775.207 704.961,1775.159 
	705.026,1775.062 706.279,1775.785 706.263,1775.834 707.355,1776.46 707.5,1776.573 707.532,1776.637 707.564,1776.75 
	707.564,1776.846 707.452,1777.183 707.034,1778.196 "/>
<polygon fill="#3E5DAA" points="772.653,1737.657 772.154,1737.657 771.994,1737.657 771.865,1737.673 771.737,1737.689 
	771.062,1737.721 770.612,1737.737 770.435,1737.753 770.146,1737.769 770.082,1737.721 770.259,1737.416 770.339,1737.255 
	770.516,1736.966 770.532,1736.934 770.917,1736.21 771.255,1735.616 771.255,1735.471 771.64,1735.471 772.588,1735.455 
	772.588,1735.664 772.572,1735.664 772.588,1735.696 772.62,1736.596 772.62,1736.741 772.636,1736.853 772.653,1737.592 "/>
<polygon fill="#3E5DAA" points="733.818,1705.071 733.802,1705.087 733.657,1705.135 733.625,1705.151 733.882,1705.73 
	733.898,1705.714 734.043,1705.666 734.059,1705.65 734.204,1705.971 734.236,1706.067 734.252,1706.196 734.236,1706.292 
	734.204,1706.357 734.188,1706.421 734.075,1706.485 732.709,1707.16 730.846,1708.092 730.83,1708.092 730.797,1708.076 
	730.765,1708.076 730.749,1708.076 730.717,1708.044 730.701,1708.044 730.685,1708.028 730.669,1707.996 730.653,1707.979 
	730.637,1707.947 730.492,1707.578 729.866,1706.116 729.93,1706.083 733.449,1704.573 733.561,1704.525 733.593,1704.509 "/>
<polygon fill="#3E5DAA" points="772.235,1734.347 772.283,1735.279 771.64,1735.295 771.158,1735.295 770.805,1735.311 
	770.789,1734.459 770.676,1731.519 770.676,1731.503 771.223,1731.503 771.223,1731.712 771.239,1734.331 "/>
<polygon fill="#3E5DAA" points="850.859,1948.919 850.923,1948.967 850.987,1949.047 851.019,1949.111 851.067,1949.222 
	851.067,1949.318 851.083,1949.414 851.067,1949.51 851.051,1949.574 851.051,1949.638 849.421,1949.254 848.926,1949.143 
	849.021,1948.727 849.053,1948.535 850.092,1948.759 850.476,1948.855 850.492,1948.823 850.603,1948.855 850.619,1948.871 
	850.827,1948.903 "/>
<polygon fill="#3E5DAA" points="747.266,1955.79 747.17,1956.014 746.914,1956.685 746.818,1956.637 745.908,1956.174 
	745.796,1956.11 745.684,1956.062 746.003,1955.247 746.099,1955.295 746.307,1955.375 746.978,1955.662 "/>
<polygon fill="#3E5DAA" points="784.785,1914.866 784.737,1915.042 784.625,1915.361 784.529,1915.601 784.386,1915.985 
	784.066,1916.64 783.986,1916.784 783.81,1917.023 783.667,1917.183 783.139,1917.774 782.772,1918.174 782.74,1918.19 
	782.628,1918.334 782.42,1918.557 782.42,1918.429 782.388,1917.359 782.372,1917.055 782.292,1916.64 782.148,1915.793 
	782.117,1915.393 782.085,1915.074 782.085,1914.866 "/>
<polygon fill="#3E5DAA" points="776.109,1896.171 773.536,1896.155 773.6,1895.036 774.415,1895.036 775.725,1895.052 
	775.997,1895.02 776.109,1895.004 776.141,1895.02 776.125,1895.771 776.125,1895.819 "/>
<polygon fill="#3E5DAA" points="785.505,1911.783 785.664,1911.847 785.616,1912.023 785.521,1912.406 785.489,1912.582 
	785.425,1912.806 785.057,1914.004 784.897,1914.5 784.738,1915.027 784.626,1915.363 784.53,1915.586 784.386,1915.97 
	784.066,1916.625 783.987,1916.785 783.811,1917.009 783.667,1917.168 783.14,1917.76 782.772,1918.159 782.74,1918.191 
	782.628,1918.319 782.421,1918.559 782.421,1918.415 782.389,1917.344 782.373,1917.041 782.293,1916.625 782.149,1915.778 
	782.117,1915.379 782.085,1915.059 782.069,1914.644 782.037,1914.132 782.021,1914.004 782.021,1913.829 782.053,1913.237 
	782.053,1913.078 782.053,1912.342 782.053,1912.183 782.037,1911.895 782.037,1911.751 782.021,1911.192 782.005,1910.856 
	782.069,1910.745 782.069,1910.633 782.069,1910.425 782.117,1910.473 782.373,1910.569 783.124,1910.872 783.283,1910.92 
	783.955,1911.176 784.546,1911.416 784.865,1911.543 785.345,1911.719 785.473,1911.767 "/>
<polygon fill="#3E5DAA" points="773.6,1895.036 773.536,1896.155 773.536,1896.219 773.488,1897.066 771.89,1896.81 771.89,1896.65 
	771.922,1896.171 771.938,1895.803 771.938,1895.644 771.938,1895.628 771.954,1895.42 771.986,1894.829 771.986,1894.813 
	773.392,1894.925 773.552,1895.036 "/>
<polygon fill="#3E5DAA" points="826.363,1895.994 826.299,1895.994 826.315,1895.914 826.411,1895.53 826.411,1895.482 
	827.034,1895.61 826.97,1895.978 826.938,1896.105 "/>
<polygon fill="#3E5DAA" points="696.395,1961.627 696.363,1961.739 696.298,1961.916 696.25,1962.061 696.186,1962.205 
	696.138,1962.35 695.752,1962.237 693.904,1961.82 694.113,1961.032 694.241,1961.064 694.948,1961.225 695.768,1961.45 "/>
<polygon fill="#3E5DAA" points="711.486,1975.577 711.454,1975.69 711.277,1976.461 711.245,1976.59 711.116,1977.088 
	711.1,1977.217 711.052,1977.377 710.972,1977.634 710.907,1977.763 710.795,1977.988 710.747,1978.101 710.666,1978.293 
	710.522,1978.583 710.425,1978.776 710.329,1978.984 710.248,1979.161 710.056,1979.563 709.831,1980.029 709.557,1980.608 
	709.22,1981.299 709.027,1981.733 709.011,1981.717 708.738,1981.652 708.079,1981.443 707.806,1981.363 707.484,1981.235 
	707.179,1981.09 707.05,1981.042 707.259,1980.495 707.645,1979.627 708.175,1978.374 708.689,1977.168 708.898,1976.606 
	709.027,1976.3 709.252,1975.77 709.268,1975.706 709.348,1975.497 "/>
<polygon fill="#3E5DAA" points="694.119,1961.868 693.91,1961.82 694.119,1961.096 "/>
<polygon fill="#3E5DAA" points="594.041,2055.391 593.993,2055.584 593.913,2056.387 593.784,2056.709 593.72,2056.837 
	593.479,2057.127 593.431,2057.175 593.254,2056.934 593.222,2056.902 593.527,2056.404 593.64,2055.311 "/>
<polygon fill="#3E5DAA" points="696.401,1961.606 696.369,1961.718 696.305,1961.911 696.257,1962.04 696.193,1962.2 
	696.144,1962.345 695.759,1962.233 693.91,1961.799 694.119,1961.011 694.248,1961.043 694.955,1961.22 695.775,1961.445 "/>
<polygon fill="#3E5DAA" points="711.493,1975.572 711.46,1975.669 711.284,1976.456 711.251,1976.585 711.123,1977.083 
	711.107,1977.196 711.059,1977.356 710.978,1977.63 710.914,1977.758 710.802,1977.967 710.753,1978.08 710.673,1978.272 
	710.528,1978.578 710.432,1978.771 710.335,1978.964 710.255,1979.14 710.062,1979.542 709.837,1980.024 709.564,1980.587 
	709.227,1981.294 709.034,1981.712 709.018,1981.696 708.744,1981.632 708.085,1981.423 707.812,1981.358 707.491,1981.214 
	707.185,1981.085 707.057,1981.021 707.266,1980.474 707.651,1979.606 708.182,1978.353 708.696,1977.147 708.905,1976.601 
	709.034,1976.28 709.259,1975.749 709.275,1975.685 709.355,1975.476 "/>
<polygon fill="#3E5DAA" points="698.218,1918.452 697.8,1918.501 697.301,1918.597 696.9,1918.661 696.771,1917.697 
	696.723,1917.231 697.028,1917.199 696.964,1916.684 697.06,1916.684 697.43,1916.652 697.8,1916.62 697.864,1916.62 
	698.057,1916.588 698.057,1916.652 "/>
<polygon fill="#3E5DAA" points="694.104,1961.857 693.895,1961.809 694.104,1961.085 "/>
<polygon fill="#3E5DAA" points="766.057,1998.791 765.848,1998.389 765.848,1998.131 765.864,1998.131 765.848,1997.472 
	765.429,1997.488 765.413,1997.472 765.301,1997.488 765.075,1997.504 765.059,1997.488 764.689,1997.52 764.609,1997.52 
	764.384,1997.52 764.255,1997.52 764.255,1997.552 764.223,1997.552 764.014,1997.552 763.998,1997.536 763.853,1997.552 
	763.853,1997.89 763.853,1997.906 763.837,1997.922 763.837,1997.938 763.821,1997.954 763.805,1997.954 763.788,1997.954 
	763.515,1997.954 762.92,1997.986 762.292,1998.019 762.131,1998.035 762.083,1998.035 762.067,1998.035 762.051,1998.019 
	762.035,1998.002 762.035,1997.986 762.019,1997.954 762.003,1997.134 762.003,1997.021 761.922,1997.021 761.906,1996.876 
	761.906,1996.796 761.987,1996.796 761.971,1996.635 761.987,1996.555 761.971,1995.943 763.258,1995.911 763.949,1995.879 
	763.998,1995.863 764.014,1995.879 764.223,1995.879 764.239,1995.879 764.239,1995.863 764.287,1995.863 764.303,1995.879 
	764.528,1995.863 764.528,1995.847 764.561,1995.847 764.561,1995.863 764.625,1995.863 764.834,1995.847 764.834,1995.831 
	764.882,1995.831 764.898,1995.847 764.931,1995.847 764.947,1995.831 765.043,1995.831 765.043,1995.847 765.108,1995.847 
	765.108,1995.831 765.156,1995.831 765.172,1995.847 765.397,1995.831 765.413,1995.814 765.445,1995.814 765.445,1995.831 
	765.687,1995.814 765.687,1995.798 765.719,1995.798 765.751,1995.814 766.942,1995.798 766.925,1996.49 766.925,1996.876 
	766.909,1997.214 766.893,1998.147 766.893,1998.324 766.475,1998.517 766.491,1998.582 "/>
<polygon fill="#3E5DAA" points="752.495,2067.711 751.401,2068.082 751.417,2068.13 751.433,2068.178 751.482,2068.291 
	751.063,2068.403 751.015,2068.259 750.902,2068.307 750.87,2068.226 750.774,2068.033 750.758,2067.985 750.661,2067.76 
	750.516,2067.342 750.404,2067.1 750.372,2067.036 750.307,2066.907 750.275,2066.827 749.953,2065.877 749.921,2065.765 
	749.921,2065.733 750.452,2065.508 750.742,2065.411 750.951,2065.331 751.144,2065.282 751.433,2065.202 751.578,2065.17 
	751.626,2065.154 751.659,2065.154 751.691,2065.154 751.707,2065.17 751.723,2065.17 751.739,2065.186 751.755,2065.186 
	751.755,2065.202 751.964,2065.877 752.093,2066.312 752.141,2066.505 752.189,2066.634 752.27,2066.939 752.382,2067.358 
	752.431,2067.535 752.479,2067.696 "/>
<polygon fill="#3E5DAA" points="748.634,2049.918 748.666,2050.015 748.811,2050.304 748.827,2050.321 748.859,2050.321 
	748.94,2050.481 749.052,2050.642 749.068,2050.674 749.101,2050.771 749.133,2050.9 749.165,2050.964 749.213,2051.044 
	749.229,2051.077 749.197,2051.109 749.278,2051.205 749.374,2051.302 749.471,2051.43 749.487,2051.447 749.615,2051.591 
	749.567,2051.607 749.406,2051.704 749.278,2051.784 749.052,2051.897 749.004,2051.929 748.859,2052.01 748.811,2052.042 
	748.731,2052.074 748.682,2052.01 748.634,2051.913 748.28,2051.286 748.216,2051.173 747.942,2050.69 747.814,2050.481 
	747.765,2050.401 747.717,2050.337 747.701,2050.304 747.974,2050.16 748.248,2049.999 748.441,2049.886 748.538,2049.822 
	748.57,2049.806 "/>
<polygon fill="#3E5DAA" points="764.528,2022.376 764.625,2022.488 765.027,2022.971 765.091,2023.051 765.027,2023.1 
	764.544,2023.518 764.014,2023.952 764.014,2023.968 763.869,2023.952 763.788,2023.84 763.611,2023.63 763.467,2023.454 
	763.402,2023.357 763.37,2023.341 763.225,2023.164 763.209,2023.132 763.161,2023.068 762.823,2022.665 762.759,2022.569 
	762.759,2022.472 762.743,2022.456 763,2022.247 763.129,2022.151 763.145,2022.134 763.676,2021.7 763.772,2021.813 
	763.837,2021.877 763.933,2021.99 764.175,2022.263 764.352,2022.456 764.368,2022.44 764.384,2022.424 764.496,2022.327 "/>
<polygon fill="#3E5DAA" points="805.212,2020.914 805.244,2021.365 805.26,2021.847 805.26,2022.539 805.26,2022.651 
	805.26,2022.748 804.842,2022.764 804.407,2022.764 804.07,2022.764 804.054,2022.185 804.054,2021.928 804.054,2021.879 
	804.037,2021.67 804.037,2021.654 804.037,2021.461 803.989,2020.85 804.15,2020.85 804.44,2020.882 805.196,2020.914 "/>
<polygon fill="#3E5DAA" points="808.204,1987.745 807.801,1987.633 807.673,1987.6 806.917,1987.391 806.82,1987.359 
	806.611,1987.295 806.466,1987.263 806.257,1987.198 806.112,1987.166 806.177,1986.925 806.772,1984.979 806.885,1985.011 
	807.078,1985.059 807.56,1985.204 808.461,1985.445 808.863,1985.558 808.606,1986.394 808.574,1986.523 808.493,1986.828 
	808.445,1986.957 "/>
<polygon fill="#3E5DAA" points="798.862,2119.45 796.36,2120.188 796.392,2119.899 796.392,2119.883 796.488,2119.081 
	796.552,2118.52 796.697,2118.407 797.178,2118.439 797.354,2118.455 797.851,2118.327 798.06,2118.247 798.124,2118.231 
	798.204,2118.215 798.316,2118.167 798.364,2118.151 798.589,2118.103 798.637,2118.086 798.781,2118.183 798.797,2118.247 
	798.813,2118.488 798.862,2119.113 798.862,2119.161 798.862,2119.241 "/>
<polygon fill="#3E5DAA" points="798.863,2119.36 796.345,2120.098 796.377,2119.81 796.393,2119.793 796.474,2118.991 
	796.538,2118.43 796.698,2118.318 797.163,2118.35 797.356,2118.366 797.853,2118.238 798.061,2118.158 798.109,2118.142 
	798.206,2118.125 798.318,2118.077 798.35,2118.061 798.574,2118.013 798.639,2117.997 798.783,2118.094 798.783,2118.158 
	798.799,2118.398 798.847,2119.024 798.847,2119.072 798.863,2119.152 "/>
<polygon fill="#3E5DAA" points="798.078,2055.554 798.078,2056.837 797.869,2057.43 797.677,2057.719 797.468,2057.896 
	797.18,2058.04 792.016,2057.527 792.272,2054.993 792.593,2055.009 792.689,2055.009 792.689,2055.073 794.421,2055.249 
	794.614,2055.265 795.239,2055.33 796.137,2055.41 797.212,2055.522 797.869,2055.618 797.869,2055.538 "/>
<polygon fill="#3E5DAA" points="798.864,2119.431 796.362,2120.185 796.394,2119.88 796.394,2119.864 796.49,2119.062 
	796.554,2118.517 796.699,2118.405 797.18,2118.437 797.356,2118.453 797.853,2118.308 798.062,2118.244 798.126,2118.228 
	798.206,2118.196 798.318,2118.164 798.366,2118.148 798.591,2118.084 798.639,2118.068 798.783,2118.164 798.799,2118.228 
	798.815,2118.469 798.864,2119.11 798.864,2119.142 798.864,2119.239 "/>
<polygon fill="#3E5DAA" points="790.669,2054.223 790.556,2054.672 790.556,2054.688 790.813,2054.752 790.973,2054.784 
	790.733,2055.602 790.653,2055.57 790.508,2056.164 790.476,2056.244 790.316,2056.885 790.172,2057.575 790.172,2057.607 
	790.075,2057.944 789.482,2057.944 788.76,2057.944 787.734,2057.944 785.248,2057.912 785.216,2057.783 785.184,2057.591 
	785.136,2057.254 785.008,2056.581 784.927,2056.212 784.895,2056.067 784.895,2056.035 784.799,2055.506 784.51,2054.175 
	784.414,2053.726 784.398,2053.726 784.318,2053.421 784.238,2053.052 784.222,2052.86 784.238,2052.78 784.27,2052.731 
	784.559,2052.491 784.927,2052.202 784.879,2052.138 786.002,2051.224 787.718,2049.861 788.824,2048.947 788.84,2048.963 
	788.921,2049.059 789.129,2048.883 789.241,2048.802 789.418,2048.658 789.706,2048.433 789.963,2048.225 790.027,2048.193 
	790.188,2048.129 790.332,2048.113 790.38,2048.113 790.637,2048.161 790.845,2048.225 791.038,2048.369 791.166,2048.498 
	791.23,2048.594 791.358,2048.786 791.471,2048.995 791.567,2049.3 791.631,2049.572 791.631,2049.925 791.615,2050.149 
	791.599,2050.342 791.567,2050.518 791.535,2050.679 791.535,2050.711 791.471,2050.967 791.39,2051.24 791.31,2051.577 
	791.246,2051.833 791.054,2052.619 790.925,2053.165 790.861,2053.405 790.829,2053.501 790.781,2053.742 "/>
<polygon fill="#3E5DAA" points="798.055,2055.563 798.071,2056.846 797.862,2057.439 797.67,2057.728 797.445,2057.905 
	797.173,2058.049 791.993,2057.536 792.266,2055.002 792.586,2055.018 792.683,2055.018 792.683,2055.082 794.415,2055.258 
	794.607,2055.274 795.232,2055.339 796.114,2055.419 797.189,2055.531 797.846,2055.627 797.862,2055.547 "/>
<polygon fill="#3E5DAA" points="798.857,2119.44 796.339,2120.194 796.371,2119.889 796.387,2119.873 796.467,2119.071 
	796.531,2118.526 796.692,2118.414 797.157,2118.446 797.349,2118.462 797.846,2118.317 798.055,2118.253 798.103,2118.237 
	798.199,2118.205 798.311,2118.173 798.344,2118.157 798.568,2118.093 798.632,2118.077 798.777,2118.173 798.777,2118.237 
	798.793,2118.478 798.841,2119.119 798.841,2119.151 798.857,2119.248 "/>
<polygon fill="#3E5DAA" points="790.646,2054.232 790.55,2054.681 790.55,2054.697 790.806,2054.761 790.951,2054.793 
	790.726,2055.611 790.646,2055.579 790.486,2056.172 790.469,2056.253 790.309,2056.894 790.165,2057.584 790.165,2057.616 
	790.069,2057.953 789.475,2057.953 788.754,2057.953 787.711,2057.953 785.225,2057.921 785.209,2057.792 785.177,2057.6 
	785.129,2057.263 785.001,2056.589 784.921,2056.221 784.889,2056.076 784.889,2056.044 784.792,2055.515 784.488,2054.184 
	784.408,2053.735 784.375,2053.735 784.295,2053.43 784.231,2053.061 784.199,2052.869 784.215,2052.789 784.263,2052.74 
	784.552,2052.5 784.921,2052.211 784.873,2052.147 785.995,2051.233 787.711,2049.87 788.802,2048.956 788.834,2048.972 
	788.914,2049.068 789.122,2048.892 789.235,2048.811 789.411,2048.667 789.684,2048.442 789.956,2048.234 790.004,2048.202 
	790.165,2048.138 790.325,2048.122 790.373,2048.122 790.63,2048.17 790.822,2048.234 791.031,2048.378 791.159,2048.507 
	791.223,2048.603 791.352,2048.795 791.448,2049.004 791.56,2049.309 791.608,2049.581 791.608,2049.934 791.592,2050.158 
	791.592,2050.351 791.56,2050.527 791.512,2050.688 791.512,2050.72 791.464,2050.976 791.384,2051.249 791.303,2051.586 
	791.239,2051.842 791.047,2052.628 790.902,2053.174 790.854,2053.414 790.822,2053.51 790.758,2053.751 "/>
<polygon fill="#3E5DAA" points="1369.59,922.982 1369.606,923.752 1368.547,923.752 1368.547,922.966 "/>
<polygon fill="#3E5DAA" points="1411.818,886.096 1411.882,886.69 1411.914,886.963 1411.93,887.075 1411.481,887.123 1411,887.203 
	1410.984,887.107 1410.903,886.674 1410.951,886.048 1410.951,886.032 1411.048,886.048 "/>
<polygon fill="#3E5DAA" points="1327.313,832.492 1328.164,833.47 1327.281,834.401 1326.415,833.599 1325.95,833.166 
	1326.078,832.781 1326.126,832.62 1326.158,832.492 "/>
<polygon fill="#3E5DAA" points="1401.838,876.967 1401.229,877.609 1401.1,877.753 1400.33,878.555 1400.234,878.459 
	1399.528,877.785 1399.416,877.721 1399.239,877.528 1399.175,877.464 1399.175,877.368 1399.175,877.304 1399.207,877.24 
	1399.432,877.015 1399.688,876.71 1400.587,875.78 1401.678,876.823 1401.71,876.855 "/>
<polygon fill="#3E5DAA" points="1328.164,833.47 1327.281,834.401 1326.415,833.583 1325.95,833.15 1326.078,832.764 
	1326.126,832.604 1326.367,831.513 1326.367,831.385 1326.447,831.497 1326.8,831.882 "/>
<polygon fill="#3E5DAA" points="1375.398,832.235 1374.194,832.219 1374.194,831.545 1375.414,831.513 "/>
<polygon fill="#3E5DAA" points="1324.166,1161.991 1322.529,1162.2 1322.08,1162.248 1321.904,1161.301 1321.823,1160.852 
	1321.647,1159.777 1321.615,1159.697 1321.807,1159.665 1323.668,1159.44 "/>
<polygon fill="#3E5DAA" points="1313.626,1021.973 1313.915,1023.817 1314.14,1025.341 1314.06,1025.309 1313.787,1025.181 
	1313.546,1025.069 1311.637,1024.186 1311.076,1023.946 1311.06,1023.93 1311.044,1023.801 1311.044,1023.689 1311.092,1023.561 
	1312.086,1021.475 "/>
<polygon fill="#3E5DAA" points="1341.54,988.043 1341.396,990.706 1337.273,989.888 1337.417,988.091 1337.786,988.155 
	1339.085,988.396 1339.134,987.979 1339.904,988.123 1339.936,987.754 1340,987.77 1340.417,987.85 "/>
<polygon fill="#3E5DAA" points="1341.54,988.059 1341.396,990.722 1337.273,989.888 1337.417,988.107 1337.786,988.171 
	1339.085,988.412 1339.134,987.978 1339.904,988.123 1339.936,987.77 1340,987.77 1340.417,987.85 "/>
<polygon fill="#3E5DAA" points="1195.803,1235.723 1195.306,1236.588 1194.858,1236.299 1195.306,1235.371 "/>
<polygon fill="#3E5DAA" points="1213.635,1256.422 1212.387,1258.134 1210.498,1256.678 1210.402,1256.374 1210.45,1256.117 
	1211.186,1255.141 1211.298,1255.269 1211.298,1255.797 1211.362,1256.165 1211.378,1256.294 1211.554,1256.438 1211.65,1256.518 
	1211.987,1256.614 1212.627,1256.101 1212.979,1256.101 "/>
<polygon fill="#3E5DAA" points="1216.549,1247.985 1214.82,1246.657 1215.092,1246.112 1215.364,1245.536 1215.396,1245.472 
	1215.988,1246 1217.157,1247.009 "/>
<polygon fill="#3E5DAA" points="1213.636,1256.406 1212.388,1258.135 1210.499,1256.678 1210.403,1256.358 1210.451,1256.118 
	1211.187,1255.125 1211.299,1255.253 1211.299,1255.797 1211.363,1256.15 1211.379,1256.294 1211.555,1256.422 1211.651,1256.502 
	1211.987,1256.614 1212.628,1256.101 1212.98,1256.101 "/>
<polygon fill="#3E5DAA" points="1216.55,1247.969 1214.821,1246.657 1215.093,1246.112 1215.365,1245.536 1215.397,1245.472 
	1215.989,1246 1217.158,1247.009 "/>
<polygon fill="#3E5DAA" points="1214.821,1336.414 1215.781,1335.054 1215.941,1334.829 1216.838,1335.518 1216.662,1335.774 
	1215.781,1337.103 "/>
<polygon fill="#3E5DAA" points="1193.403,1324.296 1193.259,1324.808 1192.426,1324.552 1192.57,1324.056 "/>
<polygon fill="#3E5DAA" points="1099.987,1491.263 1100.18,1491.407 1100.34,1491.504 1101.046,1491.953 1101.287,1492.049 
	1102.25,1491.841 1102.185,1492.049 1101.832,1493.381 1101.126,1495.948 1100.966,1495.9 1100.485,1495.788 1100.26,1495.74 
	1100.148,1495.708 1099.987,1495.675 "/>
<polygon fill="#3E5DAA" points="1117.379,1427.277 1117.411,1427.31 1117.443,1427.342 1117.459,1427.374 1116.465,1428.16 
	1115.759,1428.721 1115.614,1428.834 1114.957,1429.347 1114.7,1426.299 1114.716,1426.299 1115.181,1425.384 1115.438,1425.015 
	1115.486,1424.983 1116.32,1425.994 1116.689,1426.443 "/>
<polygon fill="#3E5DAA" points="1102.25,1491.857 1102.201,1492.065 1101.848,1493.397 1101.142,1495.964 1100.982,1495.916 
	1100.501,1495.804 1100.276,1495.756 1100.148,1495.724 1099.698,1495.627 1099.49,1495.595 1099.394,1495.563 1099.217,1495.531 
	1098.8,1495.435 1099.105,1494.296 1099.249,1493.959 1099.265,1493.59 1099.329,1492.29 1099.329,1492.081 1099.346,1491.889 
	1099.346,1491.568 1099.137,1491.44 1099.217,1490.67 1099.522,1490.91 1099.715,1491.055 1099.811,1491.135 1100.196,1491.424 
	1100.34,1491.52 1101.046,1491.969 1101.303,1492.065 "/>
<polygon fill="#3E5DAA" points="1117.395,1427.293 1117.427,1427.326 1117.443,1427.358 1117.476,1427.39 1116.465,1428.176 
	1115.759,1428.738 1115.614,1428.85 1114.973,1429.363 1114.716,1426.315 1115.181,1425.4 1115.454,1425.031 1115.502,1424.999 
	1116.336,1426.01 1116.705,1426.459 "/>
<polygon fill="#3E5DAA" points="1253.858,1467.367 1253.58,1467.954 1252.733,1467.595 1252.994,1467.025 "/>
<polygon fill="#3E5DAA" points="1228.068,1509.068 1229.242,1509.818 1228.769,1510.405 1228.671,1510.339 1226.503,1508.807 
	1226.601,1508.693 1226.748,1508.497 1226.927,1508.22 1227.057,1508.334 "/>
<polygon fill="#3E5DAA" points="1225.59,1454.146 1224.27,1456.82 1224.091,1456.722 1223.129,1456.282 1223.178,1456.167 
	1223.911,1454.586 1224.351,1453.657 1224.384,1453.559 1225.509,1454.097 "/>
<polygon fill="#3E5DAA" points="1095.2,1286.587 1094.815,1287.164 1094.799,1287.164 1094.254,1286.988 1093.564,1286.779 
	1093.788,1286.17 1095.152,1286.571 "/>
<polygon fill="#3E5DAA" points="1049.321,1296.914 1049,1298.357 1048.984,1298.453 1048.984,1298.534 1049,1298.566 
	1049.032,1298.566 1049.417,1298.453 1049.433,1298.47 1049.465,1298.534 1049.08,1298.678 1048.952,1298.694 1048.84,1298.71 
	1048.872,1298.534 1048.936,1298.229 1049.289,1296.545 1049.513,1295.503 1049.513,1295.471 1049.626,1295.487 "/>
<polygon fill="#3E5DAA" points="1047.637,1302.447 1047.605,1302.655 1047.573,1302.799 1047.252,1302.735 1047.316,1302.414 "/>
<polygon fill="#3E5DAA" points="1025.796,1356.986 1025.812,1356.986 1025.892,1357.05 1025.828,1357.579 1025.844,1357.724 
	1025.732,1357.772 1025.508,1357.82 1025.443,1357.964 1025.331,1358.589 1025.203,1359.327 1025.139,1359.327 1025.107,1359.295 
	1025.091,1359.247 1025.042,1359.231 1025.026,1358.381 1025.091,1357.002 1025.091,1356.954 1025.091,1356.922 1025.347,1356.938 
	1025.604,1356.97 1025.748,1356.986 "/>
<polygon fill="#3E5DAA" points="1036.38,1354.564 1036.236,1355.206 1035.674,1355.142 1035.674,1355.045 1035.161,1355.013 
	1034.937,1355.013 1034.937,1354.789 1034.937,1354.484 "/>
<polygon fill="#3E5DAA" points="1038.561,1346.001 1038.368,1346.819 1038.304,1346.819 1038.481,1345.969 "/>
<polygon fill="#3E5DAA" points="1106.778,1197.457 1106.633,1197.441 1106.12,1197.329 1105.222,1197.169 1105.206,1197.169 
	1105.19,1197.169 1105.174,1197.169 1105.158,1197.185 1105.142,1197.185 1105.126,1197.185 1105.11,1197.201 1105.094,1197.217 
	1105.078,1197.217 1105.062,1197.233 1105.046,1197.249 1105.03,1197.265 1105.014,1197.281 1104.998,1197.297 1104.998,1197.313 
	1104.982,1197.329 1104.966,1197.345 1104.966,1197.361 1104.966,1197.377 1104.966,1197.393 1104.436,1200.055 1104.372,1200.392 
	1106.2,1200.664 "/>
<polygon fill="#3E5DAA" points="1015.197,1408.173 1015.213,1408.206 1015.229,1408.574 1015.309,1408.574 1015.485,1408.574 
	1015.694,1408.574 1015.694,1409.136 1015.694,1409.344 1015.726,1411.718 1015.517,1411.653 1015.389,1411.621 1014.972,1411.557 
	1014.764,1411.525 1012.599,1411.637 1012.39,1411.653 1012.038,1411.669 1011.974,1411.252 1012.583,1411.236 1012.583,1411.172 
	1012.567,1411.172 1012.567,1411.092 1012.455,1409.537 1012.631,1409.521 1013.144,1409.296 1013.272,1409.248 1013.625,1409.152 
	1014.01,1408.767 1014.539,1408.478 1014.812,1408.238 1014.94,1408.157 "/>
<polygon fill="#3E5DAA" points="1106.778,1197.457 1106.201,1200.665 1104.356,1200.392 1104.421,1200.055 1104.95,1197.409 
	1104.966,1197.377 1105.014,1197.297 1105.046,1197.265 1105.094,1197.217 1105.126,1197.201 1105.174,1197.185 1105.222,1197.169 
	1106.104,1197.329 1106.617,1197.441 "/>
<polygon fill="#3E5DAA" points="885.514,708.599 885.434,708.967 885.241,709.946 884.936,711.454 884.375,711.39 884.856,708.486 
	"/>
<polygon fill="#3E5DAA" points="885.466,708.615 885.385,708.967 885.193,709.962 884.888,711.454 884.327,711.39 884.808,708.486 
	"/>
<polygon fill="#3E5DAA" points="847.707,673.229 847.627,674.304 847.563,675.009 847.178,675.009 846.649,674.993 846.665,674.288 
	846.665,674.063 846.087,673.213 845.943,672.988 845.478,672.331 845.766,671.817 846.36,671.866 846.408,672.491 846.953,673.213 
	"/>
<polygon fill="#3E5DAA" points="728.802,682.998 727.663,683.976 727.471,683.591 727.808,683.254 727.326,683.27 727.198,683.03 
	727.214,683.014 727.872,682.26 728.064,682.115 728.128,682.067 "/>
<polygon fill="#3E5DAA" points="978.287,513.121 977.037,513.041 977.117,512.047 977.245,511.822 977.55,511.63 977.951,511.486 
	977.999,511.469 978.352,511.389 978.32,512.271 "/>
<polygon fill="#3E5DAA" points="960.313,434.712 960.025,435.754 959.977,435.93 958.934,435.69 958.598,435.53 958.533,435.337 
	958.517,435.305 958.517,435.273 958.517,435.257 958.517,435.225 958.71,434.455 958.758,434.295 "/>
<polygon fill="#3E5DAA" points="889.843,445.535 890.324,446.193 890.373,446.257 889.988,446.529 889.491,446.834 888.673,447.363 
	888.593,447.379 888.465,447.379 888.384,447.363 888.272,447.299 887.839,446.609 888.561,446.16 888.946,445.92 889.587,445.503 
	"/>
<polygon fill="#3E5DAA" points="960.313,434.712 960.041,435.738 959.993,435.93 958.934,435.674 958.614,435.529 958.549,435.321 
	958.533,435.289 958.517,435.273 958.517,435.241 958.533,435.209 958.726,434.455 958.774,434.279 "/>
<polygon fill="#3E5DAA" points="923.772,435.049 924.669,435.417 924.237,436.075 923.82,435.882 923.467,435.722 923.21,435.61 
	923.467,434.904 "/>
<polygon fill="#3E5DAA" points="960.313,434.712 960.025,435.738 959.977,435.93 958.934,435.674 958.598,435.529 958.533,435.321 
	958.517,435.289 958.517,435.273 958.517,435.241 958.517,435.209 958.71,434.455 958.758,434.279 "/>
<polygon fill="#3E5DAA" points="960.313,434.712 960.041,435.754 959.993,435.93 958.934,435.69 958.614,435.53 958.549,435.337 
	958.533,435.305 958.517,435.273 958.517,435.257 958.533,435.225 958.726,434.455 958.774,434.295 "/>
<polygon fill="#3E5DAA" points="923.772,435.049 924.669,435.417 924.237,436.091 923.82,435.898 923.467,435.738 923.21,435.61 
	923.467,434.92 "/>
<polygon fill="#3E5DAA" points="889.843,445.551 890.324,446.193 890.373,446.273 889.988,446.529 889.491,446.85 888.673,447.379 
	888.593,447.379 888.465,447.379 888.384,447.379 888.272,447.299 887.839,446.625 888.561,446.177 888.946,445.936 
	889.587,445.503 "/>
<polygon fill="#3E5DAA" points="818.689,624.223 818.657,621.945 821.913,621.865 822.009,624.271 "/>
<polygon fill="#3E5DAA" points="863.397,577.717 863.365,578.471 862.033,578.279 861.279,577.974 861.006,577.878 861.215,577.124 
	861.648,577.252 "/>
<polygon fill="#3E5DAA" points="890.667,592.315 891.341,592.348 891.325,593.198 890.683,593.182 890.603,593.182 889.689,593.15 
	889.095,593.134 888.887,593.118 888.807,593.102 888.726,593.037 888.71,593.037 888.758,592.203 "/>
<polygon fill="#3E5DAA" points="871.081,601.395 869.701,601.379 869.701,601.267 869.717,598.363 870.134,598.363 870.888,598.411 
	871.113,598.572 871.097,598.989 "/>
<polygon fill="#3E5DAA" points="912.404,570.354 912.789,570.418 913.366,570.482 914.04,570.594 914.505,570.723 914.73,570.787 
	914.537,571.413 915.147,571.685 915.099,571.798 914.618,572.84 914.553,572.888 914.489,572.888 914.361,572.888 914.104,572.872 
	913.944,572.84 913.623,572.744 912.516,572.279 910.623,572.359 909.613,572.391 909.404,572.407 909.356,570.498 909.789,570.546 
	910.062,570.418 910.158,570.37 910.575,570.193 910.655,570.177 910.72,570.161 911.586,570.258 912.308,570.354 "/>
<polygon fill="#3E5DAA" points="863.397,577.701 863.365,578.471 862.033,578.279 861.279,577.974 861.006,577.861 861.215,577.123 
	861.648,577.236 "/>
<polygon fill="#3E5DAA" points="912.404,570.354 912.789,570.402 913.366,570.482 914.04,570.578 914.505,570.707 914.73,570.787 
	914.537,571.413 915.147,571.669 915.099,571.781 914.618,572.84 914.553,572.872 914.489,572.872 914.361,572.888 914.104,572.856 
	913.944,572.824 913.623,572.728 912.516,572.279 910.623,572.343 909.613,572.391 909.404,572.391 909.356,570.498 909.789,570.53 
	910.062,570.402 910.158,570.37 910.575,570.177 910.655,570.161 910.719,570.145 911.586,570.241 912.308,570.338 "/>
<polygon fill="#3E5DAA" points="857.714,944.943 857.137,944.926 856.816,944.91 853.833,944.846 853.833,944.814 853.817,944.028 
	855.212,944.06 855.87,944.076 855.886,944.076 856.207,944.092 856.239,944.092 857.746,944.141 "/>
<polygon fill="#3E5DAA" points="867.097,921.3 867.017,921.348 867.53,922.15 867.707,922.423 865.253,924.011 864.916,924.203 
	864.836,924.251 864.82,924.251 864.659,924.331 864.595,924.331 864.579,924.315 864.387,924.299 864.499,922.776 864.499,922.76 
	864.499,922.744 864.499,922.711 864.403,922.07 864.403,922.054 864.403,922.038 864.242,921.396 864.274,921.476 864.371,921.428 
	865.974,920.546 866.055,920.498 866.359,920.338 866.472,920.273 867.049,921.22 "/>
<polygon fill="#3E5DAA" points="959.29,869.075 959.178,869.668 958.954,871.144 958.922,871.128 958.376,871.031 958.424,870.727 
	958.44,870.502 958.649,868.994 958.665,868.946 959.194,869.042 "/>
<polygon fill="#3E5DAA" points="879.977,900.657 879.864,900.673 879.656,900.673 879.463,900.673 879.399,900.689 879.255,900.689 
	879.223,900.689 879.03,900.689 878.886,900.689 878.854,900.689 878.677,900.705 878.549,900.705 878.517,900.528 878.501,900.448 
	878.485,900.304 878.485,900.16 878.485,899.999 878.485,899.839 878.485,899.775 878.453,899.149 878.79,899.133 879.143,899.117 
	879.896,899.069 879.896,899.133 879.929,899.742 879.945,900.208 "/>
<polygon fill="#3E5DAA" points="959.29,869.075 959.178,869.668 958.954,871.144 958.922,871.128 958.392,871.031 958.424,870.727 
	958.456,870.502 958.665,868.994 958.665,868.946 959.194,869.042 "/>
<polygon fill="#3E5DAA" points="871.51,787.971 871.703,788.132 871.559,788.18 871.687,788.42 871.927,788.34 872.04,788.42 
	872.2,788.677 872.328,788.966 872.794,789.735 873.05,790.201 873.323,790.842 873.387,791.051 873.355,791.291 873.307,791.516 
	871.671,792.141 871.671,792.157 871.703,792.302 871.19,792.67 871.174,792.67 871.174,792.799 871.206,792.911 871.19,792.911 
	870.869,793.135 870.837,793.2 870.661,793.44 870.596,793.536 870.468,793.649 870.468,793.777 870.468,794.338 870.388,794.338 
	870.067,794.37 869.939,794.37 869.843,794.37 869.859,793.793 869.843,793.312 869.762,791.628 869.762,791.451 869.714,791.435 
	869.458,791.419 869.105,791.323 869.041,791.339 868.495,791.355 868.078,791.419 867.854,791.451 867.678,791.484 
	867.501,791.676 867.469,791.724 867.421,791.756 867.228,792.157 867.18,792.253 867.068,792.221 867.084,792.109 867.196,791.099 
	867.228,790.313 867.277,789.463 867.277,789.286 867.373,788.789 867.694,788.869 867.774,788.292 868.03,788.244 868.479,788.164 
	868.624,788.099 868.848,787.987 869.137,787.843 869.153,787.843 869.185,787.923 869.233,788.212 869.474,788.34 869.794,788.388 
	870.34,788.629 870.468,788.805 870.468,788.741 870.628,788.404 870.693,788.308 871.078,788.067 "/>
<polygon fill="#3E5DAA" points="839.74,819.182 839.708,819.31 839.66,819.566 839.66,819.599 839.644,819.679 839.628,819.679 
	839.612,819.839 839.596,819.983 839.467,821.01 839.403,821.667 839.387,821.812 839.371,821.988 838.633,821.86 837.928,821.587 
	837.912,821.09 837.864,819.342 837.864,819.166 837.864,819.053 838.28,819.005 838.681,819.005 838.698,819.005 838.746,819.005 
	838.81,819.005 838.938,819.005 839.018,819.021 839.066,819.021 839.227,819.053 839.355,819.085 839.499,819.117 839.628,819.149 
	"/>
<polygon fill="#3E5DAA" points="724.686,801.684 724.59,802.165 725.007,802.261 724.83,803.111 723.162,802.758 723.339,801.475 
	724.108,801.604 724.205,801.62 "/>
<polygon fill="#3E5DAA" points="834.413,1267.703 834.06,1268.728 835.15,1269.177 834.957,1269.673 834.717,1270.234 
	833.948,1269.898 833.708,1270.458 833.692,1270.49 833.484,1270.394 832.939,1270.106 832.363,1269.833 831.642,1269.465 
	831.274,1269.321 831.097,1269.241 831.049,1269.081 831.498,1268.104 831.738,1267.543 832.138,1266.63 832.379,1266.758 
	834.413,1267.703 "/>
<polygon fill="#3E5DAA" points="786.242,1109.977 786.226,1110.233 786.242,1110.762 786.258,1111.146 786.049,1111.146 
	785.841,1111.146 785.232,1111.146 785.184,1110.618 785.184,1109.945 "/>
<polygon fill="#3E5DAA" points="792.232,986.115 790.326,985.987 790.054,985.955 789.941,985.955 790.102,985.106 791.223,983.953 
	791.495,984.033 792.12,984.241 792.296,984.434 "/>
<polygon fill="#3E5DAA" points="854.569,1131.762 854.569,1130.721 854.585,1130.721 855.322,1130.785 855.482,1130.801 
	855.578,1130.817 855.658,1130.817 855.738,1130.833 855.867,1130.833 855.995,1130.849 856.219,1130.881 856.299,1130.881 
	856.475,1130.897 856.635,1130.913 857.773,1131.025 857.885,1131.041 857.757,1131.762 "/>
<polygon fill="#3E5DAA" points="857.612,1128.67 857.58,1128.927 857.564,1129.071 857.372,1130.689 857.228,1130.673 
	857.148,1130.673 856.235,1130.593 855.098,1130.496 854.841,1130.48 854.777,1130.464 854.793,1130.288 854.793,1130.16 
	854.809,1129.936 854.825,1129.76 854.841,1129.631 854.841,1129.455 854.841,1129.375 854.89,1128.686 854.89,1128.542 
	854.938,1128.574 855.194,1128.734 855.418,1128.815 855.802,1128.863 856.844,1128.847 857.196,1128.863 857.356,1128.863 
	857.484,1128.815 "/>
<polygon fill="#3E5DAA" points="792.216,986.165 790.326,986.036 790.038,986.005 789.926,986.005 790.086,985.156 791.223,984.002 
	791.495,984.082 792.12,984.291 792.296,984.483 "/>
<polygon fill="#3E5DAA" points="786.241,1109.974 786.225,1110.247 786.241,1110.759 786.257,1111.144 786.048,1111.144 
	785.84,1111.144 785.232,1111.16 785.184,1110.631 785.184,1109.958 "/>
<polygon fill="#3E5DAA" points="857.362,1133.769 855.985,1133.401 855.921,1133.385 855.248,1133.241 855.408,1132.984 
	855.44,1132.936 855.2,1132.776 854.832,1132.584 854.751,1132.568 854.559,1132.536 854.543,1132.296 854.543,1130.742 
	854.559,1130.742 855.296,1130.822 855.456,1130.838 855.552,1130.838 855.632,1130.854 855.712,1130.854 855.841,1130.87 
	855.969,1130.886 856.193,1130.902 856.273,1130.918 856.449,1130.934 856.609,1130.95 857.747,1131.062 857.859,1131.078 
	857.538,1132.808 857.378,1133.641 "/>
<polygon fill="#3E5DAA" points="857.586,1128.692 857.554,1128.948 857.538,1129.108 857.346,1130.71 857.202,1130.71 
	857.122,1130.694 856.209,1130.63 855.072,1130.534 854.816,1130.502 854.751,1130.502 854.767,1130.326 854.767,1130.198 
	854.783,1129.973 854.799,1129.797 854.816,1129.653 854.816,1129.493 854.816,1129.413 854.864,1128.708 854.864,1128.58 
	854.912,1128.612 855.168,1128.772 855.392,1128.852 855.777,1128.9 856.818,1128.868 857.17,1128.884 857.33,1128.884 
	857.458,1128.852 "/>
<polygon fill="#3E5DAA" points="792.216,986.113 790.31,985.969 790.038,985.953 789.925,985.937 790.086,985.088 791.207,983.935 
	791.479,984.015 792.104,984.239 792.28,984.431 "/>
<polygon fill="#3E5DAA" points="874.645,1065.171 874.372,1067.097 872.911,1067.065 872.944,1066.856 873.216,1065.074 "/>
<polygon fill="#3E5DAA" points="918.386,1069.12 917.086,1069.2 917.086,1068.445 918.354,1068.349 "/>
<polygon fill="#3E5DAA" points="940.666,1081.737 940.682,1081.255 940.778,1081.255 940.778,1081.737 "/>
<polygon fill="#3E5DAA" points="923.426,1108.046 923.105,1108.881 921.837,1108.464 922.19,1107.645 "/>
<polygon fill="#3E5DAA" points="933.812,1090.084 933.828,1091.208 932.287,1091.015 932.223,1091.593 931.516,1091.48 
	931.308,1091.448 931.259,1090.71 930.794,1090.662 930.842,1089.875 "/>
<polygon fill="#3E5DAA" points="923.409,1108.076 923.088,1108.894 921.82,1108.493 922.173,1107.658 "/>
<polygon fill="#3E5DAA" points="974.71,1198.723 972.27,1196.973 972.72,1195.512 972.977,1195.609 974.71,1196.267 "/>
<polygon fill="#3E5DAA" points="879.203,1134.385 877.999,1134.482 877.886,1134.498 877.662,1133.519 878.833,1133.47 
	879.187,1133.438 "/>
<polygon fill="#3E5DAA" points="851.337,1247.939 851.112,1249.319 851,1250.026 850.598,1249.978 848.078,1249.64 
	848.094,1249.367 848.127,1248.998 848.239,1247.843 848.255,1247.586 850.807,1247.875 850.855,1247.875 "/>
<polygon fill="#3E5DAA" points="1050.433,1158.042 1050.401,1158.556 1049.582,1158.492 1049.614,1157.962 "/>
<polygon fill="#3E5DAA" points="977.799,1197.547 977.542,1198.141 977.012,1198.767 976.675,1199.569 976.563,1200.147 
	972.309,1197.081 972.742,1195.621 972.999,1195.717 "/>
<polygon fill="#3E5DAA" points="1010.223,1183.967 1009.565,1184.208 1009.18,1184.208 1009.212,1184.111 1008.457,1183.967 
	1008.538,1183.116 1010.335,1183.389 "/>
<polygon fill="#3E5DAA" points="851.394,1248.014 851.169,1249.395 851.057,1250.085 850.656,1250.037 848.136,1249.7 
	848.152,1249.427 848.184,1249.074 848.296,1247.902 848.312,1247.645 850.865,1247.934 850.913,1247.934 "/>
<polygon fill="#3E5DAA" points="824.721,1344.287 824.257,1344.255 824.081,1344.223 824.129,1343.903 824.145,1343.711 
	824.161,1343.343 824.737,1343.343 "/>
<polygon fill="#3E5DAA" points="829.396,1355.653 829.284,1356.533 829.572,1356.565 829.844,1356.597 829.684,1357.734 
	829.46,1357.734 829.412,1357.718 829.268,1357.718 829.188,1357.702 828.963,1357.702 828.259,1357.654 827.763,1357.622 
	827.779,1357.493 827.875,1356.773 828.051,1355.46 828.211,1355.493 828.915,1355.589 "/>
<polygon fill="#3E5DAA" points="816.856,1408.716 816.36,1408.876 814.919,1409.228 813.655,1409.436 813.591,1409.42 
	813.527,1409.404 813.478,1409.372 813.43,1409.34 813.382,1409.292 813.35,1409.26 813.318,1409.196 813.302,1409.132 
	813.286,1409.084 813.334,1408.588 813.35,1408.443 813.446,1407.291 813.478,1406.891 813.51,1406.298 813.527,1406.202 
	813.591,1405.61 813.607,1405.562 813.623,1405.514 813.655,1405.466 813.687,1405.434 813.719,1405.402 813.751,1405.37 
	813.799,1405.338 813.847,1405.322 813.895,1405.306 813.943,1405.306 814.007,1405.306 814.055,1405.306 814.071,1405.322 
	814.103,1405.322 814.151,1405.354 816.856,1407.243 "/>
<polygon fill="#3E5DAA" points="787.066,1495.142 787.066,1495.19 787.098,1495.19 787.082,1495.286 787.13,1495.286 
	787.098,1495.622 787.05,1495.638 787.05,1495.927 787.082,1495.943 787.082,1496.039 787.05,1496.071 787.05,1496.135 
	787.05,1496.199 787.018,1496.215 787.002,1496.343 787.002,1496.471 787.739,1496.471 787.803,1496.519 788.139,1496.647 
	788.139,1496.679 788.139,1496.663 788.091,1497.255 788.091,1497.447 788.123,1497.719 787.995,1497.719 786.682,1497.671 
	786.426,1497.671 786.154,1497.447 786.074,1497.159 786.042,1497.047 785.626,1496.887 785.578,1496.855 785.61,1496.807 
	785.69,1496.695 785.77,1496.455 785.818,1496.295 785.834,1496.231 785.962,1496.247 786.106,1496.279 786.122,1496.119 
	786.138,1495.927 786.682,1495.958 786.698,1495.766 786.65,1495.766 786.682,1495.222 786.666,1495.222 786.666,1495.19 
	786.73,1495.19 786.73,1495.142 787.034,1495.142 "/>
<polygon fill="#3E5DAA" points="814.912,1409.207 813.647,1409.415 813.583,1409.399 813.535,1409.383 813.471,1409.351 
	813.423,1409.319 813.375,1409.271 813.343,1409.239 813.311,1409.175 813.295,1409.11 813.295,1409.062 813.327,1408.566 
	813.343,1408.422 813.439,1407.27 813.487,1406.87 813.519,1406.277 813.519,1406.181 813.583,1405.589 813.599,1405.541 
	813.615,1405.493 813.647,1405.445 813.679,1405.413 813.711,1405.381 813.759,1405.349 813.807,1405.317 813.855,1405.301 
	813.903,1405.285 813.951,1405.285 813.999,1405.285 814.047,1405.285 814.063,1405.301 814.095,1405.301 814.143,1405.333 
	817.185,1407.446 817.377,1407.606 817.425,1407.654 817.457,1407.718 817.489,1407.782 817.521,1407.846 817.537,1407.91 
	817.537,1407.99 817.537,1408.07 817.537,1408.134 817.521,1408.198 817.489,1408.278 817.457,1408.342 817.409,1408.39 
	817.361,1408.454 817.313,1408.502 816.977,1408.662 816.352,1408.854 "/>
<polygon fill="#3E5DAA" points="819.778,1477.016 819.09,1477.144 819.074,1477.048 818.545,1475.671 818.705,1475.591 
	818.833,1475.447 818.914,1475.383 819.09,1475.127 819.33,1474.855 "/>
</svg>
