<?xml version="1.0" encoding="utf-8"?>
<!-- Generator: Adobe Illustrator 17.0.0, SVG Export Plug-In . SVG Version: 6.00 Build 0)  -->
<!DOCTYPE svg PUBLIC "-//W3C//DTD SVG 1.1//EN" "http://www.w3.org/Graphics/SVG/1.1/DTD/svg11.dtd">
<svg version="1.1" id="Layer_2" xmlns="http://www.w3.org/2000/svg" xmlns:xlink="http://www.w3.org/1999/xlink" x="0px" y="0px"
	 width="1840px" height="2400px" viewBox="0 0 1840 2400" enable-background="new 0 0 1840 2400" xml:space="preserve">
<polygon fill="#D6866E" points="1469.079,868.463 1469.207,869.025 1469.127,869.811 1469.095,870.228 1469.095,870.244 
	1469.031,870.838 1468.999,871.207 1468.967,871.64 1468.838,872.555 1468.742,872.539 1468.485,872.507 1468.341,872.539 
	1468.036,872.49 1467.956,872.523 1467.555,872.41 1467.202,872.458 1465.934,872.474 1465.918,872.073 1465.854,870.581 
	1465.838,870.02 1465.822,869.939 1465.806,869.731 1466.512,869.715 1466.977,869.731 1467.635,869.715 1467.603,870.004 
	1467.603,870.068 1467.876,870.148 1468.165,870.148 1468.373,869.731 1468.582,869.635 1468.822,868.913 1468.774,868.736 
	1468.854,868.544 1468.903,868.431 1468.919,868.431 1468.983,868.447 "/>
<polygon fill="#D6866E" points="1361.471,805.152 1361.391,805.232 1361.279,805.329 1360.685,804.607 1360.781,804.51 
	1360.83,804.478 1360.846,804.494 1360.894,804.526 1361.263,804.863 "/>
<polygon fill="#D6866E" points="1120.813,1437.738 1120.299,1438.749 1120.283,1438.765 1120.075,1438.653 1120.604,1437.658 "/>
<polygon fill="#D6866E" points="1120.829,1437.755 1120.299,1438.765 1120.299,1438.781 1120.091,1438.669 1120.62,1437.674 "/>
<polygon fill="#D6866E" points="1404.404,1485.886 1393.824,1489.016 1393.759,1488.935 1393.547,1488.266 1393.238,1486.897 
	1393.189,1486.457 1393.368,1486.196 1396.123,1485.25 1396.286,1485.674 1397.036,1485.365 1396.905,1484.99 1402.937,1482.919 
	1403.051,1483.294 1403.491,1484.745 1404.029,1484.631 "/>
<polygon fill="#D6866E" points="1407.322,1478.681 1403.524,1480.05 1403.068,1478.729 1403.377,1478.599 1406.801,1477.295 "/>
<polygon fill="#D6866E" points="979.795,436.235 979.682,436.347 979.298,435.225 979.41,435.113 980.709,433.605 981.462,434.247 
	"/>
<polygon fill="#D6866E" points="1002.371,418.036 1002.05,418.501 1001.104,419.848 1002.435,421.307 1002.082,421.339 
	1000.414,424.033 1000.254,424.225 1000.19,424.321 999.853,424.562 999.805,424.594 999.517,424.738 999.212,424.77 
	999.132,424.77 996.085,423.584 995.893,423.504 995.765,423.455 995.941,423.007 996.518,421.644 996.679,421.692 996.871,421.259 
	996.695,421.195 996.807,420.922 996.999,421.034 997.528,420.906 997.977,421.163 998.073,421.307 998.747,421.371 
	999.805,420.794 1000.655,418.645 1000.847,418.084 999.549,417.972 998.122,417.747 998.394,417.106 999.517,414.043 
	999.549,413.963 999.821,413.225 999.917,412.937 1000.19,412.215 1000.43,412.327 1000.863,412.728 1001.168,413.177 
	1001.296,413.546 1001.344,413.899 1001.809,414.043 1001.537,414.588 1001.248,415.134 1000.687,416.545 1000.863,417.042 
	1001.922,417.715 "/>
<polygon fill="#D6866E" points="979.795,436.219 979.682,436.347 979.298,435.225 979.41,435.097 980.709,433.605 981.462,434.247 
	"/>
</svg>
