<?xml version="1.0" encoding="iso-8859-1"?>
<!-- Generator: Adobe Illustrator 17.0.0, SVG Export Plug-In . SVG Version: 6.00 Build 0)  -->
<!DOCTYPE svg PUBLIC "-//W3C//DTD SVG 1.1//EN" "http://www.w3.org/Graphics/SVG/1.1/DTD/svg11.dtd">
<svg version="1.1" id="SPA_x5F_boundary" xmlns="http://www.w3.org/2000/svg" xmlns:xlink="http://www.w3.org/1999/xlink" x="0px"
	 y="0px" width="1840px" height="2407.041px" viewBox="0 0 1840 2407.041" style="enable-background:new 0 0 1840 2407.041;"
	 xml:space="preserve">
<polygon style="fill:#EF4136;" points="735.125,484.037 735.277,484.799 735.277,485.104 735.429,485.408 735.277,486.018 
	735.277,486.17 735.429,486.323 735.277,486.475 735.277,486.628 735.429,486.78 735.582,486.932 735.582,487.237 735.582,487.542 
	735.887,488.151 736.344,489.37 736.039,489.37 735.582,489.37 735.125,489.218 734.82,489.218 734.515,489.065 734.21,489.065 
	733.448,488.913 733.296,493.179 733.906,493.332 735.125,493.789 736.648,494.703 737.563,495.312 739.086,496.531 
	740.306,497.903 740.763,498.817 741.22,499.579 741.982,500.645 742.591,502.321 742.439,503.997 741.982,505.978 741.677,507.197 
	741.22,509.483 740.458,511.463 740.001,511.311 740.001,512.987 739.696,514.815 738.934,516.339 738.477,516.948 736.801,520.91 
	736.191,522.586 735.887,523.043 735.582,523.196 734.972,523.348 734.668,523.653 734.668,523.957 734.972,524.11 735.277,524.414 
	735.125,525.481 733.296,529.747 731.163,534.014 729.487,535.233 728.572,535.537 729.029,537.061 729.029,537.213 728.725,537.67 
	725.525,543.156 725.372,543.308 724.001,545.441 720.801,549.403 718.973,551.993 717.601,553.364 716.687,553.669 716.23,553.821 
	716.23,553.974 715.315,555.802 713.639,558.24 712.877,559.307 712.573,559.764 710.287,562.354 708.001,564.03 698.858,569.82 
	695.201,572.258 691.697,574.543 688.649,577.438 679.964,586.428 676.154,590.847 675.545,591.608 674.783,591.761 
	674.173,591.761 674.021,591.608 673.411,591.304 672.345,592.37 672.497,592.675 672.65,593.132 672.802,593.284 672.802,594.199 
	672.497,594.503 671.126,596.484 670.669,597.703 670.059,598.617 668.84,600.141 667.621,601.512 666.402,603.188 664.573,605.474 
	662.897,607.759 661.831,609.131 660.459,611.568 658.631,610.35 656.65,608.826 653.907,606.998 647.05,605.626 645.221,605.017 
	636.536,602.274 625.717,597.398 621.45,597.551 618.098,597.703 616.879,597.703 615.203,597.856 613.679,597.094 610.022,595.113 
	609.87,594.503 609.565,594.046 609.26,593.589 608.955,592.827 608.041,591.151 606.06,591.456 595.546,591.761 587.318,592.37 
	587.165,592.37 573.908,593.284 566.289,593.284 564.766,593.284 558.975,593.589 555.623,593.894 553.642,594.351 553.49,594.503 
	553.337,594.503 551.509,595.113 550.137,595.113 550.137,595.265 549.68,595.418 549.375,595.418 548.766,595.418 548.613,595.57 
	548.461,595.57 548.156,595.875 548.004,596.179 547.699,596.484 547.699,596.637 547.547,596.941 547.242,597.246 546.785,597.398 
	546.632,597.398 546.023,597.398 545.261,597.398 544.956,597.551 544.804,598.16 544.652,598.313 544.652,598.922 544.652,599.836 
	544.499,599.989 544.194,601.055 543.585,602.427 539.776,604.407 539.318,604.56 539.318,604.712 539.014,605.017 539.014,605.322 
	539.014,606.236 539.318,606.693 539.318,606.998 539.623,608.826 539.776,609.435 540.08,611.568 540.08,611.873 540.233,612.33 
	540.537,615.378 540.995,618.273 540.995,618.73 540.385,618.882 539.928,618.882 539.623,618.882 539.318,618.882 538.252,618.882 
	537.947,619.949 537.795,620.558 537.337,620.558 536.88,620.558 535.204,620.406 534.899,620.406 534.747,620.863 534.442,621.472 
	534.442,622.082 534.442,622.234 534.595,622.234 534.595,622.387 534.747,623.91 534.899,624.52 535.204,624.825 535.966,625.434 
	536.271,625.586 536.423,625.739 537.642,626.653 537.947,626.501 538.099,626.958 538.252,627.262 538.556,627.262 
	538.861,627.262 538.861,627.415 538.861,627.567 538.861,627.719 538.252,628.329 537.642,628.634 537.033,629.091 536.88,629.395 
	536.728,629.395 536.728,629.548 535.204,630.614 533.68,630.462 532.614,629.7 531.852,628.786 531.395,628.024 530.633,626.958 
	530.023,626.043 529.871,624.977 529.109,624.063 529.109,622.996 529.109,622.234 529.109,621.929 529.261,618.73 529.261,617.206 
	527.89,617.358 525.452,617.358 524.081,614.464 523.623,613.245 522.404,610.654 521.338,610.045 517.985,608.216 517.985,603.798 
	516.157,600.751 516.004,598.313 516.004,598.008 516.004,597.703 516.004,596.941 516.004,596.332 515.852,593.589 
	516.309,592.066 516.766,590.237 517.223,588.256 519.204,586.885 520.728,586.276 522.252,585.666 523.471,585.361 
	523.623,585.057 523.928,584.6 524.233,584.143 526.061,581.095 527.28,578.962 528.652,576.829 529.414,575.61 529.871,574.696 
	530.023,574.543 530.023,574.391 531.699,571.801 532.004,571.496 532.157,571.191 532.614,570.277 533.071,569.668 
	533.071,569.515 534.442,567.382 537.795,562.049 537.947,560.83 537.795,559.764 537.185,557.783 536.423,556.107 535.661,554.126 
	535.356,552.298 535.356,550.926 534.595,548.793 534.29,545.289 533.68,540.413 533.376,538.585 532.919,536.756 532.309,534.775 
	532.004,534.318 530.633,531.88 530.633,531.271 530.48,530.662 531.699,526.09 532.157,525.176 532.461,524.719 533.376,524.262 
	534.747,523.805 535.204,523.805 536.423,522.434 537.49,520.148 538.709,518.167 539.318,516.948 539.776,515.73 540.08,514.815 
	540.995,512.378 541.147,511.006 541.147,509.94 541.147,508.416 540.995,507.349 540.537,506.283 540.08,504.607 539.928,503.388 
	539.928,502.169 540.385,499.883 540.385,498.969 540.69,497.445 540.995,496.684 541.147,495.769 541.299,495.008 541.604,493.941 
	541.909,492.57 542.061,491.96 542.671,490.894 543.28,489.98 544.042,488.304 544.347,487.999 545.261,485.104 545.261,484.952 
	548.004,475.657 548.004,475.352 548.156,474.895 548.461,474.133 548.461,473.981 548.766,472.914 548.918,472.305 
	548.918,472.153 549.223,471.391 549.223,470.934 549.375,470.477 549.68,469.41 549.985,468.496 550.442,466.82 551.204,461.03 
	551.509,457.678 551.509,455.697 551.356,453.716 551.204,451.888 551.204,451.431 551.051,448.079 551.661,445.488 
	551.356,444.117 551.204,442.746 551.051,441.527 550.747,439.546 550.29,437.87 550.29,436.956 550.29,436.803 550.137,434.518 
	550.29,434.061 549.833,431.775 549.375,430.099 548.918,427.966 548.613,427.509 548.309,426.442 547.699,425.071 547.242,423.852 
	546.48,419.281 546.48,417.91 546.328,415.929 545.871,415.015 545.261,413.644 544.804,412.577 544.804,411.815 544.956,411.206 
	545.414,410.749 546.48,410.596 547.242,410.749 548.461,410.749 549.223,410.901 550.29,410.444 551.509,409.682 552.88,407.244 
	552.88,406.178 554.404,404.044 555.928,402.064 556.994,400.54 557.756,399.169 558.518,397.188 559.28,395.36 559.28,393.836 
	558.975,392.465 558.518,391.246 558.061,390.484 557.604,389.874 557.451,389.113 556.994,387.589 556.994,386.37 556.994,385.76 
	557.604,385.151 558.518,385.151 559.28,385.303 560.804,385.913 562.328,386.675 565.223,388.046 566.442,388.503 567.508,388.96 
	568.727,389.57 569.642,389.874 571.927,390.941 574.061,391.855 578.175,393.683 584.879,401.759 585.794,402.826 586.099,402.978 
	586.708,402.826 586.86,402.826 588.079,402.826 592.956,402.673 596.003,401.759 596.765,401.759 597.832,401.454 597.832,401.607 
	598.136,401.454 598.441,401.607 598.898,401.607 599.508,401.454 601.793,401.302 604.689,400.845 605.908,400.692 607.432,400.54 
	608.498,400.54 608.955,400.388 609.717,400.235 611.546,400.083 612.003,399.931 612.765,399.778 615.965,399.473 616.879,399.321 
	617.031,399.321 618.098,399.321 622.365,399.473 625.717,399.473 627.698,399.473 628.764,399.473 630.441,399.626 
	630.593,399.626 631.202,399.473 631.507,399.626 631.66,399.626 632.422,399.626 632.726,399.626 633.336,399.626 633.488,399.626 
	634.098,399.473 634.403,399.321 634.86,399.321 635.469,400.997 635.774,400.845 636.536,401.15 637.298,401.454 639.126,404.502 
	639.888,404.959 640.193,404.959 640.498,405.111 640.65,405.568 638.364,407.854 638.212,408.158 637.907,409.073 638.06,409.53 
	638.212,410.291 638.364,410.749 638.669,411.053 638.822,411.206 638.974,411.51 639.279,411.968 640.345,413.644 640.345,414.71 
	640.04,417.453 641.26,417.148 644.307,416.234 646.745,416.843 648.116,417.148 649.031,417.605 650.098,418.215 651.621,419.129 
	652.688,419.891 653.602,420.652 654.212,421.11 654.974,421.871 656.193,422.938 657.259,423.7 658.021,424.157 659.088,424.919 
	660.307,426.138 661.678,427.204 663.964,429.033 665.183,429.947 667.469,431.623 668.992,432.689 670.211,433.756 671.43,434.823 
	672.954,436.194 674.935,438.022 676.764,440.003 678.287,441.679 679.811,443.05 682.097,445.488 683.468,447.012 685.449,448.993 
	688.192,451.583 690.173,453.411 691.392,454.783 692.459,456.002 693.525,457.221 694.44,458.592 695.811,460.42 697.182,461.944 
	698.858,463.772 702.059,466.667 704.954,469.41 706.935,471.086 709.22,473.067 711.658,474.895 713.639,476.571 715.011,477.638 
	716.23,478.4 717.601,479.314 718.363,479.618 721.868,480.838 725.982,482.209 727.658,482.514 729.334,482.971 729.944,482.971 
	733.601,483.732 "/>
<polygon style="fill:#EF4136;" points="658.631,610.35 657.412,615.073 655.736,619.644 656.193,622.082 656.04,623.148 
	655.126,630.614 654.821,632.29 653.297,634.728 651.164,637.928 649.64,640.366 646.44,645.242 645.069,647.223 644.459,648.137 
	642.783,651.184 641.107,653.774 638.822,657.888 623.431,672.82 619.165,676.782 612.917,682.724 609.108,686.838 608.651,686.99 
	604.994,689.733 603.165,691.409 599.965,695.066 598.898,695.98 596.46,699.332 594.327,702.532 593.26,703.903 591.737,706.493 
	588.232,711.369 586.708,713.807 586.556,713.959 586.251,714.264 586.86,715.331 588.079,717.616 590.67,722.187 590.67,722.34 
	591.889,724.473 593.108,726.606 594.936,729.805 595.241,730.263 595.698,731.024 595.851,731.481 596.46,732.548 596.308,732.396 
	597.984,735.138 598.136,735.443 598.136,735.748 597.984,737.729 597.679,739.557 597.527,741.081 597.374,742.3 597.374,742.604 
	597.07,743.823 596.613,745.347 596.308,746.414 595.394,748.09 594.936,748.851 594.632,750.223 594.022,750.985 593.717,751.899 
	593.26,753.118 593.26,753.727 592.651,754.489 591.737,755.251 591.127,755.86 590.518,756.774 590.06,757.232 589.451,758.298 
	588.232,759.212 586.708,759.974 585.489,760.584 584.422,761.041 583.356,761.193 582.441,761.193 580.613,761.345 
	579.242,761.345 575.127,759.517 574.061,758.603 573.451,757.841 572.384,757.232 571.013,756.622 570.099,756.47 568.727,756.47 
	568.423,756.622 567.051,757.232 565.527,757.232 564.918,757.384 564.461,757.841 562.48,758.451 561.566,758.298 561.108,758.146 
	560.346,757.993 560.194,757.993 559.585,758.146 558.366,758.908 557.147,759.517 555.775,759.974 554.709,760.126 
	553.032,760.279 551.661,760.279 550.594,759.669 549.68,758.908 548.613,757.841 547.699,757.232 545.261,757.384 543.737,756.927 
	543.128,756.317 542.823,755.708 542.366,754.641 541.299,753.879 540.842,753.727 540.537,753.27 540.385,753.27 539.928,752.051 
	540.08,750.68 540.537,749.461 543.28,741.69 544.347,738.643 544.499,734.681 544.499,732.243 544.499,730.415 544.652,728.739 
	545.261,726.301 545.718,725.234 546.785,723.101 548.156,722.035 549.071,720.968 550.594,720.816 553.337,720.663 
	555.623,720.816 557.299,720.968 557.451,720.816 559.585,717.159 561.261,714.416 561.413,712.893 561.87,709.845 561.261,705.122 
	559.889,701.465 557.909,698.265 555.47,695.675 554.099,694.456 551.661,692.171 544.652,689.581 544.499,689.581 543.128,689.123 
	541.452,689.123 539.014,689.885 537.185,690.799 536.271,691.409 535.509,692.171 534.442,692.323 533.376,690.952 
	533.376,689.581 533.528,687.447 533.833,685.162 534.29,683.029 534.595,681.048 534.747,679.067 535.356,677.239 535.509,675.258 
	535.661,674.191 535.661,673.277 535.052,670.839 535.509,669.163 537.033,667.335 538.404,665.354 538.709,663.83 539.623,662.002 
	539.928,660.174 540.537,658.193 540.842,654.079 541.147,651.489 541.147,648.594 541.147,646.156 540.842,644.632 540.08,641.89 
	539.166,639.299 537.947,635.338 537.642,634.119 536.88,632.595 536.271,631.681 535.204,630.614 536.728,629.548 536.728,629.395 
	536.88,629.395 537.033,629.091 537.642,628.634 538.252,628.329 538.861,627.719 538.861,627.567 538.861,627.415 538.861,627.262 
	538.556,627.262 538.252,627.262 538.099,626.958 537.947,626.501 537.642,626.653 536.423,625.739 536.271,625.586 
	535.966,625.434 535.204,624.825 534.899,624.52 534.747,623.91 534.595,622.387 534.595,622.234 534.442,622.234 534.442,622.082 
	534.442,621.472 534.747,620.863 534.899,620.406 535.204,620.406 536.88,620.558 537.337,620.558 537.795,620.558 537.947,619.949 
	538.252,618.882 539.318,618.882 539.623,618.882 539.928,618.882 540.385,618.882 540.995,618.73 540.995,618.273 540.537,615.378 
	540.233,612.33 540.08,611.873 540.08,611.568 539.776,609.435 539.623,608.826 539.318,606.998 539.318,606.693 539.014,606.236 
	539.014,605.322 539.014,605.017 539.318,604.712 539.318,604.56 539.776,604.407 543.585,602.427 544.194,601.055 544.499,599.989 
	544.652,599.836 544.652,598.922 544.652,598.313 544.804,598.16 544.956,597.551 545.261,597.398 546.023,597.398 546.632,597.398 
	546.785,597.398 547.242,597.246 547.547,596.941 547.699,596.637 547.699,596.484 548.004,596.179 548.156,595.875 548.461,595.57 
	548.613,595.57 548.766,595.418 549.375,595.418 549.68,595.418 550.137,595.265 550.137,595.113 551.509,595.113 553.337,594.503 
	553.49,594.503 553.642,594.351 555.623,593.894 558.975,593.589 564.766,593.284 566.289,593.284 573.908,593.284 587.165,592.37 
	587.318,592.37 595.546,591.761 606.06,591.456 608.041,591.151 608.955,592.827 609.26,593.589 609.565,594.046 609.87,594.503 
	610.022,595.113 613.679,597.094 615.203,597.856 616.879,597.703 618.098,597.703 621.45,597.551 625.717,597.398 636.536,602.274 
	645.221,605.017 647.05,605.626 653.907,606.998 656.65,608.826 "/>
<polygon style="fill:#EF4136;" points="1086.052,1280.613 1085.9,1291.583 1085.748,1292.193 1085.748,1292.65 1085.595,1294.326 
	1085.443,1295.393 1085.29,1296.611 1085.29,1297.221 1084.224,1297.373 1084.071,1296.459 1084.071,1295.697 1084.071,1292.345 
	1083.157,1291.735 1083.767,1291.431 1084.071,1288.84 1083.462,1288.84 1083.309,1285.641 1083.614,1285.641 1083.309,1284.422 
	1084.376,1282.898 1083.462,1282.898 1082.852,1280.156 1085.443,1280.003 "/>
<polygon style="fill:#EF4136;" points="1086.662,1277.565 1086.662,1278.327 1083.767,1276.651 1084.681,1276.194 
	1084.376,1275.432 1085.9,1276.042 1086.052,1277.108 "/>
<polygon style="fill:#EF4136;" points="748.077,2159.771 747.924,2160.381 747.924,2160.533 747.62,2162.209 748.077,2163.581 
	746.858,2179.884 745.486,2186.893 744.42,2190.55 743.658,2192.835 743.505,2193.14 742.286,2197.254 741.982,2198.015 
	741.22,2199.996 736.496,2206.243 728.268,2216.147 725.372,2219.652 720.953,2224.985 719.887,2225.747 712.268,2234.583 
	707.239,2240.678 707.087,2240.831 707.087,2241.135 707.087,2241.288 706.935,2241.44 706.63,2241.593 706.325,2241.593 
	706.02,2241.593 705.258,2242.659 698.249,2249.821 697.792,2250.43 694.135,2254.239 692.306,2256.22 691.392,2257.286 
	686.363,2252.716 686.059,2252.41 681.64,2248.754 680.268,2247.535 680.116,2247.382 677.678,2245.249 676.154,2243.878 
	674.326,2242.202 665.792,2234.431 664.878,2233.669 661.221,2230.622 658.326,2228.184 657.869,2227.88 656.193,2226.508 
	654.821,2225.442 652.535,2223.613 653.45,2222.394 654.212,2221.633 656.954,2218.128 660.307,2213.862 661.526,2212.338 
	662.135,2211.576 663.202,2210.205 664.878,2208.224 668.688,2203.958 684.383,2187.045 702.668,2167.847 704.192,2166.171 
	704.497,2165.714 704.954,2165.104 705.563,2164.343 707.087,2162.666 707.392,2162.362 707.849,2161.752 708.916,2160.381 
	709.22,2160.229 711.354,2157.791 711.811,2157.181 711.963,2157.181 711.963,2157.029 712.115,2156.876 712.42,2156.419 
	712.877,2155.962 713.487,2155.048 713.639,2155.048 714.401,2153.981 715.315,2152.915 716.382,2151.696 717.449,2150.325 
	718.668,2148.801 719.125,2148.191 721.715,2144.992 722.172,2144.383 722.172,2144.23 722.325,2144.077 729.487,2148.496 
	732.382,2150.325 736.191,2152.61 "/>
<polygon style="fill:#EF4136;" points="1003.006,1652.693 992.797,1650.865 987.92,1649.037 989.444,1645.38 989.597,1644.923 
	990.511,1642.485 990.816,1641.418 990.968,1638.828 990.816,1637.761 990.663,1637.609 990.206,1636.695 989.444,1635.324 
	989.139,1634.562 988.835,1633.8 988.53,1633.495 988.225,1633.038 987.311,1632.276 986.397,1631.667 986.092,1631.514 
	985.482,1631.21 984.873,1631.057 984.721,1630.905 984.568,1631.667 983.959,1631.514 983.654,1631.514 983.349,1631.514 
	983.044,1631.514 982.74,1631.667 982.435,1632.124 981.216,1631.667 981.825,1630.143 982.74,1627.705 984.873,1621.611 
	985.635,1619.325 985.94,1618.258 986.549,1617.039 986.702,1616.735 986.854,1615.059 986.854,1614.754 987.464,1613.078 
	987.616,1612.164 987.616,1611.859 987.464,1611.097 987.006,1610.792 980.606,1609.878 980.454,1609.878 980.149,1608.355 
	979.844,1607.136 979.387,1607.136 979.235,1606.374 978.168,1606.069 977.406,1603.327 977.102,1603.327 976.949,1602.717 
	976.797,1602.717 976.645,1602.26 977.864,1602.26 982.892,1602.412 983.197,1601.041 983.197,1599.213 983.197,1598.451 
	983.044,1597.994 983.044,1596.318 982.892,1591.442 982.892,1590.68 983.349,1589.766 983.654,1589.156 983.806,1588.852 
	984.416,1588.09 984.416,1587.937 984.721,1587.633 984.873,1587.48 985.178,1587.176 984.721,1587.176 984.568,1587.176 
	984.416,1587.176 984.111,1587.176 983.959,1587.176 983.806,1587.176 981.216,1587.176 980.911,1587.176 980.302,1587.176 
	980.149,1587.176 979.844,1587.176 978.321,1587.176 977.102,1587.176 973.597,1587.176 973.445,1586.414 973.445,1586.261 
	972.683,1583.366 970.55,1583.214 969.94,1583.214 969.94,1583.062 968.264,1578.186 967.807,1576.967 969.178,1576.967 
	973.749,1577.119 980.149,1577.119 988.682,1576.967 988.835,1577.119 989.444,1576.967 989.444,1575.595 989.444,1569.653 
	989.444,1568.435 989.444,1568.282 989.292,1565.387 990.663,1564.93 1001.482,1560.816 1006.663,1559.14 1016.263,1555.94 
	1016.415,1555.94 1017.787,1555.483 1017.939,1555.483 1017.939,1555.94 1019.158,1567.215 1020.072,1573.767 1020.072,1574.072 
	1020.072,1574.529 1021.139,1580.776 1021.139,1580.929 1021.444,1584.433 1021.596,1585.804 1021.444,1588.852 1021.292,1590.375 
	1021.139,1590.832 1020.834,1592.813 1018.853,1598.451 1015.806,1604.393 1012.606,1610.183 1012.149,1611.097 1012.149,1611.25 
	1011.996,1611.402 1011.539,1613.078 1010.168,1619.02 1010.168,1619.325 1010.016,1619.782 1009.863,1620.544 1008.339,1627.705 
	1007.425,1633.038 1006.053,1638.98 "/>
<polygon style="fill:#EF4136;" points="830.971,1506.573 832.342,1510.078 832.19,1510.078 831.123,1510.84 830.666,1511.297 
	830.513,1511.297 830.056,1511.601 830.056,1511.754 828.99,1512.363 827.314,1513.582 827.161,1513.734 826.094,1514.496 
	825.79,1514.649 825.333,1514.953 825.028,1515.258 824.876,1515.258 824.571,1515.411 823.961,1515.868 823.656,1516.172 
	823.504,1516.325 823.199,1516.477 822.438,1516.934 822.133,1517.239 821.98,1517.391 821.219,1517.849 820.914,1518.153 
	820.304,1518.458 819.847,1518.915 819.695,1518.915 819.542,1519.067 819.39,1519.22 818.78,1519.677 818.628,1519.829 
	818.476,1519.829 818.171,1520.134 817.561,1520.591 816.8,1521.2 816.038,1521.81 815.733,1522.115 815.123,1522.419 
	814.666,1522.877 814.361,1523.029 814.209,1523.181 813.904,1523.486 813.752,1523.486 812.99,1523.638 812.533,1523.638 
	812.381,1523.791 812.228,1523.791 811.923,1524.095 811.771,1524.095 811.771,1523.638 811.771,1523.486 811.619,1520.286 
	811.466,1519.372 811.161,1518.915 810.552,1518.153 810.095,1517.696 809.485,1517.391 808.876,1517.087 808.419,1517.087 
	807.962,1517.087 807.504,1517.087 806.895,1517.087 806.133,1517.087 804.914,1517.239 804,1517.239 802.781,1517.087 
	802.019,1517.087 801.409,1517.087 800.952,1517.239 800.495,1517.391 799.581,1517.544 799.124,1517.696 797.752,1517.849 
	796.838,1517.849 795.314,1517.849 794.247,1517.544 791.657,1517.391 790.743,1517.391 790.59,1517.391 790.286,1517.544 
	789.067,1518.306 787.695,1519.067 783.429,1521.658 780.381,1525.467 770.629,1534.609 770.324,1534.761 770.324,1537.656 
	769.41,1539.485 768.953,1539.789 768.038,1540.704 765.143,1541.313 759.2,1544.36 757.067,1545.732 757.067,1545.427 
	756.305,1543.599 756.305,1542.075 756.458,1541.618 756.915,1540.856 757.067,1540.551 757.372,1540.247 758.591,1539.027 
	758.743,1538.57 758.591,1538.266 756.61,1539.18 755.543,1539.485 754.934,1538.266 754.477,1537.808 754.02,1537.047 
	753.867,1536.132 754.02,1535.98 754.629,1535.066 754.629,1534.913 754.629,1534.761 754.781,1534.457 754.781,1534 
	754.629,1532.933 754.629,1532.476 754.324,1532.476 754.324,1532.323 754.02,1530.952 754.02,1530.19 754.02,1530.038 
	753.867,1529.428 753.715,1528.971 753.562,1528.971 753.562,1528.514 753.562,1528.362 753.562,1527.753 753.562,1527.6 
	753.41,1527.448 753.41,1527.295 753.41,1526.838 753.41,1526.686 753.41,1526.076 753.41,1525.772 753.41,1525.314 
	753.41,1525.162 753.562,1524.857 753.562,1524.095 753.867,1523.029 753.867,1522.877 753.867,1522.724 754.02,1522.419 
	754.172,1522.115 754.477,1521.353 754.477,1521.048 754.629,1520.896 754.629,1520.591 754.781,1520.591 755.086,1520.591 
	755.086,1520.439 755.696,1519.829 756.153,1519.22 756.153,1519.067 756.915,1518.001 757.981,1516.782 758.438,1516.02 
	758.896,1515.563 758.896,1515.411 758.896,1515.258 759.353,1514.496 759.353,1514.344 759.505,1514.192 759.81,1513.278 
	759.81,1513.125 760.115,1512.516 760.572,1512.059 760.724,1512.059 760.877,1511.906 761.486,1511.449 761.639,1511.297 
	762.857,1510.535 763.162,1510.535 763.467,1510.383 763.619,1510.078 763.924,1509.925 763.924,1509.773 764.076,1509.621 
	764.229,1509.621 764.381,1509.316 764.839,1508.859 764.991,1507.64 764.839,1507.183 764.991,1506.421 764.991,1506.269 
	764.839,1506.269 764.839,1506.116 764.991,1505.812 764.991,1505.659 764.991,1505.354 765.143,1505.354 765.143,1505.05 
	765.296,1505.05 765.296,1504.897 765.448,1504.592 765.296,1504.592 765.296,1504.44 765.296,1504.288 765.448,1504.288 
	765.6,1503.831 765.6,1503.526 765.753,1503.221 765.753,1503.069 765.905,1503.069 766.058,1502.764 766.21,1502.612 
	766.362,1502.307 766.362,1502.155 766.667,1502.002 767.276,1501.85 767.581,1501.697 767.734,1501.545 767.886,1501.393 
	768.038,1501.393 768.191,1501.24 768.496,1501.24 768.648,1501.088 768.648,1500.936 768.953,1500.784 769.105,1500.631 
	769.257,1500.479 769.41,1500.479 769.715,1500.174 769.715,1500.326 769.867,1500.174 770.019,1500.021 770.172,1500.021 
	770.476,1499.565 770.934,1499.26 771.086,1499.26 771.391,1499.107 771.391,1498.955 771.391,1498.803 771.543,1498.955 
	771.543,1498.803 771.695,1498.803 771.695,1498.65 771.543,1498.65 771.695,1498.65 772,1498.498 772.153,1498.498 
	772.305,1498.345 772.61,1498.345 772.61,1498.193 772.762,1498.193 772.914,1498.193 773.219,1498.041 773.219,1497.888 
	773.676,1497.736 773.676,1497.431 773.524,1497.279 773.829,1497.279 773.981,1497.126 774.134,1497.126 774.286,1496.974 
	774.438,1496.974 774.743,1496.822 774.895,1496.822 775.048,1496.822 775.2,1496.67 775.352,1496.67 775.657,1496.517 
	775.81,1496.517 775.962,1496.365 776.724,1496.212 777.029,1496.212 777.181,1496.06 777.333,1495.908 777.791,1495.755 
	777.943,1495.755 778.248,1495.755 778.4,1495.908 778.857,1495.755 779.162,1495.603 779.619,1495.603 779.771,1495.603 
	780.229,1495.603 780.381,1495.298 780.686,1495.298 780.838,1495.298 780.838,1495.45 780.991,1495.45 780.991,1495.298 
	781.448,1495.45 781.753,1495.45 781.753,1495.755 782.057,1495.755 782.057,1495.603 782.21,1495.603 782.819,1495.603 
	782.972,1495.603 782.972,1495.755 783.124,1495.755 783.581,1495.908 783.733,1495.908 783.733,1496.212 784.038,1496.212 
	784.343,1496.06 784.648,1496.06 785.105,1496.212 785.257,1496.212 785.41,1496.212 785.714,1496.365 785.867,1496.517 
	785.867,1496.67 785.867,1496.822 785.714,1496.822 785.714,1496.974 785.562,1497.126 785.562,1497.279 785.105,1497.888 
	785.562,1498.041 786.019,1498.041 786.171,1497.736 786.476,1498.041 786.781,1498.041 788,1498.041 788.152,1498.498 
	788.305,1498.498 788.457,1498.498 788.457,1499.107 788.609,1499.107 790.59,1499.107 790.59,1498.65 790.59,1498.498 
	791.962,1498.498 791.962,1497.584 793.028,1496.822 793.181,1496.822 793.181,1496.67 793.333,1496.67 793.486,1496.67 
	793.943,1496.67 793.943,1496.06 794.552,1495.908 794.857,1495.755 795.009,1495.755 795.009,1495.603 795.619,1495.603 
	796.076,1495.45 796.076,1495.603 796.838,1495.603 796.99,1495.603 796.99,1495.45 796.838,1495.298 796.99,1495.298 
	796.99,1495.45 797.295,1495.45 797.752,1495.298 797.752,1496.06 798.209,1496.212 798.362,1496.212 798.667,1496.212 
	798.819,1496.365 799.733,1496.365 800.495,1496.67 800.647,1496.67 800.952,1496.67 801.562,1496.974 801.866,1497.126 
	802.628,1497.584 802.476,1497.736 802.324,1497.888 802.628,1498.041 802.933,1498.193 803.695,1498.65 804.914,1499.565 
	805.219,1499.717 806.285,1500.936 806.742,1500.326 806.895,1500.326 807.2,1500.784 807.352,1500.936 807.504,1500.936 
	808.266,1501.85 808.419,1502.002 808.571,1502.307 808.723,1502.612 808.723,1502.764 808.876,1502.917 809.333,1503.221 
	809.485,1503.374 809.638,1503.374 809.79,1503.526 809.79,1503.831 809.79,1505.05 809.79,1505.202 809.79,1505.964 
	809.79,1506.269 809.79,1507.64 809.79,1509.011 809.79,1509.468 812.076,1509.468 812.381,1509.316 813.142,1509.468 
	813.447,1509.468 813.142,1502.764 812.228,1497.584 812.076,1495.755 811.923,1494.689 812.076,1494.079 812.228,1494.079 
	812.533,1493.774 812.99,1493.47 813.599,1493.318 817.561,1492.86 818.628,1492.86 819.542,1492.708 820,1492.556 
	820.761,1492.556 820.914,1492.403 821.371,1491.337 821.828,1491.032 822.285,1490.727 822.742,1490.422 823.961,1489.965 
	825.333,1489.508 825.485,1489.965 826.704,1493.927 827.771,1497.584 828.685,1500.021 828.837,1500.479 "/>
<polygon style="fill:#EF4136;" points="828.533,990.049 829.904,991.268 830.056,991.268 831.276,991.115 833.256,990.81 
	834.323,990.658 835.237,990.506 835.39,990.506 836.152,990.353 836.304,990.353 836.609,990.353 838.285,990.049 838.59,990.049 
	838.894,990.049 839.047,990.049 839.961,989.896 840.113,989.744 840.418,989.744 840.723,989.744 841.028,989.744 
	841.332,989.591 841.79,989.591 842.399,989.591 842.704,989.439 843.161,989.439 843.313,989.439 843.77,989.287 844.228,989.287 
	844.38,989.287 844.685,989.439 844.837,989.591 845.142,989.591 845.294,989.744 846.056,990.353 846.513,990.658 847.275,990.81 
	847.58,990.963 847.885,991.268 848.799,992.029 850.17,993.248 850.323,993.553 850.78,994.01 851.389,995.077 852.151,995.991 
	852.151,996.143 852.456,996.296 852.608,996.448 852.761,996.753 852.913,996.905 853.37,997.515 853.37,997.667 853.98,998.429 
	854.132,998.734 854.285,998.886 854.437,999.343 854.589,999.952 854.742,1000.562 854.894,1001.019 854.894,1001.171 
	855.199,1002.238 855.351,1002.847 855.351,1003.152 855.504,1003.305 855.656,1003.457 855.961,1003.609 856.266,1003.762 
	856.875,1004.371 857.332,1004.676 857.637,1004.828 857.637,1004.981 858.246,1005.438 858.399,1005.438 859.313,1006.199 
	858.551,1007.418 858.246,1007.723 857.942,1008.028 857.484,1008.79 858.246,1009.095 859.465,1009.856 860.075,1010.771 
	860.532,1011.228 861.142,1011.228 861.599,1011.075 861.904,1010.923 862.361,1010.618 862.665,1010.466 862.818,1010.466 
	863.123,1010.313 863.58,1010.313 864.646,1010.466 865.103,1010.618 865.561,1010.923 866.475,1011.38 867.542,1012.904 
	867.846,1013.056 868.608,1014.123 868.76,1014.427 869.065,1014.885 869.218,1015.189 869.37,1015.799 869.37,1016.103 
	869.522,1016.865 869.675,1017.322 869.827,1018.237 869.98,1018.846 869.98,1018.998 869.675,1019.912 869.675,1020.217 
	869.522,1021.132 869.522,1021.589 869.37,1023.265 863.884,1020.217 862.208,1019.76 859.313,1018.998 858.399,1018.846 
	857.789,1018.694 857.637,1018.694 857.18,1018.541 857.027,1018.541 856.266,1018.541 854.742,1018.389 854.132,1018.237 
	853.98,1018.237 853.675,1018.237 853.37,1018.084 852.608,1018.084 851.846,1017.932 851.694,1017.932 851.085,1017.779 
	850.78,1017.779 850.475,1017.779 850.323,1017.779 850.17,1017.627 850.018,1017.627 849.866,1017.627 849.713,1017.627 
	849.409,1017.627 849.104,1017.475 848.951,1017.475 848.494,1017.475 848.342,1017.475 848.037,1017.322 847.732,1017.322 
	847.427,1017.17 847.123,1017.17 846.666,1017.17 846.513,1017.018 846.209,1017.018 846.056,1017.018 845.904,1017.018 
	845.751,1017.018 845.447,1017.018 845.142,1017.018 844.532,1017.018 843.923,1017.018 843.313,1017.018 842.856,1016.865 
	842.704,1016.865 842.399,1016.865 842.247,1016.865 841.637,1016.713 840.875,1016.561 840.723,1016.408 840.57,1016.408 
	839.961,1015.951 839.656,1015.799 839.047,1015.494 838.59,1015.189 837.98,1014.885 837.828,1014.732 836.914,1014.275 
	836.609,1013.97 835.999,1013.665 835.694,1013.665 834.932,1013.361 834.78,1013.208 834.475,1012.904 833.409,1012.599 
	832.799,1012.294 832.647,1012.142 832.342,1011.989 832.037,1011.837 831.885,1011.837 831.58,1011.685 831.276,1011.532 
	830.818,1011.38 830.361,1011.228 829.904,1011.075 829.752,1011.075 829.142,1010.771 828.99,1010.771 828.228,1010.466 
	828.076,1010.466 827.771,1010.466 826.856,1010.161 826.704,1010.161 826.094,1010.009 825.333,1009.856 823.656,1009.552 
	822.438,1009.399 821.98,1009.247 819.695,1009.247 818.476,1009.095 817.257,1009.247 815.885,1009.247 814.361,1009.399 
	814.209,1009.399 812.228,1009.552 811.771,1009.704 811.771,1009.095 811.771,1008.79 811.771,1008.333 811.771,1007.723 
	811.466,1005.285 811.314,1004.219 811.161,1003.305 811.161,1002.847 810.857,1000.714 810.857,1000.562 810.552,999.648 
	810.552,998.734 810.4,997.972 810.247,997.362 810.095,994.924 809.942,993.705 809.79,993.248 809.79,992.791 809.485,990.658 
	809.485,989.896 809.18,988.373 808.876,985.325 808.723,984.259 809.333,984.259 812.381,984.563 818.476,985.021 820.761,985.325 
	821.371,985.478 822.742,985.63 823.352,985.63 824.571,985.782 825.485,985.782 825.79,985.935 825.942,986.087 826.094,986.24 
	826.399,986.544 826.552,987.306 827.314,988.982 827.923,989.439 "/>
<polygon style="fill:#EF4136;" points="991.73,1410.582 992.035,1408.144 992.035,1406.011 991.273,1405.859 990.511,1405.706 
	990.206,1405.401 990.206,1405.097 990.054,1404.64 990.054,1404.03 989.901,1403.268 989.749,1402.811 989.597,1402.507 
	989.139,1402.049 988.835,1402.049 988.53,1401.897 988.225,1401.745 988.073,1401.44 988.073,1400.983 987.464,1400.221 
	987.159,1399.916 987.006,1399.307 987.159,1399.002 987.159,1398.545 987.159,1397.935 987.311,1396.869 986.549,1395.498 
	984.873,1392.146 982.435,1386.66 979.692,1387.727 978.473,1388.184 977.102,1388.793 976.492,1388.946 976.797,1390.013 
	976.797,1390.165 976.797,1390.47 976.949,1390.927 977.102,1391.384 977.406,1392.603 977.711,1393.212 978.168,1394.888 
	978.321,1395.345 978.626,1396.564 971.768,1399.307 958.359,1404.64 950.74,1407.839 946.321,1409.668 945.559,1410.43 
	944.645,1411.192 944.492,1411.344 944.188,1411.496 943.426,1412.258 942.207,1412.867 942.207,1413.477 942.207,1413.629 
	942.055,1414.544 941.902,1414.848 941.445,1415.153 941.293,1415.306 941.14,1415.306 940.378,1415.762 940.074,1415.915 
	939.159,1416.22 938.855,1416.372 938.702,1416.372 938.397,1416.677 938.245,1416.829 937.026,1417.743 936.569,1418.2 
	935.502,1419.114 934.74,1419.724 933.369,1420.333 932.455,1420.791 932.15,1420.943 931.388,1421.095 931.541,1420.791 
	931.693,1420.486 931.693,1420.181 932.302,1418.962 932.302,1418.353 932.455,1417.591 930.321,1417.439 930.017,1417.439 
	928.95,1417.286 928.798,1416.677 928.645,1415.762 928.645,1415.458 928.493,1415.001 928.493,1414.544 928.493,1414.391 
	928.493,1415.001 928.493,1415.762 928.341,1416.372 928.036,1416.829 927.731,1418.048 927.426,1418.81 927.426,1418.962 
	927.122,1420.029 926.817,1420.943 926.512,1421.552 926.207,1422.619 925.903,1423.533 925.598,1424.448 925.598,1424.905 
	925.445,1425.057 925.293,1425.819 925.141,1426.885 924.988,1427.342 924.379,1429.171 923.922,1430.847 923.769,1431.609 
	923.617,1431.761 915.236,1430.39 901.065,1428.104 898.627,1427.8 898.169,1427.8 894.97,1427.342 887.046,1427.19 
	886.589,1426.58 886.589,1426.123 886.436,1425.819 885.37,1423.228 885.218,1422.619 883.389,1418.353 880.494,1413.02 
	878.97,1410.125 878.513,1409.363 878.208,1409.058 878.208,1408.906 878.056,1408.754 876.532,1405.554 873.637,1399.002 
	871.656,1395.65 869.98,1393.365 869.675,1392.907 868.303,1391.993 866.475,1390.774 865.713,1389.251 865.256,1388.489 
	864.494,1388.032 862.97,1387.727 860.989,1387.422 858.856,1386.965 858.856,1387.27 858.856,1388.184 858.856,1388.336 
	858.856,1388.489 858.856,1391.384 858.856,1391.536 858.704,1393.517 858.704,1393.974 858.551,1396.107 858.551,1396.26 
	858.399,1398.85 858.551,1398.85 858.704,1398.85 858.856,1398.85 859.008,1398.85 859.161,1398.85 859.313,1398.85 
	859.465,1398.85 859.465,1399.002 859.618,1399.002 859.77,1399.002 859.923,1399.002 860.075,1399.002 860.075,1399.154 
	860.227,1399.154 860.38,1399.154 860.532,1399.154 860.684,1399.154 860.684,1399.307 860.837,1399.307 860.989,1399.307 
	861.142,1399.307 861.142,1399.459 861.294,1399.459 861.446,1399.459 861.446,1399.612 861.599,1399.612 861.751,1399.612 
	861.751,1399.764 861.904,1399.764 862.056,1399.764 862.056,1399.916 862.208,1399.916 862.361,1399.916 862.361,1400.069 
	862.513,1400.069 862.665,1400.069 862.665,1400.221 862.818,1400.221 862.97,1400.221 862.97,1400.373 863.123,1400.373 
	863.123,1400.526 863.275,1400.526 863.275,1400.678 863.427,1400.678 863.58,1400.678 863.58,1400.831 863.732,1400.831 
	863.732,1400.983 863.884,1400.983 863.884,1401.135 864.037,1401.135 864.037,1401.288 864.189,1401.288 864.189,1401.44 
	864.342,1401.44 864.494,1401.592 864.646,1401.745 864.646,1401.897 864.799,1401.897 866.17,1404.944 866.627,1405.859 
	866.932,1406.468 867.389,1407.078 868.303,1408.601 872.418,1416.524 872.57,1416.981 874.094,1419.572 874.399,1420.638 
	878.36,1428.256 879.427,1431.304 880.189,1432.98 882.627,1437.399 883.236,1438.313 887.198,1445.931 891.465,1454.007 
	891.617,1454.921 892.532,1458.273 896.493,1464.672 896.493,1465.13 896.341,1465.282 895.274,1466.501 894.208,1467.415 
	893.903,1467.72 893.446,1468.024 893.141,1468.329 892.989,1468.634 891.922,1469.548 890.398,1471.072 890.246,1471.224 
	887.503,1473.662 885.674,1475.338 885.218,1475.643 883.694,1477.167 883.389,1477.471 882.932,1477.928 880.494,1480.062 
	876.989,1483.109 875.618,1484.48 875.465,1484.48 875.313,1484.632 875.16,1484.785 872.875,1486.766 871.656,1487.68 
	871.503,1487.984 869.675,1489.661 869.37,1489.965 867.846,1491.794 867.389,1492.251 865.713,1494.231 865.103,1494.841 
	864.799,1495.298 864.494,1495.45 863.58,1495.908 862.97,1496.06 862.361,1496.212 862.208,1496.212 861.446,1496.365 
	861.294,1496.365 860.989,1496.365 860.684,1496.365 860.532,1496.365 860.227,1496.212 859.313,1495.908 858.704,1495.755 
	858.399,1495.45 858.094,1495.298 857.637,1494.993 857.484,1494.841 856.723,1494.993 855.961,1494.536 855.808,1494.536 
	855.199,1494.231 854.437,1493.774 851.389,1491.641 851.542,1491.489 851.542,1491.184 851.694,1490.422 851.694,1490.118 
	851.694,1489.356 851.846,1488.899 851.846,1488.289 851.846,1487.527 851.999,1486.613 851.999,1486.461 852.151,1485.699 
	852.151,1485.242 850.78,1485.242 849.713,1485.09 849.104,1485.09 849.256,1483.871 848.951,1483.871 847.885,1483.718 
	847.732,1483.718 847.885,1481.433 848.647,1481.433 848.647,1478.69 848.799,1478.69 850.17,1478.843 850.628,1478.843 
	851.694,1478.843 852.456,1478.843 852.456,1478.385 852.456,1478.233 852.456,1477.928 852.456,1477.319 852.608,1477.167 
	852.608,1476.405 852.608,1475.643 852.608,1475.186 852.456,1475.186 850.78,1475.186 850.475,1475.186 849.713,1475.033 
	849.561,1475.033 849.561,1474.576 849.561,1474.424 849.561,1473.814 848.951,1473.814 848.799,1473.814 847.885,1473.967 
	847.275,1473.967 844.228,1474.271 841.637,1474.424 839.809,1474.576 834.78,1475.033 833.866,1471.529 834.323,1471.224 
	833.866,1467.567 833.409,1466.653 833.256,1466.653 833.409,1466.196 833.409,1465.891 833.561,1465.739 833.409,1465.739 
	832.342,1465.282 832.342,1464.063 832.342,1462.692 832.647,1459.339 832.799,1458.273 832.342,1455.073 832.037,1454.921 
	831.885,1456.292 831.58,1458.425 831.428,1458.578 831.428,1459.187 831.276,1459.644 831.276,1459.949 830.971,1462.539 
	830.818,1463.301 830.818,1464.063 830.513,1465.434 830.209,1467.72 829.904,1470.767 829.752,1471.224 829.752,1473.967 
	829.904,1477.319 829.904,1477.471 829.599,1480.823 829.142,1481.433 829.142,1482.195 828.685,1483.413 828.076,1488.442 
	828.38,1489.051 826.399,1489.203 825.333,1489.508 825.485,1489.965 826.704,1493.927 827.771,1497.584 828.685,1500.021 
	828.837,1500.479 830.971,1506.573 832.342,1510.078 832.495,1509.925 832.952,1509.925 836.304,1509.621 837.066,1509.621 
	837.828,1509.621 844.228,1509.164 851.999,1508.706 852.913,1508.554 858.246,1508.249 870.742,1507.487 883.846,1506.573 
	892.532,1505.964 907.617,1505.05 908.074,1505.05 908.227,1504.897 908.684,1504.592 909.293,1503.983 909.903,1503.374 
	909.903,1503.221 911.579,1501.393 911.884,1501.545 920.569,1499.869 938.245,1496.517 943.731,1495.45 950.131,1494.231 
	950.588,1494.384 950.74,1494.384 951.35,1493.774 951.807,1493.318 951.959,1493.318 954.245,1492.403 954.854,1492.251 
	955.159,1492.251 955.159,1492.098 955.159,1491.946 955.007,1491.946 954.702,1491.794 954.702,1491.489 955.159,1491.641 
	955.159,1491.337 955.311,1491.184 955.464,1491.032 955.464,1490.879 955.616,1490.727 955.921,1490.879 956.073,1490.879 
	956.378,1490.727 959.121,1488.899 961.102,1487.223 961.712,1486.613 962.016,1486.156 963.083,1485.242 963.692,1484.632 
	963.997,1484.48 964.149,1484.328 964.454,1484.328 964.607,1484.328 964.759,1484.175 964.911,1483.718 965.826,1482.956 
	966.13,1482.499 966.283,1482.042 966.435,1481.737 967.197,1480.823 967.349,1480.671 967.502,1480.518 967.654,1480.366 
	967.959,1480.062 968.264,1479.3 968.416,1478.995 968.568,1478.538 968.721,1478.233 968.873,1477.928 969.33,1477.167 
	968.873,1476.862 969.026,1476.709 969.483,1477.014 969.635,1477.014 969.788,1476.862 969.33,1476.252 969.635,1476.1 
	969.94,1476.557 969.94,1476.405 970.245,1476.557 970.854,1475.643 971.311,1474.729 971.159,1474.729 970.854,1474.576 
	971.464,1473.357 971.311,1473.205 971.311,1473.052 971.616,1472.748 971.768,1472.443 971.768,1472.291 971.768,1471.986 
	971.921,1471.529 971.921,1471.072 972.073,1470.919 972.378,1470.615 973.292,1468.786 973.749,1467.872 974.359,1466.501 
	974.511,1466.043 974.664,1465.434 974.816,1464.825 975.121,1463.606 975.578,1462.844 975.73,1462.692 975.883,1461.93 
	976.035,1461.015 975.73,1461.015 976.035,1460.406 976.188,1459.949 976.492,1459.644 976.645,1459.644 977.102,1459.796 
	977.406,1459.187 977.406,1459.035 977.711,1458.273 979.235,1454.159 979.692,1453.092 979.844,1452.635 979.997,1452.483 
	979.997,1451.721 980.606,1450.655 981.063,1449.588 981.063,1449.436 981.673,1448.521 981.978,1447.912 982.13,1447.76 
	982.435,1447.455 982.892,1446.845 983.044,1446.541 983.349,1446.236 983.959,1445.779 984.721,1445.169 985.787,1443.798 
	985.94,1443.036 987.311,1440.446 988.682,1437.855 988.835,1437.551 988.835,1436.789 989.139,1435.57 988.987,1435.57 
	989.292,1434.199 989.139,1434.199 989.139,1434.047 989.292,1433.894 989.444,1433.742 989.597,1433.437 989.597,1433.285 
	990.054,1432.98 990.359,1432.827 990.359,1432.675 990.511,1432.523 990.663,1432.37 990.663,1432.218 990.511,1431.609 
	990.359,1431.609 990.206,1431.456 990.054,1431.609 990.054,1431.761 989.901,1431.761 989.749,1431.914 989.597,1432.066 
	989.444,1432.066 989.292,1432.066 989.292,1431.914 989.292,1431.761 989.597,1431.609 989.749,1431.456 989.749,1431.152 
	989.901,1430.999 990.206,1430.847 990.359,1430.695 990.206,1430.695 990.054,1430.542 990.054,1430.237 990.206,1430.237 
	990.511,1429.78 990.663,1429.78 990.663,1429.628 990.663,1429.475 990.816,1429.323 990.968,1429.171 991.121,1429.018 
	990.968,1428.104 990.816,1427.495 990.663,1426.885 990.663,1426.733 990.816,1425.819 990.816,1425.361 990.816,1423.381 
	990.663,1423.381 990.359,1423.228 990.206,1422.771 990.054,1420.943 990.511,1420.638 990.968,1420.333 990.968,1418.505 
	990.663,1418.353 990.511,1418.2 990.511,1417.896 990.663,1417.591 990.968,1417.439 991.121,1417.439 991.425,1415.001 
	991.121,1415.001 990.663,1414.544 990.968,1412.41 990.968,1411.344 991.121,1411.192 991.578,1410.887 "/>
<polygon style="fill:#EF4136;" points="947.388,1497.126 939.769,1503.526 939.312,1503.983 937.636,1503.983 932.607,1503.983 
	927.426,1503.983 921.788,1503.983 917.979,1504.288 913.56,1504.592 912.798,1504.745 908.074,1505.05 908.227,1504.897 
	908.684,1504.592 909.293,1503.983 909.903,1503.374 909.903,1503.221 911.579,1501.393 911.884,1501.545 920.569,1499.869 
	938.245,1496.517 943.731,1495.45 950.131,1494.231 950.588,1494.384 950.283,1494.689 "/>
<polygon style="fill:#EF4136;" points="950.74,1503.983 939.312,1503.983 939.769,1503.526 947.388,1497.126 950.283,1494.689 
	950.588,1494.384 950.74,1494.384 951.35,1493.774 951.807,1493.318 951.959,1493.318 954.245,1492.403 954.854,1492.251 
	955.159,1492.251 955.159,1492.403 955.159,1492.556 955.464,1493.927 955.311,1495.298 955.007,1496.67 954.55,1497.888 
	953.94,1499.26 952.874,1501.088 952.264,1501.697 952.112,1501.85 "/>
<polygon style="fill:#EF4136;" points="1014.739,1330.284 1014.434,1332.875 1013.825,1332.722 1013.368,1332.418 1010.32,1331.199 
	1010.625,1329.675 1011.082,1327.847 1011.996,1327.999 1013.063,1327.999 1014.282,1328.151 1015.044,1328.151 1015.349,1328.151 
	"/>
<polygon style="fill:#EF4136;" points="822.59,985.478 822.742,985.63 821.371,985.478 820.761,985.325 818.476,985.021 
	812.381,984.563 809.333,984.259 808.723,984.259 808.419,982.735 808.419,982.43 810.704,981.364 811.161,980.602 811.314,980.45 
	811.771,979.688 812.381,978.773 812.838,978.469 814.209,978.469 815.276,978.773 817.409,980.297 817.714,980.602 
	818.171,980.907 821.219,983.192 821.523,983.649 822.285,984.868 "/>
<polygon style="fill:#EF4136;" points="875.922,1024.788 875.465,1024.788 875.008,1024.636 874.703,1024.636 873.789,1024.484 
	873.637,1024.484 872.875,1024.179 871.808,1023.874 871.656,1023.874 871.351,1023.722 869.37,1023.265 869.522,1021.589 
	869.522,1021.132 869.675,1020.217 869.675,1019.912 869.98,1018.998 869.98,1018.846 869.827,1018.237 869.675,1017.322 
	869.522,1016.865 869.37,1016.103 869.37,1015.799 869.218,1015.189 869.065,1014.885 868.76,1014.427 868.608,1014.123 
	867.846,1013.056 867.542,1012.904 866.475,1011.38 865.561,1010.923 865.103,1010.618 864.646,1010.466 863.58,1010.313 
	863.123,1010.313 862.818,1010.466 862.665,1010.466 862.361,1010.618 861.904,1010.923 861.599,1011.075 861.142,1011.228 
	860.532,1011.228 860.075,1010.771 859.465,1009.856 858.246,1009.095 857.484,1008.79 857.942,1008.028 858.246,1007.723 
	858.551,1007.418 859.313,1006.199 858.399,1005.438 858.246,1005.438 857.637,1004.981 857.637,1004.828 857.332,1004.676 
	856.875,1004.371 856.266,1003.762 855.961,1003.609 855.656,1003.457 855.504,1003.305 855.351,1003.152 855.351,1002.847 
	855.199,1002.238 854.894,1001.171 854.894,1001.019 854.742,1000.562 854.589,999.952 854.437,999.343 854.285,998.886 
	854.132,998.734 853.98,998.429 853.37,997.667 853.37,997.515 852.913,996.905 852.761,996.753 852.608,996.448 852.456,996.296 
	852.151,996.143 852.151,995.991 851.389,995.077 850.78,994.01 850.323,993.553 850.17,993.248 848.799,992.029 847.885,991.268 
	848.494,990.963 850.018,989.744 850.932,989.134 851.237,988.83 851.694,988.068 851.999,987.458 852.304,986.849 852.761,985.325 
	853.523,983.649 854.589,982.583 854.894,982.126 856.113,981.059 856.113,980.602 856.57,979.84 856.723,979.383 857.18,978.316 
	857.789,976.64 858.856,974.202 859.465,972.831 859.77,972.679 860.075,972.069 860.532,971.46 860.989,970.85 861.599,970.089 
	862.208,969.327 862.665,969.022 863.427,968.412 864.951,967.193 865.561,966.432 866.018,965.975 866.018,965.822 866.17,965.67 
	866.323,965.517 866.475,965.517 866.78,965.517 867.999,965.67 868.76,965.822 868.76,965.975 869.522,966.127 869.675,966.127 
	870.894,966.584 871.351,966.584 871.503,966.584 871.656,966.584 871.961,966.432 872.57,965.975 872.875,965.822 873.18,965.517 
	873.332,965.517 873.637,965.213 874.399,964.908 874.856,964.603 875.618,964.146 875.77,963.841 875.922,963.689 875.922,963.537 
	876.075,963.384 876.075,963.079 876.379,962.318 876.532,962.165 876.379,965.517 876.532,966.127 876.532,966.736 
	876.532,966.889 876.684,967.651 876.684,968.26 876.684,969.784 876.684,971.003 876.684,971.307 876.684,971.765 876.684,972.374 
	876.837,975.421 876.989,976.945 877.751,984.563 877.751,985.63 877.751,986.392 877.903,987.001 877.903,988.373 878.208,990.353 
	878.208,991.572 878.513,991.572 878.513,992.334 878.513,993.858 878.513,995.686 878.513,997.667 878.513,999.952 
	878.513,1000.562 878.513,1003 878.208,1005.285 878.056,1007.114 878.056,1008.79 877.751,1011.38 877.598,1013.056 
	877.446,1014.732 877.294,1016.408 876.837,1018.694 876.684,1020.065 876.532,1021.132 876.075,1023.417 "/>
<polygon style="fill:#EF4136;" points="944.188,1517.849 939.007,1526.381 936.722,1529.428 936.569,1529.733 935.35,1531.257 
	935.198,1531.409 933.826,1533.238 934.74,1534.304 935.045,1534.457 935.198,1534.609 935.198,1534.761 935.655,1535.219 
	935.807,1535.371 935.96,1535.371 935.96,1535.523 935.655,1535.828 935.502,1536.132 935.502,1536.285 935.045,1536.894 
	934.893,1537.199 933.826,1538.723 933.674,1539.18 933.217,1539.789 932.912,1540.247 929.255,1546.189 927.731,1548.322 
	923.007,1555.483 918.131,1562.797 914.169,1568.435 910.208,1573.615 902.436,1584.738 901.979,1584.89 901.065,1585.347 
	901.065,1585.5 900.608,1586.109 899.998,1587.023 899.541,1587.937 899.236,1588.395 898.169,1589.918 897.713,1590.528 
	897.103,1591.594 896.189,1592.813 895.731,1593.727 895.274,1594.337 894.97,1594.946 893.294,1597.079 893.446,1597.384 
	893.446,1598.603 893.141,1599.365 892.379,1600.584 892.227,1600.889 892.074,1601.193 890.855,1600.584 888.265,1599.365 
	886.741,1598.755 886.436,1598.603 886.132,1598.451 885.827,1598.298 883.694,1597.232 883.236,1596.927 883.084,1596.927 
	881.713,1596.165 881.408,1596.013 881.255,1596.013 880.951,1595.708 880.341,1595.556 880.341,1595.403 878.97,1594.794 
	878.665,1594.642 878.056,1594.337 877.751,1594.184 876.989,1593.727 875.618,1592.965 875.16,1592.661 873.18,1591.442 
	871.503,1590.07 871.351,1589.918 869.827,1588.699 868.608,1587.48 868.151,1587.023 866.932,1585.652 866.78,1585.347 
	866.627,1585.5 866.627,1585.652 866.323,1585.195 866.17,1585.042 864.951,1583.366 862.513,1579.252 861.446,1578.034 
	861.904,1577.881 861.599,1577.424 860.837,1574.224 860.532,1572.244 860.684,1570.415 860.837,1569.653 860.837,1568.435 
	860.837,1568.282 860.684,1567.368 860.684,1565.996 860.532,1565.996 859.618,1566.149 857.942,1561.73 856.723,1558.226 
	855.808,1557.312 855.351,1556.854 855.199,1556.397 854.894,1556.093 854.589,1555.331 854.285,1554.721 854.285,1554.112 
	854.132,1554.264 853.98,1554.264 853.37,1554.417 853.218,1554.417 852.913,1554.417 852.761,1554.569 851.999,1552.741 
	851.846,1552.436 851.389,1551.065 851.085,1551.065 850.932,1551.065 850.78,1551.065 850.628,1551.065 850.17,1551.065 
	850.17,1550.76 850.475,1550.76 850.018,1549.541 849.713,1548.931 848.951,1547.103 848.494,1545.884 847.123,1542.532 
	846.818,1541.922 846.818,1541.77 846.666,1540.856 848.494,1540.247 851.542,1539.18 853.98,1538.418 854.742,1538.266 
	857.637,1537.504 857.942,1537.504 862.361,1536.285 862.361,1536.132 864.342,1535.675 867.846,1534.761 870.437,1534.152 
	870.894,1534.152 873.484,1533.542 874.399,1533.39 876.227,1533.085 877.294,1532.628 877.751,1532.323 878.36,1531.714 
	881.103,1530.038 881.56,1529.733 881.713,1529.733 882.018,1529.733 882.17,1529.581 882.627,1529.428 884.608,1527.448 
	886.132,1525.924 886.284,1525.924 886.436,1525.619 886.589,1525.619 886.741,1525.467 887.046,1525.314 887.351,1525.01 
	887.655,1524.857 887.96,1524.705 888.265,1524.553 888.57,1524.4 888.875,1524.248 889.027,1524.248 889.332,1524.095 
	889.636,1523.943 889.941,1523.791 890.246,1523.638 890.551,1523.638 890.551,1523.486 891.008,1523.486 891.313,1523.334 
	891.617,1523.334 891.922,1523.181 892.074,1523.181 892.379,1523.181 892.684,1523.029 892.989,1523.029 893.294,1523.029 
	893.598,1523.029 893.75,1523.029 894.056,1523.029 894.36,1522.877 894.665,1523.029 894.97,1523.029 894.97,1522.724 
	894.97,1522.419 894.817,1521.505 894.817,1520.286 894.817,1520.134 895.122,1520.134 895.122,1519.982 895.274,1519.829 
	896.036,1519.372 895.884,1519.067 896.189,1518.915 896.341,1518.763 896.646,1518.61 897.56,1518.153 899.541,1517.696 
	900.455,1517.239 900.912,1516.934 901.065,1516.782 901.37,1516.63 901.674,1516.325 902.132,1515.563 902.284,1514.953 
	902.284,1514.801 902.284,1514.649 902.284,1514.344 902.132,1513.43 901.217,1512.211 900.608,1511.754 900.303,1511.449 
	901.217,1509.773 901.217,1509.621 901.827,1508.554 902.436,1508.097 903.198,1507.183 903.503,1507.031 905.027,1506.116 
	905.331,1506.116 905.484,1506.116 905.636,1506.116 905.789,1505.964 905.941,1505.964 906.398,1505.659 906.551,1505.659 
	908.074,1505.05 912.798,1504.745 913.56,1504.592 917.979,1504.288 921.788,1503.983 927.426,1503.983 932.607,1503.983 
	937.636,1503.983 939.312,1503.983 950.74,1503.983 949.978,1505.05 949.216,1506.116 948.302,1507.64 946.931,1509.468 
	945.712,1511.297 945.712,1511.449 947.693,1513.125 946.473,1514.649 "/>
<polygon style="fill:#EF4136;" points="956.226,1346.435 957.293,1346.435 958.512,1346.435 960.797,1346.283 963.235,1346.131 
	964.302,1345.978 964.911,1345.978 965.978,1346.283 966.588,1346.588 973.902,1350.245 973.902,1350.397 975.578,1351.463 
	975.73,1351.616 975.883,1351.768 976.797,1352.225 978.168,1352.835 982.74,1355.12 984.873,1356.187 985.33,1356.339 
	985.94,1356.644 992.035,1359.844 993.254,1360.453 993.711,1360.758 994.625,1361.063 995.235,1361.52 995.844,1361.825 
	995.692,1361.977 995.235,1362.586 994.778,1362.739 994.168,1362.586 993.559,1363.044 992.949,1363.805 990.816,1365.634 
	988.987,1365.938 987.464,1366.548 987.159,1366.396 986.854,1366.243 986.702,1366.243 986.244,1365.938 986.092,1366.091 
	985.787,1366.091 984.721,1365.938 984.416,1365.786 983.959,1365.634 983.044,1366.091 982.435,1366.243 981.825,1366.548 
	981.216,1366.7 979.54,1367.615 977.864,1368.529 975.73,1368.833 973.14,1368.529 971.464,1368.681 970.55,1368.224 
	969.483,1366.396 968.568,1366.243 967.959,1365.481 966.74,1365.329 966.13,1364.415 964.302,1363.958 963.997,1363.5 
	962.321,1361.063 962.169,1361.215 959.273,1362.891 958.969,1362.434 958.512,1361.825 958.359,1361.52 958.054,1361.215 
	957.75,1361.063 957.445,1360.605 957.445,1360.301 956.683,1360.453 956.226,1360.453 955.769,1360.453 955.007,1360.605 
	955.007,1360.758 954.854,1360.758 954.397,1360.605 953.94,1360.758 953.331,1360.605 953.178,1360.758 952.112,1360.453 
	952.112,1360.301 952.264,1359.996 952.416,1358.625 951.654,1358.472 951.35,1358.625 951.197,1358.625 951.045,1358.625 
	950.74,1358.625 950.588,1358.32 950.435,1358.32 950.283,1358.168 950.283,1358.015 950.283,1357.863 950.283,1357.71 
	950.435,1357.558 950.435,1357.406 950.435,1357.101 950.435,1356.797 950.131,1356.644 949.978,1356.644 949.826,1356.644 
	949.521,1356.797 949.521,1356.949 949.369,1356.949 949.064,1356.491 949.369,1355.578 948.607,1355.425 948.759,1354.816 
	948.607,1354.663 948.607,1354.358 948.607,1354.206 947.997,1354.054 947.235,1353.749 946.931,1353.749 946.778,1353.597 
	946.473,1353.444 946.016,1353.292 946.016,1352.987 946.169,1352.987 946.321,1352.987 947.083,1352.683 947.235,1352.53 
	947.54,1352.073 947.693,1351.921 948.607,1350.702 948.759,1350.55 949.521,1349.178 949.521,1348.264 949.674,1347.35 
	949.674,1346.892 949.674,1346.588 949.674,1346.435 949.674,1345.674 949.521,1344.455 949.521,1343.54 949.369,1343.083 
	949.369,1342.778 949.216,1342.474 948.455,1341.255 947.845,1340.341 947.845,1340.036 948.15,1339.884 948.607,1340.188 
	949.216,1340.493 949.826,1341.255 950.74,1342.322 953.483,1344.607 954.55,1345.521 955.616,1346.283 "/>
<polygon style="fill:#EF4136;" points="842.399,1302.401 841.637,1304.382 841.028,1306.058 840.723,1307.582 840.57,1310.324 
	840.723,1313.524 841.18,1316.267 840.723,1316.267 839.352,1316.115 838.285,1315.962 837.828,1315.962 837.98,1315.2 
	838.437,1313.067 838.894,1309.41 839.809,1304.077 839.809,1303.163 840.875,1303.315 841.18,1303.315 841.332,1303.163 
	842.094,1302.706 "/>
<polygon style="fill:#EF4136;" points="924.836,1291.888 921.636,1297.373 915.846,1306.972 912.493,1312.762 914.322,1313.219 
	917.065,1314.438 918.284,1314.743 918.741,1314.743 919.807,1314.438 919.807,1315.2 919.655,1315.962 919.655,1317.181 
	920.112,1317.79 920.722,1318.4 922.093,1319.314 922.55,1320.076 922.55,1321.295 922.55,1321.6 922.55,1322.362 922.55,1323.275 
	922.245,1323.885 921.941,1324.799 921.331,1325.866 921.026,1326.932 920.874,1327.847 920.874,1328.761 920.874,1329.523 
	921.026,1330.894 921.026,1331.961 921.026,1332.57 920.874,1332.875 920.569,1333.637 920.112,1335.008 919.96,1335.922 
	920.112,1337.141 920.264,1337.598 920.264,1337.75 920.112,1338.055 918.893,1338.208 916.76,1338.512 915.998,1338.817 
	913.56,1339.427 912.341,1339.884 911.274,1340.036 908.684,1339.122 906.551,1338.512 906.398,1338.512 904.874,1337.903 
	904.569,1337.903 903.655,1337.598 903.503,1337.598 902.893,1337.293 902.589,1337.293 899.389,1336.531 899.084,1336.379 
	898.932,1336.379 898.779,1336.227 898.474,1336.227 898.169,1336.227 898.017,1336.075 897.408,1336.075 896.341,1336.227 
	896.036,1336.227 895.274,1336.227 894.665,1336.379 894.512,1336.379 893.294,1336.227 892.989,1336.075 892.684,1336.075 
	891.77,1336.075 889.332,1334.703 888.722,1334.703 888.417,1334.856 887.046,1335.313 886.132,1335.617 887.503,1338.208 
	887.198,1338.665 887.198,1338.969 887.198,1339.731 883.998,1339.731 882.322,1339.579 878.817,1338.36 874.551,1336.379 
	873.941,1335.77 873.637,1335.465 873.484,1335.465 872.722,1335.313 872.57,1335.16 872.418,1335.16 871.503,1334.703 
	869.522,1334.246 867.237,1333.637 866.17,1333.637 861.904,1333.179 855.351,1333.027 855.199,1332.418 855.047,1331.961 
	854.894,1331.351 854.589,1330.284 854.285,1329.523 853.828,1328.609 853.218,1327.542 852.761,1327.085 851.846,1325.714 
	850.475,1324.037 850.17,1323.58 849.104,1322.514 848.647,1321.752 848.189,1321.295 848.037,1321.143 847.275,1320.228 
	846.97,1319.923 846.818,1319.619 846.513,1319.162 846.361,1319.009 846.209,1318.857 846.056,1318.552 845.904,1318.248 
	845.447,1317.638 845.447,1317.486 845.142,1316.876 844.99,1316.724 844.685,1316.115 844.38,1315.505 843.77,1314.134 
	843.618,1313.829 843.618,1313.676 843.466,1312.915 843.313,1312.457 843.313,1312.305 843.313,1311.696 843.313,1311.543 
	843.313,1311.391 843.313,1310.934 843.313,1310.172 843.313,1309.715 843.466,1308.953 843.466,1308.344 843.618,1307.734 
	843.77,1306.972 843.77,1306.82 843.923,1306.21 844.075,1306.058 844.228,1305.601 844.228,1305.296 844.532,1304.687 
	844.685,1304.382 844.837,1304.077 845.294,1303.163 845.599,1302.858 845.751,1302.858 846.056,1303.011 850.78,1305.601 
	853.523,1306.668 853.828,1306.972 853.98,1307.429 855.047,1307.734 855.199,1309.562 859.008,1308.649 859.923,1308.496 
	860.837,1308.344 861.599,1308.344 862.513,1308.344 863.58,1308.496 864.494,1308.801 865.103,1309.105 865.561,1309.258 
	865.865,1309.715 866.17,1310.172 866.475,1310.324 866.78,1310.629 867.237,1310.629 867.694,1310.629 868.151,1310.477 
	868.456,1310.324 868.608,1310.172 868.913,1309.867 869.218,1309.715 869.522,1310.172 871.046,1311.848 873.789,1308.801 
	874.094,1308.649 874.094,1308.344 874.246,1307.887 874.399,1307.734 874.551,1307.734 874.703,1307.582 875.008,1307.582 
	875.313,1307.429 875.465,1307.125 875.618,1306.82 875.77,1306.515 876.227,1306.363 876.989,1305.906 877.446,1305.449 
	878.056,1304.992 878.513,1304.534 879.275,1303.773 879.884,1303.315 880.341,1302.858 880.799,1302.554 881.865,1301.792 
	882.932,1301.03 883.389,1300.573 883.846,1300.268 885.218,1299.506 886.436,1299.506 886.589,1299.354 887.046,1299.202 
	887.351,1298.745 887.655,1298.592 888.113,1297.983 889.484,1297.983 890.398,1297.678 891.008,1297.373 891.465,1297.373 
	891.922,1297.221 892.684,1296.916 893.141,1296.916 893.446,1296.764 893.903,1296.611 894.36,1296.611 894.665,1296.611 
	895.122,1296.307 895.579,1296.154 896.189,1295.849 896.951,1295.24 897.713,1294.631 898.169,1294.478 898.779,1294.021 
	899.693,1293.564 900.303,1293.412 900.76,1293.259 901.217,1293.107 901.674,1293.107 902.284,1292.955 902.893,1292.802 
	903.35,1292.802 903.808,1292.497 904.112,1292.345 904.569,1292.193 904.722,1292.04 905.027,1291.888 905.179,1291.735 
	905.941,1291.126 906.551,1290.517 907.769,1289.298 909.75,1287.469 913.712,1282.898 914.322,1283.508 915.236,1283.965 
	916.76,1284.422 918.131,1284.879 919.503,1285.793 921.026,1286.555 921.636,1287.317 922.398,1287.927 923.617,1288.993 
	925.141,1289.907 925.903,1290.364 "/>
<polygon style="fill:#EF4136;" points="812.99,1527.448 812.381,1527.448 812.533,1523.638 812.99,1523.638 812.99,1523.791 
	812.99,1526.076 "/>
<polygon style="fill:#EF4136;" points="896.189,1518.915 895.884,1519.067 896.036,1519.372 895.274,1519.829 895.122,1519.982 
	895.122,1520.134 894.817,1520.134 894.817,1520.286 894.817,1521.505 894.97,1522.419 894.97,1522.724 894.97,1523.029 
	894.665,1523.029 894.36,1522.877 894.056,1523.029 893.75,1523.029 893.598,1523.029 893.294,1523.029 892.989,1523.029 
	892.684,1523.029 892.379,1523.181 892.074,1523.181 891.922,1523.181 891.617,1523.334 891.313,1523.334 891.008,1523.486 
	890.551,1523.486 890.551,1523.638 890.246,1523.638 889.941,1523.791 889.636,1523.943 889.332,1524.095 889.027,1524.248 
	888.875,1524.248 888.57,1524.4 888.265,1524.553 887.96,1524.705 887.655,1524.857 887.351,1525.01 887.046,1525.314 
	886.741,1525.467 886.589,1525.619 886.436,1525.619 886.284,1525.924 886.132,1525.924 884.608,1527.448 882.627,1529.428 
	882.17,1529.581 882.018,1529.733 881.713,1529.733 881.56,1529.733 881.103,1530.038 878.36,1531.714 877.751,1532.323 
	877.294,1532.628 876.227,1533.085 874.399,1533.39 873.484,1533.542 870.894,1534.152 870.437,1534.152 867.846,1534.761 
	864.342,1535.675 862.361,1536.132 862.361,1536.285 857.942,1537.504 857.637,1537.504 854.742,1538.266 853.98,1538.418 
	851.542,1539.18 848.494,1540.247 846.666,1540.856 846.513,1540.704 846.513,1540.551 846.361,1540.094 843.313,1532.933 
	840.57,1526.229 840.57,1526.076 837.675,1519.067 835.237,1519.829 835.085,1519.982 834.932,1520.439 834.475,1521.048 
	834.78,1521.658 834.171,1521.962 829.447,1525.01 829.447,1525.162 829.599,1526.076 828.228,1526.533 828.685,1528.514 
	827.314,1528.819 827.466,1529.428 824.266,1530.19 823.961,1530.19 823.809,1530.343 823.656,1530.19 823.504,1530.343 
	823.352,1530.343 822.285,1530.495 822.133,1530.495 821.676,1530.647 820.457,1530.8 820.304,1530.8 820.304,1531.104 
	820.304,1531.714 817.257,1531.409 815.581,1531.104 813.904,1530.8 813.752,1530.8 813.752,1530.495 813.752,1530.19 
	813.752,1529.428 813.752,1528.819 813.752,1527.448 813.904,1525.467 813.904,1523.486 814.209,1523.181 814.361,1523.029 
	814.666,1522.877 815.123,1522.419 815.733,1522.115 816.038,1521.81 816.8,1521.2 817.561,1520.591 818.171,1520.134 
	818.476,1519.829 818.628,1519.829 818.78,1519.677 819.39,1519.22 819.542,1519.067 819.695,1518.915 819.847,1518.915 
	820.304,1518.458 820.914,1518.153 821.219,1517.849 821.98,1517.391 822.133,1517.239 822.438,1516.934 823.199,1516.477 
	823.504,1516.325 823.656,1516.172 823.961,1515.868 824.571,1515.411 824.876,1515.258 825.028,1515.258 825.333,1514.953 
	825.79,1514.649 826.094,1514.496 827.161,1513.734 827.314,1513.582 828.99,1512.363 830.056,1511.754 830.056,1511.601 
	830.513,1511.297 830.666,1511.297 831.123,1510.84 832.19,1510.078 832.342,1510.078 832.495,1509.925 832.952,1509.925 
	836.304,1509.621 837.066,1509.621 837.828,1509.621 844.228,1509.164 851.999,1508.706 852.913,1508.554 858.246,1508.249 
	870.742,1507.487 883.846,1506.573 892.532,1505.964 907.617,1505.05 908.074,1505.05 906.551,1505.659 906.398,1505.659 
	905.941,1505.964 905.789,1505.964 905.636,1506.116 905.484,1506.116 905.331,1506.116 905.027,1506.116 903.503,1507.031 
	903.198,1507.183 902.436,1508.097 901.827,1508.554 901.217,1509.621 901.217,1509.773 900.303,1511.449 900.608,1511.754 
	901.217,1512.211 902.132,1513.43 902.284,1514.344 902.284,1514.649 902.284,1514.801 902.284,1514.953 902.132,1515.563 
	901.674,1516.325 901.37,1516.63 901.065,1516.782 900.912,1516.934 900.455,1517.239 899.541,1517.696 897.56,1518.153 
	896.646,1518.61 896.341,1518.763 "/>
<polygon style="fill:#EF4136;" points="1015.806,1371.728 1015.501,1372.185 1014.739,1373.1 1012.758,1375.69 1011.692,1377.061 
	1010.93,1377.518 1010.32,1370.966 1010.168,1369.138 1004.225,1366.243 1002.701,1365.329 995.844,1361.825 995.235,1361.52 
	994.625,1361.063 993.711,1360.758 993.254,1360.453 992.035,1359.844 985.94,1356.644 985.33,1356.339 984.873,1356.187 
	982.74,1355.12 978.168,1352.835 976.797,1352.225 975.883,1351.768 975.73,1351.616 975.578,1351.463 973.902,1350.397 
	973.902,1350.245 983.044,1345.064 985.787,1343.693 996.758,1338.665 1000.416,1336.989 1001.33,1336.379 1002.396,1335.465 
	1002.701,1335.16 1003.311,1334.856 1003.463,1334.856 1003.768,1334.551 1003.768,1334.398 1003.92,1334.246 1004.073,1333.789 
	1004.073,1334.246 1004.073,1334.398 1003.92,1335.16 1003.768,1336.075 1003.616,1337.598 1005.139,1339.731 1006.053,1340.95 
	1008.034,1342.931 1008.339,1343.693 1009.558,1345.674 1012.606,1350.55 1015.349,1354.968 1018.853,1360.91 1019.92,1361.825 
	1021.444,1362.586 1022.358,1363.044 1022.51,1363.044 1020.225,1366.091 1019.768,1366.7 1019.463,1367.005 1019.158,1367.462 
	1018.853,1367.919 1017.634,1369.443 1017.33,1369.9 1017.025,1370.205 1016.415,1371.119 "/>
<polygon style="fill:#EF4136;" points="1041.253,1280.003 1039.729,1285.946 1038.053,1289.907 1037.139,1291.279 
	1037.444,1287.165 1037.444,1286.708 1037.291,1284.879 1036.986,1283.813 1036.834,1283.66 1036.834,1283.508 1036.682,1283.355 
	1036.377,1283.051 1036.072,1282.593 1035.767,1282.593 1035.463,1282.441 1034.701,1282.593 1034.548,1282.898 1034.701,1283.355 
	1034.701,1283.508 1035.005,1284.422 1035.005,1284.727 1035.005,1284.879 1026.625,1285.184 1026.015,1285.946 1024.644,1285.641 
	1024.187,1285.031 1022.663,1284.574 1021.748,1283.813 1021.901,1283.813 1022.358,1283.66 1023.12,1283.355 1023.882,1282.746 
	1024.948,1280.46 1025.406,1279.546 1026.32,1277.87 1028.301,1276.346 1028.91,1275.432 1029.215,1274.975 1029.062,1274.366 
	1029.062,1274.213 1029.062,1273.909 1028.91,1271.471 1028.758,1269.947 1028.758,1269.49 1028.453,1267.357 1028.606,1267.205 
	1028.758,1267.509 1029.368,1267.966 1029.672,1268.119 1030.282,1268.271 1030.434,1268.423 1030.739,1268.728 1030.891,1268.728 
	1031.501,1269.033 1031.653,1269.338 1032.872,1269.947 1033.177,1270.099 1033.939,1270.557 1034.091,1270.557 1034.701,1271.318 
	1035.158,1271.623 1036.224,1272.537 1036.224,1272.842 1036.377,1273.452 1036.834,1274.518 1037.748,1275.737 1038.358,1275.889 
	1039.12,1276.194 1039.424,1276.346 1039.881,1276.804 1040.491,1277.87 1041.101,1278.48 1041.405,1278.784 "/>
<polygon style="fill:#EF4136;" points="1081.328,1281.832 1080.719,1287.469 1080.262,1288.688 1079.652,1289.45 1078.586,1294.021 
	1077.672,1294.783 1076.3,1297.373 1072.643,1298.287 1071.881,1297.983 1066.395,1295.849 1068.986,1291.431 1069.748,1290.364 
	1070.967,1288.993 1071.272,1288.536 1072.034,1287.469 1072.338,1286.555 1073.405,1286.86 1073.405,1286.25 1073.709,1285.489 
	1074.014,1284.27 1074.319,1283.66 1074.471,1283.508 1079.348,1273.452 1080.262,1272.842 1080.719,1272.69 1082.852,1273.147 
	1083.462,1273.604 1083.005,1274.975 "/>
<polygon style="fill:#EF4136;" points="1017.482,1287.165 1017.787,1287.165 1018.701,1287.165 1020.072,1287.317 
	1021.596,1287.621 1023.272,1288.079 1024.034,1288.231 1024.491,1289.146 1025.558,1291.126 1026.777,1292.345 1027.387,1292.193 
	1027.996,1292.04 1028.301,1291.888 1029.824,1292.04 1030.129,1292.04 1031.653,1292.193 1031.805,1292.193 1032.872,1292.497 
	1032.567,1296.307 1032.872,1296.307 1033.482,1296.459 1035.463,1296.764 1039.272,1297.068 1039.424,1297.221 1039.272,1297.678 
	1038.967,1297.83 1036.529,1297.83 1036.377,1299.049 1036.224,1299.811 1035.92,1301.335 1036.529,1301.487 1038.053,1301.792 
	1038.358,1301.944 1040.034,1302.249 1040.491,1302.858 1041.405,1302.858 1042.015,1303.011 1042.624,1303.011 1043.386,1303.315 
	1047.805,1303.315 1048.567,1303.468 1048.567,1303.62 1049.177,1303.468 1049.786,1303.925 1050.091,1303.62 1050.853,1303.773 
	1051.005,1303.925 1051.92,1304.077 1052.529,1304.23 1053.291,1304.077 1053.9,1304.077 1054.51,1304.077 1054.815,1304.077 
	1055.12,1304.077 1057.862,1304.23 1057.862,1304.382 1058.015,1305.601 1058.929,1305.296 1060.453,1304.687 1061.215,1305.601 
	1061.215,1306.515 1062.281,1305.906 1062.281,1305.753 1063.196,1305.449 1063.043,1304.687 1063.043,1304.382 1063.196,1303.925 
	1063.196,1303.163 1063.958,1302.706 1064.567,1299.506 1064.872,1299.506 1065.024,1299.963 1065.177,1300.725 1065.938,1300.878 
	1066.395,1301.03 1066.7,1301.487 1066.091,1302.858 1066.091,1307.734 1066.548,1312.305 1067.157,1312.457 1067.614,1312.457 
	1068.529,1311.848 1069.138,1311.543 1069.9,1311.696 1070.205,1311.696 1070.814,1311.391 1072.948,1310.781 1074.167,1310.781 
	1074.776,1310.781 1075.538,1310.781 1076.91,1310.324 1077.214,1310.477 1077.519,1310.934 1077.519,1313.676 1077.672,1313.981 
	1079.043,1313.829 1079.957,1313.981 1080.719,1314.591 1081.328,1315.505 1081.481,1315.505 1082.09,1315.505 1082.395,1315.505 
	1088.338,1312.762 1090.319,1311.543 1090.471,1311.086 1090.319,1310.172 1089.557,1308.344 1090.928,1307.582 1091.538,1307.277 
	1092.757,1306.972 1093.976,1306.82 1094.128,1306.972 1094.281,1306.972 1094.586,1307.125 1095.347,1307.429 1095.652,1308.344 
	1095.804,1308.496 1096.414,1315.657 1096.414,1316.115 1096.414,1316.267 1096.414,1316.724 1096.414,1316.876 1096.414,1317.028 
	1096.414,1317.181 1096.414,1317.486 1096.414,1317.638 1096.262,1318.248 1095.804,1319.923 1095.5,1320.685 1095.043,1321.904 
	1094.433,1323.885 1094.281,1324.647 1094.128,1325.409 1094.128,1325.714 1094.128,1325.866 1094.128,1326.018 1094.128,1326.171 
	1094.128,1326.323 1094.281,1326.475 1094.281,1326.78 1094.281,1327.085 1094.433,1327.39 1094.738,1328.609 1094.89,1329.066 
	1094.89,1329.37 1095.043,1329.98 1095.195,1330.132 1095.195,1330.284 1085.595,1333.941 1085.138,1334.551 1084.833,1333.637 
	1084.528,1333.027 1084.528,1332.722 1084.376,1332.57 1084.071,1331.656 1083.767,1330.894 1083.614,1330.284 1083.309,1329.066 
	1083.005,1328.151 1082.547,1326.78 1081.024,1322.362 1080.262,1322.209 1079.652,1322.209 1078.89,1322.209 1076.757,1321.904 
	1075.843,1321.904 1073.557,1321.752 1070.662,1321.447 1068.376,1321.295 1066.853,1321.143 1064.262,1321.6 1063.958,1318.857 
	1064.872,1315.809 1065.024,1314.895 1062.281,1314.895 1061.062,1313.219 1051.767,1314.286 1051.767,1315.657 1051.615,1315.657 
	1051.005,1315.962 1050.853,1316.115 1044.758,1316.267 1044.453,1317.333 1044.148,1318.705 1043.844,1320.381 1043.539,1320.381 
	1043.082,1320.381 1042.32,1320.381 1041.405,1320.228 1041.405,1319.923 1041.558,1319.771 1041.71,1319.771 1041.558,1318.857 
	1041.405,1318.857 1040.643,1318.705 1040.339,1318.705 1040.186,1318.248 1040.034,1317.79 1039.881,1317.638 1039.577,1317.79 
	1039.12,1317.943 1038.206,1317.943 1038.053,1317.79 1037.901,1317.638 1037.596,1317.79 1036.834,1317.943 1036.224,1317.943 
	1036.072,1318.248 1036.072,1319.619 1035.005,1319.467 1034.701,1318.095 1035.005,1316.571 1035.31,1314.895 1032.263,1314.438 
	1030.282,1314.438 1029.824,1315.657 1029.52,1318.248 1029.52,1320.228 1029.215,1321.752 1029.062,1322.362 1028.606,1324.647 
	1028.453,1325.104 1027.844,1327.847 1027.691,1328.609 1022.815,1326.628 1022.663,1326.475 1022.358,1326.475 1021.901,1326.323 
	1020.682,1327.237 1019.31,1328.456 1019.158,1327.39 1019.158,1327.085 1019.158,1326.323 1019.158,1325.256 1019.158,1325.104 
	1019.158,1324.647 1019.158,1324.495 1019.158,1324.342 1017.939,1320.076 1017.787,1319.162 1017.33,1315.505 1018.244,1310.781 
	1019.768,1308.496 1018.853,1307.429 1019.92,1305.601 1017.939,1303.468 1017.33,1302.858 1018.244,1301.792 1017.787,1301.182 
	1017.634,1301.182 1018.396,1301.182 1018.701,1300.725 1018.244,1299.811 1017.787,1298.745 1017.177,1297.373 1016.872,1296.307 
	1016.568,1295.393 1016.415,1294.935 1016.263,1293.107 1016.111,1291.888 1015.958,1291.431 1016.111,1290.364 1016.111,1289.45 
	1016.263,1288.688 1016.415,1288.231 1016.415,1288.079 1016.568,1287.774 1017.33,1287.165 "/>
<polygon style="fill:#EF4136;" points="907.617,1194.068 908.227,1194.221 908.531,1194.068 908.684,1194.83 907.769,1194.83 
	906.855,1194.83 906.855,1194.068 907.008,1194.068 907.16,1194.068 907.312,1194.068 907.465,1194.068 "/>
<polygon style="fill:#EF4136;" points="910.97,1195.592 910.664,1196.201 910.817,1196.354 910.055,1196.354 909.293,1196.506 
	908.836,1196.506 908.684,1195.897 908.684,1195.592 909.598,1195.744 909.75,1195.744 909.75,1195.287 909.598,1194.982 
	909.598,1194.678 909.446,1193.154 909.598,1192.697 909.75,1192.392 909.75,1192.24 909.903,1192.088 909.903,1191.935 
	910.055,1191.783 910.208,1191.63 910.664,1191.63 911.274,1192.24 911.274,1192.392 911.122,1192.392 910.97,1192.544 
	910.97,1192.849 910.817,1192.849 910.664,1192.849 910.208,1193.002 910.055,1193.154 910.36,1194.221 910.512,1194.678 
	910.817,1195.44 "/>
<polygon style="fill:#EF4136;" points="915.998,1199.858 916.303,1200.01 916.912,1200.315 916.607,1200.468 916.303,1200.468 
	915.998,1200.62 915.693,1200.62 915.541,1200.62 915.541,1200.925 915.541,1201.077 915.693,1201.229 915.846,1201.382 
	915.998,1201.687 916.15,1202.296 915.846,1202.449 915.693,1202.601 914.931,1202.753 914.627,1203.515 914.474,1203.667 
	914.322,1204.124 914.017,1204.277 914.169,1204.734 914.169,1205.191 913.407,1205.039 913.255,1204.886 913.255,1204.734 
	913.407,1204.734 913.407,1204.124 913.407,1203.515 912.798,1203.515 912.493,1203.363 912.493,1202.906 912.341,1202.296 
	912.188,1202.296 911.579,1202.296 911.274,1202.144 910.97,1202.449 910.208,1203.363 909.598,1203.82 909.446,1203.972 
	908.988,1203.515 908.988,1203.21 909.141,1202.906 908.988,1202.144 909.141,1201.991 909.141,1201.839 909.293,1201.534 
	909.293,1201.382 909.293,1201.229 909.446,1201.229 909.598,1200.772 909.903,1200.772 910.36,1201.229 910.664,1201.382 
	910.664,1201.534 910.817,1201.382 911.427,1201.077 912.188,1200.925 911.731,1199.553 911.427,1198.335 911.427,1198.182 
	911.579,1196.963 911.884,1196.963 912.036,1197.116 912.036,1197.268 912.188,1197.573 912.188,1197.725 912.341,1197.725 
	912.493,1197.725 912.646,1197.877 912.646,1198.335 912.646,1198.487 913.255,1200.163 913.712,1200.315 913.865,1200.163 
	914.017,1200.163 914.169,1200.163 914.322,1199.858 914.474,1200.01 914.627,1200.163 914.779,1200.315 914.779,1200.468 
	914.931,1200.62 915.084,1200.468 915.388,1200.315 915.541,1200.163 915.693,1200.01 915.846,1200.01 "/>
<polygon style="fill:#EF4136;" points="841.18,1303.315 840.875,1303.315 839.809,1303.163 840.266,1299.354 840.57,1299.506 
	840.875,1299.506 841.028,1299.506 841.485,1299.659 841.79,1299.659 842.094,1299.659 843.313,1300.116 842.399,1302.401 
	842.094,1302.706 841.332,1303.163 "/>
<polygon style="fill:#EF4136;" points="916.912,1200.315 916.303,1200.01 915.998,1199.858 915.846,1199.553 915.998,1198.944 
	916.15,1198.792 916.303,1198.639 916.607,1198.487 916.76,1198.487 917.522,1198.792 918.893,1198.792 919.198,1198.792 
	919.503,1198.792 919.807,1199.858 919.807,1200.315 919.655,1200.468 919.198,1200.62 917.674,1200.62 917.065,1200.468 "/>
<polygon style="fill:#EF4136;" points="934.436,1205.039 934.283,1205.039 933.521,1205.039 933.217,1205.039 933.217,1204.277 
	933.064,1203.972 933.064,1203.515 933.369,1203.363 934.283,1203.667 934.436,1203.972 "/>
<polygon style="fill:#EF4136;" points="927.274,1213.876 926.969,1214.181 926.817,1214.181 926.664,1214.028 926.207,1213.876 
	925.445,1212.962 925.141,1212.505 924.531,1211.743 924.226,1211.286 924.226,1210.829 924.531,1210.524 925.903,1210.524 
	926.664,1210.676 927.122,1210.829 927.426,1210.981 927.578,1211.743 927.274,1212.505 927.426,1212.505 927.426,1212.962 
	927.274,1213.266 927.274,1213.571 "/>
<polygon style="fill:#EF4136;" points="929.864,1209.762 929.559,1210.067 929.559,1210.219 929.102,1210.067 928.95,1210.067 
	928.188,1209.61 928.188,1208.848 928.645,1208.086 929.255,1207.324 929.559,1207.172 930.017,1207.934 930.169,1209.305 "/>
<polygon style="fill:#EF4136;" points="932.15,1209.61 930.931,1209.762 930.779,1208.543 930.931,1208.543 931.998,1208.391 "/>
<polygon style="fill:#EF4136;" points="932.76,1215.552 932.15,1215.552 931.998,1215.247 931.845,1214.485 931.845,1213.266 
	932.455,1213.114 933.064,1213.114 933.064,1213.876 933.369,1214.485 933.064,1215.095 "/>
<polygon style="fill:#EF4136;" points="933.979,1217.99 934.436,1218.142 934.436,1218.447 934.893,1218.599 935.35,1218.599 
	935.502,1219.209 934.131,1219.666 933.217,1219.666 932.455,1219.361 932.607,1219.057 932.607,1218.599 932.302,1218.295 
	932.455,1218.142 932.607,1218.142 933.064,1218.142 933.521,1217.838 933.826,1217.838 "/>
<polygon style="fill:#EF4136;" points="929.712,1218.904 929.255,1219.209 929.102,1219.057 929.102,1218.142 929.712,1217.99 
	930.321,1217.838 930.779,1217.685 931.083,1217.685 931.236,1217.838 931.388,1218.447 930.626,1218.599 930.017,1218.752 "/>
<polygon style="fill:#EF4136;" points="930.169,1215.704 928.95,1217.076 928.036,1216.923 928.036,1216.618 928.036,1216.161 
	928.188,1215.704 928.798,1215.552 928.95,1214.943 928.95,1213.571 929.102,1213.114 929.407,1212.962 929.559,1212.962 
	929.712,1212.962 929.712,1213.114 929.864,1213.571 930.169,1214.943 "/>
<polygon style="fill:#EF4136;" points="1019.006,1260.653 1020.377,1262.176 1021.292,1262.176 1023.729,1262.024 
	1024.339,1262.024 1026.167,1264.31 1026.929,1264.614 1027.539,1265.376 1026.929,1264.919 1025.863,1264.31 1024.034,1262.938 
	1023.272,1262.786 1021.139,1262.938 1020.225,1262.938 1019.768,1262.633 1019.31,1261.719 "/>
<polygon style="fill:#EF4136;" points="1017.634,1137.235 1018.244,1137.692 1017.482,1139.216 1016.415,1141.349 
	1015.196,1141.349 1014.434,1142.72 1013.52,1144.549 1013.215,1145.006 1013.063,1145.311 1012.454,1146.073 1012.301,1146.377 
	1012.149,1146.682 1011.387,1148.358 1010.168,1150.187 1010.016,1150.491 1009.863,1150.796 1009.558,1151.253 1009.254,1151.71 
	1008.949,1152.167 1008.187,1153.539 1007.882,1153.843 1007.12,1155.672 1006.663,1156.434 1006.053,1157.5 1003.92,1160.7 
	1003.92,1160.852 1002.244,1160.7 1002.092,1160.547 1000.416,1161.462 1000.111,1161.005 999.654,1161.309 998.892,1161.919 
	998.739,1162.071 998.587,1162.071 998.587,1162.224 998.435,1162.224 998.13,1162.224 997.977,1162.376 997.216,1162.985 
	996.606,1163.29 995.997,1163.747 996.149,1165.423 996.301,1165.88 995.844,1165.88 995.082,1165.728 994.016,1165.728 
	993.559,1165.728 993.102,1165.576 991.882,1165.88 991.578,1165.88 991.425,1165.88 991.273,1165.88 991.121,1165.88 
	990.968,1165.88 990.816,1165.88 990.663,1165.88 990.511,1165.728 989.749,1166.033 989.292,1166.947 989.139,1167.099 
	989.139,1167.252 988.835,1167.404 988.682,1167.404 988.53,1167.404 988.073,1166.642 987.92,1166.49 986.549,1165.423 
	986.244,1165.271 985.025,1165.119 984.416,1165.119 984.263,1165.119 983.197,1165.576 983.044,1165.728 982.74,1164.966 
	982.892,1164.661 982.74,1164.509 982.74,1164.052 981.978,1163.595 980.911,1162.985 979.997,1162.376 979.844,1162.528 
	979.692,1162.528 979.387,1162.528 979.083,1162.528 979.083,1162.681 978.321,1162.681 978.016,1162.681 978.016,1163.138 
	976.949,1163.29 976.645,1163.29 976.34,1163.442 976.035,1163.595 975.73,1163.747 975.578,1164.204 975.426,1164.661 
	975.426,1164.814 975.273,1164.966 975.121,1165.271 975.121,1165.423 974.968,1165.728 974.816,1165.728 974.359,1167.252 
	974.816,1167.709 974.968,1167.861 975.121,1168.013 975.273,1168.166 975.273,1168.318 975.426,1168.318 975.426,1168.471 
	975.578,1168.471 975.578,1168.623 975.73,1168.623 975.578,1168.623 975.578,1168.775 975.578,1169.08 975.426,1169.08 
	975.426,1169.233 975.426,1169.385 975.426,1169.537 975.273,1169.537 975.273,1169.689 975.121,1170.147 974.968,1170.299 
	974.207,1170.451 974.054,1170.451 973.445,1170.756 972.987,1171.061 972.835,1171.061 972.53,1171.213 972.378,1171.213 
	971.768,1171.518 971.616,1171.67 971.464,1171.67 971.311,1171.67 970.55,1171.518 970.397,1171.518 969.788,1171.518 
	969.635,1171.518 969.635,1171.67 969.635,1171.823 969.635,1172.127 969.635,1172.28 969.483,1172.28 969.483,1172.432 
	969.33,1172.889 969.178,1173.194 969.178,1173.346 969.026,1173.499 969.026,1174.108 968.873,1174.108 968.721,1174.261 
	968.264,1174.261 967.654,1174.565 967.349,1174.565 967.197,1174.565 966.892,1174.565 966.74,1174.565 966.435,1174.413 
	966.13,1174.413 966.13,1174.108 966.13,1173.956 966.13,1173.803 966.13,1173.346 966.13,1172.737 966.13,1172.28 965.978,1172.28 
	965.826,1172.127 965.673,1172.127 965.521,1171.823 965.064,1171.975 965.064,1172.127 965.064,1172.28 965.064,1172.432 
	964.759,1172.737 964.607,1172.737 964.149,1172.28 963.845,1172.28 963.387,1172.889 962.321,1173.042 962.169,1173.194 
	962.016,1173.194 961.864,1172.737 960.34,1172.889 960.035,1172.432 960.188,1172.432 961.864,1172.127 962.016,1171.518 
	961.864,1171.213 961.864,1171.061 962.016,1170.756 961.712,1170.756 960.95,1170.604 960.645,1170.451 960.188,1170.147 
	960.188,1170.451 960.035,1170.451 960.035,1170.604 960.035,1170.756 959.426,1171.366 958.969,1171.366 958.664,1171.213 
	958.512,1171.061 958.359,1171.366 958.207,1171.518 956.835,1171.975 956.073,1171.67 954.854,1171.823 954.55,1172.127 
	954.245,1172.737 953.483,1172.737 952.874,1172.584 952.721,1172.432 952.569,1172.28 951.959,1172.28 951.807,1172.432 
	951.654,1172.432 951.35,1172.432 950.893,1172.432 950.588,1172.584 950.435,1172.737 950.283,1172.737 949.521,1172.737 
	949.521,1173.499 949.369,1174.108 949.064,1174.108 948.912,1173.956 948.759,1173.956 948.607,1173.956 948.15,1173.803 
	948.15,1173.651 948.302,1173.346 948.759,1172.584 948.759,1171.975 948.607,1171.823 948.455,1171.67 948.455,1171.213 
	948.302,1170.604 948.455,1169.689 948.912,1169.385 949.064,1169.233 949.216,1169.233 949.216,1168.928 948.912,1168.928 
	948.455,1168.775 948.607,1168.471 948.607,1168.318 948.759,1167.861 948.759,1167.556 948.302,1167.556 948.15,1166.795 
	947.845,1167.099 947.845,1166.947 947.693,1166.795 947.235,1166.795 946.473,1166.642 946.321,1166.642 946.321,1166.033 
	946.321,1164.814 946.321,1164.509 944.188,1164.966 941.598,1163.29 941.445,1163.29 941.14,1163.138 940.988,1162.985 
	940.836,1162.985 940.988,1162.833 941.14,1162.224 941.293,1161.919 941.598,1161.309 941.598,1161.157 941.598,1161.005 
	941.75,1161.005 941.75,1160.7 941.902,1160.395 942.207,1159.938 942.207,1159.786 942.664,1158.719 943.121,1157.805 
	943.274,1157.653 943.426,1157.195 943.731,1156.129 943.883,1155.672 944.036,1154.758 944.188,1154.3 944.188,1154.148 
	944.34,1154.148 944.34,1153.996 944.492,1153.081 944.645,1152.929 944.645,1152.472 944.95,1151.558 945.102,1151.101 
	945.255,1150.187 945.255,1150.034 945.559,1149.12 945.712,1148.663 945.712,1148.51 945.712,1148.358 945.864,1148.206 
	945.864,1148.053 945.864,1147.901 945.864,1147.749 945.864,1147.596 946.016,1147.444 946.016,1147.292 946.016,1147.139 
	946.169,1146.834 946.321,1146.073 946.321,1145.92 946.473,1144.854 946.626,1144.244 946.778,1143.939 946.778,1143.635 
	946.778,1143.178 946.778,1143.025 946.778,1142.72 946.778,1142.568 946.778,1142.416 946.778,1141.806 946.931,1141.654 
	947.083,1140.283 947.235,1140.283 947.388,1140.435 948.455,1140.892 949.521,1141.045 949.826,1141.654 950.131,1142.263 
	950.588,1143.178 950.893,1143.025 951.35,1143.025 951.35,1142.416 951.502,1142.263 951.654,1141.197 951.654,1139.216 
	951.959,1139.064 953.178,1138.759 953.331,1138.759 953.483,1138.759 953.636,1138.759 953.788,1138.911 953.94,1139.064 
	953.94,1139.216 954.092,1139.216 954.702,1139.521 955.159,1139.825 955.921,1140.13 957.902,1140.74 959.578,1142.111 
	960.035,1142.416 960.95,1142.568 961.407,1142.72 962.169,1142.873 963.387,1141.959 963.235,1140.892 963.692,1140.587 
	963.845,1139.978 964.302,1139.521 964.454,1139.521 964.607,1139.521 964.454,1139.368 964.302,1138.911 965.673,1138.759 
	965.978,1139.216 966.892,1139.825 967.197,1140.283 968.111,1140.892 968.111,1141.197 968.264,1141.654 968.568,1141.654 
	968.721,1141.654 968.721,1141.806 968.721,1141.959 968.721,1142.111 968.873,1142.111 969.178,1142.111 969.33,1142.263 
	969.483,1142.72 969.635,1142.568 970.397,1141.959 970.55,1141.045 970.854,1140.587 971.006,1140.74 971.921,1140.283 
	972.073,1139.978 972.225,1139.978 972.378,1139.825 971.921,1137.692 971.921,1137.54 971.768,1136.931 971.768,1136.778 
	971.616,1136.626 971.768,1136.473 971.768,1136.169 972.073,1135.864 973.14,1134.645 973.292,1134.493 973.292,1134.34 
	973.292,1133.883 973.445,1133.731 973.749,1133.274 974.511,1132.817 974.968,1132.664 975.426,1132.664 975.578,1132.969 
	975.73,1132.969 976.34,1132.817 976.492,1132.664 977.254,1132.512 977.864,1132.359 978.016,1132.359 978.626,1132.207 
	978.626,1132.055 978.778,1132.207 978.93,1132.207 979.083,1132.207 979.235,1131.75 979.692,1130.531 979.997,1130.531 
	980.759,1130.836 981.368,1131.293 981.368,1131.598 981.368,1131.75 981.368,1131.902 981.216,1132.207 980.911,1133.121 
	981.521,1133.274 981.673,1133.578 981.978,1133.274 982.74,1132.512 983.044,1132.055 983.197,1131.902 982.892,1131.445 
	982.587,1130.988 981.825,1130.226 981.216,1129.617 981.216,1129.312 981.216,1128.551 981.063,1128.093 981.063,1127.636 
	981.063,1127.484 980.911,1127.027 980.911,1126.874 980.911,1126.722 980.302,1126.113 980.149,1125.96 979.235,1125.503 
	978.626,1125.046 978.626,1124.893 978.778,1124.741 978.778,1124.437 978.93,1124.132 978.93,1123.827 979.235,1123.218 
	979.387,1122.76 979.387,1122.456 979.54,1121.999 979.54,1121.846 979.844,1121.084 980.149,1120.475 980.302,1119.865 
	980.454,1119.256 980.911,1118.342 981.368,1116.971 982.283,1117.427 983.197,1118.037 983.654,1118.189 983.959,1118.494 
	984.263,1118.646 984.721,1117.427 984.873,1116.971 985.482,1115.599 985.635,1115.142 985.94,1114.837 986.092,1114.685 
	986.397,1114.533 986.702,1114.228 987.006,1113.923 987.464,1113.771 988.225,1113.618 989.139,1113.923 989.597,1113.923 
	990.206,1114.076 990.663,1114.228 990.816,1113.466 990.968,1113.161 990.968,1112.857 991.121,1112.4 991.121,1112.095 
	991.273,1111.18 992.035,1110.419 992.34,1109.962 992.949,1109.047 992.949,1107.676 993.254,1106.609 993.711,1105.391 
	993.863,1105.543 994.473,1105.848 995.082,1106 995.387,1106.457 995.997,1107.371 996.606,1107.676 997.216,1107.981 
	997.825,1108.133 997.977,1108.133 998.435,1108.286 998.892,1107.371 999.806,1106.609 1000.873,1107.067 1001.482,1106.762 
	1002.092,1106.457 1002.092,1106 1001.939,1105.848 1001.787,1105.848 1001.939,1105.848 1002.244,1104.781 1001.635,1104.629 
	1000.111,1104.019 999.349,1103.714 999.044,1103.562 999.197,1103.41 999.654,1102.648 999.958,1102.343 999.958,1102.038 
	999.806,1100.515 999.349,1099.601 999.654,1097.468 999.806,1096.858 999.958,1095.944 1000.568,1094.572 1001.025,1093.658 
	1001.33,1093.201 1001.787,1092.287 1001.787,1092.135 1001.939,1091.982 1002.549,1090.916 1002.701,1090.916 1003.463,1091.068 
	1003.463,1090.916 1003.616,1090.611 1003.768,1090.001 1003.92,1089.087 1004.225,1088.63 1004.53,1088.021 1004.682,1087.868 
	1005.292,1086.802 1005.444,1086.497 1005.596,1086.497 1006.206,1085.431 1006.358,1084.973 1006.815,1084.364 1006.968,1084.059 
	1007.12,1083.754 1007.273,1083.602 1008.492,1084.212 1008.492,1084.364 1008.949,1084.516 1008.949,1084.669 1008.949,1084.821 
	1009.101,1085.126 1009.101,1085.278 1009.254,1085.431 1009.406,1085.735 1009.406,1085.888 1009.558,1085.888 1009.558,1086.04 
	1009.863,1086.649 1009.863,1086.802 1009.863,1086.649 1010.016,1086.497 1010.168,1085.888 1010.32,1085.735 1010.32,1086.192 
	1010.32,1087.106 1010.32,1088.325 1010.32,1088.935 1010.32,1089.392 1010.32,1090.306 1010.168,1090.763 1010.168,1091.83 
	1010.168,1092.744 1010.168,1094.115 1009.863,1097.925 1010.016,1097.925 1026.32,1101.429 1024.948,1107.676 1021.292,1106.914 
	1019.768,1111.485 1011.387,1109.352 1007.12,1118.799 1017.939,1126.265 1016.72,1134.036 1015.806,1136.169 "/>
<path style="fill:#EF4136;" d="M985.94,1211.895l-0.153-0.609v-0.152l-1.219-0.762l-0.609-0.457l-0.457-0.305l4.114-7.771
	l-1.371-0.762l0.609-1.219v-0.153v-0.305v-0.305l-2.895-0.914l-0.609-0.152l-1.067-0.305l-0.305-0.152l-1.371,1.981l-7.619,12.647
	l0.457,1.371l-0.153,0.609l1.067-0.152l0.914,0.152l0.457-0.457l0.457-0.609l0.457-0.152h0.609l1.219,0.609l0.457,1.524l0.152,0.914
	l0.609,0.762l0.914,0.762v0.152l0.457,0.153l-0.914,2.438l-1.219,2.133l-0.305,0.762l-0.914,1.524l-0.457,0.762l-0.153,0.457
	l5.333,2.895l0.914,0.609l0.762,0.457l0.61,0.305l0.152,0.153l1.067,0.609l2.743,1.676l-0.152,1.219l-0.762,3.2l-0.152,0.609v0.305
	h-0.305h-3.2l-1.371-0.152h-0.61l-1.219,0.152l-3.2,0.152v0.152h-0.152h-0.153l-3.657,4.419l-2.59-0.609l2.59-3.809l0.153-0.152
	h-0.762l-0.457,0.152h-0.152h-0.914h-0.305v-0.152h-0.152l-0.305-0.152l-0.152,0.305l-0.305,0.153h-0.457h-0.152l0.152-0.153v-0.152
	l0.457-0.305l-0.153-0.152l-0.609-0.762l-0.305-0.609l-0.152-0.152v-0.152l-0.305-0.457l-0.762-0.914v-0.153h-0.457h-0.153
	l-0.762,0.153h-0.914v-1.219v-0.305l0.152-1.524v-0.305v-0.304l0.152-1.524l-1.676-0.609l-1.676-0.609l-2.133-0.609l-0.457-0.152
	l-0.914-0.305l-0.457,0.914l-0.153,0.305l-0.152,0.305l-0.152,0.609l-0.152-0.152l-0.457-0.305l-0.305,0.457h-0.609l-0.609-0.305
	l-1.219-0.457l-2.133-0.609h-0.153l-0.153-0.152l-0.609-0.153l-0.457-0.152h-0.305l-0.762-0.153l-1.067-0.457l-0.762-0.305
	l-0.305-0.152l-0.914-0.305h-0.153l-0.609-0.152l-1.067-0.305l-2.286-0.914l-0.457-0.153l-1.829-0.762l-0.914,0.153l-0.762,0.152
	l-0.609,0.457h-0.457l-0.609,0.153l-0.762,0.152l-1.067-0.152l-1.219-0.153l-0.305,0.305l-0.152,0.305l-1.067,0.152h-0.457
	l-0.457,0.457l-0.152,0.914v0.152l-1.219,0.457v2.743l-0.152,1.219l-0.152,0.305h0.305h0.457v0.762h-0.153l-0.152,0.152h-0.152
	h-0.305l0.152,1.066l2.133-0.762l0.914,1.676l0.153,0.305l0.914,1.523l0.61,0.914l1.371,2.285l0.609,1.067l0.457,0.914l0.609,1.066
	l0.457,0.762l0.457,0.914l0.609,1.067l0.305,0.609l1.219,2.438l0.152,0.153l1.067,2.133l1.524,2.895l1.371,2.59v0.153v0.152
	l-0.152,0.152l-2.895,4.419l-0.152,0.305l-1.829-1.676l-4.876-4.723h-0.152v-0.152l-1.067-0.915v-0.152l-2.743-2.438l-1.219-1.067
	l-4.267-3.961l-0.152-0.152l-0.305-0.152l-0.152-0.305l-0.305-0.153l-0.152-0.152l0.305-1.828l0.152-1.524l0.152-0.609l0.153-0.609
	l-0.153-0.914v-0.305v-0.152l0.457-1.524v-1.676l-1.676,0.305l-2.438-0.762l-3.962,1.067l-2.438-3.961l-0.762,0.305l-0.914,0.152
	l-3.2-0.457l0.762-7.619l0.152-6.247l0.457-8.837l-2.133-0.609l-2.438-0.609l-7.466-1.828v0.153l0.305,1.371V1209l0.152,0.762
	l0.153,0.609l0.457,3.505l0.153,0.305v0.152v0.457l-3.2-0.152l-1.981-0.152l-2.133-0.153v1.371v1.371l0.152,0.457v0.305l0.152,1.219
	l0.61,3.047l0.305,1.676l0.152,0.457v0.305v0.305l0.305,1.219l0.305,1.524l2.59,12.647l1.067,6.552l-0.762,4.876l-0.914,2.59
	l-0.914,2.133l-0.457,2.286l0.762,1.371l2.59,3.2l0.609,1.828l0.305,0.914v1.524l-1.981,2.743l-2.133,1.676l-0.457,1.371
	l-0.914-0.152l-0.609-0.152l-0.457-0.305l-0.609-0.152l-1.371-0.305l-0.305-0.153l-0.457-0.152l-0.914-0.153l-0.152,0.153
	l-0.152,0.457v0.457l-0.152,0.457v0.153l-0.152,0.152l-0.762,2.286l-0.305,0.762l-1.371,3.657l-0.609,1.219h-0.152l-0.762,1.676
	l-0.914,1.219l-0.914,1.219l-1.067,1.067l-1.981,1.828l-0.305,0.304l-0.152,0.152l-1.676,1.067l-2.286,2.286l-0.305,0.304
	l-2.438,2.286l-1.829,1.981l-1.676,1.676l-0.153,0.304l-0.305,0.305h-1.371h-1.067l-1.676,0.152h-3.2l-0.914,0.152h-0.762h-1.829
	h-0.457h-1.371h-0.457h-0.762l-0.609,0.153l-0.152-0.153l-1.371,0.153h-0.457h-0.457h-0.914h-1.676h-1.067h-0.152l-1.067,0.152
	l-0.152,0.152l-0.914,0.914l-0.914,0.914l-0.152,0.153l-0.61,0.762v0.152h0.152l0.305,0.152l4.724,2.59l2.743,1.067l0.305,0.305
	l0.152,0.457l1.067,0.305l0.152,1.828l3.81-0.914l0.914-0.152l0.914-0.153h0.762h0.914l1.067,0.153l0.914,0.305l0.609,0.305
	l0.457,0.152l0.305,0.457l0.305,0.457l0.305,0.153l0.305,0.305h0.457h0.457l0.457-0.152l0.305-0.152l0.152-0.153l0.305-0.304
	l0.305-0.152l0.305,0.457l1.524,1.676l2.743-3.047l0.305-0.152v-0.305l0.152-0.457l0.152-0.153h0.152l0.152-0.152h0.305l0.305-0.153
	l0.152-0.305l0.152-0.305l0.152-0.305l0.457-0.152l0.762-0.457l0.457-0.457l0.61-0.457l0.457-0.457l0.762-0.762l0.609-0.457
	l0.457-0.457l0.457-0.305l1.067-0.762l1.066-0.762l0.457-0.457l0.457-0.305l1.371-0.762h1.219l0.153-0.152l0.457-0.152l0.305-0.457
	l0.305-0.152l0.457-0.609h1.371l0.914-0.305l0.609-0.305h0.457l0.457-0.152l0.762-0.305h0.457l0.305-0.153l0.457-0.152h0.457h0.305
	l0.457-0.305l0.457-0.152l0.609-0.305l0.762-0.609l0.762-0.609l0.457-0.153l0.61-0.457l0.914-0.457l0.609-0.153l0.457-0.152
	l0.457-0.152h0.457l0.609-0.152l0.609-0.152h0.457l0.457-0.305l0.305-0.152l0.457-0.152l0.153-0.152l0.305-0.152l0.152-0.152
	l0.762-0.609l0.61-0.609l1.219-1.219l1.981-1.828l3.962-4.571l0.61,0.609l0.914,0.457l1.524,0.457l1.371,0.457l1.371,0.914
	l1.524,0.762l0.609,0.762l0.762,0.609l1.219,1.066l1.524,0.914l0.762,0.457l-1.067,1.524l-3.2,5.485l-5.79,9.599l-3.352,5.79
	l1.829,0.457l2.743,1.219l1.219,0.305h0.457l1.067-0.305v0.762l-0.152,0.762v1.219l0.457,0.609l0.61,0.609l1.371,0.914l0.457,0.762
	v1.219v0.305v0.762v0.914l-0.305,0.61l-0.305,0.914l-0.609,1.066l-0.305,1.067l-0.152,0.914v0.914v0.762l0.152,1.371v1.067v0.609
	l-0.152,0.305l-0.305,0.762l-0.457,1.371l-0.152,0.914l0.152,1.219l0.152,0.457l0.153-1.067l0.305-0.609l0.152-0.305l1.067-1.524
	l0.305-0.152l0.914-0.609h0.304l0.305-0.152l0.305-0.152h0.914l1.219-0.153h0.457h0.152l0.152,0.153h0.152l0.914-0.153l0.457,1.066
	l0.457,1.371l0.153,0.305l0.153,0.152l0.152,0.152l0.305,0.153h0.305h0.153l0.457,0.152h0.304l1.067,0.305l1.219,0.305l0.609,0.153
	h0.457h0.61l0.457,0.152l-1.524,7.314l0.305,0.457h0.914l1.219-0.305l1.676-0.457l0.914-0.152l0.152-0.152l0.762-0.152l1.219-0.457
	h0.305l0.457-0.305l0.457-0.153l0.153-0.609l0.609-1.676l0.152-0.609l0.457-0.153l1.676-0.609l0.762-0.153l0.914-0.457l0.61,1.066
	l0.304,0.457l0.305-0.152l0.457,0.304l0.609,0.305l0.61,0.762l0.914,1.067l2.743,2.285l1.067,0.915l1.067,0.762l0.609,0.152h1.067
	h1.219l2.286-0.152l2.438-0.152l1.067-0.153h0.609l1.067,0.305l0.609,0.305l7.314,3.657l9.142-5.18l2.743-1.371l10.971-5.028
	l3.657-1.676l0.914-0.609l1.067-0.914l0.305-0.305l0.61-0.304h0.152l0.305-0.305v-0.152l0.153-0.152l0.152-0.457v-0.305
	l-1.981,1.066l-2.438-4.571l4.876,0.152v-1.067l0.305-1.676h0.153h0.762l0.762,0.152h0.153l3.504,0.305h0.305h0.152h0.152h0.152
	h0.153l0.914,0.152h1.067l1.219,0.152h0.762h0.305l3.962,0.305l-0.152-1.066v-0.305v-0.762v-1.067v-0.152v-0.457v-0.152v-0.152
	l-1.219-4.266l-0.153-0.914l-0.457-3.657l0.914-4.724l1.524-2.285l-0.914-1.067l1.067-1.828l-1.981-2.133l-0.61-0.609l0.914-1.067
	l-0.457-0.609l-0.152-0.152l-1.219-0.152l-0.153-0.152l-0.762-1.371l-0.609-2.286l-0.762-3.961l0.152-2.286l0.152-1.524l0.762-1.676
	l1.524-3.199l1.981-1.981l0.914-0.152h0.61l0.762-0.305l0.609-0.914l1.676-3.505l0.609-0.762l1.066-1.067l1.067-0.762l1.219-1.219
	l0.305-1.828l-0.305-1.981l-0.153-1.371v-0.152v-0.152l0.153-0.914l0.305-1.066v-0.914l-0.609-0.457l-1.067-0.609l-1.828-1.371
	l-0.762-0.152l-2.133,0.152h-0.914l-0.457-0.305l-0.457-0.914l-0.305-1.066l0.609-1.524l0.153-0.457l0.152-2.438l0.457-0.914
	l0.305-1.067l-0.762-0.305h-0.457h-0.457l-0.762,0.305l-0.457-0.305l-0.762-0.305l-0.457-0.152l-0.305-0.305l-1.371-0.457
	l-1.066-0.609l-2.438-0.914l-0.305-0.152l1.524-8.685l-0.305-0.305l-4.419-5.333l-0.152-0.152l-0.305-0.305l-1.371-1.523
	l-1.066-1.067l-1.067-1.067l-1.981-2.133l-0.305-0.305l-0.305-0.305l-0.609-0.762l-0.152-0.305v-0.152l-0.153-0.305l-0.152-0.152
	l-0.305-0.762l-0.457-1.067l-0.153-0.762l-0.305-0.914l2.591-3.657l0.305-0.152l1.981-1.828l0.152-0.153l0.153-0.152v-1.828v-0.609
	l0.457-0.152h0.762l0.305-0.152l3.962,0.762l0.762,0.609l0.457,0.305l5.79,1.371l0.457-1.371v-2.59h-1.676h-0.609l-0.152-0.305
	h-0.153v-0.152l-0.457-4.419v-0.153l-0.762-0.305l-1.371-0.609l-0.305,1.219l-0.457,0.762l-1.219,1.371l-1.067-0.762l-1.219-0.152
	l-0.305,0.152h-0.457l-0.914-0.457l0.61-2.285l0.762-1.676l-1.066-0.457l-1.067-0.304l-1.829,1.981l-1.219,0.152l-1.829-0.304
	l-0.609-0.609l0.305-0.762h0.305h1.524h0.457l0.457-0.457l0.152-0.152l0.152-0.305l0.152-0.305l-0.305-0.152h-0.152l-0.609-0.305
	h-0.153l-1.219-0.457l-1.524-0.609v0.305l-0.305,0.609l-0.305,0.762h-0.152h-0.457l-0.305,0.457l-0.153,0.305h-0.305l-0.609-0.152
	l0.153-0.457l0.152-0.762l-0.457-0.457l-0.152-0.152l-0.305-0.152h-0.305l-0.457-0.153v-0.152v-0.153l0.153-0.305l-1.676-0.609
	l0.152-1.219l-0.914-0.457l-1.676-0.609l-2.438,4.723l-0.305,0.609v1.067l-0.305,0.305l-0.153,0.152v0.152v0.305v0.153l0.153,0.609
	l0.152,0.609v0.152h-0.152l-0.762,0.457l-0.152,0.152l-0.61,0.305v0.609v0.152l0.153,0.609l0.152,1.219h-0.152l-0.914,0.153
	l-0.152-0.153V1211.895 M953.026,1260.5 M953.026,1260.5l2.286,0.153l1.524-0.61l0.457-0.762l0.609-0.457l0.457-0.762l0.152-0.762
	l0.609-0.914l0.457-0.609l0.152-0.305l0.152-0.609l0.152-0.457l0.152-0.457l1.676-3.809l-0.762-3.2l-0.305-0.914l-0.152-0.152
	l-0.305-0.152h-0.457l-1.676,1.067l-1.676,1.524l-0.457,1.371l-0.305,2.133l-0.305,0.914l-0.762,0.762l-1.066,0.762l-0.457,0.914
	l-0.153,1.371l-0.152,1.828l-0.609,0.914l0.609,0.914L953.026,1260.5z M964.911,1253.948 M964.911,1253.948l0.762-0.152l0.305-0.152
	l1.219-0.152v0.152h0.457h0.457l0.457,0.762l0.305-0.152h0.153l0.457-0.457l0.305-0.304v-0.152v-0.762v-1.524l-0.305-0.914
	l-0.152-0.305l-0.152-0.152h-0.61l-0.152,0.152l-0.762-0.152l-1.219-0.153h-1.067l-0.762,0.762l-0.457,0.457l0.153,1.067
	l0.457,1.676v0.152L964.911,1253.948z M961.864,1259.739 M961.864,1259.739l-0.152,1.676l0.914,1.219v0.457l0.152,0.609v0.152v0.152
	v0.152v0.304l0.153,0.153l0.153,0.152h0.152h0.305v0.152v0.152l0.609,0.305l0.305,0.152h0.152l0.914,0.305h0.152v0.152l0.153,0.152
	v0.152h0.152l0.457,0.152h0.305l0.305-0.152l0.762,0.152h0.609l0.762-0.305l0.609-0.152l0.457-0.152l0.305-0.153l1.219-0.762
	l1.219-0.762v-0.152l0.305-0.305l0.153-0.152l0.305-0.153l0.153-0.152l0.609-0.457l0.609-0.457l-0.153-0.914l-0.152-0.305v-0.305
	l-0.153-0.152v-0.153h0.153l0.152-0.152l0.153-0.152l0.457-0.152l0.153-0.152v-0.305l0.609-0.152v-0.152v-0.457h0.305v-0.304v-0.305
	l-0.305-0.609l-0.762-0.305l-0.762-0.457l-0.609-0.152l-0.762-0.152h-0.153h-1.067l-0.609,0.305l-0.457,0.305l-0.762,0.305h-0.457
	l-0.914-0.305l-1.219-1.067v-0.152h-0.152h-0.457h-0.305l-1.066,0.152l-0.915,0.153l-0.762-0.153h-0.305l-0.609-0.609l-0.152-0.152
	l-0.305,0.152l-0.305,0.305l-0.305,1.219l-0.305,0.609l-0.152,0.457l0.152,0.305v0.914V1259.739z M950.74,1266.595 M950.74,1266.595
	v-0.915l-0.305-0.914h-0.153v-0.152h-0.152h-0.152h-0.152h-0.152v0.152h-0.152l-0.609,0.762l0.152,0.152l0.152,0.457l0.152,0.762
	l-0.152,0.457v0.305l-0.152,0.457v0.305l-0.305,0.152v0.305l-0.152,0.762h-0.457h-0.457v0.457v0.609l0.305,0.305l0.305,0.457
	l1.067,0.153l-0.152,1.066l-1.219-0.152l-1.219,0.152v-0.152l-0.609-0.305l-0.305-0.153h-0.152v0.153l-0.153,0.457l0.153,0.305
	l-0.914,0.762l-0.61-0.609l-0.152-0.152h-0.152l-0.457-0.305l-0.305-0.152l-0.304-0.152l-0.153-0.152l-0.152,0.457l0.305,0.762
	l0.304,0.457l0.305,0.152l0.609,0.762l0.305,0.152l-0.762,1.524l-0.609,1.219l1.524,0.457l1.067-0.457h0.305l0.914-0.609
	l0.762-0.152l1.676-0.304l0.61-0.305l0.914-0.609l0.457-0.457l0.305-0.153l-0.305-0.762v-1.067l0.152-0.305l0.152-0.305v-0.305
	v-1.067v-1.066l-0.457-2.133L950.74,1266.595z"/>
</svg>
