<?xml version="1.0" encoding="utf-8"?>
<!-- Generator: Adobe Illustrator 17.0.0, SVG Export Plug-In . SVG Version: 6.00 Build 0)  -->
<!DOCTYPE svg PUBLIC "-//W3C//DTD SVG 1.1//EN" "http://www.w3.org/Graphics/SVG/1.1/DTD/svg11.dtd">
<svg version="1.1" id="Layer_2" xmlns="http://www.w3.org/2000/svg" xmlns:xlink="http://www.w3.org/1999/xlink" x="0px" y="0px"
	 width="1840px" height="2400px" viewBox="0 0 1840 2400" enable-background="new 0 0 1840 2400" xml:space="preserve">
<polygon fill="#65C6C7" points="805.484,1630.359 804.875,1631.562 804.137,1633.006 803.832,1633.584 803.816,1633.616 
	800.944,1632.108 800.703,1632.573 800.495,1632.461 800.43,1632.429 798.2,1631.241 798.537,1630.535 800.19,1627.102 
	800.254,1627.134 801.393,1627.728 "/>
<polygon fill="#65C6C7" points="805.483,1630.374 804.873,1631.577 804.151,1633.021 803.846,1633.599 803.83,1633.631 
	800.942,1632.123 800.718,1632.588 800.493,1632.476 800.429,1632.444 798.199,1631.256 798.536,1630.55 800.204,1627.117 
	800.268,1627.149 801.408,1627.742 "/>
<polygon fill="#65C6C7" points="710.151,1724.015 708.014,1722.81 708.191,1722.521 709.042,1721.075 709.637,1720.062 
	709.894,1720.271 710.264,1720.593 710.489,1720.898 710.617,1721.171 710.762,1721.573 710.81,1721.974 710.826,1722.296 
	710.81,1722.617 710.762,1722.842 710.713,1723.019 710.553,1723.34 710.28,1723.79 "/>
<polygon fill="#65C6C7" points="743.927,1911.016 743.927,1911.048 743.831,1911.272 743.367,1912.614 743.255,1912.566 
	741.753,1912.039 741.961,1911.464 742.281,1910.553 742.297,1910.473 "/>
<polygon fill="#65C6C7" points="635.668,1921.179 636.15,1921.227 637.355,1921.195 637.355,1924.377 637.066,1924.554 
	636.696,1924.682 636.198,1924.65 635.636,1924.522 635.33,1924.361 633.466,1922.432 633.627,1922.111 633.852,1921.789 
	634.109,1921.516 634.366,1921.323 634.72,1921.114 634.961,1921.018 635.314,1921.114 "/>
<polygon fill="#65C6C7" points="1167.854,1358.297 1168.847,1358.65 1169.103,1358.762 1169.279,1358.81 1169.839,1359.018 
	1170.672,1359.338 1170.784,1359.386 1170.864,1359.434 1170.896,1359.498 1170.912,1359.562 1170.896,1359.642 1170.208,1361.771 
	1170.031,1362.283 1169.295,1362.011 1168.078,1361.563 1167.678,1361.419 1166.718,1361.067 1165.998,1360.795 1165.661,1360.667 
	1165.982,1359.674 1166.302,1358.698 1166.574,1357.817 "/>
<polygon fill="#65C6C7" points="1114.764,1453.045 1116.064,1453.639 1116.433,1453.815 1116.529,1453.863 1117.508,1454.361 
	1117.475,1455.163 1118.246,1455.179 1118.246,1455.355 1118.246,1455.516 1118.246,1456.462 1118.246,1457.634 1118.246,1458.243 
	1118.246,1458.516 1118.246,1458.548 1118.246,1458.645 1118.165,1458.645 1116.031,1458.468 1114.94,1458.388 1114.7,1458.372 
	1113.561,1458.292 1113.561,1458.163 1113.545,1457.874 1113.368,1457.874 1113.336,1457.425 1113.063,1457.409 1113.063,1457.168 
	1113.352,1457.168 1113.4,1456.045 1113.529,1456.045 1113.513,1455.532 1113.4,1455.436 1113.561,1454.328 1113.737,1454.328 
	1113.769,1454.216 1113.93,1454.232 1114.042,1454.232 1114.106,1454.04 1114.251,1453.607 1114.186,1453.478 1114.459,1452.917 
	1114.523,1452.933 "/>
<polygon fill="#65C6C7" points="1114.78,1453.061 1116.064,1453.655 1116.433,1453.831 1116.545,1453.879 1117.524,1454.377 
	1117.492,1455.179 1118.246,1455.195 1118.246,1455.371 1118.246,1455.532 1118.262,1456.479 1118.262,1457.65 1118.262,1458.26 
	1118.262,1458.532 1118.262,1458.564 1118.262,1458.661 1118.165,1458.661 1116.031,1458.484 1114.957,1458.404 1114.7,1458.388 
	1113.561,1458.308 1113.561,1458.179 1113.561,1457.89 1113.384,1457.89 1113.352,1457.441 1113.079,1457.425 1113.063,1457.185 
	1113.368,1457.185 1113.416,1456.061 1113.529,1456.061 1113.529,1455.548 1113.416,1455.452 1113.577,1454.345 1113.753,1454.345 
	1113.785,1454.232 1113.93,1454.248 1114.058,1454.248 1114.122,1454.056 1114.267,1453.623 1114.202,1453.494 1114.475,1452.933 
	1114.539,1452.949 "/>
<polygon fill="#65C6C7" points="854.027,705.92 854.059,705.599 854.139,705.246 854.444,703.257 854.749,703.177 856.016,702.744 
	856.176,702.68 857.155,702.327 857.187,702.198 857.251,701.829 857.315,701.557 857.652,701.637 858.085,701.733 858.165,701.525 
	859.032,701.733 859.256,701.813 859.336,701.91 859.449,705.872 859.384,706 859.272,706.032 858.679,706.208 857.395,706.192 
	856.096,706.144 855.872,706.144 854.524,705.984 "/>
<polygon fill="#65C6C7" points="853.979,705.92 854.011,705.599 854.091,705.262 854.396,703.273 854.701,703.177 855.968,702.744 
	856.128,702.696 857.107,702.343 857.139,702.198 857.203,701.829 857.267,701.573 857.604,701.637 858.037,701.749 
	858.117,701.525 858.983,701.733 859.208,701.829 859.288,701.926 859.4,705.872 859.336,706.016 859.224,706.048 858.63,706.208 
	857.347,706.192 856.048,706.16 855.823,706.144 854.476,705.984 "/>
<polygon fill="#65C6C7" points="843.231,943.756 843.231,944.638 843.231,945.151 843.231,946.627 843.231,949.498 843.119,949.498 
	840.312,949.45 840.328,949.001 840.344,947.589 840.408,946.546 840.52,944.798 840.52,944.718 840.52,944.557 840.568,943.643 
	840.873,943.659 841.066,943.659 841.306,943.675 841.996,943.724 842.718,943.74 "/>
</svg>
