<?xml version="1.0" encoding="iso-8859-1"?>
<!-- Generator: Adobe Illustrator 17.0.0, SVG Export Plug-In . SVG Version: 6.00 Build 0)  -->
<!DOCTYPE svg PUBLIC "-//W3C//DTD SVG 1.1//EN" "http://www.w3.org/Graphics/SVG/1.1/DTD/svg11.dtd">
<svg version="1.1" xmlns="http://www.w3.org/2000/svg" xmlns:xlink="http://www.w3.org/1999/xlink" x="0px" y="0px" width="1200px"
	 height="295.809px" viewBox="0 0 1200 295.809" style="enable-background:new 0 0 1200 295.809;" xml:space="preserve">
<g id="Layer_1">
</g>
<g id="Layer_2">
	<g>
		<path style="fill:#FFFFFF;" d="M254.921,88.161h8.5l23.21,65.381l8.826,24.519h0.653l8.5-24.519l23.21-65.381h8.5v107.879h-5.23
			v-75.187c0-8.5,0.327-19.288,0.653-28.114h-0.653l-8.336,23.537l-24.028,67.669h-6.211l-24.19-67.669l-8.5-23.537h-0.653
			c0.326,8.826,0.653,19.614,0.653,28.114v75.187h-4.903V88.161z"/>
		<path style="fill:#FFFFFF;" d="M366.396,117.91h4.903v49.689c0,17.325,5.558,25.825,18.961,25.825
			c9.807,0,16.999-5.23,26.806-16.999V117.91h4.904v78.13h-4.25l-0.654-13.403h-0.326C408.894,191.789,400.721,198,389.933,198
			c-16.019,0-23.537-9.479-23.537-29.748V117.91z"/>
		<path style="fill:#FFFFFF;" d="M453.351,117.91h4.25l0.653,12.422h0.327c7.191-8.173,16.346-14.384,24.845-14.384
			c12.749,0,18.96,6.538,21.575,16.346c9.154-10.135,17.98-16.346,26.807-16.346c15.364,0,23.21,9.48,23.21,29.748v50.344h-4.903
			V146.35c0-17.326-5.885-25.825-18.634-25.825c-7.846,0-15.691,5.23-24.845,15.691v59.823h-4.903V146.35
			c0-17.326-5.884-25.825-18.634-25.825c-7.519,0-15.691,5.23-24.845,15.691v59.823h-4.903V117.91z"/>
		<path style="fill:#FFFFFF;" d="M585.096,78.027h4.903v34.979l-0.326,15.691c8.172-6.865,17.979-12.75,27.786-12.75
			c21.249,0,31.383,15.691,31.383,39.883c0,26.479-16.019,42.17-34.651,42.17c-7.52,0-16.346-3.596-23.864-9.152h-0.327
			l-0.653,7.191h-4.25V78.027z M614.517,193.424c17,0,29.095-15.691,29.095-37.594c0-19.941-7.191-35.306-26.479-35.306
			c-8.172,0-17.325,4.903-27.133,13.729v48.382C599.152,190.482,608.306,193.424,614.517,193.424z"/>
		<path style="fill:#FFFFFF;" d="M717.493,147.33c0.327-12.749-2.941-26.806-19.287-26.806c-11.115,0-20.595,5.558-25.498,9.479
			l-2.615-3.922c4.903-3.597,15.691-10.135,28.44-10.135c18.307,0,23.864,13.73,23.864,29.422v50.67h-4.25l-0.654-10.461h-0.326
			c-8.173,6.538-17.98,12.422-28.441,12.422c-12.096,0-22.557-6.211-22.557-21.085C666.169,159.426,682.188,151.253,717.493,147.33z
			 M689.053,193.424c9.48,0,17.979-4.576,28.44-13.403v-28.44c-34.324,3.923-46.094,11.769-46.094,25.172
			C671.399,188.848,679.572,193.424,689.053,193.424z"/>
		<path style="fill:#FFFFFF;" d="M748.549,92.411c0-3.596,2.615-5.557,5.558-5.557s5.558,1.961,5.558,5.557
			c0,3.27-2.615,5.558-5.558,5.558S748.549,95.68,748.549,92.411z M751.491,117.91h4.903v78.13h-4.903V117.91z"/>
		<path style="fill:#FFFFFF;" d="M784.507,89.469h30.074c32.691,0,53.613,16.182,53.613,52.795s-20.922,53.775-52.142,53.775
			h-31.546V89.469z M813.274,176.588c17.979,0,30.238-8.826,30.238-34.324c0-25.499-12.259-33.345-30.238-33.345h-4.577v67.669
			H813.274z"/>
		<path style="fill:#FFFFFF;" d="M928.997,143.898c-0.49-7.191-4.086-11.769-12.749-11.769c-6.865,0-13.729,2.779-21.575,7.355
			l-8.5-15.854c10.298-6.211,21.902-10.624,34.652-10.624c20.758,0,32.199,11.768,32.199,36.613v46.42H933.41l-1.798-8.336h-0.49
			c-6.865,6.048-14.547,10.297-23.7,10.297c-14.711,0-24.027-10.787-24.027-24.518C883.395,156.484,896.961,147.167,928.997,143.898
			z M915.595,179.368c5.557,0,9.152-2.615,13.402-6.865v-14.221c-17.162,2.289-22.72,7.192-22.72,13.403
			C906.277,176.915,909.873,179.368,915.595,179.368z"/>
		<path style="fill:#FFFFFF;" d="M976.891,133.764h-11.115v-17.816l12.423-0.98l2.778-21.576h19.941v21.576h19.451v18.797h-19.451
			v32.527c0,9.153,4.086,12.912,10.461,12.912c2.615,0,5.558-0.816,7.683-1.634l3.759,17.489
			c-4.249,1.308-10.134,2.941-17.979,2.941c-20.104,0-27.95-12.585-27.95-31.383V133.764z"/>
		<path style="fill:#FFFFFF;" d="M1076.924,143.898c-0.49-7.191-4.086-11.769-12.749-11.769c-6.865,0-13.73,2.779-21.576,7.355
			l-8.499-15.854c10.298-6.211,21.902-10.624,34.651-10.624c20.759,0,32.2,11.768,32.2,36.613v46.42h-19.614l-1.798-8.336h-0.49
			c-6.865,6.048-14.547,10.297-23.7,10.297c-14.711,0-24.027-10.787-24.027-24.518
			C1031.321,156.484,1044.888,147.167,1076.924,143.898z M1063.521,179.368c5.558,0,9.154-2.615,13.403-6.865v-14.221
			c-17.162,2.289-22.72,7.192-22.72,13.403C1054.204,176.915,1057.8,179.368,1063.521,179.368z"/>
	</g>
	<g>
		<g>
			<g>
				<path style="fill:#FFFFFF;" d="M109.029,257.55l-6.468-8.729l13.823-13.823l-3.699-10.498l-2.682-0.687l4.86-25.358l3.965-2.733
					l2.122,2.498l12.022-8.634l5.614,6.61l-3.808,2.624l-5.299,27.648L109.029,257.55z M103.375,248.882l5.623,7.588l19.896-30.238
					l5.323-27.776l3.453-2.38l-4.801-5.653l-12.022,8.634l-2.129-2.507l-3.296,2.271l-4.703,24.538l2.439,0.625l3.938,11.178
					L103.375,248.882z"/>
			</g>
			<g>
				<path style="fill:#FFFFFF;" d="M159.558,199.056l-7.736-9.107l9.139-6.563l13.14-14.612l-11.171-38.295h6.813l15.547-32.615
					l-19.753-12.159l-0.037-0.055l-11.456-16.853l-6.951,5.178l-7.333-24.512l-15.271-5.935l5.695-5.973l29.437,11.441l7.166,23.955
					l6.76-5.036l11.782,17.333l20.113,12.382l-15.955,33.47h-6.379l11.036,37.833l-13.443,14.939L159.558,199.056z M152.729,190.059
					l6.931,8.161l20.656-14.835l13.14-14.612l-11.171-38.295h6.813l15.547-32.615l-19.753-12.159l-0.037-0.055L173.4,68.795
					l-6.952,5.178l-7.333-24.512L130.347,38.28l-4.771,5.005l14.691,5.709l7.166,23.955l6.76-5.036l11.782,17.333l20.114,12.382
					l-15.955,33.47h-6.379l11.037,37.833l-13.443,14.939L152.729,190.059z"/>
			</g>
		</g>
		<g>
			<g>
				<path style="fill:#FFFFFF;" d="M79.85,51.539l-5.191-2.486l1.932-10.406l10.675,5.114L79.85,51.539z M76.746,47.992l2.691,1.289
					l4.721-4.952l-6.182-2.961L76.746,47.992z"/>
			</g>
			<g>
				<path style="fill:#FFFFFF;" d="M89.703,258.631l-7.314-9.87l13.924-13.924l-3.459-9.818l-2.926-0.75l5.017-26.179l16.844-11.609
					l8.355,9.837l-4.163,2.869l-5.274,27.52L89.703,258.631z M84.835,248.942l4.777,6.447l19.341-29.395l5.348-27.905l3.098-2.136
					l-5.939-6.991l-14.834,10.224l-4.545,23.717l2.195,0.562l4.177,11.857L84.835,248.942z"/>
			</g>
			<g>
				<path style="fill:#FFFFFF;" d="M140.1,199.892l-8.539-10.055l9.63-6.915l12.865-14.306l-11.305-38.756h7.248l15.14-31.76
					l-19.392-11.938l-11.204-16.483l-7.143,5.32l-7.5-25.07l-15.85-6.16l6.619-6.943l30.106,11.701l7,23.397l6.569-4.894
					l12.071,17.758l20.474,12.604l-16.362,34.325h-5.944l10.902,37.372l-13.773,15.284L140.1,199.892z M134.28,190.171l6.127,7.213
					l20.138-14.462l12.865-14.306l-11.306-38.756h7.248l15.14-31.76L165.1,86.162l-11.204-16.483l-7.142,5.32l-7.5-25.07
					l-28.1-10.922l-3.847,4.035l14.111,5.484l7,23.397l6.569-4.894l12.071,17.758l20.474,12.604l-16.362,34.325h-5.944
					l10.902,37.372l-13.772,15.284L134.28,190.171z"/>
			</g>
		</g>
		<g>
			<polygon style="fill:#FFFFFF;" points="150.583,130.788 166.334,97.746 146.401,85.475 134.764,68.354 127.908,73.461 
				120.658,49.228 119.8,48.894 105.678,43.405 91.555,37.917 85.712,44.045 79.644,50.41 75.703,48.522 57.928,40.007 
				53.986,61.242 56.026,82.505 65.707,79.243 64.982,91.565 56.026,98.945 58.854,117.746 68.589,113.29 81.653,125.269 
				81.29,143.752 75.085,170.668 86.364,164.772 88.419,174.557 80.566,180.356 72.858,178.544 72.858,204.275 59.522,225.219 
				61.27,230.652 68.057,222.665 74.21,224.242 78.029,235.08 64.257,248.851 70.303,257.01 90.476,226.35 91.005,223.586 
				95.787,198.638 111.569,187.76 111.626,187.721 118.773,196.135 120.898,198.638 132.92,190.004 141.813,183.617 
				155.091,168.852 143.987,130.788 			"/>
			<path style="fill:#FFFFFF;" d="M70.378,259.711l-8.159-11.01l14.026-14.026l-3.219-9.139l-4.415-1.131l-7.961,9.369l-2.823-8.773
				l13.484-21.177V176.59l8.912,2.095l6.478-4.783l-1.43-6.812l-12.449,6.508l6.925-30.037l0.346-17.624l-11.792-10.814
				l-10.671,4.884l-3.264-21.7l9.112-7.508l0.55-9.358l-9.356,3.152l-2.246-23.422l4.35-23.434l22.524,10.789l11.852-12.43
				l30.773,11.96l6.833,22.84l6.379-4.751l12.36,18.183l20.835,12.826l-16.77,35.179h-5.509l10.767,36.91l-13.966,15.531
				l-22.21,15.95l-9.29-10.938l-14.164,9.763l-5.249,27.392L70.378,259.711z M66.295,249.002l3.932,5.306l18.786-28.552
				l5.372-28.033l17.514-12.07l9.254,10.895l19.62-14.09l12.59-14l-11.44-39.218h7.683l14.732-30.906l-19.031-11.715l-10.915-16.058
				l-7.333,5.462l-7.667-25.627l-0.153-0.059L91.961,39.734L79.989,52.292L59.081,42.276L55.547,61.31l1.833,19.105l10.006-3.371
				L66.487,92.33l-8.801,7.252l2.392,15.901l8.799-4.027L83.214,124.6l-0.379,19.343l-5.486,23.795l10.11-5.285l2.679,12.759
				l-9.229,6.814l-6.503-1.528v24.228l-13.187,20.711l0.674,2.093l5.613-6.604l7.891,2.022l4.417,12.537L66.295,249.002z"/>
		</g>
	</g>
</g>
</svg>
