<?xml version="1.0" encoding="iso-8859-1"?>
<!-- Generator: Adobe Illustrator 17.0.0, SVG Export Plug-In . SVG Version: 6.00 Build 0)  -->
<!DOCTYPE svg PUBLIC "-//W3C//DTD SVG 1.1//EN" "http://www.w3.org/Graphics/SVG/1.1/DTD/svg11.dtd">
<svg version="1.1" xmlns="http://www.w3.org/2000/svg" xmlns:xlink="http://www.w3.org/1999/xlink" x="0px" y="0px" width="300px"
	 height="300px" viewBox="0 0 300 300" style="enable-background:new 0 0 300 300;" xml:space="preserve">
<g id="Layer_1">
</g>
<g id="Layer_2">
	<g>
		<g>
			<g>
				<path style="fill:#FFFFFF;" d="M127.779,265.816l-6.792-9.166l14.514-14.515l-3.884-11.024l-2.816-0.722l5.104-26.628
					l4.164-2.87l2.228,2.623l12.624-9.067l5.895,6.941l-3.999,2.756l-5.564,29.033L127.779,265.816z M121.843,256.713l5.904,7.968
					l20.892-31.753l5.591-29.168l3.626-2.499l-5.042-5.937l-12.624,9.067l-2.235-2.632l-3.461,2.385l-4.939,25.768l2.561,0.656
					l4.135,11.738L121.843,256.713z"/>
			</g>
			<g>
				<path style="fill:#FFFFFF;" d="M180.84,204.391l-8.123-9.564l9.596-6.892l13.8-15.344l-11.731-40.214h7.155l16.326-34.249
					L187.12,85.36l-0.039-0.058l-12.03-17.698l-7.3,5.438l-7.701-25.74l-16.035-6.233l5.98-6.273l30.912,12.014l7.525,25.155
					l7.099-5.288l12.372,18.201l21.121,13.002l-16.754,35.147h-6.698l11.589,39.728l-0.121,0.135l-13.996,15.552L180.84,204.391z
					 M173.669,194.944l7.279,8.57l21.69-15.578l13.8-15.344l-11.731-40.214h7.155l16.326-34.249L207.445,85.36l-0.039-0.058
					l-12.03-17.698l-7.3,5.438l-7.7-25.74l-30.21-11.742l-5.01,5.255l15.427,5.995l7.526,25.155l7.099-5.288l12.372,18.201
					l21.12,13.002l-16.754,35.147h-6.698l11.589,39.728l-0.121,0.135l-13.996,15.552L173.669,194.944z"/>
			</g>
		</g>
		<g>
			<g>
				<path style="fill:#FFFFFF;" d="M97.14,49.484l-5.451-2.611l2.029-10.927l11.211,5.37L97.14,49.484z M93.879,45.76l2.826,1.354
					l4.957-5.2l-6.492-3.11L93.879,45.76z"/>
			</g>
			<g>
				<path style="fill:#FFFFFF;" d="M107.486,266.951l-7.68-10.364l14.622-14.622l-3.632-10.31l-3.072-0.787l5.268-27.491
					l17.686-12.192l8.776,10.331l-4.372,3.013l-5.539,28.899L107.486,266.951z M102.375,256.777l5.016,6.77l20.31-30.868
					l5.616-29.303l3.253-2.243l-6.236-7.342l-15.577,10.736l-4.773,24.905l2.305,0.59l4.386,12.451L102.375,256.777z"/>
			</g>
			<g>
				<path style="fill:#FFFFFF;" d="M160.407,205.269l-8.967-10.559l10.112-7.262l13.509-15.023l-11.872-40.698h7.612l15.898-33.351
					l-20.364-12.536L154.57,68.532l-7.499,5.587l-7.876-26.326l-16.644-6.469l6.951-7.291l31.613,12.287l7.351,24.57l6.899-5.139
					l12.675,18.647l21.499,13.235l-17.182,36.044h-6.241l11.448,39.244l-14.463,16.05L160.407,205.269z M154.296,195.061
					l6.434,7.575l21.147-15.187l13.51-15.023l-11.872-40.698h7.611l15.898-33.351l-20.363-12.536l-11.766-17.309l-7.5,5.587
					l-7.876-26.326l-29.508-11.469l-4.04,4.237l14.817,5.759l7.351,24.57l6.899-5.139l12.675,18.647l21.5,13.235l-17.182,36.044
					h-6.242l11.448,39.244l-14.462,16.05L154.296,195.061z"/>
			</g>
		</g>
		<g>
			<polygon style="fill:#FFFFFF;" points="171.416,132.703 187.956,98.005 167.025,85.12 154.804,67.141 147.605,72.504 
				139.992,47.057 139.09,46.706 124.261,40.943 109.431,35.179 103.295,41.615 96.922,48.299 92.784,46.316 74.119,37.375 
				69.979,59.672 72.121,82.001 82.287,78.576 81.526,91.515 72.121,99.265 75.091,119.008 85.314,114.328 99.032,126.908 
				98.652,146.317 92.135,174.581 103.98,168.39 106.137,178.665 97.891,184.754 89.797,182.851 89.797,209.872 75.793,231.865 
				77.629,237.57 84.756,229.183 91.217,230.839 95.227,242.22 80.765,256.681 87.114,265.249 108.297,233.053 108.853,230.15 
				113.874,203.952 130.447,192.529 130.507,192.488 138.012,201.324 140.244,203.952 152.868,194.886 162.206,188.179 
				176.15,172.674 164.49,132.703 			"/>
		</g>
	</g>
</g>
</svg>
